<svg xmlns="http://www.w3.org/2000/svg" viewBox="0 0 189.49 85.26"><defs><style>.cls-1{fill:#07004f;}.cls-2{fill:#727272;}</style></defs><title>TS_initials</title><g id="Layer_2" data-name="Layer 2"><g id="Layer_1-2" data-name="Layer 1"><polygon class="cls-1" points="131.75 0 17.64 0 0 21.95 40.04 21.95 40.04 85.26 65.88 85.26 65.88 21.95 114.31 21.95 131.75 0"/><polygon class="cls-1" points="128.85 22.07 145.68 0 188.75 0 171.92 22.1 128.85 22.07"/><path class="cls-2" d="M189.49,56.92c0-23.12-26.68-23.1-26.68-23.1H83.72c-1.17.06-3.57.44-3.07,2.7,1.91,4.32,5.13,7.39,10.45,10.63s15.9,3.4,15.9,3.4l51.7,0A6.37,6.37,0,1,1,159,63.31l-66.71,0L75.49,85.05h87.43S188.89,85.3,189.49,56.92Z"/></g></g></svg>