<svg xmlns="http://www.w3.org/2000/svg" viewBox="0 0 731.49 57.19"><defs><style>.cls-1,.cls-2,.cls-3{fill:#fff;}.cls-2,.cls-3{stroke:#fff;stroke-miterlimit:10;}.cls-2{stroke-width:1.84px;}.cls-3{stroke-width:1.23px;}</style></defs><title>TS_logo_white</title><g id="Layer_2" data-name="Layer 2"><g id="Layer_1-2" data-name="Layer 1"><polygon class="cls-1" points="423.65 0 347.97 0 336.27 14.56 362.83 14.56 362.83 56.54 379.96 56.54 379.96 14.56 412.08 14.56 423.65 0"/><polygon class="cls-1" points="421.72 14.64 432.88 0 461.44 0 450.29 14.66 421.72 14.64"/><path class="cls-2" d="M62.73,2.58a6,6,0,0,1-1,2.41c-.59,1-1.2,1.8-1.93,2.93a27.89,27.89,0,0,1-2,2.66A3.29,3.29,0,0,1,55.59,12H37.83V55a1.14,1.14,0,0,1-1.29,1.3H27.12c-.8,0-1.19-.43-1.19-1.3V12H2.22a1.15,1.15,0,0,1-1.3-1.3A6.54,6.54,0,0,1,2,8.16c.64-1.08,1.28-2,2-3.07A24.23,24.23,0,0,1,5.9,2.41,2.9,2.9,0,0,1,8.06,1.28H61.43A1.15,1.15,0,0,1,62.73,2.58Z"/><path class="cls-2" d="M115,55.62,102.9,36.24a22,22,0,0,1-1.41,2.06,12.07,12.07,0,0,0-1.3,2.06,1.56,1.56,0,0,1-1.08.54H74.86q-2.28,3.68-4.66,7.36t-4.76,7.36a.92.92,0,0,1-1,.65H53.32a1.14,1.14,0,0,1-1-1.84L83.19,5A7.49,7.49,0,0,1,86,2.31a9.66,9.66,0,0,1,4.5-1.14A8.25,8.25,0,0,1,97.27,5l31,49.47a1.38,1.38,0,0,1,.05,1.25,1.12,1.12,0,0,1-1.13.59H116A1.19,1.19,0,0,1,115,55.62ZM94.67,23.31q-2.06-3.19-4.55-7.09c-1.51,2.52-2.94,4.81-4.27,6.87s-2.84,4.42-4.5,7.09H99.11Q96.73,26.51,94.67,23.31Z"/><path class="cls-2" d="M138.08,1.28h9.42a1.15,1.15,0,0,1,1.3,1.3v43h38.86a1.15,1.15,0,0,1,1.3,1.3,6.53,6.53,0,0,1-.7,2.44,20.08,20.08,0,0,1-1.79,3.14,15.66,15.66,0,0,1-2.33,2.71,3.56,3.56,0,0,1-2.22,1.13H138.08a1.15,1.15,0,0,1-1.3-1.3V2.58A1.15,1.15,0,0,1,138.08,1.28Z"/><path class="cls-2" d="M206.77,53.57a25,25,0,0,1-6.66-6.72,30.07,30.07,0,0,1-4-8.55,30.41,30.41,0,0,1-1.29-8.23V27.48a30.41,30.41,0,0,1,1.29-8.23,30.07,30.07,0,0,1,4-8.55A25,25,0,0,1,206.77,4a16.17,16.17,0,0,1,9.36-2.7h42.44a1.15,1.15,0,0,1,1.3,1.3A6.5,6.5,0,0,1,259.16,5a19.56,19.56,0,0,1-1.78,3.14,15.66,15.66,0,0,1-2.33,2.71A3.53,3.53,0,0,1,252.83,12h-34a9.05,9.05,0,0,0-4.06.92,11.55,11.55,0,0,0-3.41,2.54,16.82,16.82,0,0,0-2.6,3.68,18.35,18.35,0,0,0-1.62,4.33h46.33a1.15,1.15,0,0,1,1.3,1.3,6.73,6.73,0,0,1-.7,2.44,20,20,0,0,1-1.79,3.13A15.66,15.66,0,0,1,250,33.05a3.53,3.53,0,0,1-2.22,1.14H207.15a17.44,17.44,0,0,0,4.22,8,9.79,9.79,0,0,0,7.47,3.41h39.73a1.15,1.15,0,0,1,1.3,1.3,6.59,6.59,0,0,1-.71,2.44,20,20,0,0,1-1.78,3.14,15.66,15.66,0,0,1-2.33,2.71,3.56,3.56,0,0,1-2.22,1.13h-36.7A16.17,16.17,0,0,1,206.77,53.57Z"/><path class="cls-2" d="M319.84,38.63V1.28h12v55H321L281.19,19V56.27h-12v-55h10.71Z"/><polygon class="cls-1" points="534.97 0 471.77 0 460.07 14.56 486.62 14.56 486.62 56.54 503.75 56.54 503.75 14.56 521.27 14.56 534.97 0"/><path class="cls-1" d="M461.94,37.75c0-15.34-17.7-15.32-17.7-15.32H391.79c-.78,0-2.36.29-2,1.79,1.26,2.86,3.4,4.9,6.93,7.05s10.54,2.25,10.54,2.25l34.29,0a4.23,4.23,0,1,1,.17,8.44l-44.24,0L386.34,56.4h58S461.54,56.57,461.94,37.75Z"/><path class="cls-3" d="M528.72,56.27h-11a1.14,1.14,0,0,1-1-1.84L547.12,5.61a8.44,8.44,0,0,1,7.15-3.68,7.63,7.63,0,0,1,6.82,3.68l30.52,48.82a1.39,1.39,0,0,1,.06,1.25,1.13,1.13,0,0,1-1.14.59H579.6a1.25,1.25,0,0,1-1.08-.65l-9.1-14.5h-24a.91.91,0,0,1-1-.55l-2.71-4-12,19C529.33,56.06,529,56.27,528.72,56.27Zm16.67-25.76h17.43q-2.28-3.57-4.33-6.77c-1.37-2.13-2.89-4.45-4.55-7-1.44,2.45-2.81,4.71-4.11,6.76S547.05,27.91,545.39,30.51Z"/><path class="cls-3" d="M606.61,53.57A24.78,24.78,0,0,1,600,46.91a30.43,30.43,0,0,1-4-8.45,29.56,29.56,0,0,1-1.3-8.06V27.91a29.68,29.68,0,0,1,1.3-8.07,30.51,30.51,0,0,1,4-8.44,24.78,24.78,0,0,1,6.61-6.66A16,16,0,0,1,615.86,2h41.79c.87,0,1.3.39,1.3,1.19a6.45,6.45,0,0,1-.7,2.43,19.87,19.87,0,0,1-1.74,3.09,14.72,14.72,0,0,1-2.27,2.65A3.53,3.53,0,0,1,652,12.54H618.57a8.88,8.88,0,0,0-5,1.46,13.1,13.1,0,0,0-3.79,3.84,18.67,18.67,0,0,0-2.38,5.25,20.82,20.82,0,0,0-.82,5.79v.54a20.89,20.89,0,0,0,.82,5.8,18.67,18.67,0,0,0,2.38,5.25,13.1,13.1,0,0,0,3.79,3.84,9,9,0,0,0,5,1.46h39.08c.87,0,1.3.4,1.3,1.19a6.53,6.53,0,0,1-.7,2.44,20.25,20.25,0,0,1-1.74,3.08,14.79,14.79,0,0,1-2.27,2.66A3.56,3.56,0,0,1,652,56.27H615.86A16,16,0,0,1,606.61,53.57Z"/><path class="cls-3" d="M670.32,2h9.31c.86,0,1.3.39,1.3,1.19V23q8.45-5.2,16.72-10.5T714.38,2h15.26a1.09,1.09,0,0,1,1.19.86,1.24,1.24,0,0,1-.54,1.41l-38.43,24.9q9.85,6.16,19.21,12.39T730.29,54a1.24,1.24,0,0,1,.54,1.41,1.09,1.09,0,0,1-1.19.86H714.38L680.93,35.38v19.7c0,.8-.44,1.19-1.3,1.19h-9.31a1,1,0,0,1-1.19-1.19V3.23A1,1,0,0,1,670.32,2Z"/></g></g></svg>