<svg xmlns="http://www.w3.org/2000/svg" viewBox="0 0 225.23 385.39"><defs><style>.cls-1{opacity:0.25;}.cls-2{fill:#006384;}.cls-3{fill:#100b26;}.cls-4{fill:#161230;}.cls-5{fill:#020500;}.cls-6{fill:#05021c;}.cls-7{fill:#581d01;}.cls-8{fill:#cce6f3;}.cls-9{fill:#803315;}.cls-10{fill:#d77c57;}.cls-11{fill:#f9a873;}.cls-12{fill:#fbb686;}.cls-13{fill:#b46849;}.cls-14{fill:#171432;}.cls-15{fill:#603913;}.cls-16{fill:#8a6a4d;}.cls-17{fill:#270000;}.cls-18{fill:#a14423;}.cls-19{fill:#1f0000;}.cls-20{fill:#28214b;}.cls-21{fill:#f7925c;}.cls-22{fill:#180000;}.cls-23{fill:#310a00;}.cls-24{fill:#14160e;}.cls-25{fill:#010300;}.cls-26{fill:#f9a36d;}.cls-27{fill:#1e173b;}.cls-28{fill:#e8f6ff;}.cls-29{fill:#191435;}.cls-30{fill:#241e46;}.cls-31{fill:#f89c69;}.cls-32{fill:#2f1c1c;}.cls-33{fill:#231b44;}.cls-34{fill:#100000;}.cls-35{fill:#531700;}.cls-36{fill:#943a17;}.cls-37{fill:#cd5f33;}.cls-38{fill:#aa4e27;}.cls-39{fill:#cf532f;}.cls-40{fill:#c5c3cf;}</style></defs><title>man_2</title><g id="Layer_2" data-name="Layer 2"><g id="Layer_1-2" data-name="Layer 1"><g class="cls-1"><path class="cls-2" d="M115.4,382.31c28.3-6.47,50.44-21.26,53.32-34.71a12.68,12.68,0,0,0,.2-4.58.17.17,0,0,0,0-.12,8.7,8.7,0,0,0-.5-2c-4.2-13-30.43-18.11-60.57-11.21-31.64,7.23-55.6,24.87-53.53,39.41a10.15,10.15,0,0,0,.25,1.22,12.8,12.8,0,0,0,2.72,5.19C65.48,385.2,88.92,388.36,115.4,382.31Z"/></g><path class="cls-3" d="M103.91,283.88s-2.82,21.53-6.09,34.43-1.61,27.85-3.28,27.85H87.9L93,301Z"/><path class="cls-4" d="M74.61,346.16s-8.3-1.66-10-3.32,7.53-52.6,7.53-52.6l19-82s8.31-3.32,11.63-1.66,2.77,1.74,2.77,1.74L93.49,299.9,87.9,346.16l-4.85.37Z"/><path class="cls-5" d="M89,375.92l.43-.07.65-.11,1.72-.29,1.73-.3h0a9.29,9.29,0,0,0,2.73-.75c1.05-.64,1.2-2.21,1.28-3a9.25,9.25,0,0,0-1.28-5.31,69.22,69.22,0,0,0-6.65-10l-3.32,10Z"/><path class="cls-3" d="M131.09,279.72,131,294.8l5.82-.38s.64-22.18.78-24.25S131.09,279.72,131.09,279.72Z"/><polygon class="cls-3" points="105.65 208.15 102.97 226.57 116.14 219.92 120.51 198.86 105.65 208.15"/><polygon class="cls-6" points="114.48 221.85 120.41 199.29 132.75 191.68 132.74 209.74 114.48 221.85"/><polygon class="cls-3" points="132.75 188.36 132.66 210.51 139.31 205.8 139.39 186.69 132.75 188.36"/><path class="cls-7" d="M217.27,1.29l.33.19c3,0,5.6,12,3.25,14.62a2.47,2.47,0,0,0,2,.46c2.18-.53,3-4.66,1.9-9.2s-3.8-7.83-6-7.3h0A2.57,2.57,0,0,0,217.27,1.29Z"/><path class="cls-8" d="M217.6,1.48l-.33-.19c-1,1.66-1.21,4.71-.41,8s2.35,5.8,4,6.82C223.2,13.52,220.57,1.52,217.6,1.48Z"/><path class="cls-9" d="M211.08,9.24a23.91,23.91,0,0,0,4.2,8.93c4.4-.87,7.48-1.53,7.56-1.61a2.47,2.47,0,0,1-2-.46c-1.64-1-3.2-3.59-4-6.82s-.59-6.33.41-8A2.57,2.57,0,0,1,218.74.06c-.34,0-3,.59-6.74,1.5A12.1,12.1,0,0,0,211.08,9.24Z"/><path class="cls-10" d="M177.73,18.18a10.92,10.92,0,0,0,2.64,5.32,3,3,0,0,0,2.88.93c.28-.07,20.59-4,32-6.26a23.91,23.91,0,0,1-4.2-8.93A12.1,12.1,0,0,1,212,1.56c-10.93,2.66-31.25,7.89-31.64,8A3.69,3.69,0,0,0,178,11.86,10,10,0,0,0,177.73,18.18Z"/><path class="cls-8" d="M166.74,32.78a23.92,23.92,0,0,1-5.39-.67.58.58,0,0,0-.18,0c.55,2.18.62,4.48,1.77,6.6l-.05.38c5.14.71,11.43-1.52,16-3.73l-.09-.16a44.86,44.86,0,0,1-.67-4.69c-3.3,2.05-7.41,2.33-11.18,2.32Z"/><path class="cls-11" d="M160.09,25c-3.2-.13-6.12-3.12-7.21,1.33l.81.45a15.85,15.85,0,0,1,2.21,1.49A42.39,42.39,0,0,0,161.17,32a.71.71,0,0,0,.18.08,23.92,23.92,0,0,0,5.39.67H167c3.77,0,7.88-.27,11.18-2.32a2.26,2.26,0,0,0,0-.26l-.1-.1c1.61-1.52,2.13-4,2.16-6.39l0-.18c-3.68.74-8.62,1.73-13.64,2.7C164.46,25.24,162.72,25.17,160.09,25Z"/><path class="cls-12" d="M158.07,19.43c.84.1,2.17-1.07,2.68-2a3.23,3.23,0,0,0,2.4,1.37c2.33.19,2.53-1.64,2.3-3.48a2.55,2.55,0,0,1-.3-.49,1.43,1.43,0,0,1,.23,0,4.63,4.63,0,0,1,.07.52c.73,1,1.7,1.44,2.82.44a5.16,5.16,0,0,0,1.17-1.9l1.46-.32a2.34,2.34,0,0,0,4.2-1,8.79,8.79,0,0,0,0-3.11c-.81-2-4-1.75-4.92-.43.07.46.11,1,.14,1.5,0,.14,0,.3.05.44a1.75,1.75,0,0,1-.46-1c-1.69-1.92-5.33-1-5.6.92a.47.47,0,0,0-.21-.11c-1.77-.82-3.87-.27-4.41,1.52l-.32-.25c-3.38-2.31-4.85,1.83-4.08,4,.1.31.21.63.33.95C156,18.18,156.68,19.31,158.07,19.43Z"/><path class="cls-13" d="M141.52,25.48A6.79,6.79,0,0,0,143.29,29,3.48,3.48,0,0,0,146.5,30c.08,0,4-.74,9.4-1.76a15.85,15.85,0,0,0-2.21-1.49l-.81-.45c1.09-4.45,4-1.46,7.21-1.33,2.63.19,4.37.26,6.46,1.26,5-1,10-2,13.64-2.7a.58.58,0,0,1,.18,0,10.92,10.92,0,0,1-2.64-5.32,10,10,0,0,1,.29-6.32l-2.92.68a2.34,2.34,0,0,1-4.2,1l-1.46.32a5.16,5.16,0,0,1-1.17,1.9c-1.12,1-2.09.55-2.82-.44.23,1.84,0,3.67-2.3,3.48a3.23,3.23,0,0,1-2.4-1.37c-.51,1-1.84,2.14-2.68,2-1.39-.12-2-1.25-2.49-2.45-6,1.33-10.63,2.39-10.73,2.42a4.29,4.29,0,0,0-2.61,1.9A5.5,5.5,0,0,0,141.52,25.48Z"/><path class="cls-3" d="M132.21,266.13c-.18,4.44-.36,8.78-.54,13.05l5.75-3.25c.55-18.74,1.67-53.68,1.93-72.75l-6.61,3.87C132.23,227.76,132.9,247.37,132.21,266.13Z"/><path class="cls-5" d="M128.94,326.9c-5,1.94-10.48,2.91-15.73,4a18,18,0,0,0,5.82,4.79c4.51,2.57,10.23,4.45,14.75,6.34a35.23,35.23,0,0,1,4.06,1.95,22.24,22.24,0,0,1,2.16-1.41,42.45,42.45,0,0,1,5.05-2.52,23.7,23.7,0,0,1-3.77-2.82c-3.82-3.43-7-8.21-7.45-12.55a34.45,34.45,0,0,1-4.17,2Q129.3,326.78,128.94,326.9Z"/><path class="cls-6" d="M111.92,237.22c-1.39,6.72-2.67,13.52-3.93,20.38-.44,4.34-.06,19.32.45,34.7,8.84-5,17.44-9.87,23.23-13.12.18-4.27.36-8.61.54-13.05.69-18.76,0-38.37.53-59.08l-17.51,10.29c-.09.4-.18.76-.24,1C113.69,224.62,113.21,231,111.92,237.22Z"/><path class="cls-6" d="M162.89,39.05a8.26,8.26,0,0,1-1.63-.3l-1.34.3A192.66,192.66,0,0,0,167.43,66c-.9-.23-1.79-.5-2.66-.77s-1.47-.52-2.19-.79c-1.11-.41-2.18-.87-3.25-1.36-.61-.27-1.21-.55-1.82-.86-8.2-4-15.19-9.18-20.71-10.85a.41.41,0,0,1-.18-.05,11.28,11.28,0,0,0-2.44-.45,7.54,7.54,0,0,0-.82,0,9.44,9.44,0,0,1,2.5.77l.06,0,.22.13.1.06s0,0,0,0a11.73,11.73,0,0,1,3.81,6.33,42,42,0,0,1,1.31,10.33c.76,4.12,1.4,8.71,2,13.68,10.16,4.75,38.33,14.47,41.51,13.69A11.83,11.83,0,0,0,190.41,93c4.5-5.57-2.67-38.4-8.85-59-.78.43-1.68.9-2.64,1.34C174.32,37.53,168,39.76,162.89,39.05Z"/><path class="cls-3" d="M131,294.78l0,0c-.12,2.85-.23,5.68-.35,8.53-.08,1.54-.14,3.07-.2,4.63q-.25,5.52-.48,11.12c-.05,1.43-.11,2.87-.18,4.3v0c0,1.08-.08,2.15-.12,3.23a34.45,34.45,0,0,0,4.17-2,4.12,4.12,0,0,0,.75-.47c1-15.94,1.52-22,1.76-24.19,0-.51.3-2.79.49-5.88.07-1.16.88-23.79.9-24.36Z"/><path class="cls-14" d="M140.08,58.18a11.73,11.73,0,0,0-3.81-6.33s0,0,0,0l-.1-.06-.22-.13-.06,0a9.44,9.44,0,0,0-2.5-.77,7.54,7.54,0,0,1,.82,0c-.22-.06-.46-.1-.7-.15-3.79.29-13.44,4.05-16.89,5.37a4.94,4.94,0,0,1-.74.27l-.18.08c2.46,3.07,5.54,7.67,7.6,10.69,3.07,4.29,5.59,8.38,8.84,12.27-1.13.74-2.59,1.06-3.54,2,1.1,1.13,4.4,2.08,5.11,3.74.28.68-.07,2.53-.29,4a1.81,1.81,0,0,1,0,.39,5.19,5.19,0,0,1-.07.7s0,.06,0,.08v.16c-.05,3.87-.28,7.93-.54,11.8a49.41,49.41,0,0,1-.92,6c0,.79-.1,1.59-.17,2.37-.6,7.77-1,15.36-1.78,22.92a4.82,4.82,0,0,1-.13,1.3c.31,2.83.51,5.21.67,6.83.46,5.57.75,11.19.87,16.82.08,2.87.12,5.74.1,8.61,0,8.8-.4,17.52-1,26.11a5,5,0,0,1,0,.64c4.71-2.83,9.35-5.66,13.69-8.27.13-.18.23-.34.33-.51,2.15-16,2.92-67.9-1-102.85-.55-5-1.19-9.56-2-13.68A42,42,0,0,0,140.08,58.18Z"/><path class="cls-15" d="M128.54,168.15l2.81-1.08c0-2.87,0-5.74-.1-8.61-.74,1.38-1.7,2.89-2.63,4.29C128.59,164.36,128.57,166.46,128.54,168.15Z"/><path class="cls-16" d="M119.62,171.16c.77-.21,1.55-.42,2.33-.67,1.4-.44,2.83-.92,4.19-1.44.8-.28,1.62-.59,2.4-.9,0-1.69.05-3.79.08-5.4-.86,1.26-1.69,2.45-2.28,3.38a.31.31,0,0,0-.09.12c0-.1,0-.18,0-.28a13.93,13.93,0,0,0-2-3,26.62,26.62,0,0,1-4.51,1.77C119.71,166.65,119.59,169.3,119.62,171.16Z"/><path class="cls-6" d="M126.14,169.05c0,.32,0,.62,0,.94h-.24c-.77,8.24-3.19,16.78-4.63,25-.26,1.63-.58,3.24-.94,4.81l10-6v0a5,5,0,0,0,0-.64c.62-8.59,1-17.31,1-26.11l-2.81,1.08C127.76,168.46,126.94,168.77,126.14,169.05Z"/><path class="cls-17" d="M122.32,86.81c0,.08,0,.16.05.24.25.84.46,1.68.67,2.52-.55-2.58-1.13-5-1.74-7,0,.18.07.36.13.56C121.68,84.11,122,85.45,122.32,86.81Z"/><path class="cls-15" d="M119.77,164.74a34.65,34.65,0,0,1-5.41,1.12l-.18,0c-.33,2.13-.68,4.22-1.05,6.31a25,25,0,0,0,6.49-1C119.59,169.3,119.71,166.65,119.77,164.74Z"/><path class="cls-3" d="M125.86,170h.24c0-.32,0-.62,0-.94-1.36.52-2.79,1-4.19,1.44-.78.25-1.56.46-2.33.67a25,25,0,0,1-6.49,1c-2.9,16.81-6.81,31.55-7,32.6-.08.72-.25,2-.5,3.82C110,206,115,203,120.29,199.84c.36-1.57.68-3.18.94-4.81C122.67,186.77,125.09,178.23,125.86,170Z"/><path class="cls-18" d="M120.1,26.18a2.53,2.53,0,0,0-.36.12,2.28,2.28,0,0,0-.91.54,3.69,3.69,0,0,0-1,3.46c.39,1.94,1.67,3.21,3,3.13.13,0,.24,0,.36,0l.56-.12c2.54-.5,12.94-2.59,21.5-4.33a6.79,6.79,0,0,1-1.77-3.47,5.5,5.5,0,0,1,.72-4.18c-8.44,1.88-18.86,4.15-21.5,4.73l-.62.15Z"/><path class="cls-19" d="M117,12.12a8.59,8.59,0,0,1-.86,1.15c1,3.54,1.72,7.64,3.1,10.91a1.88,1.88,0,0,0-.44.85l1,1-.16,0a.65.65,0,0,1,.08.28,2.53,2.53,0,0,1,.36-.12h0l.62-.15c.1-5.66.2-13.55-3.18-18A5.6,5.6,0,0,1,117,12.12Z"/><path class="cls-9" d="M118.17,25.78,116.45,27a6.6,6.6,0,0,0-.62,3c.21,2.9,4,6.42,5,3.44-1.37.08-2.65-1.19-3-3.13a3.69,3.69,0,0,1,1-3.46,2.28,2.28,0,0,1,.91-.54.65.65,0,0,0-.08-.28l-1-.16Z"/><path class="cls-3" d="M96.46,276.17c-.84,8.42-1.95,16.6-3.1,24.64,2.82-1.58,5.77-3.25,8.76-4.94.18-1,.37-2.09.57-3.17,1-6,1.93-16.06,3-22.05.78-4.34,1.56-8.72,2.35-13,1.26-6.86,2.54-13.66,3.93-20.38,1.29-6.27,1.77-12.6,3.07-18.85.06-.27.15-.63.24-1l-11.92,7c-2.55,17-6,39.77-7,47.66C96.33,272,96.46,276.15,96.46,276.17Z"/><path class="cls-6" d="M128.94,326.9q.36-.12.72-.27c0-1.08.09-2.15.13-3.23v0c.06-1.43.12-2.87.17-4.3q.22-5.59.48-11.12c.06-1.56.12-3.09.2-4.63.12-2.85.23-5.68.35-8.53l-22.06,12.46c.07,2.2.14,4.31.21,6.35,0,.62,0,1.19.06,1.77,0,1.9.13,3.69.17,5.37,0,.88,0,1.71.08,2.49,0,1.18,0,2.26.07,3.25,0,.24,0,.46,0,.68,0,2.18,0,3.75,0,4.51.6-.13,1.21-.29,1.79-.4s1.25-.28,1.89-.41C118.46,329.81,123.89,328.84,128.94,326.9Z"/><path class="cls-8" d="M116.29,79.75c.16.2.34.4.49.61.33.42.67.9,1,1.4.7,1,1.42,2.22,2.11,3.44.31.54.6,1.09.91,1.65a1.86,1.86,0,0,1,.1.2c.33.62.64,1.24.93,1.85.7,1.38,1.3,2.69,1.78,3.81,0-.38-.61-3-1.24-5.66,0-.08,0-.16-.05-.24-.32-1.36-.64-2.7-.89-3.7-.06-.2-.09-.38-.13-.56a.47.47,0,0,0,0-.16c-.62-2.92-1.35-6-2.23-9.06-.36.51-.71,1-1,1.44-.73-.77-1.5-1.58-2.27-2.35a40.81,40.81,0,0,1,.56,7.19Z"/><path class="cls-20" d="M114.52,62.4v.08A44.34,44.34,0,0,1,119,73.33c.88,3,1.61,6.14,2.23,9.06a.47.47,0,0,1,0,.16c.61,2.06,1.19,4.44,1.74,7,.11.44.2.86.28,1.3a8.83,8.83,0,0,1,.24,1.18q.12.51.21,1c1.77,8.92,3.31,19.69,4.46,29,.6,4.73,1.1,9.1,1.48,12.7a4.82,4.82,0,0,0,.13-1.3c.75-7.56,1.18-15.15,1.78-22.92.07-.78.13-1.58.17-2.37a49.41,49.41,0,0,0,.92-6c.26-3.87.49-7.93.54-11.8v-.16s0,0,0-.08a5.19,5.19,0,0,0,.07-.7,1.81,1.81,0,0,0,0-.39c.22-1.46.57-3.31.29-4-.71-1.66-4-2.61-5.11-3.74,1-.92,2.41-1.24,3.54-2-3.25-3.89-5.77-8-8.84-12.27-2.06-3-5.14-7.62-7.6-10.69l-1.2.38A27.77,27.77,0,0,0,114.52,62.4Z"/><path class="cls-21" d="M116.77,43.25c.9-.41,2.35-2.66,2.35-2.66l-3-4.57,2.48,4.3A3.66,3.66,0,0,1,117,41.59a6.16,6.16,0,0,1-2.47.59S115.89,43.63,116.77,43.25Z"/><path class="cls-22" d="M117,12.12c-.33.34-.61.67-.89,1a.7.7,0,0,0,0,.14A8.59,8.59,0,0,0,117,12.12Z"/><polygon class="cls-23" points="114 26.72 114.4 28.48 116.45 26.99 118.17 25.78 118.69 25.86 119.66 26.02 119.82 26.04 118.78 25.03 117.83 24.1 114 26.72"/><path class="cls-24" d="M137.84,344a35.23,35.23,0,0,0-4.06-1.95c-4.52-1.89-10.24-3.77-14.75-6.34a18,18,0,0,1-5.82-4.79c-.64.13-1.26.26-1.89.41a7.47,7.47,0,0,0-.16,2.19,3.48,3.48,0,0,0,.1.44,40.11,40.11,0,0,0,4.84,3.38,107,107,0,0,0,14.27,7.21,36.53,36.53,0,0,0,8.5,2.67,4,4,0,0,0,1.7-.09,32.36,32.36,0,0,1,7.45-2.37c-.1-1-.31-2.22-.57-3.54a17.42,17.42,0,0,1-2.4-1.15,42.45,42.45,0,0,0-5.05,2.52A22.24,22.24,0,0,0,137.84,344Z"/><path class="cls-25" d="M138.87,347.17a36.53,36.53,0,0,1-8.5-2.67,107,107,0,0,1-14.27-7.21,40.11,40.11,0,0,1-4.84-3.38s-.08-.05-.12-.1a17,17,0,0,0,.06,4.19l1.88,1c1.15.62,2.52,1.33,3.23,1.66,1.67-3,3.66,1.83,4.8,3.58.43.64,2.49,1.63,5.09,2.62a65.71,65.71,0,0,0,11.93,3.37,3,3,0,0,0,.48.05v0c3.07,0,6.48-1.58,9.56-2.66a25.61,25.61,0,0,0-.15-3,32.36,32.36,0,0,0-7.45,2.37A4,4,0,0,1,138.87,347.17Z"/><path class="cls-17" d="M123.77,93.07c-.06-.12-.1-.24-.16-.36-.48-1.12-1.08-2.43-1.78-3.81-.29-.61-.6-1.23-.93-1.85a1.86,1.86,0,0,0-.1-.2c-.31-.56-.6-1.11-.91-1.65-.69-1.22-1.41-2.41-2.11-3.44-.33-.5-.67-1-1-1.4-.15-.21-.33-.41-.49-.61l-.08-.08.08-.06a40.81,40.81,0,0,0-.56-7.19,37.43,37.43,0,0,0-5.2-4.63c-.87,2.91-1.11,5.59-1.76,8.45a54.78,54.78,0,0,1,5.28,4.32.33.33,0,0,1-.16,0c.23,1.8.53,3.6.82,5.42.35,2.14.68,4.26.85,6.37.49,3.6.8,7.51,1.29,10.95.05.1.11.18.17.28.53,5.15,1,10.74,1.52,16.13.89,10.32,1.54,19.82,1.59,23.61.15,5,.55,10.26.29,15.06,1.22,1.53,2.63,2.95,3.86,4.54a13.93,13.93,0,0,1,2,3c0,.1,0,.18,0,.28a.31.31,0,0,1,.09-.12c.59-.93,1.42-2.12,2.28-3.38s1.89-2.91,2.63-4.29c-.12-5.63-.41-11.25-.87-16.82-.16-1.62-.36-4-.67-6.83-.38-3.6-.88-8-1.48-12.7C127.08,112.76,125.54,102,123.77,93.07Z"/><path class="cls-26" d="M110.63,67.49a9.59,9.59,0,0,0,3.89-5V62.4a27.77,27.77,0,0,1,0-5.61l-1.94.57c-1.56.5-3.23,1.36-4.78.72l-1.24-.56c-.24-.08-.5-.14-.76-.21-.79-.23-1.65-.42-2.42-.69a49,49,0,0,1-5-1.42c.32,5.23,4.5,9.89,7.58,14.14a16.54,16.54,0,0,0,4.49-1.73A1,1,0,0,0,110.63,67.49Z"/><path class="cls-8" d="M114.18,165.84l.18,0a34.65,34.65,0,0,0,5.41-1.12,26.62,26.62,0,0,0,4.51-1.77c-1.23-1.59-2.64-3-3.86-4.54.26-4.8-.14-10-.29-15.06,0-3.79-.7-13.29-1.59-23.61-.47-5.39-1-11-1.52-16.13-.06-.1-.12-.18-.17-.28-.49-3.44-.8-7.35-1.29-10.95-.17-2.11-.5-4.23-.85-6.37-.29-1.82-.59-3.62-.82-5.42a.33.33,0,0,0,.16,0,54.78,54.78,0,0,0-5.28-4.32c-.2.79-.41,1.61-.7,2.44-2.37.17-8.16,1-9.8-.49l0,0c1,1.09,2.07,2.16,3.08,3.27,0,0,0,.06.09.1,5.75,7.08,9.61,19,12,31.33a158.78,158.78,0,0,1,2.94,30.37v.06A172,172,0,0,1,114.18,165.84Z"/><path class="cls-3" d="M97.18,321.88c.42-2.39.85-4.74,1.3-7.1.11-.6.23-1.2.34-1.81l-7,4,3.65,17.24,0,.1c.36-3.27.78-6.33,1.24-9.32C96.86,323.93,97,322.89,97.18,321.88Z"/><polygon class="cls-23" points="108.15 30.3 107.86 28.61 98.01 30.09 96.57 32.96 98.71 31.29 108.15 30.3"/><path class="cls-4" d="M96.46,276.17s-.13-4.13-.13-4.17c1-7.89,4.43-30.65,7-47.66l-2.72,1.59-14.7,63.23,3,14.18,4.48-2.53C94.51,292.77,95.62,284.59,96.46,276.17Z"/><path class="cls-12" d="M96.07,38c4.19.87,5.67,4.06,6.25,8s1.16,8,3.43,11.33c.26.07.52.13.76.21l1.24.56c1.55.64,3.22-.22,4.78-.72l1.94-.57,1.2-.38.18-.08a4.94,4.94,0,0,0,.74-.27c1.67-.67,3.24-1.61,3.85-3a102.85,102.85,0,0,0,1.16-13.25c.13-2.09.54-4.44.19-6.58l-.56.12c-.12,0-.23,0-.36,0-1,3-4.83-.54-5-3.44a6.6,6.6,0,0,1,.62-3l-2,1.49-.4-1.76,3.83-2.62,1,.93a1.88,1.88,0,0,1,.44-.85c-1.38-3.27-2.11-7.37-3.1-10.91a.7.7,0,0,1,0-.14c-.38.41-.73.86-1.1,1.28v0a1.29,1.29,0,0,1-.16.18s0,.05,0,.07l-.85,1c-.67.81-1.34,1.58-2.07,2.34a18.84,18.84,0,0,1-2.8,2.42,12.72,12.72,0,0,1-4.8,2.29,37.23,37.23,0,0,1-4.67,2,22.94,22.94,0,0,1-2.43.71s0,0,.06,0a13.15,13.15,0,0,1-3.73,1c.21,1.87.36,3.77.75,5.63S95.6,36,96.07,38ZM117,41.59a3.66,3.66,0,0,0,1.61-1.27L116.09,36l3,4.57s-1.45,2.25-2.35,2.66-2.28-1.07-2.28-1.07A6.16,6.16,0,0,0,117,41.59ZM98,30.09l9.85-1.48.29,1.69-9.44,1L96.57,33Z"/><path class="cls-27" d="M105.17,204.92l.92-.17c.23-1.05,4.14-15.79,7-32.6.37-2.09.72-4.18,1.05-6.31a172,172,0,0,0,2.12-22.5v-.06c-.63-6.27-1-12.2-3.36-18.41A93,93,0,0,0,97.77,98.08a16.28,16.28,0,0,0,1.08-5.33q0-.45,0-1a18.18,18.18,0,0,0-4.25,1.78,19.08,19.08,0,0,1-1.67-2.36,9.19,9.19,0,0,1,.36,1.28c2.13,6.65,2.87,13.28,3.6,19.91,1.22,11.61,3.24,25.71.87,37.26a47.36,47.36,0,0,0-7.1-5.88,30,30,0,0,1,3.16,11.09,5.38,5.38,0,0,0-3.56-2.54c-.36,6-1,12.45-1.31,19,5.66-3.2,13-4.89,19-7.2-.9,2.86-1.34,6.4-2.17,9.8-1.74.37-5,1.25-8.19,2.08-3.77,1-7.56,2-8.92,2.21-.12,10,.82,20,4.74,28.58a35.37,35.37,0,0,0,5.69-.78C101.17,205.66,103.18,205.27,105.17,204.92Z"/><path class="cls-28" d="M108.07,78.68c.29-.83.5-1.65.7-2.44.65-2.86.89-5.54,1.76-8.45a37.43,37.43,0,0,1,5.2,4.63c.77.77,1.54,1.58,2.27,2.35.32-.42.67-.93,1-1.44a44.34,44.34,0,0,0-4.5-10.85v0a9.59,9.59,0,0,1-3.89,5,1,1,0,0,1-.19.12A16.54,16.54,0,0,1,106,69.34c-.89.23-1.81.41-2.79.62-3.41.67-10.54,2.35-12.88-1.37,0,.19,0,.38,0,.58a104.82,104.82,0,0,0,7.89,9l0,0C99.91,79.69,105.7,78.85,108.07,78.68Z"/><path class="cls-29" d="M75.09,77.45C81.33,80,87.37,86.53,87,93.62c-.21,3.47-1.37,6.37-2,9.59-3.61,7.45-5.59,16.67-8.58,24.13a1.62,1.62,0,0,1-.17.35c0,3.12-.12,6.26-.37,9.43-.61,8.67-2,17.36-3.34,25.68-1,6.41-5.36,26.3-7.83,31.81a47.17,47.17,0,0,0,12.17,8.33c0-.22.11-.44.15-.64a34.85,34.85,0,0,0,6.43,3.12s0,0,0,0a25.17,25.17,0,0,0,6.66,1.39,22.41,22.41,0,0,0,3.28,0c-3.92-8.57-4.86-18.55-4.74-28.58l-.24,0a17.22,17.22,0,0,1-.65-6.25c.36-.23.74-.47,1.13-.68.35-6.6,1-13.07,1.31-19a5.38,5.38,0,0,1,3.56,2.54,30,30,0,0,0-3.16-11.09,47.36,47.36,0,0,1,7.1,5.88c2.37-11.55.35-25.65-.87-37.26-.73-6.63-1.47-13.26-3.6-19.91a9.19,9.19,0,0,0-.36-1.28,41.37,41.37,0,0,1-4.24-10.4c-1.25-4.73-3-9.18-3.1-14.08-4.32,2.67-9.25,7-13.38,10l-.19.14c.11-.1.65,0,.77-.11A5.91,5.91,0,0,1,75.09,77.45Z"/><path class="cls-30" d="M105.79,174c.83-3.4,1.27-6.94,2.17-9.8-6,2.31-13.38,4-19,7.2-.39.21-.77.45-1.13.68a17.22,17.22,0,0,0,.65,6.25l.24,0C90,178,93.83,177,97.6,176.06,100.83,175.23,104.05,174.35,105.79,174Z"/><path class="cls-20" d="M92.9,91.21a19.08,19.08,0,0,0,1.67,2.36,18.18,18.18,0,0,1,4.25-1.78q0,.51,0,1a16.28,16.28,0,0,1-1.08,5.33,93,93,0,0,1,15.17,26.79c2.31,6.21,2.73,12.14,3.36,18.41a158.78,158.78,0,0,0-2.94-30.37c-2.36-12.28-6.22-24.25-12-31.33,0,0-.08-.06-.09-.1-1-1.11-2-2.18-3.08-3.27a104.82,104.82,0,0,1-7.89-9c0-.2,0-.39,0-.58-.25-3.1-.11-6.19-.21-9.28a3.85,3.85,0,0,0,0-.48,21.19,21.19,0,0,0-2,4.1,17.56,17.56,0,0,0-2.45,2.76c0,.34,0,.68,0,1,.1,4.9,1.85,9.35,3.1,14.08A41.37,41.37,0,0,0,92.9,91.21Z"/><path class="cls-31" d="M90.28,68.59c2.34,3.72,9.47,2,12.88,1.37,1-.21,1.9-.39,2.79-.62-3.08-4.25-7.26-8.91-7.58-14.14-.28-.13-.6-.25-.92-.39-2.26-1-3.89-1.53-5.69-3.37a8,8,0,0,1-2-3.78c-.16.26-.32.47-.45.65A58.51,58.51,0,0,0,89.75,55c.12,1.26.24,2.56.31,3.81a3.85,3.85,0,0,1,0,.48C90.17,62.4,90,65.49,90.28,68.59Z"/><path class="cls-32" d="M109.49,2.47a2.05,2.05,0,0,0,.28-.08c-2.49,4.47-2,8.89-6.19,12.56-3.63,3.26-7.66,4.44-12.21,4.92a31.32,31.32,0,0,0,4.76-5.72c-2.21,1.07-6.67,4-9.16,3.88a3.8,3.8,0,0,1,.28-1.83A11.24,11.24,0,0,1,77.74,18c2.44,1.82,5.54,4.2,8.85,4.24l-5.14,1.05c.28.16.55.33.83.51a4.4,4.4,0,0,0,1.5,1.4,13.43,13.43,0,0,0,6.58,1.4,26.49,26.49,0,0,0,3.14-.19,13.15,13.15,0,0,0,3.73-1s0,0-.06,0a22.94,22.94,0,0,0,2.43-.71,37.23,37.23,0,0,0,4.67-2,12.72,12.72,0,0,0,4.8-2.29,18.84,18.84,0,0,0,2.8-2.42c.73-.76,1.4-1.53,2.07-2.34l.85-1s0,0,0-.07a1.29,1.29,0,0,0,.16-.18v0c.37-.42.72-.87,1.1-1.28s.56-.67.89-1A5.6,5.6,0,0,0,117.56,8c-.06-.32-.14-.66-.23-1,.23-2.53-.73-4.79-4.34-6.32-3-1.28-8-.53-11.24,1.08,1.59.18,3.42.49,5,.83A14.09,14.09,0,0,0,109.49,2.47Z"/><path class="cls-11" d="M105.75,57.31c-2.27-3.32-2.89-7.5-3.43-11.33s-2.06-7.11-6.25-8c-.47-2-1.49-4-1.82-5.93s-.54-3.76-.75-5.63a26.49,26.49,0,0,1-3.14.19c1.52,2.78-.88,5.71-.24,8.69a3.27,3.27,0,0,0,.21.72c1,2.63,1.24,6.07,2.16,8.33a6.49,6.49,0,0,0-1.41.84,23.82,23.82,0,0,1-1.46-2.56c-.38-.88-.83-1.72-1.3-2.57-1-.71-1.81-1.87-2.89-2.55-2.58-1.49-3,1.18-2.46,3.28.56,2.34,2.19,4,3.48,6,1.14,1.71,1.74,2.79,2.83,1.47.13-.18.29-.39.45-.65a8,8,0,0,0,2,3.78c1.8,1.84,3.43,2.38,5.69,3.37.32.14.64.26.92.39a49,49,0,0,0,5,1.42C104.1,56.89,105,57.08,105.75,57.31Z"/><path class="cls-4" d="M81.21,346.7q1-.07,2.1-.21l-4.68-22.13-.44-2.08-5.44,23.45c.34.08.71.19,1.07.25A26.89,26.89,0,0,0,81.21,346.7Z"/><path class="cls-4" d="M106.09,204.75l-.92.17c-2,.35-4,.74-6.06,1.15a35.37,35.37,0,0,1-5.69.78,22.41,22.41,0,0,1-3.28,0,25.17,25.17,0,0,1-6.66-1.39s0,0,0,0A34.85,34.85,0,0,1,77,202.3c0,.2-.11.42-.15.64-1.07,5.37-1.61,16.72-1.84,29.1,1.72,1,3.33,1.9,4.67,2.68.58.33,1.12.62,1.58.9,0,.88,0,1.87,0,2.95-.19,6.14-.7,14.71-1.24,22.89l11.34-47.22c1.25-5.15,5.38-8.58,9.24-7.65,1.39.34,2.09,1.7,2.36,3.54.87-.5,1.75-1,2.67-1.56C105.84,206.78,106,205.47,106.09,204.75Z"/><path class="cls-25" d="M81.9,372.4l-.44-.27c-2.11-1.42-4.35-5-5.81-8.09,0,0,0-.06,0-.08a16.4,16.4,0,0,0-.73-1.75,3.08,3.08,0,0,1-.16-.38s0-.1,0-.1c-.14-.26-.26-.54-.39-.82s-.3-.61-.43-.93c.08.34.15.7.24,1a36.74,36.74,0,0,0,5.08,12.39,17.64,17.64,0,0,0,1.41,1.73,17.28,17.28,0,0,0,8.89.7l-.83-4A28.88,28.88,0,0,1,81.9,372.4Z"/><path class="cls-5" d="M73.82,346l0,.13c0,3.36,1.26,8.84,2.93,13.45a35.43,35.43,0,0,0,2.59,5.68c2.13,3.2,5,2.26,8.24,1.35l-2.49-11.76-1.76-8.34q-1.08.13-2.1.21A26.89,26.89,0,0,1,73.82,346Z"/><path class="cls-24" d="M74.32,360.91c.13.28.25.56.39.82,0,0,0,.06,0,.1a3.08,3.08,0,0,0,.16.38,16.4,16.4,0,0,1,.73,1.75s0,0,0,.08c1.46,3.12,3.7,6.67,5.81,8.09l.44.27a28.88,28.88,0,0,0,6.78-.51L88,368.47l-.39-1.88c-3.22.91-6.11,1.85-8.24-1.35a35.43,35.43,0,0,1-2.59-5.68c-1.67-4.61-3-10.09-2.93-13.45l0-.13c-.36-.06-.73-.17-1.07-.25h0l-.36,1.61A63.4,63.4,0,0,0,73.89,360C74,360.3,74.18,360.6,74.32,360.91Z"/><path class="cls-19" d="M77.15,29.74c.53,2.38,5.86,6.32,8.2,5.52-.27-.42-.26-1-.65-1.55a10.13,10.13,0,0,0,5.42,1.61c-.64-3,1.76-5.91.24-8.69a13.43,13.43,0,0,1-6.58-1.4,4.4,4.4,0,0,1-1.5-1.4c-.28-.18-.55-.35-.83-.51l5.14-1.05c-3.31,0-6.41-2.42-8.85-4.24a11.24,11.24,0,0,0,9.51-1.83A3.8,3.8,0,0,0,87,18c2.49.16,7-2.81,9.16-3.88a31.32,31.32,0,0,1-4.76,5.72c4.55-.48,8.58-1.66,12.21-4.92,4.18-3.67,3.7-8.09,6.19-12.56a2.05,2.05,0,0,1-.28.08,14.09,14.09,0,0,1-2.69.1c-1.63-.34-3.46-.65-5-.83a21.13,21.13,0,0,0-3-.16,34.75,34.75,0,0,0-8.7,1.58,26.84,26.84,0,0,0-9,4.88c-2,1.61-4.57,3.51-5.82,5.82A27.47,27.47,0,0,0,72.56,19s0,.08,0,.12l0,0a49.57,49.57,0,0,0,.78,10.1C75.26,31.73,77.56,33.85,77.15,29.74Z"/><path class="cls-4" d="M73.32,289.11c-.33.21-.67.41-1,.6-.78,4.18-1.47,8.26-2,12.2l1.92-8Z"/><path class="cls-25" d="M71.62,354.39A33.18,33.18,0,0,0,73.89,360a63.4,63.4,0,0,1-1.52-12.64L71.5,351A11.47,11.47,0,0,0,71.62,354.39Z"/><path class="cls-33" d="M58.44,198.16a52.17,52.17,0,0,0,1.73-5.74c.72-2.58,1.31-5.21,2-8a1.67,1.67,0,0,1,.08-.3c.38-1.55.8-3.16,1.31-4.84l.12-.4c3.06-12.14,4.61-25.06,6.53-37.06h0c.76-3.56,2.57-6.94,4.25-10.39.61-1.23,1.21-2.46,1.74-3.73a1.62,1.62,0,0,0,.17-.35c3-7.46,5-16.68,8.58-24.13.6-3.22,1.76-6.12,2-9.59.42-7.09-5.62-13.61-11.86-16.17a5.91,5.91,0,0,0-2.33-.67c-.12.08-.66,0-.77.11-9.75,7.8-13.07,20.32-15.82,32.33-3.86,16.47-7.48,24.6-12.35,41-1.07,6.85-2.11,12.43-3,17.57-1.48,8-2.53,15.74-3.67,23.68,5.89,3.25,14.14,5.24,18.44,6.11C57.35,198,58.44,198.16,58.44,198.16Z"/><path class="cls-34" d="M86.45,46.84c-1.29-2-2.92-3.69-3.48-6-.52-2.1-.12-4.77,2.46-3.28,1.08.68,1.85,1.84,2.89,2.55.47.85.92,1.69,1.3,2.57a23.82,23.82,0,0,0,1.46,2.56,6.49,6.49,0,0,1,1.41-.84c-.92-2.26-1.16-5.7-2.16-8.33a3.27,3.27,0,0,1-.21-.72,10.13,10.13,0,0,1-5.42-1.61c.39.57.38,1.13.65,1.55-2.34.8-7.67-3.14-8.2-5.52.41,4.11-1.89,2-3.8-.51,0,.22.08.44.14.68A31.46,31.46,0,0,0,75,35.78l0,0a69.13,69.13,0,0,0,6.83,8c.9.95,2.44,2.17,3,3.38s.25,3.27,0,4.56c-.12.58-.47,1-.26,1.71.51,1.75,3.72,2.23,5.18,1.67a58.51,58.51,0,0,1-.47-6.71C88.19,49.63,87.59,48.55,86.45,46.84Z"/><path class="cls-35" d="M68.17,247.42a23,23,0,0,1,6.72-3.93,5.11,5.11,0,0,1,3.07-.18,24,24,0,0,0,.36-4.56,11.94,11.94,0,0,0-3.4.95C71.83,241.11,69.7,243.76,68.17,247.42Z"/><path class="cls-36" d="M75.13,281.66,80,261.46c.54-8.18,1-16.75,1.24-22.89a16.66,16.66,0,0,0-2.9.18,24,24,0,0,1-.36,4.56,5.11,5.11,0,0,0-3.07.18,23,23,0,0,0-6.72,3.93c-.32.76-.62,1.55-.89,2.36a41.38,41.38,0,0,0-2.28,11c-.18,2.73.23,6.26-1.65,8.39l.53.83c-.32,10.18-1.73,19.91-1.37,25a.83.83,0,0,1,.18.13c2.92-2.08,6.38-3.67,9.59-5.5.37-.19.71-.39,1-.6Z"/><path class="cls-10" d="M79.69,234.72a13.23,13.23,0,0,0-4.73.83c-9.93,3.66-12.73,19-13.26,33.36l-.53.81c.24.16.49.33.73.47l.24.08.24-.23a4.41,4.41,0,0,0,1-.83c1.88-2.13,1.47-5.66,1.65-8.39a41.38,41.38,0,0,1,2.28-11c.27-.81.57-1.6.89-2.36,1.53-3.66,3.66-6.31,6.75-7.72a11.94,11.94,0,0,1,3.4-.95,16.66,16.66,0,0,1,2.9-.18c0-1.08,0-2.07,0-2.95C80.81,235.34,80.27,235.05,79.69,234.72Z"/><path class="cls-37" d="M63.88,270l-.53-.83a4.41,4.41,0,0,1-1,.83l-.24.23-.24-.08c-.24-.14-.49-.31-.73-.47-7.77-4.79-15.25-10.44-23.69-14.56l-1.72-.86c-.06,1.51-.12,3.05-.14,4.52-2.85-1.95-6.48-3.16-9.19-5.25,0-1.41.14-2.75.28-4.06-5.34-2.89-10.65-5.91-15.95-8.75-2.79-1.64-5.68-3.17-8.47-5,.22,9-1.1,16.62-1.28,20.92,8.43,6.32,49,29.69,61.5,38.37C62.15,290,63.56,280.22,63.88,270Z"/><path class="cls-38" d="M57.74,211.31a10.72,10.72,0,0,0-5.55-3.68c0,2.09-.34,4.18-.41,6.25l.32,0a4.87,4.87,0,0,1,3.15,3,12.09,12.09,0,0,1,.74,4.15v0a25.71,25.71,0,0,1-.4,4.74c1.15,1.75,2.25,2.88,4.51,2.57.9-.09,2.32-.39,2.34-1.46h.05c0-.66,0-1.38-.09-2.16v0C62.1,220.54,60.82,215,57.74,211.31Z"/><path class="cls-12" d="M36.3,212.85a.71.71,0,0,0,.06.22l.2-.06a7.19,7.19,0,0,0,5.22,3.32,8.9,8.9,0,0,0,5.61,2.14l0-.1a6.26,6.26,0,0,0,2.55.73l.33,0a6.67,6.67,0,0,0,2.09-.11,3.7,3.7,0,0,0,2.78-2l.06,0a4.87,4.87,0,0,0-3.15-3l-.32,0c.07-2.07.38-4.16.41-6.25a10.72,10.72,0,0,1,5.55,3.68l.16-.14c-.56-2.72-2.35-6-3.92-8.63l-.42-.68a69.6,69.6,0,0,1-15.88-4.76c-.29,1.79-.75,3.84-1.16,5.92a33.45,33.45,0,0,0-.67,5.22A13.44,13.44,0,0,0,36.3,212.85Z"/><path class="cls-28" d="M54.32,202a9.26,9.26,0,0,0,1.28-4.35c-4.3-.87-12.55-2.86-18.44-6.11-.22,1.53-.45,3.1-.69,4.65l.1,0-.12.3c.38.21.79.39,1.23.6a69.6,69.6,0,0,0,15.88,4.76C53.83,201.9,54.08,202,54.32,202Z"/><path class="cls-39" d="M26.71,249.51c.17-1.95.39-3.84.52-5.72,2.41,1.33,7.27,3,8.78,5.15l-.1.08c0,1.73-.09,3.5-.15,5.28l1.72.86c8.44,4.12,15.92,9.77,23.69,14.56l.53-.81c.53-14.39,3.33-29.7,13.26-33.36a13.23,13.23,0,0,1,4.73-.83c-1.34-.78-3-1.7-4.67-2.68L62.4,224.81c.05.78.1,1.5.09,2.16h-.05c0,1.07-1.44,1.37-2.34,1.46-2.26.31-3.36-.82-4.51-2.57a25.71,25.71,0,0,0,.4-4.74v0c-1.32-.75-2.55-1.46-3.58-2.08a6.67,6.67,0,0,1-2.09.11l-.33,0a6.26,6.26,0,0,1-2.55-.73l0,.1a8.9,8.9,0,0,1-5.61-2.14A7.19,7.19,0,0,1,36.56,213l-.2.06a.71.71,0,0,1-.06-.22h0c-1-.71-3-1.56-4.33-2.33a22.76,22.76,0,0,0-.13,3.37v0c-.62,1.58-5.77-.72-4.29-4h0a13.6,13.6,0,0,1-.08-1.64c-3.46-2-8.3-3.46-12.27-4.87C1.8,201.91-.2,218.57.06,234.13l-.06.1c.75.55,1.52,1.06,2.29,1.56,2.79,1.8,5.68,3.33,8.47,5C16.06,243.6,21.37,246.62,26.71,249.51Z"/><path class="cls-40" d="M36,248.94c-1.51-2.12-6.37-3.82-8.78-5.15-.13,1.88-.35,3.77-.52,5.72-.14,1.31-.24,2.65-.28,4.06,2.71,2.09,6.34,3.3,9.19,5.25,0-1.47.08-3,.14-4.52.06-1.78.12-3.55.15-5.28Z"/><path class="cls-38" d="M27.53,209.88c-1.48,3.31,3.67,5.61,4.29,4v0a22.76,22.76,0,0,1,.13-3.37c.29-2,1.17-3.77,3.9-2.28a33.45,33.45,0,0,1,.67-5.22c-5.37-2.32-8.93-.1-9.05,5.22a13.6,13.6,0,0,0,.08,1.64Z"/><polygon class="cls-6" points="109.5 321.24 108.12 282.07 132.13 268.09 130.39 309.03 109.5 321.24"/><path class="cls-24" d="M85.62,367.19l3.94-6.08s1.74-3.58,2.26-2.4c1.06,2.4,6.05,9,4.39,10.71s-8.28,2.6-8.28,2.6Z"/><path class="cls-24" d="M89.56,361.11s1.74-3.58,2.26-2.4c1.06,2.4,6.05,9,4.39,10.71"/><path class="cls-5" d="M84.58,367.34s10-1.25,10-2.91-8.3-14.95-8.3-16.61v-1.66l-3.68.42Z"/><polygon class="cls-36" points="80.06 260.2 79.59 286.36 62.98 294.67 80.06 260.2"/></g></g></svg>