<svg xmlns="http://www.w3.org/2000/svg" viewBox="0 0 132.1 396.88"><defs><style>.cls-1{opacity:0.25;}.cls-2{fill:#006384;}.cls-3{fill:#fbb686;}.cls-4{fill:#f9a873;}.cls-5{fill:#e8f6ff;}.cls-6{fill:#350000;}.cls-7{fill:#9e3a26;}.cls-8{fill:#aa5338;}.cls-9{fill:#641c05;}.cls-10{fill:#7a2914;}.cls-11{fill:#e7a477;}.cls-12{fill:#191919;}.cls-13{fill:#cce6f3;}.cls-14{fill:#dd966a;}.cls-15{fill:#0d0d0d;}.cls-16{fill:#022237;}.cls-17{fill:#241303;}.cls-18{fill:#571803;}.cls-19{fill:#6d2310;}.cls-20{fill:#090909;}.cls-21{fill:#262262;}.cls-22{fill:#222;}.cls-23{fill:#33261d;}.cls-24{fill:#f9a36d;}.cls-25{fill:#121212;}.cls-26{fill:#070707;}.cls-27{fill:#f89c69;}.cls-28{fill:#191519;}.cls-29{fill:#101010;}</style></defs><title>man_1</title><g id="Layer_2" data-name="Layer 2"><g id="Layer_1-2" data-name="Layer 1"><g class="cls-1"><path class="cls-2" d="M63.71,394.65c28.35-6.27,49.73-24.09,51.58-41.69a21.64,21.64,0,0,0-.17-6.07.29.29,0,0,0,0-.16,15.81,15.81,0,0,0-.68-2.71c-5.34-17.64-32.52-26.51-62.71-19.81C20,331.21-3,352.67.31,372.13c.09.55.23,1.1.36,1.64a22.13,22.13,0,0,0,3.2,7.11C13,394.42,37.19,400.52,63.71,394.65Z"/></g><g id="_Group_" data-name="&lt;Group&gt;"><path class="cls-3" d="M131,165.4c-1.83-.78-10.7-5.83-12.5-6.59,3.06,2.66,9.84,6.8,12.46,10.49.38.45-.29,1.35-.84,1.36-1.63,0-12.16-7-13.43-8.16,2.71,3.21,8.49,7.73,9.91,9.77a1.18,1.18,0,0,1-.18,1,1.13,1.13,0,0,1-.91.45c-.88-.45-2.51-1.05-3.22-1.49a30.84,30.84,0,0,1-6.72-5.67c2.92,3.39,6.54,6.55,6.54,7.94a.47.47,0,0,1-.33.29h0c-2.4-1.2-3.94-3-5.89-5.07-2.17-2.26-4.74-3.82-6.78-6.37-3.59-4.68-3.78-11.65-1.47-17,3.86-.87,8.59-3,10.33-5.08,0,0,1.44.48,1.44,2.74,0,2.46-3.13,3.87-4.88,5.53,0,0,13.21,10.13,16.76,13.27C132.78,163.92,132,165.52,131,165.4Z"/><path class="cls-4" d="M107.6,146.32c-2.31,5.38-2.12,12.35,1.47,17,2,2.55,4.61,4.11,6.78,6.37,2,2,3.49,3.87,5.89,5.07-.55.14-1.88-.26-5.13-2.35l0,0a46.84,46.84,0,0,0-7.52-5.48c-2.5-1.44-4.15-3.59-6.31-5.1h-.19c0-4.6.06-11.07,2.43-15.14A17,17,0,0,0,107.6,146.32Z"/><path class="cls-5" d="M99.53,161.21c-.51-4.87,1.69-12.75,3.31-17,1.89.56,1.09.66,3,1.23a8,8,0,0,0-.82,1.21c-2.37,4.07-2.43,10.54-2.43,15.14v.38A6.53,6.53,0,0,1,99.53,161.21Z"/><path class="cls-6" d="M107.55,223.23,99,229.87l.37-4.16.59-.53s0,0,0,0c2.42-2.19,4.79-3.87,7.63-6.15C107.55,220,107.55,221.49,107.55,223.23Z"/><path class="cls-7" d="M99,229.87l8.6-6.64c0,7.3.23,19.38.32,23.41v.18c0,5.66-.28,12.49-.31,18.17-3.61,2.55-7.48,5.83-10.76,7.86,0-15.11.27-30.45.3-45.57l2.81-2.1-.59.53Z"/><path class="cls-8" d="M107.56,219c-2.84,2.28-5.21,4-7.63,6.15,0,0,0,0,0,0l-2.81,2.1c0-1,0-1.89,0-2.85v-.05c3.77-3.25,7.93-6.34,12.14-9.37a1,1,0,0,1,.17.1v31a2.25,2.25,0,0,1-1.17.54h-.39v-.06c-.09-4-.29-16.11-.32-23.41C107.55,221.49,107.55,220,107.56,219Z"/><path class="cls-9" d="M81.25,214.86c3.82-3.5,9.09-5.83,13.78-8.29,4.69,2.84,9.6,5.67,14.23,8.44-4.21,3-8.37,6.12-12.14,9.37a.05.05,0,0,0-.05,0c-4.49-2.93-9.92-6-15-9.07Z"/><path class="cls-10" d="M96.8,272.85l-.08,0h0c-3.78-2.64-7.86-5.32-11.88-8.1-4.75-15.06-7-35.3-2.78-49.46,5.1,3,10.53,6.14,15,9.07l.05,0c0,1,0,1.89,0,2.85C97.07,242.4,96.8,257.74,96.8,272.85Z"/><path class="cls-6" d="M83.8,202.09c.55-1.46.25-6.55-.85-7.37a19.22,19.22,0,0,0,.76-2.4l.11,0,1.44,1.05A27.45,27.45,0,0,0,87.61,195c.18,2.39.27,4.76.3,7.18,0,1.9,0,3.83,0,5.79h-.18a4.05,4.05,0,0,1-3.67-2.16l.25-.1v-3.56a1.68,1.68,0,0,1-.54,0Z"/><path class="cls-11" d="M83.8,202.15a3.15,3.15,0,0,1-2.53-1.77,2.91,2.91,0,0,1,0-2.82,6.83,6.83,0,0,0,1.7-2.84c1.1.82,1.4,5.91.85,7.37Z"/><path class="cls-12" d="M18.33,84.26C23.47,90.5,31.33,95,37,100.7a88.57,88.57,0,0,0,7.53,6.42c2.15,1.7,4.3,3.39,6.28,5.2,3.56,3.48,6.7,7.39,10.51,10.78l.42.35v1l.45.1a23,23,0,0,0,3.16,2.25c4.42,2.72,10.17,4.88,14.45,6.85l.54.25a38.52,38.52,0,0,0,4,1.78c4.89,1.91,9.84,3.79,14.66,5.61l-.2.55c-2.71,2.26-5.42,8.78-5.15,12.75-6.77-3.4-14.09-4.53-20.59-7.94-6.22-3.4-17.6-8.5-18.69-15.87a35.2,35.2,0,0,1-3.52,3.12,32.83,32.83,0,0,1-1.36-7.37,24,24,0,0,0-3.79,3.69c-5.68-2.84-10.29-7.94-15.44-11.63-6.49-4-15.44-9.35-19.5-16.44-3.87-6.47-3.8-17.56,3-21.81a47.91,47.91,0,0,1,4.69,3.86Z"/><path class="cls-13" d="M78.53,179.37c0-1.79.08-3.66.1-5.57,2,0,4-.11,5.52-1.19a35.11,35.11,0,0,0,.31,5.43l-.59.24C82.15,179,80.14,179.8,78.53,179.37Z"/><path class="cls-14" d="M78.33,188.57c0-1.33.06-2.85.1-4.52a7.36,7.36,0,0,1,2.34.41,26.87,26.87,0,0,1-.69,5.17C79.51,189.26,78.93,188.9,78.33,188.57Z"/><path d="M78.39,157.14c2.21.69,4.4,1.34,6.49,2,0,4.42.31,8.52.36,12.53a5.47,5.47,0,0,1-1.09,1c-1.56,1.08-3.52,1.19-5.52,1.19,0-2.91.06-5.91,0-8.78,0-1.75-.07-3.45-.13-5.09,0-.77-.07-1.51-.11-2.25C78.4,157.5,78.4,157.32,78.39,157.14Z"/><path class="cls-6" d="M76.64,192.73c.56-.63,1.13-1.28,1.68-2,0-.64,0-1.38,0-2.18.6.33,1.18.69,1.75,1.06l.12.08a20,20,0,0,0-.56,4h0l-.6.49Z"/><path class="cls-3" d="M78.43,184.05c0-1.46.07-3,.1-4.68,1.61.43,3.62-.41,5.34-1.09,0,2.45,1.39,12.66,1.39,15.12l-1.44-1.05-.11,0a19.22,19.22,0,0,1-.76,2.4,6.83,6.83,0,0,1-1.7,2.84c-.58.38-1.14,0-1.52-2a9.62,9.62,0,0,1-.09-1.92,20,20,0,0,1,.56-4l-.12-.08a26.87,26.87,0,0,0,.69-5.17A7.36,7.36,0,0,0,78.43,184.05Z"/><path class="cls-15" d="M76.57,70.24c2.18,18.69,3.22,44.51,3.25,63.38-4.28-2-10-4.13-14.45-6.85a187.46,187.46,0,0,0,3.07-23.89c.18-4,.36-8.13.36-12.1,0-1.32.72-4.54.36-5.47-.72-1.71-4-2.66-5.06-3.79.9-.94,2.36-1.32,3.44-2.08-3.25-4-5.78-8.13-8.85-12.47-1.85-2.74-4.5-6.81-6.81-9.87,2.44-1.37,12.74-6.7,16.68-7.13,4.12.67,6.13,5.07,7.1,10a58.35,58.35,0,0,1,.89,10.26Z"/><path class="cls-16" d="M78.53,159.93c-5.87-.16-11.36-1.87-16.68-4.1,0-1.45,0-2.91.09-4.37,4.66,1.89,10.63,3.88,16.45,5.68,0,.18,0,.36,0,.54C78.46,158.42,78.5,159.16,78.53,159.93Z"/><path class="cls-11" d="M81.25,200.4c-1.13.33-2.29-1-2.9-2.29l-.16-.37.13-3,.71-.55.6-.49h0a9.62,9.62,0,0,0,.09,1.92c.38,1.92.94,2.34,1.52,2a2.91,2.91,0,0,0,0,2.82Z"/><path d="M79.82,133.62c0-18.87-1.07-44.69-3.25-63.38h0A58.35,58.35,0,0,0,75.66,60a205.34,205.34,0,0,1,5.59,22.67,223.73,223.73,0,0,1,2.17,33.08c0,6.39-.17,13.52.9,19.92a38.52,38.52,0,0,1-4-1.78Z"/><path class="cls-17" d="M85.25,347.77a56.14,56.14,0,0,0-8.14,2.48l0,.08c-3.81-1.64-7.71-3.15-11.62-4.43-4.62-1.51-11-3.72-14.61-7.5,5.81-1.41,12-2.52,17.6-5a32.22,32.22,0,0,0,4-2.08C73.24,337.78,79.62,345.13,85.25,347.77Z"/><path class="cls-11" d="M76.23,197.56c0-2-.09-3.45-.18-4.16.2-.23.4-.44.59-.67L79,194.17l-.71.55-.13,3,.16.37A2.9,2.9,0,0,1,76.23,197.56Z"/><path class="cls-18" d="M76.23,197.56a2.9,2.9,0,0,0,2.12.55c.61,1.25,1.77,2.62,2.9,2.29l0,0a3.15,3.15,0,0,0,2.53,1.77,1.68,1.68,0,0,0,.54,0v3.56l-.25.1a4.05,4.05,0,0,0,3.67,2.16h.18c0-2,0-3.89,0-5.79,2.26,1.47,4.67,2.95,7.12,4.42-4.69,2.46-10,4.79-13.78,8.29-1.71-1-3.39-2.05-5-3.05C76.3,205.88,76.29,200.91,76.23,197.56Z"/><path class="cls-19" d="M76.28,211.81c1.58,1,3.26,2,5,3.05l.8.48c-4.19,14.16-2,34.4,2.78,49.46-3.11-2.14-6.19-4.33-9.09-6.59C76,242.54,76.22,224.83,76.28,211.81Z"/><path d="M76.05,193.4c.09.71.14,2.15.18,4.16.06,3.35.07,8.32,0,14.25-.06,13-.3,30.73-.54,46.4-.85-.66-1.69-1.33-2.5-2h-3c-.1-18.26-.81-37.32-.12-57.44A42.67,42.67,0,0,0,76.05,193.4Z"/><path d="M75.74,258.21c-.27,17.61-.53,32.63-.53,35.54,0,12.29-2.24,24.64-1.94,37.12-.25.17-.51.34-.77.49a32.22,32.22,0,0,1-4,2.08c.5-20.89,1.15-40.26,1.69-62.18.11-5,.13-10,.11-15.05h3C74.05,256.88,74.89,257.55,75.74,258.21Z"/><path class="cls-15" d="M65.74,201.63A184.91,184.91,0,0,0,62,178.37c0-7.49-.24-15-.15-22.54,5.32,2.23,10.81,3.94,16.68,4.1.06,1.64.1,3.34.13,5.09,0,2.87,0,5.87,0,8.78,0,1.91-.06,3.78-.1,5.57,0,1.64-.07,3.22-.1,4.68,0,1.67-.08,3.19-.1,4.52,0,.8,0,1.54,0,2.18-.55.7-1.12,1.35-1.68,2-.19.23-.39.44-.59.67a42.67,42.67,0,0,1-5.92,5.37A39.6,39.6,0,0,1,65.74,201.63Z"/><path d="M60.27,204.19A153,153,0,0,0,62,178.37a184.91,184.91,0,0,1,3.74,23.26A44.39,44.39,0,0,1,60.27,204.19Z"/><path class="cls-20" d="M4.38,108.59C16.23,119.35,39.75,138.73,54,147.35c1.36,1.2,4.24,2.63,7.95,4.11,0,1.46-.08,2.92-.09,4.37-3.52-1.46-7-3.16-10.39-4.76-9.93-4.73-19.14-13.8-30-15.69.36,7.56,6.5,13.8,9.75,20-3.07-1.7-6.14-2.46-9-4.34,1.46,3.21,2.54,6.8,4,10.21A15.45,15.45,0,0,0,21.85,159c-2.68,16.23-1.48,34.49.81,51a31,31,0,0,1-6.95-3.15,54,54,0,0,1-5.24-3.6c1.87-15.92,4.5-35.91,4.34-55.1-1.37-3.66-2.68-7.36-3.8-11.14-4-13.36-6.89-24.72-8.59-31.17A15.38,15.38,0,0,0,4.38,108.59Z"/><path class="cls-13" d="M52,79.84a47.75,47.75,0,0,1,.18-6.46l1.45,1.53c.31-.44.63-1,1-1.48,1.3,4.42,2.27,9,3.18,13,.25,1.24.49,2.51.72,3.76-1.49-4-3.85-10-6.4-10.35A.14.14,0,0,0,52,79.84Z"/><path class="cls-21" d="M52.11,79.85c2.55.4,4.91,6.33,6.4,10.35v0a181.93,181.93,0,0,1,3.25,27v6.22l-.42-.35a2.93,2.93,0,0,0-.13-.57c-1.64-6.14-4.81-12.34-8.34-18.24-.52-3.53-.88-7.56-1.41-11.24-.36-4-2-8.11-1.8-12.06l.15-.06a11.14,11.14,0,0,0,2.19-1Z"/><path d="M50.5,345.38a19,19,0,0,1-.12-4.3l.23.21c6.31,5.37,25.37,14.45,28.84,13a30.57,30.57,0,0,1,7.27-2.51,23.91,23.91,0,0,1,.18,3.05c-3,1.15-6.32,2.8-9.34,2.86v-.05c-3.91-.23-16.13-4.22-17.25-6s-3.16-6.7-4.78-3.58C54.2,347.44,50.5,345.38,50.5,345.38Z"/><path class="cls-22" d="M49.91,56.49l1.18-.41c.26.32.53.66.79,1,2.31,3.06,5,7.13,6.81,9.87,3.07,4.34,5.6,8.5,8.85,12.47-1.08.76-2.54,1.14-3.44,2.08,1.09,1.13,4.34,2.08,5.06,3.79.36.93-.36,4.15-.36,5.47,0,4-.18,8.13-.36,12.1a187.46,187.46,0,0,1-3.07,23.89,23,23,0,0,1-3.16-2.25l-.45-.1v-7.19a181.93,181.93,0,0,0-3.25-27v0c-.23-1.25-.47-2.52-.72-3.76-.91-4-1.88-8.59-3.18-13A45.87,45.87,0,0,0,50,62.32h0v0A29.77,29.77,0,0,1,49.91,56.49Z"/><path class="cls-23" d="M50.85,338.4c3.57,3.78,10,6,14.61,7.5,3.91,1.28,7.81,2.79,11.62,4.43l0-.08a56.14,56.14,0,0,1,8.14-2.48c.28.14.56.25.84.37a32.63,32.63,0,0,1,.63,3.62,30.57,30.57,0,0,0-7.27,2.51c-3.47,1.47-22.53-7.61-28.84-13-.29-.67-.25-1.23-.07-2.83Z"/><path class="cls-21" d="M49.81,80.93a55.13,55.13,0,0,0-5.39-4.52l-.25-.06c.67-2.84,1.25-5.77,2-8.5a42.29,42.29,0,0,1,6,5.53A47.75,47.75,0,0,0,52,79.84v.07A11.14,11.14,0,0,1,49.81,80.93Z"/><path class="cls-3" d="M50.46,13.67c.25-.17.51-.32.77-.47A2.75,2.75,0,0,1,50.46,13.67Z"/><path d="M50.54,338.46c-.6.14-1.19.29-1.79.45.23-5.13-.58-41.47-.42-59.55,1.23-13.24,2.52-26.51,4.13-39.47.81-6.52.81-13,1.62-19.56.5-3.12,1.38-10.19,2-14.7,1.42-.43,2.81-.89,4.18-1.44a44.39,44.39,0,0,0,5.47-2.56,39.6,39.6,0,0,0,4.39-2.86c-.69,20.12,0,39.18.12,57.44,0,5.08,0,10.09-.11,15.05-.54,21.92-1.19,41.29-1.69,62.18-5.61,2.44-11.79,3.55-17.6,5Z"/><path class="cls-5" d="M46.31,67.51A9.75,9.75,0,0,0,50,62.31h0a45.87,45.87,0,0,1,4.57,11.11c-.35.53-.67,1-1,1.48l-1.45-1.53a42.29,42.29,0,0,0-6-5.53C46.24,67.74,46.27,67.63,46.31,67.51Z"/><path class="cls-3" d="M43.33,57.91l-1.21-.55a1.39,1.39,0,0,0-.19-.06c-3-3.24-3.63-9.95-6-13.29-1.29-1.83-3.38-2.88-5.26-4.15-.68-2-1.23-4-1.91-6-.82-2.69-2.31-5.53-2.17-8.51v-.06a75.2,75.2,0,0,0,10.1-3.55,42.62,42.62,0,0,0,9.9-5.26c1.31-.93,2.52-1.91,3.85-2.75h0a2.75,2.75,0,0,0,.77-.47l.09,0a69.48,69.48,0,0,0,2.84,9.78,2.33,2.33,0,0,0-.52,1.57,6,6,0,0,0,1.42,3.6c.29.52.6,1.06.89,1.59a8.7,8.7,0,0,1,.77,2c.51,2.33.08,5,0,7.32a125.43,125.43,0,0,1-1,13.61c-.67,1.68-2.68,2.73-4.63,3.47l-1.18.41L48,57.1C46.49,57.64,44.86,58.53,43.33,57.91Z"/><path class="cls-12" d="M25.28,175.25c5.64-3.83,13.43-5.72,19.71-8.36-.83,2.94-1.22,6.59-2,10.09-1.68.42-4.85,1.34-8,2.24-3.94,1.14-7.88,2.27-9,2.46A18.53,18.53,0,0,1,25.28,175.25Z"/><path class="cls-24" d="M33.35,54.77A36.38,36.38,0,0,0,39,56.48c.93.31,1.95.54,2.94.82a1.39,1.39,0,0,1,.19.06l1.21.55c1.53.62,3.16-.27,4.68-.81l1.9-.61A29.77,29.77,0,0,0,50,62.28v0h0a9.75,9.75,0,0,1-3.72,5.2A18.38,18.38,0,0,1,39.94,70a37.84,37.84,0,0,1-4.42-7.09C34.31,60.16,34.07,57.47,33.35,54.77Z"/><path d="M39.75,347.36a26.42,26.42,0,0,1-3.11,1.38C36.12,324.9,39.18,302,39.72,277c.51-11.57,4.09-58.3,4.61-68.58,4.16-.86,8.06-1.68,11.76-2.81-.63,4.51-1.51,11.58-2,14.7-.81,6.52-.81,13-1.62,19.56-1.61,13-2.9,26.23-4.13,39.47-.44,4.71-.87,9.42-1.29,14.1-1.9,19.84-4.24,32.08-4.24,51.91h0A17.37,17.37,0,0,1,39.75,347.36Z"/><path class="cls-13" d="M34.31,78.68c1.62,1.52,6.5,1.71,8.85,1.52.38-1.25.7-2.54,1-3.85l.25.06a55.13,55.13,0,0,1,5.39,4.52l-.15.06c-.18,4,1.44,8.1,1.8,12.06.53,3.68.89,7.71,1.41,11.24-2.66-4.46-5.51-8.77-8.08-12.75-3-4.73-6.76-8.77-10.52-12.82Z"/><path class="cls-25" d="M36.83,210A25.93,25.93,0,0,1,22.66,210c-2.29-16.48-3.49-34.74-.81-51a15.45,15.45,0,0,1,4.33,2.27c-1.44-3.41-2.52-7-4-10.21,2.9,1.88,6,2.64,9,4.34-3.25-6.23-9.39-12.47-9.75-20,10.83,1.89,20,11,30,15.69,3.43,1.6,6.87,3.3,10.39,4.76-.09,7.53.15,15,.15,22.54a153,153,0,0,1-1.73,25.82c-1.37.55-2.76,1-4.18,1.44-3.7,1.13-7.6,2-11.76,2.81C41.93,208.94,39.43,209.45,36.83,210ZM43,177c.8-3.5,1.19-7.15,2-10.09-6.28,2.64-14.07,4.53-19.71,8.36a18.53,18.53,0,0,0,.72,6.43c1.08-.19,5-1.32,9-2.46C38.12,178.32,41.29,177.4,43,177Z"/><path class="cls-26" d="M22.66,210a25.93,25.93,0,0,0,14.17.05c2.6-.58,5.1-1.09,7.5-1.59-.52,10.28-4.1,57-4.61,68.58-.54,25-3.6,47.88-3.08,71.72a35.54,35.54,0,0,1-6.67,1.7,26,26,0,0,1-8.76-.45l-.38-.1a12,12,0,0,1-2.54-.94l.11-.21c-.23-12.19-2.79-23-2.79-33.17,0-11.62,1.57-24.66,3.26-38.55-1.58-14.32-5-58.33-3.16-70.19A31,31,0,0,0,22.66,210Z"/><path class="cls-5" d="M34.31,78.68l0,0a105.2,105.2,0,0,1-7.88-9.2c0-.19-.05-.38-.06-.58,2.35,3.81,9.32,2,12.67,1.24l.94-.23a18.38,18.38,0,0,0,6.37-2.44c0,.12-.07.23-.1.34-.79,2.73-1.37,5.66-2,8.5-.31,1.31-.63,2.6-1,3.85C40.81,80.39,35.93,80.2,34.31,78.68Z"/><path class="cls-11" d="M25.51,47.48a7.18,7.18,0,0,0,1,2.43,15,15,0,0,1-1.16-2.16A1.78,1.78,0,0,0,25.51,47.48Z"/><path class="cls-22" d="M30.87,94.56c-2.88-3.58-4.69-8.51-6-13-.15-.57-.31-1.15-.48-1.7a70.61,70.61,0,0,1-2.66-11.43c0-.12,0-.22,0-.33s0-.39,0-.55a9.54,9.54,0,0,1,0-1.28,35.37,35.37,0,0,1,2.16-2.84,45.16,45.16,0,0,0,2-4.55H26c0,.19,0,.38,0,.58.15,3.18.05,6.35.33,9.53,0,.2,0,.39.06.58a105.2,105.2,0,0,0,7.88,9.2c3.76,4,7.53,8.09,10.52,12.82,2.57,4,5.42,8.29,8.08,12.75,3.53,5.9,6.7,12.1,8.34,18.24a2.93,2.93,0,0,1,.13.57c-3.81-3.39-7-7.3-10.51-10.78-2-1.81-4.13-3.5-6.28-5.2-1.19-1.21-2.37-2.39-3.56-3.49a44.68,44.68,0,0,1-4.33-4.15c-2-2.46-1.46-3.4-1.63-6.8A16.41,16.41,0,0,0,30.87,94.56Z"/><path class="cls-27" d="M27.56,51.31c1.78,1.87,3.41,2.41,5.62,3.39l.17.07c.72,2.7,1,5.39,2.17,8.09A37.84,37.84,0,0,0,39.94,70l-.94.23c-3.35.73-10.32,2.57-12.67-1.24-.28-3.18-.18-6.35-.33-9.53,0-.2,0-.39,0-.58-.11-2.15-.41-4.33-.63-6.52-.14-1.4-.25-2.8-.25-4.18.08-.11.17-.23.26-.38a15,15,0,0,0,1.16,2.16.42.42,0,0,1,.06.08A14.83,14.83,0,0,0,27.56,51.31Z"/><path class="cls-23" d="M32.5,376.71c-2.34-1.1-5.06-4.95-6.8-8.28-.26-.62-.58-1.28-.94-2a.33.33,0,0,1,0-.06c-.3-.57-.63-1.18-1-1.79-.51-1.71-.93-3.45-1.28-5.16,2,4.49,5.3,8.57,8.29,12.25,2,2.41,3.66,1.7,6.65,1A37.55,37.55,0,0,0,44,370.84c.26,1,.52,1.92.74,2.88A34.6,34.6,0,0,1,32.5,376.71Z"/><path d="M25.7,368.43c1.74,3.33,4.46,7.18,6.8,8.28a34.6,34.6,0,0,0,12.25-3c.32,1.3.59,2.58.79,3.85l-.26.05c-3.52,2.26-10,3.4-13.81,2-3.39-3.25-6-9-7.7-15,.33.61.66,1.22,1,1.79a.33.33,0,0,0,0,.06C25,367.07,25.33,367.74,25.7,368.43Z"/><path class="cls-22" d="M24.43,79.82c-1.1-3.8-2.33-7.48-2.66-11.43A70.61,70.61,0,0,0,24.43,79.82Z"/><path class="cls-3" d="M22.27,46.68c-1.28-2.06-2.89-3.76-3.49-6.16a.85.85,0,0,0,0-.17c.49-3,4.2,2.25,4.73,3.09.74,1.38,1.24,2.88,1.87,4.31-.09.15-.18.27-.26.38C24,49.52,23.41,48.42,22.27,46.68Z"/><path class="cls-17" d="M21.21,350a26,26,0,0,0,8.76.45,35.54,35.54,0,0,0,6.67-1.7,26.42,26.42,0,0,0,3.11-1.38,68.45,68.45,0,0,0,1.73,14c.77,3.3,1.71,6.46,2.53,9.5a37.55,37.55,0,0,1-6.58,1.84c-3,.72-4.62,1.43-6.65-1-3-3.68-6.29-7.76-8.29-12.25A65.11,65.11,0,0,1,21.21,350Z"/><path d="M20.76,354.41c-.06-1.1.1-2.59.07-4.52l.38.1a65.11,65.11,0,0,0,1.28,9.46c.35,1.71.77,3.45,1.28,5.16A32.72,32.72,0,0,1,21.12,359,20.18,20.18,0,0,1,20.76,354.41Z"/><path class="cls-4" d="M30.67,39.86c1.88,1.27,4,2.32,5.26,4.15,2.37,3.34,3,10.05,6,13.29-1-.28-2-.51-2.94-.82a36.38,36.38,0,0,1-5.64-1.71l-.17-.07c-2.21-1-3.84-1.52-5.62-3.39a14.83,14.83,0,0,1-1-1.32.42.42,0,0,0-.06-.08,7.18,7.18,0,0,1-1-2.43,1.78,1.78,0,0,1-.17.27c-.63-1.43-1.13-2.93-1.87-4.31-.53-.84-4.24-6.1-4.73-3.09-.45-2.11-.07-4.71,2.42-3.22C22.22,37.82,23,39,24,39.71c.46.85.92,1.7,1.3,2.59a21.9,21.9,0,0,0,1.47,2.61,31.24,31.24,0,0,0,2.67-1.81c-.95-2.27-2.56-5-3.54-7.58,0-.07-.05-.13-.07-.2a91.31,91.31,0,0,0-3.56-9c-.06-.13-.14-.25-.2-.39V25.8a21,21,0,0,0,4.47-.56v.06c-.14,3,1.35,5.82,2.17,8.51C29.44,35.85,30,37.87,30.67,39.86Z"/><path class="cls-28" d="M51.61,10.27a42.94,42.94,0,0,0-5.2-7.74C45.43,1.35,37-.17,33.79,0A28.64,28.64,0,0,0,16.47,6.89c-.89.79-1.92,1.65-2.89,2.58A13.15,13.15,0,0,0,10.85,13,28.73,28.73,0,0,0,8.31,18.1c4.2,3.32,9.36,5.54,14,8.18-.06-.13-.14-.25-.2-.39V25.8a21,21,0,0,0,4.47-.56,75.2,75.2,0,0,0,10.1-3.55,42.62,42.62,0,0,0,9.9-5.26c1.31-.93,2.52-1.91,3.85-2.75h0c.25-.17.51-.32.77-.47a5.89,5.89,0,0,0,1.17-1.26A18.27,18.27,0,0,0,51.61,10.27Z"/><path class="cls-29" d="M37,100.7C31.33,95,23.47,90.5,18.33,84.26l.08-.09a47.91,47.91,0,0,0-4.69-3.86c-2-1.39-3.89-2.46-5.08-2.46v-.11H8.49c4.15-3.21,8.29-6.79,12.63-9.63l.58-.59c0,.16,0,.33,0,.55s0,.21,0,.33c.33,4,1.56,7.63,2.66,11.43.17.55.33,1.13.48,1.7,1.27,4.53,3.08,9.46,6,13A16.41,16.41,0,0,1,35,92.68c.17,3.4-.37,4.34,1.63,6.8A44.68,44.68,0,0,0,41,103.63c1.19,1.1,2.37,2.28,3.56,3.49A88.57,88.57,0,0,1,37,100.7Z"/><path class="cls-25" d="M8.64,77.85c1.19,0,3.13,1.07,5.08,2.46-6.78,4.25-6.85,15.34-3,21.81,4.06,7.09,13,12.47,19.5,16.44,5.15,3.69,9.76,8.79,15.44,11.63a24,24,0,0,1,3.79-3.69,32.83,32.83,0,0,0,1.36,7.37,35.2,35.2,0,0,0,3.52-3.12c1.09,7.37,12.47,12.47,18.69,15.87,6.5,3.41,13.82,4.54,20.59,7.94-.27-4,2.44-10.49,5.15-12.75l.2-.55,4.41,1.68c-.18.39-.37.83-.55,1.32-1.62,4.2-3.82,12.08-3.31,17a7.9,7.9,0,0,0,.41,1.95c-1.19-.22-7.46-1.85-15.06-4-2.09-.63-4.28-1.28-6.49-2-5.82-1.8-11.79-3.79-16.45-5.68-3.71-1.48-6.59-2.91-7.95-4.11-14.24-8.62-37.76-28-49.61-38.76a15.38,15.38,0,0,1-2-2.77c-2.09-3.74-2.51-8-2.25-12.58s.9-7.56,3.61-11.16a12.7,12.7,0,0,1,4.71-4.35h.16Z"/><path d="M54.16,18.21a21.79,21.79,0,0,0-1.76-6.27,5.89,5.89,0,0,1-1.17,1.26l.09,0a69.48,69.48,0,0,0,2.84,9.78,2.33,2.33,0,0,0-.52,1.57,6,6,0,0,0,1.42,3.6c.29.52.6,1.06.89,1.59A104.28,104.28,0,0,1,54.16,18.21Z"/><path d="M25.87,35.32a91.31,91.31,0,0,0-3.56-9c-4.64-2.64-9.8-4.86-14-8.18a2.86,2.86,0,0,0-.07.28l0,0a53.12,53.12,0,0,0,1,11.05c.2.91.38,1.91.61,2.89a18.77,18.77,0,0,0,1,3.11l.06,0c2.72,4.1,6.56,7.58,9.63,11.34,1.57,1.86,3.27,3.68,4.76,5.54-.14-1.4-.25-2.8-.25-4.18-1.06,1.39-1.67.29-2.81-1.45-1.28-2.06-2.89-3.76-3.49-6.16a.85.85,0,0,0,0-.17c-.45-2.11-.07-4.71,2.42-3.22C22.22,37.82,23,39,24,39.71c.46.85.92,1.7,1.3,2.59a21.9,21.9,0,0,0,1.47,2.61,31.24,31.24,0,0,0,2.67-1.81c-.95-2.27-2.56-5-3.54-7.58C25.92,35.45,25.89,35.39,25.87,35.32Z"/></g><path class="cls-3" d="M54.16,22.94c-.24.34-6,3.34-6,3.34L49.07,28Z"/><polygon class="cls-3" points="43.25 30.61 42.23 28.7 32.51 31.68 31.94 33.45 33.02 32.39 43.25 30.61"/><path class="cls-3" d="M48.72,42.87a20.74,20.74,0,0,1,3.64-2.53,1.21,1.21,0,0,1,1.39.69,3.68,3.68,0,0,1-2.1,1.91A4.5,4.5,0,0,1,48.72,42.87Z"/></g></g></svg>