<svg xmlns="http://www.w3.org/2000/svg" viewBox="0 0 145.56 306.76"><defs><style>.cls-1{fill:#ccddf2;}.cls-2{fill:#888a8b;}.cls-3{fill:#fbb686;}.cls-4{fill:#f47d3d;}.cls-5{fill:#feda9c;}.cls-6{fill:#cce6f3;}.cls-7{fill:#262225;}.cls-8{fill:#1c191b;}.cls-9{fill:#2d2b2c;}.cls-10{fill:#020500;}.cls-11{fill:#221f21;}.cls-12{fill:#f89c69;}.cls-13{fill:#f9a873;}.cls-14{fill:#171416;}.cls-15{fill:#14160e;}.cls-16{fill:#010300;}.cls-17{fill:#1f0000;}.cls-18{fill:#0d0a0c;}.cls-19{fill:#030203;}.cls-20{fill:#323031;}.cls-21{fill:#191718;}.cls-22{fill:#261721;}</style></defs><title>sending_man</title><g id="Layer_2" data-name="Layer 2"><g id="Layer_1-2" data-name="Layer 1"><g id="_Group_" data-name="&lt;Group&gt;"><path class="cls-1" d="M138.06,48.73,120.41,66.58a5.14,5.14,0,0,0,1-2.73c.06-1.54-1-2.78-3.64-3.17a8.36,8.36,0,0,1-.29,4.28c-.79,1.37-2.14,1.5-2.93,2.44a3,3,0,0,0-.58,1.29L93.65,63l23.19-19.42Z"/><path class="cls-2" d="M120.41,66.58l17.65-17.85-21.22-5.16L93.65,63l20.27,5.7a2.76,2.76,0,0,0,0,1c0,.1,0,.24.08.36a15.43,15.43,0,0,0-1.86,1.66c-.14.13-.27.28-.44.45L86,64.9,116.06,40l29.5,7.22s-5.09,4.8-10.37,9.7a5.62,5.62,0,0,0,0-.7c-1,1-2.11,2-3.15,3-3.37,3.27-6.55,6.3-8.85,8.43l0,.09c-.62-.11-1.21-.36-1.85-.54a4.54,4.54,0,0,0-1.24-.13,2.39,2.39,0,0,0,.28-.48Z"/><path class="cls-3" d="M135.22,56.22a5.62,5.62,0,0,1,0,.7c-1.15,1.06-2.3,2.13-3.43,3.14a4.07,4.07,0,0,1,.31-.82C133.11,58.26,134.18,57.22,135.22,56.22Z"/><path class="cls-4" d="M123.22,67.67c2.3-2.13,5.48-5.16,8.85-8.43a4.07,4.07,0,0,0-.31.82C127.26,64.24,123.42,67.74,123.22,67.67Z"/><path class="cls-4" d="M131.45,61.58c-2.81,1.74-5.14,4.1-7.75,6.23a2.94,2.94,0,0,1-.51,0l0-.09c.2.07,4-3.43,8.54-7.61C131.62,60.59,131.54,61.1,131.45,61.58Z"/><path class="cls-3" d="M135.19,56.92c-.06,1.88-.22,3.7-.2,5.5a6.47,6.47,0,0,1-1.09,1.46,13.47,13.47,0,0,1-1.83,5v0c-1,3.59-6.49,8.31-9.77,9.82l-.06.06a20.73,20.73,0,0,0-7.45-6.12A15.51,15.51,0,0,0,114,70c0-.12,0-.26-.08-.36a2.76,2.76,0,0,1,0-1,3,3,0,0,1,.58-1.29c.79-.94,2.14-1.07,2.93-2.44a8.36,8.36,0,0,0,.29-4.28c2.66.39,3.7,1.63,3.64,3.17a5.14,5.14,0,0,1-1,2.73l0,0a2.39,2.39,0,0,1-.28.48,4.54,4.54,0,0,1,1.24.13c.64.18,1.23.43,1.85.54a2.94,2.94,0,0,0,.51,0c2.61-2.13,4.94-4.49,7.75-6.23.09-.48.17-1,.31-1.52C132.89,59.05,134,58,135.19,56.92Z"/><path class="cls-5" d="M114,70a15.51,15.51,0,0,1,.76,2.64,13.29,13.29,0,0,0-2.62-1A15.43,15.43,0,0,1,114,70Z"/><path class="cls-6" d="M122.24,78.8A14.34,14.34,0,0,1,124.06,82a9.23,9.23,0,0,0-1.76,2.23l-.23.11c-2.14-4.41-7.09-8.06-11-9.64-.44-.17-.87-.31-1.26-.45l-.17,0a23.66,23.66,0,0,0,2.14-2.11c.17-.17.3-.32.44-.45a13.29,13.29,0,0,1,2.62,1A20.73,20.73,0,0,1,122.24,78.8Z"/><path class="cls-7" d="M57.24,83.44c-11.13-7.65-1-28.94,10.17-22.6A13.31,13.31,0,0,1,69,62l.06,0a17.69,17.69,0,0,1,2.3,2.25l-1.35.36c-2.3-.7-3.68,3.88-3.91,6-.44,4.58,2.06,9.39,4.36,13.27,4.58,7.57,12.82,14,16.24,22,1.16-1.6,2.09-3.68,3.23-5.27.23,1.14.68,2.52.9,3.89,2.31-.47,3.66-2.52,5.52-3.67,2.75-1.83,5.24-2.5,7.55-4.58a73.43,73.43,0,0,0,8.91-10.07,28.36,28.36,0,0,0-10.34-5.84,1.19,1.19,0,0,0,.22-.23c.59-.56,1.21-1.12,1.83-1.65s1.1-1,1.66-1.4a34,34,0,0,1,3.54-2.65c.39.14.82.28,1.26.45,4,1.58,8.91,5.23,11,9.64.17.39.34.76.47,1.16C112.15,97.07,103.75,108,90.48,117.47c-2.86.2-5.14,0-6.88-1.24v0a118.16,118.16,0,0,0-7.76-10.63C69.75,98.11,63.51,91.9,57.24,83.44Z"/><path class="cls-8" d="M74.82,139.11c-.41,11.44-.81,20.21-.81,22a17,17,0,0,1-1.48,1.09,35.59,35.59,0,0,1-17.85,6.55c1.26-6.7,1.6-14,3-20.67.17-.85.34-1.7.5-2.54,4.36-.33,9.76-1,13.29-2.81a12.5,12.5,0,0,0,.57-3.74Z"/><path class="cls-9" d="M59,140.91c3.79-2,8.55-3,12.06-5l.73-.18a18.12,18.12,0,0,1,.31,3.26,12.5,12.5,0,0,1-.57,3.74c-3.53,1.83-8.93,2.48-13.29,2.81C58.48,144,58.73,142.48,59,140.91Z"/><path class="cls-9" d="M90.87,104.37c-.22-1.37-.67-2.75-.9-3.89-1.14,1.59-2.07,3.67-3.23,5.27-3.42-8-11.66-14.43-16.24-22-2.3-3.88-4.8-8.69-4.36-13.27.23-2.07,1.61-6.65,3.91-6l1.35-.36a12,12,0,0,1,2.42,4.24v0c1.48,1.67,3,3.35,4.33,5.09.47.59.92,1.16,1.37,1.75A184.89,184.89,0,0,1,91,91.78c3.93-3.59,7.58-7.78,11.55-11.57a28.36,28.36,0,0,1,10.34,5.84,73.43,73.43,0,0,1-8.91,10.07c-2.31,2.08-4.8,2.75-7.55,4.58C94.53,101.85,93.18,103.9,90.87,104.37Z"/><path class="cls-10" d="M46.36,298.11A26.32,26.32,0,0,0,61.48,290c3,.93,7.48,4,11,4.34v.05a2,2,0,0,1,1.54.9c.9,1.82-1.06,1.82-2.3,2.13a54.92,54.92,0,0,1-10.06,1.69C56.79,299.76,51.11,300,46.36,298.11Z"/><path class="cls-9" d="M59,140.91c-.22,1.57-.47,3.12-.76,4.66-.61.06-1.18.08-1.74.12.11-1.15.28-2.31.45-3.52A16.12,16.12,0,0,1,59,140.91Z"/><path class="cls-11" d="M26.08,60.62c6.63,2.08,14.19,4.58,17.64,11,3.21,6.18,4.55,13.49,6.63,19.9,2.28,6.88,4.58,14.89,5,22,.23,4.36-.89,8.69-2.05,12.82,2.05-2,5.26-2.75,6.86-5A115.57,115.57,0,0,1,59,140.91a16.12,16.12,0,0,0-2.05,1.26c-.17,1.21-.34,2.37-.45,3.52.56,0,1.13-.06,1.74-.12-.16.84-.33,1.69-.5,2.54-1.41,6.71-1.75,14-3,20.67a46.05,46.05,0,0,1-13.88-1c-1.88-.43-3.69-.9-5.4-1.46l-1.52-.5.15-.43c-2.06-7.3-1.38-17-3-25,.17-5.37.49-10.85.26-16.36-.31-13.12-5.2-25.63-6.12-39.09-.18-4.47-1-15.42.33-24.48Z"/><path class="cls-3" d="M51,29c-.23-2.06-.68-4.8-.23-6.89a7.55,7.55,0,0,1,1.1-1.91c.53,1.69,2,3.41,2.28,5.14a32.27,32.27,0,0,1-.65,9.08,14,14,0,0,0-.12,2.22C51.7,34.82,51.48,31.71,51,29Z"/><path class="cls-12" d="M45.75,36.9c2.27,1,5.81,2.59,7,4.34a3.55,3.55,0,0,1-1.26,1.06,50.56,50.56,0,0,1-5.74.79C45.75,40.92,45.71,38.68,45.75,36.9Z"/><path class="cls-13" d="M47.17,29.27a11.89,11.89,0,0,1,.46,2.66A8.69,8.69,0,0,1,50,30.66a56.08,56.08,0,0,1-.76-9.8c.06-2.25,2-3.56.79-7.78a2.29,2.29,0,0,1,.31-.2c.56,1.66,1.32,3.23,1.69,4.81a2.9,2.9,0,0,0-.17,2.55,7.55,7.55,0,0,0-1.1,1.91c-.45,2.09,0,4.83.23,6.89.45,2.67.67,5.78,2.38,7.64.09,1.72.26,3.35-.64,4.56-1.21-1.75-4.75-3.38-7-4.34,0-.58,0-1.11,0-1.57-.51.14-1-.48-1.43-1.37a20,20,0,0,1-1.46-4.79,7.6,7.6,0,0,1-.11-1.45c.3-5.15,3.74-1.33,4.38,1.55Z"/><path class="cls-14" d="M61.48,290a26.32,26.32,0,0,1-15.12,8.13,12,12,0,0,1-5.53-.23C37,281,42.32,261.35,42.91,244.63c.93-25.63-2.11-50.92-2.11-76.83a46.05,46.05,0,0,0,13.88,1,35.59,35.59,0,0,0,17.85-6.55C67.55,205.09,65.7,250.16,61.48,290Z"/><path class="cls-8" d="M50.35,91.54c-2.08-6.41-3.42-13.72-6.63-19.9-3.45-6.44-11-8.94-17.64-11l-.54-.17c.92-6.23,2.87-11.57,6.72-13.23a85.75,85.75,0,0,1,10,2.47C46.81,51,50.94,53.15,55.1,55c.93.45,1.86.84,2.79,1.24,2.75,1.12,6.88,2.7,9.52,4.57-11.16-6.34-21.3,15-10.17,22.6,6.27,8.46,12.51,14.67,18.6,22.14-.2,11.3-.62,23.47-1,33.53L72.05,139a18.12,18.12,0,0,0-.31-3.26l-.73.18c-3.51,2-8.27,3-12.06,5a115.57,115.57,0,0,0,1.24-19.59c-1.6,2.28-4.81,3-6.86,5,1.16-4.13,2.28-8.46,2.05-12.82C54.93,106.43,52.63,98.42,50.35,91.54Z"/><path class="cls-15" d="M62.61,302.57c-2,.2-18.44-.36-23.67-2.19h0c.22-1.21.48-2.42.65-3.37a2.85,2.85,0,0,0,1.29.87,12,12,0,0,0,5.53.23c4.75,1.85,10.43,1.65,15.29,1a54.92,54.92,0,0,0,10.06-1.69c1.24-.31,3.2-.31,2.3-2.13a2,2,0,0,0-1.54-.9v-.05l.51,0c1.29,0,3.93-.2,3.93-.2.42.2,3.48,2.84,3.68,3.71v.2C77.56,301.73,65.55,302.24,62.61,302.57Z"/><path class="cls-16" d="M38.94,300.38c5.23,1.83,21.67,2.39,23.67,2.19,2.94-.33,15-.84,18-4.52,0,1.07-.17,2.08-.31,4.05a33.93,33.93,0,0,1-10.06,3.25c-2.33.43-5,.65-7.3.91-1,0-2.31.11-3.13.08a16.57,16.57,0,0,1-2.41-.65c-1.44-.5-3.37-1.46-5.06-.73-.68.29-.56,1.35-1.43,1.8,0,0-2.79,0-3.6-.08a20.29,20.29,0,0,1-8.8-2.34,24.47,24.47,0,0,1,.4-4Z"/><path class="cls-17" d="M48.78,12.79c-3,2.62-8.23,3.13-12,2.51v0c.62,0,1.25,0,1.83,0-.45-.45-.67-.94-1.12-1.16C41,13.3,47.29,6.5,44.73,2.48c3.49.28,7.45-1.89,9.78,2,1.63,2.79-1,6.36-4.13,8.44Z"/><path class="cls-13" d="M45.77,43.09c0,1.91.06,3.79,0,5.17a26.58,26.58,0,0,0-7.28-2.73c-1.2-.28-2.47-.58-3.73-.84A12.21,12.21,0,0,0,37,41.54,10.09,10.09,0,0,0,40.12,41a65.55,65.55,0,0,1,4.22-7c.45.89.92,1.51,1.43,1.37,0,.46,0,1,0,1.57C45.71,38.68,45.75,40.92,45.77,43.09Z"/><path class="cls-18" d="M37.15,212.06c-.54-15.93-1.75-37.71-1.75-45.72,1.71.56,3.52,1,5.4,1.46,0,25.91,3,51.2,2.11,76.83C42.32,261.35,37,281,40.83,297.88a2.85,2.85,0,0,1-1.29-.87,1.83,1.83,0,0,1-.28-1.66c-.26-1.29-1.07-8.68-1.61-19.25-.22-4-.36-8.54-.48-13.34C37,255,39.59,237,39.59,237c-.17-8-1.83-15.31-2.33-22.7C37.2,213.58,37.17,212.82,37.15,212.06Z"/><path class="cls-19" d="M34,165.41l-.15.43c-1.37-.48-2.69-1-3.93-1.53.39-6.8.93-13.76,1.07-20.76,0-.39,0-.76,0-1.15,0-.67,0-1.36,0-2C32.65,148.36,32,158.11,34,165.41Z"/><path class="cls-17" d="M36.83,15.27a23.2,23.2,0,0,1-4.57-.42c-.23,2.28-1.61,4.81-3.91,5.47a12.64,12.64,0,0,0-1.13-3.19c-4.49,1.35-8.54,2.24-13.2.56a34.41,34.41,0,0,1-.11-3.79h-.06A20.35,20.35,0,0,1,16,9.76c1-1.82,3-3.31,4.56-4.61A23.46,23.46,0,0,1,34.41,0a27.07,27.07,0,0,1,4.67.42,17.54,17.54,0,0,1,5.46,2.05h.19c2.56,4-3.76,10.82-7.19,11.66.45.22.67.71,1.12,1.16C38.08,15.3,37.45,15.3,36.83,15.27Z"/><path class="cls-3" d="M37,41.54a12.21,12.21,0,0,1-2.22,3.15A26.55,26.55,0,0,0,27.59,44,12.52,12.52,0,0,0,28,40.87a15.07,15.07,0,0,0,4.72.61c1.1,0,2.19.09,3.32.09C36.36,41.57,36.7,41.57,37,41.54Z"/><path class="cls-17" d="M47.63,31.93a11.89,11.89,0,0,0-.46-2.66h0c-.64-2.88-4.08-6.7-4.38-1.55a7.6,7.6,0,0,0,.11,1.45,8.94,8.94,0,0,1-5.12,4.67c0-.45-.47-1.37-.22-2-2.9,2.86-9.72,4.74-14.5,3.33-2.33-2.69-5.12-5.22-7.14-8.17l0,0a28.23,28.23,0,0,1-1.24-4.6A37.55,37.55,0,0,1,14,17.69c4.66,1.68,8.71.79,13.2-.56a12.64,12.64,0,0,1,1.13,3.19c2.3-.66,3.68-3.19,3.91-5.47a23.2,23.2,0,0,0,4.57.42v0c3.72.62,8.94.11,12-2.51l1.6.09a2.29,2.29,0,0,0-.31.2c1.24,4.22-.73,5.53-.79,7.78a56.08,56.08,0,0,0,.76,9.8A8.69,8.69,0,0,0,47.63,31.93Z"/><path class="cls-17" d="M23,35.13c4.78,1.41,11.6-.47,14.5-3.33-.25.67.22,1.59.22,2a8.94,8.94,0,0,0,5.12-4.67A20,20,0,0,0,44.34,34a65.55,65.55,0,0,0-4.22,7,10.09,10.09,0,0,1-3.14.56c-.28,0-.62,0-.9,0-1.13,0-2.22,0-3.32-.09A15.07,15.07,0,0,1,28,40.87l-1.49-.42c0-.84-1.57-3.12-3-4.75A7,7,0,0,0,23,35.13Z"/><path class="cls-20" d="M34.76,44.69c1.26.26,2.53.56,3.73.84a26.58,26.58,0,0,1,7.28,2.73A54.21,54.21,0,0,1,55.1,55c-4.16-1.88-8.29-4-12.81-5.34a85.75,85.75,0,0,0-10-2.47,89.13,89.13,0,0,0-9.19-1.29l.08-.73a1.38,1.38,0,0,0,.34-.25,13.88,13.88,0,0,1,4.1-.94A26.55,26.55,0,0,1,34.76,44.69Z"/><path class="cls-21" d="M10.37,53.88c4.77,3.29,9.46,4.6,15.17,6.57-1.32,9.06-.51,20-.33,24.48.92,13.46,5.81,26,6.12,39.09.23,5.51-.09,11-.26,16.36a.55.55,0,0,0,0-.18v2.2c0,.39,0,.76,0,1.15-.14,7-.68,14-1.07,20.76-1.52-.61-2.9-1.29-4.19-1.91-1.59-.81-3-1.63-4.24-2.35a24.87,24.87,0,0,1-3.93-2.82c2.24-20.57,1.46-47,.25-53.08l.14,0c-.73-3.68-1.54-7.08-2.33-10.28-.11-.39-.2-.78-.31-1.18.05-.09.08-.17.14-.26-1.57-8.4-3.23-15.68-4.13-24A60.1,60.1,0,0,1,10.37,53.88Z"/><path class="cls-10" d="M18.46,277.09a53.59,53.59,0,0,1-8.63.55c5-.8,10.82-3.5,13.71-7.83l.23-.93c2.19.79,2.67,2.31,5,2.45C30.4,274.58,21,276.69,18.46,277.09Z"/><path class="cls-22" d="M9,52.89a51.24,51.24,0,0,1,2.28-4.63,26.68,26.68,0,0,0-1,5.62C9.94,53.57,9.49,53.25,9,52.89Z"/><path class="cls-22" d="M10.31,71.25C9.1,66.5,8,59,8.88,53.28c0-.1.11-.24.16-.39.45.36.9.68,1.33,1a60.1,60.1,0,0,0,1,14.53c.9,8.31,2.56,15.59,4.13,24-.06.09-.09.17-.14.26C13.49,85.24,11.6,78.72,10.31,71.25Z"/><path class="cls-19" d="M9.75,277.64a49.59,49.59,0,0,1-5.93-.44c-.26-15.23,3.9-30.72,8.88-44.8,2.13-5.47,4.58-12.53,5.48-18.63.93-5.79.3-11.88,1.23-17.7.93-6.4,2.76-12.51,3.35-18.91.59-4.36.62-11.21,3-14.76,1.29.62,2.67,1.3,4.19,1.91,1.24.54,2.56,1.05,3.93,1.53l1.52.5c0,8,1.21,29.79,1.75,45.72,0,.76.05,1.52.11,2.25L23.77,268.88l-.23.93c-2.89,4.33-8.71,7-13.71,7.83Z"/><path class="cls-21" d="M11.32,48.26A51.24,51.24,0,0,0,9,52.89s0,0-.08,0a7.19,7.19,0,0,1,.14-.76v0c.9-3.86,3-6.61,6.91-6.56,2.42.06,4.78.2,7.06.43a89.13,89.13,0,0,1,9.19,1.29c-3.85,1.66-5.8,7-6.72,13.23-5.71-2-10.4-3.28-15.17-6.57A26.68,26.68,0,0,1,11.32,48.26Z"/><path class="cls-21" d="M9,52.84s.06,0,.08,0-.14.29-.16.39A1.63,1.63,0,0,1,9,52.84Z"/><path class="cls-19" d="M9.75,277.64a13.34,13.34,0,0,1-5.93-.1v-.34A49.59,49.59,0,0,0,9.75,277.64Z"/><path class="cls-18" d="M12.7,232.4c-5,14.08-9.14,29.57-8.88,44.8L2.58,277a3,3,0,0,1-1.35-1.49,2.79,2.79,0,0,1-.14-.84c.57-3,.87-6.49,1.16-10,1.76-19.59,11.63-50.3,11.63-50.3.81-15.65,4.41-38.34,7.64-54.37,1.21.72,2.65,1.54,4.24,2.35-2.38,3.55-2.41,10.4-3,14.76-.59,6.4-2.42,12.51-3.35,18.91-.93,5.82-.3,11.91-1.23,17.7C17.28,219.87,14.83,226.93,12.7,232.4Z"/><path class="cls-18" d="M3.82,277.2v.34A4.58,4.58,0,0,1,2.58,277Z"/><path class="cls-16" d="M.22,279.17c2.33,3.9,18.72,1.79,20.43,1.5,2.5-.5,12.25-2.15,15.06-6a10.77,10.77,0,0,1,.23,1.49,4.32,4.32,0,0,1-.45,2.69,32.76,32.76,0,0,1-8.88,3.63c-2,.53-4.28.9-6.27,1.29-.81,0-2,.22-2.67.22a8.26,8.26,0,0,1-2-.53c-1.21-.38-2.78-1.26-4.24-.45-.59.31-.57,1.38-1.33,1.86,0,0-2.39.14-3.06.11a14,14,0,0,1-5.11-.84c-.85-.54-1.55-.82-1.77-1.78a7.59,7.59,0,0,1,0-2.89v0a2.68,2.68,0,0,0,0-.3Z"/><path class="cls-15" d="M3.82,277.54a13.34,13.34,0,0,0,5.93.1h.08a53.59,53.59,0,0,0,8.63-.55c2.56-.4,11.94-2.51,10.28-5.76.2,0,.46,0,.71,0a33.33,33.33,0,0,0,3.34-.39c.39.2,3.34,3.18,3,3.68,0,0,0,.06-.06.06-2.81,3.82-12.56,5.47-15.06,6-1.71.29-18.1,2.4-20.43-1.5h0a2.68,2.68,0,0,1,0,.3,7.92,7.92,0,0,1,1.09-3.93A3,3,0,0,0,2.58,277,4.58,4.58,0,0,0,3.82,277.54Z"/></g></g></g></svg>