<svg xmlns="http://www.w3.org/2000/svg" viewBox="0 0 296.74 287.11"><defs><style>.cls-1{fill:#747474;}.cls-2{fill:#3f4747;}.cls-3{fill:#888787;}.cls-4{fill:#b1aeae;}.cls-5{fill:#09000c;}.cls-6{fill:#303a3a;}.cls-7{fill:#001823;}.cls-8{fill:#9a9898;}.cls-9{fill:#00000c;}.cls-10{fill:#f9b4a2;}.cls-11{fill:#1e1921;}.cls-12{fill:#19161b;}.cls-13{fill:#150e18;}.cls-14{fill:#cce6f3;}.cls-15{fill:#000004;}.cls-16{fill:#010002;}.cls-17{fill:#231f27;}.cls-18{fill:#f8aa92;}.cls-19{fill:#0c040e;}.cls-20{fill:#250007;}.cls-21{fill:#fbccbd;}.cls-22{fill:#010018;}.cls-23{fill:#20201f;}.cls-24{fill:#2a2548;}.cls-25{fill:#f58a70;}.cls-26{fill:#e8f6ff;}.cls-27{fill:#231116;}.cls-28{fill:#2c66b1;}.cls-29{fill:#37474f;}.cls-30{fill:#171318;}.cls-31{fill:#273239;}.cls-32{fill:#f58a75;}.cls-33{fill:#b0d9ed;}.cls-34{fill:#fabaa9;}.cls-35{fill:#fabba6;}.cls-36{fill:#c3d93e;}.cls-37{fill:#0b0000;}.cls-38{fill:#240000;}.cls-39{fill:#f78f1e;}.cls-40{fill:#1f1e45;}.cls-41{fill:#131416;}.cls-42{fill:#090320;}.cls-43{fill:#e55325;}.cls-44{fill:#fabda9;}.cls-45{fill:#fabfae;}.cls-46{fill:#f9b8a6;}</style></defs><title>table_public_2</title><g id="Layer_2" data-name="Layer 2"><g id="Layer_1-2" data-name="Layer 1"><path class="cls-1" d="M86.11,221l.08,5.67.22,15.56L247.26,150.8l11.07-6.32,5.82-3.31c3.79-3.73,5.06-7.07,3.39-12.84-.82-3-1.89-6.77-4.7-7.79L228,140.33Z"/><path class="cls-2" d="M71.5,179.5A28.9,28.9,0,0,1,74,181.27a34.11,34.11,0,0,1,5.38,5.23,30.49,30.49,0,0,1,4.18,6.81c.22.47.42.95.59,1.42.28.72.53,1.44.73,2.16a20.75,20.75,0,0,1,.62,2.85,16.16,16.16,0,0,1,.32,3l0,4.7.1,5.92.07,6.39,0,1.33L228,140.33l34.8-19.79a4,4,0,0,0-1.2-.27L219.85,94.36l-10.2,5.85Zm11,9c-.53-.35-1-.68-1.47-.95.5.3,1,.57,1.52.85C82.48,188.46,82.48,188.48,82.48,188.51Zm2-.95,0,0s0,0,0,0Z"/><path class="cls-3" d="M296.38,136.47c0-.37-.05-.72-.05-1.07-.07-.8-.1-1.62-.1-2.46l-.12-8.22-.05-3.93-.22-16.05-.1-7-.08-6.39-.1-5.93-.05-4.7a16.25,16.25,0,0,0-.32-3,20.62,20.62,0,0,0-.62-2.84c-.2-.72-.45-1.44-.72-2.16-.18-.47-.38-1-.6-1.42a30.55,30.55,0,0,0-4.18-6.82,35,35,0,0,0-5.38-5.23,34.09,34.09,0,0,0-4.36-2.86l-.49-.25-2.32-1.29L274,53.52l-4.16-2.24c0-.05,0-.1,0-.15-4.55-2.54-11.25-6.07-17.79-9.18-6.27-3-12.42-5.65-16.35-6.65a13.33,13.33,0,0,0-2.64-.45c-2.26-.1-8.21.82-13.22,2.59l-1.76.67c.57.18,1.17.35,1.76.55.93.28,1.85.6,2.79,1a.88.88,0,0,0,.15-.05,19.26,19.26,0,0,1,3.61,1.54l.45.25a1.07,1.07,0,0,1,.22.1l21.9,12v0l3.26,1.77.28.15,6.17,3.36.15.07,4.6,2.52C270.35,65.09,276.3,73,278.84,81a26.42,26.42,0,0,1,1.34,8v44.55a1.28,1.28,0,0,0,.18.35l-.18-.07v16.3c0,6.39-2.91,10.47-7.36,11.37l0,.1c9.86-1.57,22.22-4.53,23.17-12.57a7,7,0,0,0,.07-1v-.42l.25.1C297.08,144.13,296.61,140.23,296.38,136.47ZM260.52,51s0,0,0,0h0ZM282,64.37a2.73,2.73,0,0,1-.05-.5l.1.12A1.58,1.58,0,0,0,282,64.37Z"/><path class="cls-4" d="M280.18,150.16V89a26.42,26.42,0,0,0-1.34-8c-2.54-8-8.49-15.93-15.41-19.71l-4.6-2.52-.15-.07-6.17-3.36-.28-.15L249,53.44v0l-21.9-12a1.07,1.07,0,0,0-.22-.1l-.45-.25a19.26,19.26,0,0,0-3.61-1.54.88.88,0,0,1-.15.05c-.94-.37-1.86-.69-2.79-1-.59-.2-1.19-.37-1.76-.55l-.3.13c-.62.27-1.22.55-1.77.84,2,1,3.39,2.92,3.83,6.28v49l41.79,25.91a4,4,0,0,1,1.2.27c2.81,1,3.88,4.78,4.7,7.79,1.67,5.77.4,9.11-3.39,12.84l-5.82,3.31.2.35v10.33l-1.62.9,6.52,3.55c3.49,1.9,6.7,2.49,9.39,1.92C277.27,160.63,280.18,156.55,280.18,150.16ZM248.75,63.1a1.35,1.35,0,0,1,0-.57.47.47,0,0,1,0-.15s0,0,0-.05C248.77,62.48,248.75,62.75,248.75,63.1Z"/><path class="cls-5" d="M260.52,51v0h0S260.5,51,260.52,51Z"/><path class="cls-2" d="M258.53,151.67v-6.84l-.2-.35-11.07,6.32L86.41,242.27v.49l0,3.94.1,6.22,170.35-96.86,1.62-.9Z"/><path class="cls-1" d="M198.45,42.67a2,2,0,0,1-.25.12l-6.54,3.73c-.23.13-.4.23-.55.33L60.3,121.21c0-.17.05-.35.08-.5l-1,.53a19.32,19.32,0,0,0-3.26,2.32,38.09,38.09,0,0,0-9.06,12.64,51.7,51.7,0,0,0-3.73,11.07,45.21,45.21,0,0,0-1.07,9.61l.1,7C49,167,55.65,170.56,60.2,173.1c0,.05,0,.1,0,.15l4.15,2.24,2.54,1.37,2.32,1.29.49.25c.63.35,1.22.7,1.82,1.1l138.15-79.29,10.2-5.85v-49c-.44-3.36-1.84-5.3-3.83-6.28C211.54,36.89,204.13,39.76,198.45,42.67Z"/><path class="cls-6" d="M84.44,187.56v-.07s0,0,0,0Z"/><path class="cls-7" d="M82.48,188.51s0,0,0-.1c-.53-.28-1-.55-1.52-.85C81.48,187.83,82,188.16,82.48,188.51Z"/><path class="cls-8" d="M42.31,156.88a45.21,45.21,0,0,1,1.07-9.61,51.7,51.7,0,0,1,3.73-11.07,38.09,38.09,0,0,1,9.06-12.64,19.32,19.32,0,0,1,3.26-2.32l1-.53c0,.15-.05.33-.08.5L191.11,46.85c.15-.1.32-.2.55-.33,1.29-.79,3.68-2.26,6.54-3.73a2,2,0,0,0,.25-.12c5.68-2.91,13.09-5.78,17.57-3.59.55-.29,1.15-.57,1.77-.84a22.2,22.2,0,0,0-3.44-4.63,18.41,18.41,0,0,0-7.14-4.83c-10.28-3.73-16.5.08-25.21,4.43L46.12,110.46l-1,.52a4,4,0,0,1-.55.27c-1.19.63-2.36,1.23-3.48,1.8a14.4,14.4,0,0,0-1.25,1,6.43,6.43,0,0,0-.69.62c-.18.15-.33.32-.5.47-7.17,7.07-12.47,19.91-12.57,31.73a2.88,2.88,0,0,0,0,.42v10c3.93,1,10.08,3.63,16.35,6.64Z"/><path class="cls-9" d="M72.35,186.34a1.44,1.44,0,0,1,.05-.37l-.1-.12A2.72,2.72,0,0,0,72.35,186.34Z"/><path class="cls-5" d="M50.87,173v0h0S50.84,173,50.87,173Z"/><g id="_Group_" data-name="&lt;Group&gt;"><path class="cls-10" d="M248.25,108.67c1.79.42,3.48.86,5,1.32-2.88-3.12-11-6.78-14.4-4.43l-.23-.29c-.56.42-1.1.82-1.63,1.2C240.94,107.12,244.79,107.85,248.25,108.67Z"/><path class="cls-10" d="M219.58,115.27c2.91.65,5.94,1.34,8.3,2.93,0,0,0,0,0,0,.64-.29.7-.66.45-1-1-.21-1.9-.44-2.71-.7-2.73-.84-5.52-1.51-8.32-2.1C218.08,114.68,218.84,115,219.58,115.27Z"/><path class="cls-11" d="M239.35,159.92c.73-5.88,1.35-11.86,2-17.85.32-6,2.75-15.92-3.6-19.58a59.8,59.8,0,0,0-9.82-4.29c.09,0,.18.12.27.18-.53,1.45-2.39,1.64-3.91,1.34,5.34,2.52,9.85,4.79,12.11,6.1,1.75.8,2.18,3.93,1.75,8.47.52,5.87.88,15.56,1.21,24.91Z"/><path class="cls-10" d="M208.68,112.74c4.37,1.84,9.09,3.94,13.42,6h0a20.76,20.76,0,0,0,2.1.61c0,.15,0,.27,0,.39,1.52.3,3.38.11,3.91-1.34-.09-.06-.18-.13-.27-.18s0,0,0,0c-2.71-1-5.42-1.86-7.9-2.77l-.4-.16c-.74-.28-1.5-.59-2.27-.91l-2.81-.58c-1.92-.38-3.85-.73-5.78-1.1C208.7,112.7,208.68,112.72,208.68,112.74Z"/><path class="cls-10" d="M213.49,112.83c1.29.49,2.57,1,3.82,1.53,2.8.59,5.59,1.26,8.32,2.1.81.26,1.73.49,2.71.7a4.09,4.09,0,0,0-1.31-1l.14-.24a5.88,5.88,0,0,0-1.45-1.4s0,0,0,0c-3-1.75-6.68-3.84-10-4.18-1.62-.12-3.09.52-4.69.49a.55.55,0,0,0-.13,0A25.74,25.74,0,0,1,213.49,112.83Z"/><path class="cls-12" d="M213.68,108.49l-2.82-.84c-.54.5-1.1,1-1.69,1.46l-.46-.2a3.44,3.44,0,0,0-.35.41c.82.46,1.63.93,2.4,1.44H211c1.6,0,3.07-.61,4.69-.49,3.35.34,7,2.43,10,4.18,0,0,0,0,0,0a5.88,5.88,0,0,1,1.45,1.4l-.14.24a4.09,4.09,0,0,1,1.31,1c5.31,1.15,12.54,1.87,16.61,5.12-.41-1.89-1.11-3.12-2.18-3.48C238.19,116.72,224.82,111.9,213.68,108.49Z"/><path class="cls-12" d="M227.89,118.2a59.8,59.8,0,0,1,9.82,4.29c6.35,3.66,3.92,13.54,3.6,19.58-.61,6-1.23,12-2,17.85.19,5.32.36,10.5.56,14.78.87-9.8,2.17-19.89,3.06-25.16,1.06-6.24,1.88-12.21,2.24-17.2.14-1.92.21-3.68.18-5.27a24.52,24.52,0,0,0-.44-4.79c-4.07-3.25-11.3-4-16.61-5.12C228.59,117.54,228.53,117.91,227.89,118.2Z"/><path class="cls-11" d="M176.47,126.67a34.87,34.87,0,0,1-6-.56c5,5.62,21,7.67,30.62,8.06a94.33,94.33,0,0,1-14.74-4.28C181.3,128,178.52,127.42,176.47,126.67Z"/><path class="cls-13" d="M200.42,104.49h0l-.12-.19a8.29,8.29,0,0,0-1.26.51l-.12.06,2.9,1.31a7.85,7.85,0,0,1-1-1.14A4,4,0,0,1,200.42,104.49Z"/><path class="cls-11" d="M180,103.49c-2.71.64-5.4,1.32-8.13,1.85a87.51,87.51,0,0,0,10,6.12,11.64,11.64,0,0,0,2.62-1.42,31.67,31.67,0,0,0,2.68-2.23c-.94-.46-1.87-1-2.8-1.46A41.78,41.78,0,0,1,180,103.49Z"/><path class="cls-14" d="M205.68,111.49a17.56,17.56,0,0,0-3.38,5.44,28.91,28.91,0,0,0,3.18-3.59l1-1.5Z"/><path class="cls-15" d="M210.5,63.07c-.3-1.46-.65-2.92-.95-4.39,0,.28,0,.56,0,.84l-2.64,0c.11,2.65.09,5.31.14,8,0,1.31,0,2.62,0,4,1.29,8.07-3.38,17.67-1.33,25.46,2,2.4,6.39,4.89,8.54,6.54l.12.09c4.81.5,10.92,1.21,17.17,2.12a17.15,17.15,0,0,1,3.21-2.23c-1.11-.7-2.15-1.45-3.26-2.21A84.57,84.57,0,0,1,217.81,89c-3.53-4-3.66-7.14-4.51-12.22C212.48,72.12,211.33,67.68,210.5,63.07Z"/><path class="cls-16" d="M204.61,94c0,.44,0,.88,0,1.34A8.73,8.73,0,0,0,205.5,99a22.88,22.88,0,0,0,2.3,3.44,6.45,6.45,0,0,1-.88.34l1.21.09,5.29.52a12,12,0,0,1-5.33-1.74,5.55,5.55,0,0,1-1.37-1.44A11.73,11.73,0,0,1,205.07,96a10.28,10.28,0,0,1-.22-2.07Z"/><path class="cls-12" d="M210.76,110.76c-.77-.51-1.58-1-2.4-1.44h0l-.16.2C209.05,109.84,210,110.49,210.76,110.76Z"/><path class="cls-17" d="M201.82,106.17l-2.9-1.31a23.23,23.23,0,0,0-4.27,2.73,60.78,60.78,0,0,1,6.36,2.07,9,9,0,0,1,2.16-2.37A12.16,12.16,0,0,1,201.82,106.17Z"/><path class="cls-15" d="M227.24,111.38c.26-.5.52-1,.8-1.42q-3.49-.76-7-1.48a24.26,24.26,0,0,0,6,3.18C227.14,111.57,227.18,111.48,227.24,111.38Z"/><path class="cls-16" d="M202.38,44.87c-.44.88-1.58.72-1.37,1.83.31,1.67,2.84,2.62,3.31,4.37,1.13,4-1.27,8.17-2.08,11.9s-2.16,7.51-3.32,11.24a1.47,1.47,0,0,1,0,.21c.06.21.1.41.14.55a1.74,1.74,0,0,0,.23.56c2.46,1.67,1.68,5.73,1.28,7.91a18.41,18.41,0,0,0,5,2.62c.16-.85.31-1.7.43-2.56a0,0,0,0,0,0,0,90.15,90.15,0,0,0,1-12.06c0-1.33,0-2.64,0-4,0-2.65,0-5.31-.14-8-.21-5-.87-10-3.35-14.61l.18-.08c-.34-4.22-3.37-9.2-6.87-11.83-.7.14-1.42.3-2.12.46-.15.46-.29.88-.45,1.31A27.62,27.62,0,0,1,202,42.57C202.48,43.37,202.83,44.08,202.38,44.87Z"/><path class="cls-18" d="M173,28.74c-.69.52-1.76.19-2.68-.64.61,1.09,1.16,2.81,2,3.19a1,1,0,0,0,1.1-.19,3.38,3.38,0,0,0-.06-.39c-.05-.3-.12-.71-.19-1.08h0a0,0,0,0,0,0,0v0C173.14,29.31,173.07,29,173,28.74Z"/><path class="cls-11" d="M187.15,107.81a31.67,31.67,0,0,1-2.68,2.23,11.64,11.64,0,0,1-2.62,1.42c1.64.88,3.3,1.73,5,2.56a61.67,61.67,0,0,0,5.09-4.13A51,51,0,0,1,187.15,107.81Z"/><path class="cls-16" d="M205.69,96.87c-2.05-7.79,2.62-17.39,1.33-25.46a90.15,90.15,0,0,1-1,12.06,0,0,0,0,1,0,0c-.12.86-.27,1.71-.43,2.56a18.41,18.41,0,0,1-5-2.62c.4-2.18,1.18-6.24-1.28-7.91a1.86,1.86,0,0,0-.35-.22.69.69,0,0,1,0,.13v0c-.13,4-1.07,8-.91,11.94.1,2.4.37,4.74.67,7.08h.37a38.77,38.77,0,0,0,5.55-.51l.24,0a10.28,10.28,0,0,0,.22,2.07A6.22,6.22,0,0,0,205.69,96.87Z"/><path class="cls-14" d="M227.24,111.38a9.1,9.1,0,0,1,4.09,2.19,11.91,11.91,0,0,1,1.2-2.66L228,110C227.76,110.41,227.5,110.88,227.24,111.38Z"/><path class="cls-10" d="M173.3,28.77c-.1-.08-.16-.11-.24-.06.12.14.24.26.37.39Z"/><path class="cls-18" d="M173.36,30.29c0-.22-.1-.44-.15-.66.07.37.14.78.19,1.08l0,0C173.41,30.55,173.39,30.42,173.36,30.29Z"/><path class="cls-12" d="M238.85,183.66c0,.53,0,1,0,1.5h.09l.26,0c.16-3.27.42-6.83.74-10.44-.2-4.28-.37-9.46-.56-14.78,0,.18,0,.36-.07.54C239.18,168.21,238.76,175.9,238.85,183.66Z"/><path class="cls-10" d="M173.06,28.71c0,.05.07.43.14.88v0h0c0,.22.11.44.15.66s0,.26.07.4h0c.35-.2.69-.39,1-.6-.15.09-.36-.19-.6-.54,0,0,0,0,0,0a3.18,3.18,0,0,1-.41-.41l0,0C173.3,29,173.18,28.85,173.06,28.71Z"/><path class="cls-19" d="M213.68,108.49c11.14,3.41,24.51,8.23,29.09,10.31,1.07.36,1.77,1.59,2.18,3.48a7.79,7.79,0,0,1,3,4.82c1.74,9.49.62,19.62,1,29.09.3,7.34-1.45,14.68-1,21.87a35.2,35.2,0,0,0,6.11-.76c-1.58-11.48,0-23.89,1.72-34.77a123.73,123.73,0,0,0,1.14-19c-.09-8.1-2.77-9-10.51-10-1.06-.15-2.12-.32-3.18-.5-3.57-.6-7.13-1.31-10.7-2.06a11.91,11.91,0,0,0-1.2,2.66,9.1,9.1,0,0,0-4.09-2.19c-.06.1-.1.19-.16.28a24.26,24.26,0,0,1-6-3.18c-3-.61-5.9-1.18-8.84-1.68l-.21-.22c-.38.36-.75.72-1.14,1.07Z"/><path class="cls-13" d="M177.63,87.39a44.38,44.38,0,0,0,1.84,5.54h.32c3.65,2.27,7.17,4.81,10.8,7.19a12.24,12.24,0,0,0,4.1-1.72l-.16-.17a10.83,10.83,0,0,0,.21-2.79l2.4-1a12.33,12.33,0,0,0,1.55.09c-.3-2.34-.57-4.68-.67-7.08-.16-3.93.78-7.93.91-11.94-.27,3-3.83,6.46-5.23,9a9.38,9.38,0,0,1,.63-1.67l-.21-.1c-1,.32-2.36.74-4,1.21l-.24.07C186.45,84.92,182,86.14,177.63,87.39Z"/><path class="cls-19" d="M248.93,156.19c-.38-9.47.74-19.6-1-29.09a7.79,7.79,0,0,0-3-4.82,24.52,24.52,0,0,1,.44,4.79c0,1.59,0,3.35-.18,5.27-.36,5-1.18,11-2.24,17.2-.89,5.27-2.19,15.36-3.06,25.16.06,1.23.11,2.4.17,3.47,2.31,0,5.07,0,7.87-.11C247.48,170.87,249.23,163.53,248.93,156.19Z"/><path class="cls-20" d="M170.72,24.1a2.94,2.94,0,0,1,1.69,1.35,5.8,5.8,0,0,1,.55.91,2.6,2.6,0,0,0,2.75,2.5,11.91,11.91,0,0,1-.87-3.82h0c0-.16,0-.33-.07-.47a8.55,8.55,0,0,1-.07-1.95l-.33,0c-.05-1.27-.46-3.17.16-4s3.79-1.27,4.9-1.75a5.64,5.64,0,0,1-2.12,3.34c3.21-.32,7.68-.48,10-3A12.7,12.7,0,0,0,186,19.46a20.16,20.16,0,0,0,7.82-3.87l.75-.8a21.42,21.42,0,0,0,2.56-6,8.45,8.45,0,0,0-2.67-5.37l-.42.21C189.32-1,179-.7,173.83,1.78c-4.57,2.06-7.37,5.14-8.65,8.65a52.59,52.59,0,0,0,1.67,12c.1.37.21.78.34,1.21v0a23.24,23.24,0,0,0,1.8,3.8s0,0,0,0l.24.31C169.09,26.17,169.16,24.13,170.72,24.1Z"/><path class="cls-14" d="M231.52,105.62A17.66,17.66,0,0,0,228,110l4.49,1a15.38,15.38,0,0,1,4.47-4.44C235.19,106.17,233.35,105.88,231.52,105.62Z"/><path class="cls-15" d="M228,110a17.66,17.66,0,0,1,3.48-4.34c-6.25-.91-12.36-1.62-17.17-2.12l.09.06c.27,0,.52.1.77.15-.09.06-.18.14-.27.21,2,1.46,4,3.11,6.11,4.56Q224.55,109.2,228,110Z"/><path class="cls-11" d="M202.3,116.93a17.56,17.56,0,0,1,3.38-5.44l-.6-.24a14.5,14.5,0,0,0-3.54,3.19c-.6.69-1.2,1.4-1.85,2.13A28.57,28.57,0,0,1,197.1,119c.57.28,1.13.55,1.68.84A29,29,0,0,0,202.3,116.93Z"/><path class="cls-13" d="M162.66,123c-.4-1.12-.75-2.24-1.07-3.39.25,2.37.71,4.16,1.54,4.51C163,123.78,162.82,123.45,162.66,123Z"/><path class="cls-10" d="M227.88,118.2c-2.36-1.59-5.39-2.28-8.3-2.93l.4.16C222.46,116.34,225.17,117.23,227.88,118.2Z"/><path class="cls-21" d="M179.74,20.66l0,.12a55.66,55.66,0,0,0,5.88-.38c.11-.3.24-.62.38-.94l-.46.14A42.24,42.24,0,0,1,179.74,20.66Z"/><path class="cls-10" d="M173.45,29.12l0,0Z"/><path class="cls-21" d="M189.63,19.68c2.71-.72,5-1.89,5.91-3.79h0c0-.1,0-.21,0-.31a4.7,4.7,0,0,0-.51-1.19,7,7,0,0,1-.59.63,7,7,0,0,1-.63.58A29.6,29.6,0,0,1,189.63,19.68Z"/><path class="cls-10" d="M173.86,29.53a4.84,4.84,0,0,0-.56-.76l.13.33,0,0A3.18,3.18,0,0,0,173.86,29.53Z"/><path class="cls-13" d="M198.17,120.3l.53-.38.08,0c-.55-.29-1.11-.56-1.68-.84a31.58,31.58,0,0,1-5.45,3.68,40.63,40.63,0,0,1-4.62,2.12,26.05,26.05,0,0,1-2.75.91,27.2,27.2,0,0,0,9.53-2.84A39.82,39.82,0,0,0,198.17,120.3Z"/><path class="cls-11" d="M205.08,111.25l.6.24c.29-.34.59-.66.87-.94A8.65,8.65,0,0,0,205.08,111.25Z"/><path class="cls-19" d="M240.83,183.3a1.59,1.59,0,0,1-.47-1c-.09-1.11-.19-2.53-.28-4.15-.06-1.07-.11-2.24-.17-3.47-.32,3.61-.58,7.17-.74,10.44a9.77,9.77,0,0,1,1.66.1C240.84,184.61,240.84,184,240.83,183.3Z"/><path class="cls-10" d="M224.23,119.33a20.76,20.76,0,0,1-2.1-.61l2.12,1C224.25,119.6,224.24,119.48,224.23,119.33Z"/><path class="cls-22" d="M198.92,74.42a1.47,1.47,0,0,0,0-.21s0,0,0,0h0a.43.43,0,0,0,0,0A.5.5,0,0,1,198.92,74.42Z"/><path class="cls-14" d="M206.52,111.84l.55-.82c.37-.52.73-1,1.12-1.5a1.9,1.9,0,0,0-.34-.11c-.21.16-.41.33-.63.53l.39.27a8.75,8.75,0,0,0-1.06.34c-.28.28-.58.6-.87.94Z"/><path class="cls-14" d="M239,105a4.74,4.74,0,0,1-2.59-.63l-.09,0q-.82-.45-1.59-.93a17.15,17.15,0,0,0-3.21,2.23c1.83.26,3.67.55,5.48.85.53-.38,1.07-.78,1.63-1.2Z"/><path class="cls-21" d="M196.33,20.1a16.62,16.62,0,0,1-.79-4.21c-.95,1.9-3.2,3.07-5.91,3.79a9.81,9.81,0,0,1-4.4,1.95c.11-.39.25-.8.41-1.23a55.66,55.66,0,0,1-5.88.38l0,.2a33.29,33.29,0,0,1,.25,4.68c-.29,1.64-1.7,2.18-2,3.57a5.84,5.84,0,0,0,.81,3.81l2,1.11,0,0a14.4,14.4,0,0,0,3.51,1.55,10.22,10.22,0,0,0,5.59.13l.22-.07a6.25,6.25,0,0,0,3-1.73c.1-.1.2-.2.29-.31l1.28-.3c.22-.71.42-1.45.64-2.2a36.16,36.16,0,0,0,1.26-5.79,14.09,14.09,0,0,0-.22-4.87C196.42,20.42,196.37,20.26,196.33,20.1Z"/><path class="cls-13" d="M163.57,98.06l.07,0c-.5-1.55-1.15-3.48-1.87-5.7-1.53-4.68-3.37-10.59-4.69-16.59-.18,6-.59,12.13.3,18.24,1.19,8.38,1.84,17.32,4.21,25.67-.47-4.21-.32-10.23-.65-13.23H161c.8,0,1.49-.06,2-.06a44.52,44.52,0,0,0,8.85-1A48.6,48.6,0,0,1,163.57,98.06Z"/><path class="cls-11" d="M157.08,75.72c1.32,6,3.16,11.91,4.69,16.59l2.35-.44a23.23,23.23,0,0,1,.69-3.77,45.52,45.52,0,0,0-.79-5.34c-1-4.28-1.08-8.57-1.49-13-.53-4.06-1.16-7.75-.36-11.8.39-2.12,2.67-7.08,5.6-5.63-1.66-2.46-4.18-4.27-7.34-3.87C153.92,52.94,154.6,64.49,157.08,75.72Z"/><path class="cls-13" d="M161,106.39h-.06c.33,3,.18,9,.65,13.23.32,1.15.67,2.27,1.07,3.39.16.43.32.76.47,1.12a.39.39,0,0,0,.14,0l.06-.14a30.49,30.49,0,0,0,3.81,1.31,16.27,16.27,0,0,1-3.16-4.28,4.91,4.91,0,0,1-.15-.51c-.17-.53-.32-1.07-.45-1.61-.32-1.26-.62-2.55-.86-3.83C161.91,112.15,161.47,109.16,161,106.39Z"/><path class="cls-13" d="M161,106.39c.47,2.77.91,5.76,1.52,8.74,3.08,1,8.2-1,10.83-1.54,2.73-.75,5.81-1.08,8.5-2.13a87.51,87.51,0,0,1-10-6.12,44.52,44.52,0,0,1-8.85,1C162.49,106.33,161.8,106.36,161,106.39Z"/><path class="cls-13" d="M161.87,47.67a11.15,11.15,0,0,1,6,4.71c5.51,8,6.81,23.91,9.78,35,4.35-1.25,8.82-2.47,12.23-3.45l.24-.07c1.66-.47,3-.89,4-1.21l.21.1a9.38,9.38,0,0,0-.63,1.67c1.4-2.49,5-5.94,5.23-9v0c0-.35,0-.68,0-1a.5.5,0,0,0,0-.12,3.73,3.73,0,0,0-.92-1.72,24.82,24.82,0,0,0-3.87-2.38,56.6,56.6,0,0,0-7-3.41c-1.81-.79-5.64-2.46-6-4.69-.24-1.75,2.23-4.29-1-4.37a3.8,3.8,0,0,0-2.61.88c-.55.24-.21.72-1,.39-.32-.07-.52-.79-.69-1.1-.94-1.67-1.82-3.42-2.77-5.09a73.34,73.34,0,0,1-3.5-7c-.27-.71-1.17-3.45-1.58-3.64a98.48,98.48,0,0,0-8.1,6l.26.3.24,0A8.41,8.41,0,0,1,161.87,47.67Z"/><path class="cls-11" d="M164.12,91.87l-2.35.44c.72,2.22,1.37,4.15,1.87,5.7l-.07,0a48.6,48.6,0,0,0,8.26,7.28c2.73-.53,5.42-1.21,8.13-1.85-4-2.91-7.6-6.36-11.61-9.18a7.4,7.4,0,0,1,2.32-2c-1.24-.59-3.91-1.43-5.21-.84a.78.78,0,0,1-.05-.14C164.93,91.5,164.5,91.69,164.12,91.87Z"/><path class="cls-13" d="M162.52,115.13c.24,1.28.54,2.57.86,3.83.13.54.28,1.08.45,1.61,4.31,1.26,10.8-.5,16.1-2.81a40.67,40.67,0,0,0,6.51-3.49l.37-.25c-1.66-.83-3.32-1.68-5-2.56-2.69,1.05-5.77,1.38-8.5,2.13C170.72,114.16,165.6,116.09,162.52,115.13Z"/><path class="cls-13" d="M160.43,48.49c3.16-.4,5.68,1.41,7.34,3.87,0,0,0,0,.06,0h0a11.15,11.15,0,0,0-6-4.71A8.41,8.41,0,0,0,160.43,48.49Z"/><path class="cls-13" d="M170.44,126.11a34.87,34.87,0,0,0,6,.56,9.22,9.22,0,0,1-2.29-1.19,35.21,35.21,0,0,0,10.1.26,26.05,26.05,0,0,0,2.75-.91,40.63,40.63,0,0,0,4.62-2.12c-3.89-1.31-8.33-2.56-11.72-4.95-5.3,2.31-11.79,4.07-16.1,2.81a4.91,4.91,0,0,0,.15.51,16.27,16.27,0,0,0,3.16,4.28,0,0,0,0,0,0,0C168.22,125.67,169.32,125.91,170.44,126.11Z"/><path class="cls-17" d="M162.17,58c-.8,4-.17,7.74.36,11.8.41,4.4.47,8.69,1.49,13a45.52,45.52,0,0,1,.79,5.34c.41-1.64.94-3.36,1.48-5l0-.08a152.52,152.52,0,0,0,3.61-23.33,12.13,12.13,0,0,0-2.14-7.26l0,0C164.84,50.91,162.56,55.87,162.17,58Z"/><path class="cls-11" d="M164.81,88.1a23.23,23.23,0,0,0-.69,3.77c.38-.18.81-.37,1.29-.56A20.2,20.2,0,0,1,164.81,88.1Z"/><path class="cls-17" d="M164.81,88.1a20.2,20.2,0,0,0,.6,3.21c2.87-1.16,7.46-2.56,12.22-3.92-3-11.1-4.27-27-9.78-35h0s0,0-.06,0l0,0a12.13,12.13,0,0,1,2.14,7.26A152.52,152.52,0,0,1,166.32,83l0,.08C165.75,84.74,165.22,86.46,164.81,88.1Z"/><path class="cls-17" d="M165.41,91.31a.78.78,0,0,0,.05.14c1.3-.59,4,.25,5.21.84a7.4,7.4,0,0,0-2.32,2c4,2.82,7.65,6.27,11.61,9.18l2.13-.5a50.43,50.43,0,0,0,8.07-2.73l.43-.14c-3.63-2.38-7.15-4.92-10.8-7.19h-.32a44.38,44.38,0,0,1-1.84-5.54C172.87,88.75,168.28,90.15,165.41,91.31Z"/><path class="cls-23" d="M164.84,11.63a20.08,20.08,0,0,0,.57,5.74,43.54,43.54,0,0,0,1.78,6.27c-.13-.43-.24-.84-.34-1.21a52.59,52.59,0,0,1-1.67-12c-.12.32-.22.64-.31,1l0,.18Z"/><path class="cls-23" d="M164.87,11.39c.09-.32.19-.64.31-1s0-.41,0-.62a1.41,1.41,0,0,1,0-.21C165.05,10.15,165,10.76,164.87,11.39Z"/><path class="cls-17" d="M168,42.19c.41.19,1.31,2.93,1.58,3.64a73.34,73.34,0,0,0,3.5,7c.95,1.67,1.83,3.42,2.77,5.09.17.31.37,1,.69,1.1.81.33.47-.15,1-.39a3.8,3.8,0,0,1,2.61-.88c3.22.08.75,2.62,1,4.37.33,2.23,4.16,3.9,6,4.69a56.6,56.6,0,0,1,7,3.41A24.82,24.82,0,0,1,198,72.58a3.73,3.73,0,0,1,.92,1.72.43.43,0,0,1,0,0h0a3.14,3.14,0,0,0-.16-.5,9,9,0,0,1-.37-1,33.51,33.51,0,0,0-3.23-6.65A58.32,58.32,0,0,0,183.8,53.37c-1.29-1.06-2.65-2.12-4-3.2-.89-.73-1.75-1.49-2.54-2.27a9.52,9.52,0,0,1-7.15-6.32c-.06-.18-.11-.35-.15-.52l0-.15C169.37,41.3,168.71,41.73,168,42.19Z"/><path class="cls-23" d="M169,27.52l.24.39v-.08Z"/><path class="cls-18" d="M169.26,27.83v.08c0,.36.08.68.12.95A5.73,5.73,0,0,0,171,32.05c.88.82,1.9,1.13,2.53.63,0-.52-.05-1.06-.1-1.58a1,1,0,0,1-1.1.19c-.88-.38-1.43-2.1-2-3.19.92.83,2,1.16,2.68.64a30,30,0,0,1-.59-3.29,2.94,2.94,0,0,0-1.69-1.35C169.16,24.13,169.09,26.17,169.26,27.83Z"/><path class="cls-24" d="M170,40.91l0,.15a8.42,8.42,0,0,0,.84-.7Z"/><path class="cls-17" d="M170,41.06c0,.17.09.34.15.52a9.52,9.52,0,0,0,7.15,6.32,12.44,12.44,0,0,1-3.83-6.28l-.22-.3c0-.27.05-.55.08-.81a9.43,9.43,0,0,1,0-1.59c-.62.32-1.49.81-2.51,1.44A8.42,8.42,0,0,1,170,41.06Z"/><path class="cls-13" d="M174.18,125.48a9.22,9.22,0,0,0,2.29,1.19,30.83,30.83,0,0,0,7.81-.93A35.21,35.21,0,0,1,174.18,125.48Z"/><path class="cls-11" d="M201.06,134.17a90.81,90.81,0,0,0,20.67,2.05c-.15.73-.32,1.51-.48,2.33-.83,4-1.69,8.89-2.22,13a46.55,46.55,0,0,0-.45,6.81c0,1.29,0,2.76,0,4.33v0c.11,11.05.71,28.24,1.84,40.05,1.16-3.23,5.86-5.12,8.73-6.37l.42-.17c-.33-9-.49-18.23,0-27.19.51-9.42,2.08-18.64,2.42-28.05,0-4.62,1.23-10.21-3.34-13.32-3.82-2.67-9.09-2.29-13.34-3.22-4-1-8.07-1.95-12.09-2.93a5.59,5.59,0,0,1-3.11-.78h0l-.44-.1-1.51-.37a39.82,39.82,0,0,1-4.36,2.6,27.2,27.2,0,0,1-9.53,2.84,30.83,30.83,0,0,1-7.81.93c2.05.75,4.83,1.28,9.85,3.22A94.33,94.33,0,0,0,201.06,134.17Z"/><path class="cls-25" d="M173.34,40.51c0,.26-.05.54-.08.81l.22.3A8,8,0,0,1,173.34,40.51Z"/><path class="cls-10" d="M173,26.36a5.8,5.8,0,0,0-.55-.91,30,30,0,0,0,.59,3.29l.06,0c.08-.05.14,0,.24.06a4.84,4.84,0,0,1,.56.76s0,0,0,0q.3.28.6.54a17.43,17.43,0,0,0,1.58,1.22c.85.58,1.76,1.13,2.8,1.73a5.84,5.84,0,0,1-.81-3.81c.3-1.39,1.71-1.93,2-3.57a33.29,33.29,0,0,0-.25-4.68l0-.2h-1.34c-1.34.12-2.56.17-3.55.18h-.05c0,.55-.11,1.1-.13,1.64a8.55,8.55,0,0,0,.07,1.95c0,.14.05.31.07.47h0a11.91,11.91,0,0,0,.87,3.82A2.6,2.6,0,0,1,173,26.36Z"/><path class="cls-24" d="M173.36,38.92a9.43,9.43,0,0,0,0,1.59c0-.55.1-1.1.12-1.64Z"/><path class="cls-18" d="M173.34,40.51a8,8,0,0,0,.14,1.11c1.77,2.24,6.1,3.09,9.13,3a14.42,14.42,0,0,1-2-6.85c-1.62-1-2.95-1.73-4.13-2.58A14.51,14.51,0,0,1,175,34c-.19-.17-.39-.35-.57-.53,0,0,0,0,0,0a5.91,5.91,0,0,0-.54-.76l-.08-.07h0l-.2.12c.07,1.36.07,2.72,0,4.07,0,.69-.06,1.37-.11,2.06S173.39,40,173.34,40.51Z"/><path class="cls-10" d="M173.06,28.71l-.06,0c.07.29.14.57.2.85C173.13,29.14,173.06,28.76,173.06,28.71Z"/><path class="cls-18" d="M173.2,29.61a0,0,0,0,1,0,0Z"/><path class="cls-18" d="M173.43,30.69l0,0a3.38,3.38,0,0,1,.06.39c0-.1,0-.21,0-.31s0,0,0,0A.2.2,0,0,0,173.43,30.69Z"/><path class="cls-10" d="M173.43,30.69a.2.2,0,0,1,0,.07v-.07Z"/><path class="cls-10" d="M173.44,30.69v.07s0,0,0,0a12.19,12.19,0,0,0,.37,1.8c.78-.43,1.52-.86,2.24-1.28a17.43,17.43,0,0,1-1.58-1.22C174.13,30.3,173.79,30.49,173.44,30.69Z"/><path class="cls-18" d="M173.44,30.79c0,.1,0,.21,0,.31,0,.52.08,1.06.1,1.58l.05,0a.12.12,0,0,1,.15,0h0l0,0A12.19,12.19,0,0,1,173.44,30.79Z"/><path class="cls-25" d="M173.61,32.63l-.05,0v.06l.2-.12A.12.12,0,0,0,173.61,32.63Z"/><path class="cls-18" d="M173.81,32.59l0,0,.08.07A.42.42,0,0,0,173.81,32.59Z"/><path class="cls-10" d="M173.81,32.59a.42.42,0,0,1,0,.1,5.91,5.91,0,0,1,.54.76s0,0,0,0c.18.18.38.36.57.53a14.51,14.51,0,0,0,1.5,1.19c1.18.85,2.51,1.63,4.13,2.58a14.15,14.15,0,0,1,0-2.06h0A16.66,16.66,0,0,1,178.85,33c-1-.6-1.95-1.15-2.8-1.73C175.33,31.73,174.59,32.16,173.81,32.59Z"/><path class="cls-26" d="M173.48,41.62a12.44,12.44,0,0,0,3.83,6.28,19,19,0,0,0,9.74-.35,7.7,7.7,0,0,0,.79-.29c.22-1.46.26-3,.42-4.45l-.08-.11a11.39,11.39,0,0,1-3.79,1.72,8.84,8.84,0,0,1-1.78.2C179.58,44.71,175.25,43.86,173.48,41.62Z"/><path class="cls-10" d="M174.47,30.09q-.3-.25-.6-.54C174.11,29.9,174.32,30.18,174.47,30.09Z"/><path class="cls-10" d="M174.52,18.61c-.62.8-.21,2.7-.16,4l.33,0c0-.54.09-1.09.13-1.64h.05c1,0,2.21-.06,3.55-.18.44,0,.87-.08,1.32-.13a42.24,42.24,0,0,0,5.82-1.06l.46-.14a12.7,12.7,0,0,1,1.27-2.27c-2.31,2.53-6.78,2.69-10,3a5.64,5.64,0,0,0,2.12-3.34C178.31,17.34,175.28,17.81,174.52,18.61Z"/><path class="cls-17" d="M182.09,103l-2.13.5a41.78,41.78,0,0,0,4.39,2.86c.93.51,1.86,1,2.8,1.46a34.8,34.8,0,0,1,4.76-4c.63-.4,1.45-.89,2.39-1.41-1.25-.73-2.49-1.51-3.71-2.31l-.43.14A50.43,50.43,0,0,1,182.09,103Z"/><path class="cls-26" d="M177.31,47.9c.79.78,1.65,1.54,2.54,2.27a22.39,22.39,0,0,0,4.43,1.21c1.29.24,1.94.48,2.54-.63a9.72,9.72,0,0,0,.74-2,12.51,12.51,0,0,0,.28-1.46,7.7,7.7,0,0,1-.79.29A19,19,0,0,1,177.31,47.9Z"/><path class="cls-10" d="M179.74,20.66c-.45.05-.88.1-1.32.13h1.34Z"/><path class="cls-21" d="M180.82,34.15l-2-1.11a16.66,16.66,0,0,0,1.75,2.66,10.63,10.63,0,0,1,.25-1.53Z"/><path class="cls-10" d="M180.6,35.71a14.15,14.15,0,0,0,0,2.06L181,38l0,0a13.07,13.07,0,0,0,3.33,1.51A25.56,25.56,0,0,1,180.6,35.71Z"/><path class="cls-18" d="M181,38l-.39-.22a14.42,14.42,0,0,0,2,6.85,8.84,8.84,0,0,0,1.78-.2,11.39,11.39,0,0,0,3.79-1.72l.09-.06a4.44,4.44,0,0,0,2.07-2.89h-.12c0-.12,0-.22,0-.33s-.27.08-.41.12l-.21.07a9,9,0,0,1-5.25-.08A13.07,13.07,0,0,1,181,38Z"/><path class="cls-21" d="M180.6,35.7h0a25.56,25.56,0,0,0,3.74,3.81,9,9,0,0,0,5.25.08l.21-.07c.14,0,.27-.09.41-.12,0-.84-.06-1.67-.06-2.51,0-.32,0-.65,0-1a1,1,0,0,0-.22-.08,10.22,10.22,0,0,1-5.59-.13,14.4,14.4,0,0,1-3.51-1.55A10.63,10.63,0,0,0,180.6,35.7Z"/><path class="cls-13" d="M179.93,117.76c3.39,2.39,7.83,3.64,11.72,4.95A31.58,31.58,0,0,0,197.1,119c-3.32-1.63-6.81-3.27-10.29-5l-.37.25A40.67,40.67,0,0,1,179.93,117.76Z"/><path class="cls-14" d="M179.85,50.17c1.3,1.08,2.66,2.14,4,3.2a58.32,58.32,0,0,1,11.35,12.72c-.45-2.45-.69-5-1.35-7.4A66.61,66.61,0,0,0,191,51.07a36.16,36.16,0,0,1-3.45-2.35,9.72,9.72,0,0,1-.74,2c-.6,1.11-1.25.87-2.54.63A22.39,22.39,0,0,1,179.85,50.17Z"/><path class="cls-20" d="M185.64,20.4c-.16.43-.3.84-.41,1.23a9.81,9.81,0,0,0,4.4-1.95A27.89,27.89,0,0,1,185.64,20.4Z"/><path class="cls-20" d="M186,19.46c-.14.32-.27.64-.38.94a27.89,27.89,0,0,0,4-.72,29.6,29.6,0,0,0,4.21-4.09A20.16,20.16,0,0,1,186,19.46Z"/><path class="cls-27" d="M187.84,47.26a12.51,12.51,0,0,1-.28,1.46A36.16,36.16,0,0,0,191,51.07s0,0,0,0l.08,0a8.92,8.92,0,0,0,2.06-1.34s0-.07,0-.1c-.15-1.72-.68-3.32-.94-5-.22-.1-.42-.22-.63-.33A10.51,10.51,0,0,1,187.84,47.26Z"/><path class="cls-27" d="M188.26,42.81c-.16,1.49-.2,3-.42,4.45a10.51,10.51,0,0,0,3.68-3c-1.08-.58-2.15-1.15-3.25-1.61l-.09.06Z"/><path class="cls-17" d="M187.15,107.81a51,51,0,0,0,4.75,2.08c.9-.78,1.81-1.56,2.75-2.3h0a23.23,23.23,0,0,1,4.27-2.73c-.78-.37-1.56-.74-2.33-1.13s-1.53-.85-2.29-1.3c-.94.52-1.76,1-2.39,1.41A34.8,34.8,0,0,0,187.15,107.81Z"/><path class="cls-11" d="M191.9,109.89a61.67,61.67,0,0,1-5.09,4.13c3.48,1.74,7,3.38,10.29,5a28.57,28.57,0,0,0,2.59-2.46c.65-.73,1.25-1.44,1.85-2.13a14.5,14.5,0,0,1,3.54-3.19c-1.43-.58-2.8-1.11-4.07-1.59a14.88,14.88,0,0,0-1.27,2.4A42.71,42.71,0,0,1,191.9,109.89Z"/><path class="cls-21" d="M190.17,35.78l-.22.07a1,1,0,0,1,.22.08A.75.75,0,0,0,190.17,35.78Z"/><path class="cls-26" d="M190.21,39.41c0,.11,0,.21,0,.33h.12a4.44,4.44,0,0,1-2.07,2.89c1.1.46,2.17,1,3.25,1.61,1.48-1.93,2.16-4.28.65-6A6.27,6.27,0,0,1,190.21,39.41Z"/><path class="cls-21" d="M190.15,36.9c0,.84,0,1.67.06,2.51a6.27,6.27,0,0,0,2-1.19,5.18,5.18,0,0,0-1.84-1.31Z"/><path class="cls-21" d="M190.15,36.9h.18a5.18,5.18,0,0,1,1.84,1.31,5.1,5.1,0,0,0,.46-.47,1.78,1.78,0,0,0,.22-.26,7.21,7.21,0,0,0-2.68-1.56C190.15,36.25,190.16,36.58,190.15,36.9Z"/><path class="cls-21" d="M190.17,35.78a.75.75,0,0,1,0,.15,7.21,7.21,0,0,1,2.68,1.56s0,0,0,0a9.79,9.79,0,0,0,1.43-2.7c-.37-.24-.74-.48-1.12-.7A6.25,6.25,0,0,1,190.17,35.78Z"/><path class="cls-27" d="M198.91,73.66a84.7,84.7,0,0,0,.77-8.94c0-1,.07-2,.07-3a27.66,27.66,0,0,0-2.54-5.89c-1.22-1.94-2.93-4.15-4.07-6.18A8.92,8.92,0,0,1,191.08,51L191,51s0,0,0,0a66.61,66.61,0,0,1,2.79,7.62c.66,2.45.9,5,1.35,7.4a33.51,33.51,0,0,1,3.23,6.65,9,9,0,0,0,.37,1l.15,0S198.91,73.67,198.91,73.66Z"/><path class="cls-13" d="M190.59,100.12c1.22.8,2.46,1.58,3.71,2.31a42.53,42.53,0,0,1,4.78-2.26,25.29,25.29,0,0,1-.16-4c-.08-.56-.15-1.13-.23-1.69a12.33,12.33,0,0,1-1.55-.09l-2.4,1a10.83,10.83,0,0,1-.21,2.79l.16.17A12.24,12.24,0,0,1,190.59,100.12Z"/><path class="cls-17" d="M194.65,107.59c-.94.74-1.85,1.52-2.75,2.3a42.71,42.71,0,0,0,7.84,2.17,14.88,14.88,0,0,1,1.27-2.4,60.78,60.78,0,0,0-6.36-2.07Z"/><path class="cls-26" d="M191.52,44.25c.21.11.41.23.63.33a30.94,30.94,0,0,0,3,1.41,8.61,8.61,0,0,0,0-5.66,12.34,12.34,0,0,0-2.32-2.84,1.78,1.78,0,0,1-.22.26,5.1,5.1,0,0,1-.46.47C193.68,40,193,42.32,191.52,44.25Z"/><path class="cls-13" d="M199.08,100.17a42.53,42.53,0,0,0-4.78,2.26c.76.45,1.52.87,2.29,1.3s1.55.76,2.33,1.13l.12-.06a8.29,8.29,0,0,1,1.26-.51,7.35,7.35,0,0,1-.69-1.53A13.11,13.11,0,0,1,199.08,100.17Z"/><path class="cls-14" d="M192.15,44.58c.26,1.65.79,3.25.94,5,0,0,0,.07,0,.1,1.14,2,2.85,4.24,4.07,6.18a27.66,27.66,0,0,1,2.54,5.89,67.18,67.18,0,0,0-.56-9c-.3-2.43-1.45-8.23-4-12.4a8.61,8.61,0,0,1,0,5.66A30.94,30.94,0,0,1,192.15,44.58Z"/><path class="cls-17" d="M192.85,37.49a12.34,12.34,0,0,1,2.32,2.84c2.57,4.17,3.72,10,4,12.4a67.18,67.18,0,0,1,.56,9c0,1,0,2-.07,3a84.7,84.7,0,0,1-.77,8.94c0,.18,0,.36,0,.55,1.16-3.73,2.38-7.42,3.32-11.24s3.21-7.93,2.08-11.9c-.47-1.75-3-2.7-3.31-4.37-.21-1.11.93-1,1.37-1.83s.1-1.5-.42-2.3a27.62,27.62,0,0,0-7.64-7.82,9.79,9.79,0,0,1-1.43,2.7S192.87,37.48,192.85,37.49Z"/><path class="cls-21" d="M193.49,33.74c-.09.11-.19.21-.29.31.38.22.75.46,1.12.7.16-.43.3-.85.45-1.31Z"/><path class="cls-11" d="M198.17,120.3l1.51.37.44.1c-.49-.26-1-.55-1.42-.85Z"/><path class="cls-23" d="M193.84,15.59a7,7,0,0,0,.63-.58,1.55,1.55,0,0,0,.12-.22Z"/><path class="cls-11" d="M198.78,119.87l-.08,0c.46.3.93.59,1.42.85h0c1,.27,2.07.53,3.11.78l.32,0a2.69,2.69,0,0,1-1.42-1.44,4.71,4.71,0,0,1,.14-3.14A29,29,0,0,1,198.78,119.87Z"/><path class="cls-23" d="M194.59,14.79a1.55,1.55,0,0,1-.12.22,7,7,0,0,0,.59-.63l0-.05Z"/><path class="cls-23" d="M194.59,14.79l.44-.46,0,.05a9.6,9.6,0,0,0,2.17-4s0,0,0-.05c0-.55,0-1.07-.09-1.55A21.42,21.42,0,0,1,194.59,14.79Z"/><path class="cls-13" d="M199.06,94.51h-.37c.08.56.15,1.13.23,1.69C199,95.59,199,95,199.06,94.51Z"/><path class="cls-23" d="M195.06,14.38a4.7,4.7,0,0,1,.51,1.19c.08-.76.2-1.5.32-2.24A9.34,9.34,0,0,1,195.06,14.38Z"/><path class="cls-20" d="M195.57,15.57c0,.1,0,.21,0,.31h0a16.62,16.62,0,0,0,.79,4.21c.15-.85.35-1.83.55-2.85.47-2.33.88-4.9.36-6.78v-.05a9.33,9.33,0,0,1-1.34,2.91C195.77,14.07,195.65,14.81,195.57,15.57Z"/><path class="cls-16" d="M199.66,100a11.92,11.92,0,0,1,5.84-1,8.73,8.73,0,0,1-.87-3.66c0-.46,0-.9,0-1.34a38.77,38.77,0,0,1-5.55.51c-.07.51-.11,1.08-.14,1.68a25.29,25.29,0,0,0,.16,4Z"/><path class="cls-16" d="M199.66,100l-.58.22a13.11,13.11,0,0,0,.53,2.59,7.35,7.35,0,0,0,.69,1.53l.06,0A30.37,30.37,0,0,1,199.66,100Z"/><path class="cls-11" d="M200.12,120.77h0Z"/><path class="cls-11" d="M203.26,121.56c-1-.25-2.08-.51-3.11-.78A5.59,5.59,0,0,0,203.26,121.56Z"/><path class="cls-18" d="M196.33,20.1c0,.16.09.32.12.48a14.09,14.09,0,0,1,.22,4.87,10.43,10.43,0,0,0,.84-6.41,6.27,6.27,0,0,0-.63-1.79C196.68,18.27,196.48,19.25,196.33,20.1Z"/><path class="cls-17" d="M198.75,73.74a3.14,3.14,0,0,1,.16.5s0,0,0,0c0-.19,0-.37,0-.55,0,0,0,0,0,0Z"/><path class="cls-13" d="M198.92,75.44a.69.69,0,0,0,0-.13,1.86,1.86,0,0,1,.35.22,1.74,1.74,0,0,1-.23-.56c0-.14-.08-.34-.14-.55C198.94,74.76,198.93,75.09,198.92,75.44Z"/><path class="cls-22" d="M200.3,104.29l.12.19-.06-.21Z"/><path class="cls-16" d="M199.66,100a30.37,30.37,0,0,0,.7,4.32c2.16-.72,4.72-.93,6.56-1.49a6.45,6.45,0,0,0,.88-.34A22.88,22.88,0,0,1,205.5,99,11.92,11.92,0,0,0,199.66,100Z"/><path class="cls-16" d="M204,106.77c1.49.75,3,1.4,4.62,2.12a.34.34,0,0,1,.12-.06,10,10,0,0,1,1.47-1.36l.61.18c.39-.35.76-.71,1.14-1.07,1-.93,1.94-1.84,2.94-2.66l-.5-.36-1-.16h-.06l-5.29-.52-1.21-.09c-1.84.56-4.4.77-6.56,1.49l.06.21h0a4,4,0,0,0,.38.54C201.92,105.69,203,106.26,204,106.77Z"/><path class="cls-11" d="M203.17,107.29a9,9,0,0,0-2.16,2.37c1.27.48,2.64,1,4.07,1.59a8.65,8.65,0,0,1,1.47-.7,9,9,0,0,1,.67-.61C205.89,109,204.46,108.23,203.17,107.29Z"/><path class="cls-19" d="M200.8,105a7.85,7.85,0,0,0,1,1.14l1.81.82c.13-.08.27-.15.41-.22C203,106.26,201.92,105.69,200.8,105Z"/><path class="cls-14" d="M205.58,120.36c-.4-2.16,1.3-5.48,3.1-7.62a1.78,1.78,0,0,0-.29-.12l-1.87-.78-1,1.5a28.91,28.91,0,0,1-3.18,3.59,4.71,4.71,0,0,0-.14,3.14l.08,0c1.22.47,2.44.84,3.65,1.2A2.49,2.49,0,0,1,205.58,120.36Z"/><path class="cls-11" d="M222.2,121.15a38.58,38.58,0,0,0-5.69-1.44c-3,1.88-7.46,1.21-10.93.65a2.49,2.49,0,0,0,.31.88c-1.21-.36-2.43-.73-3.65-1.2l-.08,0a2.69,2.69,0,0,0,1.42,1.44l-.32,0c4,1,8.1,1.9,12.09,2.93,4.25.93,9.52.55,13.34,3.22,4.57,3.11,3.34,8.7,3.34,13.32-.34,9.41-1.91,18.63-2.42,28.05-.51,9-.35,18.16,0,27.19,2.53-1.06,5-2.62,7.68-3a193.27,193.27,0,0,1,1.38-28c.23-1.58.44-3.15.63-4.74,0-.41,0-.84,0-1.26h0c-.33-9.35-.69-19-1.21-24.91.43-4.54,0-7.67-1.75-8.47-2.26-1.31-6.77-3.58-12.11-6.1C224.19,120.86,223.25,121.14,222.2,121.15Z"/><path class="cls-19" d="M201.82,106.17a12.16,12.16,0,0,0,1.35,1.12,4.53,4.53,0,0,1,.46-.3Z"/><path class="cls-11" d="M207.85,109.41l.29-.22c-1.46-.79-3-1.51-4.51-2.2a4.53,4.53,0,0,0-.46.3c1.29.94,2.72,1.71,4.05,2.65C207.44,109.74,207.64,109.57,207.85,109.41Z"/><path class="cls-15" d="M209.55,58.68c-.39-11.64.58-26.3-8.09-26.73-1.22.34-2.86.68-4.57,1,3.5,2.63,6.53,7.61,6.87,11.83l-.18.08c2.48,4.65,3.14,9.6,3.35,14.61l2.64,0C209.56,59.24,209.55,59,209.55,58.68Z"/><path class="cls-19" d="M204,106.77c-.14.07-.28.14-.41.22,1.54.69,3.05,1.41,4.51,2.2a4.87,4.87,0,0,1,.52-.3C207,108.17,205.53,107.52,204,106.77Z"/><path class="cls-10" d="M224.25,119.72l-2.12-1h0c-4.33-2-9-4.13-13.42-6-1.8,2.14-3.5,5.46-3.1,7.62,3.47.56,7.9,1.23,10.93-.65a38.58,38.58,0,0,1,5.69,1.44C223.25,121.14,224.19,120.86,224.25,119.72Z"/><path class="cls-14" d="M207.07,111l-.55.82,1.87.78a1.91,1.91,0,0,1,.33.06,10.76,10.76,0,0,1,1-1.08C208.85,111.37,208,111.17,207.07,111Z"/><path class="cls-14" d="M206.55,110.55a8.75,8.75,0,0,1,1.06-.34l-.39-.27A9,9,0,0,0,206.55,110.55Z"/><path class="cls-19" d="M208.14,109.19l-.29.22a1.9,1.9,0,0,1,.34.11l.16-.2Z"/><path class="cls-14" d="M208.19,109.52c-.39.47-.75,1-1.12,1.5.89.15,1.78.35,2.68.58a5.42,5.42,0,0,1,1.11-.78l-.1-.06C210,110.49,209.05,109.84,208.19,109.52Z"/><path class="cls-19" d="M208.14,109.19l.21.13h0a3.44,3.44,0,0,1,.35-.41l-.05,0A4.87,4.87,0,0,0,208.14,109.19Z"/><path class="cls-14" d="M208.39,112.62a1.78,1.78,0,0,1,.29.12s0,0,0-.06A1.91,1.91,0,0,0,208.39,112.62Z"/><path class="cls-22" d="M208.78,108.83a.34.34,0,0,0-.12.06l.05,0A.27.27,0,0,1,208.78,108.83Z"/><path class="cls-12" d="M208.78,108.83a.27.27,0,0,0-.07.08l.46.2c.59-.47,1.15-1,1.69-1.46l-.61-.18A10,10,0,0,0,208.78,108.83Z"/><path class="cls-10" d="M209.75,111.6a10.76,10.76,0,0,0-1,1.08c1.93.37,3.86.72,5.78,1.1-.32-.32-.66-.64-1-1C212.25,112.37,211,112,209.75,111.6Z"/><path class="cls-12" d="M211,110.77h-.23l.1.06A.55.55,0,0,1,211,110.77Z"/><path class="cls-10" d="M210.86,110.82a5.42,5.42,0,0,0-1.11.78c1.24.35,2.5.77,3.74,1.23A25.74,25.74,0,0,0,210.86,110.82Z"/><path class="cls-13" d="M212,106.58l.21.22c2.94.5,5.89,1.07,8.84,1.68-2.12-1.45-4.14-3.1-6.11-4.56C213.94,104.74,213,105.65,212,106.58Z"/><path class="cls-10" d="M217.31,114.36c-1.25-.51-2.53-1-3.82-1.53.35.31.69.63,1,1Z"/><path class="cls-13" d="M214.35,103.5l-.87-.1,1,.16Z"/><path class="cls-22" d="M214.44,103.56l.5.36c.09-.07.18-.15.27-.21C215,103.66,214.71,103.6,214.44,103.56Z"/><path d="M220.93,209a32.48,32.48,0,0,0,0,3.27c1.48.72,5.93,2.14,7.9,2.05A1.85,1.85,0,0,1,230,213a82.32,82.32,0,0,1-8.67-1.86,11.36,11.36,0,0,1-.1-1.87v0a1,1,0,0,0,0-.17Z"/><path class="cls-11" d="M220.44,202.81c.12,1.31.25,2.55.39,3.71l.15-.07a.4.4,0,0,1,0,.11,24.22,24.22,0,0,0,5.54-2.09c1.09-.54,2.19-1.13,3.27-1.7-.1-1.87,0-3.64-.17-5.52,0-.33,0-.66,0-1l-.42.17C226.3,197.69,221.6,199.58,220.44,202.81Z"/><path class="cls-28" d="M220.83,206.52a.2.2,0,0,0,0,.07.32.32,0,0,0,.14,0,.4.4,0,0,0,0-.11Z"/><path class="cls-29" d="M220.84,206.59c0,.43.09.84.14,1.22,0-.43,0-.84,0-1.25A.32.32,0,0,1,220.84,206.59Z"/><path class="cls-30" d="M221,206.56c0,.41,0,.82,0,1.25s.09.69.14,1c0,0,.07,0,.11,0l2.69.67c1.36.32,2.72.61,4.06.8.63.08,1.24.14,1.86.23a24,24,0,0,0-3.32-6.08A24.22,24.22,0,0,1,221,206.56Z"/><path d="M221.18,209.26a11.36,11.36,0,0,0,.1,1.87A82.32,82.32,0,0,0,230,213a3.31,3.31,0,0,1,3-.06,2.09,2.09,0,0,1,.63.53,68.28,68.28,0,0,0,22.71-.91c.62-1,1.07-1.63,1.32-2.13a1.37,1.37,0,0,0,0-.19,63.15,63.15,0,0,1-12.82,1.32,126,126,0,0,1-14.93-1c-.62-.09-1.23-.15-1.86-.23-1.34-.19-2.7-.48-4.06-.8-.89-.18-1.81-.29-2.72-.45a1,1,0,0,1,0,.17Z"/><path class="cls-31" d="M221.23,208.85a.89.89,0,0,1,0,.22c.91.16,1.83.27,2.72.45Z"/><path class="cls-30" d="M229.79,202.77c-1.08.57-2.18,1.16-3.27,1.7a24,24,0,0,1,3.32,6.08,126,126,0,0,0,14.93,1c.32-2.41,2.48-4.9,4.75-6.15a45.45,45.45,0,0,1-11.13-5.68l-.4,0c-.17,0-.32,0-.49.06A26,26,0,0,0,229.79,202.77Z"/><path class="cls-11" d="M229.62,197.25c.12,1.88.07,3.65.17,5.52a26,26,0,0,1,7.71-3c-.11-2.16-.19-4.37-.23-6.58-2.7.42-5.15,2-7.68,3C229.6,196.59,229.6,196.92,229.62,197.25Z"/><path class="cls-31" d="M233,212.93a3.31,3.31,0,0,0-3,.06c1.19.17,2.41.34,3.63.47A2.09,2.09,0,0,0,233,212.93Z"/><path d="M233.58,213.46a5.51,5.51,0,0,1,.66,1.41c3.39.35,7.25-.17,10.86,0a50.47,50.47,0,0,0,12.64-1.2,14.19,14.19,0,0,0-.13-3.3c-.25.5-.7,1.15-1.32,2.13A68.28,68.28,0,0,1,233.58,213.46Z"/><path class="cls-12" d="M237.27,193.23c0,2.21.12,4.42.23,6.58.17,0,.32-.05.49-.06l.4,0a9,9,0,0,1,1.64,0c-.62-1-.94-3.37-1-6.63A7.26,7.26,0,0,0,237.27,193.23Z"/><path class="cls-10" d="M239,108.75c2.31-1,6.23-.74,9.25,0v0c-3.46-.82-7.31-1.55-11.25-2.2a15.38,15.38,0,0,0-4.47,4.44c3.57.75,7.13,1.46,10.7,2.06,2.54,0,1.74-1.74-.49-2.89A15.33,15.33,0,0,0,239,108.75Z"/><path class="cls-12" d="M237.27,193.23a7.26,7.26,0,0,1,1.75-.12c-.05-2.28,0-5,.15-8l-.26,0h-.09c0-.52.05-1,0-1.5-.09-7.76.33-15.45.43-23.2-.19,1.59-.4,3.16-.63,4.74A193.27,193.27,0,0,0,237.27,193.23Z"/><path d="M240.42,189.82c-.06.39-.12.77-.19,1.15,1.26,1,3.43,1.29,5,1.74a18.52,18.52,0,0,0,4.64,1,1.73,1.73,0,0,1,.45-1A61.79,61.79,0,0,1,240.42,189.82Z"/><path class="cls-31" d="M240.25,189.77a.55.55,0,0,0,.17,0c.16-1,.27-2.09.34-3.16h0C240.58,187.7,240.37,188.74,240.25,189.77Z"/><path class="cls-31" d="M241.52,217.91a1.21,1.21,0,0,0,0,.18c0-.07.09-.13.12-.19Z"/><path class="cls-11" d="M239.28,160.46c0-.18.05-.36.07-.54l0-.72h0C239.29,159.62,239.29,160.05,239.28,160.46Z"/><path class="cls-19" d="M248,178.06c-2.8.15-5.56.11-7.87.11.09,1.62.19,3,.28,4.15a1.59,1.59,0,0,0,.47,1,2.46,2.46,0,0,0,.71.52,10,10,0,0,0,4.59.61,30.15,30.15,0,0,0,8.89-1.89,48.33,48.33,0,0,1-1-5.24A35.2,35.2,0,0,1,248,178.06Z"/><path d="M240.76,186.66c-.07,1.07-.18,2.12-.34,3.16a61.79,61.79,0,0,0,9.9,2.93c.87-.94,2.67-.19,3.58.67a125.32,125.32,0,0,0,23.41,1.51h.33a18.58,18.58,0,0,0-.25-2.11,42.07,42.07,0,0,1-10.16-.25c-2.07-.24-4.15-.51-6.14-.72a55.47,55.47,0,0,1-10.88-2.62c-.79-.23-1.58-.41-2.38-.59a35.94,35.94,0,0,1-6.74-1.79C241,186.77,240.86,186.73,240.76,186.66Z"/><path class="cls-29" d="M240.77,186.42a1.6,1.6,0,0,1,0,.23h0A1.77,1.77,0,0,0,240.77,186.42Z"/><path class="cls-30" d="M240.77,186.42a1.77,1.77,0,0,1,0,.24c.1.07.22.11.33.18a35.94,35.94,0,0,0,6.74,1.79,12.08,12.08,0,0,0-1.1-3.1c-1.24,0-2.5,0-3.72-.05-.53,0-1.34-.14-2.1-.23C240.87,185.65,240.83,186,240.77,186.42Z"/><path class="cls-13" d="M240.83,185.24h.08a12.84,12.84,0,0,0,0-1.39l.6,0a2.46,2.46,0,0,1-.71-.52C240.84,184,240.84,184.61,240.83,185.24Z"/><path class="cls-19" d="M240.94,183.86a12.84,12.84,0,0,1,0,1.39c.76.09,1.57.2,2.1.23,1.22.07,2.48.08,3.72.05-.19-.37-.4-.74-.6-1.1a10,10,0,0,1-4.59-.61Z"/><path class="cls-30" d="M249.52,205.4c-2.27,1.25-4.43,3.74-4.75,6.15a63.15,63.15,0,0,0,12.82-1.32l.13,0c.4-.87.13-1.27-.82-2.32-1.52-1.27-4-.87-5.73-1.95C250.67,205.79,250.1,205.61,249.52,205.4Z"/><path class="cls-13" d="M253.26,110c-1.53-.46-3.22-.9-5-1.32v0c-3-.7-6.94-.92-9.25,0a15.33,15.33,0,0,1,3.75,1.33c2.23,1.15,3,2.84.49,2.89,1.06.18,2.12.35,3.18.5,7.74,1,10.42,1.91,10.51,10a123.73,123.73,0,0,1-1.14,19c-1.68,10.88-3.3,23.29-1.72,34.77a16.69,16.69,0,0,0,3.31-1.09,38.58,38.58,0,0,1,.38-6.48q.47-2.73.7-5.47c.43-4.33.59-8.68,1.14-13,1.76-12.08,5.11-33.47,2.08-37.24C260.25,112.51,257.22,111.18,253.26,110Z"/><path class="cls-19" d="M246.13,184.43c.2.36.41.73.6,1.1.47,0,1,0,1.42-.05a23.46,23.46,0,0,0,5.9-1l1.34-.44c-.14-.49-.26-1-.37-1.46A30.15,30.15,0,0,1,246.13,184.43Z"/><path class="cls-30" d="M248.15,185.48c-.47,0-1,.05-1.42.05a12.08,12.08,0,0,1,1.1,3.1c.8.18,1.59.36,2.38.59a55.47,55.47,0,0,0,10.88,2.62c2,.21,4.07.48,6.14.72a14.65,14.65,0,0,1,3.52-4.68c-1.66-.47-3.16-.87-4.07-1.12A51.44,51.44,0,0,1,258.9,183a27.28,27.28,0,0,0-3.51,1l-1.34.44A23.46,23.46,0,0,1,248.15,185.48Z"/><path d="M253.9,193.42c.46.44.69.9.47,1.2a.82.82,0,0,0,.33.15c7.23,1.32,16.33,1.89,22.66,1.13,0-.32,0-.64-.05-1A125.32,125.32,0,0,1,253.9,193.42Z"/><path class="cls-13" d="M254.06,177.3a48.33,48.33,0,0,0,1,5.24,12.89,12.89,0,0,0,1.57-.74c1.33-.76,2-1.57,1.31-2.3a14.92,14.92,0,0,1-.53-3.29A16.69,16.69,0,0,1,254.06,177.3Z"/><path class="cls-13" d="M255,182.54c.11.49.23,1,.37,1.46a27.28,27.28,0,0,1,3.51-1c-.79-.43-1.55-.85-2.31-1.23A12.89,12.89,0,0,1,255,182.54Z"/><path class="cls-13" d="M257.75,169.73a38.58,38.58,0,0,0-.38,6.48,14.92,14.92,0,0,0,.53,3.29c.65.73,0,1.54-1.31,2.3.76.38,1.52.8,2.31,1.23H259c-1.54-6.33-.95-12.52-.5-18.77Q258.21,167,257.75,169.73Z"/><path class="cls-30" d="M270.75,187.88a14.65,14.65,0,0,0-3.52,4.68,42.07,42.07,0,0,0,10.16.25c-.38-2.19-1.08-3.38-1.83-3.59Z"/></g><path class="cls-32" d="M188,140.81c.39.36,1.26,1.36,2.27,2.4l.24.26c-3-1.83-6-3.63-9.11-5.33.4.08.83.19,1.29.32A18.5,18.5,0,0,1,188,140.81Z"/><path class="cls-7" d="M194.32,160.51c-.32.15-.64.27-.93.41-.63.28-1.3.61-2,1-.54.28-1.08.58-1.65.9-.25.14-.5.29-.74.45a37.51,37.51,0,0,0-3.29,2.24c-2.4.66-5.72-.34-8-.66-3.42-.5-6.85-1-10.27-1.68-1.31-.26-2.63-.54-4-.87a74.8,74.8,0,0,1-17-6.11c-1.23-.63-2.44-1.28-3.64-2a30.12,30.12,0,0,1-7.5-6.82,7.71,7.71,0,0,1-1.58-3.07v0a17,17,0,0,1,.19-5.68,8.78,8.78,0,0,1,2-4.1c.87.6,1.78,1.21,2.71,1.79,5,3.26,13,7.73,19.4,9.66a2.77,2.77,0,0,0,2.45.63l0,.05a14.17,14.17,0,0,0,5.6,3.66,15.15,15.15,0,0,0,3.09,1.55,6.43,6.43,0,0,1,2.77,1.85c1.8,2.09,2.17,5.17,5.46,4.42-2.22-2.7-4.09-6.27-6.86-8.44l0,0c2,1.34,4.12,2.08,6.06,3.72.77.73,4.17,4.72,4.64,2-1.82-.61-2.87-2.28-4.12-3.75,2,.71,4.61,4.22,6.61,2.82l0-.15c-.9-.87-1.8-1.68-2.71-2.42a13.07,13.07,0,0,0-4.46-4.39,59.76,59.76,0,0,0-13.59-6.06s0,0,0,0h0c-5.15-2.36-10.38-7.7-14.85-11.4-.19-.16-.39-.33-.58-.51.78-.22,1.56-.48,2.35-.79s1.69-.64,2.59-1c1.08-.36,2.19-.72,3.24-1a4.54,4.54,0,0,0,.14.66,2.49,2.49,0,0,0,.08.32l.32-.08a70.27,70.27,0,0,1,14.72,5.29c.57.73,1.14,1.44,1.7,2.1h0a0,0,0,0,1,0,0,6.74,6.74,0,0,1,1.19,1.37l0,0,0,0c.45.65.85,1.33,1.33,1.93l0,0c1.22,1.53,3.06,2.37,4.87,3.51s4.61,2.16,5.82,4a1.55,1.55,0,0,0,.61-1.46h0c-.34-2.36-5.56-5.38-7.35-6.41a3.53,3.53,0,0,1,2,0c3.07,1.7,6.15,3.5,9.11,5.33l0,0c1.53,1.54,3.29,3.08,4.2,2.65a125,125,0,0,1,17.14,12.93C208.09,155.8,199.48,158.31,194.32,160.51Z"/><path class="cls-33" d="M174.07,136.47h0l0,0,0,0a6.74,6.74,0,0,0-1.19-1.37,0,0,0,0,0,0,0h0c-.56-.66-1.13-1.37-1.7-2.1-5.49-6.93-11.31-16.17-12.48-20.79l-.12-.53c.25-.55.51-1.09.76-1.63.1-.2.21-.4.3-.61l0,0c.29-.62.61-1.27,1-1.92,1.19-2.28,2.73-4.84,4.15-7.43.11-.22.22-.41.32-.62.78-1.48,1.53-3,2.12-4.42-.22,5.65-1.05,8.88.57,14.47,2.63,2.16,3.27,8.3,5,11.39,2,3.8,3.44,8.44,6,11.42,0,0,0,0,0,0a17.28,17.28,0,0,0-3.55,2.55A6,6,0,0,0,174.07,136.47Z"/><path class="cls-9" d="M131,130.52a60.15,60.15,0,0,0,5,4,8.78,8.78,0,0,0-2,4.1,17,17,0,0,0-.19,5.68v0a7.71,7.71,0,0,0,1.58,3.07,30.12,30.12,0,0,0,7.5,6.82c1.2.7,2.41,1.35,3.64,2a74.8,74.8,0,0,0,17,6.11c1.32.33,2.64.61,4,.87,3.42.68,6.85,1.18,10.27,1.68,2.24.32,5.56,1.32,8,.66a23.43,23.43,0,0,0-4.66,4.67c-2-.33-4.32-.67-6.78-1-2.68-.39-5.54-.81-8.4-1.25-1.71-.25-3.41-.52-5.07-.8-4.25-.72-8.29-1.51-11.5-2.41-2-.55-4-1.17-5.9-1.88A55.41,55.41,0,0,1,133,157.94c-6.17-3.79-10.72-8.9-11.76-15.79a22.09,22.09,0,0,1-.21-2.85c0-2,3.36-7,5.9-10.77l.69-1c.39.31.77.6,1.12.9C129.47,129.15,130.23,129.85,131,130.52Z"/><path class="cls-26" d="M124.8,124.79c-.38-.93-.73-1.91-1-2.93h0A74.44,74.44,0,0,1,121,107.31c-1.33-13.24-.17-27.12,2.29-30.68l.23.28c3.57-.59,6.15,2,7.46,5l0,.08a26.27,26.27,0,0,1,.94,3.77c1.15,6.66.87,15.8,1,22.51a37.62,37.62,0,0,0,.24,5.5c.06.41.13.8.21,1.22l-.12,0c.15.78.31,1.56.5,2.35,2.78,1.15,5.25,3.35,7.6,5.74,1.13,1.15,2.25,2.36,3.36,3.52s2,2,3,2.86c.19.18.39.35.58.51,4.47,3.7,9.7,9,14.85,11.4h0s0,0,0,0c-2,1-2.44,3.13-2.55,5.24l0-.05c-.78-.16-1.6-.37-2.45-.63-6.36-1.93-14.37-6.4-19.4-9.66-.93-.58-1.84-1.19-2.71-1.79a60.15,60.15,0,0,1-5-4c-.77-.67-1.53-1.37-2.31-2.11-.35-.3-.73-.59-1.12-.9l-1-.81A12.51,12.51,0,0,1,124.8,124.79Z"/><path class="cls-21" d="M137.9,55.44a3.2,3.2,0,0,1-.08-.54,2.65,2.65,0,0,0,.22.54Z"/><path class="cls-18" d="M142.65,63.81l0,0a13.76,13.76,0,0,0,1.2,9.51c-2.86.11-6.95-.75-8.32-3,.11-.74.2-1.48.28-2.23s.14-1.47.2-2.22a9.34,9.34,0,0,0,5.46-2.74Z"/><path class="cls-21" d="M151,65.29l-.22.07a9.64,9.64,0,0,1-6.13-.52c0-.24-.09-.47-.13-.71,0,0,0-.08,0-.1a21.15,21.15,0,0,1-.41-3.84c-.16-2.31-1.08-2.92-1.69-4.93a5.31,5.31,0,0,1-.28-2.15,9,9,0,0,1,.29-1.9v0c0-1-.11-2-.11-2.85l1,0A29,29,0,0,0,157.76,45a21.94,21.94,0,0,0,.51,2.63,3.77,3.77,0,0,0,.1.43,13,13,0,0,1-.05,4.45,32.5,32.5,0,0,1-1.5,5.25,28.83,28.83,0,0,1-1.67,4.09,7.26,7.26,0,0,1-1.06,1.54,5.68,5.68,0,0,1-1.44,1.21A5.9,5.9,0,0,1,151,65.29Z"/><path class="cls-34" d="M142.65,63.81l-1.15-.66a3.53,3.53,0,0,0,.89-3.5,3.22,3.22,0,0,0,0-1.54c.1,1.11-.39,1.79-1.09,2A2.13,2.13,0,0,1,139,58.89a8.4,8.4,0,0,1-1-2.84c0-.21-.07-.41-.1-.61H138a2.65,2.65,0,0,1-.22-.54,37.63,37.63,0,0,1,.13-6.66c.41,0,.87,0,1.36,0s.74,0,1.13-.05c.63.08,1.27.14,1.9.18,0,.83.11,1.88.11,2.85v0a9,9,0,0,0-.29,1.9,5.31,5.31,0,0,0,.28,2.15c.61,2,1.53,2.62,1.69,4.93a21.15,21.15,0,0,0,.41,3.84s0,.07,0,.1c0,.24.09.47.13.71a11,11,0,0,1-2-1Z"/><path class="cls-26" d="M143.88,73.34a8.37,8.37,0,0,0,1.62-.16,10.92,10.92,0,0,0,2.69-1.08l.08,0c1.35-.75,2.56-1.83,2.76-3.14h-.11c0-.86,0-1.72.05-2.58,0-.34,0-.67.06-1a5.9,5.9,0,0,0,1.62-.65c3.44,4.2,4.81,6.83,2.57,12.35a12,12,0,0,0-2.38-1.92c-.58-.38-1.18-.74-1.78-1.1-.93-.56-1.85-1.1-2.66-1.7a26,26,0,0,1-1.13,3.9c0,.12-.08.23-.13.35A61.5,61.5,0,0,1,144,83.3c-2.9-2.77-10.36-6.69-10.92-11.83a5.27,5.27,0,0,1,.11-1.84c1.12-.69,2.05-1.21,2.68-1.52-.08.75-.17,1.49-.28,2.23C136.93,72.59,141,73.45,143.88,73.34Z"/><path class="cls-35" d="M150.92,68.9H151c-.2,1.31-1.41,2.39-2.76,3.14l-.08,0a10.92,10.92,0,0,1-2.69,1.08,8.37,8.37,0,0,1-1.62.16,13.76,13.76,0,0,1-1.2-9.51,11,11,0,0,0,2,1,9.64,9.64,0,0,0,6.13.52l.22-.07c0,.36-.05.69-.06,1C150.92,67.18,150.92,68,150.92,68.9Z"/><path class="cls-36" d="M151.57,109.26a1,1,0,0,1,0,.21A.8.8,0,0,1,151.57,109.26Z"/><path class="cls-9" d="M148.4,72.27c.81.6,1.73,1.14,2.66,1.7.6.36,1.2.72,1.78,1.1A14.55,14.55,0,0,1,154,79.46v0a1.73,1.73,0,0,0-.86.36,3.54,3.54,0,0,0-.68.66c-1.28-1.73-3.74-2.55-5.32-4,.05-.12.09-.23.13-.35A26,26,0,0,0,148.4,72.27Z"/><path class="cls-7" d="M153.14,79.84a1.73,1.73,0,0,1,.86-.36l.23,0v.22c2.86,4.15,5.54,8.56,5.89,13.52.28,3.74-.74,8.94-1.69,14.41a14.31,14.31,0,0,1-2.44,6.31q-.47.7-1.08,1.59a10,10,0,0,1-1.17-1.59c-.26-.44-.53-.91-.78-1.39a20.58,20.58,0,0,1-1.39-3.27c1.62-4.62,3.32-9.11,3.34-14a50.59,50.59,0,0,0-2.57-14.68h0l.08-.1A3.54,3.54,0,0,1,153.14,79.84Z"/><path class="cls-9" d="M152.91,125.06c.87-.19,1.68-.39,2.43-.58l.43-.11a10.73,10.73,0,0,0,.09,2.36c-1.05.25-2.16.61-3.24,1-.9.31-1.78.64-2.59,1s-1.57.57-2.35.79c-1-.87-2-1.84-3-2.86,2.3-.33,4.51-.74,6.54-1.17Z"/><path class="cls-14" d="M164.75,100.05c-1.42,2.59-3,5.15-4.15,7.43-.36.65-.68,1.3-1,1.92l0,0c-.09.21-.2.41-.3.61-.25.54-.51,1.08-.76,1.63-.33.76-.66,1.53-1,2.32a26.52,26.52,0,0,0-2.21,10.56c-.75.19-1.56.39-2.43.58l-1.64.35c-2,.43-4.24.84-6.54,1.17-1.11-1.16-2.23-2.37-3.36-3.52-2.35-2.39-4.82-4.59-7.6-5.74-.19-.79-.35-1.57-.5-2.35l.12,0c-.08-.42-.15-.81-.21-1.22a37.62,37.62,0,0,1-.24-5.5c-.14-6.71.14-15.85-1-22.51a11.22,11.22,0,0,0-.94-3.77l0-.08c-1.31-3-3.89-5.54-7.46-5l-.23-.28A99.07,99.07,0,0,1,132.61,70l.55-.34a5.27,5.27,0,0,0-.11,1.84c.56,5.14,8,9.06,10.92,11.83a61.5,61.5,0,0,0,3.17-6.78c1.58,1.43,4,2.25,5.32,4l-.08.1h0a50.59,50.59,0,0,1,2.57,14.68c0,4.86-1.72,9.35-3.34,14a.8.8,0,0,0,0,.21,1,1,0,0,0,0-.21,20.58,20.58,0,0,0,1.39,3.27c.25.48.52,1,.78,1.39a10,10,0,0,0,1.17,1.59q.61-.89,1.08-1.59a14.31,14.31,0,0,0,2.44-6.31c.95-5.47,2-10.67,1.69-14.41-.35-5-3-9.37-5.89-13.52v-.22l-.23,0v0a14.55,14.55,0,0,0-1.16-4.39A12,12,0,0,1,155.22,77c2.24-5.52.87-8.15-2.57-12.35a5.68,5.68,0,0,0,1.44-1.21C155,63.2,156,63,157,62.8a19,19,0,0,1,3.94,4.32l.06.08a14.37,14.37,0,0,1,2,6.32l-.15.09a21.59,21.59,0,0,1,1.53,4.22c0,.11.09.21.14.32l.42.84c1,1.91,2.07,3.62,2.83,5.51a11.57,11.57,0,0,1,.91,3.81,12.44,12.44,0,0,1-.46,3.84,25.51,25.51,0,0,1-1,2.86c-.59,1.45-1.34,2.94-2.12,4.42C165,99.64,164.86,99.83,164.75,100.05Z"/><path class="cls-33" d="M164.47,78.15c-.05-.11-.1-.21-.14-.32a21.59,21.59,0,0,0-1.53-4.22l.15-.09a14.37,14.37,0,0,0-2-6.32l-.06-.08A19,19,0,0,0,157,62.8l.25-.06h0c1.35-.21,1.86.29,2.91,0,7.35.38,7.33,11.77,7.6,21.76-.76-1.89-1.87-3.6-2.83-5.51Z"/><path class="cls-37" d="M158.32,52.55a13,13,0,0,0,.05-4.45,3.77,3.77,0,0,1-.1-.43,21.94,21.94,0,0,1-.51-2.63c.48-.28,1-.56,1.41-.87.22-.15.44-.29.67-.46,0,1.47-.19,3-.31,4.62,0,.21,0,.41,0,.62,0,0,0,0,0,0a16.53,16.53,0,0,0,.29,5.11c.31,1.15,1.62,3.69,2.85,2a1.76,1.76,0,0,0-.51-2.36c2.25.74,1.07,4-.11,5.29-1.81,1.88-4.37,2.47-6.85,2.85a28.83,28.83,0,0,0,1.67-4.09A32.5,32.5,0,0,0,158.32,52.55Z"/><path class="cls-21" d="M158.1,145.93c.85.26,1.67.47,2.45.63A2.77,2.77,0,0,1,158.1,145.93Z"/><path class="cls-38" d="M157.76,45a29,29,0,0,1-14.41,3.32l-1,0c-.63,0-1.27-.1-1.9-.18-.39,0-.77,0-1.13.05s-.95,0-1.36,0a37.63,37.63,0,0,0-.13,6.66,3.2,3.2,0,0,0,.08.54c0,.2.06.4.1.61a8.4,8.4,0,0,0,1,2.84,2.13,2.13,0,0,0,2.23,1.19c.7-.18,1.19-.86,1.09-2a3.22,3.22,0,0,1,0,1.54,3.53,3.53,0,0,1-.89,3.5A9.34,9.34,0,0,1,136,65.89c-.23,0-.44,0-.65,0-5.66.12-9.71-2.89-11-8.44-.31-1.46-.67-3.31-.89-5.13,0-.39-.1-.78-.12-1.18,0-.12,0-.25,0-.37,0-.37,0-.74,0-1.15,0-.13,0-.27,0-.41,0-.45,0-.9.08-1.37.34-4.48,1.68-9.56,4.4-13.11s6.85-5.62,11.16-6.71a32.08,32.08,0,0,1,5.32-1,4,4,0,0,1,.69,0,16.34,16.34,0,0,1,10.46,3.69A21.46,21.46,0,0,1,158,33.29a6.85,6.85,0,0,1,.86,1.33s0,0,0,0a10.3,10.3,0,0,1,1.69,3.06,13.9,13.9,0,0,1,.79,4.78c-.49.43-1,.85-1.55,1.23-.23.17-.45.31-.67.46C158.71,44.48,158.24,44.76,157.76,45Z"/><path class="cls-21" d="M181.2,151.82c.91.74,1.81,1.55,2.71,2.42l0,.15c-2,1.4-4.58-2.11-6.61-2.82,1.25,1.47,2.3,3.14,4.12,3.75-.47,2.73-3.87-1.26-4.64-2-1.94-1.64-4.09-2.38-6.06-3.72l0,0c2.77,2.17,4.64,5.74,6.86,8.44-3.29.75-3.66-2.33-5.46-4.42a6.43,6.43,0,0,0-2.77-1.85,15.15,15.15,0,0,1-3.09-1.55,14.17,14.17,0,0,1-5.6-3.66c.11-2.11.56-4.26,2.55-5.24a59.76,59.76,0,0,1,13.59,6.06A13.07,13.07,0,0,1,181.2,151.82Z"/><path class="cls-9" d="M182,234.85q.28.69.57,1.44c1.45,3.84,3.07,8.8,6.14,11h0a10.61,10.61,0,0,1,5-1.43c.19.34.38.65.59,1,.92,2.47,4.93,4.23,7.09,5.47,0,1.7-1.26,3.1-4,3.51l-.68.07-.35,0h-.09a8.07,8.07,0,0,1-1.1,0h-.35a20.35,20.35,0,0,1-10.61-4.3c-.65-.53-4.66-15.34-5.32-15.34h-.31c-.3,3.7-1.23,7.4-.92,11.1a3.29,3.29,0,0,1-3.66-.77c.3-6.48-1.27-12.79,1.2-18.34a25.42,25.42,0,0,0,2.14-9.69c0,2.52.11,5,.21,7.39C178.73,229.12,180.75,231.92,182,234.85Z"/><path class="cls-9" d="M189,220.58a25.45,25.45,0,0,0,2.14-9.75c.05,2.56.12,5.08.22,7.5,1.13,3.11,3.14,5.89,4.41,8.81.19.46.38.93.58,1.44,1.45,3.84,3.07,8.78,6.13,11h0a10.83,10.83,0,0,1,5-1.43c.18.32.38.64.58,1,.93,2.44,4.93,4.23,7.09,5.45,0,1.71-1.26,3.11-4,3.51l-.41,0a13.87,13.87,0,0,1-2.44,0l-.46,0a20.76,20.76,0,0,1-9.85-4.23c-.66-.54-4.67-15.34-5.33-15.34h-.3c-.32,3.7-1.24,7.4-.92,11.09l-1.23-1.23a49.7,49.7,0,0,1-2.09-7.22C187.78,227.55,187.31,224.35,189,220.58Z"/><path class="cls-21" d="M185.72,165.48a37.51,37.51,0,0,1,3.29-2.24c.24-.16.49-.31.74-.45.57-.32,1.11-.62,1.65-.9.69-.36,1.36-.69,2-1,.29-.14.61-.26.93-.41.71.47,1.39,1,2,1.42s1,.78,1.45,1.19c1.59,1.39-2.47,19.12-6.77,37.06-.42,1.75-.84,3.5-1.26,5.23s-.78,3.28-1.17,4.87c0,0,0,0,0,0a34.43,34.43,0,0,0-1,4.21,45,45,0,0,0,.58,16.72,49.7,49.7,0,0,0,2.09,7.22,43.44,43.44,0,0,0,3.54,7.45,10.61,10.61,0,0,0-5,1.43h0c-3.07-2.24-4.69-7.2-6.14-11q-.28-.75-.57-1.44c-1.28-2.93-3.3-5.73-4.42-8.85-.1-2.39-.17-4.87-.21-7.39a53.6,53.6,0,0,0-.07-5.37c-.08-7.74-.06-15.59-.35-22.23s1.5-15.93,5.08-20.68c-.32-.07-.65-.13-1-.18A23.43,23.43,0,0,1,185.72,165.48Z"/><path class="cls-21" d="M190.49,143.49l0,0-.24-.26c-1-1-1.88-2-2.27-2.4a18.5,18.5,0,0,0-5.31-2.35c-.46-.13-.89-.24-1.29-.32a3.53,3.53,0,0,0-2,0c1.79,1,7,4.05,7.35,6.41h0a1.55,1.55,0,0,1-.61,1.46c-1.21-1.89-3.91-2.86-5.82-4s-3.65-2-4.87-3.51l0,0c-.48-.6-.88-1.28-1.33-1.93h0a6,6,0,0,1,1.07-1.6,17.28,17.28,0,0,1,3.55-2.55l.1.05a44.75,44.75,0,0,1,5.16,2.78,30.53,30.53,0,0,1,11.14,10.57.82.82,0,0,1-.4.42C193.78,146.57,192,145,190.49,143.49Z"/><path class="cls-18" d="M202.47,239.62c-3.06-2.26-4.68-7.2-6.13-11-.2-.51-.39-1-.58-1.44-1.27-2.92-3.28-5.7-4.41-8.81-.1-2.42-.17-4.94-.22-7.5a52.65,52.65,0,0,0-.07-5.32c0-1.78,0-3.56-.05-5.33,4.3-17.94,8.36-35.67,6.77-37.06-.45-.41-.93-.8-1.45-1.19s-1.3-1-2-1.42c5.16-2.2,13.77-4.71,17.51-1.44,2,1.91-5.66,29.53-10.85,50.05a49.51,49.51,0,0,0,6.53,29.07,10.83,10.83,0,0,0-5,1.43Z"/><path class="cls-13" d="M141.56,248.77c0,.65,0,1.3-.07,1.94h.07a10.7,10.7,0,0,0,.1-1.39l.59,0A2.18,2.18,0,0,1,141.56,248.77Z"/><path class="cls-13" d="M99.67,148.41a10.45,10.45,0,0,0-.68,1.67c1.51-2.53,5.29-6.07,5.54-9.11a2.22,2.22,0,0,1,.34.22,1.89,1.89,0,0,1-.2-.55c0-.18-.08-.41-.14-.67a3.47,3.47,0,0,0-.84-1.72,23.27,23.27,0,0,0-3.72-2.38,54.52,54.52,0,0,0-6.74-3.4c-1.75-.79-5.46-2.46-5.7-4.68-.16-1.74,2.38-4.28-.8-4.35a3.86,3.86,0,0,0-2.62.87c-.55.24-.23.71-1,.39-.32-.08-.48-.79-.64-1.1-.86-1.67-1.66-3.42-2.53-5.08a68.86,68.86,0,0,1-3.17-7c-.24-.69-1-3.44-1.42-3.63-2.63,1.73-5.64,3.89-8.25,6l.25.3c3.26-.52,5.77,1.34,7.35,3.87a12,12,0,0,1,1.83,7.25A158.71,158.71,0,0,1,72,148.64l0,.07a46.1,46.1,0,0,0-2.5,8.8c4.72-2.23,18-5.7,25.75-7.92l.25-.07c1.66-.47,3-.88,4-1.21Z"/><path class="cls-17" d="M104.55,139.9c0-.06-.07-.26-.14-.49a8.34,8.34,0,0,1-.33-1,32,32,0,0,0-2.91-6.63,54.64,54.64,0,0,0-10.71-12.7c-1.23-1.07-2.53-2.13-3.78-3.2-.84-.73-1.66-1.48-2.41-2.26a8.94,8.94,0,0,1-6.81-6.31,3.52,3.52,0,0,1-.12-.52.66.66,0,0,1,0-.15l-2,1.27c.4.19,1.18,2.94,1.42,3.63a68.86,68.86,0,0,0,3.17,7c.87,1.66,1.67,3.41,2.53,5.08.16.31.32,1,.64,1.1.79.32.47-.15,1-.39a3.86,3.86,0,0,1,2.62-.87c3.18.07.64,2.61.8,4.35.24,2.22,4,3.89,5.7,4.68a54.52,54.52,0,0,1,6.74,3.4,23.27,23.27,0,0,1,3.72,2.38,3.47,3.47,0,0,1,.84,1.72.08.08,0,0,1,0-.05Z"/><path class="cls-22" d="M110.52,110.53c-.16-4.21-3-9.18-6.3-11.8-1.14.22-2.31.48-3.4.76a4.11,4.11,0,0,1-.29.3,25.49,25.49,0,0,1,8.31,8.5c.48.8.8,1.52.32,2.31s-1.59.71-1.42,1.82c.23,1.67,2.69,2.62,3.09,4.36,1,4-1.59,8.16-2.54,11.88s-2.44,7.51-3.74,11.24v0a.08.08,0,0,0,0,.05c.06.26.09.49.14.67a1.89,1.89,0,0,0,.2.55c2.36,1.68,1.43,5.72.95,7.91a17.21,17.21,0,0,0,4.81,2.61c.2-.85.38-1.71.53-2.56a0,0,0,0,0,0,0,101.9,101.9,0,0,0,1.71-16c.06-2.64.18-5.3.18-7.95,0-5-.45-9.93-2.72-14.57Z"/><path class="cls-17" d="M104.55,139.9c1.3-3.73,2.66-7.41,3.74-11.24s3.49-7.92,2.54-11.88c-.4-1.74-2.86-2.69-3.09-4.36-.17-1.11,1-.94,1.42-1.82s.16-1.51-.32-2.31a25.49,25.49,0,0,0-8.31-8.5,6.5,6.5,0,0,1-3.06,1.73s0,.09,0,.15a8.91,8.91,0,0,1,4.76,4.39c2.37,4.16,3.28,10,3.47,12.38a64.68,64.68,0,0,1,.19,9c0,1-.1,2-.19,3a82.6,82.6,0,0,1-1.13,9l-.15,0C104.48,139.64,104.54,139.84,104.55,139.9Z"/><path class="cls-27" d="M104.56,139.36a82.6,82.6,0,0,0,1.13-9c.09-1,.16-2,.19-3a26.41,26.41,0,0,0-2.27-5.88c-1.12-1.93-2.73-4.13-3.77-6.17a9,9,0,0,1-2.09,1.34l-.08,0s0,0,0,0a64.32,64.32,0,0,1,2.45,7.61c.55,2.44.68,4.94,1,7.39a32,32,0,0,1,2.91,6.63,8.34,8.34,0,0,0,.33,1Z"/><path class="cls-18" d="M104.53,141c-.25,3-4,6.58-5.54,9.11-1.19,3.72-.32,8,3,10a15.59,15.59,0,0,0,1.9.1,38.24,38.24,0,0,0,5.5-.52c.07-1.39.24-2.72.38-4,0-.29.07-.57.09-.87h0c.27-1,.54-2,.79-3a17.21,17.21,0,0,1-4.81-2.61c.48-2.19,1.41-6.23-.95-7.91A2.22,2.22,0,0,0,104.53,141Z"/><path class="cls-11" d="M65.66,171.31a17.27,17.27,0,0,1-6.56-.09c1.62.88,4.5.86,6.63.79A4.88,4.88,0,0,0,65.66,171.31Z"/><path class="cls-22" d="M111.31,168.39l1.19.09c1.39.13,3.17.31,5.21.53-2.52-.43-5.08-.87-6.49-3.18a11.72,11.72,0,0,1-1.6-6.24l-.24,0c0,.44,0,.88,0,1.34a8.6,8.6,0,0,0,.72,3.65,21,21,0,0,0,2.14,3.43A6.3,6.3,0,0,1,111.31,168.39Z"/><path class="cls-26" d="M93.9,113.27a18.48,18.48,0,0,1-9.63.35c.75.78,1.57,1.53,2.41,2.26A21.47,21.47,0,0,0,91,117.09c1.27.24,1.9.48,2.54-.63a10.57,10.57,0,0,0,.82-2A14.24,14.24,0,0,0,94.7,113,6.12,6.12,0,0,1,93.9,113.27Z"/><path class="cls-14" d="M93.55,116.46c-.64,1.11-1.27.87-2.54.63a21.47,21.47,0,0,1-4.33-1.21c1.25,1.07,2.55,2.13,3.78,3.2a54.64,54.64,0,0,1,10.71,12.7c-.36-2.45-.49-5-1-7.39a64.32,64.32,0,0,0-2.45-7.61,33.45,33.45,0,0,1-3.31-2.34A10.57,10.57,0,0,1,93.55,116.46Z"/><path class="cls-27" d="M97.75,116.7a9,9,0,0,0,2.09-1.34l0-.09c-.08-1.73-.54-3.32-.73-5-.22-.1-.41-.22-.62-.33a10.75,10.75,0,0,1-3.75,3,14.24,14.24,0,0,1-.33,1.47,33.45,33.45,0,0,0,3.31,2.34s0,0,0,0Z"/><path class="cls-14" d="M105.88,127.41a64.68,64.68,0,0,0-.19-9c-.19-2.43-1.1-8.22-3.47-12.38a8.65,8.65,0,0,1-.28,5.65,29.31,29.31,0,0,1-2.87-1.41c.19,1.65.65,3.24.73,5l0,.09c1,2,2.65,4.24,3.77,6.17A26.41,26.41,0,0,1,105.88,127.41Z"/><path d="M145.54,258.16a18,18,0,0,0,4.53,1,2,2,0,0,1,.49-1,59.3,59.3,0,0,1-9.66-2.91c-.08.37-.15.75-.24,1.13C141.87,257.39,144,257.71,145.54,258.16Z"/><path d="M154.81,260.22c7.09,1.32,16.06,1.89,22.34,1.12,0-.31,0-.63,0-1a122.29,122.29,0,0,1-23.07-1.51c.44.43.65.9.42,1.19A.7.7,0,0,0,154.81,260.22Z"/><path d="M105.21,278.58a.61.61,0,0,0,.05-.18,2.33,2.33,0,0,1-.25-.07c-.2,1.08-.41,2.18-.5,3.23,1.34.87,5.52,2.73,7.47,2.84a2,2,0,0,1,1.31-1.22,75.77,75.77,0,0,1-8.24-2.73,10.06,10.06,0,0,1,.16-1.85Z"/><path class="cls-11" d="M114.91,266.74c-3,.95-7.9,2.33-9.49,5.4-.08,1.3-.13,2.54-.16,3.71a.55.55,0,0,1,.17-.05.43.43,0,0,1,0,.11,24.12,24.12,0,0,0,5.74-1.5c1.15-.42,2.31-.89,3.46-1.35.17-1.86.48-3.59.63-5.47,0-.32.08-.65.11-1Z"/><path class="cls-29" d="M105.41,275.91l-.15,0c0,.42,0,.82,0,1.21C105.3,276.73,105.36,276.31,105.41,275.91Z"/><path class="cls-28" d="M105.43,275.8a.55.55,0,0,0-.17.05v.08l.15,0A.43.43,0,0,0,105.43,275.8Z"/><path class="cls-30" d="M105.33,278.2c.85.31,1.69.63,2.54.93a37.69,37.69,0,0,0,3.88,1.21l1.79.42a23,23,0,0,0-2.39-6.35,24.12,24.12,0,0,1-5.74,1.5c0,.4-.11.82-.18,1.23s0,.69,0,1A.25.25,0,0,1,105.33,278.2Z"/><path d="M107.87,279.13c-.85-.26-1.74-.46-2.61-.73a.61.61,0,0,1-.05.18v0a10.06,10.06,0,0,0-.16,1.85,75.77,75.77,0,0,0,8.24,2.73,3.29,3.29,0,0,1,3,.26,1.88,1.88,0,0,1,.54.59,67.29,67.29,0,0,0,22.45,1.44c.76-.91,1.29-1.51,1.61-2v-.18a62.69,62.69,0,0,1-12.78,0,121.19,121.19,0,0,1-14.53-2.53l-1.79-.42A37.69,37.69,0,0,1,107.87,279.13Z"/><path class="cls-18" d="M88.32,99.92c-.82,2.81-.38,7.74,1.32,10.42a9.05,9.05,0,0,0,1.77-.19,12.18,12.18,0,0,0,3.81-1.72l.09-.06a4.66,4.66,0,0,0,2.16-2.89h-.12c0-.94,0-1.89.05-2.83,0-.33,0-.65.06-1a.83.83,0,0,0-.22-.08,10,10,0,0,1-5.52-.13A13.49,13.49,0,0,1,88.32,99.92Z"/><path class="cls-13" d="M103.44,170.41A25.21,25.21,0,0,0,99,173.2a82.17,82.17,0,0,1,10.16,3.65,9.46,9.46,0,0,1,2.53-1c-2.22-1.72-4.92-2.87-6.52-5.16a4.8,4.8,0,0,1-.46-.76A12,12,0,0,0,103.44,170.41Z"/><path class="cls-22" d="M103.88,160.15a24.11,24.11,0,0,0-.21,5.64c2.35-.92,4.71-1.5,6.39-1.17a8.6,8.6,0,0,1-.72-3.65c0-.46,0-.9,0-1.34A38.24,38.24,0,0,1,103.88,160.15Z"/><path class="cls-30" d="M140.85,283.31H141c.51-.82.32-1.24-.46-2.38-1.33-1.41-3.81-1.26-5.36-2.52-.47-.2-1-.43-1.55-.7-2.4,1-4.88,3.24-5.54,5.59A62.69,62.69,0,0,0,140.85,283.31Z"/><path d="M177.31,258.26a40.47,40.47,0,0,1-10-.25c-2-.23-4.08-.51-6-.72a51.86,51.86,0,0,1-10.64-2.61c-.77-.23-1.55-.42-2.33-.59a34,34,0,0,1-6.59-1.79c-.11-.07-.22-.11-.31-.17-.12,1.06-.27,2.11-.47,3.16a59.3,59.3,0,0,0,9.66,2.91c.9-.94,2.64-.19,3.51.67a122.29,122.29,0,0,0,23.07,1.51h.33A15.94,15.94,0,0,0,177.31,258.26Z"/><path class="cls-17" d="M80.64,106.24a9.72,9.72,0,0,1,.09-1.59c-.63.31-1.5.81-2.54,1.44a7.19,7.19,0,0,1-.85.7,3.52,3.52,0,0,0,.12.52,8.94,8.94,0,0,0,6.81,6.31,11.82,11.82,0,0,1-3.53-6.27,2,2,0,0,1-.21-.3C80.57,106.78,80.61,106.51,80.64,106.24Z"/><path class="cls-39" d="M58.55,171a3.94,3.94,0,0,0,.55.18,2.39,2.39,0,0,1-.6-.42C58.52,170.89,58.53,171,58.55,171Z"/><path class="cls-22" d="M111.31,168.39c-1.86.58-4.43.78-6.6,1.5a4.8,4.8,0,0,0,.46.76,71.36,71.36,0,0,0,8.11,4.06c1-.8,2-1.66,2.89-2.52,1.11-1,2.17-2,3.29-2.87-.55-.11-1.12-.22-1.69-.3h-.06c-2-.22-3.82-.4-5.21-.53Z"/><path class="cls-11" d="M123.33,264.41c-2.71.14-5.34,1.43-8,2.21,0,.32-.08.65-.11,1-.15,1.88-.46,3.61-.63,5.47a26.81,26.81,0,0,1,8-2.13C122.82,268.79,123.06,266.6,123.33,264.41Z"/><path class="cls-31" d="M140.85,283.31v.18a1.62,1.62,0,0,0,.13-.19Z"/><path class="cls-11" d="M67.33,114.23l-.25-.3c-2.85,2.31-5.21,4.6-6,6.21-3.71,7.25-3.38,17.37-4.05,25.14H56.9c0,1.58,0,3.41,0,5.35,0,4.16,0,8.82,0,12.46.56,2.65,1.13,5.25,1.69,7.71a2.39,2.39,0,0,0,.6.42,17.27,17.27,0,0,0,6.56.09h0c9-1.14,22.69-5.86,31.18-9.17a7.06,7.06,0,0,1-1-2.06s0,0,0,0a9.47,9.47,0,0,1-.65-2.1c-4.07,1.33-8.45,2.93-12.85,4s-9,1.67-13.55,1c-5.23-1-4-1.66-1.9-5.23-.71.24-1.43,0-2.38.24.24-7.61-.47-15.7,1.67-23.06,1.25-4,3.8-14.62,8.47-16.75C73.1,115.57,70.59,113.71,67.33,114.23Z"/><path class="cls-19" d="M143.64,251c1.19.07,2.44.07,3.67,0-.18-.37-.36-.74-.56-1.1a9.47,9.47,0,0,1-4.5-.61l-.59,0a10.7,10.7,0,0,1-.1,1.39C142.31,250.8,143.11,250.91,143.64,251Z"/><path class="cls-26" d="M98.45,110c2-2.47,2.69-5.63-.87-7.32H97.4c-.05.94-.05,1.89-.05,2.83h.12a4.66,4.66,0,0,1-2.16,2.89C96.37,108.82,97.41,109.4,98.45,110Z"/><path class="cls-31" d="M116.25,283.44a3.29,3.29,0,0,0-3-.26c1.15.31,2.32.59,3.5.85A1.88,1.88,0,0,0,116.25,283.44Z"/><path class="cls-11" d="M125.71,212.26c-1.69,9.27-4.56,18.22-6.42,27.49-1.8,8.8-3,17.91-3.94,26.87,2.64-.78,5.27-2.07,8-2.21a195.69,195.69,0,0,1,5.4-27.57c2.15-7.37,4.05-15,6-22.59,1.19-5.94,5-15.45-.72-19.73-4.75-3.57-11.17-6.18-16.4-8.79-3.73-2-7.87-4.57-12-5.69-.62.68-1.24,1.4-1.91,2.12a31.69,31.69,0,0,1-8.19,6.13c.5.17,1,.34,1.44.52,4.89,1.85,9.94,3.54,14.85,5.39,4,1.36,9.27,1.52,12.64,4.55C128.4,202.3,126.37,207.7,125.71,212.26Z"/><path class="cls-30" d="M141.68,252.3a34,34,0,0,0,6.59,1.79,11.85,11.85,0,0,0-1-3.1c-1.23,0-2.48,0-3.67,0-.53,0-1.33-.15-2.08-.24a11.58,11.58,0,0,1-.18,1.18c0,.08,0,.16,0,.24S141.57,252.23,141.68,252.3Z"/><path d="M116.79,284a5.07,5.07,0,0,1,.45,1.46c3.29.69,7.15.58,10.67,1.17a50.47,50.47,0,0,0,12.59.11,15.13,15.13,0,0,0,.35-3.28c-.32.47-.85,1.07-1.61,2A67.29,67.29,0,0,1,116.79,284Z"/><path class="cls-13" d="M158.83,235.22a38.09,38.09,0,0,0-.63,6.47,15,15,0,0,0,.39,3.28c.6.74,0,1.54-1.39,2.3.73.39,1.47.8,2.23,1.23h0c-1.26-6.32-.43-12.5.27-18.74C159.51,231.58,159.21,233.4,158.83,235.22Z"/><path class="cls-19" d="M139.51,250.63h.08a6.88,6.88,0,0,1,1.9.08c0-.64.06-1.29.07-1.94a1.59,1.59,0,0,1-.42-1c0-1.11-.09-2.52-.11-4.15-.06-4.9,0-11.82,0-18.93h0c-.39,8.16-1.19,16.25-1.43,24.42C139.59,249.65,139.52,250.11,139.51,250.63Z"/><path class="cls-11" d="M58.5,170.8c-.56-2.46-1.13-5.06-1.69-7.71,0,2.57,0,4.65-.1,5.73h0A2.6,2.6,0,0,0,58.55,171C58.53,171,58.52,170.89,58.5,170.8Z"/><path class="cls-17" d="M66.21,134.85c-2.14,7.36-1.43,15.45-1.67,23.06.95-.24,1.67,0,2.38-.24l2.54-.16a46.1,46.1,0,0,1,2.5-8.8l0-.07a158.71,158.71,0,0,0,4.52-23.29,12,12,0,0,0-1.83-7.25C70,120.23,67.46,130.86,66.21,134.85Z"/><path class="cls-11" d="M65.7,171.31c0,.23.06.45.09.69.8,0,1.48-.06,2-.06,6.43,0,12.72-1.91,19-3.34a51.18,51.18,0,0,0,8.08-2.72A14.41,14.41,0,0,0,99.41,164l-.15-.17a4.58,4.58,0,0,1-2.38-1.71C88.39,165.45,74.71,170.17,65.7,171.31Z"/><path class="cls-13" d="M67.38,189.62a30.65,30.65,0,0,0,3.71,1.32,15.87,15.87,0,0,1-2.94-4.27,3.3,3.3,0,0,1-.13-.52c-.15-.52-.27-1.06-.39-1.61-.26-1.25-.5-2.55-.69-3.82-.48-3-.8-6-1.15-8.72h-.06c.33,4.76-.84,17.19,1.59,17.76Z"/><path class="cls-17" d="M66.92,157.67c-2.14,3.57-3.33,4.28,1.9,5.23,4.52.72,9.27,0,13.55-1s8.78-2.65,12.85-4a16.92,16.92,0,0,1,0-6.47v0c0-.69,0-1.34,0-1.89-7.76,2.22-21,5.69-25.75,7.92Z"/><path class="cls-13" d="M99.41,164a14.41,14.41,0,0,1-4.56,1.86,51.18,51.18,0,0,1-8.08,2.72c-6.3,1.43-12.59,3.34-19,3.34-.48,0-1.16,0-2,.06.35,2.76.67,5.74,1.15,8.72,3,1,8.14-1,10.77-1.53,3.68-1,8-1.26,11.13-3.55,2.67-1.9,4.81-4.43,7.6-6.19a46,46,0,0,1,7.23-3.66,24.11,24.11,0,0,1,.21-5.64,15.59,15.59,0,0,1-1.9-.1l-2.41,1a11.41,11.41,0,0,1-.31,2.78Z"/><path class="cls-13" d="M66.94,180.72c.19,1.27.43,2.57.69,3.82.12.55.24,1.09.39,1.61,4.21,1.27,10.69-.49,16-2.8a42.92,42.92,0,0,0,6.57-3.48c2.92-1.91,5.55-4.5,8.38-6.67h0a25.21,25.21,0,0,1,4.44-2.79,12,12,0,0,1,1.27-.52,8.06,8.06,0,0,1-.63-1.52,13.55,13.55,0,0,1-.41-2.58,46,46,0,0,0-7.23,3.66c-2.79,1.76-4.93,4.29-7.6,6.19-3.17,2.29-7.45,2.53-11.13,3.55C75.08,179.75,69.94,181.68,66.94,180.72Z"/><path class="cls-13" d="M68,186.15a3.3,3.3,0,0,0,.13.52,15.87,15.87,0,0,0,2.94,4.27h0c6.33,1.79,13.76,1.81,19.66-.55a37.82,37.82,0,0,0,4.65-2.11c-3.79-1.31-8.13-2.55-11.38-4.94C78.71,185.66,72.23,187.42,68,186.15Z"/><path class="cls-11" d="M109.38,232.33v0c-1.48,10.93-3.37,28-4,39.78,1.59-3.07,6.49-4.45,9.49-5.4l.44-.12c1-9,2.14-18.07,3.94-26.87,1.86-9.27,4.73-18.22,6.42-27.49.66-4.56,2.69-10-1.36-13.51-3.37-3-8.6-3.19-12.64-4.55-4.91-1.85-10-3.54-14.85-5.39-.47-.18-.94-.35-1.44-.52a37.82,37.82,0,0,1-4.65,2.11c-5.9,2.36-13.33,2.34-19.66.55,2.13,2,4.7,2.14,11.28,5.6,12.46,6.52,26.57,9.44,33.9,9.91-.26.69-.54,1.45-.81,2.24-1.39,3.89-3,8.62-4.06,12.67a45.39,45.39,0,0,0-1.43,6.68C109.8,229.32,109.6,230.77,109.38,232.33Z"/><path class="cls-24" d="M77.31,106.64a.66.66,0,0,0,0,.15,7.19,7.19,0,0,0,.85-.7C77.9,106.26,77.61,106.45,77.31,106.64Z"/><path class="cls-23" d="M78.16,93.85c.56,1.09,1,2.81,1.88,3.19a1,1,0,0,0,1.11-.19s0-.18-.05-.4c-.08-.64-.26-1.89-.26-2C80.14,95,79.06,94.7,78.16,93.85Z"/><path class="cls-25" d="M80.64,106.24c0,.27-.07.54-.11.81a2,2,0,0,0,.21.3A6.74,6.74,0,0,1,80.64,106.24Z"/><path class="cls-24" d="M80.73,104.65a9.72,9.72,0,0,0-.09,1.59c.08-.55.15-1.09.19-1.64A.24.24,0,0,1,80.73,104.65Z"/><path class="cls-18" d="M81,102.55c0,.68-.11,1.37-.19,2s-.11,1.09-.19,1.64a6.74,6.74,0,0,0,.1,1.11c1.65,2.24,5.9,3.09,8.9,3-1.7-2.68-2.14-7.61-1.32-10.42l0,0C86.46,98.83,85,98,83.69,97.06l-2.51,1.42C81.19,99.84,81.14,101.2,81,102.55Z"/><path class="cls-25" d="M80.84,94.46c0,.1.18,1.35.26,2h0l1-.59c-.15.08-.35-.21-.57-.55,0,0,0,0,0,0a5.09,5.09,0,0,1-.4-.41Z"/><path class="cls-25" d="M81.08,94.53c-.09-.09-.16-.12-.24-.07l.37.42C81.16,94.75,81.12,94.65,81.08,94.53Z"/><path class="cls-18" d="M81.14,96.44h0c0,.22.05.36.05.4C81.15,96.71,81.14,96.58,81.14,96.44Z"/><path class="cls-25" d="M81.08,94.53c0,.12.08.22.13.35a5.09,5.09,0,0,0,.4.41A5.11,5.11,0,0,0,81.08,94.53Z"/><path class="cls-25" d="M81.14,96.44c0,.14,0,.27,0,.41,0,.54,0,1.09,0,1.63l2.51-1.42a18.17,18.17,0,0,1-1.51-1.21Z"/><path class="cls-25" d="M82.18,95.85c-.19-.17-.39-.36-.57-.55C81.83,95.64,82,95.93,82.18,95.85Z"/><path class="cls-26" d="M80.74,107.35a11.82,11.82,0,0,0,3.53,6.27,18.48,18.48,0,0,0,9.63-.35,6.12,6.12,0,0,0,.8-.3c.28-1.45.37-2.94.59-4.44l-.07-.1a12.18,12.18,0,0,1-3.81,1.72,9.05,9.05,0,0,1-1.77.19C86.64,110.44,82.39,109.59,80.74,107.35Z"/><path class="cls-13" d="M105.52,180a15.33,15.33,0,0,1,3.64-3.19A82.17,82.17,0,0,0,99,173.2h0c-2.83,2.17-5.46,4.76-8.38,6.67A42.92,42.92,0,0,1,84,183.35c3.25,2.39,7.59,3.63,11.38,4.94a31.69,31.69,0,0,0,8.19-6.13C104.28,181.44,104.9,180.72,105.52,180Z"/><path class="cls-27" d="M95.29,108.53c-.22,1.5-.31,3-.59,4.44a10.75,10.75,0,0,0,3.75-3c-1-.57-2.08-1.15-3.14-1.6l-.09.06Z"/><path class="cls-14" d="M94.92,154.27a19.53,19.53,0,0,0,.3,3.7l.18-.06a46.55,46.55,0,0,1-.17-6.41A19.55,19.55,0,0,0,94.92,154.27Z"/><path class="cls-40" d="M95.46,149.52l-.25.07c0,.55,0,1.2,0,1.89A18.5,18.5,0,0,0,95.46,149.52Z"/><path class="cls-14" d="M95.4,157.91a13.33,13.33,0,0,0,.47,2.16s0,0,0,0a7.29,7.29,0,0,0,1.23,2c.88-.35,1.71-.69,2.47-1l2.41-1c-3.31-2-4.18-6.25-3-10a10.45,10.45,0,0,1,.68-1.67l-.2-.1c-1,.33-2.35.74-4,1.21a18.5,18.5,0,0,1-.23,2v0A46.55,46.55,0,0,0,95.4,157.91Z"/><path class="cls-14" d="M95.22,158a9.47,9.47,0,0,0,.65,2.1,13.33,13.33,0,0,1-.47-2.16Z"/><path class="cls-14" d="M95.87,160.08a7.06,7.06,0,0,0,1,2.06l.22-.09A7.29,7.29,0,0,1,95.87,160.08Z"/><path d="M97.1,162.05l-.22.09a4.58,4.58,0,0,0,2.38,1.71,11.41,11.41,0,0,0,.31-2.78C98.81,161.36,98,161.7,97.1,162.05Z"/><path class="cls-18" d="M97.24,101.59a.83.83,0,0,1,.22.08c0-.06,0-.1,0-.15Z"/><path class="cls-26" d="M99.07,110.3a29.31,29.31,0,0,0,2.87,1.41,8.65,8.65,0,0,0,.28-5.65,8.91,8.91,0,0,0-4.76-4.39c0,.32,0,.64-.06,1h.18c3.56,1.69,2.85,4.85.87,7.32C98.66,110.08,98.85,110.2,99.07,110.3Z"/><path class="cls-22" d="M103.67,165.79a13.55,13.55,0,0,0,.41,2.58,8.06,8.06,0,0,0,.63,1.52c2.17-.72,4.74-.92,6.6-1.5a6.3,6.3,0,0,0,.89-.34,21,21,0,0,1-2.14-3.43C108.38,164.29,106,164.87,103.67,165.79Z"/><path class="cls-31" d="M105.33,278.2a1.59,1.59,0,0,1-.07.2c.87.27,1.76.47,2.61.73C107,278.83,106.18,278.51,105.33,278.2Z"/><path class="cls-19" d="M105.17,170.65c1.6,2.29,4.3,3.44,6.52,5.16a9.46,9.46,0,0,0-2.53,1c1,.43,2.11.88,3.21,1.36a149.41,149.41,0,0,1,16.88,3.85c6.74,2.19,20.4,2,21.6,10.62,1.33,9.46-.19,19.58-.19,29,0,7.33-2,14.65-1.85,21.84a35,35,0,0,0,6.07-.77c-1.1-11.45,1-23.84,3.1-34.7a125.84,125.84,0,0,0,1.9-19c.24-8.08-2.38-9-10-10-11.18-1.67-22.36-4.76-33.53-6.66l-.2-.22c-.93.86-1.87,1.72-2.89,2.52A71.36,71.36,0,0,1,105.17,170.65Z"/><path class="cls-12" d="M109.16,176.85a15.33,15.33,0,0,0-3.64,3.19c4.17,1.12,8.31,3.7,12,5.69,5.23,2.61,11.65,5.22,16.4,8.79,5.71,4.28,1.91,13.79.72,19.73-1.9,7.61-3.8,15.22-6,22.59a195.69,195.69,0,0,0-5.4,27.57,7.35,7.35,0,0,1,1.75.06c1.41-11.61,7.37-34,10.16-42.66,1.94-6.07,3.6-11.88,4.68-16.78.41-1.88.73-3.62.94-5.18.61-4.54.31-7.66-1.39-8.46-4.2-2.52-16.64-8.67-27.1-13.18C111.27,177.73,110.19,177.28,109.16,176.85Z"/><path class="cls-15" d="M104.22,98.73c3.34,2.62,6.14,7.59,6.3,11.8l-.18.09c2.27,4.64,2.72,9.57,2.72,14.57l2.62,0c0-11.74,1.85-27.07-6.91-27.51C107.56,98.05,105.92,98.37,104.22,98.73Z"/><path class="cls-18" d="M109.62,159.59c5.67-1,11.73-2.94,12.37-4.69v0c-3.66,1.13-9,.78-11.63.78l-.59-.07c-.14,1.32-.31,2.65-.38,4Z"/><path class="cls-18" d="M109.76,155.59l.59.07c2.58,0,8,.35,11.63-.78,1.72-.53,3.07-1.4,3.56-2.77-1.07-1-5.45,1.8-13.42,0-.55-.13-1-.25-1.49-.4-.25,1-.52,2-.79,3h0C109.83,155,109.79,155.3,109.76,155.59Z"/><path class="cls-15" d="M111.17,149.12a0,0,0,0,1,0,0c.89,1.62,6.3.91,7.94.79a104.51,104.51,0,0,0,28.21-6.1l0-.08c-1.26.42-1.92-1.52-2.26-3-10.31,4-21.84,8.35-32.61,8.95A11.19,11.19,0,0,1,111.17,149.12Z"/><path class="cls-15" d="M111.17,149.12a11.19,11.19,0,0,0,1.24.55c10.77-.6,22.3-4.94,32.61-8.95-.07-.39-.14-.74-.17-1,0,0,0,0,0,0a17.81,17.81,0,0,1-.49-8l0-.73-4.08,1c1,5-.22,7.94-5.55,8.86-6,1-12.37,1.9-18.54,1.67a37.76,37.76,0,0,1,.39-8.29l-.1,0a37.66,37.66,0,0,1-.75-8.93l-2.62,0c0,2.65-.12,5.31-.18,7.95A101.9,101.9,0,0,1,111.17,149.12Z"/><path class="cls-30" d="M122.62,270.93a26.81,26.81,0,0,0-8,2.13c-1.15.46-2.31.93-3.46,1.35a23,23,0,0,1,2.39,6.35,121.19,121.19,0,0,0,14.53,2.53c.66-2.35,3.14-4.58,5.54-5.59a42.67,42.67,0,0,1-10.11-6.77h-.88Z"/><path class="cls-41" d="M116.53,134.17a37.76,37.76,0,0,0-.39,8.29c6.17.23,12.59-.72,18.54-1.67,5.33-.92,6.59-3.88,5.55-8.86C132.06,133.89,123.37,135.68,116.53,134.17Z"/><path class="cls-13" d="M159.75,229.76c.6-4.32.93-8.66,1.65-13,2.22-12,6.39-33.4,3.56-37.17-5.1-5.58-32.83-9.06-47.19-10.57.57.08,1.14.19,1.69.3-1.12.86-2.18,1.85-3.29,2.87l.2.22c11.17,1.9,22.35,5,33.53,6.66,7.6.94,10.22,1.9,10,10a125.84,125.84,0,0,1-1.9,19c-2.09,10.86-4.2,23.25-3.1,34.7a17.22,17.22,0,0,0,3.32-1.08,38.09,38.09,0,0,1,.63-6.47C159.21,233.4,159.51,231.58,159.75,229.76Z"/><path class="cls-12" d="M122.62,270.93h.88a11.07,11.07,0,0,1,1.61.2c-.47-1-.43-3.43,0-6.66a7.35,7.35,0,0,0-1.75-.06C123.06,266.6,122.82,268.79,122.62,270.93Z"/><path class="cls-19" d="M112.37,178.21c10.46,4.51,22.9,10.66,27.1,13.18,1.7.8,2,3.92,1.39,8.46.27,5.85.24,15.52.19,24.86,0,7.11-.08,14,0,18.93,2.28,0,5,.05,7.78-.1-.17-7.19,1.85-14.51,1.85-21.84,0-9.44,1.52-19.56.19-29-1.2-8.6-14.86-8.43-21.6-10.62A149.41,149.41,0,0,0,112.37,178.21Z"/><path class="cls-31" d="M140.74,255.22a.46.46,0,0,0,.16.07c.2-1,.35-2.1.47-3.16l0,0C141.14,253.16,140.89,254.2,140.74,255.22Z"/><path class="cls-19" d="M141.56,248.77a2.18,2.18,0,0,0,.69.51,9.47,9.47,0,0,0,4.5.61,29.9,29.9,0,0,0,8.87-1.88,47.54,47.54,0,0,1-.74-5.24,35,35,0,0,1-6.07.77c-2.77.15-5.5.1-7.78.1,0,1.63.07,3,.11,4.15A1.59,1.59,0,0,0,141.56,248.77Z"/><path class="cls-29" d="M141.38,251.89l0,.22,0,0C141.37,252.05,141.38,252,141.38,251.89Z"/><path class="cls-42" d="M144.34,131.66a17.81,17.81,0,0,0,.49,8c0-.16,0-.31-.05-.41A55.21,55.21,0,0,1,144.34,131.66Z"/><path class="cls-43" d="M144.31,130.93l0,.73.09-.76Z"/><path class="cls-14" d="M147.76,139.66l1.3-.5c-.2-1-.37-2.11-.49-3.17a22.77,22.77,0,0,1,0-6.07c-1.35.3-2.75.63-4.17,1l-.09.76a55.21,55.21,0,0,0,.44,7.59c0,.1,0,.25.05.41s0,0,0,0c.11.31.24.63.37,1Z"/><path class="cls-14" d="M145.22,140.65c-.13-.32-.26-.64-.37-1,0,.28.1.63.17,1Z"/><path d="M145.22,140.65l-.2.07c.34,1.52,1,3.46,2.26,3,1.07-.31.88-3,.48-4.1Z"/><path class="cls-19" d="M146.75,249.89c.2.36.38.73.56,1.1.46,0,.94,0,1.4,0a23.76,23.76,0,0,0,5.87-1l1.34-.45c-.11-.49-.21-1-.3-1.45A29.9,29.9,0,0,1,146.75,249.89Z"/><path class="cls-30" d="M155.92,249.46l-1.34.45a23.76,23.76,0,0,1-5.87,1c-.46,0-.94,0-1.4,0a11.85,11.85,0,0,1,1,3.1c.78.17,1.56.36,2.33.59a51.86,51.86,0,0,0,10.64,2.61c2,.21,4,.49,6,.72a15.22,15.22,0,0,1,3.67-4.66l-4-1.13a49.53,49.53,0,0,1-7.53-3.72A29,29,0,0,0,155.92,249.46Z"/><path class="cls-21" d="M148.6,129.92a22.77,22.77,0,0,0,0,6.07c2.4,1.19,6.41-.51,7.58-2.85l.06-.22a26.64,26.64,0,0,0,5.13,1,3.59,3.59,0,0,0,3.16-1,3.05,3.05,0,0,0,.51-2.06c-3.79.26-6.84-2.27-10.63-2C152.6,129.08,150.64,129.46,148.6,129.92Z"/><path class="cls-44" d="M148.57,136c.12,1.06.29,2.13.49,3.17a1.3,1.3,0,0,0,.25-.1l0,0c3.28,2.56,7.62,3.47,11.66,4.55l0,.13c2.61.88,5.09-.09,7.71,0v-.13c0-1.77-1.13-1.8-2.41-1.75a9,9,0,0,1-1.64,0,14.52,14.52,0,0,1-5.95-2.16l-.11-.1a13.26,13.26,0,0,0,1.31-1.67,8.39,8.39,0,0,0,1.4-3,3.15,3.15,0,0,0,.06-.8V134a26.64,26.64,0,0,1-5.13-1l-.06.22C155,135.48,151,137.18,148.57,136Z"/><path class="cls-31" d="M154.07,258.87c-.87-.86-2.61-1.61-3.51-.67C151.72,258.45,152.89,258.68,154.07,258.87Z"/><path class="cls-13" d="M154.88,242.77a47.54,47.54,0,0,0,.74,5.24,15.78,15.78,0,0,0,1.58-.74c1.35-.76,2-1.56,1.39-2.3a15,15,0,0,1-.39-3.28A17.22,17.22,0,0,1,154.88,242.77Z"/><path class="cls-13" d="M155.62,248c.09.49.19,1,.3,1.45a29,29,0,0,1,3.51-1c-.76-.43-1.5-.84-2.23-1.23A15.78,15.78,0,0,1,155.62,248Z"/><path class="cls-45" d="M158.57,139.6l.11.1a14.52,14.52,0,0,0,5.95,2.16,9,9,0,0,0,1.64,0v-.42c2.06,0,5.05-.4,4.82-2a1.54,1.54,0,0,0-.11-.42c-3.37.86-7.58-1.2-11.09-1.15A13.26,13.26,0,0,1,158.57,139.6Z"/><path class="cls-46" d="M159.88,137.93c3.51-.05,7.72,2,11.09,1.15a1.54,1.54,0,0,1,.11.42l.26,0c.76-.13,1.89-.63,1.77-1.52a.8.8,0,0,0-.55-.66,10.78,10.78,0,0,0-2.1-.22c-2.77-.51-6.65-.77-9.18-2.12A8.39,8.39,0,0,1,159.88,137.93Z"/><path class="cls-44" d="M161.34,134.14a3.15,3.15,0,0,1-.06.8c2.53,1.35,6.41,1.61,9.18,2.12a10.78,10.78,0,0,1,2.1.22,12.6,12.6,0,0,1,1.05-1.24,55.57,55.57,0,0,0-9.11-3.13,3.59,3.59,0,0,1-3.16,1Z"/><path class="cls-30" d="M171,253.35a15.22,15.22,0,0,0-3.67,4.66,40.47,40.47,0,0,0,10,.25c-.29-2.19-.93-3.38-1.66-3.58C174.21,254.26,172.51,253.79,171,253.35Z"/><path class="cls-23" d="M82.82,94.8a12.13,12.13,0,0,1-1-3.74v0c0-.16-.06-.32-.09-.46A14.34,14.34,0,0,1,81.57,87h.05c1-.09,2.18-.25,3.5-.47l1.28-.26a39.41,39.41,0,0,0,5.67-1.57,20.64,20.64,0,0,0,8.57-5.34A24.38,24.38,0,0,0,103,72.94c-.51-3.07-2-4.48-4.7-6.65a12.62,12.62,0,0,0-4.94-2A40.17,40.17,0,0,0,83.87,64c-5.73,2.06-9.63,4.05-11.46,9a17.36,17.36,0,0,0-.87,3.53,1.34,1.34,0,0,0,0,.2,52.15,52.15,0,0,0,2.24,12.44l.39,1.18a0,0,0,0,0,0,0,21.06,21.06,0,0,0,2.24,4.06c-.25-1.65-.31-3.76,1.26-3.93a2.72,2.72,0,0,1,1.72,1.19,5.81,5.81,0,0,1,.59.87A2.46,2.46,0,0,0,82.82,94.8Z"/><path class="cls-23" d="M71.31,78.54a19.87,19.87,0,0,0,.83,5.68,42.82,42.82,0,0,0,2,6.1l-.39-1.18A52.15,52.15,0,0,1,71.55,76.7a1.34,1.34,0,0,1,0-.2c-.1.62-.17,1.28-.23,2Z"/><path class="cls-18" d="M77.69,90.48c-1.57.17-1.51,2.28-1.26,3.93,0,.35.11.67.17.94a5.43,5.43,0,0,0,1.77,3c.92.76,2,1,2.57.35.07,0,.14,0,.23,0a15.24,15.24,0,0,1-.58-2.35,40.67,40.67,0,0,1-1.18-4.75A2.72,2.72,0,0,0,77.69,90.48Z"/><path class="cls-10" d="M80,92.54a5.81,5.81,0,0,0-.59-.87,40.67,40.67,0,0,0,1.18,4.75,15.24,15.24,0,0,0,.58,2.35,5.31,5.31,0,0,1,.57.71s0,0,0,0a6.66,6.66,0,0,0,.59.49,13.85,13.85,0,0,0,1.53,1.06c1.29.8,2.77,1.51,4.58,2.4l0,0a12.68,12.68,0,0,0,3.34,1.22c-3.13-2.25-7.24-6.61-6.69-9.73.23-1.42,1.59-2.07,1.8-3.74a32.85,32.85,0,0,0-.47-4.65l0-.19-1.31.14c-1.32.22-2.53.38-3.5.47h-.05a14.34,14.34,0,0,0,.12,3.58c0,.14,0,.3.09.46v0a12.13,12.13,0,0,0,1,3.74A2.46,2.46,0,0,1,80,92.54Z"/><path class="cls-21" d="M99.9,102.21l.24-.33c1.19-1.76,1.63-4,2.18-6.42a37.37,37.37,0,0,0,1-5.88,14.53,14.53,0,0,0-.44-4.85,3.1,3.1,0,0,0-.15-.46,16.42,16.42,0,0,1-1-4.14c-1.8,4.24-9.62,5.64-15.29,6.25l0,.19a32.85,32.85,0,0,1,.47,4.65c-.21,1.67-1.57,2.32-1.8,3.74-.55,3.12,3.56,7.48,6.69,9.73A8.86,8.86,0,0,0,97,104.3a1,1,0,0,0,.21-.09A6.11,6.11,0,0,0,99.9,102.21Z"/><path class="cls-10" d="M85.12,86.52l1.31-.14,0-.12Z"/><path class="cls-23" d="M83.87,64a40.17,40.17,0,0,1,9.47.27,12.62,12.62,0,0,1,4.94,2L98,66.11c-3.45-2.7-9.45-3.87-13.14-2.48Z"/><path class="cls-23" d="M86.4,86.26l0,.12c5.67-.61,13.49-2,15.29-6.25,0,0,0,0,0,0,0-.86.14-1.72.22-2.58a11.24,11.24,0,0,1-1.3,1.81,20.64,20.64,0,0,1-8.57,5.34A39.41,39.41,0,0,1,86.4,86.26Z"/><path class="cls-23" d="M101.72,80.12s0,0,0,0a16.42,16.42,0,0,0,1,4.14c.11-.87.26-1.86.41-2.89.34-2.38.63-5,0-6.8,0,0,0,0,0,0a9.57,9.57,0,0,1-1.19,3C101.86,78.4,101.75,79.26,101.72,80.12Z"/><path class="cls-23" d="M100.64,79.35a11.24,11.24,0,0,0,1.3-1.81,9.57,9.57,0,0,0,1.19-3s0,0,0,0c0-.56-.09-1.08-.16-1.55A24.38,24.38,0,0,1,100.64,79.35Z"/><path class="cls-18" d="M102.7,84.27a3.1,3.1,0,0,1,.15.46,14.53,14.53,0,0,1,.44,4.85,10.65,10.65,0,0,0,.52-6.48,6.29,6.29,0,0,0-.7-1.72C103,82.41,102.81,83.4,102.7,84.27Z"/><path class="cls-3" d="M86.73,258.44c0-.37,0-.72,0-1.07-.07-.79-.1-1.62-.1-2.46l0-2-.1-6.22,0-3.94v-.49l-.22-15.56L86.11,221l0-1.33L86,213.32l-.1-5.92,0-4.7a16.16,16.16,0,0,0-.32-3,20.75,20.75,0,0,0-.62-2.85c-.2-.72-.45-1.44-.73-2.16-.17-.47-.37-.95-.59-1.42a30.49,30.49,0,0,0-4.18-6.81A34.11,34.11,0,0,0,74,181.27a28.9,28.9,0,0,0-2.54-1.77c-.6-.4-1.19-.75-1.82-1.1l-.49-.25-2.32-1.29-2.54-1.37-4.15-2.24c0-.05,0-.1,0-.15C55.65,170.56,49,167,42.41,163.92c-6.27-3-12.42-5.65-16.35-6.64a12,12,0,0,0-2.64-.45c-2.54-.13-9.68,1.07-15,3.25,1.49.43,3,.93,4.55,1.52l.15,0a18.89,18.89,0,0,1,3.61,1.54l.45.24a.76.76,0,0,1,.22.11l21.9,11.94v0l3.26,1.77.28.15L49,180.69l.15.08,4.6,2.51a26.31,26.31,0,0,1,4.95,3.54A37.28,37.28,0,0,1,69.19,203a26.47,26.47,0,0,1,1.34,8v44.56a1.8,1.8,0,0,0,.17.34l-.17-.07v16.3c0,6.4-2.91,10.47-7.37,11.38l0,.09C73.05,282,85.41,279.07,86.36,271a7.13,7.13,0,0,0,.07-1v-.42l.25.1C87.43,266.1,87,262.2,86.73,258.44ZM50.87,173s0,0,0,0h0Zm21.48,13.36a2.72,2.72,0,0,1,0-.49l.1.12A1.44,1.44,0,0,0,72.35,186.34Z"/><path class="cls-4" d="M70.53,272.13V211a26.47,26.47,0,0,0-1.34-8,37.28,37.28,0,0,0-10.46-16.17,26.31,26.31,0,0,0-4.95-3.54l-4.6-2.51-.15-.08-6.17-3.36-.28-.15-3.26-1.77v0l-21.9-11.94a.76.76,0,0,0-.22-.11l-.45-.24a18.89,18.89,0,0,0-3.61-1.54l-.15,0c-1.54-.59-3.06-1.09-4.55-1.52a13.67,13.67,0,0,0-5.35,3.44s0,0,0,0a6.91,6.91,0,0,0-1,1.25s0,0-.05.09a13.85,13.85,0,0,0-2,7.65v61.12a23.23,23.23,0,0,0,.52,4.83,31.5,31.5,0,0,0,1.17,4.23c2.72,7.67,8.44,15.06,15.06,18.66l37,20.19c3.49,1.89,6.7,2.49,9.38,1.92C67.62,282.6,70.53,278.53,70.53,272.13ZM39.1,185.07a1.53,1.53,0,0,1,0-.57.33.33,0,0,1,0-.15s0,0,0,0C39.12,184.45,39.1,184.72,39.1,185.07Z"/></g></g></svg>