<svg xmlns="http://www.w3.org/2000/svg" viewBox="0 0 668.24 395.16"><defs><style>.cls-1{fill:#006384;opacity:0.25;}.cls-2{fill:#2f2f2f;}.cls-3{fill:#747474;}.cls-4{fill:#fff;}.cls-5{fill:#dedcee;}.cls-6{fill:#e9e7f4;}.cls-7{fill:#bcbcbc;}.cls-8{fill:#434343;}.cls-9{fill:#212121;}.cls-10{fill:#9ea2b8;}.cls-11{fill:#8690a7;}.cls-12{fill:#babac7;}.cls-13{fill:#d1d1d1;}.cls-14{fill:#d8d9d9;}.cls-15{fill:#c1cecf;}.cls-16{fill:#462b25;}.cls-17{fill:#a29893;}.cls-18{fill:#654b46;}.cls-19{fill:#c7b4b0;}.cls-20{fill:#dbcfce;}.cls-21{fill:#795d57;}.cls-22{fill:#71625c;}.cls-23{fill:#9b7f79;}.cls-24{fill:#6e4d41;}.cls-25{fill:#a0887f;}.cls-26{fill:#fdcb80;}.cls-27{fill:#fdecb2;}.cls-28{fill:#f9a873;}.cls-29{fill:#c5c5c5;}.cls-30{fill:#cba18a;}.cls-31{fill:#5b3214;}.cls-32{fill:#935f3e;}.cls-33{fill:#e0dfde;}.cls-34{fill:#ac572d;}.cls-35{fill:#c88157;}.cls-36{fill:#8e5330;}.cls-37{fill:#13101f;}.cls-38{fill:#010000;}.cls-39{fill:#1f191f;}.cls-40{fill:#080614;}.cls-41{fill:#403e52;}.cls-42{fill:#191525;}.cls-43{fill:#1f0000;}.cls-44{fill:#171318;}.cls-45{fill:#fbb686;}.cls-46{fill:#0f0b19;}.cls-47{fill:#14101e;}.cls-48{fill:#f89c69;}.cls-49{fill:#252236;}.cls-50{fill:#e8f6ff;}.cls-51{fill:#c03d2d;}</style></defs><title>Asset 3</title><g id="Layer_2" data-name="Layer 2"><g id="Layer_1-2" data-name="Layer 1"><path class="cls-1" d="M160.13,80C100.64,106.35-61.21,198.31,24.54,266.58,60.56,295.25,195.32,367.34,232,382.8c74.59,31.47,139.11-4.15,193-29.4,60.86-28.53,229.81-157.64,241-194.95,14.61-48.63-44.43-86.68-79.16-101.58C536.2,35.17,480.92,16.83,427,5.28c-46.74-10-91.59,3.42-136.21,17.29-15.39,4.78-30.71,9.78-46,14.77Z"/><path class="cls-2" d="M380.77,294.87a6.62,6.62,0,0,1-6.35,6.86h0a6.62,6.62,0,0,1-6.35-6.86V235.08a6.62,6.62,0,0,1,6.35-6.86h0a6.62,6.62,0,0,1,6.35,6.86Z"/><path class="cls-2" d="M554.58,193.23a6.62,6.62,0,0,1-6.35,6.86h0a6.62,6.62,0,0,1-6.35-6.86V133.44a6.61,6.61,0,0,1,6.35-6.85h0a6.61,6.61,0,0,1,6.35,6.85Z"/><path class="cls-2" d="M303.39,248.27a6.61,6.61,0,0,1-6.35,6.85h0a6.61,6.61,0,0,1-6.35-6.85v-59.8a6.61,6.61,0,0,1,6.35-6.85h0a6.61,6.61,0,0,1,6.35,6.85Z"/><g id="_Group_" data-name="&lt;Group&gt;"><path class="cls-3" d="M441.38,194.44l0-.06,112.61-65s16.41-10.78,16.56-26C575.29,124.87,554,139.9,554,139.9l-112.61,65,0,.06C417.13,219,400,228.9,400,228.9a119.4,119.4,0,0,1-33.17,12.36q-4.2.92-8.74,1.56a107.07,107.07,0,0,1-17.56,1,92.85,92.85,0,0,1-44.72-12.45c-20-11.54-22.43-22.88-21.56-37.33h0c.14,8.4,5.71,17.64,21.55,26.79C346.83,250.34,400,218.36,400,218.36Z"/><path class="cls-4" d="M441.36,194.38l0,.06L400,218.36s-53.13,32-104.19,2.51c-15.84-9.15-21.41-18.39-21.55-26.79-.34-18.7,26.13-33.23,26.13-33.23l65.4-37.71,0,0,88.47-51s46.33-25.25,90.68-.15c19.71,11.16,25.75,22.14,25.65,31.46-.15,15.19-16.56,26-16.56,26Z"/></g><polygon class="cls-5" points="374.5 114.53 399.17 102.38 431.5 120.01 407.53 132.9 374.5 114.53"/><polygon class="cls-5" points="413.6 99.27 438.26 87.11 470.6 104.75 446.63 117.64 413.6 99.27"/><polygon class="cls-6" points="350.42 196.68 325.75 184.52 293.42 202.15 317.39 215.05 350.42 196.68"/><g id="_Group_2" data-name="&lt;Group&gt;"><path class="cls-3" d="M404.06,195c.74,0,1.34-.38,1.34-.86s-.6-.87-1.34-.87-1.35.38-1.35.87S403.32,195,404.06,195Z"/><path class="cls-7" d="M395.19,194.18l1.41.82a3.46,3.46,0,0,0,3.15,0l4.89-2.82c.89-.51.9-1.33,0-1.82l-1.54-.89v0l-9.8-5.69a3.49,3.49,0,0,0-3.16,0l-4.89,2.81c-.88.51-.89,1.32,0,1.83l9.93,5.75Z"/><path class="cls-8" d="M407.93,194.91a2.11,2.11,0,0,0,.75-2.32,1.23,1.23,0,0,1-.75,1.19L402.32,197a4,4,0,0,1-3.61,0l-14.47-8.39c-.59-.34-.83-.82-.7-1.27a1.8,1.8,0,0,0,.7,2.4l14.47,8.39a4,4,0,0,0,3.61,0Z"/><path class="cls-9" d="M403.14,189.46v0l-9.8-5.69a3.49,3.49,0,0,0-3.16,0l-4.89,2.81c-.88.51-.89,1.32,0,1.83l9.93,5.75v0l1.41.82a3.46,3.46,0,0,0,3.15,0l4.89-2.82c.89-.51.9-1.33,0-1.82Zm.92,3.83c-.74,0-1.35.38-1.35.87s.61.86,1.35.86,1.34-.38,1.34-.86S404.8,193.29,404.06,193.29Zm-20.42-6.14a1.46,1.46,0,0,1,.64-.61l5.6-3.23a4,4,0,0,1,3.61,0L408,191.69a1.35,1.35,0,0,1,.72.88v0a1.23,1.23,0,0,1-.75,1.19L402.32,197a4,4,0,0,1-3.61,0l-14.47-8.39c-.59-.34-.83-.82-.7-1.27Z"/></g><g id="_Group_3" data-name="&lt;Group&gt;"><path class="cls-10" d="M322.31,123.5l0-.24a1.25,1.25,0,0,0-.15-.7c.54.46.19,2.56.16,3.1l0,.23s0,.09,0,.13a1.39,1.39,0,0,1-.25.44c-.79,1.07-2.92,1.73-5.12,1.55a5.6,5.6,0,0,1-3.16-1.13,1.79,1.79,0,0,1-.56-.95,16.36,16.36,0,0,1,0-2.4c.18,1,1.65,1.92,3.72,2.08,2.49.22,4.89-.67,5.37-2C322.28,123.58,322.31,123.55,322.31,123.5Z"/><path class="cls-11" d="M313.4,122.56c.71-1.13,2.91-1.86,5.21-1.67,1.77.15,3.1.82,3.56,1.65,0,0,0,0,0,0a1.25,1.25,0,0,1,.15.7l0,.24s0,.08,0,.14c-.48,1.3-2.88,2.19-5.37,2-2.07-.16-3.54-1-3.72-2.08v0a4.15,4.15,0,0,1,.13-.8A.53.53,0,0,1,313.4,122.56Z"/><path class="cls-12" d="M319.34,130.23a14.23,14.23,0,0,0-5.75.66c0-1.14,0-3,.16-4a5.6,5.6,0,0,0,3.16,1.13c2.2.18,4.33-.48,5.12-1.55.18,1.05.37,3.09.47,4.43A12.6,12.6,0,0,0,319.34,130.23Z"/><path class="cls-12" d="M319.34,130.23a12.6,12.6,0,0,1,3.16.66c0,.68.08,1.17.07,1.29l0,.24a.5.5,0,0,1,0,.13c-.47,1.31-2.85,2.18-5.33,2-2.05-.17-3.53-1-3.7-2.06a1.37,1.37,0,0,1,.06-.66,3.41,3.41,0,0,0,.06-.91A14.23,14.23,0,0,1,319.34,130.23Z"/><path class="cls-10" d="M325.73,133.54a2.12,2.12,0,0,1,.09.8l-.05.42c0,.07,0,.15-.07.23-.82,2.26-5,3.8-9.32,3.44-3.58-.3-6.16-1.82-6.46-3.62a2.21,2.21,0,0,1,.11-1.13,1.69,1.69,0,0,1,.21-.45,6,6,0,0,1,3.35-2.34,3.41,3.41,0,0,1-.06.91,1.37,1.37,0,0,0-.06.66c.17,1,1.65,1.89,3.7,2.06,2.48.21,4.86-.66,5.33-2a.5.5,0,0,0,0-.13l0-.24c0-.12,0-.61-.07-1.29A4.87,4.87,0,0,1,325.73,133.54Z"/><path class="cls-12" d="M327.07,166.27c-1,2.66-5.9,4.5-11,4.07-4.24-.37-7.27-2.16-7.64-4.28a2.54,2.54,0,0,1,0-.78,2.63,2.63,0,0,1,.14-.57c1-2.67,5.88-4.49,11-4.06,4.52.37,7.67,2.39,7.67,4.7v.16l-.07.48C327.13,166.08,327.09,166.17,327.07,166.27Z"/><path class="cls-12" d="M308.34,138.87a9.39,9.39,0,0,1,1.89-5.65h0a1.69,1.69,0,0,0-.21.45,2.21,2.21,0,0,0-.11,1.13c.3,1.8,2.88,3.32,6.46,3.62,4.33.36,8.5-1.18,9.32-3.44,0-.08.05-.16.07-.23l.05-.42a2.12,2.12,0,0,0-.09-.8,9.37,9.37,0,0,1,1.65,5.33v25.32a9,9,0,0,1-.07,1.17h-.09c0-2.31-3.15-4.33-7.67-4.7-5.12-.43-10,1.39-11,4.06a2.63,2.63,0,0,0-.14.57,7.78,7.78,0,0,1-.07-1.09Z"/></g><g id="_Group_4" data-name="&lt;Group&gt;"><path class="cls-13" d="M334.82,177l-.07.5a.29.29,0,0,1,0,.09c-.62,1.69-3.74,2.84-7,2.58-2.45-.21-4.28-1.19-4.74-2.37l-.13-.65a1.79,1.79,0,0,1,.11-.55c.61-1.7,3.73-2.85,7-2.58C332.82,174.26,334.81,175.52,334.82,177Z"/><path class="cls-14" d="M337,162.36,334.82,177c0-1.47-2-2.73-4.86-3-3.24-.27-6.36.88-7,2.58a1.79,1.79,0,0,0-.11.55l-2.74-14.7h.05c.32,1.91,3.06,3.52,6.88,3.84,4.6.39,9-1.25,9.9-3.66A1.83,1.83,0,0,0,337,162.36Z"/><path class="cls-15" d="M330.2,157.55c4.16.36,7,2.24,6.9,4.37l-.07.44a1.83,1.83,0,0,1-.06.25c-.87,2.41-5.3,4-9.9,3.66-3.82-.32-6.56-1.93-6.88-3.84a2.45,2.45,0,0,1,.11-1.22C321.17,158.8,325.6,157.17,330.2,157.55Z"/></g><g id="_Group_5" data-name="&lt;Group&gt;"><polygon class="cls-16" points="438.88 160.99 438.11 161.46 435.98 160.22 436.75 159.76 438.88 160.99"/><polygon class="cls-16" points="440.01 157.82 436.75 159.76 435.98 159.32 439.24 157.38 440.01 157.82"/><polygon class="cls-16" points="435.98 159.32 435.21 159.79 432.94 158.47 433.71 158.01 435.98 159.32"/><polygon class="cls-16" points="436.75 159.76 435.98 160.22 435.21 159.79 435.98 159.32 436.75 159.76"/><polygon class="cls-16" points="435.98 160.22 432.86 162.09 432.09 161.64 435.21 159.79 435.98 160.22"/><polygon class="cls-16" points="434.99 163.31 434.21 163.77 432.08 162.54 432.86 162.09 434.99 163.31"/><polygon class="cls-16" points="432.08 162.54 428.86 164.45 428.09 164.02 431.31 162.11 432.08 162.54"/><polygon class="cls-16" points="432.09 161.64 432.86 162.09 432.08 162.54 431.31 162.11 432.09 161.64"/><polygon class="cls-16" points="432.09 161.64 431.31 162.11 429.04 160.79 429.82 160.33 432.09 161.64"/><polygon class="cls-16" points="428.28 160.35 429.04 160.79 425.82 162.71 425.05 162.28 428.28 160.35"/><polygon class="cls-16" points="429.06 159.89 428.28 160.35 425.94 159 426.71 158.53 429.06 159.89"/><polygon class="cls-16" points="429.82 160.33 429.04 160.79 428.28 160.35 429.06 159.89 429.82 160.33"/><polygon class="cls-16" points="432.18 158.03 432.94 158.47 429.82 160.33 429.06 159.89 432.18 158.03"/><polygon class="cls-16" points="432.95 157.58 432.18 158.03 429.88 156.7 430.66 156.25 432.95 157.58"/><polygon class="cls-16" points="433.71 158.01 432.94 158.47 432.18 158.03 432.95 157.58 433.71 158.01"/><polygon class="cls-16" points="436.98 156.07 433.71 158.01 432.95 157.58 436.21 155.63 436.98 156.07"/><polygon class="cls-16" points="436.98 155.18 436.21 155.63 433.96 154.34 434.74 153.88 436.98 155.18"/><polygon class="cls-16" points="437.75 155.61 436.98 156.07 436.21 155.63 436.98 155.18 437.75 155.61"/><polygon class="cls-16" points="440.01 156.92 439.24 157.38 436.98 156.07 437.75 155.61 440.01 156.92"/><polygon class="cls-16" points="442.91 158.59 442.14 159.05 440.01 157.82 440.77 157.37 442.91 158.59"/><polygon class="cls-16" points="440.01 156.92 440.77 157.37 440.01 157.82 439.24 157.38 440.01 156.92"/><polygon class="cls-16" points="442.99 155.16 443.75 155.6 440.77 157.37 440.01 156.92 442.99 155.16"/><polygon class="cls-16" points="444.52 155.13 446.65 156.38 445.89 156.82 443.75 155.6 444.52 155.13"/><polygon class="cls-16" points="444.52 155.13 443.75 155.6 442.99 155.16 443.76 154.69 444.52 155.13"/><polygon class="cls-16" points="443.76 154.69 442.99 155.16 440.72 153.84 441.49 153.38 443.76 154.69"/><polygon class="cls-16" points="440.72 153.84 437.75 155.61 436.98 155.18 439.95 153.41 440.72 153.84"/><polygon class="cls-16" points="441.49 153.38 440.72 153.84 439.95 153.41 440.72 152.95 441.49 153.38"/><polygon class="cls-16" points="440.72 152.95 439.95 153.41 437.75 152.14 438.53 151.69 440.72 152.95"/><polygon class="cls-16" points="444.12 150.92 443.35 151.37 441.2 150.13 441.98 149.69 444.12 150.92"/><polygon class="cls-16" points="444.12 151.82 441.49 153.38 440.72 152.95 443.35 151.37 444.12 151.82"/><polygon class="cls-16" points="444.89 151.36 444.12 151.82 443.35 151.37 444.12 150.92 444.89 151.36"/><polygon class="cls-16" points="444.89 151.36 447.15 152.68 446.39 153.13 444.12 151.82 444.89 151.36"/><polygon class="cls-16" points="447.16 153.58 444.52 155.13 443.76 154.69 446.39 153.13 447.16 153.58"/><polygon class="cls-16" points="447.91 153.11 447.16 153.58 446.39 153.13 447.15 152.68 447.91 153.11"/><polygon class="cls-16" points="447.91 153.11 450.05 154.35 449.29 154.8 447.16 153.58 447.91 153.11"/><polygon class="cls-16" points="453.97 152.01 453.2 152.47 451.06 151.24 451.83 150.78 453.97 152.01"/><polygon class="cls-16" points="454.37 149.28 451.83 150.78 451.07 150.34 453.6 148.84 454.37 149.28"/><polygon class="cls-16" points="451.06 151.24 447.91 153.11 447.15 152.68 450.3 150.8 451.06 151.24"/><polygon class="cls-16" points="451.07 150.34 451.83 150.78 451.06 151.24 450.3 150.8 451.07 150.34"/><polygon class="cls-16" points="451.07 150.34 450.3 150.8 448.03 149.49 448.8 149.04 451.07 150.34"/><polygon class="cls-16" points="448.03 149.49 444.89 151.36 444.12 150.92 447.27 149.06 448.03 149.49"/><polygon class="cls-16" points="445.95 147.39 448.04 148.6 447.27 149.06 445.17 147.84 445.95 147.39"/><polygon class="cls-16" points="448.04 148.6 448.8 149.04 448.03 149.49 447.27 149.06 448.04 148.6"/><polygon class="cls-16" points="451.33 147.54 448.8 149.04 448.04 148.6 450.56 147.09 451.33 147.54"/><polygon class="cls-16" points="454.37 148.38 453.6 148.84 451.33 147.54 452.1 147.06 454.37 148.38"/><polygon class="cls-16" points="452.1 147.06 451.33 147.54 450.56 147.09 451.33 146.63 452.1 147.06"/><polygon class="cls-16" points="449.29 145.44 451.33 146.63 450.56 147.09 448.51 145.9 449.29 145.44"/><polygon class="cls-16" points="455.24 145.2 452.1 147.06 451.33 146.63 454.47 144.76 455.24 145.2"/><polygon class="cls-16" points="458.54 143.24 456 144.75 455.24 144.31 457.8 142.78 458.54 143.24"/><polygon class="cls-16" points="455.24 144.31 454.47 144.76 452.46 143.61 453.24 143.15 455.24 144.31"/><polygon class="cls-16" points="456 144.75 455.24 145.2 454.47 144.76 455.24 144.31 456 144.75"/><polygon class="cls-16" points="458.27 146.07 457.5 146.51 455.24 145.2 456 144.75 458.27 146.07"/><polygon class="cls-16" points="461.46 145.05 459.03 146.5 458.27 146.07 460.72 144.6 461.46 145.05"/><polygon class="cls-16" points="459.03 146.5 458.26 146.96 457.5 146.51 458.27 146.07 459.03 146.5"/><polygon class="cls-16" points="457.27 150.05 456.51 150.51 454.37 149.28 455.13 148.82 457.27 150.05"/><polygon class="cls-16" points="458.26 146.96 455.13 148.82 454.37 148.38 457.5 146.51 458.26 146.96"/><polygon class="cls-16" points="455.13 148.82 454.37 149.28 453.6 148.84 454.37 148.38 455.13 148.82"/><polygon class="cls-16" points="461.16 147.73 460.4 148.19 458.26 146.96 459.03 146.5 461.16 147.73"/><polygon class="cls-16" points="464.52 149.66 463.75 150.13 461.16 148.63 461.93 148.17 464.52 149.66"/><polygon class="cls-16" points="465.29 150.11 468.31 151.85 467.53 152.31 464.52 150.56 465.29 150.11"/><polygon class="cls-16" points="461.39 152.43 464.38 154.15 463.62 154.61 460.62 152.88 461.39 152.43"/><polygon class="cls-16" points="460.63 151.99 459.87 152.45 457.27 150.94 458.03 150.49 460.63 151.99"/><polygon class="cls-16" points="457.27 150.94 454.74 152.46 453.97 152.01 456.51 150.51 457.27 150.94"/><polygon class="cls-16" points="453.2 152.47 453.96 152.92 450.82 154.79 450.05 154.35 453.2 152.47"/><polygon class="cls-16" points="454.74 152.46 453.96 152.92 453.2 152.47 453.97 152.01 454.74 152.46"/><polygon class="cls-16" points="457.32 153.94 456.56 154.41 453.96 152.92 454.74 152.46 457.32 153.94"/><polygon class="cls-16" points="461.06 156.1 460.28 156.56 457.32 154.85 458.1 154.39 461.06 156.1"/><polygon class="cls-16" points="454.17 156.72 457.12 158.43 456.35 158.87 453.41 157.17 454.17 156.72"/><polygon class="cls-16" points="450.05 155.24 447.42 156.81 446.65 156.38 449.29 154.8 450.05 155.24"/><polygon class="cls-16" points="450.82 154.79 450.05 155.24 449.29 154.8 450.05 154.35 450.82 154.79"/><polygon class="cls-16" points="450.82 154.79 453.41 156.28 452.65 156.74 450.05 155.24 450.82 154.79"/><polygon class="cls-16" points="453.7 160.42 452.92 160.88 450 159.2 450.77 158.74 453.7 160.42"/><polygon class="cls-16" points="450.77 158.74 450 159.2 449.24 158.77 450.01 158.31 450.77 158.74"/><polygon class="cls-16" points="447.42 156.81 450.01 158.31 449.24 158.77 446.65 157.27 447.42 156.81"/><polygon class="cls-16" points="447.42 156.81 446.65 157.27 445.89 156.82 446.65 156.38 447.42 156.81"/><polygon class="cls-16" points="445.89 156.82 446.65 157.27 443.68 159.04 442.91 158.59 445.89 156.82"/><polygon class="cls-16" points="443.68 159.04 442.91 159.5 442.14 159.05 442.91 158.59 443.68 159.04"/><polygon class="cls-16" points="442.91 159.5 439.64 161.44 438.88 160.99 442.14 159.05 442.91 159.5"/><polygon class="cls-16" points="446.27 160.54 445.5 160.98 442.91 159.5 443.68 159.04 446.27 160.54"/><polygon class="cls-16" points="449.92 162.64 449.16 163.09 446.26 161.43 447.02 160.97 449.92 162.64"/><polygon class="cls-16" points="445.87 165.02 445.1 165.48 442.23 163.83 443 163.36 445.87 165.02"/><polygon class="cls-16" points="442.24 162.93 441.47 163.39 438.88 161.89 439.64 161.44 442.24 162.93"/><polygon class="cls-16" points="438.88 160.99 439.64 161.44 438.88 161.89 438.11 161.46 438.88 160.99"/><polygon class="cls-16" points="438.88 161.89 435.75 163.75 434.99 163.31 438.11 161.46 438.88 161.89"/><polygon class="cls-16" points="435.75 163.75 434.97 164.21 434.21 163.77 434.99 163.31 435.75 163.75"/><polygon class="cls-16" points="434.21 163.77 434.97 164.21 431.76 166.12 431 165.69 434.21 163.77"/><polygon class="cls-16" points="435.75 163.75 438.33 165.25 437.57 165.71 434.97 164.21 435.75 163.75"/><polygon class="cls-16" points="441.95 167.33 441.17 167.78 438.33 166.15 439.1 165.69 441.95 167.33"/><path class="cls-17" d="M481.82,153.48c1.59.82,0,3.24,0,3.24l-39.23,22.76a9.47,9.47,0,0,0-.18-3.23l.07.05,26.1-15.14Z"/><polygon class="cls-18" points="467.5 148.79 466.76 148.34 464.26 146.79 463.51 146.33 461.46 145.05 460.72 144.6 458.54 143.24 457.8 142.78 455.91 141.62 453.24 143.15 452.46 143.61 449.29 145.44 448.51 145.9 446.61 144.81 446.02 143.79 455.91 138.08 481.82 153.47 468.58 161.16 468.21 160.5 463.06 157.37 462.38 157.77 460.28 156.56 461.06 156.1 463.62 154.61 464.38 154.15 467.53 152.31 468.31 151.85 470.43 150.61 467.5 148.79"/><polygon class="cls-17" points="470.43 150.61 468.31 151.85 465.29 150.11 467.5 148.79 470.43 150.61"/><polygon class="cls-18" points="442.41 176.25 432.61 170.47 433.45 169.05 435.12 168.05 437.95 169.67 441.17 167.78 441.95 167.33 445.1 165.48 445.87 165.02 449.16 163.09 451.24 164.29 449.63 165.24 454.77 168.22 468.21 160.5 468.58 161.16 442.48 176.3 442.41 176.25"/><polygon class="cls-17" points="458.43 160.08 459.21 159.62 462.38 157.77 463.06 157.37 468.21 160.5 454.77 168.22 449.63 165.24 451.24 164.29 452.01 163.85 455 162.09 455.78 161.63 458.43 160.08"/><polygon class="cls-17" points="464.52 150.56 467.53 152.31 464.38 154.15 461.39 152.43 464.52 150.56"/><polygon class="cls-16" points="467.5 148.79 465.29 150.11 464.52 149.66 466.76 148.34 467.5 148.79"/><polygon class="cls-17" points="466.76 148.34 464.52 149.66 461.93 148.17 464.26 146.79 466.76 148.34"/><polygon class="cls-16" points="465.29 150.11 464.52 150.56 463.75 150.13 464.52 149.66 465.29 150.11"/><polygon class="cls-16" points="464.52 150.56 461.39 152.43 460.63 151.99 463.75 150.13 464.52 150.56"/><polygon class="cls-16" points="464.26 146.79 461.93 148.17 461.16 147.73 463.51 146.33 464.26 146.79"/><polygon class="cls-17" points="461.16 148.63 463.75 150.13 460.63 151.99 458.03 150.49 461.16 148.63"/><polygon class="cls-17" points="463.62 154.61 461.06 156.1 458.1 154.39 460.62 152.88 463.62 154.61"/><polygon class="cls-17" points="461.46 145.05 463.51 146.33 461.16 147.73 459.03 146.5 461.46 145.05"/><polygon class="cls-18" points="462.38 157.77 459.21 159.62 457.12 158.43 460.28 156.56 462.38 157.77"/><polygon class="cls-16" points="461.93 148.17 461.16 148.63 460.4 148.19 461.16 147.73 461.93 148.17"/><polygon class="cls-16" points="460.63 151.99 461.39 152.43 460.62 152.88 459.87 152.45 460.63 151.99"/><polygon class="cls-16" points="461.16 148.63 458.03 150.49 457.27 150.05 460.4 148.19 461.16 148.63"/><polygon class="cls-17" points="458.54 143.24 460.72 144.6 458.27 146.07 456 144.75 458.54 143.24"/><polygon class="cls-16" points="460.62 152.88 458.1 154.39 457.32 153.94 459.87 152.45 460.62 152.88"/><polygon class="cls-17" points="458.26 146.96 460.4 148.19 457.27 150.05 455.13 148.82 458.26 146.96"/><polygon class="cls-17" points="457.32 154.85 460.28 156.56 457.12 158.43 454.17 156.72 457.32 154.85"/><polygon class="cls-17" points="459.87 152.45 457.32 153.94 454.74 152.46 457.27 150.94 459.87 152.45"/><polygon class="cls-18" points="459.21 159.62 458.43 160.08 456.35 158.87 457.12 158.43 459.21 159.62"/><polygon class="cls-18" points="456.35 158.87 458.43 160.08 455.78 161.63 453.7 160.42 456.35 158.87"/><polygon class="cls-16" points="458.1 154.39 457.32 154.85 456.56 154.41 457.32 153.94 458.1 154.39"/><polygon class="cls-16" points="457.27 150.05 458.03 150.49 457.27 150.94 456.51 150.51 457.27 150.05"/><polygon class="cls-17" points="457.8 142.78 455.24 144.31 453.24 143.15 455.91 141.62 457.8 142.78"/><polygon class="cls-17" points="457.5 146.51 454.37 148.38 452.1 147.06 455.24 145.2 457.5 146.51"/><polygon class="cls-16" points="457.32 154.85 454.17 156.72 453.41 156.28 456.56 154.41 457.32 154.85"/><polygon class="cls-17" points="456.56 154.41 453.41 156.28 450.82 154.79 453.96 152.92 456.56 154.41"/><polygon class="cls-17" points="456.51 150.51 453.97 152.01 451.83 150.78 454.37 149.28 456.51 150.51"/><polygon class="cls-17" points="453.41 157.17 456.35 158.87 453.7 160.42 450.77 158.74 453.41 157.17"/><path class="cls-19" d="M403.06,123.12l39.67-22.4,13.18,37.36L446,143.79l-29.31,16.92a0,0,0,0,1,0,0,2.48,2.48,0,0,1-.3.13L403,123.16ZM454,137.63l-12.12-34.37-36.53,20.63,12.32,34.72Z"/><polygon class="cls-18" points="455.78 161.63 455 162.09 452.92 160.88 453.7 160.42 455.78 161.63"/><polygon class="cls-18" points="455 162.09 452.01 163.85 449.92 162.64 452.92 160.88 455 162.09"/><polygon class="cls-17" points="454.47 144.76 451.33 146.63 449.29 145.44 452.46 143.61 454.47 144.76"/><polygon class="cls-16" points="453.41 156.28 454.17 156.72 453.41 157.17 452.65 156.74 453.41 156.28"/><polygon class="cls-20" points="441.86 103.26 453.98 137.63 417.65 158.61 405.33 123.89 441.86 103.26"/><polygon class="cls-17" points="453.6 148.84 451.07 150.34 448.8 149.04 451.33 147.54 453.6 148.84"/><polygon class="cls-16" points="453.41 157.17 450.77 158.74 450.01 158.31 452.65 156.74 453.41 157.17"/><polygon class="cls-17" points="453.2 152.47 450.05 154.35 447.91 153.11 451.06 151.24 453.2 152.47"/><polygon class="cls-17" points="452.92 160.88 449.92 162.64 447.02 160.97 450 159.2 452.92 160.88"/><polygon class="cls-17" points="452.65 156.74 450.01 158.31 447.42 156.81 450.05 155.24 452.65 156.74"/><polygon class="cls-18" points="449.92 162.64 452.01 163.85 451.24 164.29 449.16 163.09 449.92 162.64"/><polygon class="cls-17" points="450.56 147.09 448.04 148.6 445.95 147.39 448.51 145.9 450.56 147.09"/><polygon class="cls-17" points="450.3 150.8 447.15 152.68 444.89 151.36 448.03 149.49 450.3 150.8"/><polygon class="cls-16" points="450 159.2 447.02 160.97 446.27 160.54 449.24 158.77 450 159.2"/><polygon class="cls-17" points="449.29 154.8 446.65 156.38 444.52 155.13 447.16 153.58 449.29 154.8"/><polygon class="cls-17" points="449.24 158.77 446.27 160.54 443.68 159.04 446.65 157.27 449.24 158.77"/><polygon class="cls-17" points="449.16 163.09 445.87 165.02 443 163.36 446.26 161.43 449.16 163.09"/><path class="cls-18" d="M425.94,159l-3.3,1.9,2.41,1.38.77.43,2.27,1.31.76.43,2.15,1.24.76.43,2.61,1.49.75.44-1.67,1-.84,1.42-16.22-9.57.29-.16a0,0,0,0,0,0,0L446,143.79l.59,1,1.9,1.09L446,147.39l-.78.46L442,149.69l-.78.44-2.67,1.56-.78.45-3,1.75-.78.45-3.3,1.91-.78.45-3.17,1.83Z"/><polygon class="cls-17" points="445.17 147.84 447.27 149.06 444.12 150.92 441.98 149.69 445.17 147.84"/><polygon class="cls-16" points="447.02 160.97 446.26 161.43 445.5 160.98 446.27 160.54 447.02 160.97"/><polygon class="cls-17" points="446.39 153.13 443.76 154.69 441.49 153.38 444.12 151.82 446.39 153.13"/><polygon class="cls-16" points="445.5 160.98 446.26 161.43 443 163.36 442.24 162.93 445.5 160.98"/><polygon class="cls-17" points="445.89 156.82 442.91 158.59 440.77 157.37 443.75 155.6 445.89 156.82"/><polygon class="cls-17" points="445.5 160.98 442.24 162.93 439.64 161.44 442.91 159.5 445.5 160.98"/><polygon class="cls-17" points="445.1 165.48 441.95 167.33 439.1 165.69 442.23 163.83 445.1 165.48"/><polygon class="cls-17" points="443.35 151.37 440.72 152.95 438.53 151.69 441.2 150.13 443.35 151.37"/><polygon class="cls-16" points="443 163.36 442.23 163.83 441.47 163.39 442.24 162.93 443 163.36"/><polygon class="cls-17" points="442.99 155.16 440.01 156.92 437.75 155.61 440.72 153.84 442.99 155.16"/><polygon class="cls-21" points="442.73 100.72 403.06 123.12 401.11 123.01 401.08 122.96 440.81 100.54 442.73 100.72"/><path class="cls-22" d="M442.41,176.25a9.47,9.47,0,0,1,.18,3.23l-.11.06-26.09-15.4V160.9l16.22,9.57Z"/><polygon class="cls-16" points="441.47 163.39 442.23 163.83 439.1 165.69 438.33 165.25 441.47 163.39"/><polygon class="cls-17" points="442.14 159.05 438.88 160.99 436.75 159.76 440.01 157.82 442.14 159.05"/><polygon class="cls-17" points="438.88 161.89 441.47 163.39 438.33 165.25 435.75 163.75 438.88 161.89"/><polygon class="cls-17" points="438.33 166.15 441.17 167.78 437.95 169.67 435.12 168.05 438.33 166.15"/><polygon class="cls-17" points="437.75 152.14 439.95 153.41 436.98 155.18 434.74 153.88 437.75 152.14"/><polygon class="cls-17" points="436.98 156.07 439.24 157.38 435.98 159.32 433.71 158.01 436.98 156.07"/><polygon class="cls-16" points="439.1 165.69 438.33 166.15 437.57 165.71 438.33 165.25 439.1 165.69"/><polygon class="cls-16" points="437.57 165.71 438.33 166.15 435.12 168.05 434.37 167.61 437.57 165.71"/><polygon class="cls-17" points="435.98 160.22 438.11 161.46 434.99 163.31 432.86 162.09 435.98 160.22"/><polygon class="cls-17" points="434.97 164.21 437.57 165.71 434.37 167.61 431.76 166.12 434.97 164.21"/><polygon class="cls-17" points="436.21 155.63 432.95 157.58 430.66 156.25 433.96 154.34 436.21 155.63"/><polygon class="cls-17" points="432.94 158.47 435.21 159.79 432.09 161.64 429.82 160.33 432.94 158.47"/><polygon class="cls-17" points="432.08 162.54 434.21 163.77 431 165.69 428.86 164.45 432.08 162.54"/><polygon class="cls-17" points="432.18 158.03 429.06 159.89 426.71 158.53 429.88 156.7 432.18 158.03"/><polygon class="cls-17" points="429.04 160.79 431.31 162.11 428.09 164.02 425.82 162.71 429.04 160.79"/><polygon class="cls-17" points="428.28 160.35 425.05 162.28 422.64 160.9 425.94 159 428.28 160.35"/><path class="cls-23" d="M403,123.16l13.38,37.71a2.27,2.27,0,0,1-1.91-.16L401.1,123l2,.11Z"/></g><g id="_Group_6" data-name="&lt;Group&gt;"><path class="cls-7" d="M397.62,207.5v.65l.58-.32a.34.34,0,0,0-.06-.06h0Z"/><path class="cls-7" d="M372,190.81a1,1,0,0,0-.15.27.58.58,0,0,0,.51.34,1.19,1.19,0,0,1,.12-.22,2.31,2.31,0,0,1,1.43-1.08,1.5,1.5,0,0,1,1.23.22,1.85,1.85,0,0,1,.63.82c.24.14.49.29.76.43h0a2.64,2.64,0,0,0-1-1.9,2.17,2.17,0,0,0-2.44,0A3.42,3.42,0,0,0,372,190.81Z"/><path class="cls-7" d="M375.77,192.87a2.82,2.82,0,0,0-.21.38c0,.24.3.32.52.33a1.34,1.34,0,0,1,.17-.31,2.39,2.39,0,0,1,1.32-1.06,1.5,1.5,0,0,1,1.33.2,1.64,1.64,0,0,1,.64.92l.78.43a2.67,2.67,0,0,0-1-2,2.16,2.16,0,0,0-2.45,0A3.53,3.53,0,0,0,375.77,192.87Z"/><path class="cls-24" d="M395.09,204.5a.52.52,0,0,1-.51-.36,3.68,3.68,0,0,1,.23-.44,3.31,3.31,0,0,1,1.08-1.09l-.35-.21-.79-.45-1.84-1a2.32,2.32,0,0,0-1.45,1.1,3.07,3.07,0,0,0-.17.31h0c-.17,0-.51-.11-.54-.29a4.5,4.5,0,0,1,.23-.43,3.29,3.29,0,0,1,1.15-1.14l-.34-.19-.73-.42L389,198.67a2.4,2.4,0,0,0-1.26,1,3.48,3.48,0,0,0-.22.43v0a.62.62,0,0,1-.54-.3h0a2.77,2.77,0,0,1,.28-.54,3.09,3.09,0,0,1,1-1l-.28-.17c-.26-.13-.51-.28-.75-.42l-2-1.11a2.26,2.26,0,0,0-1.35,1.05,2.85,2.85,0,0,0-.17.35h0c-.19,0-.51-.1-.51-.32h0a2.56,2.56,0,0,1,.22-.4,3.39,3.39,0,0,1,1.06-1.1l-.34-.19-.71-.41-2.12-1.21a2.48,2.48,0,0,0-1.25,1c-.07.11-.13.24-.2.37s-.51-.12-.52-.32.16-.3.25-.45a3.33,3.33,0,0,1,1-1,1.75,1.75,0,0,1-.27-.16l-.78-.43-2-1.12a2.39,2.39,0,0,0-1.32,1.06,1.34,1.34,0,0,0-.17.31c-.22,0-.49-.09-.52-.33a2.82,2.82,0,0,1,.21-.38,3.53,3.53,0,0,1,1.06-1.08,3.79,3.79,0,0,1-.34-.2c-.27-.14-.52-.29-.76-.43l-1.86-1a2.31,2.31,0,0,0-1.43,1.08,1.19,1.19,0,0,0-.12.22.58.58,0,0,1-.51-.34,1,1,0,0,1,.15-.27,3.42,3.42,0,0,1,1.07-1.1h0l-18,9.43a.6.6,0,0,0-.13.09L380.45,214l17.65-10.08-.07-.06-.06,0-1.32-.75a2.34,2.34,0,0,0-1.36,1.08,3.22,3.22,0,0,0-.2.37Z"/><path class="cls-7" d="M385.24,196.57a1.51,1.51,0,0,1,1.32.19,2,2,0,0,1,.66.92c.24.14.49.29.75.42a2.74,2.74,0,0,0-1-2,2.17,2.17,0,0,0-2.45,0,3.39,3.39,0,0,0-1.06,1.1,2.56,2.56,0,0,0-.22.4h0c0,.22.32.37.51.32h0a2.85,2.85,0,0,1,.17-.35A2.26,2.26,0,0,1,385.24,196.57Z"/><path class="cls-25" d="M355.35,201.12l24.94,14.41.64-.37,16.69-9.53.35-.19s.58-1.1.13-1.56L380.45,214l-25.52-14.74c-.63.48-.18,1.56-.18,1.56Z"/><path class="cls-25" d="M397.62,208.15l-17,9.69-.09.06L355.1,203.19l-.08,0c-.63.48-.18,1.55-.18,1.55l25.55,14.75,17.67-10.09s.57-1.08.14-1.54Z"/><path class="cls-26" d="M355.19,203.05a.85.85,0,0,1-.09.14l25.44,14.71.09-.06-.06-.11a2.75,2.75,0,0,0,.36-2.57l-.64.37-24.94-14.41A3.39,3.39,0,0,1,355.19,203.05Z"/><path class="cls-7" d="M381.31,194.32a1.54,1.54,0,0,1,1.41.18,1.89,1.89,0,0,1,.71,1l.71.41a2.7,2.7,0,0,0-1-2.11,2.17,2.17,0,0,0-2.51.09,3.33,3.33,0,0,0-1,1c-.09.15-.17.3-.25.45s.33.37.52.32.13-.26.2-.37A2.48,2.48,0,0,1,381.31,194.32Z"/><path class="cls-27" d="M380.57,217.73l.06.11,17-9.69v-2.52l-16.69,9.53A2.75,2.75,0,0,1,380.57,217.73Z"/><path class="cls-7" d="M388.25,198.27a3.09,3.09,0,0,0-1,1,2.77,2.77,0,0,0-.28.54h0a.62.62,0,0,0,.54.3v0a3.48,3.48,0,0,1,.22-.43,2.4,2.4,0,0,1,1.26-1,1.54,1.54,0,0,1,1.4.18,1.78,1.78,0,0,1,.69,1l.73.42a2.71,2.71,0,0,0-1.05-2.1A2.15,2.15,0,0,0,388.25,198.27Z"/><path class="cls-7" d="M392.13,200.47a3.29,3.29,0,0,0-1.15,1.14,4.5,4.5,0,0,0-.23.43c0,.18.37.33.54.29h0a3.07,3.07,0,0,1,.17-.31,2.32,2.32,0,0,1,1.45-1.1,1.56,1.56,0,0,1,1.22.23,1.79,1.79,0,0,1,.62.81l.79.45h0a2.65,2.65,0,0,0-1-1.92A2.13,2.13,0,0,0,392.13,200.47Z"/><path class="cls-7" d="M395.89,202.61a3.31,3.31,0,0,0-1.08,1.09,3.68,3.68,0,0,0-.23.44.52.52,0,0,0,.51.36v0a3.22,3.22,0,0,1,.2-.37,2.34,2.34,0,0,1,1.36-1.08,1.54,1.54,0,0,1,1.32.2,2.52,2.52,0,0,1,.41,3.2,2.72,2.72,0,0,1-.76.9v.17l.49.26h0a3.77,3.77,0,0,0,.76-1,3.31,3.31,0,0,0-.57-4.22A2.17,2.17,0,0,0,395.89,202.61Z"/></g><path class="cls-28" d="M515.74,54.89a14.46,14.46,0,0,0-3.94,4.63q-2.15-3.09-4.39-6.2-1.64-2.26-3.34-4.52c2.58.79,5.89-.34,8.61.48l.13-.11C514.16,50.83,514.77,53.05,515.74,54.89Z"/><path class="cls-5" d="M501.1,46.76c-1.5,2.85,1.83,6.28,6.31,6.56q2.25,3.1,4.39,6.2a13.2,13.2,0,0,0-.81,1.65c-3.78,1.15-7.7,2.53-11.58,4A34.7,34.7,0,0,1,480,54.6c-4.29-4.79-9.42-14.06-8.89-21.48a139.51,139.51,0,0,0,14.91-4A128.8,128.8,0,0,1,504.07,48.8a4.52,4.52,0,0,1-2.67-2.09Z"/><path class="cls-28" d="M504.07,48.8q1.71,2.25,3.34,4.52c-4.48-.28-7.81-3.71-6.31-6.56l.3,0A4.52,4.52,0,0,0,504.07,48.8Z"/><path class="cls-6" d="M499.41,65.18c-5.51,2.13-11,4.47-15.81,6.69-8.91-13-22.9-26.82-31-34.93,5.2-1,12-2.34,18.53-3.82-.53,7.42,4.6,16.69,8.89,21.48A34.7,34.7,0,0,0,499.41,65.18Z"/><g id="_Group_7" data-name="&lt;Group&gt;"><path class="cls-29" d="M393.06,167.47a10.32,10.32,0,0,0,.69,1.74L377,179.92a16.09,16.09,0,0,1-.91-3.79,11.76,11.76,0,0,1,.39-4.42l-.05-.07,16.89-10.45a12.58,12.58,0,0,0-.58,3.09A12.92,12.92,0,0,0,393.06,167.47Z"/><path class="cls-30" d="M375.86,170.76l20.2-12.5a1.81,1.81,0,0,1-.11,1.3l-2.64,1.63-16.89,10.45-.68.42-.31-.12A8.9,8.9,0,0,1,375.86,170.76Z"/><path class="cls-30" d="M377.42,181l18.95-11.73a1.77,1.77,0,0,1-.13,1.29L376.8,182.61l0-.06h0a17.5,17.5,0,0,1-1.81-5.87,12.32,12.32,0,0,1,.47-4.74l.31.12.68-.42.05.07a11.76,11.76,0,0,0-.39,4.42,16.09,16.09,0,0,0,.91,3.79C377.14,180.34,377.29,180.71,377.42,181Z"/><path class="cls-31" d="M393.06,167.47l3.31,1.8L377.42,181c-.13-.29-.28-.66-.43-1.08l16.76-10.71A10.32,10.32,0,0,1,393.06,167.47Z"/><path class="cls-32" d="M375,176.68a17.5,17.5,0,0,0,1.81,5.87h0c-.28.52-30.48-16.57-30.48-16.57a9.93,9.93,0,0,1-1.37-5.17,12.34,12.34,0,0,1,1.67-6l29.28,15.92a8.9,8.9,0,0,0-.43,1.18A12.32,12.32,0,0,0,375,176.68Z"/><polygon class="cls-31" points="375.86 170.76 346.58 154.84 366.88 142.38 396.06 158.26 375.86 170.76"/></g><g id="_Group_8" data-name="&lt;Group&gt;"><path class="cls-33" d="M384.94,156a9.5,9.5,0,0,0,.7,1.74l-16.76,10.71a15.94,15.94,0,0,1-.92-3.79,11.76,11.76,0,0,1,.39-4.42l-.05-.07,16.89-10.46a12.28,12.28,0,0,0-.57,3.09A12.58,12.58,0,0,0,384.94,156Z"/><path class="cls-30" d="M367.75,159.31l20.2-12.5a1.85,1.85,0,0,1-.12,1.3l-2.64,1.62L368.3,160.19l-.68.42-.31-.12A9.69,9.69,0,0,1,367.75,159.31Z"/><path class="cls-30" d="M369.3,169.55l18.95-11.73a1.85,1.85,0,0,1-.12,1.3l-19.45,12,0-.06h0a17.4,17.4,0,0,1-1.81-5.87,12.49,12.49,0,0,1,.47-4.73l.31.12.68-.42.05.07a11.76,11.76,0,0,0-.39,4.42,15.94,15.94,0,0,0,.92,3.79C369,168.88,369.17,169.25,369.3,169.55Z"/><path class="cls-34" d="M384.94,156l3.31,1.8L369.3,169.55c-.13-.3-.28-.67-.42-1.08l16.76-10.71A9.5,9.5,0,0,1,384.94,156Z"/><path class="cls-35" d="M366.84,165.22a17.4,17.4,0,0,0,1.81,5.87h0c-.28.52-30.49-16.57-30.49-16.57a9.93,9.93,0,0,1-1.37-5.17,12.45,12.45,0,0,1,1.66-6l29.3,15.93a9.69,9.69,0,0,0-.44,1.18A12.49,12.49,0,0,0,366.84,165.22Z"/><polygon class="cls-36" points="367.75 159.31 338.45 143.38 358.77 130.94 387.95 146.81 367.75 159.31"/></g><g id="_Group_9" data-name="&lt;Group&gt;"><path class="cls-37" d="M556.8,50.48A34.51,34.51,0,0,1,554.42,64h0c-1.84,10.22-4.84,18.6-7.31,30.6l.13,0c-1.12,6.17-2.06,29.64-.31,47.87a16.33,16.33,0,0,1-2.19,1.8,56.86,56.86,0,0,1-5.35,3.34c-1.11.62-2.33,1.26-3.63,1.88-.32-7.15-.84-14.49-.74-21.85-.12.56-.23,1.13-.32,1.71,0-4-.29-8,.29-12.59.93-8.78,2.13-17.89,3.48-26.7,1.33-8.38,2.67-16.77,2.36-25.07-.06-1.31-.15-2.67-.29-4,.91-.57,1.85-1.14,2.83-1.72C546.29,57.56,554.4,54.55,556.8,50.48Z"/><path class="cls-37" d="M549.85,40.18c4.9-.33,6.78,4.56,6.95,10.3-2.4,4.07-10.51,7.08-13.44,8.79-1,.58-1.92,1.15-2.83,1.72-.6-7-2-14.39-3.95-18.44,2.18-.58,4.37-1.08,6.59-1.49S547.6,40.36,549.85,40.18Z"/><path class="cls-37" d="M541.55,254.61a35.22,35.22,0,0,0,.33-5.42c.63-17.49-2.87-34.36-1.85-51.05,1.41-17-1.08-33.51-.65-50.49a56.86,56.86,0,0,0,5.35-3.34c.74,14.88.86,37-.67,51.91,0,0,4.52,28.65,3.36,46.54a83.26,83.26,0,0,0-.35,9.14h0A3.27,3.27,0,0,1,545.7,254a7.8,7.8,0,0,1-4.27,1.28C541.48,255,541.52,254.83,541.55,254.61Z"/><path class="cls-38" d="M545.77,257.16c0,1.21,0,2.39.09,3.6a24.32,24.32,0,0,1-11.1,2h0c-1.61-.6-3.35-1.21-5-1.91l-.06-.13c-.27-1.37-1.8-2.09-2.6-1.08l0,0-1.11-.63c.07-.66.18-1.46.27-2.4,2.27,1.5,6.23,2.32,8.61,2.78,3.12.45,10-.8,10.87-2.19Z"/><path class="cls-39" d="M545.77,257.16h-.1c-.85,1.39-7.75,2.64-10.87,2.19-2.38-.46-6.34-1.28-8.61-2.78.11-1,.22-2.08.33-3.31,3.18,2.08,8.08,2.53,12.35,1.9h0a15.85,15.85,0,0,0,2.55.09A7.8,7.8,0,0,0,545.7,254C545.75,255.05,545.75,256.11,545.77,257.16Z"/><path class="cls-40" d="M540,198.14c-1,16.69,2.48,33.56,1.85,51.05a35.22,35.22,0,0,1-.33,5.42,19.69,19.69,0,0,1-2.67.56h0c-3.83-.43-8.07-2.22-10.41-5.23,0,0,0,0,0,0l-.71-15.4c0-1.07.09-2.16.12-3.26C528.06,224.18,526,208,526,208c.27-8,2.14-15.37,2.47-22.79.64-14.37,2.45-26.74,2.59-33.61l1.15-.45c1.25-.5,2.44-1,3.57-1.57,1.3-.62,2.52-1.26,3.63-1.88C539,164.63,541.44,181.09,540,198.14Z"/><path class="cls-40" d="M541.55,254.61c0,.22-.07.43-.12.65a15.85,15.85,0,0,1-2.55-.09A19.69,19.69,0,0,0,541.55,254.61Z"/><path class="cls-41" d="M543.16,41v.11c-2.22.41-4.41.91-6.59,1.49-3.6,1-7.15,2.13-10.69,3.4a93.62,93.62,0,0,0-11.58,5.48,63.28,63.28,0,0,1,6.81-5.56A26.87,26.87,0,0,1,529.36,42c3.12-.91,6.57-2,9.83-1.89a11.37,11.37,0,0,1,3.66.65A1.24,1.24,0,0,0,543.16,41Z"/><path class="cls-42" d="M540.82,65c.31,8.3-1,16.69-2.36,25.07-1.35,8.81-2.55,17.92-3.48,26.7-.58,4.54-.25,8.54-.29,12.59-1.15,7-.85,15.07-2.64,21.31l.13.4-1.15.45a54.57,54.57,0,0,1-6.19,1.94,40.9,40.9,0,0,1-11.91,1.27c-.11-6.36-.44-12.8-.82-19.22l.32.11c-.06-1.68-.13-3.38-.12-5.07l-.51-.22c-.35-6-.72-11.9-1-17.78,1.64,1,3.06,2.34,4.7,3.29a22.74,22.74,0,0,1-3.58-10.2c-.16-4.78,3-11.19,4.71-15.65a52.27,52.27,0,0,1,10.09-17.38A59.64,59.64,0,0,1,540.53,61C540.67,62.36,540.76,63.72,540.82,65Z"/><path class="cls-43" d="M548.31,8.06c-.87-1.64-2.73-2.91-4.1-4a20,20,0,0,0-12.59-4,30.2,30.2,0,0,0-8.56,1.91l0-.09a15.21,15.21,0,0,0-1.8.91c-3,1.73-5.94,4.2-9.36,2-2.41,4.37,2,6.32,4.59,9.25a7,7,0,0,1,1.34,2.15v0A65.44,65.44,0,0,1,517,28.94,16.86,16.86,0,0,0,519.24,30a11.52,11.52,0,0,1,.43-2.44h0c.59-2.68,3.8-6.42,4-1.7a12.6,12.6,0,0,1-.49,2.9c-.17.64-.38,1.32-.61,1.93h0c.17,5.43,2.68,5.55,3.33,7.24a10.28,10.28,0,0,0,3.69.35l.36,0v0c2.44-.14,6.19.16,8.78-.9a5,5,0,0,0,1.5-.9,3.18,3.18,0,0,1-.64-1.27,4.49,4.49,0,0,1,1.08-2.47,6.07,6.07,0,0,1,.39-.48c2.24-2.78,5-5.4,7-8.41h0a23.47,23.47,0,0,0,1.15-4.29c.15-.65.28-1.32.37-2a41.23,41.23,0,0,0,.41-5.83h0A17,17,0,0,0,548.31,8.06Z"/><path class="cls-44" d="M538.87,255.17c-4.27.63-9.17.18-12.35-1.9.1-1.11.2-2.29.31-3.57a6.07,6.07,0,0,1,1.63.24C530.8,253,535,254.74,538.87,255.17Z"/><path class="cls-37" d="M536.58,42.55c2,4.05,3.35,11.49,3.95,18.44a59.64,59.64,0,0,0-13.8,11.65A52.27,52.27,0,0,0,516.64,90c-1.7,4.46-4.87,10.87-4.71,15.65a22.74,22.74,0,0,0,3.58,10.2c-1.64-1-3.06-2.34-4.7-3.29.27,5.88.64,11.82,1,17.78-4.15-1.87-9.71-3.87-12.57-6.37a29.42,29.42,0,0,0,.63,5c1.72,3.14,8.6,5.15,12.25,6.51.38,6.42.71,12.86.82,19.22a29.91,29.91,0,0,1-16.11-5.51c-.23-.15-.46-.33-.69-.5,0-1.15-.1-5.38-.26-11.37-.19-6.8-.42-15.85-.59-25.24,0-2.53-.08-5.07-.11-7.6.3-.46.62-.92.94-1.4,6.86-10.29,16.32-25.93,20.78-32.78l-.08,0c4.23-6.54-1.43-15.86-8.1-16.18,1.11-.54,2.17-1,3.08-1.45l.07,0c.82-.38,1.64-.79,2.45-1.21A93.62,93.62,0,0,1,525.89,46C529.43,44.68,533,43.51,536.58,42.55Z"/><path class="cls-45" d="M521,35.52c0-1,0-1.82-.06-2.47.62.11,1.24-1,1.75-2.34.17,5.43,2.68,5.55,3.33,7.24a10.28,10.28,0,0,0,3.69.35l.36,0v0c2.44-.14,6.19.16,8.78-.9a10.53,10.53,0,0,0,.39,2.7c-3.26-.06-6.71,1-9.83,1.89a26.87,26.87,0,0,0-8.24,3.87c0-1.39-.08-3.52-.1-5.72C521,38.56,521,36.92,521,35.52Z"/><path class="cls-40" d="M535,127.68c-.1,7.36.42,14.7.74,21.85-1.13.54-2.32,1.07-3.57,1.57l-.13-.4c1.79-6.24,1.49-14.31,2.64-21.31C534.78,128.81,534.89,128.24,535,127.68Z"/><path class="cls-46" d="M526.52,253.27c-.11,1.23-.22,2.34-.33,3.31s-.2,1.74-.27,2.4c-.13,1-.23,1.66-.29,1.95a1.78,1.78,0,0,1-.46,1.77,4,4,0,0,1-1.51.91l-.14-.7c0-3.32.07-6,.11-9.33.23-19.08-1.28-31.86-1.53-50.93-.22-16.28,2.13-32.9,2.74-49.16a54.57,54.57,0,0,0,6.19-1.94c-.14,6.87-1.95,19.24-2.59,33.61-.33,7.42-2.2,14.77-2.47,22.79,0,0,2.09,16.23,1.88,23.29,0,1.1-.07,2.19-.12,3.26-.22,5.76-.56,11-.9,15.2C526.72,251,526.62,252.16,526.52,253.27Z"/><path class="cls-38" d="M525.82,265.54a14.28,14.28,0,0,1,.37,3.56,21.32,21.32,0,0,1-8.32,3c-.77.15-3.42.43-3.42.43-.8-.32-.7-1.3-1.33-1.49-1.6-.5-3.42.56-4.78,1.15a16.82,16.82,0,0,1-2.29.85c-.78.08-2,.12-3,.23-2.19,0-4.68,0-6.88-.11a31.51,31.51,0,0,1-9.47-2c-.12-1.78-.25-2.66-.26-3.65h0c2.83,3.07,14.16,2.37,17,2.37C505.3,269.82,520.86,267.71,525.82,265.54Z"/><path class="cls-39" d="M525.31,262.82c.13.8.33,1.75.51,2.72-5,2.17-20.52,4.28-22.38,4.31-2.8,0-14.13.7-17-2.37h0c-.34-.44,3.08-3.64,3.54-3.89,0,0,2.46-.06,3.71-.22-3.85,2.74,7.88,1.71,9.49,1.62,2.87-.32,9.05,0,12.68-1.43a14.33,14.33,0,0,0,7.77.05,4,4,0,0,0,1.51-.91Z"/><path class="cls-47" d="M515.89,263.56a17,17,0,0,1-9.64-6.15c-.28-2.93-.54-5.85-.8-8.75-.57-6.43-1.11-12.81-1.63-19.18-.27-3.31-.54-6.63-.82-9.94-1.83-22.69-3.62-45.54-6.18-70.29a29.91,29.91,0,0,0,16.11,5.51,40.9,40.9,0,0,0,11.91-1.27c-.61,16.26-3,32.88-2.74,49.16.25,19.07,1.76,31.85,1.53,50.93,0,3.32-.07,6-.11,9.33l.14.7A14.33,14.33,0,0,1,515.89,263.56Z"/><path class="cls-28" d="M523.25,28.77c-.17.64-.38,1.32-.61,1.93h0c-.51,1.36-1.13,2.45-1.75,2.34,0,.65,0,1.51.06,2.47-1.78,1.08-5.21,2.59-5.81,3.95a2.91,2.91,0,0,1-1.26-2.2,3.64,3.64,0,0,0,.24-.35h0c2-1.34,2.44-5.16,2.47-7.95l.4,0A16.86,16.86,0,0,0,519.24,30a11.52,11.52,0,0,1,.43-2.44h0c.59-2.68,3.8-6.42,4-1.7A12.6,12.6,0,0,1,523.25,28.77Z"/><path class="cls-48" d="M521,40.15h-.18a40.65,40.65,0,0,1-5.23-.44,3.42,3.42,0,0,1-.47-.25c.6-1.36,4-2.87,5.81-3.95C521,36.92,521,38.56,521,40.15Z"/><path class="cls-28" d="M517.79,16.15A65.44,65.44,0,0,1,517,28.94l-.4,0c0-.65,0-1.25,0-1.75-.09-3,0-7.57-1.15-10.36a27.23,27.23,0,0,1,1-2.89,7,7,0,0,1,1.34,2.15Z"/><path class="cls-42" d="M508.71,54.13c6.67.32,12.33,9.64,8.1,16.18l.08,0c-4.46,6.85-13.92,22.49-20.78,32.78-.31.4-.62.8-.95,1.2-3.11,3.86-6.87,7.3-11.28,5.61-1.58-1-8.23-8.18-14.92-15.9-2.86-3.3-5.73-6.69-8.2-9.7-1.65-2-3.12-3.88-4.31-5.44l-.45-.59c-.08-.09-.14-.19-.22-.29a2.18,2.18,0,0,1-.14-1.29,4.51,4.51,0,0,1,.15-.58c.67-1.86,3-4,5.44-5.69.17,1.48,2.85,4.76,3.44,5.7a52.71,52.71,0,0,0,7.56,10.27c2.29,2.37,4.6,4.88,6.91,7.25s4.31,6,7.17,7.66c.3-1.55-.64-3.43-.89-4.94a31.81,31.81,0,0,1,2.85,1.93c3.19-2.67,5.58-7.37,8-10.69,2.65-3.89,4.75-7.88,7.27-11.75a20.15,20.15,0,0,0,3.57-11.42,10.15,10.15,0,0,0-1.72-5.73,5.08,5.08,0,0,0-2-1.6,33.51,33.51,0,0,1,5.32-3Z"/><path class="cls-45" d="M514.12,36.92a3.64,3.64,0,0,1-.24.35c-.17-1.38.2-3.06,0-4.64a28.61,28.61,0,0,1-.5-8.34c.41-2.42,3.31-5,2-7.17l.06-.25c1.11,2.79,1.06,7.37,1.15,10.36,0,.5,0,1.1,0,1.75,0,2.79-.45,6.61-2.47,8Z"/><path class="cls-49" d="M512.43,135.65l-.32-.11c-.09-1.74-.2-3.46-.31-5.18l.51.22C512.3,132.27,512.37,134,512.43,135.65Z"/><path class="cls-49" d="M511.8,130.36c.11,1.72.22,3.44.31,5.18-3.65-1.36-10.53-3.37-12.25-6.51a29.42,29.42,0,0,1-.63-5C502.09,126.49,507.65,128.49,511.8,130.36Z"/><path class="cls-44" d="M515.89,263.56c-3.63,1.45-9.81,1.11-12.68,1.43-1.61.09-13.34,1.12-9.49-1.62h0c3.4-.4,9.52-4.77,12.52-6A17,17,0,0,0,515.89,263.56Z"/><path class="cls-49" d="M507.07,64.48A20.15,20.15,0,0,1,503.5,75.9c-2.52,3.87-4.62,7.86-7.27,11.75-2.38,3.32-4.77,8-8,10.69a31.81,31.81,0,0,0-2.85-1.93c.25,1.51,1.19,3.39.89,4.94-2.86-1.65-4.87-5.29-7.17-7.66s-4.62-4.88-6.91-7.25a52.71,52.71,0,0,1-7.56-10.27c-.59-.94-3.27-4.22-3.44-5.7a29.35,29.35,0,0,1,4.94-2.82c.29-.13.57-.23.81-.32a4.47,4.47,0,0,1,1-.28l.12-.09c.46.65.94,1.29,1.4,1.92.27.35.52.7.79,1,.82,1.1,1.65,2.19,2.48,3.26.47.62.94,1.22,1.39,1.82h0c.56.71,1.1,1.41,1.64,2.12.94,1.22,1.87,2.43,2.77,3.65,1.94,2.58,3.77,5.14,5.43,7.79,1.1-2.1,2.31-4.33,3.56-6.6,1.53-2.82,3.12-5.69,4.63-8.39,2.29-4.14,4.36-7.88,5.72-10.43l0,0a14.48,14.48,0,0,1,2.05-2.94,25.86,25.86,0,0,1,2.16-2.12,11.41,11.41,0,0,1,1.15-1,5.08,5.08,0,0,1,2,1.6A10.15,10.15,0,0,1,507.07,64.48Z"/><path class="cls-50" d="M461.23,70.47c-2.47,1.72-4.77,3.83-5.44,5.69a11.34,11.34,0,0,0-1.28-1.78l-.09-.11c0-.06.05-.13.08-.2,1.05-2.5,3.84-5.09,6.68-6.83a15.36,15.36,0,0,1,4.3-1.92c.19.79.48,1.49.69,2.33A29.35,29.35,0,0,0,461.23,70.47Z"/><path class="cls-28" d="M460.19,62.9a7.55,7.55,0,0,1,1,4.34c-2.84,1.74-5.63,4.33-6.68,6.83a.71.71,0,0,1-.29,0,57.91,57.91,0,0,1-5.71-1.41c-.6-2.47,4.13-6.41,5.87-7.74S458.18,63.37,460.19,62.9Z"/><path class="cls-45" d="M459.58,61.81c.23.4.43.76.61,1.09-2,.47-3.94.53-5.82,2s-6.47,5.27-5.87,7.74l-2.77-.82c-.9-.56-1.54-.88-2.1-1.17L443,70.3h0a9.79,9.79,0,0,1-1.45-.91,6.4,6.4,0,0,1-.78-.59A7.13,7.13,0,0,1,439.29,67c-.74-1.1-1-1.12-2-2.45.66-.65,2.27,0,3.53,1.08A4.36,4.36,0,0,1,442.54,68L443,68c1,.16,1.36.21,2.55.37-.57-.42-1.5-1.11-2.53-1.93-.68-.54-1.4-1.14-2.1-1.76-2.23-2-4.18-4.2-3.47-5.41-.13-.08-.26-.14-.38-.2-.18-.45-.26-.74.09-1.12a7.1,7.1,0,0,1,2.71.42c.25-.49.92-.67,1.8-.63a10.35,10.35,0,0,1,2.21.35A68.24,68.24,0,0,1,451,60.58c1.68,1.2,3.61.51,5.17,1.58.05-.48,0-1.62.14-2.83.16-2,.65-4.31,2.31-3.82a2.65,2.65,0,0,1,.64.31l0,.13c-1.33,1.78-.56,4,.31,5.83C459.57,61.79,459.58,61.79,459.58,61.81Z"/><path class="cls-51" d="M454.5,74.07c0,.07-.06.14-.08.2a1.64,1.64,0,0,1-.21-.25A.71.71,0,0,0,454.5,74.07Z"/></g></g></g></svg>