<svg xmlns="http://www.w3.org/2000/svg" viewBox="0 0 387.05 415.54"><defs><style>.cls-1{fill:#292f2f;}.cls-2{fill:#3d363d;}.cls-3{fill:#322b32;}.cls-4{fill:#1c2122;}.cls-5{fill:#303637;}.cls-6{fill:#62696a;}.cls-7{fill:#000025;}.cls-8{fill:#3d4345;}.cls-9{fill:#8c8e8f;}.cls-10{fill:#f9a873;}.cls-11{fill:#272027;}.cls-12{fill:#000027;}.cls-13{fill:#fbb686;}.cls-14{fill:#441600;}.cls-15{fill:#091239;}.cls-16{fill:#000015;}.cls-17{fill:#07213f;}.cls-18{fill:#060404;}.cls-19{fill:#2d0700;}.cls-20{fill:#011a20;}.cls-21{fill:#f9a36d;}.cls-22{fill:#5f3522;}.cls-23{fill:#09000c;}.cls-24{fill:#000322;}.cls-25{fill:#60565f;}.cls-26{fill:#f89c69;}.cls-27{fill:#120803;}.cls-28{fill:#e8f6ff;}.cls-29{fill:#3b455e;}.cls-30{fill:#0a0c13;}.cls-31{fill:#001a26;}.cls-32{fill:#00080f;}.cls-33{fill:#000004;}.cls-34{fill:#05070c;}.cls-35{fill:#031220;}.cls-36{fill:#211d51;}.cls-37{fill:#141921;}.cls-38{fill:#b2ae7a;}.cls-39{fill:#ccb5a0;}.cls-40{fill:#b08c6d;}.cls-41{fill:#dedcee;}.cls-42{fill:#060214;}.cls-43{fill:#140008;}.cls-44{fill:#241e43;}.cls-45{fill:#f79151;}.cls-46{fill:#0f0d25;}.cls-47{fill:#000003;}.cls-48{fill:#13112b;}.cls-49{fill:#08031c;}.cls-50{fill:#420000;}</style></defs><title>Table_public_1</title><g id="Layer_2" data-name="Layer 2"><g id="Layer_1-2" data-name="Layer 1"><path class="cls-1" d="M385.08,235.14l-6.75.47a2.38,2.38,0,0,0-.18.22,4.92,4.92,0,0,0-1.28,3.34,5.09,5.09,0,1,0,8.21-4Z"/><path class="cls-2" d="M366.35,65.55,341.14,80l-12.05,6.86a21.83,21.83,0,0,0-7.67,8.52,24.65,24.65,0,0,0-3.1,9.58l-1.54,19.61L315.43,142l-.93,11.86-1.84,23.5-1.75,22.44,20.6-13,8-5,30.4-19.23,1.22-.76,5.16-89.09a10,10,0,0,0-1.09-5.84v0C373.53,63.92,370.27,63.32,366.35,65.55Z"/><polygon class="cls-3" points="331.51 186.73 310.92 199.75 310.8 201.33 310.75 201.28 310.78 211.04 331.51 198.23 339.48 193.28 367.45 175.97 370.45 174.13 369.88 162.45 339.48 181.68 331.51 186.73"/><path class="cls-4" d="M361.34,266a.78.78,0,0,1,0-.24l-.19.05A1.12,1.12,0,0,1,361.34,266Z"/><path class="cls-1" d="M361.34,266a1.12,1.12,0,0,0-.24-.19,16.13,16.13,0,0,0-2.55-1.75s0,.07-.06.1a5.71,5.71,0,0,0-.83,2.33,6.3,6.3,0,0,0-.05.75,5.88,5.88,0,1,0,11.75,0,5.78,5.78,0,0,0-1.08-3.39c-2.22.72-4.55,1.35-7,1.91A.78.78,0,0,0,361.34,266Z"/><path class="cls-5" d="M385.49,235.14c-5.37-2.83-22.52-10.89-42.06-5.13a39,39,0,0,1,4.77,3.24c5.21-1.23,14.42-1.24,19.12-.73a41,41,0,0,1,10.44,3.11l.57,0,6.75-.47Z"/><path class="cls-6" d="M345.19,228.39a4.73,4.73,0,0,1-1.76,1.62c19.54-5.76,36.69,2.3,42.06,5.13h.08a36.37,36.37,0,0,0-10.9-8.32l-.05,0c-10.06-4.25-24.59-4.67-31.19-2.79l-.09.16C345.22,225.38,346,226.92,345.19,228.39Z"/><path class="cls-7" d="M326.91,57.44c-.38.4-.74.8-1.09,1.15-6.18,6.2-5.69,12.92-5.58,21.24,0,.81,0,1.66.08,2.49l24.23-14.11c.26-.93.48-1.85.69-2.8.78-3.06,2-7.12,1.94-10.45h.14c.08-2.26-.3-5.24-1.49-7.09C339.73,47.1,331.36,53.06,326.91,57.44Z"/><path class="cls-6" d="M334,231.59h0c-.56,0-1.09-.11-1.63-.19a14,14,0,0,1-6.26-2.3h0a44.89,44.89,0,0,0-6.11,3.73c-9.57,6.76-16.51,16.76-20.55,28.55.61.23,1.21.47,1.87.69q2.52.94,5.27,1.75l.63.19c.1-.26.2-.54.34-.84.43-1.06.95-2.22,1.54-3.4,5.16-10.44,15.37-24,24.25-27.82l.67-.29c8.52,5.46,20.89,17.31,26.16,30.74.44,1.13.83,2.25,1.16,3.36,2.44-.56,4.77-1.19,7-1.91a.7.7,0,0,0,.19-.06C367,254.41,358,241,348.2,233.25a39,39,0,0,0-4.77-3.24C341.26,231.26,337.69,231.88,334,231.59Z"/><path class="cls-5" d="M361.29,265.76c-.33-1.11-.72-2.23-1.16-3.36C354.86,249,342.49,237.12,334,231.66l-.67.29a32.62,32.62,0,0,1-.18,4,.31.31,0,0,0,0,.09c4.87,3.47,10.61,7.1,14.24,11.81,3.53,4.49,8,11.49,11,16.11a1.64,1.64,0,0,1,.22.14,16.13,16.13,0,0,1,2.55,1.75Z"/><path class="cls-8" d="M329.3,224.74c-.62,1,.33,2.21,2.21,2.9a11.1,11.1,0,0,0,2,.51,10.75,10.75,0,0,0,6-.68,2.78,2.78,0,0,0,1.16-1,1.4,1.4,0,0,0-.26-1.71,3.22,3.22,0,0,0-.9-.73v1.42a10.25,10.25,0,0,1-6,.65,12.08,12.08,0,0,1-2-.49v-2.29a3.93,3.93,0,0,0-1.95,1.07A1,1,0,0,0,329.3,224.74Z"/><path class="cls-6" d="M331.51,217.2c-2.1,0-4.18,0-6.22.07v.15c2,.63,3.34,2.72,4,5.13a.29.29,0,0,1,.14,0,17.71,17.71,0,0,1,2.09-.38v3.48a12.08,12.08,0,0,0,2,.49,10.25,10.25,0,0,0,6-.65v-26.7l-8,5Z"/><path class="cls-9" d="M340.38,224.76a1.4,1.4,0,0,1,.26,1.71,2.78,2.78,0,0,1-1.16,1,10.75,10.75,0,0,1-6,.68,11.1,11.1,0,0,1-2-.51c-1.88-.69-2.83-1.85-2.21-2.9a1,1,0,0,1,.26-.35,3.93,3.93,0,0,1,1.95-1.07v-1.19a17.71,17.71,0,0,0-2.09.38.29.29,0,0,0-.14,0c-.31.08-.62.19-.92.27a6.61,6.61,0,0,0-3.61,2.44c-.74,1.31-.19,2.7,1.31,3.84h0a14,14,0,0,0,6.26,2.3c.54.08,1.07.16,1.63.19h0c3.71.29,7.28-.33,9.45-1.58a4.73,4.73,0,0,0,1.76-1.62c.83-1.47,0-3-1.85-4.22a11.72,11.72,0,0,0-2.82-1.27c-.33-.11-.69-.2-1-.29V224A3.22,3.22,0,0,1,340.38,224.76Z"/><path class="cls-5" d="M325.29,221.75c.1.26.26.5.34.69v.11c.92.06,1.82.19,2.73.27.3-.08.61-.19.92-.27-.65-2.41-1.94-4.5-4-5.13v4.33Z"/><path class="cls-1" d="M307.17,264l-.63-.19q-2.75-.81-5.27-1.75a6.08,6.08,0,0,0-.78,2.94,5.88,5.88,0,0,0,11.76.3,1.51,1.51,0,0,0,0-.3A5.85,5.85,0,0,0,311,261.4a1.59,1.59,0,0,0-.12-.16c-1.07.59-2.4,1.35-3.39,1.93C307.37,263.47,307.27,263.75,307.17,264Z"/><path class="cls-10" d="M311.77,48.62a23.49,23.49,0,0,1-2.58-.11c.15.68.31,1.39.43,2.1A7.17,7.17,0,0,0,311.77,48.62Z"/><polygon class="cls-11" points="331.51 198.23 310.78 211.04 310.78 211.44 310.64 211.35 310.8 216.64 331.51 203.72 339.48 198.75 367.24 181.42 367.48 176.03 367.45 175.97 339.48 193.28 331.51 198.23"/><path class="cls-12" d="M312.87,50.88c2.13-.83,4.07-1.41,6.17-2,1-.31,2.08-.62,3.18-1,.37-.12.75-.22,1.11-.36a16.52,16.52,0,0,0,1.78-.54l4.1-1.24a18.68,18.68,0,0,1-2.14-.3,19.63,19.63,0,0,1-2.06.91A35.93,35.93,0,0,1,312.8,48.6a10.84,10.84,0,0,0-3.17,2.2c-.73.76-1.45,1.57-2.1,2.35.74-.37,1.54-.72,2.3-1.06C310.91,51.64,311.9,51.23,312.87,50.88Z"/><path class="cls-13" d="M311.77,48.62a7.17,7.17,0,0,1-2.15,2s0,.12,0,.19a10.84,10.84,0,0,1,3.17-2.2C312.46,48.62,312.11,48.62,311.77,48.62Z"/><path class="cls-8" d="M309.05,259.77c-.59,1.18-1.11,2.34-1.54,3.4,1-.58,2.32-1.34,3.39-1.93l.31-.17c1.94-3.43,8.52-11.8,10.43-13.95a87.48,87.48,0,0,1,11.48-11.21,32.62,32.62,0,0,0,.18-4C324.42,235.76,314.21,249.33,309.05,259.77Z"/><path class="cls-14" d="M305.66,46.23a.94.94,0,0,0,.12.09.48.48,0,0,0,0-.15Z"/><path class="cls-15" d="M296.22,135.81a0,0,0,0,1,0,0c.1.13.21.24.31.36s0,.07.07.08a10.63,10.63,0,0,0,4.53,3.46l.28.1c1.05.4,2.18.73,3.32,1.06l.45-4.41,1-10,2.59-25.74c.68-6.83,5.35-14.77,10.59-17.8l1-.57c-.05-.83-.06-1.68-.08-2.49-.11-8.32-.6-15,5.58-21.24.35-.35.71-.75,1.09-1.15,4.45-4.38,12.82-10.34,18.92-9.57,0-.07-.1-.13-.12-.2-3.27-4.72-10-3.72-16.5-1.92L325.11,47a16.52,16.52,0,0,1-1.78.54c-.36.14-.74.24-1.11.36-1.1.33-2.18.64-3.18,1-2.1.64-4.14,1.3-6.17,2-1,.35-2,.76-3,1.21-.76.34-1.56.69-2.3,1.06-.06,0-.07,0-.09.05-1.48.74-3,1.56-4.42,2.47h0c-.9.56-1.8,1.12-2.68,1.73a3.47,3.47,0,0,1,2.95,1.37,3.55,3.55,0,0,1,.5.59A10.63,10.63,0,0,1,305.56,63c1,3.82,1.62,6.19.48,9.13l-.31.74L295.61,97.23a2.31,2.31,0,0,1,.14.19,29.46,29.46,0,0,0,2.15,2.69c.45,2.2,1,5,1.54,8.06a4.5,4.5,0,0,1,.6.14,5.37,5.37,0,0,0-.41.88c.38,2.06.77,4.17,1.22,6.26.14.81.32,1.61.47,2.41.68,3.11,1.38,6,2.11,8.25a3.1,3.1,0,0,1,.21.55c0,.15,0,.31-.05.47-2,.51-3.9,1.12-5.83,1.79a6.52,6.52,0,0,0-1.94,3.82A3.49,3.49,0,0,0,296.22,135.81Z"/><path class="cls-3" d="M257.43,144.28l7.27,4L276.78,155l5.21,2.91,5.05,2.8,6.81,3.79c2.13,1.17,5.76,1,8.5-.26a6.09,6.09,0,0,0,.8-.42c2.34-1.38,3-3.28,1.79-4.63,0,0-.06,0-.07-.05a3.29,3.29,0,0,0-.87-.68l-1-.55-4.51-2.53-.09,0-.47-.25h0l-14.09-7.84-3.25-1.78-3.77-2.11-7.59-4.22-1.63-.9a7.73,7.73,0,0,0-3.66-.81,11.51,11.51,0,0,0-5.64,1.46,5.15,5.15,0,0,0-2.2,2.29.17.17,0,0,0,0,.07,9.91,9.91,0,0,0-.15,1,1.4,1.4,0,0,0,.15.53A3,3,0,0,0,257.43,144.28Z"/><path class="cls-16" d="M280.57,145.49l3.25,1.78,14.09,7.84h0a2.17,2.17,0,0,1,.47.25l.09,0,4.51,2.53.34-3.41,1.37-13.64c-1.14-.33-2.27-.66-3.32-1.06l-.28-.1a10.63,10.63,0,0,1-4.53-3.46s-.05-.05-.07-.08-.21-.23-.31-.36a0,0,0,0,0,0,0,3.49,3.49,0,0,1-.4-3.07,6.52,6.52,0,0,1,1.94-3.82c-6.92,2.32-13.75,5.17-20.51,7.68-2.06.72-4.18,1.35-6.26,2l-1.78.57,7.59,4.22Z"/><path class="cls-17" d="M299.44,108.17c.07.33.12.68.19,1a5.37,5.37,0,0,1,.41-.88A4.5,4.5,0,0,0,299.44,108.17Z"/><path class="cls-18" d="M305.73,72.84l.31-.74c1.14-2.94.54-5.31-.48-9.13a10.63,10.63,0,0,0-1.79-3.61,3.55,3.55,0,0,0-.5-.59,3.47,3.47,0,0,0-2.95-1.37c.88-.61,1.78-1.17,2.68-1.73a14.57,14.57,0,0,0-7.06,4.62,8,8,0,0,0-1.12,1.06,8.09,8.09,0,0,0-.21.95,4.28,4.28,0,0,1,2.06,1.08c2.06,1.93,2.85,5.85,2.67,8.19A26,26,0,0,1,297.72,79a51.79,51.79,0,0,1-2.21,5.31c-.85,1.75-1.77,3.44-2.67,5l-1.07,1.29c0,.1.09.18.14.29-.37.63-.77,1.24-1.14,1.83-.74,1.16-1.48,2.28-2.21,3.46-1.11,1.78-2.21,3.56-3.35,5.36.55,2.58-1,5.17-2.79,7.66a9.26,9.26,0,0,1-2.38,2.85,4.12,4.12,0,0,1-2.12.55,4,4,0,0,1-.95-.13c-.77.07-1.78-.35-3.37-1.13-.17-.09-.33-.17-.49-.27-1.81-1-3.24-2-4.91-3-2.42-1.47-5-2.92-7.24-4.62a17.81,17.81,0,0,1-1.88-1.55h0a16,16,0,0,1-3.41-4.22,10.37,10.37,0,0,1-1-2.36,9.79,9.79,0,0,1-.51-2.18l-1.52-.77c-1-.49-2-1-3-1.47a2.44,2.44,0,0,1,0,.54v0a2.44,2.44,0,0,1-.05.67q-.12.66-.27,1.35a12,12,0,0,1-3.22,5.5,3,3,0,0,0-.36.35,3.13,3.13,0,0,0-.39.31c4,2.59,7.75,5.36,11.5,8.06,1.31,1,2.63,1.9,4,2.82l.45.31c2.25,1.57,4.54,3.11,6.87,4.51a65.07,65.07,0,0,0,10.09,5,2.5,2.5,0,0,0,.54.23c.4.16.81.33,1.21.47.59.07,1.38-.45,2.29-1.35a28,28,0,0,0,3.33-4.27,68.32,68.32,0,0,0,4.29-7.41,4.5,4.5,0,0,0,.22-.44c1.27-2.33,3.34-6.05,5.64-10.2a2.31,2.31,0,0,0-.14-.19ZM253.37,100l.1-.1a1.56,1.56,0,0,1,.13.19Z"/><path class="cls-19" d="M312.8,48.6A35.93,35.93,0,0,0,325,46.36a19.63,19.63,0,0,0,2.06-.91c.24-.12.45-.24.69-.38,5.36-2.75,13.42-6.74,15.63-12.62a20.13,20.13,0,0,0,.64-9.51c-1.48,3.73-5,8-7.47,8.56a4.16,4.16,0,0,0-.19-.73,8.27,8.27,0,0,1-.47-1.31c-1.26,6-10.65,8.66-15.46,5.62A4,4,0,0,1,319,37.27c-1.15.9-2.67,1.11-3.53-.24a5.19,5.19,0,0,1-4,3.76,8.13,8.13,0,0,1-4.4-.44c.11.52.23,1,.35,1.52-.69-.27-1.4-.52-2.1-.76a7.65,7.65,0,0,1,.43-1.33,10.92,10.92,0,0,1-2.67-1.88,4.29,4.29,0,0,1-.44,1.65,2.39,2.39,0,0,1-.37.52,2.31,2.31,0,0,1-.82.59c-1.38.54-3.12-.48-3.87-2.16l-.17,0a6.35,6.35,0,0,0,.11,3.46c.88,2.61,3.48,4.31,6.35,5.38a27.44,27.44,0,0,0,3.6,1c.54.08,1.09.15,1.7.22a23.49,23.49,0,0,0,2.58.11C312.11,48.62,312.46,48.62,312.8,48.6Zm-7.14-2.37.08-.06a.48.48,0,0,1,0,.15A.94.94,0,0,1,305.66,46.23Z"/><path class="cls-20" d="M297.79,10.4a4.71,4.71,0,0,1,.28-1.12c-.47.67-.93,1.35-1.35,2-.22.31-.45.66-.67,1,.25-.28.5-.58.79-.87S297.46,10.75,297.79,10.4Z"/><path class="cls-21" d="M302.66,39.55a4.29,4.29,0,0,0,.44-1.65,13.23,13.23,0,0,0-.38-4.54,26,26,0,0,1-4.85-9,2.72,2.72,0,0,1-.15-.54l-.18-.1c-.11,0-.19-.09-.3-.14,0,.48.11.95.14,1.43A54,54,0,0,0,301,39.61c.16.38.31.71.48,1a2.31,2.31,0,0,0,.82-.59A2.39,2.39,0,0,0,302.66,39.55Z"/><path class="cls-22" d="M297.2,23.06c-.05-.62-.06-1.21-.08-1.78a16.42,16.42,0,0,0,.43,1.9,13.66,13.66,0,0,0,8.41.21,16,16,0,0,1-.3-1.88A20.6,20.6,0,0,1,300,17.84a25.32,25.32,0,0,0,5.56.64v-.26c-3.42-1-5.86-3.41-7.86-5.72l-.87-1.06c-.29.29-.54.59-.79.87-3,3.52-4.72,7.08-.68,10.11l.69.28C296.46,22.83,296.84,23,297.2,23.06Z"/><path class="cls-14" d="M297.72,23.77a2.72,2.72,0,0,0,.15.54,26,26,0,0,0,4.85,9.05,13.23,13.23,0,0,1,.38,4.54,10.92,10.92,0,0,0,2.67,1.88,7.65,7.65,0,0,0-.43,1.33c.7.24,1.41.49,2.1.76-.12-.5-.24-1-.35-1.52a8.13,8.13,0,0,0,4.4.44,5.19,5.19,0,0,0,4-3.76c.86,1.35,2.38,1.14,3.53.24a4,4,0,0,0,1.44-2.19c4.81,3,14.2.39,15.46-5.62a8.27,8.27,0,0,0,.47,1.31,4.16,4.16,0,0,1,.19.73c2.49-.57,6-4.83,7.47-8.56a22.41,22.41,0,0,0-4-9.8c-6-8.81-13.3-14-23-13a24,24,0,0,0-9.31,1.78c-3.72,1.38-5.94,2.61-8.31,5.57a17.81,17.81,0,0,0-1.37,1.8,4.71,4.71,0,0,0-.28,1.12c-.33.35-.65.7-1,1l.87,1.06c2,2.31,4.44,4.73,7.86,5.72v.26a25.32,25.32,0,0,1-5.56-.64,20.6,20.6,0,0,0,5.65,3.67,16,16,0,0,0,.3,1.88,13.66,13.66,0,0,1-8.41-.21,16.42,16.42,0,0,1-.43-1.9c0,.57,0,1.16.08,1.78-.36-.09-.74-.23-1.14-.36l-.69-.28c.26.17.52.35.83.54s.68.38,1,.57c.11,0,.19.1.3.14Z"/><path class="cls-23" d="M297.1,178.24l-.57.06a44.9,44.9,0,0,0,1,7.49l3,1.63-.08-.12-.21-1.88.66-6.66.1-.87-3.87.35Z"/><path class="cls-7" d="M296.51,177.86c0,.14,0,.28,0,.44l.57-.06h0l3.87-.35.78-7.74a11.85,11.85,0,0,1-4.57.8A24,24,0,0,0,296.51,177.86Z"/><path class="cls-11" d="M290.63,178.83c.21,1.21.44,2.44.68,3.65a70,70,0,0,0,9.37,23.34,35.15,35.15,0,0,0,3.2,4.15v-5.31a89.69,89.69,0,0,1-6.36-18.87,44.9,44.9,0,0,1-1-7.49c0-.16,0-.3,0-.44a24,24,0,0,1,.69-6.91,7.53,7.53,0,0,1-3.35-.8l-4-2.2A60.88,60.88,0,0,0,290.63,178.83Z"/><path class="cls-18" d="M291.31,68c0-.07.07-.14.11-.2a19.09,19.09,0,0,1,1.17-3,11.2,11.2,0,0,1-3-.19v0A23.06,23.06,0,0,1,291.31,68Z"/><path class="cls-7" d="M288.42,241a4.37,4.37,0,0,0,2.83-1.18,14.23,14.23,0,0,1-.53-1.42A5.08,5.08,0,0,1,288.42,241Z"/><path class="cls-3" d="M278.46,174.92c.09.26.17.5.26.78.46,1.42,1,2.85,1.54,4.28a107,107,0,0,0,5.08,11.28,76.19,76.19,0,0,0,5.57,9.13c.76,1,1.52,2,2.26,2.89L303.88,210a35.15,35.15,0,0,1-3.2-4.15,70,70,0,0,1-9.37-23.34c-.24-1.21-.47-2.44-.68-3.65a60.88,60.88,0,0,1-.74-10.88l-1.9-1-11.24-6.25-1.21-.69a52.26,52.26,0,0,0,1.95,11.71C277.78,172.74,278.11,173.83,278.46,174.92Z"/><path class="cls-13" d="M284.31,201.5l-3.47-2c.28,3.39.56,6.8.87,10.2.1,1.06.19,2.14.29,3.2a14,14,0,0,1,3.43-1.19,27.6,27.6,0,0,1-.88-4.27A36.7,36.7,0,0,1,284.31,201.5Z"/><path class="cls-1" d="M285.79,233.36l-3.35-.3-.23,0a5.1,5.1,0,0,0,3.79,8.52,4.91,4.91,0,0,0,2.42-.6,5.08,5.08,0,0,0,2.3-2.6,5,5,0,0,0,.36-1.9,4.76,4.76,0,0,0-.6-2.38,1.2,1.2,0,0,0-.15-.3l-.56-.05Z"/><path class="cls-5" d="M289.49,230.32c-1.23.32-2.45.67-3.68,1l-.31.11q-1.25.39-2.46.84c-.16.05-.29.12-.47.18l-1.24.46.88.09.23,0,3.35.3,4,.37.56.05,1.27.13c3.76-.55,7.57-.87,11.1-1.23,5.3-.64,12-1.14,17.25.15a44.89,44.89,0,0,1,6.11-3.73C322.09,228.11,305.56,226.28,289.49,230.32Z"/><path class="cls-6" d="M324.75,225.26a6.61,6.61,0,0,1,3.61-2.44c-.91-.08-1.81-.21-2.73-.27-11.55-1.06-24-.25-36.28,4.34-1.12.42-2.23.88-3.35,1.36l-.86.67a19.74,19.74,0,0,0-1.94,1.77,15.46,15.46,0,0,0-1.94,2.25s-.05,0-.05.08a.37.37,0,0,1,.12-.07l1.24-.46c.18-.06.31-.13.47-.18q1.21-.45,2.46-.84l.31-.11c1.23-.37,2.45-.72,3.68-1,16.07-4,32.6-2.21,36.57-1.22C324.56,228,324,226.57,324.75,225.26Z"/><path class="cls-24" d="M282.21,233l-.88-.09a.37.37,0,0,0-.12.07s0-.05.05-.08a15.46,15.46,0,0,1,1.94-2.25,14.48,14.48,0,0,1,1.74-3.25,1.13,1.13,0,0,1,0-.25c-3.32,2.69-8.56,11.16-8.56,15.56,1.71-1.1,3.79-2.53,5.71-2.86a1.18,1.18,0,0,1,0-.21,5.07,5.07,0,0,1,.18-6.64Z"/><path class="cls-7" d="M278.56,175.61l.16.09c-.09-.28-.17-.52-.26-.78C278.5,175.17,278.53,175.39,278.56,175.61Z"/><path class="cls-7" d="M255.65,97.68a16,16,0,0,0,3.41,4.22h0a17.81,17.81,0,0,0,1.88,1.55c2.27,1.7,4.82,3.15,7.24,4.62,1.67,1.06,3.1,2,4.91,3,.16.1.32.18.49.27,1.59.78,2.6,1.2,3.37,1.13a4,4,0,0,0,.95.13,4.12,4.12,0,0,0,2.12-.55,9.26,9.26,0,0,0,2.38-2.85c1.75-2.49,3.34-5.08,2.79-7.66,1.14-1.8,2.24-3.58,3.35-5.36.73-1.18,1.47-2.3,2.21-3.46.37-.59.77-1.2,1.14-1.83-.05-.11-.1-.19-.14-.29l1.07-1.29c.9-1.57,1.82-3.26,2.67-5A51.79,51.79,0,0,0,297.72,79a26,26,0,0,0,1.62-7.43c.18-2.34-.61-6.26-2.67-8.19a4.28,4.28,0,0,0-2.06-1.08,8.09,8.09,0,0,1,.21-.95,10.11,10.11,0,0,0-.75.91,15.08,15.08,0,0,0-1.48,2.44,19.09,19.09,0,0,0-1.17,3c0,.06-.07.13-.11.2-1,1.71-2,3.48-2.93,5.29-.22.45-.44.89-.67,1.33-.33.68-.66,1.35-1,2.05-.83,1.74-1.6,3.56-2.4,5.41a9.93,9.93,0,0,1,1.09,0c-.33,0-.71.07-1.11.12-.55,1.3-1.07,2.59-1.62,3.91s-.95,2.37-1.44,3.58c-.33.85-.67,1.68-1,2.54-1.68,4.28-3.39,8.56-5.28,12.71q-4.72-2.85-9.86-5.75c-3.54-2-7.19-4-11-6a9.79,9.79,0,0,0,.51,2.18A10.37,10.37,0,0,0,255.65,97.68Z"/><path class="cls-7" d="M268.78,167.19l4.54,2.21c1.4.59,2.72,1.82,4.17,2.27A52.26,52.26,0,0,1,275.54,160l-.82-.45c-1.74.44-3.49.9-5.24,1.42-.6.17-1.28.36-2,.58l-.57.17a22.07,22.07,0,0,0-4.21,1.66,8.73,8.73,0,0,0-2.38,1.69A15.1,15.1,0,0,1,268.78,167.19Z"/><path class="cls-10" d="M280.84,199.51l-8.67-5c1.12,7.89,2,15.23,2.31,21v0c.29,4.66.23,8.28-.34,10.23l.05,0c-.74,2.64-1.46,5.43-2.27,8-.29.92-.6,1.8-.93,2.63,3.73-1.14,4.62-3.71,5.24-8.61.26-3.13-.12-6.72.85-9.51a11.42,11.42,0,0,1,4.92-5.45c-.1-1.06-.19-2.14-.29-3.2C281.4,206.31,281.12,202.9,280.84,199.51Z"/><path class="cls-10" d="M291.31,68a23.06,23.06,0,0,0-1.72-3.41v0a1.37,1.37,0,0,1-.39-.11c-3.65.07-8.61.61-11.74,1.84a8.84,8.84,0,0,0-2.17,1.89c-2.13,1.1-3.77,2.4-3.3,3.23a7.71,7.71,0,0,0-2.82,2.81c.38.8,2.82-.12,3.41-.41v0c-1.09.55-1.69,1.07-1.5,1.41-.95,1.08,5.78-1.25,8.37-1.93,2.46-.34,4.85-1.07,7-1.33-2.21,1.47-5.41,2.4-4.23,6.24,1.95-1,3.56-2.54,5.51-3.6.23-.44.45-.88.67-1.33C289.29,71.43,290.27,69.66,291.31,68Z"/><path class="cls-23" d="M268.48,170.18l1,.55.45.25,8.63,4.63c0-.22-.06-.44-.1-.69-.35-1.09-.68-2.18-1-3.25-1.45-.45-2.77-1.68-4.17-2.27l-4.54-2.21a15.1,15.1,0,0,0-8.44-2.16c-.17.17-.31.35-.47.52l.14.08Z"/><path class="cls-23" d="M293.17,203.28c-.74-.89-1.5-1.85-2.26-2.89l-6.31-3.51-4.17-2.32-9-5-2-1.13-8.88-4.93a22.64,22.64,0,0,0,.93,4.92l7.21,4.13,3.48,2,8.67,5,3.47,2,26.49,15.14-.16-5.29-6.76-3.77V210Z"/><path class="cls-24" d="M265.84,236.9a20.57,20.57,0,0,0-3.27,3.49c-2.8,3.65-5.55,8.75-5.62,11.86,1.71-1,3.82-2.44,5.76-2.71a18.13,18.13,0,0,1,3.14-12.39C265.85,237.07,265.84,237,265.84,236.9Z"/><path class="cls-13" d="M268.69,192.56l-7.21-4.13a22.64,22.64,0,0,1-.93-4.92l-.12-.06c.15,1.12.27,2.1.34,2.86.22,2.41.45,4.85.62,7.27.66,8.59,1.08,17.21,1.65,25.78.06,1.06.13,2.15.22,3.22a13.48,13.48,0,0,1,3.44-1.14,26.55,26.55,0,0,1-.78-4.28C265.11,209.45,267.11,200.81,268.69,192.56Z"/><path class="cls-25" d="M269.43,188.44l2,1.13,9,5,4.17,2.32,6.31,3.51a76.19,76.19,0,0,1-5.57-9.13A107,107,0,0,1,280.26,180c-.57-1.43-1.08-2.86-1.54-4.28l-.16-.09L269.93,171l-.45-.25-1-.55L260,165.63l-.14-.08-.62-.33-.14-.09a.06.06,0,0,0-.05,0,5,5,0,0,0-2.92,2.75,11,11,0,0,0-1,4.5c-.34,6.55,1.79,9.07,1.79,9.07l3.54,2,.12.06Z"/><path class="cls-25" d="M257.43,149.9l4.62,2.55,3.23,1.83.44.23.43.23,8.57,4.77.82.45,1.21.69L288,166.9l1.9,1,4,2.2a7.53,7.53,0,0,0,3.35.8,11.85,11.85,0,0,0,4.57-.8l-.78,7.74-.1.87-.66,6.66.21,1.88.08.12-3-1.63a89.69,89.69,0,0,0,6.36,18.87v2.92l6.76,3.77.14.09V211l0-9.76.05.05.11-1.58,1.75-22.44,1.84-23.5.93-11.86,1.35-17.42,1.54-19.61a24.65,24.65,0,0,1,3.1-9.58,21.83,21.83,0,0,1,7.67-8.52L341.14,80l25.21-14.41c3.92-2.23,7.18-1.63,8.82,1.19-1.86-5.34-15.3-7.45-19.66-4.91l-11,6.38L320.32,82.32l-1,.57c-5.24,3-9.91,11-10.59,17.8l-2.59,25.74-1,10-.45,4.41-1.37,13.64-.34,3.41,1,.55a3.29,3.29,0,0,1,.87.68s0,0,.07.05c1.21,1.35.55,3.25-1.79,4.63a6.09,6.09,0,0,1-.8.42c-2.74,1.3-6.37,1.43-8.5.26L287,160.74l-5.05-2.8L276.78,155l-12.08-6.72-7.27-4a3,3,0,0,1-1.36-1.44,1.4,1.4,0,0,1-.15-.53c0,.17,0,.38,0,.59C255.76,145.16,255.81,149,257.43,149.9Z"/><path class="cls-16" d="M250.64,152.51a30,30,0,0,0,2.87,10.39c.5,1.11,1,2.2,1.64,3.27.33.57.64,1.15,1,1.73a5,5,0,0,1,2.92-2.75.06.06,0,0,1,.05,0l.14.09.62.33c.16-.17.3-.35.47-.52a8.73,8.73,0,0,1,2.38-1.69,22.07,22.07,0,0,1,4.21-1.66l.57-.17c.7-.22,1.38-.41,2-.58,1.75-.52,3.5-1,5.24-1.42l-8.57-4.77-.43-.23-.44-.23-3.23-1.83-4.62-2.55c-1.62-.9-1.67-4.74-1.54-7-1.19.27-2.37.52-3.46.74a13.62,13.62,0,0,0-.81,1.73,15,15,0,0,0-1,4.74A16,16,0,0,0,250.64,152.51Z"/><path class="cls-7" d="M284.91,227.19a1.13,1.13,0,0,0,0,.25c.06.5.11,1,.2,1.48l.86-.67c1.12-.48,2.23-.94,3.35-1.36-.17-5.37-.45-10.85-3.25-15.31-.26,0-.47.1-.67.14a14,14,0,0,0-3.43,1.19,11.42,11.42,0,0,0-4.92,5.45c-1,2.79-.59,6.38-.85,9.51-.62,4.9-1.51,7.47-5.24,8.61.33-.83.64-1.71.93-2.63a8.71,8.71,0,0,1-1.66,1c-.09-4.79-.48-9.55-2.88-13.53-.25,0-.47.08-.68.1a13.48,13.48,0,0,0-3.44,1.14,11.16,11.16,0,0,0-5.05,5.33c-1,2.76-.73,6.36-1.06,9.49-.74,4.88-1.67,7.43-5.44,8.49.36-.83.69-1.71,1-2.62-2.07,1.65-6.67,2.58-9.11,3.16a16.08,16.08,0,0,0,0,7c4.23.89,8.33.26,12.69-.77.21-.14.42-.24.66-.42.07-3.11,2.82-8.21,5.62-11.86a20.57,20.57,0,0,1,3.27-3.49c0,.09,0,.17,0,.25A17.45,17.45,0,0,0,263,243.9c0,.12.06.22.08.33a21.73,21.73,0,0,0,3.75.31c.15,1.24.31,2.48.45,3.72-1.07,3,2.82,3.09,4.66,1.38a21,21,0,0,1-1.27-5.41,49.11,49.11,0,0,0,5.08-1.08,6.63,6.63,0,0,0,.64-.4C276.35,238.35,281.59,229.88,284.91,227.19Z"/><path class="cls-10" d="M257.15,237.4c.33-3.13,0-6.73,1.06-9.49a11.16,11.16,0,0,1,5.05-5.33c-.09-1.07-.16-2.16-.22-3.22-.57-8.57-1-17.19-1.65-25.78-.17-2.42-.4-4.86-.62-7.27-.07-.76-.19-1.74-.34-2.86l-3.54-2s-2.13-2.52-1.79-9.07a11,11,0,0,1,1-4.5c-.35-.58-.66-1.16-1-1.73-.6-1.07-1.14-2.16-1.64-3.27a30,30,0,0,1-2.87-10.39,16,16,0,0,1,0-2.4,15,15,0,0,1,1-4.74c-2.63.6-4.86,2.33-5.1,5.17a15.23,15.23,0,0,0,.66,5.55c1,7.17,2.71,18.48,4.37,30.4.59,4.27,1.16,8.63,1.72,12.89v0c0,.07,0,.14,0,.22,1.19,9.51,2.13,18.59,2.38,25.38v0c.18,4.71,0,8.3-.58,10.26h.05c-.79,2.6-1.55,5.37-2.44,8-.31.91-.64,1.79-1,2.62C255.48,244.83,256.41,242.28,257.15,237.4Z"/><path class="cls-10" d="M249.33,93.49q.15-.69.27-1.35a2.44,2.44,0,0,0,.05-.67h-.08c-1.08-.24-2.3-.5-3.62-.71h0c-.62-.12-1.24-.23-1.92-.33,0,0,0,0,0,0-1.26-.37-2.53-.92-3.41-1.19-.67-.27-2.83-1.63-3.25-1.54-.76.26-.86,1.32-.61,2.07a27.49,27.49,0,0,0-7.14.61c-2.37,0-5.2.09-5.44,1.52-1.16.24-2.15.62-2.41,1.37a2.67,2.67,0,0,0,2.13.59v.06a5.6,5.6,0,0,0-.83.21c-.61.16-1.8.42-1.21,1.28.43.5,11,.94,12.23.94v.12c-2.41.2-7,.7-7.37,2.21,2.69.15,9.58.15,11.93.31l.78.07c2,.91,3.5.6,5.72.29h.65a3,3,0,0,1,.36-.35A12,12,0,0,0,249.33,93.49Z"/><path class="cls-13" d="M197.65,120.21a13.7,13.7,0,0,1,1.47-.77c.29-.14.58-.26.83-.37.52-.2,1.06-.4,1.64-.59l.21-.07,1.53-.57.43-.14h0a13.24,13.24,0,0,1-1.1-1.72,2.17,2.17,0,0,1-.6-.46c-.05,0-.09-.08-.13-.11s0-.08-.05-.09a10.11,10.11,0,0,1-.78-1.2,1.4,1.4,0,0,0-.14-.27s0,0,0,0a1.68,1.68,0,0,1-.16-.3,1.57,1.57,0,0,1-.12-.19c-1,.65-1.87.12-2.62-.87l-.18.14c-.42,2.08-.7,5.19-1.12,7.51A7.6,7.6,0,0,1,195,121.7a9.75,9.75,0,0,1-3.51,1.43c-.77.09-1.56.19-2.31.3a18,18,0,0,1-2.56-.08,15.58,15.58,0,0,1,2.62,2.52c1.16-.86,3.47-2.55,5.82-4.08C196,121.21,196.82,120.68,197.65,120.21Z"/><path class="cls-1" d="M265.62,311.54l-6.86.46c-.06.06-.12.14-.2.21a5.2,5.2,0,1,0,7.06-.67Z"/><path class="cls-9" d="M259,146.38a5.42,5.42,0,0,0-1-1.66,8.47,8.47,0,0,1,.48.95A6.89,6.89,0,0,1,259,146.38Z"/><polygon class="cls-3" points="214.26 261.23 199.24 270.85 200.17 280.73 215.19 271.11 222.86 266.21 254.09 246.21 256.77 244.48 256.01 234.41 221.91 256.28 214.26 261.23"/><polygon class="cls-11" points="223.31 270.85 254.02 250.9 254.12 246.27 254.09 246.21 222.86 266.21 215.19 271.11 200.17 280.73 200.63 285.59 210.86 278.96 219.19 273.54 223.31 270.85"/><path class="cls-2" d="M257.12,143.86a8.48,8.48,0,0,0-7-1.89c-2.68.65-17.83,9.83-26.87,15.33-3,1.83-5.29,3.24-6.29,3.81-3.06,1.87-11.94,8.75-13.29,12.14a20.92,20.92,0,0,0-1.17,4,18.61,18.61,0,0,0-.29,2.55l-1.85,56.87-1.09,34.16,15-9.62,7.65-5L256,234.41l1.07-.7,3-81.55A10.94,10.94,0,0,0,259,146.4v0a6.89,6.89,0,0,0-.49-.71,8.47,8.47,0,0,0-.48-.95,8,8,0,0,0-.77-.77C257.19,143.89,257.17,143.86,257.12,143.86Z"/><path class="cls-5" d="M266.06,311.49c-5.51-2.84-23-11-42.88-5.19a39.92,39.92,0,0,1,4.87,3.31c5.31-1.27,14.7-1.27,19.51-.77a42.77,42.77,0,0,1,10.6,3.19l.6,0,6.86-.46Z"/><path class="cls-4" d="M241.45,343a.81.81,0,0,0-.09-.26.27.27,0,0,1-.17,0Z"/><path class="cls-1" d="M241.45,343l-.26-.22a18.48,18.48,0,0,0-2.58-1.76.15.15,0,0,0-.07.11,5.63,5.63,0,0,0-.84,2.34,4.27,4.27,0,0,0-.06.79,6,6,0,1,0,12,0,5.91,5.91,0,0,0-1.1-3.45c-2.25.73-4.65,1.36-7.15,1.93A.81.81,0,0,1,241.45,343Z"/><path class="cls-6" d="M225,304.65a4.59,4.59,0,0,1-1.79,1.65c19.92-5.84,37.37,2.35,42.88,5.19h0A36.35,36.35,0,0,0,255,303.07s0,0,0,0c-10.25-4.31-25-4.76-31.8-2.82l-.07.15C225,301.56,225.85,303.16,225,304.65Z"/><path class="cls-6" d="M213.58,307.92h0c-.56-.06-1.11-.11-1.67-.21a14.05,14.05,0,0,1-6.38-2.34h0a52.35,52.35,0,0,0-6.24,3.79c-9.71,6.9-16.78,17.07-20.9,29.07l1.9.74c1.7.63,3.5,1.23,5.38,1.76l.63.2c.1-.27.22-.56.34-.84.45-1.11,1-2.26,1.57-3.48,5.24-10.62,15.67-24.45,24.68-28.34.25-.11.48-.18.71-.28,8.67,5.58,21.27,17.61,26.65,31.31.42,1.13.84,2.27,1.14,3.4,2.5-.57,4.9-1.2,7.15-1.93l.19-.06c-1.43-9.53-10.66-23.26-20.65-31.1a39.92,39.92,0,0,0-4.87-3.31C221,307.58,217.36,308.21,213.58,307.92Z"/><path class="cls-5" d="M241.36,342.7c-.3-1.13-.72-2.27-1.14-3.4-5.38-13.7-18-25.73-26.65-31.31-.23.1-.46.17-.71.28a36.56,36.56,0,0,1-.16,4.05.18.18,0,0,0,0,.05c4.94,3.57,10.79,7.28,14.51,12.05,3.59,4.6,8.13,11.72,11.17,16.42a.8.8,0,0,1,.24.14,18.48,18.48,0,0,1,2.58,1.76A.27.27,0,0,0,241.36,342.7Z"/><path class="cls-8" d="M208.8,300.93c-.61,1.11.34,2.24,2.26,2.95a9,9,0,0,0,2,.5,10.51,10.51,0,0,0,6.07-.65,2.81,2.81,0,0,0,1.2-1.06,1.4,1.4,0,0,0-.25-1.7,3.5,3.5,0,0,0-1-.73v1.42a10.84,10.84,0,0,1-6.07.67,10.19,10.19,0,0,1-2-.51v-2.34a4.51,4.51,0,0,0-2,1.09C209,300.7,208.88,300.8,208.8,300.93Z"/><path class="cls-9" d="M220.11,301a1.4,1.4,0,0,1,.25,1.7,2.81,2.81,0,0,1-1.2,1.06,10.51,10.51,0,0,1-6.07.65,9,9,0,0,1-2-.5c-1.92-.71-2.87-1.84-2.26-2.95.08-.13.17-.23.26-.36a4.51,4.51,0,0,1,2-1.09v-1.21a18.38,18.38,0,0,0-2.13.39l-.14.06a3.93,3.93,0,0,0-.94.29h0a6.21,6.21,0,0,0-3.66,2.47c-.76,1.31-.19,2.73,1.32,3.89h0a14.05,14.05,0,0,0,6.38,2.34c.56.1,1.11.15,1.67.21h0c3.78.29,7.41-.34,9.6-1.62a4.59,4.59,0,0,0,1.79-1.65c.88-1.49.07-3.09-1.86-4.29a11.68,11.68,0,0,0-2.86-1.31c-.35-.1-.71-.21-1.09-.29v1.48A3.5,3.5,0,0,1,220.11,301Z"/><path class="cls-5" d="M207.85,299a3.93,3.93,0,0,1,.94-.29c-.68-2.48-2-4.61-4.07-5.26v4.42h0c.12.26.27.53.35.71v.12c.94,0,1.87.16,2.78.29Z"/><path class="cls-6" d="M208.79,298.72l.14-.06a18.38,18.38,0,0,1,2.13-.39v3.55a10.19,10.19,0,0,0,2,.51,10.84,10.84,0,0,0,6.07-.67v-8l0-20.11L210.86,279l.2,14.28c-2.14,0-4.27,0-6.34.11v.11C206.81,294.11,208.11,296.24,208.79,298.72Z"/><path class="cls-26" d="M202.66,116a13.24,13.24,0,0,0,1.1,1.72h0l-.43.14-1.53.57c.66-.2,1.36-.4,2.08-.58.25-.06.5-.13.75-.18l1-.23a4,4,0,0,0,.22-.34,2.66,2.66,0,0,0,.31-.82C205.72,116.77,203.85,116.64,202.66,116Z"/><path class="cls-10" d="M200.66,92.07a33,33,0,0,1,.31,5.48c.12,2.34-1.12,6.17.6,10.74-.4.47-.8,1-1.23,1.45a1.81,1.81,0,0,1-.18.23,54,54,0,0,0-2.25-5.93c-1.25-.74-4.27.63-2.71,3,.82,1.27,1.72,3.89,2.84,5.39.75,1,1.61,1.52,2.62.87,0,0,0,0,0,0a2,2,0,0,0,.1.21,1.68,1.68,0,0,0,.16.3s0,0,0,0a1.4,1.4,0,0,1,.14.27,10.11,10.11,0,0,0,.78,1.2s0,.07.05.09.08.09.13.11a2.17,2.17,0,0,0,.6.46c1.19.67,3.06.8,3.54.29.55-1.48-.87-8.23-1.22-11.71-.26-2-.14-3.63-.94-5.31-1.34-2.76-1.88-2.7-1.55-5.3a26.14,26.14,0,0,0-1.26-2.67l-.41.76Z"/><path class="cls-23" d="M193.65,277.69l-.27-.11-6.72-3.08a.51.51,0,0,1,.11.16l.38,3.94,0,.26,0,.4,5,2.36.45.21,1.43.67,6.56,3.09-.46-4.86Z"/><path class="cls-25" d="M206.74,153.48c-1.91,1.33-4.12,2.92-6.18,4.66,0,0,0,0,0,0-4.18,2.7-7.68,8.11-8.85,13.58a17.15,17.15,0,0,0-.43,3.22l-.16,3.32-.27,5.73-.11,2.48h0l-.81,18.14-.3,6.3-.14,3.17-.09,1.9-.09,1.93-.25,5.51-.14,3.19-.11,2.33-.57,12.92-.34,7.54-.39,8.64.11.12-9.81-4.57c2.19,8.5,6.61,16.92,8.88,20.87l6.72,3.08.27.11,6.52,3-.93-9.88,1.09-34.16,1.85-56.87a18.61,18.61,0,0,1,.29-2.55,20.92,20.92,0,0,1,1.17-4c1.35-3.39,10.23-10.27,13.29-12.14,1-.57,3.32-2,6.29-3.81,9-5.5,24.19-14.68,26.87-15.33a8.48,8.48,0,0,1,7,1.89c.05,0,.07,0,.09.09a8,8,0,0,1,.77.77,20.7,20.7,0,0,0-10.63-9,13.35,13.35,0,0,0-6.73.23l-1,.27C229.76,138.84,215.57,147.43,206.74,153.48Z"/><path class="cls-1" d="M186.27,340.93l-.63-.2c-1.88-.53-3.68-1.13-5.38-1.76a6.17,6.17,0,0,0-.79,3,6,6,0,0,0,12,.28c0-.11,0-.19,0-.28a5.93,5.93,0,0,0-1.26-3.67.94.94,0,0,0-.12-.18c-1.08.59-2.46,1.37-3.46,2C186.49,340.37,186.37,340.66,186.27,340.93Z"/><path class="cls-27" d="M189.2,123.43c.75-.11,1.54-.21,2.31-.3A9.75,9.75,0,0,0,195,121.7a7.6,7.6,0,0,0,1.72-1.59c.42-2.32.7-5.43,1.12-7.51l.18-.14c-1.12-1.5-2-4.12-2.84-5.39-1.56-2.4,1.46-3.77,2.71-3a54,54,0,0,1,2.25,5.93,1.81,1.81,0,0,0,.18-.23c.43-.49.83-1,1.23-1.45-1.72-4.57-.48-8.4-.6-10.74a33,33,0,0,0-.31-5.48l.16,0,.41-.76a11.08,11.08,0,0,0,1-2.68c-4.6-12.8-25.88-12.39-34.35-2l-.05-.07c-4.27,5.31-6.69,13.09-3.13,17.91A141.43,141.43,0,0,0,177.18,119c1.13.76,2.49,1.45,2.94,2.38a15.4,15.4,0,0,0,3.37,3c1.58.59,2,.07,3.84.23C188.15,124.69,188.33,123.46,189.2,123.43Z"/><path class="cls-28" d="M188.17,129.48h0a22,22,0,0,0,3.86-1.4c.37-.15.78-.32,1.16-.51,2-.92,4.25-2.06,6.46-3.19a.58.58,0,0,0,.14-.13c.66-.31,1.35-.64,2-1,3.82-1.94,7.48-3.72,9.93-4.33l.16,0v-.7c-.76,0-1.52-1.17-2.22-1.29h0c-.06,0-.1,0-.13,0l-.05-.21c-1.11.2-2.44.41-3.81.71l-1,.23c-.25,0-.5.12-.75.18-.72.18-1.42.38-2.08.58l-.21.07c-.58.19-1.12.39-1.64.59-.25.11-.54.23-.83.37a13.7,13.7,0,0,0-1.47.77c-.83.47-1.7,1-2.57,1.58-2.35,1.53-4.66,3.22-5.82,4.08l-.66.53c-.06,0,.57,1.43.12,2.25a3.14,3.14,0,0,1-.42.68c-.07,0-.12.1-.19.15s0,0,0,0Z"/><path class="cls-8" d="M188.18,336.61c-.58,1.22-1.12,2.37-1.57,3.48,1-.61,2.38-1.39,3.46-2l.31-.17c2-3.48,8.71-12,10.62-14.21a87.54,87.54,0,0,1,11.7-11.41,36.56,36.56,0,0,0,.16-4.05C203.85,312.16,193.42,326,188.18,336.61Z"/><path class="cls-29" d="M211.9,118.91l-.16,0c-2.45.61-6.11,2.39-9.93,4.33-.71.38-1.41.74-2.13,1.1-2.21,1.13-4.43,2.27-6.46,3.19-.38.19-.79.36-1.16.51a22,22,0,0,1-3.86,1.4h-.11l0,0c-.58.43-1.15.86-1.73,1.31a8.44,8.44,0,0,1-.72.54,36.41,36.41,0,0,0,12.66-.94c1.43-.3,2.83-.69,4.33-1.06A32.82,32.82,0,0,0,208,127c1.05-.57,2.15-1.21,3.18-1.89.29-.2.57-.39.84-.6,3.39-2.4,5.83-5.22,3.66-7.4a.13.13,0,0,0-.06,0,1,1,0,0,0-.24-.2,7.49,7.49,0,0,0-2-.71.24.24,0,0,1,0,.15,5.27,5.27,0,0,0-.78,0,24.09,24.09,0,0,1-2.88.61c.7.12,1.46,1.33,2.22,1.29Z"/><path class="cls-23" d="M187.59,258.2l-.11-.12.39-8.64c-3.51,1.59-7.52-.42-11.24-2.08a41.68,41.68,0,0,0,1.15,6.27Z"/><path class="cls-30" d="M182.67,171.71c1.34-1.83,1.73-4,1-7.17,0-.18-.08-.35-.12-.54-.14-.55-.27-1.09-.45-1.65a.08.08,0,0,0,0,0c-.52-1.12-1.06-2.22-1.61-3.31-.79-1.55-1.6-3-2.43-4.43v0c-.14-.2-.22-.38-.33-.55h0a31.57,31.57,0,0,0-5-6,11.2,11.2,0,0,0-1.14-.9.52.52,0,0,1-.11-.07,4.65,4.65,0,0,0-4.39,0h0c-.5.46-1,1-1.49,1.49-2.82,3-5.35,6.74-7.84,9.73-3.7,4.06-7.21,8.4-11.15,12.33-.81.82-1.63,1.62-2.48,2.39l-.06-.05c-5.5,4.27-12.76,12.64-12.88,20.51a5.91,5.91,0,0,0,4,3.53c3.33.94,5.84,1.05,9.46-1.77,6.35-3.27,12.73-6.91,18.93-10.73l1.74-1.09,2.07-1.28c3-1.91,6-3.86,8.95-5.82A18.37,18.37,0,0,0,182.67,171.71Z"/><path class="cls-30" d="M179.35,153.7h-.06l-.54.29c.11.17.19.35.33.55v0c.83,1.42,1.64,2.88,2.43,4.43.55,1.09,1.09,2.19,1.61,3.31a.08.08,0,0,1,0,0c.3.64.58,1.28.85,1.93a66.08,66.08,0,0,1,3.16,8.82s0,0,0,.05A50.63,50.63,0,0,1,189,184.33a34.18,34.18,0,0,1-.08,5.06,29.75,29.75,0,0,1-.85,5.22l.12-.08.65-.38c.21-.14.41-.24.61-.39l.43-9.53a20.88,20.88,0,0,1,1.18-5.94l.16-3.32a17.15,17.15,0,0,1,.43-3.22c1.17-5.47,4.67-10.88,8.85-13.58,0,0,0,0,0,0,2.06-1.74,4.27-3.33,6.18-4.66,8.83-6,23-14.64,32.86-17.27l1-.27a62.23,62.23,0,0,0-3-15.32,3.42,3.42,0,0,0-.42-.52,244.27,244.27,0,0,1-25,16.54C206.93,139.48,189,148.92,179.35,153.7Z"/><path class="cls-31" d="M184.23,278.51l-1.48-.75a28.68,28.68,0,0,1-11.85-6.18l-.9-.42-7-3.3-6.79-3.18a1.28,1.28,0,0,0-.42.13c.23,2.53.65,5.07,1.07,7.59a21.64,21.64,0,0,0,2.56,1.49s25.15,11.93,32.77,7.73l-5-2.36.07.78Z"/><path class="cls-30" d="M175,273.54l-4.12-2a28.68,28.68,0,0,0,11.85,6.18l-7-3.48C175.54,274.05,175.29,273.79,175,273.54Z"/><path class="cls-11" d="M176.63,247.36a24.54,24.54,0,0,1,.13-6.26,7.72,7.72,0,0,1-3.48-.47l-4.21-1.86a58.9,58.9,0,0,0,2,11.74,75.94,75.94,0,0,0,9.24,21,47.41,47.41,0,0,0,5.33,6.89,2,2,0,0,0,.2.21l.14.13c.43.45.86.87,1.31,1.28l-.07-.78,0-.4,0-.26-.38-3.94a.51.51,0,0,0-.11-.16c-2.27-3.95-6.69-12.37-8.88-20.87A41.68,41.68,0,0,1,176.63,247.36Z"/><path class="cls-32" d="M174,140.81c.91-.78,1.83-1.56,2.75-2.32s1.69-1.45,2.58-2.14c.71-.57,1.43-1.16,2.15-1.72,1.37-1.1,2.75-2.19,4.12-3.26a8.44,8.44,0,0,0,.72-.54c.58-.45,1.15-.88,1.73-1.31l0,0s0,0,0,0a47.79,47.79,0,0,0-11.14-.11v.2a2.49,2.49,0,0,0-2.08,1.55C173.5,133.65,173.32,138.65,174,140.81Z"/><path class="cls-25" d="M169.07,238.77l4.21,1.86a7.72,7.72,0,0,0,3.48.47,11.58,11.58,0,0,0,5.7-1.92l.18-.12c2.65-1.94,3.23-9.39.81-10.57,1.37,1.25.9,3.23-1.35,4.86a10.73,10.73,0,0,1-3.32,1.59,9.31,9.31,0,0,1-6.05,0l-8.62-3.78-8.48-3.71-21.77-9.53a2.67,2.67,0,0,1-1.72-1.84c0,2.15.38,6.73,2.26,7.54l15.76,6.91,3.57,1.55,11,4.78Z"/><path class="cls-33" d="M192.19,281.62c-7.62,4.2-32.77-7.73-32.77-7.73a21.64,21.64,0,0,1-2.56-1.49c.25,1.49.49,3,.69,4.48a136.51,136.51,0,0,0,16.2,7.37c0-3.34,5.67-1,7.09,2.07,7.16,1.9,11.51,1.68,13.27-1.51,0,0,0-1.1,0-2.31l-1.43-.67Z"/><path class="cls-28" d="M170.28,136.25a19,19,0,0,0,.59,4.53,1.5,1.5,0,0,0,.08.32,19.12,19.12,0,0,0,.6,1.9c.8-.73,1.63-1.46,2.46-2.19-.69-2.16-.51-7.16.88-9.69a14,14,0,0,0-4,1.12,12.94,12.94,0,0,0-.58,4Z"/><path class="cls-34" d="M163.69,207.05h0A36,36,0,0,0,170.4,217a.91.91,0,0,0,.1.13c.27.27.54.54.83.81s.3.26.45.39a32.91,32.91,0,0,0,17.11,8.31l.14-3.19.25-5.51.09-1.93.09-1.9.14-3.17.3-6.3.81-18.14h0l.11-2.48.27-5.73a20.88,20.88,0,0,0-1.18,5.94l-.43,9.53c-.2.15-.4.25-.61.39l-.65.38-.12.08a29.75,29.75,0,0,0,.85-5.22,34.18,34.18,0,0,0,.08-5.06,50.63,50.63,0,0,0-1.86-11.18s0,0,0-.05a66.08,66.08,0,0,0-3.16-8.82c-.27-.65-.55-1.29-.85-1.93.18.56.31,1.1.45,1.65,0,.19.08.36.12.54.69,3.13.3,5.34-1,7.17a18.37,18.37,0,0,1-5.29,4.58c-2.91,2-5.9,3.91-8.95,5.82a68.18,68.18,0,0,1-.82,13.86c-.17.88-.35,1.75-.56,2.6A29.47,29.47,0,0,1,163.69,207.05Z"/><path class="cls-35" d="M170.12,219.29l.48-.27a2.3,2.3,0,0,1,0-.26c0-.4-.1-.78-.12-1.19,0,.3-.11.6-.16.88S170.18,219,170.12,219.29Z"/><path class="cls-36" d="M170.45,217.57c0-.13,0-.3.05-.43a.91.91,0,0,1-.1-.13A5.07,5.07,0,0,0,170.45,217.57Z"/><path class="cls-23" d="M163,267.86l7,3.3.9.42,4.12,2a63.69,63.69,0,0,1-5.93-7.21l-1.63-.75h0l-2.81-1.29L162,263.05l-18.17-8.41a21.17,21.17,0,0,0,1.57,4.9l10.38,4.92.46.22Z"/><path class="cls-1" d="M159.5,312.88a5.2,5.2,0,1,0,10.39,0,5,5,0,0,0-.6-2.43c0-.11-.11-.22-.17-.33l-8.26-.73A5.19,5.19,0,0,0,159.5,312.88Z"/><path class="cls-37" d="M215.63,117.07c2.17,2.18-.27,5-3.66,7.4-.27.21-.55.4-.84.6-1,.68-2.13,1.32-3.18,1.89a32.82,32.82,0,0,1-5.35,2.41c-1.5.37-2.9.76-4.33,1.06a36.41,36.41,0,0,1-12.66.94c-1.37,1.07-2.75,2.16-4.12,3.26-.72.56-1.44,1.15-2.15,1.72-.89.69-1.74,1.42-2.58,2.14s-1.84,1.54-2.75,2.32-1.66,1.46-2.46,2.19c-1.17,1.05-2.33,2.11-3.42,3.18l-.78.74.12.13c-.23.33-.45.7-.65,1a1.54,1.54,0,0,0-.23.44c.48-.53,1-1,1.49-1.49h0a4.65,4.65,0,0,1,4.39,0,.52.52,0,0,0,.11.07,11.2,11.2,0,0,1,1.14.9,31.57,31.57,0,0,1,5,6h0l.54-.29h.06c9.67-4.78,27.58-14.22,32.92-17.06a244.27,244.27,0,0,0,25-16.54c-2.46-2.73-8.23-5.3-13.07-4.91-.34,0-5.79,1-8.83,1.63a1,1,0,0,1,.24.2A.13.13,0,0,1,215.63,117.07Z"/><path class="cls-38" d="M167.15,120.41h0a2.35,2.35,0,0,0-.72-1.67s0,0,0,0a1.94,1.94,0,0,0-1.5.37.51.51,0,0,0-.07.15A1.84,1.84,0,0,0,167.15,120.41Z"/><path class="cls-3" d="M167.28,263.7s0,0,0,0l.06.07s0,0,0,0c.57.87,1.15,1.7,1.73,2.51a63.69,63.69,0,0,0,5.93,7.21c.27.25.52.51.77.74l7,3.48,1.48.75,3.06,1.53c-.45-.41-.88-.83-1.31-1.28l-.14-.13a2,2,0,0,1-.2-.21,47.41,47.41,0,0,1-5.33-6.89,75.94,75.94,0,0,1-9.24-21,58.9,58.9,0,0,1-2-11.74l-4.39-1.92-11-4.78a48.47,48.47,0,0,0,1.69,7.56c.45,1.4.94,2.83,1.5,4.28A101.05,101.05,0,0,0,167.28,263.7Z"/><path class="cls-5" d="M164.51,307.68c-.94.29-1.89.6-2.81,1-.58.19-1.15.45-1.75.68l.91.06,8.26.73,1.3.15c3.8-.55,7.71-.88,11.31-1.23,5.38-.68,12.17-1.19,17.53.12a52.35,52.35,0,0,1,6.24-3.79C201.14,304.3,182,302.21,164.51,307.68Z"/><path class="cls-32" d="M162.94,205.33c.25.58.49,1.16.75,1.72a29.47,29.47,0,0,0,3.36-8.48c.21-.85.39-1.72.56-2.6a6.93,6.93,0,0,0-.91-.21,9.85,9.85,0,0,0-3.16-.15c-5.19.63-7.34,5.72-8.13,8.15a45.83,45.83,0,0,1,6.4,1.24C162.19,205.1,162.56,205.21,162.94,205.33Z"/><path class="cls-39" d="M163,130h.11c1.32-3.14,2.7-6.31,4-9.18a.61.61,0,0,0,.1-.41h0a1.84,1.84,0,0,1-2.32-1.2c-1.26,2.6-2.81,6-4.39,9.63a3.71,3.71,0,0,0,2.2,1.1Z"/><path class="cls-38" d="M160,130.75a3,3,0,0,0,2.16.83,1.77,1.77,0,0,1,.29-.05c.21-.49.42-1,.65-1.51,0,0,0,0,0,0H163l-.33-.05a3.71,3.71,0,0,1-2.2-1.1c-.2.45-.38.87-.59,1.33,0,.09-.09.2-.13.28A1.52,1.52,0,0,0,160,130.75Z"/><path class="cls-13" d="M162.36,131.69c-.74,1.75-1.45,3.48-2.14,5.12-1.46,1-2.6,2.19-2.25,3.42a2.1,2.1,0,0,0,.25.52c.84,1.26,2.88.4,4.74-.75h0a15.28,15.28,0,0,0,7.41,1.22,3.35,3.35,0,0,1,.49-.43,19,19,0,0,1-.59-4.53h0a12.94,12.94,0,0,1,.58-4c-.29.14-.57.26-.86.42l-.09.19c-1.94-.85-4.49-1.49-6.11-2.41h0a2.21,2.21,0,0,0-.7-.41c-.23.52-.44,1-.65,1.51A.46.46,0,0,1,162.36,131.69Z"/><path class="cls-6" d="M164.51,307.68c17.44-5.47,36.63-3.38,41-2.31-1.51-1.16-2.08-2.58-1.32-3.89a6.21,6.21,0,0,1,3.66-2.47c-.91-.13-1.84-.24-2.78-.29a90.65,90.65,0,0,0-20.13.27l-.89.12c-1.49.19-3,.45-4.5.75a74.22,74.22,0,0,0-14.85,4.66,25.51,25.51,0,0,0-3.82,3.51c-.35.42-.69.82-1,1.25,0,.05,0,.06,0,.1a.16.16,0,0,1,.12-.05c.6-.23,1.17-.49,1.75-.68C162.62,308.28,163.57,308,164.51,307.68Z"/><path class="cls-31" d="M133,287.67c0-.24-.06-.45-.08-.68,0-.06,0-.13,0-.19,0-.45-.07-1-.08-1.53l-.07,0c-4,1.65-9.41-1-13.5,2.16l.13.19c-1.27,3.69,2.15,6.13,5.52,7.8,0,0,29.23,13.89,34.21,6.45l.23,0c-.13-.75-.27-1.46-.36-2.16a7.41,7.41,0,0,1-1,.27C150.07,301.85,134.43,295.55,133,287.67Z"/><path class="cls-30" d="M155.79,264.81c0-.12,0-.23,0-.35l-10.38-4.92a21.17,21.17,0,0,1-1.57-4.9l-4.4-2s-2.73-2.55-3-9.19,3.83-7.3,3.83-7.3l1.58-.91c2.35,2.16,10.65,4,13.64,4.42a48.47,48.47,0,0,1-1.69-7.56l-3.57-1.55-15.76-6.91c-1.88-.81-2.24-5.39-2.26-7.54a1.63,1.63,0,0,1,0-.66,1.21,1.21,0,0,1,0-.19,1.06,1.06,0,0,1,.06-.19v0a.4.4,0,0,1,0-.09,3.24,3.24,0,0,1,.25-.64,5.63,5.63,0,0,1,1.75-1.87,11.41,11.41,0,0,1,5.56-2,7.6,7.6,0,0,1,3.8.46L163,219.32l4,1.74,2.55,1.12,1.45.62.08,0,9.92,4.33,1.5.66a4,4,0,0,1,1,.61s0,0,0,.05c2.42,1.18,1.84,8.63-.81,10.57l-.18.12a11.58,11.58,0,0,1-5.7,1.92,24.54,24.54,0,0,0-.13,6.26c3.72,1.66,7.73,3.67,11.24,2.08l.34-7.54.57-12.92.11-2.33a32.91,32.91,0,0,1-17.11-8.31c-.15-.13-.3-.25-.45-.39s-.56-.54-.83-.81c0,.13,0,.3-.05.43,0,.41.07.79.12,1.19a2.3,2.3,0,0,0,0,.26l-.48.27c.06-.28.11-.55.17-.84s.11-.58.16-.88a5.07,5.07,0,0,1,0-.56,36,36,0,0,1-6.71-9.95h0c-.26-.56-.5-1.14-.75-1.72-.38-.12-.75-.23-1.13-.33a45.83,45.83,0,0,0-6.4-1.24c-2.18-.29-4.41-.47-6.73-.6-7.45.44-14.5,3.82-17.82,8.8l.07.07a16,16,0,0,0-.79,1.86c-.09.21-.18.43-.26.67s-.17.47-.25.72c-1.35,4-2.67,9.72-2.3,13.63.61,6.76,4.58,47.52,5.43,56.39l.07,0c0,.55,0,1.08.08,1.53,0,.06,0,.13,0,.19,0,.23.05.44.08.68,1.43,7.88,17.07,14.18,25,12.31a7.41,7.41,0,0,0,1-.27c.44-.12.36-7.16,0-10.37-.21-1.74-.41-3.49-.59-5.13-.23-2.19-.44-4.17-.63-5.74,0-.23-.06-.48-.1-.73s-.07-.57-.11-.86c-.2-1.49-.44-3-.69-4.48C156.44,269.88,156,267.34,155.79,264.81Z"/><path class="cls-40" d="M160.22,136.81c.69-1.64,1.4-3.37,2.14-5.12l-.22-.11a3,3,0,0,1-2.16-.83,1.52,1.52,0,0,1-.26-.3c-.1.22-.18.4-.29.62-.92,2.13-1.85,4.26-2.72,6.28l-2.13,4.84-.89,2a10.17,10.17,0,0,0-.37,1.42,5.81,5.81,0,0,0,1.79,1c.08-.09.19-.18.26-.26a4.62,4.62,0,0,0,.94-1.39c.52-1.46,1.43-2.8,1.91-4.24a2.1,2.1,0,0,1-.25-.52C157.62,139,158.76,137.78,160.22,136.81Z"/><path class="cls-10" d="M159.43,131.07c-1.94,1.25-3.85,3.16-4.83,3.77v.07c-1.43.61-.6,2.32-.25,3.53s0,2.42.22,3.75l2.13-4.84C157.58,135.33,158.51,133.2,159.43,131.07Z"/><path class="cls-38" d="M153.16,148.24a5.39,5.39,0,0,0,2-1.6,5.81,5.81,0,0,1-1.79-1A7.74,7.74,0,0,0,153.16,148.24Z"/><path class="cls-23" d="M155.42,239.63c-3-.41-11.29-2.26-13.64-4.42l-1.58.91,16.72,7.79C156.36,242.46,155.87,241,155.42,239.63Z"/><path class="cls-3" d="M133.86,217.91l21.77,9.53,8.48,3.71,8.62,3.78a9.31,9.31,0,0,0,6.05,0,10.73,10.73,0,0,0,3.32-1.59c2.25-1.63,2.72-3.61,1.35-4.86,0,0,0,0,0-.05a4,4,0,0,0-1-.61l-1.5-.66L171,222.84l-.08,0-1.45-.62L167,221.06l-4-1.74-19.41-8.48a7.6,7.6,0,0,0-3.8-.46,11.41,11.41,0,0,0-5.56,2,5.63,5.63,0,0,0-1.75,1.87,3.24,3.24,0,0,0-.25.64.4.4,0,0,0,0,.09v0c0,.13,0,.51,0,1A2.67,2.67,0,0,0,133.86,217.91Z"/><path class="cls-25" d="M164.65,264.28l2.81,1.29h0l1.63.75c-.58-.81-1.16-1.64-1.73-2.51,0,0,0,0,0,0l-.06-.07s0,0,0,0a101.05,101.05,0,0,1-10.36-19.79l-16.72-7.79s-4.16.68-3.83,7.3,3,9.19,3,9.19l4.4,2L162,263.05Z"/><path class="cls-30" d="M145.06,172.94l.06.05c.85-.77,1.67-1.57,2.48-2.39-1.17-4.48-3.67-13.51-4.94-17.27a9.17,9.17,0,0,0-.32-.88,4.93,4.93,0,0,0-1.11-.54,6.51,6.51,0,0,0-1.64-.47c-4.27-.83-8.91,1.43-12.07,4.06a16.35,16.35,0,0,0-2.25,2.22c1.33,9.9,2.07,19.69,5,29.13.73,2.21,1,4.64,1.94,6.6C132.3,185.58,139.56,177.21,145.06,172.94Z"/><path class="cls-28" d="M139.59,151.44a6.51,6.51,0,0,1,1.64.47,19.65,19.65,0,0,1-.08-2.64,3.5,3.5,0,0,0-.53-.31,9.92,9.92,0,0,0-5.55-.39,18.88,18.88,0,0,0-6.86,2.44,5.62,5.62,0,0,0-1.86,1.67,29.49,29.49,0,0,1,1.17,2.82C130.68,152.87,135.32,150.61,139.59,151.44Z"/><path class="cls-41" d="M127.1,141.05c.11-2.43,1.39-6.64,2.7-7.62.66-.24.67,1,.53,2.6,0-.13.06-.26.07-.4.23-1.55.87-3.77,2.43-4.47a1.17,1.17,0,0,1,1.26.16l0,0c.76-1.43,1.64-2.35,2.41-2.28,2.5.2-1.22,5.89-.56,10.51.23,0,.48,0,.74,0,0-2.57.85-8.21,3.17-9.35l.07.13c1.67-.16.09,5-.37,9.06h0a51.35,51.35,0,0,0-.26,5.84h.08c.72-3.39,2.69-7.08,6.23-4.77,0,0-.74,1.17-1.41,2.14-.08.13-.19.26-.28.41-1.35,2.05-1.82,4.92-3.32,6a3.5,3.5,0,0,1,.53.31,19.65,19.65,0,0,0,.08,2.64,4.93,4.93,0,0,1,1.11.54,9.17,9.17,0,0,1,.32.88,80.93,80.93,0,0,0,7.84,4.48c7-4.63,13.38-11.18,19.88-16.6A15.28,15.28,0,0,1,163,140h0c-1.86,1.15-3.9,2-4.74.75-.48,1.44-1.39,2.78-1.91,4.24a4.62,4.62,0,0,1-.94,1.39c-.07.08-.18.17-.26.26a5.39,5.39,0,0,1-2,1.6,7.74,7.74,0,0,1,.16-2.6,10.17,10.17,0,0,1,.37-1.42l.89-2c-.21-1.33.13-2.4-.22-3.75s-1.18-2.92.25-3.53v-.07c1-.61,2.89-2.52,4.83-3.77.11-.22.19-.4.29-.62s.08-.19.13-.28c-7.1-4.31-15.45-9.51-19.83-12-7.94,5.55-16.5,12-24.25,17.66l.09.1c0,.11,4.84,3.36,11,7.34a5.63,5.63,0,0,1,.24-2.19Z"/><path class="cls-13" d="M140.62,149c1.5-1,2-3.9,3.32-6,.09-.15.2-.28.28-.41.67-1,1.41-2.14,1.41-2.14-3.54-2.31-5.51,1.38-6.23,4.77h-.08a51.35,51.35,0,0,1,.26-5.84h0c.46-4,2-9.22.37-9.06l-.07-.13c-2.32,1.14-3.2,6.78-3.17,9.35-.26,0-.51,0-.74,0-.66-4.62,3.06-10.31.56-10.51-.77-.07-1.65.85-2.41,2.28l0,0a1.17,1.17,0,0,0-1.26-.16c-1.56.7-2.2,2.92-2.43,4.47,0,.14-.07.27-.07.4.14-1.58.13-2.84-.53-2.6-1.31,1-2.59,5.19-2.7,7.62h0a5.63,5.63,0,0,0-.24,2.19c0,2.48.42,6.26,1.38,7.77a18.88,18.88,0,0,1,6.86-2.44A9.92,9.92,0,0,1,140.62,149Z"/><path class="cls-33" d="M124.91,295.45c-3.37-1.67-6.79-4.11-5.52-7.8l-.13-.19c-.25.19-1.94,4.54,1.35,9.51,3.82,2.59,12.41,6.5,18.63,8.86,0-3.36,5.66-1,7.08,2.06,6.12,1.63,10.19,1.71,12.34-.3a4.46,4.46,0,0,0,.94-1.22,29.26,29.26,0,0,0-.25-4.5l-.23,0C154.14,309.34,124.91,295.45,124.91,295.45Z"/><path class="cls-1" d="M148.18,377.61l-6.72.49a.9.9,0,0,0-.19.2,5,5,0,0,0-1.27,3.36,5.08,5.08,0,1,0,10.15,0A5.14,5.14,0,0,0,148.18,377.61Z"/><path class="cls-6" d="M108.37,370.9a4.79,4.79,0,0,1-1.76,1.61c19.5-5.75,36.61,2.3,42,5.1h.05a36.39,36.39,0,0,0-10.87-8.29s0,0,0,0c-10-4.24-24.54-4.66-31.14-2.77l-.09.16C108.41,367.89,109.21,369.42,108.37,370.9Z"/><path class="cls-5" d="M148.6,377.61c-5.38-2.8-22.49-10.85-42-5.1a40,40,0,0,1,4.76,3.23c5.2-1.22,14.4-1.24,19.11-.73a41.16,41.16,0,0,1,10.38,3.12l.6,0,6.72-.49Z"/><path class="cls-2" d="M129.5,208.41l-25.16,14.37-12,6.86a21.92,21.92,0,0,0-7.66,8.51,24.37,24.37,0,0,0-3.08,9.55L80,267.28l-1.35,17.37-.92,11.82-1.84,23.46-1.75,22.39,20.56-13,7.94-5L133,305.11l1.21-.77,5.16-88.89a10,10,0,0,0-1.09-5.83h0C136.66,206.8,133.38,206.2,129.5,208.41Z"/><path class="cls-1" d="M124.5,408.42a.91.91,0,0,0-.26-.19,16.91,16.91,0,0,0-2.52-1.75s-.07.07-.07.1a5.62,5.62,0,0,0-.83,2.32,6.45,6.45,0,0,0,0,.76,5.86,5.86,0,1,0,10.63-3.39c-2.2.72-4.55,1.35-7,1.91A2.17,2.17,0,0,0,124.5,408.42Z"/><path class="cls-6" d="M97.2,374.09c-.54,0-1.1-.12-1.64-.2a14.24,14.24,0,0,1-6.26-2.28,45.5,45.5,0,0,0-6.12,3.71c-9.54,6.76-16.46,16.73-20.49,28.48.61.24,1.22.48,1.85.7q2.52.94,5.28,1.74c.21.08.41.12.61.19.11-.26.21-.53.35-.82.42-1.08,1-2.23,1.55-3.41,5.12-10.41,15.33-23.95,24.17-27.77.24-.08.46-.19.68-.27,8.51,5.45,20.84,17.26,26.11,30.66.42,1.13.81,2.24,1.14,3.36,2.43-.56,4.78-1.19,7-1.91a.44.44,0,0,0,.19-.07c-1.42-9.35-10.44-22.75-20.23-30.46a40,40,0,0,0-4.76-3.23C104.46,373.77,100.9,374.38,97.2,374.09Z"/><path class="cls-4" d="M124.5,408.42a2.17,2.17,0,0,1-.07-.24l-.19.05A.91.91,0,0,1,124.5,408.42Z"/><path class="cls-5" d="M124.43,408.18c-.33-1.12-.72-2.23-1.14-3.36-5.27-13.4-17.6-25.21-26.11-30.66-.22.08-.44.19-.68.27a35,35,0,0,1-.17,4,.12.12,0,0,0,0,.07c4.86,3.47,10.6,7.11,14.23,11.79,3.53,4.5,8,11.48,11,16.08.06.05.15.09.22.14a16.91,16.91,0,0,1,2.52,1.75Z"/><path class="cls-42" d="M106.32,190.85a16.75,16.75,0,0,1,2,4.18,13.56,13.56,0,0,1-1.85-1c2.71,3.55.71,5.4-.27,9.1-.64,2.5.71,4.6,2.33,4.75.79-3,1.85-6.85,1.82-10h.16c.08-2.26-.29-5.22-1.5-7.08A9.78,9.78,0,0,0,106.32,190.85Z"/><path class="cls-42" d="M99.94,210.2a2.14,2.14,0,0,0,2,2c-5.24,4.36-11.84-2-14.32-9.13-4.65,5.75-4.23,12-4.13,19.6,0,.82,0,1.66.07,2.47l24.19-14.07c.1-.4.2-.82.32-1.24C105.56,211.85,102.28,212.9,99.94,210.2Z"/><path class="cls-9" d="M103.58,367.28a1.38,1.38,0,0,1,.25,1.71,2.57,2.57,0,0,1-1.16,1,10.41,10.41,0,0,1-5.94.68,10,10,0,0,1-2-.51c-1.89-.68-2.83-1.83-2.21-2.89a2,2,0,0,1,.25-.35,4.24,4.24,0,0,1,2-1.07v-1.18c-.73.09-1.43.23-2.09.37a.21.21,0,0,0-.12,0c-.33.09-.65.17-.94.27a6.54,6.54,0,0,0-3.6,2.44c-.75,1.31-.18,2.67,1.32,3.84a14.24,14.24,0,0,0,6.26,2.28c.54.08,1.1.17,1.64.2,3.7.29,7.26-.32,9.41-1.58a4.79,4.79,0,0,0,1.76-1.61c.84-1.48,0-3-1.85-4.21a9.59,9.59,0,0,0-2.81-1.25,5.48,5.48,0,0,0-1-.31v1.42A3.11,3.11,0,0,1,103.58,367.28Z"/><path class="cls-6" d="M94.73,359.73c-2.11,0-4.17,0-6.22.07V360c2.07.62,3.34,2.71,4,5.11a.21.21,0,0,1,.12,0c.66-.14,1.36-.28,2.09-.37v3.48a14,14,0,0,0,2,.49,10.34,10.34,0,0,0,5.94-.66V341.32l-7.94,4.95Z"/><polygon class="cls-11" points="94.73 340.79 74.05 353.6 74.05 353.97 73.92 353.9 74.05 359.16 94.73 346.27 102.67 341.31 130.38 324.04 130.61 318.66 130.59 318.6 102.67 335.88 94.73 340.79"/><polygon class="cls-3" points="94.73 329.32 74.17 342.32 74.05 343.88 74.01 343.83 74.05 353.6 94.73 340.79 102.67 335.88 130.59 318.6 133.59 316.75 133.01 305.12 102.67 324.29 94.73 329.32"/><path class="cls-15" d="M102,187.24a9,9,0,0,1,4.33,3.61,9.78,9.78,0,0,1,2.69-.07c0-.07-.09-.13-.1-.21-1.63-2.33-4.09-3.26-7-3.39h-.11Z"/><path class="cls-43" d="M93.83,184.1c-2.76.75-5,2.79-6.8,4.83l.11.08a3.1,3.1,0,0,0,.25.56c.09.19.19.38.29.57a4.35,4.35,0,0,0,1,1.24A6.84,6.84,0,0,1,91,189.09l1.43-.42a32.27,32.27,0,0,1,9.41-1.49H102c-.19-.26-.36-.58-.54-.86s-.32-.58-.47-.87a12.9,12.9,0,0,0-.67-1.13,4.68,4.68,0,0,0-.27-.4,2.42,2.42,0,0,0-1.17-.3A19,19,0,0,0,93.83,184.1Z"/><path class="cls-8" d="M72.33,402.2c-.59,1.18-1.13,2.33-1.55,3.41,1-.57,2.31-1.35,3.39-1.94a3.18,3.18,0,0,1,.3-.17c1.93-3.41,8.52-11.78,10.41-13.93A88.18,88.18,0,0,1,96.33,378.4a35,35,0,0,0,.17-4C87.66,378.25,77.45,391.79,72.33,402.2Z"/><path class="cls-8" d="M92.52,367.25c-.62,1.06.32,2.21,2.21,2.89a10,10,0,0,0,2,.51,10.41,10.41,0,0,0,5.94-.68,2.57,2.57,0,0,0,1.16-1,1.38,1.38,0,0,0-.25-1.71,3.11,3.11,0,0,0-.91-.73V368a10.34,10.34,0,0,1-5.94.66,14,14,0,0,1-2-.49v-2.3a4.24,4.24,0,0,0-2,1.07A2,2,0,0,0,92.52,367.25Z"/><path class="cls-5" d="M88.51,364.28c.12.24.28.49.36.68v.1c.9.07,1.8.17,2.71.27.29-.1.61-.18.94-.27-.67-2.4-1.94-4.49-4-5.11v4.33Z"/><path class="cls-6" d="M88,367.77a6.54,6.54,0,0,1,3.6-2.44c-.91-.1-1.81-.2-2.71-.27-11.52-1.05-23.93-.25-36.2,4.35-1.13.42-2.23.85-3.36,1.35-.29.21-.57.45-.87.66a25.47,25.47,0,0,0-1.92,1.77,15.55,15.55,0,0,0-1.93,2.25s-.05,0-.05.07a.34.34,0,0,1,.12-.06L45.9,375l.47-.17c.81-.31,1.63-.6,2.45-.84a1.15,1.15,0,0,1,.23-.1h.07c1.23-.39,2.46-.75,3.69-1,16-4.05,32.52-2.21,36.49-1.22C87.8,370.44,87.23,369.08,88,367.77Z"/><path class="cls-44" d="M76.13,193.8c2.13-.84,4.05-1.43,6.15-2.05,1-.31,2.08-.61,3.19-.95.35-.12.75-.23,1.1-.36s.75-.19,1.11-.3c-.1-.19-.2-.38-.29-.57a36.55,36.55,0,0,1-11.31,2,9.78,9.78,0,0,0-3.17,2.18c-.75.76-1.45,1.57-2.11,2.34.74-.35,1.53-.71,2.29-1C74.17,194.54,75.16,194.14,76.13,193.8Z"/><path class="cls-21" d="M87.39,189.57a3.1,3.1,0,0,1-.25-.56l-.11-.08-.26.3,0,0c-3.9,2.73-11.35.1-15-3a7.69,7.69,0,0,1-.92-.86c-.23-.25-.45-.52-.67-.8A15.18,15.18,0,0,1,69,183a2.46,2.46,0,0,1-.31-.48,27.74,27.74,0,0,1-2.34-4.54,7.85,7.85,0,0,0-.3-1.62c-.17-.2-.32-.41-.48-.61a17.31,17.31,0,0,1-.94-6.53c-.9-.27-2-.39-3-.6-.18-.43-.31-.87-.45-1.31a2.45,2.45,0,0,1-.13-.55.39.39,0,0,1-.19-.1,2.52,2.52,0,0,1-.29-.12c0,.46.09.95.14,1.42,0,.15,0,.31,0,.46A53.69,53.69,0,0,0,64.07,182a3.6,3.6,0,0,0,.22.54q.09.24.18.45s0,.07,0,.1a.42.42,0,0,1,.06.14l.2.37s0,0,0,0a12.14,12.14,0,0,0,3,4.76,3.45,3.45,0,0,0,1.27.83s0,0-.06,0l.1-.07a.27.27,0,0,1,0,.12c1,.24,1.53-.92,2.25-2.28a19.89,19.89,0,0,0,.48,3.13,11.25,11.25,0,0,0,.34,1.33h0a2.72,2.72,0,0,0,.31,0h0a3.4,3.4,0,0,0,.45,0c.2,0,.42,0,.63,0a1.85,1.85,0,0,0,.47,0c.33,0,.67,0,1,0a7.18,7.18,0,0,1-2.1,2s0,0,0,0,0,.1,0,.17a9.78,9.78,0,0,1,3.17-2.18A36.55,36.55,0,0,0,87.39,189.57Z"/><path class="cls-5" d="M52.81,372.83c-1.23.29-2.46.65-3.69,1h-.07a1.15,1.15,0,0,0-.23.1c-.82.24-1.64.53-2.45.84l-.47.17-1.24.47.89.09h.22l3.34.31,4,.38.57,0,1.28.12c3.75-.53,7.54-.85,11.07-1.23,5.28-.63,11.93-1.14,17.19.16a45.5,45.5,0,0,1,6.12-3.71C85.33,370.62,68.82,368.78,52.81,372.83Z"/><path class="cls-1" d="M70.43,406.43c-.2-.07-.4-.11-.61-.19q-2.76-.8-5.28-1.74a6.08,6.08,0,0,0-.76,2.93,5.87,5.87,0,0,0,11.73.29,1.42,1.42,0,0,0,0-.29,5.7,5.7,0,0,0-1.26-3.59.5.5,0,0,0-.1-.17c-1.08.59-2.4,1.37-3.39,1.94C70.64,405.9,70.54,406.17,70.43,406.43Z"/><path class="cls-10" d="M75,191.53c-.34,0-.68,0-1,0a1.85,1.85,0,0,1-.47,0c-.21,0-.43,0-.63,0a3.4,3.4,0,0,1-.45,0h0a2.72,2.72,0,0,1-.31,0,3.74,3.74,0,0,0,.16.56c.15.41.33.81.44,1.16v0c.07.17.12.3.17.41s0,0,0,0A7.18,7.18,0,0,0,75,191.53Z"/><path class="cls-23" d="M56.47,345.83C55.74,345,55,344,54.22,343l-6.31-3.49-4.15-2.32-9-5-2-1.11-8.86-4.92a22.09,22.09,0,0,0,.92,4.91l7.2,4.12,3.46,2,8.66,5,3.45,2,26.43,15.11-.13-5.26-6.77-3.76v2.38Z"/><path class="cls-45" d="M69,189.2h0c.58.21,1.75.58,2.71.84a19.89,19.89,0,0,1-.48-3.13C70.57,188.28,70.06,189.44,69,189.2Z"/><path class="cls-14" d="M69.06,189.23v0h0Z"/><path class="cls-19" d="M68.65,182.48A2.46,2.46,0,0,0,69,183a1.83,1.83,0,0,1,.08-.25A3.07,3.07,0,0,1,68.65,182.48Z"/><path class="cls-14" d="M69,189.08l-.1.07s0,0,.06,0,0,0,0,0,0,0,0,0h0A.27.27,0,0,0,69,189.08Z"/><path class="cls-46" d="M63.42,251.89c.56-2,1.41-5,2.4-8.43l.16,0a73.92,73.92,0,0,1,3.72-8.84,53.69,53.69,0,0,0,4.59-19.39c.1-5.43-1.18-10.55-6.08-13.63a7.53,7.53,0,0,0-4.08-1.36h0a2.18,2.18,0,0,0-.51,0c.88-.6,1.77-1.18,2.67-1.72a16.08,16.08,0,0,0-5,2.55,11.33,11.33,0,0,0-4.07,5.52,7.09,7.09,0,0,1,.39-.78c0,.32,0,.65,0,.95a4.35,4.35,0,0,1,2.24.62c2.42,1.39,4.09,5,4.44,7.35a27,27,0,0,1,.08,7.59,48,48,0,0,1-1,5.65c-.41,1.9-.93,3.74-1.45,5.48-.19.6-.37,1.17-.56,1.74s-.41,1.21-.6,1.81a1.13,1.13,0,0,0-.08.24c-.43,1.16-.86,2.3-1.26,3.49a1.78,1.78,0,0,0-.14.36c-.66,2-1.35,4-2,6,1.11,2.4.14,5.28-1,8.09a9.66,9.66,0,0,1-1.68,3.29,4.12,4.12,0,0,1-1.93,1c-.3.05-.63.06-1,.08a.83.83,0,0,1-.32.05h0a40.47,40.47,0,0,1-3.37-7h.06c.06-.22.09-.45.14-.67-.47-.49-.95-.93-1.41-1.39l-.07.07c.34.37.68.73,1,1.11a42.82,42.82,0,0,0-.58,7.78,8.72,8.72,0,0,1-2.59-1.93c-.12-.14-.26-.27-.38-.41-1.43-1.46-2.52-2.79-3.8-4.29-1.9-2.1-3.93-4.24-5.6-6.5a23.69,23.69,0,0,1-1.34-2s0,0,0,0a16.11,16.11,0,0,1-2-5,11.06,11.06,0,0,1-.29-2.52,11.2,11.2,0,0,1,.15-2.23c-.39-.41-.82-.79-1.25-1.19-.76-.73-1.56-1.53-2.38-2.27a4,4,0,0,1-.12.41.38.38,0,0,1,0,.1s0,0,0,.05a1.88,1.88,0,0,1-.22.6c-.24.41-.45.8-.68,1.22a11.74,11.74,0,0,1-4.65,4.32l-.44.23c-.18.06-.33.13-.46.18l.25.3c3,3.54,5.69,7.17,8.38,10.74,1,1.29,2,2.57,3,3.82.1.16.23.29.33.44,1.7,2.15,3.44,4.28,5.25,6.29a68.58,68.58,0,0,0,8.19,7.76,4.94,4.94,0,0,1,.44.36c.33.25.67.53,1,.82.11,0,.19,0,.29.06s0-.26-.09-.4c3.25,1.77,7.57,2.51,8.92-1.25a4.69,4.69,0,0,0,1.52-1.71,26.29,26.29,0,0,0,2.28-4.89,58.61,58.61,0,0,0,2.33-7.46c.07-.24.14-.47.19-.71A3.74,3.74,0,0,1,63.42,251.89Z"/><path class="cls-47" d="M60.4,320.86l3.87-.35.78-7.73a11.42,11.42,0,0,1-4.55.8,24.25,24.25,0,0,0-.69,6.9A1.36,1.36,0,0,0,60.4,320.86Z"/><path class="cls-48" d="M48,252.58a40.47,40.47,0,0,0,3.37,7h0a.83.83,0,0,0,.32-.05c.32,0,.65,0,1-.08a4.12,4.12,0,0,0,1.93-1,9.66,9.66,0,0,0,1.68-3.29c1.13-2.81,2.1-5.69,1-8.09.7-2,1.39-4,2-6a1.78,1.78,0,0,1,.14-.36c.4-1.19.83-2.33,1.26-3.49a1.13,1.13,0,0,1,.08-.24c.19-.6.41-1.19.6-1.81s.37-1.14.56-1.74c.52-1.74,1-3.58,1.45-5.48a48,48,0,0,0,1-5.65,27,27,0,0,0-.08-7.59c-.35-2.31-2-6-4.44-7.35a4.35,4.35,0,0,0-2.24-.62c0-.3,0-.63,0-.95a7.09,7.09,0,0,0-.39.78l-.11.27c0,.12-.1.22-.15.35a.32.32,0,0,0-.05.13c-.07.17-.11.33-.17.49a9.77,9.77,0,0,0-.53,1.74c-.09.33-.17.67-.26,1a9.94,9.94,0,0,0-.3,1.59c0,.06,0,.13,0,.22s0,.14,0,.2,0,0,0,0a1,1,0,0,0-.13.3,4.4,4.4,0,0,0-.18.62,15.49,15.49,0,0,0-.51,1.92c-.26,1.11-.48,2.25-.73,3.38-.12.47-.23,1-.36,1.42-.18.74-.34,1.47-.49,2.2-.39,1.89-1.59,8.66-1.82,10.05s-.4,2.53-.6,3.82c-.12.89-.27,1.78-.39,2.67-.63,4.32-1.32,8.64-2.15,12.88,0,.22-.08.45-.14.67Z"/><path class="cls-49" d="M59.5,278.53a1.84,1.84,0,0,0,.31.38s0,0,.06.07a10.67,10.67,0,0,0,4.54,3.46l.25.1c1.08.39,2.18.73,3.32,1.06l.45-4.4,1-10L72,243.48c.66-6.82,5.33-14.73,10.56-17.76l1-.58c0-.81,0-1.65-.07-2.47-.1-7.57-.52-13.85,4.13-19.6-1.46-4.27-1.46-8.84,1.22-11.57l-.12-.12a4.35,4.35,0,0,1-1-1.24c-.36.11-.73.22-1.11.3s-.75.24-1.1.36c-1.11.34-2.19.64-3.19.95-2.1.63-4.13,1.3-6.15,2.05-1,.34-2,.74-3,1.2-.76.33-1.55.69-2.29,1l-.09.06c-1.47.73-2.95,1.56-4.41,2.47h0c-.9.54-1.79,1.12-2.67,1.72a2.18,2.18,0,0,1,.51,0h0a7.53,7.53,0,0,1,4.08,1.36c4.9,3.08,6.18,8.2,6.08,13.63a53.69,53.69,0,0,1-4.59,19.39A73.92,73.92,0,0,0,66,243.51l-.16,0c-1,3.42-1.84,6.4-2.4,8.43a3.74,3.74,0,0,0-.12.48c0,.24-.12.47-.19.71.33,1.69.67,3.42,1,5.14.16.81.3,1.6.48,2.39.66,3.1,1.38,6,2.1,8.23a3.49,3.49,0,0,1,.2.57,2.1,2.1,0,0,1,0,.43c-1.94.53-3.88,1.15-5.81,1.8a6.6,6.6,0,0,0-1.94,3.83A3.45,3.45,0,0,0,59.5,278.53Z"/><path class="cls-23" d="M59.83,320.9a44.85,44.85,0,0,0,1,7.5l3,1.62-.08-.12L63.52,328l.66-6.64.09-.86-3.87.35Z"/><path class="cls-50" d="M106.2,203.12c1-3.7,3-5.55.27-9.1a13.56,13.56,0,0,0,1.85,1,16.75,16.75,0,0,0-2-4.18,9,9,0,0,0-4.33-3.61l-.14-.06h0a32.27,32.27,0,0,0-9.41,1.49l-1.43.42a6.84,6.84,0,0,0-2.28,2.29l.12.12c-2.68,2.73-2.68,7.3-1.22,11.57,2.48,7.15,9.08,13.49,14.32,9.13a2.14,2.14,0,0,1-2-2c2.34,2.7,5.62,1.65,8.13-.37.12-.52.24-1,.36-1.56,0-.13.06-.26.1-.4C106.91,207.72,105.56,205.62,106.2,203.12Z"/><path class="cls-50" d="M86.77,189.23l.26-.3c1.82-2,4-4.08,6.8-4.83a19,19,0,0,1,5-.48c.75-.48,1.46-1,2.16-1.53,2.32-3.29,3.68-8,4.14-12.37a31.06,31.06,0,0,0,.14-5.23c-.43-4.85-2.93-8.16-5-12.31-5.37-6.36-11.84-9.9-20-9A24,24,0,0,0,71,144.92a19,19,0,0,0-6.33,3.46h0c-6.7,3-11.78,10.86-11.37,18a7,7,0,0,1,2.12-3A5.46,5.46,0,0,0,58,169a9.13,9.13,0,0,1,0-2.34,4.81,4.81,0,0,0,2.75,1.76c0-.15,0-.31,0-.46,0-.47-.11-1-.14-1.42a2.52,2.52,0,0,0,.29.12.39.39,0,0,0,.19.1,2.45,2.45,0,0,0,.13.55c.14.44.27.88.45,1.31,1,.21,2.09.33,3,.6a17.31,17.31,0,0,0,.94,6.53c.16.2.31.41.48.61a7.85,7.85,0,0,1,.3,1.62,27.74,27.74,0,0,0,2.34,4.54,3.07,3.07,0,0,0,.39.23A1.83,1.83,0,0,0,69,183a15.18,15.18,0,0,0,1.14,1.6c.22.28.44.55.67.8a7.69,7.69,0,0,0,.92.86c3.7,3.08,11.15,5.71,15,3Z"/><path class="cls-7" d="M59.81,320.48c0,.14,0,.27,0,.42l.57,0A1.36,1.36,0,0,1,59.81,320.48Z"/><path class="cls-11" d="M53.94,321.45q.31,1.82.69,3.63A69.75,69.75,0,0,0,64,348.39a35.93,35.93,0,0,0,3.19,4.13v-5.31a91.52,91.52,0,0,1-6.34-18.81,44.85,44.85,0,0,1-1-7.5c0-.15,0-.28,0-.42a24.25,24.25,0,0,1,.69-6.9,7.49,7.49,0,0,1-3.35-.8l-3.93-2.19A58,58,0,0,0,53.94,321.45Z"/><path class="cls-49" d="M52.94,207.44c.37.77,1,1.71,1.42,2.68a.26.26,0,0,1,0,.08c.07.16.13.31.19.47s0,.1.05.15,0,0,0,0a16.43,16.43,0,0,1,.66,2.75,4.4,4.4,0,0,1,.18-.62,1,1,0,0,1,.13-.3,1.09,1.09,0,0,0,0-.24c0-.09,0-.16,0-.22a9.94,9.94,0,0,1,.3-1.59c.09-.32.17-.66.26-1a9.77,9.77,0,0,1,.53-1.74c.06-.16.1-.32.17-.49a23.45,23.45,0,0,0-3.68.05l-.3-.05v0S52.94,207.43,52.94,207.44Z"/><path class="cls-10" d="M54.61,210.83s0,0,0,0,0-.11-.05-.15-.12-.31-.19-.47a.26.26,0,0,0,0-.08c-.43-1-1-1.91-1.42-2.68,0,0,0,0,0,0v0a2.17,2.17,0,0,1-.42-.11c-3.64.08-8.58.6-11.72,1.83A8.76,8.76,0,0,0,38.63,211c-2.14,1.1-3.75,2.38-3.29,3.24A7.41,7.41,0,0,0,32.53,217c.38.82,2.81-.12,3.41-.41v0c-1.08.56-1.7,1.07-1.49,1.43-1,1.05,5.75-1.26,8.33-1.95,2.45-.34,4.83-1.07,7-1.34-2.2,1.48-5.38,2.42-4.21,6.23,1.64-.85,3-2,4.58-3,0,0,0,0,0,0a15.76,15.76,0,0,0,4.62-2.45,15.49,15.49,0,0,1,.51-1.92A16.43,16.43,0,0,0,54.61,210.83Z"/><path class="cls-7" d="M51.75,383.42a4.33,4.33,0,0,0,2.81-1.15,14.41,14.41,0,0,1-.53-1.43A5.06,5.06,0,0,1,51.75,383.42Z"/><path class="cls-1" d="M49.11,375.86l-3.34-.31h-.22A4.9,4.9,0,0,0,44.22,379,5.05,5.05,0,0,0,49.31,384a5.06,5.06,0,0,0,4.72-3.2,5,5,0,0,0-.23-4.28.94.94,0,0,0-.16-.29l-.57,0Z"/><path class="cls-7" d="M48.22,369.69a2.13,2.13,0,0,0,0,.25c.08.5.13,1,.19,1.48.3-.21.58-.45.87-.66,1.13-.5,2.23-.93,3.36-1.35-.17-5.37-.45-10.84-3.26-15.28-.23,0-.45.1-.64.12a13.36,13.36,0,0,0-3.43,1.21,11.29,11.29,0,0,0-4.92,5.43c-1,2.78-.6,6.36-.83,9.49-.65,4.87-1.52,7.44-5.24,8.58.31-.81.64-1.7.93-2.63a7.6,7.6,0,0,1-1.68,1c-.08-4.77-.45-9.52-2.87-13.51-.22,0-.45.09-.65.11a13.31,13.31,0,0,0-3.45,1.14,11.24,11.24,0,0,0-5,5.31c-1,2.76-.73,6.36-1.05,9.47-.74,4.87-1.67,7.41-5.42,8.47.35-.82.66-1.7,1-2.6-2.08,1.63-6.66,2.57-9.1,3.13a15.9,15.9,0,0,0,0,7c4.21.89,8.31.28,12.64-.77.2-.13.42-.24.66-.41.07-3.11,2.81-8.21,5.61-11.84a21.16,21.16,0,0,1,3.27-3.47c0,.06,0,.15,0,.25a17.18,17.18,0,0,0-2.87,6.71,1.14,1.14,0,0,0,.06.33,19.77,19.77,0,0,0,3.74.33c.15,1.24.31,2.46.46,3.71-1.08,2.94,2.79,3.08,4.65,1.38A20.5,20.5,0,0,1,34,386.7,45.32,45.32,0,0,0,39,385.62a5.33,5.33,0,0,0,.65-.41C39.69,380.82,44.92,372.39,48.22,369.69Z"/><path class="cls-3" d="M42.05,318.32c.48,1.43,1,2.84,1.54,4.27a103.82,103.82,0,0,0,5.08,11.26,75.4,75.4,0,0,0,5.55,9.1c.76,1.05,1.52,2,2.25,2.88l10.68,6.69A35.93,35.93,0,0,1,64,348.39a69.75,69.75,0,0,1-9.33-23.31q-.37-1.81-.69-3.63a58,58,0,0,1-.72-10.86l-1.91-1.07-11.22-6.21-1.21-.69a51.9,51.9,0,0,0,2,11.67c.3,1.08.62,2.17,1,3.24C41.88,317.8,42,318.05,42.05,318.32Z"/><path class="cls-24" d="M45.55,375.54l-.89-.09a.34.34,0,0,0-.12.06s0,0,.05-.07a15.55,15.55,0,0,1,1.93-2.25,16.79,16.79,0,0,1,1.73-3.25,2.13,2.13,0,0,1,0-.25c-3.3,2.7-8.53,11.13-8.53,15.52,1.7-1.08,3.78-2.52,5.69-2.84,0-.06,0-.13,0-.21A5.19,5.19,0,0,1,44.22,379,4.9,4.9,0,0,1,45.55,375.54Z"/><path class="cls-13" d="M47.88,350a36.37,36.37,0,0,1-.26-5.94l-3.45-2c.29,3.39.56,6.78.86,10.18.11,1.05.21,2.14.31,3.2a13.36,13.36,0,0,1,3.43-1.21,23.39,23.39,0,0,1-.89-4.25Z"/><path class="cls-48" d="M31.41,239.3a16.11,16.11,0,0,0,2,5s0,0,0,0a23.69,23.69,0,0,0,1.34,2c1.67,2.26,3.7,4.4,5.6,6.5,1.28,1.5,2.37,2.83,3.8,4.29.12.14.26.27.38.41a8.72,8.72,0,0,0,2.59,1.93,42.82,42.82,0,0,1,.58-7.78c-.33-.38-.67-.74-1-1.11q-3.19-3.56-6.68-7.19c-2.81-2.95-5.71-5.9-8.79-8.86a11.2,11.2,0,0,0-.15,2.23A11.06,11.06,0,0,0,31.41,239.3Z"/><path class="cls-47" d="M43.91,288.17,47.15,290l14.05,7.83,5.08,2.8.34-3.38L68,283.6c-1.14-.33-2.24-.67-3.32-1.06l-.25-.1A10.67,10.67,0,0,1,59.87,279s0-.06-.06-.07a1.84,1.84,0,0,1-.31-.38,3.45,3.45,0,0,1-.39-3.06,6.6,6.6,0,0,1,1.94-3.83c-6.9,2.33-13.71,5.17-20.46,7.68-2.06.71-4.18,1.34-6.24,2-.6.18-1.18.39-1.78.57l7.56,4.2Z"/><path class="cls-10" d="M44.17,342.08l-8.66-5c1.12,7.88,2,15.2,2.32,20.94v0c.29,4.68.22,8.28-.36,10.22l.07,0c-.73,2.64-1.45,5.42-2.26,8-.29.93-.62,1.82-.93,2.63,3.72-1.14,4.59-3.71,5.24-8.58.23-3.13-.14-6.71.83-9.49a11.29,11.29,0,0,1,4.92-5.43c-.1-1.06-.2-2.15-.31-3.2C44.73,348.86,44.46,345.47,44.17,342.08Z"/><path class="cls-7" d="M41.9,318.23l.15.09c-.08-.27-.17-.52-.25-.79C41.83,317.79,41.87,318,41.9,318.23Z"/><path class="cls-25" d="M32.79,331l2,1.11,9,5,4.15,2.32L54.22,343a75.4,75.4,0,0,1-5.55-9.1,103.82,103.82,0,0,1-5.08-11.26c-.56-1.43-1.06-2.84-1.54-4.27l-.15-.09-9-4.87-1.15-.62-8.44-4.54-.64-.32-.13-.1a.07.07,0,0,0-.06,0,5.07,5.07,0,0,0-2.93,2.73,11.34,11.34,0,0,0-1,4.5c-.35,6.54,1.8,9.06,1.8,9.06l3.52,2,.13.08Z"/><path class="cls-13" d="M29.29,359.68c-.82-7.69,1.2-16.32,2.76-24.53L24.85,331a22.09,22.09,0,0,1-.92-4.91L23.8,326c.16,1.13.28,2.1.35,2.87.22,2.4.44,4.84.61,7.24.65,8.58,1.08,17.17,1.65,25.73.06,1.05.14,2.14.22,3.22A13.31,13.31,0,0,1,30.08,364a25.46,25.46,0,0,1-.79-4.26Z"/><path class="cls-23" d="M31.71,312.74l1.15.62,9,4.87c0-.22-.07-.44-.1-.7-.34-1.07-.66-2.16-1-3.24-1.46-.44-2.75-1.65-4.17-2.25s-3-1.48-4.53-2.21c-.12-.07-.24-.11-.36-.18a3.52,3.52,0,0,0-.63-.27,17,17,0,0,0-7.44-1.69,3.1,3.1,0,0,0-.44.51Z"/><path class="cls-24" d="M29.21,379.39a21.16,21.16,0,0,0-3.27,3.47c-2.8,3.63-5.54,8.73-5.61,11.84,1.72-1,3.82-2.43,5.74-2.7a18.36,18.36,0,0,1,3.15-12.36C29.22,379.54,29.21,379.45,29.21,379.39Z"/><path class="cls-25" d="M20.81,292.57l4.6,2.56,3.24,1.8.44.24.42.24,8.58,4.75.79.46,1.21.69,11.22,6.21,1.91,1.07,3.93,2.19a7.49,7.49,0,0,0,3.35.8,11.42,11.42,0,0,0,4.55-.8l-.78,7.73-.09.86L63.52,328l.21,1.89.08.12-3-1.62a91.52,91.52,0,0,0,6.34,18.81v2.93l6.77,3.76.13.07v-.37l0-9.77,0,.05.12-1.56,1.75-22.39,1.84-23.46.92-11.82L80,267.28l1.54-19.58a24.37,24.37,0,0,1,3.08-9.55,21.92,21.92,0,0,1,7.66-8.51l12-6.86,25.16-14.37c3.88-2.21,7.16-1.61,8.79,1.2-1.85-5.32-15.26-7.45-19.62-4.9l-10.92,6.36L83.56,225.14l-1,.58c-5.23,3-9.9,10.94-10.56,17.76l-2.57,25.68-1,10L68,283.6l-1.36,13.61-.34,3.38,1,.57a3.26,3.26,0,0,1,.88.68l0,0c1.21,1.37.56,3.25-1.78,4.63a5,5,0,0,1-.8.42c-2.74,1.3-6.35,1.43-8.48.25l-6.8-3.78-5-2.8-5.22-2.89L28.05,291l-7.24-4a3,3,0,0,1-1.36-1.42,2,2,0,0,1-.14-.55c0,.19,0,.4,0,.6C19.14,287.86,19.19,291.69,20.81,292.57Z"/><path class="cls-3" d="M20.81,287l7.24,4,12.06,6.72,5.22,2.89,5,2.8,6.8,3.78c2.13,1.18,5.74,1.05,8.48-.25a5,5,0,0,0,.8-.42c2.34-1.38,3-3.26,1.78-4.63l0,0a3.26,3.26,0,0,0-.88-.68l-1-.57-5.08-2.8L47.15,290l-3.24-1.79-3.78-2.1-7.56-4.2-1.63-.9a7.62,7.62,0,0,0-3.66-.8,11.45,11.45,0,0,0-5.62,1.45,4.92,4.92,0,0,0-2.18,2.28l0,.07c0,.15-.07.51-.14,1a2,2,0,0,0,.14.55A3,3,0,0,0,20.81,287Z"/><path class="cls-10" d="M21.92,237.79a11.74,11.74,0,0,0,4.65-4.32c.23-.42.44-.81.68-1.22a1.88,1.88,0,0,0,.22-.6s0,0,0-.05a.38.38,0,0,0,0-.1c-.89-.39-1.87-.8-2.91-1.2h0a6.88,6.88,0,0,1-1.8-.68s0,0-.06,0c-1.14-.58-2.28-1.38-3.08-1.84-.63-.36-2.46-2.11-2.89-2.11-.79.08-1.09,1.11-1,1.9a26.8,26.8,0,0,0-7.11-.79c-2.31-.5-5.11-1-5.62.42-1.19,0-2.22.19-2.62.85a2.74,2.74,0,0,0,2,1v.07l-.87,0c-.62,0-1.83.07-1.43,1,.33.58,10.54,3.07,11.77,3.3l0,.12a38.65,38.65,0,0,0-4-.27h0l-.32,0,.2,0c-1.67,0-3.11.24-3.44,1,2.61.69,9.32,2,11.6,2.66l.75.22a8.06,8.06,0,0,0,4.47,1c.13,0,.28-.12.46-.18Z"/><path class="cls-10" d="M20.54,379.88c.32-3.11,0-6.71,1.05-9.47a11.24,11.24,0,0,1,5-5.31c-.08-1.08-.16-2.17-.22-3.22-.57-8.56-1-17.15-1.65-25.73-.17-2.4-.39-4.84-.61-7.24-.07-.77-.19-1.74-.35-2.87l-3.52-2s-2.15-2.52-1.8-9.06a11.34,11.34,0,0,1,1-4.5c-.32-.57-.64-1.15-1-1.72-.6-1.08-1.13-2.14-1.64-3.26A30.34,30.34,0,0,1,14,295.18a21.56,21.56,0,0,1,0-2.41,14.29,14.29,0,0,1,1-4.71c-2.63.62-4.85,2.33-5.11,5.14a15.74,15.74,0,0,0,.67,5.56c1,7.15,2.71,18.43,4.36,30.32.6,4.26,1.16,8.62,1.7,12.87v0c0,.07,0,.13,0,.2,1.19,9.51,2.13,18.57,2.38,25.35v0c.17,4.68,0,8.28-.59,10.22l.06,0c-.79,2.59-1.56,5.36-2.43,7.94-.33.9-.64,1.78-1,2.6C18.87,387.29,19.8,384.75,20.54,379.88Z"/><path class="cls-47" d="M14,295.18a30.34,30.34,0,0,0,2.86,10.37c.51,1.12,1,2.18,1.64,3.26.33.57.65,1.15,1,1.72a5.07,5.07,0,0,1,2.93-2.73.07.07,0,0,1,.06,0,.36.36,0,0,1,.15,0,6.36,6.36,0,0,1,1.06-.07,17,17,0,0,1,7.44,1.69,3.52,3.52,0,0,1,.63.27c.12.07.24.11.36.18,1.49.73,3.06,1.48,4.53,2.21s2.71,1.81,4.17,2.25a51.9,51.9,0,0,1-2-11.67l-.79-.46-8.58-4.75-.42-.24-.44-.24-3.24-1.8-4.6-2.56c-1.62-.88-1.67-4.71-1.53-7-1.2.27-2.36.53-3.45.75a14.1,14.1,0,0,0-.8,1.72,14.29,14.29,0,0,0-1,4.71A21.56,21.56,0,0,0,14,295.18Z"/><path class="cls-16" d="M23.27,308.2a3.1,3.1,0,0,1,.44-.51,6.36,6.36,0,0,0-1.06.07.36.36,0,0,0-.15,0l.13.1Z"/></g></g></svg>