<svg xmlns="http://www.w3.org/2000/svg" viewBox="0 0 583.79 370.48"><defs><style>.cls-1{fill:#006384;opacity:0.25;}.cls-2{fill:#2f2f2f;}.cls-3{fill:#747474;}.cls-4{fill:#fff;}.cls-5{fill:#dedcee;}.cls-6{fill:#e9e7f4;}.cls-7{fill:#bcbcbc;}.cls-8{fill:#434343;}.cls-9{fill:#212121;}.cls-10{fill:#9ea2b8;}.cls-11{fill:#8690a7;}.cls-12{fill:#babac7;}.cls-13{fill:#d1d1d1;}.cls-14{fill:#d8d9d9;}.cls-15{fill:#c1cecf;}.cls-16{fill:#462b25;}.cls-17{fill:#a29893;}.cls-18{fill:#654b46;}.cls-19{fill:#c7b4b0;}.cls-20{fill:#dbcfce;}.cls-21{fill:#795d57;}.cls-22{fill:#71625c;}.cls-23{fill:#9b7f79;}.cls-24{fill:#6e4d41;}.cls-25{fill:#a0887f;}.cls-26{fill:#fdcb80;}.cls-27{fill:#fdecb2;}.cls-28{fill:#f9a873;}.cls-29{fill:#c5c5c5;}.cls-30{fill:#cba18a;}.cls-31{fill:#5b3214;}.cls-32{fill:#935f3e;}.cls-33{fill:#e0dfde;}.cls-34{fill:#ac572d;}.cls-35{fill:#c88157;}.cls-36{fill:#8e5330;}.cls-37{fill:#13101f;}.cls-38{fill:#010000;}.cls-39{fill:#1f191f;}.cls-40{fill:#080614;}.cls-41{fill:#403e52;}.cls-42{fill:#191525;}.cls-43{fill:#1f0000;}.cls-44{fill:#171318;}.cls-45{fill:#fbb686;}.cls-46{fill:#0f0b19;}.cls-47{fill:#14101e;}.cls-48{fill:#f89c69;}.cls-49{fill:#252236;}.cls-50{fill:#e8f6ff;}.cls-51{fill:#c03d2d;}</style></defs><title>table_2</title><g id="Layer_2" data-name="Layer 2"><g id="Layer_1-2" data-name="Layer 1"><path class="cls-1" d="M139.81,95.23c-52,23-193.31,103.51-118.34,163.09,31.49,25,149.28,87.92,181.3,101.4C268,387.17,324.31,356,371.37,333.9,424.53,308.93,572,196,581.81,163.41c12.73-42.51-38.89-75.71-69.24-88.7C468.35,55.79,420,39.81,373,29.75c-40.85-8.73-80,3-119,15.2-13.44,4.19-26.82,8.57-40.21,12.94Z"/><path class="cls-2" d="M305.63,295a6.62,6.62,0,0,1-6.35,6.86h0a6.62,6.62,0,0,1-6.36-6.85l0-59.79a6.61,6.61,0,0,1,6.34-6.86h0a6.62,6.62,0,0,1,6.36,6.85Z"/><path class="cls-2" d="M479.36,193.21a6.62,6.62,0,0,1-6.34,6.87h0a6.63,6.63,0,0,1-6.36-6.86l-.05-59.79a6.61,6.61,0,0,1,6.35-6.85h0a6.61,6.61,0,0,1,6.36,6.84Z"/><path class="cls-2" d="M228.21,248.45a6.61,6.61,0,0,1-6.34,6.86h0a6.62,6.62,0,0,1-6.36-6.85l0-59.8a6.61,6.61,0,0,1,6.35-6.85h0a6.61,6.61,0,0,1,6.36,6.84Z"/><g id="_Group_" data-name="&lt;Group&gt;"><path class="cls-3" d="M366.16,194.51l0-.06L478.7,129.34s16.39-10.79,16.54-26c4.77,21.47-16.53,36.52-16.53,36.52L366.14,205l0,.06L324.77,229a119.62,119.62,0,0,1-33.16,12.38c-2.8.61-5.71,1.14-8.74,1.56A105.92,105.92,0,0,1,265.31,244a92.75,92.75,0,0,1-44.73-12.42c-20-11.51-22.45-22.86-21.59-37.31h0c.15,8.4,5.72,17.64,21.57,26.77,51.08,29.44,104.19-2.59,104.19-2.59Z"/><path class="cls-4" d="M366.14,194.45l0,.06-41.4,24s-53.11,32-104.19,2.59c-15.85-9.13-21.42-18.37-21.57-26.77-.35-18.69,26.11-33.24,26.11-33.24l65.36-37.77v0l88.42-51.09s46.31-25.28,90.68-.22c19.72,11.14,25.77,22.12,25.68,31.44-.15,15.19-16.54,26-16.54,26Z"/></g><polygon class="cls-5" points="299.22 114.66 323.88 102.48 356.22 120.09 332.26 133 299.22 114.66"/><polygon class="cls-5" points="338.3 99.36 362.96 87.19 395.31 104.8 371.35 117.71 338.3 99.36"/><polygon class="cls-6" points="275.2 196.82 250.52 184.68 218.2 202.34 242.18 215.22 275.2 196.82"/><g id="_Group_2" data-name="&lt;Group&gt;"><path class="cls-3" d="M328.84,195.12c.74,0,1.34-.38,1.34-.86s-.61-.87-1.35-.87-1.34.39-1.34.87S328.1,195.13,328.84,195.12Z"/><path class="cls-7" d="M320,194.29l1.41.81a3.46,3.46,0,0,0,3.15,0l4.89-2.82c.88-.51.9-1.33,0-1.82l-1.53-.89v0l-9.81-5.68a3.49,3.49,0,0,0-3.16,0l-4.88,2.82c-.88.51-.9,1.32,0,1.82l9.93,5.75Z"/><path class="cls-8" d="M332.71,195a2.09,2.09,0,0,0,.75-2.31,1.23,1.23,0,0,1-.75,1.18l-5.6,3.24a4,4,0,0,1-3.62,0L309,188.74c-.59-.35-.83-.82-.69-1.27a1.8,1.8,0,0,0,.69,2.4l14.48,8.38a4,4,0,0,0,3.62,0Z"/><path class="cls-9" d="M327.92,189.56v0l-9.81-5.68a3.49,3.49,0,0,0-3.16,0l-4.88,2.82c-.88.51-.9,1.32,0,1.82l9.93,5.75v0l1.41.81a3.46,3.46,0,0,0,3.15,0l4.89-2.82c.88-.51.9-1.33,0-1.82Zm.91,3.83c-.74,0-1.34.39-1.34.87s.61.87,1.35.86,1.34-.38,1.34-.86S329.57,193.39,328.83,193.39Zm-20.42-6.12a1.59,1.59,0,0,1,.64-.62l5.6-3.23a4,4,0,0,1,3.61,0l14.48,8.38a1.35,1.35,0,0,1,.72.88v0a1.23,1.23,0,0,1-.75,1.18l-5.6,3.24a4,4,0,0,1-3.62,0L309,188.74c-.59-.35-.83-.82-.69-1.27A.88.88,0,0,1,308.41,187.27Z"/></g><g id="_Group_3" data-name="&lt;Group&gt;"><path class="cls-10" d="M247,123.67l0-.24a1.25,1.25,0,0,0-.16-.7c.55.45.2,2.56.16,3.09l0,.24s0,.09,0,.13a1.47,1.47,0,0,1-.24.44c-.79,1.06-2.92,1.73-5.12,1.55a5.56,5.56,0,0,1-3.17-1.13,1.82,1.82,0,0,1-.56-1,20,20,0,0,1,0-2.4c.18,1,1.66,1.92,3.73,2.08,2.49.22,4.89-.67,5.36-2A1.21,1.21,0,0,0,247,123.67Z"/><path class="cls-11" d="M238.12,122.74c.71-1.14,2.91-1.87,5.21-1.68,1.77.15,3.1.82,3.57,1.65v0a1.25,1.25,0,0,1,.16.7l0,.24a1.21,1.21,0,0,1,0,.14c-.47,1.3-2.87,2.19-5.36,2-2.07-.16-3.55-1-3.73-2.08,0,0,0,0,0,0a3.89,3.89,0,0,1,.13-.8A.94.94,0,0,1,238.12,122.74Z"/><path class="cls-12" d="M244.07,130.4a14.2,14.2,0,0,0-5.75.66c0-1.14,0-3,.15-4a5.56,5.56,0,0,0,3.17,1.13c2.2.18,4.33-.49,5.12-1.55.17,1.05.37,3.08.47,4.42A13.07,13.07,0,0,0,244.07,130.4Z"/><path class="cls-12" d="M244.07,130.4a13.07,13.07,0,0,1,3.16.65c0,.69.08,1.18.07,1.3l0,.23a.74.74,0,0,1,0,.14c-.47,1.3-2.84,2.17-5.32,2-2.06-.17-3.53-1-3.71-2.06a1.33,1.33,0,0,1,.06-.65,3.56,3.56,0,0,0,.06-.92A14.2,14.2,0,0,1,244.07,130.4Z"/><path class="cls-10" d="M250.46,133.7a2.15,2.15,0,0,1,.1.8l-.05.42-.08.23c-.82,2.26-5,3.81-9.31,3.45-3.59-.3-6.16-1.81-6.46-3.62a2.1,2.1,0,0,1,.1-1.13,2,2,0,0,1,.21-.45,6,6,0,0,1,3.35-2.34,3.56,3.56,0,0,1-.06.92,1.33,1.33,0,0,0-.06.65c.18,1,1.65,1.89,3.71,2.06,2.48.2,4.85-.67,5.32-2a.74.74,0,0,0,0-.14l0-.23c0-.12,0-.61-.07-1.3A4.92,4.92,0,0,1,250.46,133.7Z"/><path class="cls-12" d="M251.82,166.43c-1,2.67-5.89,4.5-11,4.08-4.24-.36-7.27-2.15-7.64-4.27a2.89,2.89,0,0,1,0-.78,2.68,2.68,0,0,1,.15-.57c1-2.67,5.87-4.5,11-4.07,4.52.37,7.67,2.38,7.68,4.69v.16l-.08.49A1.62,1.62,0,0,1,251.82,166.43Z"/><path class="cls-12" d="M233.07,139a9.41,9.41,0,0,1,1.89-5.65h0a2,2,0,0,0-.21.45,2.1,2.1,0,0,0-.1,1.13c.3,1.81,2.87,3.32,6.46,3.62,4.33.36,8.49-1.19,9.31-3.45l.08-.23.05-.42a2.15,2.15,0,0,0-.1-.8,9.4,9.4,0,0,1,1.66,5.33l0,25.33a7.45,7.45,0,0,1-.08,1.16H252c0-2.31-3.16-4.32-7.68-4.69-5.12-.43-10,1.4-11,4.07a2.68,2.68,0,0,0-.15.57,7.78,7.78,0,0,1-.07-1.09Z"/></g><g id="_Group_4" data-name="&lt;Group&gt;"><path class="cls-13" d="M259.59,177.14l-.07.5,0,.09c-.61,1.69-3.73,2.85-7,2.59-2.46-.21-4.28-1.18-4.75-2.37l-.13-.64a1.94,1.94,0,0,1,.12-.56c.61-1.69,3.72-2.85,7-2.58C257.59,174.41,259.58,175.68,259.59,177.14Z"/><path class="cls-14" d="M261.79,162.51l-2.2,14.63c0-1.46-2-2.73-4.86-3-3.25-.27-6.36.89-7,2.58a1.94,1.94,0,0,0-.12.56l-2.74-14.7,0,0c.32,1.92,3.06,3.52,6.87,3.84,4.6.39,9-1.26,9.9-3.66A2.5,2.5,0,0,0,261.79,162.51Z"/><path class="cls-15" d="M255,157.71c4.16.35,7,2.23,6.91,4.37l-.07.43a2.5,2.5,0,0,1-.07.26c-.87,2.4-5.3,4-9.9,3.66-3.81-.32-6.55-1.92-6.87-3.84a2.3,2.3,0,0,1,.11-1.21C245.92,159,250.35,157.33,255,157.71Z"/></g><g id="_Group_5" data-name="&lt;Group&gt;"><polygon class="cls-16" points="363.64 161.07 362.87 161.53 360.73 160.29 361.5 159.84 363.64 161.07"/><polygon class="cls-16" points="364.76 157.89 361.5 159.84 360.73 159.4 363.99 157.46 364.76 157.89"/><polygon class="cls-16" points="360.73 159.4 359.96 159.86 357.69 158.55 358.46 158.09 360.73 159.4"/><polygon class="cls-16" points="361.5 159.84 360.73 160.29 359.96 159.86 360.73 159.4 361.5 159.84"/><polygon class="cls-16" points="360.73 160.29 357.61 162.16 356.84 161.72 359.96 159.86 360.73 160.29"/><polygon class="cls-16" points="359.75 163.39 358.97 163.85 356.83 162.62 357.61 162.16 359.75 163.39"/><polygon class="cls-16" points="356.83 162.62 353.61 164.53 352.84 164.1 356.07 162.19 356.83 162.62"/><polygon class="cls-16" points="356.84 161.72 357.61 162.16 356.83 162.62 356.07 162.19 356.84 161.72"/><polygon class="cls-16" points="356.84 161.72 356.07 162.19 353.8 160.88 354.57 160.41 356.84 161.72"/><polygon class="cls-16" points="353.04 160.43 353.8 160.88 350.57 162.79 349.81 162.36 353.04 160.43"/><polygon class="cls-16" points="353.81 159.97 353.04 160.43 350.69 159.08 351.46 158.62 353.81 159.97"/><polygon class="cls-16" points="354.57 160.41 353.8 160.88 353.04 160.43 353.81 159.97 354.57 160.41"/><polygon class="cls-16" points="356.93 158.11 357.69 158.55 354.57 160.41 353.81 159.97 356.93 158.11"/><polygon class="cls-16" points="357.7 157.66 356.93 158.11 354.63 156.78 355.41 156.33 357.7 157.66"/><polygon class="cls-16" points="358.46 158.09 357.69 158.55 356.93 158.11 357.7 157.66 358.46 158.09"/><polygon class="cls-16" points="361.73 156.15 358.46 158.09 357.7 157.66 360.96 155.7 361.73 156.15"/><polygon class="cls-16" points="361.73 155.25 360.96 155.7 358.71 154.42 359.49 153.96 361.73 155.25"/><polygon class="cls-16" points="362.5 155.69 361.73 156.15 360.96 155.7 361.73 155.25 362.5 155.69"/><polygon class="cls-16" points="364.76 156.99 363.99 157.46 361.73 156.15 362.5 155.69 364.76 156.99"/><polygon class="cls-16" points="367.66 158.66 366.89 159.12 364.76 157.89 365.52 157.44 367.66 158.66"/><polygon class="cls-16" points="364.76 156.99 365.52 157.44 364.76 157.89 363.99 157.46 364.76 156.99"/><polygon class="cls-16" points="367.73 155.23 368.5 155.67 365.52 157.44 364.76 156.99 367.73 155.23"/><polygon class="cls-16" points="369.26 155.2 371.4 156.44 370.63 156.89 368.5 155.67 369.26 155.2"/><polygon class="cls-16" points="369.26 155.2 368.5 155.67 367.73 155.23 368.51 154.76 369.26 155.2"/><polygon class="cls-16" points="368.51 154.76 367.73 155.23 365.47 153.92 366.23 153.45 368.51 154.76"/><polygon class="cls-16" points="365.47 153.92 362.5 155.69 361.73 155.25 364.7 153.48 365.47 153.92"/><polygon class="cls-16" points="366.23 153.45 365.47 153.92 364.7 153.48 365.47 153.02 366.23 153.45"/><polygon class="cls-16" points="365.47 153.02 364.7 153.48 362.5 152.21 363.27 151.76 365.47 153.02"/><polygon class="cls-16" points="368.87 150.99 368.1 151.44 365.95 150.21 366.72 149.76 368.87 150.99"/><polygon class="cls-16" points="368.87 151.89 366.23 153.45 365.47 153.02 368.1 151.44 368.87 151.89"/><polygon class="cls-16" points="369.64 151.43 368.87 151.89 368.1 151.44 368.87 150.99 369.64 151.43"/><polygon class="cls-16" points="369.64 151.43 371.9 152.74 371.13 153.2 368.87 151.89 369.64 151.43"/><polygon class="cls-16" points="371.9 153.64 369.26 155.2 368.51 154.76 371.13 153.2 371.9 153.64"/><polygon class="cls-16" points="372.66 153.17 371.9 153.64 371.13 153.2 371.9 152.74 372.66 153.17"/><polygon class="cls-16" points="372.66 153.17 374.8 154.42 374.04 154.87 371.9 153.64 372.66 153.17"/><polygon class="cls-16" points="378.71 152.07 377.95 152.53 375.81 151.31 376.57 150.84 378.71 152.07"/><polygon class="cls-16" points="379.11 149.34 376.57 150.84 375.81 150.4 378.34 148.9 379.11 149.34"/><polygon class="cls-16" points="375.81 151.31 372.66 153.17 371.9 152.74 375.04 150.87 375.81 151.31"/><polygon class="cls-16" points="375.81 150.4 376.57 150.84 375.81 151.31 375.04 150.87 375.81 150.4"/><polygon class="cls-16" points="375.81 150.4 375.04 150.87 372.77 149.56 373.55 149.1 375.81 150.4"/><polygon class="cls-16" points="372.77 149.56 369.64 151.43 368.87 150.99 372.01 149.12 372.77 149.56"/><polygon class="cls-16" points="370.7 147.46 372.78 148.66 372.01 149.12 369.91 147.91 370.7 147.46"/><polygon class="cls-16" points="372.78 148.66 373.55 149.1 372.77 149.56 372.01 149.12 372.78 148.66"/><polygon class="cls-16" points="376.07 147.6 373.55 149.1 372.78 148.66 375.31 147.15 376.07 147.6"/><polygon class="cls-16" points="379.11 148.44 378.34 148.9 376.07 147.6 376.85 147.13 379.11 148.44"/><polygon class="cls-16" points="376.85 147.13 376.07 147.6 375.31 147.15 376.07 146.69 376.85 147.13"/><polygon class="cls-16" points="374.03 145.51 376.07 146.69 375.31 147.15 373.25 145.97 374.03 145.51"/><polygon class="cls-16" points="379.98 145.26 376.85 147.13 376.07 146.69 379.21 144.82 379.98 145.26"/><polygon class="cls-16" points="383.28 143.3 380.74 144.81 379.98 144.37 382.54 142.84 383.28 143.3"/><polygon class="cls-16" points="379.98 144.37 379.21 144.82 377.2 143.67 377.97 143.22 379.98 144.37"/><polygon class="cls-16" points="380.74 144.81 379.98 145.26 379.21 144.82 379.98 144.37 380.74 144.81"/><polygon class="cls-16" points="383.01 146.13 382.24 146.57 379.98 145.26 380.74 144.81 383.01 146.13"/><polygon class="cls-16" points="386.2 145.11 383.77 146.56 383.01 146.13 385.46 144.66 386.2 145.11"/><polygon class="cls-16" points="383.77 146.56 383 147.01 382.24 146.57 383.01 146.13 383.77 146.56"/><polygon class="cls-16" points="382.02 150.11 381.25 150.56 379.11 149.34 379.88 148.88 382.02 150.11"/><polygon class="cls-16" points="383 147.01 379.88 148.88 379.11 148.44 382.24 146.57 383 147.01"/><polygon class="cls-16" points="379.88 148.88 379.11 149.34 378.34 148.9 379.11 148.44 379.88 148.88"/><polygon class="cls-16" points="385.91 147.79 385.14 148.25 383 147.01 383.77 146.56 385.91 147.79"/><polygon class="cls-16" points="389.27 149.71 388.5 150.18 385.91 148.68 386.67 148.23 389.27 149.71"/><polygon class="cls-16" points="390.03 150.16 393.05 151.91 392.28 152.36 389.27 150.62 390.03 150.16"/><polygon class="cls-16" points="386.14 152.48 389.13 154.21 388.37 154.66 385.37 152.94 386.14 152.48"/><polygon class="cls-16" points="385.38 152.04 384.61 152.5 382.01 151 382.77 150.55 385.38 152.04"/><polygon class="cls-16" points="382.01 151 379.49 152.52 378.71 152.07 381.25 150.56 382.01 151"/><polygon class="cls-16" points="377.95 152.53 378.7 152.98 375.56 154.85 374.8 154.42 377.95 152.53"/><polygon class="cls-16" points="379.49 152.52 378.7 152.98 377.95 152.53 378.71 152.07 379.49 152.52"/><polygon class="cls-16" points="382.07 154 381.31 154.47 378.7 152.98 379.49 152.52 382.07 154"/><polygon class="cls-16" points="385.81 156.16 385.03 156.62 382.06 154.91 382.84 154.45 385.81 156.16"/><polygon class="cls-16" points="378.92 156.78 381.87 158.48 381.1 158.93 378.16 157.24 378.92 156.78"/><polygon class="cls-16" points="374.8 155.3 372.17 156.88 371.4 156.44 374.04 154.87 374.8 155.3"/><polygon class="cls-16" points="375.56 154.85 374.8 155.3 374.04 154.87 374.8 154.42 375.56 154.85"/><polygon class="cls-16" points="375.56 154.85 378.16 156.35 377.4 156.8 374.8 155.3 375.56 154.85"/><polygon class="cls-16" points="378.45 160.49 377.67 160.95 374.75 159.26 375.52 158.8 378.45 160.49"/><polygon class="cls-16" points="375.52 158.8 374.75 159.26 373.99 158.83 374.76 158.37 375.52 158.8"/><polygon class="cls-16" points="372.17 156.88 374.76 158.37 373.99 158.83 371.4 157.34 372.17 156.88"/><polygon class="cls-16" points="372.17 156.88 371.4 157.34 370.63 156.89 371.4 156.44 372.17 156.88"/><polygon class="cls-16" points="370.63 156.89 371.4 157.34 368.43 159.11 367.66 158.66 370.63 156.89"/><polygon class="cls-16" points="368.43 159.11 367.66 159.57 366.89 159.12 367.66 158.66 368.43 159.11"/><polygon class="cls-16" points="367.66 159.57 364.39 161.51 363.64 161.07 366.89 159.12 367.66 159.57"/><polygon class="cls-16" points="371.02 160.6 370.25 161.05 367.66 159.57 368.43 159.11 371.02 160.6"/><polygon class="cls-16" points="374.68 162.71 373.91 163.16 371.01 161.5 371.78 161.04 374.68 162.71"/><polygon class="cls-16" points="370.62 165.09 369.86 165.55 366.98 163.9 367.75 163.44 370.62 165.09"/><polygon class="cls-16" points="367 163 366.22 163.46 363.64 161.97 364.39 161.51 367 163"/><polygon class="cls-16" points="363.64 161.07 364.39 161.51 363.64 161.97 362.87 161.53 363.64 161.07"/><polygon class="cls-16" points="363.64 161.97 360.5 163.82 359.75 163.39 362.87 161.53 363.64 161.97"/><polygon class="cls-16" points="360.5 163.82 359.73 164.29 358.97 163.85 359.75 163.39 360.5 163.82"/><polygon class="cls-16" points="358.97 163.85 359.73 164.29 356.52 166.2 355.76 165.77 358.97 163.85"/><polygon class="cls-16" points="360.5 163.82 363.09 165.32 362.33 165.79 359.73 164.29 360.5 163.82"/><polygon class="cls-16" points="366.71 167.4 365.93 167.85 363.09 166.22 363.85 165.76 366.71 167.4"/><path class="cls-17" d="M406.57,153.51c1.59.83,0,3.25,0,3.25l-39.21,22.79a9.73,9.73,0,0,0-.18-3.23l.06.05,26.1-15.16Z"/><polygon class="cls-18" points="392.24 148.84 391.5 148.4 389 146.85 388.26 146.39 386.2 145.11 385.46 144.66 383.28 143.3 382.54 142.84 380.64 141.68 377.97 143.22 377.2 143.67 374.03 145.51 373.25 145.97 371.35 144.87 370.76 143.86 380.64 138.14 406.57 153.51 393.34 161.21 392.96 160.56 387.81 157.42 387.13 157.83 385.03 156.62 385.81 156.16 388.37 154.66 389.13 154.21 392.28 152.36 393.05 151.91 395.17 150.66 392.24 148.84"/><polygon class="cls-17" points="395.17 150.66 393.05 151.91 390.03 150.16 392.24 148.84 395.17 150.66"/><polygon class="cls-18" points="367.18 176.32 357.37 170.55 358.21 169.13 359.88 168.13 362.71 169.75 365.93 167.85 366.71 167.4 369.86 165.55 370.62 165.09 373.91 163.16 375.99 164.36 374.38 165.31 379.53 168.28 392.96 160.56 393.34 161.21 367.24 176.37 367.18 176.32"/><polygon class="cls-17" points="383.18 160.13 383.96 159.68 387.13 157.83 387.81 157.42 392.96 160.56 379.53 168.28 374.38 165.31 375.99 164.36 376.76 163.91 379.76 162.15 380.53 161.69 383.18 160.13"/><polygon class="cls-17" points="389.27 150.62 392.28 152.36 389.13 154.21 386.14 152.48 389.27 150.62"/><polygon class="cls-16" points="392.24 148.84 390.03 150.16 389.27 149.71 391.5 148.4 392.24 148.84"/><polygon class="cls-17" points="391.5 148.4 389.27 149.71 386.67 148.23 389 146.85 391.5 148.4"/><polygon class="cls-16" points="390.03 150.16 389.27 150.62 388.5 150.18 389.27 149.71 390.03 150.16"/><polygon class="cls-16" points="389.27 150.62 386.14 152.48 385.38 152.04 388.5 150.18 389.27 150.62"/><polygon class="cls-16" points="389 146.85 386.67 148.23 385.91 147.79 388.26 146.39 389 146.85"/><polygon class="cls-17" points="385.91 148.68 388.5 150.18 385.38 152.04 382.77 150.55 385.91 148.68"/><polygon class="cls-17" points="388.37 154.66 385.81 156.16 382.84 154.45 385.37 152.94 388.37 154.66"/><polygon class="cls-17" points="386.2 145.11 388.26 146.39 385.91 147.79 383.77 146.56 386.2 145.11"/><polygon class="cls-18" points="387.13 157.83 383.96 159.68 381.87 158.48 385.03 156.62 387.13 157.83"/><polygon class="cls-16" points="386.67 148.23 385.91 148.68 385.14 148.25 385.91 147.79 386.67 148.23"/><polygon class="cls-16" points="385.38 152.04 386.14 152.48 385.37 152.94 384.61 152.5 385.38 152.04"/><polygon class="cls-16" points="385.91 148.68 382.77 150.55 382.02 150.11 385.14 148.25 385.91 148.68"/><polygon class="cls-17" points="383.28 143.3 385.46 144.66 383.01 146.13 380.74 144.81 383.28 143.3"/><polygon class="cls-16" points="385.37 152.94 382.84 154.45 382.07 154 384.61 152.5 385.37 152.94"/><polygon class="cls-17" points="383 147.01 385.14 148.25 382.02 150.11 379.88 148.88 383 147.01"/><polygon class="cls-17" points="382.06 154.91 385.03 156.62 381.87 158.48 378.92 156.78 382.06 154.91"/><polygon class="cls-17" points="384.61 152.5 382.07 154 379.49 152.52 382.01 151 384.61 152.5"/><polygon class="cls-18" points="383.96 159.68 383.18 160.13 381.1 158.93 381.87 158.48 383.96 159.68"/><polygon class="cls-18" points="381.1 158.93 383.18 160.13 380.53 161.69 378.45 160.49 381.1 158.93"/><polygon class="cls-16" points="382.84 154.45 382.06 154.91 381.31 154.47 382.07 154 382.84 154.45"/><polygon class="cls-16" points="382.02 150.11 382.77 150.55 382.01 151 381.25 150.56 382.02 150.11"/><polygon class="cls-17" points="382.54 142.84 379.98 144.37 377.97 143.22 380.64 141.68 382.54 142.84"/><polygon class="cls-17" points="382.24 146.57 379.11 148.44 376.85 147.13 379.98 145.26 382.24 146.57"/><polygon class="cls-16" points="382.06 154.91 378.92 156.78 378.16 156.35 381.31 154.47 382.06 154.91"/><polygon class="cls-17" points="381.31 154.47 378.16 156.35 375.56 154.85 378.7 152.98 381.31 154.47"/><polygon class="cls-17" points="381.25 150.56 378.71 152.07 376.57 150.84 379.11 149.34 381.25 150.56"/><polygon class="cls-17" points="378.16 157.24 381.1 158.93 378.45 160.49 375.52 158.8 378.16 157.24"/><path class="cls-19" d="M327.79,123.22l39.64-22.43,13.21,37.35-9.88,5.72-29.3,16.94a0,0,0,0,1,0,0,1.94,1.94,0,0,1-.3.13l-13.41-37.7Zm50.92,14.47-12.14-34.36L330.05,124,342.4,158.7Z"/><polygon class="cls-18" points="380.53 161.69 379.76 162.15 377.67 160.95 378.45 160.49 380.53 161.69"/><polygon class="cls-18" points="379.76 162.15 376.76 163.91 374.68 162.71 377.67 160.95 379.76 162.15"/><polygon class="cls-17" points="379.21 144.82 376.07 146.69 374.03 145.51 377.2 143.67 379.21 144.82"/><polygon class="cls-16" points="378.16 156.35 378.92 156.78 378.16 157.24 377.4 156.8 378.16 156.35"/><polygon class="cls-20" points="366.57 103.33 378.71 137.69 342.4 158.7 330.05 123.99 366.57 103.33"/><polygon class="cls-17" points="378.34 148.9 375.81 150.4 373.55 149.1 376.07 147.6 378.34 148.9"/><polygon class="cls-16" points="378.16 157.24 375.52 158.8 374.76 158.37 377.4 156.8 378.16 157.24"/><polygon class="cls-17" points="377.95 152.53 374.8 154.42 372.66 153.17 375.81 151.31 377.95 152.53"/><polygon class="cls-17" points="377.67 160.95 374.68 162.71 371.78 161.04 374.75 159.26 377.67 160.95"/><polygon class="cls-17" points="377.4 156.8 374.76 158.37 372.17 156.88 374.8 155.3 377.4 156.8"/><polygon class="cls-18" points="374.68 162.71 376.76 163.91 375.99 164.36 373.91 163.16 374.68 162.71"/><polygon class="cls-17" points="375.31 147.15 372.78 148.66 370.7 147.46 373.25 145.97 375.31 147.15"/><polygon class="cls-17" points="375.04 150.87 371.9 152.74 369.64 151.43 372.77 149.56 375.04 150.87"/><polygon class="cls-16" points="374.75 159.26 371.78 161.04 371.02 160.6 373.99 158.83 374.75 159.26"/><polygon class="cls-17" points="374.04 154.87 371.4 156.44 369.26 155.2 371.9 153.64 374.04 154.87"/><polygon class="cls-17" points="373.99 158.83 371.02 160.6 368.43 159.11 371.4 157.34 373.99 158.83"/><polygon class="cls-17" points="373.91 163.16 370.62 165.09 367.75 163.44 371.01 161.5 373.91 163.16"/><path class="cls-18" d="M350.69,159.08,347.4,161l2.41,1.38.76.44,2.27,1.3.77.43,2.15,1.24.76.43,2.6,1.49.76.44-1.67,1-.84,1.42L341.15,161l.28-.16a0,0,0,0,0,0,0l29.3-16.94.59,1,1.9,1.1-2.55,1.49-.79.45-3.19,1.85-.77.45-2.67,1.55-.78.45-3,1.75-.78.46-3.3,1.91-.78.45-3.17,1.83Z"/><polygon class="cls-17" points="369.91 147.91 372.01 149.12 368.87 150.99 366.72 149.76 369.91 147.91"/><polygon class="cls-16" points="371.78 161.04 371.01 161.5 370.25 161.05 371.02 160.6 371.78 161.04"/><polygon class="cls-17" points="371.13 153.2 368.51 154.76 366.23 153.45 368.87 151.89 371.13 153.2"/><polygon class="cls-16" points="370.25 161.05 371.01 161.5 367.75 163.44 367 163 370.25 161.05"/><polygon class="cls-17" points="370.63 156.89 367.66 158.66 365.52 157.44 368.5 155.67 370.63 156.89"/><polygon class="cls-17" points="370.25 161.05 367 163 364.39 161.51 367.66 159.57 370.25 161.05"/><polygon class="cls-17" points="369.86 165.55 366.71 167.4 363.85 165.76 366.98 163.9 369.86 165.55"/><polygon class="cls-17" points="368.1 151.44 365.47 153.02 363.27 151.76 365.95 150.21 368.1 151.44"/><polygon class="cls-16" points="367.75 163.44 366.98 163.9 366.22 163.46 367 163 367.75 163.44"/><polygon class="cls-17" points="367.73 155.23 364.76 156.99 362.5 155.69 365.47 153.92 367.73 155.23"/><polygon class="cls-21" points="367.43 100.79 327.79 123.22 325.83 123.11 325.81 123.06 365.51 100.61 367.43 100.79"/><path class="cls-22" d="M367.18,176.32a9.73,9.73,0,0,1,.18,3.23l-.11.06-26.1-15.38V161l16.22,9.56Z"/><polygon class="cls-16" points="366.22 163.46 366.98 163.9 363.85 165.76 363.09 165.32 366.22 163.46"/><polygon class="cls-17" points="366.89 159.12 363.64 161.07 361.5 159.84 364.76 157.89 366.89 159.12"/><polygon class="cls-17" points="363.64 161.97 366.22 163.46 363.09 165.32 360.5 163.82 363.64 161.97"/><polygon class="cls-17" points="363.09 166.22 365.93 167.85 362.71 169.75 359.88 168.13 363.09 166.22"/><polygon class="cls-17" points="362.5 152.21 364.7 153.48 361.73 155.25 359.49 153.96 362.5 152.21"/><polygon class="cls-17" points="361.73 156.15 363.99 157.46 360.73 159.4 358.46 158.09 361.73 156.15"/><polygon class="cls-16" points="363.85 165.76 363.09 166.22 362.33 165.79 363.09 165.32 363.85 165.76"/><polygon class="cls-16" points="362.33 165.79 363.09 166.22 359.88 168.13 359.12 167.69 362.33 165.79"/><polygon class="cls-17" points="360.73 160.29 362.87 161.53 359.75 163.39 357.61 162.16 360.73 160.29"/><polygon class="cls-17" points="359.73 164.29 362.33 165.79 359.12 167.69 356.52 166.2 359.73 164.29"/><polygon class="cls-17" points="360.96 155.7 357.7 157.66 355.41 156.33 358.71 154.42 360.96 155.7"/><polygon class="cls-17" points="357.69 158.55 359.96 159.86 356.84 161.72 354.57 160.41 357.69 158.55"/><polygon class="cls-17" points="356.83 162.62 358.97 163.85 355.76 165.77 353.61 164.53 356.83 162.62"/><polygon class="cls-17" points="356.93 158.11 353.81 159.97 351.46 158.62 354.63 156.78 356.93 158.11"/><polygon class="cls-17" points="353.8 160.88 356.07 162.19 352.84 164.1 350.57 162.79 353.8 160.88"/><polygon class="cls-17" points="353.04 160.43 349.81 162.36 347.4 160.98 350.69 159.08 353.04 160.43"/><path class="cls-23" d="M327.72,123.26,341.13,161a2.29,2.29,0,0,1-1.91-.15l-13.39-37.7,2,.11Z"/></g><g id="_Group_6" data-name="&lt;Group&gt;"><path class="cls-7" d="M322.41,207.61v.65l.58-.33-.06-.05,0,0Z"/><path class="cls-7" d="M296.73,190.93c-.05.09-.11.19-.15.28a.61.61,0,0,0,.51.34l.12-.22a2.37,2.37,0,0,1,1.43-1.09,1.53,1.53,0,0,1,1.23.22,1.88,1.88,0,0,1,.63.83l.77.43h0a2.63,2.63,0,0,0-1-1.91,2.17,2.17,0,0,0-2.43,0A3.66,3.66,0,0,0,296.73,190.93Z"/><path class="cls-7" d="M300.55,193a2.82,2.82,0,0,0-.21.38c0,.24.3.32.52.32a1.59,1.59,0,0,1,.17-.31,2.36,2.36,0,0,1,1.32-1.06,1.5,1.5,0,0,1,1.33.2,1.64,1.64,0,0,1,.64.92l.78.43a2.64,2.64,0,0,0-1.05-2,2.17,2.17,0,0,0-2.44,0A3.26,3.26,0,0,0,300.55,193Z"/><path class="cls-24" d="M319.88,204.61a.51.51,0,0,1-.51-.36,3.61,3.61,0,0,1,.22-.44,3.31,3.31,0,0,1,1.08-1.09l-.35-.21-.79-.45-1.84-1a2.35,2.35,0,0,0-1.45,1.1l-.17.31h0a.55.55,0,0,1-.54-.29,4.5,4.5,0,0,1,.23-.43,3.47,3.47,0,0,1,1.15-1.14l-.33-.19-.73-.42-2.1-1.18a2.36,2.36,0,0,0-1.25,1,2.58,2.58,0,0,0-.22.44h0a.63.63,0,0,1-.55-.3h0a3.4,3.4,0,0,1,.27-.54,3.29,3.29,0,0,1,1-1.05l-.28-.17c-.26-.13-.5-.27-.75-.41l-2-1.12a2.34,2.34,0,0,0-1.35,1c-.06.12-.12.23-.17.35h0c-.19,0-.51-.11-.52-.32h0a3.78,3.78,0,0,1,.22-.4,3.3,3.3,0,0,1,1.06-1.1l-.34-.19-.71-.41-2.12-1.21a2.48,2.48,0,0,0-1.25,1c-.07.11-.13.24-.2.37s-.51-.12-.52-.32l.24-.45a3.47,3.47,0,0,1,1-1,1.75,1.75,0,0,1-.27-.16l-.78-.43-2-1.12a2.36,2.36,0,0,0-1.32,1.06,1.59,1.59,0,0,0-.17.31c-.22,0-.49-.08-.52-.32a2.82,2.82,0,0,1,.21-.38,3.26,3.26,0,0,1,1.06-1.09l-.34-.19-.77-.43-1.86-1a2.37,2.37,0,0,0-1.43,1.09l-.12.22a.61.61,0,0,1-.51-.34c0-.09.1-.19.15-.28a3.66,3.66,0,0,1,1.08-1.1h0l-18,9.44a1,1,0,0,0-.13.09l25.54,14.72L322.89,204l-.08-.07-.06,0-1.31-.74a2.32,2.32,0,0,0-1.36,1.07,2.75,2.75,0,0,0-.2.38Z"/><path class="cls-7" d="M310,196.68a1.52,1.52,0,0,1,1.32.2,1.84,1.84,0,0,1,.66.92c.25.14.49.28.75.41a2.71,2.71,0,0,0-1-2,2.17,2.17,0,0,0-2.45,0,3.3,3.3,0,0,0-1.06,1.1,3.78,3.78,0,0,0-.22.4h0c0,.21.33.37.52.32h0c.05-.12.11-.23.17-.35A2.34,2.34,0,0,1,310,196.68Z"/><path class="cls-25" d="M280.13,201.26l25,14.39.64-.37,16.68-9.55.34-.19s.58-1.09.14-1.55l-17.64,10.09-25.54-14.72c-.62.48-.17,1.56-.17,1.56Z"/><path class="cls-25" d="M322.41,208.26l-17,9.7-.09.06-25.45-14.69-.08,0c-.63.48-.18,1.55-.18,1.55l25.56,14.73,17.66-10.11s.57-1.07.14-1.54Z"/><path class="cls-26" d="M280,203.19a.85.85,0,0,1-.09.14L305.34,218l.09-.06-.06-.11a2.76,2.76,0,0,0,.36-2.57l-.64.37-25-14.39A3.32,3.32,0,0,1,280,203.19Z"/><path class="cls-7" d="M306.09,194.44a1.54,1.54,0,0,1,1.41.18,1.82,1.82,0,0,1,.71,1l.71.41a2.72,2.72,0,0,0-1-2.12,2.19,2.19,0,0,0-2.51.1,3.47,3.47,0,0,0-1,1l-.24.45c0,.2.33.37.52.32s.13-.26.2-.37A2.48,2.48,0,0,1,306.09,194.44Z"/><path class="cls-27" d="M305.37,217.85l.06.11,17-9.7v-2.53l-16.68,9.55A2.76,2.76,0,0,1,305.37,217.85Z"/><path class="cls-7" d="M313,198.38a3.29,3.29,0,0,0-1,1.05,3.4,3.4,0,0,0-.27.54h0a.63.63,0,0,0,.55.3h0a2.58,2.58,0,0,1,.22-.44,2.36,2.36,0,0,1,1.25-1,1.51,1.51,0,0,1,1.4.17,1.8,1.8,0,0,1,.7,1l.73.42a2.72,2.72,0,0,0-1.06-2.1A2.17,2.17,0,0,0,313,198.38Z"/><path class="cls-7" d="M316.91,200.58a3.47,3.47,0,0,0-1.15,1.14,4.5,4.5,0,0,0-.23.43.55.55,0,0,0,.54.29h0l.17-.31a2.35,2.35,0,0,1,1.45-1.1,1.55,1.55,0,0,1,1.22.23,1.79,1.79,0,0,1,.62.81l.79.45h0a2.62,2.62,0,0,0-1-1.92A2.13,2.13,0,0,0,316.91,200.58Z"/><path class="cls-7" d="M320.67,202.72a3.31,3.31,0,0,0-1.08,1.09,3.61,3.61,0,0,0-.22.44.51.51,0,0,0,.51.36v0a2.75,2.75,0,0,1,.2-.38,2.32,2.32,0,0,1,1.36-1.07,1.49,1.49,0,0,1,1.31.2,2.51,2.51,0,0,1,.42,3.2,2.58,2.58,0,0,1-.76.89v.18l.49.25,0,0v0a4.05,4.05,0,0,0,.76-1,3.29,3.29,0,0,0-.57-4.21A2.19,2.19,0,0,0,320.67,202.72Z"/></g><path class="cls-28" d="M440.41,54.91a14.65,14.65,0,0,0-3.94,4.62c-1.42-2.05-2.89-4.13-4.39-6.19-1.09-1.51-2.21-3-3.35-4.51,2.58.78,5.89-.35,8.61.46l.13-.1C438.83,50.85,439.44,53.07,440.41,54.91Z"/><path class="cls-5" d="M425.76,46.79c-1.5,2.85,1.83,6.28,6.32,6.55,1.5,2.06,3,4.14,4.39,6.19a13.05,13.05,0,0,0-.8,1.65c-3.78,1.16-7.7,2.54-11.58,4a34.71,34.71,0,0,1-19.44-10.57c-4.29-4.78-9.43-14-8.91-21.47a139.33,139.33,0,0,0,14.91-4.05,127.86,127.86,0,0,1,18.08,19.71,4.6,4.6,0,0,1-2.67-2.09Z"/><path class="cls-28" d="M428.73,48.83c1.14,1.49,2.26,3,3.35,4.51-4.49-.27-7.82-3.7-6.32-6.55l.3,0A4.6,4.6,0,0,0,428.73,48.83Z"/><path class="cls-6" d="M424.09,65.21c-5.51,2.13-10.95,4.47-15.81,6.7C399.36,59,385.36,45.11,377.22,37c5.2-1,12-2.35,18.52-3.83-.52,7.42,4.62,16.69,8.91,21.47A34.71,34.71,0,0,0,424.09,65.21Z"/><g id="_Group_7" data-name="&lt;Group&gt;"><path class="cls-29" d="M317.82,167.58a10.32,10.32,0,0,0,.69,1.74l-16.75,10.73a16.7,16.7,0,0,1-.92-3.79,11.81,11.81,0,0,1,.39-4.43l-.05-.07,16.88-10.46a12.12,12.12,0,0,0-.57,3.09A12.92,12.92,0,0,0,317.82,167.58Z"/><path class="cls-30" d="M300.62,170.88l20.19-12.51a1.81,1.81,0,0,1-.11,1.3l-2.64,1.63-16.88,10.46-.68.42-.3-.11A9.89,9.89,0,0,1,300.62,170.88Z"/><path class="cls-30" d="M302.19,181.13l18.94-11.75a1.79,1.79,0,0,1-.13,1.29l-19.43,12.06,0,0h0a17.5,17.5,0,0,1-1.81-5.87,12.07,12.07,0,0,1,.47-4.73l.3.11.68-.42.05.07a11.81,11.81,0,0,0-.39,4.43,16.7,16.7,0,0,0,.92,3.79C301.9,180.46,302.06,180.83,302.19,181.13Z"/><path class="cls-31" d="M317.82,167.58l3.31,1.8-18.94,11.75c-.13-.3-.29-.67-.43-1.08l16.75-10.73A10.32,10.32,0,0,1,317.82,167.58Z"/><path class="cls-32" d="M299.73,176.8a17.5,17.5,0,0,0,1.81,5.87h0c-.27.51-30.49-16.56-30.49-16.56a9.82,9.82,0,0,1-1.38-5.16,12.45,12.45,0,0,1,1.66-6l29.3,15.9a9.89,9.89,0,0,0-.42,1.19A12.07,12.07,0,0,0,299.73,176.8Z"/><polygon class="cls-31" points="300.62 170.88 271.32 154.98 291.62 142.52 320.81 158.37 300.62 170.88"/></g><g id="_Group_8" data-name="&lt;Group&gt;"><path class="cls-33" d="M309.69,156.14a9.38,9.38,0,0,0,.7,1.73L293.63,168.6a16.6,16.6,0,0,1-.91-3.79,11.78,11.78,0,0,1,.38-4.42l-.05-.07,16.88-10.47a12.74,12.74,0,0,0-.57,3.09A13,13,0,0,0,309.69,156.14Z"/><path class="cls-30" d="M292.5,159.44l20.19-12.52a1.83,1.83,0,0,1-.12,1.3l-2.64,1.63-16.88,10.47-.68.42-.31-.12A9.69,9.69,0,0,1,292.5,159.44Z"/><path class="cls-30" d="M294.06,169.68,313,157.94a1.81,1.81,0,0,1-.12,1.29l-19.44,12.06,0-.06h0a17.4,17.4,0,0,1-1.81-5.87,12.32,12.32,0,0,1,.46-4.73l.31.12.68-.42.05.07a11.78,11.78,0,0,0-.38,4.42,16.6,16.6,0,0,0,.91,3.79C293.78,169,293.93,169.38,294.06,169.68Z"/><path class="cls-34" d="M309.69,156.14l3.31,1.8-18.94,11.74c-.13-.3-.28-.67-.43-1.08l16.76-10.73A9.38,9.38,0,0,1,309.69,156.14Z"/><path class="cls-35" d="M291.6,165.35a17.4,17.4,0,0,0,1.81,5.87h0c-.28.52-30.5-16.55-30.5-16.55a9.91,9.91,0,0,1-1.37-5.16,12.45,12.45,0,0,1,1.65-6l29.31,15.9a9.69,9.69,0,0,0-.44,1.18A12.32,12.32,0,0,0,291.6,165.35Z"/><polygon class="cls-36" points="292.5 159.44 263.19 143.54 283.5 131.07 312.69 146.92 292.5 159.44"/></g><g id="_Group_9" data-name="&lt;Group&gt;"><path class="cls-37" d="M481.47,50.46A34.48,34.48,0,0,1,479.1,64h0c-1.84,10.23-4.83,18.61-7.29,30.61l.13,0c-1.12,6.17-2,29.64-.27,47.87a17.84,17.84,0,0,1-2.19,1.8,56.86,56.86,0,0,1-5.35,3.34c-1.11.63-2.33,1.27-3.63,1.89-.32-7.15-.84-14.49-.76-21.86-.11.56-.22,1.14-.31,1.71,0-4-.3-8,.28-12.58.92-8.79,2.12-17.9,3.45-26.7,1.33-8.39,2.66-16.78,2.35-25.08-.07-1.31-.16-2.66-.29-4,.91-.57,1.84-1.14,2.82-1.72C471,57.54,479.07,54.53,481.47,50.46Z"/><path class="cls-37" d="M474.51,40.17c4.89-.34,6.78,4.55,7,10.29-2.4,4.07-10.5,7.08-13.44,8.8-1,.58-1.91,1.15-2.82,1.72-.62-6.95-2-14.38-4-18.43,2.18-.59,4.37-1.09,6.59-1.5A63.85,63.85,0,0,1,474.51,40.17Z"/><path class="cls-37" d="M466.38,254.6a36.47,36.47,0,0,0,.33-5.41c.61-17.5-2.9-34.36-1.89-51.05,1.39-17.06-1.11-33.51-.7-50.5a56.86,56.86,0,0,0,5.35-3.34c.76,14.88.89,37-.63,51.91,0,0,4.54,28.65,3.39,46.54a85.6,85.6,0,0,0-.34,9.14h0a3.27,3.27,0,0,1-1.36,2.08,7.86,7.86,0,0,1-4.27,1.28C466.31,255,466.34,254.82,466.38,254.6Z"/><path class="cls-38" d="M470.6,257.15c0,1.21,0,2.39.09,3.6a24.44,24.44,0,0,1-11.1,2v0c-1.6-.59-3.35-1.2-5-1.89l-.06-.14c-.26-1.36-1.8-2.09-2.6-1.08l0,0c-.37-.2-.75-.41-1.11-.63.07-.66.18-1.46.27-2.4,2.27,1.5,6.23,2.32,8.61,2.77,3.12.46,10-.8,10.87-2.19Z"/><path class="cls-39" d="M470.6,257.15h-.1c-.85,1.39-7.75,2.65-10.87,2.19-2.38-.45-6.34-1.27-8.61-2.77.11-1,.22-2.08.33-3.31,3.18,2.08,8.08,2.53,12.34,1.89h0a14.85,14.85,0,0,0,2.56.08,7.86,7.86,0,0,0,4.27-1.28C470.57,255,470.58,256.1,470.6,257.15Z"/><path class="cls-40" d="M464.82,198.14c-1,16.69,2.5,33.55,1.89,51.05a36.47,36.47,0,0,1-.33,5.41,21.49,21.49,0,0,1-2.68.57h0c-3.83-.43-8.06-2.21-10.4-5.21,0,0,0,0,0,0l-.72-15.4c0-1.07.08-2.16.12-3.26.2-7.06-1.9-23.28-1.9-23.28.26-8,2.12-15.38,2.45-22.8.63-14.37,2.43-26.74,2.56-33.61l1.15-.45c1.26-.5,2.45-1,3.57-1.57,1.3-.62,2.52-1.26,3.63-1.89C463.71,164.63,466.21,181.08,464.82,198.14Z"/><path class="cls-40" d="M466.38,254.6c0,.22-.07.44-.12.65a14.85,14.85,0,0,1-2.56-.08A21.49,21.49,0,0,0,466.38,254.6Z"/><path class="cls-41" d="M467.82,40.94v.11c-2.22.41-4.41.91-6.59,1.5-3.6,1-7.15,2.13-10.69,3.41A91.47,91.47,0,0,0,439,51.45a60.38,60.38,0,0,1,6.81-5.57A27,27,0,0,1,454,42c3.12-.91,6.57-2,9.82-1.9a11.32,11.32,0,0,1,3.66.65A1.42,1.42,0,0,0,467.82,40.94Z"/><path class="cls-42" d="M465.5,65c.31,8.3-1,16.69-2.35,25.08-1.33,8.8-2.53,17.91-3.45,26.7-.58,4.53-.24,8.53-.28,12.58-1.14,7-.84,15.08-2.62,21.32l.12.4-1.15.45a56,56,0,0,1-6.19,1.95,40.83,40.83,0,0,1-11.9,1.27c-.12-6.36-.46-12.8-.83-19.22l.31.12c-.06-1.68-.13-3.38-.13-5.08l-.5-.22c-.35-6-.73-11.89-1-17.77,1.63,1,3.06,2.33,4.69,3.28a22.91,22.91,0,0,1-3.59-10.2c-.15-4.78,3-11.19,4.71-15.65a52.12,52.12,0,0,1,10.07-17.38A59.53,59.53,0,0,1,465.21,61C465.34,62.36,465.43,63.71,465.5,65Z"/><path class="cls-43" d="M472.94,8c-.87-1.64-2.73-2.9-4.1-4a20,20,0,0,0-12.6-4,30.21,30.21,0,0,0-8.56,1.92l0-.09a16.65,16.65,0,0,0-1.79.9c-3,1.74-5.94,4.21-9.36,2-2.41,4.38,2,6.33,4.59,9.25a7,7,0,0,1,1.35,2.15v0a65.76,65.76,0,0,1-.78,12.8A18.27,18.27,0,0,0,443.89,30a12.13,12.13,0,0,1,.42-2.44h0c.58-2.68,3.79-6.43,4-1.7a11.75,11.75,0,0,1-.48,2.89,19.92,19.92,0,0,1-.61,1.94h0c.18,5.42,2.68,5.55,3.34,7.23a10,10,0,0,0,3.68.35l.37,0v0c2.43-.14,6.19.16,8.78-.9a5.14,5.14,0,0,0,1.5-.91,2.94,2.94,0,0,1-.64-1.27,4.52,4.52,0,0,1,1.07-2.47l.39-.48c2.24-2.78,5.05-5.4,7.05-8.41h0A24.34,24.34,0,0,0,474,19.59c.14-.66.27-1.32.36-2a41.12,41.12,0,0,0,.41-5.83h0A17,17,0,0,0,472.94,8Z"/><path class="cls-44" d="M463.69,255.16c-4.26.64-9.16.19-12.34-1.89.1-1.1.2-2.29.31-3.57a5.76,5.76,0,0,1,1.63.25C455.63,253,459.86,254.73,463.69,255.16Z"/><path class="cls-37" d="M461.24,42.55c2,4.05,3.35,11.48,4,18.43a59.53,59.53,0,0,0-13.8,11.67A52.12,52.12,0,0,0,441.34,90c-1.7,4.46-4.86,10.87-4.71,15.65a22.91,22.91,0,0,0,3.59,10.2c-1.63-.95-3.06-2.33-4.69-3.28.27,5.88.65,11.81,1,17.77-4.16-1.86-9.71-3.85-12.58-6.36a29.7,29.7,0,0,0,.64,5c1.72,3.14,8.6,5.14,12.26,6.49.37,6.42.71,12.86.83,19.22a29.85,29.85,0,0,1-16.12-5.49l-.69-.5c0-1.15-.1-5.38-.27-11.37-.19-6.8-.43-15.85-.61-25.24-.05-2.53-.08-5.07-.12-7.6.31-.46.63-.92.94-1.4,6.86-10.29,16.31-25.95,20.76-32.8l-.08-.05c4.23-6.54-1.44-15.85-8.11-16.18,1.11-.53,2.17-1,3.08-1.44l.07,0c.82-.39,1.64-.8,2.45-1.21A91.47,91.47,0,0,1,450.55,46C454.09,44.68,457.64,43.51,461.24,42.55Z"/><path class="cls-45" d="M445.61,35.53c0-1,0-1.82-.06-2.47.61.1,1.23-1,1.74-2.34.18,5.42,2.68,5.55,3.34,7.23a10,10,0,0,0,3.68.35l.37,0v0c2.43-.14,6.19.16,8.78-.9a11,11,0,0,0,.38,2.69c-3.25-.06-6.7,1-9.82,1.9a27,27,0,0,0-8.23,3.88c0-1.39-.09-3.52-.11-5.72C445.66,38.57,445.63,36.93,445.61,35.53Z"/><path class="cls-40" d="M459.73,127.67c-.08,7.37.44,14.71.76,21.86-1.12.54-2.31,1.07-3.57,1.57l-.12-.4c1.78-6.24,1.48-14.31,2.62-21.32C459.51,128.81,459.62,128.23,459.73,127.67Z"/><path class="cls-46" d="M451.35,253.27c-.11,1.23-.22,2.35-.33,3.31s-.2,1.74-.27,2.4c-.13,1-.23,1.66-.29,2a1.77,1.77,0,0,1-.46,1.76,3.8,3.8,0,0,1-1.51.91l-.14-.69c0-3.33.07-6,.11-9.34.21-19.07-1.31-31.86-1.58-50.93-.22-16.27,2.11-32.9,2.7-49.15a56,56,0,0,0,6.19-1.95c-.13,6.87-1.93,19.24-2.56,33.61-.33,7.42-2.19,14.78-2.45,22.8,0,0,2.1,16.22,1.9,23.28,0,1.1-.07,2.19-.12,3.26-.22,5.76-.55,11-.88,15.2C451.55,251,451.45,252.17,451.35,253.27Z"/><path class="cls-38" d="M450.66,265.54a14.79,14.79,0,0,1,.37,3.57,21.48,21.48,0,0,1-8.32,3c-.77.15-3.42.43-3.42.43-.8-.32-.7-1.29-1.33-1.49-1.6-.49-3.41.57-4.78,1.16a16.34,16.34,0,0,1-2.29.85c-.78.09-2,.12-3,.23-2.19,0-4.69,0-6.89-.1a31.5,31.5,0,0,1-9.47-2c-.12-1.78-.25-2.67-.26-3.65h0c2.83,3.07,14.15,2.35,17,2.35C430.14,269.84,445.7,267.72,450.66,265.54Z"/><path class="cls-39" d="M450.14,262.82c.13.81.34,1.75.52,2.72-5,2.18-20.52,4.3-22.38,4.33-2.81,0-14.13.72-17-2.35h0c-.34-.44,3.08-3.65,3.53-3.9,0,0,2.47-.06,3.71-.22-3.84,2.74,7.88,1.7,9.49,1.62,2.87-.33,9.06,0,12.68-1.45a14.22,14.22,0,0,0,7.77,0,3.8,3.8,0,0,0,1.51-.91Z"/><path class="cls-47" d="M440.72,263.57a17,17,0,0,1-9.65-6.14c-.27-2.93-.54-5.85-.79-8.75-.58-6.43-1.12-12.81-1.65-19.18-.28-3.31-.55-6.63-.83-9.94-1.85-22.69-3.65-45.53-6.24-70.28a29.85,29.85,0,0,0,16.12,5.49,40.83,40.83,0,0,0,11.9-1.27c-.59,16.25-2.92,32.88-2.7,49.15.27,19.07,1.79,31.86,1.58,50.93,0,3.33-.07,6-.11,9.34l.14.69A14.22,14.22,0,0,1,440.72,263.57Z"/><path class="cls-28" d="M447.9,28.77a19.92,19.92,0,0,1-.61,1.94h0c-.51,1.36-1.13,2.44-1.74,2.34,0,.65,0,1.51.06,2.47-1.78,1.08-5.21,2.59-5.81,3.95a2.86,2.86,0,0,1-1.26-2.2,2.33,2.33,0,0,0,.23-.35h0c2-1.34,2.43-5.16,2.46-7.95l.4,0A18.27,18.27,0,0,0,443.89,30a12.13,12.13,0,0,1,.42-2.44h0c.58-2.68,3.79-6.43,4-1.7A11.75,11.75,0,0,1,447.9,28.77Z"/><path class="cls-48" d="M445.68,40.16h-.18a39.38,39.38,0,0,1-5.23-.43,3.42,3.42,0,0,1-.47-.26c.6-1.36,4-2.87,5.81-3.95C445.63,36.93,445.66,38.57,445.68,40.16Z"/><path class="cls-28" d="M442.43,16.16a65.76,65.76,0,0,1-.78,12.8l-.4,0c0-.65,0-1.25,0-1.74-.1-3-.05-7.58-1.16-10.37a25.77,25.77,0,0,1,1-2.89,7,7,0,0,1,1.35,2.15Z"/><path class="cls-42" d="M433.38,54.14c6.67.33,12.34,9.64,8.11,16.18l.08.05c-4.45,6.85-13.9,22.51-20.76,32.8-.31.4-.61.79-.94,1.2-3.11,3.86-6.87,7.31-11.28,5.62-1.58-1-8.24-8.18-14.93-15.89-2.86-3.3-5.74-6.68-8.2-9.69-1.66-2-3.13-3.88-4.32-5.44l-.45-.59c-.08-.09-.14-.19-.22-.29a2.1,2.1,0,0,1-.14-1.29,3.31,3.31,0,0,1,.15-.58c.66-1.86,3-4,5.43-5.69.17,1.47,2.85,4.75,3.44,5.69a52.8,52.8,0,0,0,7.57,10.26c2.3,2.37,4.61,4.89,6.92,7.25s4.32,6,7.18,7.66c.3-1.55-.64-3.44-.9-5A33.43,33.43,0,0,1,413,98.37c3.18-2.67,5.57-7.37,7.94-10.69,2.65-3.89,4.75-7.88,7.26-11.76a20.15,20.15,0,0,0,3.57-11.42A10.24,10.24,0,0,0,430,58.77a5.08,5.08,0,0,0-2-1.6,33.88,33.88,0,0,1,5.32-3Z"/><path class="cls-45" d="M438.77,36.93a2.33,2.33,0,0,1-.23.35c-.17-1.38.19-3.06,0-4.64A29,29,0,0,1,438,24.3c.41-2.42,3.31-5,2-7.17l.06-.25c1.11,2.79,1.06,7.37,1.16,10.37,0,.49,0,1.09,0,1.74,0,2.79-.45,6.61-2.46,8Z"/><path class="cls-49" d="M437.16,135.67l-.31-.12c-.1-1.73-.21-3.46-.32-5.18l.5.22C437,132.29,437.1,134,437.16,135.67Z"/><path class="cls-49" d="M436.53,130.37c.11,1.72.22,3.45.32,5.18-3.66-1.35-10.54-3.35-12.26-6.49a29.7,29.7,0,0,1-.64-5C426.82,126.52,432.37,128.51,436.53,130.37Z"/><path class="cls-44" d="M440.72,263.57C437.1,265,430.91,264.69,428,265c-1.61.08-13.33,1.12-9.49-1.62h0c3.4-.4,9.51-4.78,12.5-6A17,17,0,0,0,440.72,263.57Z"/><path class="cls-49" d="M431.75,64.5a20.15,20.15,0,0,1-3.57,11.42c-2.51,3.88-4.61,7.87-7.26,11.76-2.37,3.32-4.76,8-7.94,10.69a33.43,33.43,0,0,0-2.86-1.93c.26,1.51,1.2,3.4.9,5-2.86-1.66-4.88-5.29-7.18-7.66s-4.62-4.88-6.92-7.25a52.8,52.8,0,0,1-7.57-10.26c-.59-.94-3.27-4.22-3.44-5.69a30.19,30.19,0,0,1,4.94-2.83c.29-.13.56-.23.81-.32a4.47,4.47,0,0,1,1-.28l.12-.09c.46.65.94,1.29,1.4,1.92l.79,1c.82,1.1,1.66,2.18,2.48,3.26.47.61.95,1.22,1.4,1.82h0l1.64,2.11c.94,1.23,1.86,2.44,2.77,3.65,1.94,2.58,3.77,5.14,5.43,7.78,1.1-2.09,2.31-4.32,3.56-6.59,1.53-2.82,3.12-5.7,4.62-8.4,2.29-4.14,4.36-7.89,5.72-10.43l0,0a14,14,0,0,1,2.06-2.95,24.16,24.16,0,0,1,2.15-2.12,14.55,14.55,0,0,1,1.15-.95,5.08,5.08,0,0,1,2,1.6A10.24,10.24,0,0,1,431.75,64.5Z"/><path class="cls-50" d="M385.91,70.53c-2.47,1.72-4.77,3.83-5.43,5.69a12.8,12.8,0,0,0-1.28-1.78.52.52,0,0,1-.1-.11c0-.06,0-.13.08-.2,1.05-2.5,3.84-5.09,6.68-6.83a15.71,15.71,0,0,1,4.3-1.93c.19.79.48,1.49.69,2.33A30.19,30.19,0,0,0,385.91,70.53Z"/><path class="cls-28" d="M384.87,63a7.53,7.53,0,0,1,1,4.34c-2.84,1.74-5.63,4.33-6.68,6.83a.77.77,0,0,1-.29,0,55.86,55.86,0,0,1-5.71-1.41c-.6-2.46,4.13-6.41,5.87-7.74S382.85,63.43,384.87,63Z"/><path class="cls-45" d="M384.25,61.86c.24.4.44.77.62,1.1-2,.47-3.95.53-5.82,2s-6.47,5.28-5.87,7.74l-2.77-.82c-.9-.55-1.54-.87-2.1-1.16l-.62-.32h0a10.34,10.34,0,0,1-1.45-.91,6.4,6.4,0,0,1-.78-.59A6.59,6.59,0,0,1,364,67c-.75-1.09-1-1.11-2-2.45.67-.65,2.27,0,3.54,1.08A4.36,4.36,0,0,1,367.22,68l.41.06c1,.16,1.36.21,2.55.37-.58-.42-1.51-1.11-2.54-1.93-.67-.54-1.4-1.14-2.09-1.76-2.24-2-4.18-4.19-3.48-5.41l-.37-.19c-.19-.46-.27-.75.08-1.12a6.81,6.81,0,0,1,2.72.42c.24-.5.91-.68,1.79-.64a10.43,10.43,0,0,1,2.22.35,68.78,68.78,0,0,1,7.18,2.47c1.68,1.19,3.61.5,5.17,1.57.05-.48,0-1.62.14-2.83.16-2,.65-4.31,2.3-3.83a2.91,2.91,0,0,1,.65.31l0,.14c-1.33,1.78-.56,4,.32,5.82Z"/><path class="cls-51" d="M379.18,74.13c0,.07-.05.14-.08.2a2.52,2.52,0,0,1-.21-.25A.77.77,0,0,0,379.18,74.13Z"/></g></g></g></svg>