<svg xmlns="http://www.w3.org/2000/svg" viewBox="0 0 170.09 278.89"><defs><style>.cls-1{fill:#292f2f;}.cls-2{fill:#303637;}.cls-3{fill:#181514;}.cls-4{fill:#000004;}.cls-5{fill:#1c2122;}.cls-6{fill:#62696a;}.cls-7{fill:#3d4345;}.cls-8{fill:#8c8e8f;}.cls-9{fill:#09000c;}.cls-10{fill:#070504;}.cls-11{fill:#0f0c0c;}.cls-12{fill:#60565f;}.cls-13{fill:#0e0301;}.cls-14{fill:#100d0d;}.cls-15{fill:#fbb686;}.cls-16{fill:#e8f6ff;}.cls-17{fill:#f9a873;}.cls-18{fill:#322b32;}.cls-19{fill:#251e1d;}.cls-20{fill:#211d51;}.cls-21{fill:#272027;}.cls-22{fill:#f89c69;}.cls-23{fill:#1f1c1b;}.cls-24{fill:#0c0000;}.cls-25{fill:#2c2c2c;}.cls-26{fill:#3d363d;}</style></defs><title>table_man_1</title><g id="Layer_2" data-name="Layer 2"><g id="Layer_1-2" data-name="Layer 1"><path class="cls-1" d="M0,244a5.24,5.24,0,1,0,9.17-3.47c-.08-.07-.13-.15-.2-.22l-6.92-.46A5.23,5.23,0,0,0,0,244Z"/><path class="cls-2" d="M9.57,240.32a43.39,43.39,0,0,1,10.71-3.23c4.85-.5,14.33-.5,19.68.78a41.41,41.41,0,0,1,4.91-3.34c-20.1-5.9-37.7,2.37-43.27,5.24l.45,0,6.92.46Z"/><path class="cls-1" d="M99.28,238.72a5,5,0,0,0-.62,2.44,5.25,5.25,0,1,0,10.49,0,5.21,5.21,0,0,0-1.37-3.51l-8.34.74C99.39,238.5,99.32,238.61,99.28,238.72Z"/><path class="cls-2" d="M104.09,235.93c-17.6-5.52-37-3.42-41.36-2.34A54.09,54.09,0,0,1,69,237.42c5.42-1.33,12.27-.81,17.69-.12,3.64.35,7.58.68,11.42,1.25l1.31-.16,8.34-.74.92-.07c-.6-.23-1.18-.49-1.77-.68C106,236.53,105.05,236.22,104.09,235.93Z"/><g id="_Group_" data-name="&lt;Group&gt;"><path class="cls-3" d="M93.92,167.78a21.28,21.28,0,0,1-1.59,4.95l-10.47,5c-.4,4.49-1.38,8.93-1.93,13.4,0,.26-.08.51-.1.73-.19,1.6-.4,3.59-.64,5.81-.18,1.65-.38,3.41-.58,5.18-.39,3.24-.47,10.34,0,10.46,8.71,3.06,25.6-3.3,26.31-12.84,0-.56,5-51,5.64-58.62.38-3.95-1-9.76-2.32-13.75-.08-.26-.17-.49-.25-.73l-2.27.66a1.28,1.28,0,0,1,0,.19,1.87,1.87,0,0,1,0,.67c0,2.17-.38,6.79-2.28,7.61l-15.9,7L83.89,145a48.19,48.19,0,0,1-1.7,7.63c3-.41,11.4-2.28,13.77-4.46l1.6.92s4.19.68,3.86,7.36-3.06,9.28-3.06,9.28Z"/><path d="M104.9,200.43c-.64,8.63-18.44,15.6-26.31,12.84-.09.72-.23,1.43-.37,2.18l.24,0C83.48,223,113,209,113,209c3.38-1.68,6.85-4.16,5.55-7.89l.16-.17c-4.17-3.22-9.67-.5-13.71-2.22C105,199.35,104.94,199.93,104.9,200.43Z"/><path class="cls-4" d="M118.55,201.09c1.3,3.73-2.17,6.21-5.55,7.89,0,0-29.52,14-34.54,6.51l-.24,0A29.93,29.93,0,0,0,78,220c1.78,3.24,6.18,3.45,13.41,1.54,1.44-3.12,7.15-5.48,7.15-2.09,6.28-2.38,14.94-6.33,18.8-8.93,3.32-5,1.61-9.43,1.38-9.6Z"/></g><path class="cls-5" d="M26.45,271.54l.25-.23a.34.34,0,0,1-.18,0A.84.84,0,0,0,26.45,271.54Z"/><path class="cls-1" d="M26.45,271.54a.84.84,0,0,1,.07-.26c-2.51-.58-4.93-1.22-7.2-2a6,6,0,0,0-1.12,3.49,6,6,0,1,0,12.09,0,5.39,5.39,0,0,0-.06-.8,5.81,5.81,0,0,0-.84-2.36.75.75,0,0,0-.07-.12,18.4,18.4,0,0,0-2.62,1.78Z"/><path class="cls-2" d="M54.58,236.23c-8.75,5.63-21.46,17.77-26.89,31.61-.43,1.14-.85,2.29-1.17,3.44a.34.34,0,0,0,.18,0,18.4,18.4,0,0,1,2.62-1.78.71.71,0,0,1,.23-.12c3.07-4.77,7.66-11.94,11.27-16.59,3.75-4.82,9.66-8.56,14.65-12.16a.21.21,0,0,0,0-.06,37.12,37.12,0,0,1-.17-4.08C55.05,236.41,54.82,236.34,54.58,236.23Z"/><path class="cls-6" d="M54.57,236.17c-3.82.3-7.48-.35-9.7-1.64A41.41,41.41,0,0,0,40,237.87c-10.09,7.92-19.4,21.77-20.83,31.4a1.67,1.67,0,0,0,.19.05c2.27.74,4.69,1.38,7.2,2,.32-1.15.74-2.3,1.17-3.44,5.43-13.84,18.14-26,26.89-31.61v-.06Z"/><path class="cls-6" d="M56.26,236c-.56.09-1.12.14-1.68.21v.06c.24.11.47.18.71.29,9.09,3.92,19.62,17.88,24.91,28.6.59,1.24,1.14,2.39,1.59,3.52a7.53,7.53,0,0,1,.34.85l.64-.21c1.89-.54,3.71-1.13,5.44-1.78.65-.24,1.28-.5,1.91-.74C86,254.64,78.82,244.38,69,237.42a54.09,54.09,0,0,0-6.29-3.83h0A14.22,14.22,0,0,1,56.26,236Z"/><path class="cls-7" d="M80.2,265.12c-5.29-10.72-15.82-24.68-24.91-28.6a37.12,37.12,0,0,0,.17,4.08,89.83,89.83,0,0,1,11.81,11.52C69.2,254.33,76,263,78,266.47l.31.17c1.08.59,2.48,1.38,3.49,2C81.34,267.51,80.79,266.36,80.2,265.12Z"/><path class="cls-1" d="M82.77,269.28l-.64.21a7.53,7.53,0,0,0-.34-.85c-1-.62-2.41-1.41-3.49-2a1.36,1.36,0,0,0-.12.17,5.94,5.94,0,0,0-1.27,3.72c0,.09,0,.17,0,.28A6,6,0,0,0,89,270.53a6.44,6.44,0,0,0-.79-3C86.48,268.15,84.66,268.74,82.77,269.28Z"/><path class="cls-6" d="M64.06,229.67c.75,1.32.19,2.74-1.33,3.92,4.39-1.08,23.77-3.19,41.37,2.34.94.28,1.91.6,2.83,1,.6.19,1.17.45,1.76.68a.15.15,0,0,1,.13.06.13.13,0,0,0,0-.1c-.32-.44-.66-.84-1-1.27a25.58,25.58,0,0,0-3.87-3.54,75.12,75.12,0,0,0-15-4.71c-1.49-.3-3-.55-4.52-.75-.31,0-.6-.07-.9-.12a91.68,91.68,0,0,0-20.31-.28c-1,.06-1.89.17-2.81.3A6.28,6.28,0,0,1,64.06,229.67Z"/><path class="cls-2" d="M59.41,226.87a5,5,0,0,1,1,.3h0c.92-.13,1.86-.24,2.81-.3l0-.12c.07-.17.23-.45.35-.71h0v-4.46C61.4,222.23,60.1,224.37,59.41,226.87Z"/><path class="cls-6" d="M43.06,232.87c-.87-1.51-.06-3.13,1.9-4.34l-.08-.15c-6.81-1.95-21.76-1.51-32.09,2.85,0,0,0,0,0,0a36.73,36.73,0,0,0-11.19,8.5h0c5.58-2.87,23.18-11.14,43.29-5.24A4.64,4.64,0,0,1,43.06,232.87Z"/><path class="cls-8" d="M64.06,229.67a6.28,6.28,0,0,0-3.69-2.5h0a5,5,0,0,0-1-.3.53.53,0,0,1-.15-.05,17,17,0,0,0-2.14-.39v1.21a4.53,4.53,0,0,1,2,1.11,3.69,3.69,0,0,1,.27.35c.62,1.13-.34,2.28-2.28,3a8.65,8.65,0,0,1-2,.51,10.58,10.58,0,0,1-6.14-.66,3,3,0,0,1-1.21-1.06,1.39,1.39,0,0,1,.26-1.72,3.2,3.2,0,0,1,1-.74v-1.49c-.37.08-.74.19-1.09.3A11,11,0,0,0,45,228.53c-2,1.21-2.77,2.83-1.9,4.34a4.64,4.64,0,0,0,1.82,1.66c2.22,1.29,5.86,1.93,9.68,1.64h0c.57-.07,1.14-.12,1.7-.21a14.31,14.31,0,0,0,6.44-2.37h0C64.25,232.41,64.81,231,64.06,229.67Z"/><path class="cls-4" d="M144.08,223.59s-29.52,14-34.54,6.51l-.23,0a28.68,28.68,0,0,0-.25,4.56,5.25,5.25,0,0,0,1,1.23c2.19,2,6.29,1.93,12.45.3,1.44-3.12,7.15-5.48,7.15-2.09,6.28-2.37,14.94-6.34,18.8-8.93,3.32-5,1.61-9.43,1.37-9.6l-.16.17C150.93,219.42,147.46,221.91,144.08,223.59Z"/><path class="cls-7" d="M47.72,230.87a3,3,0,0,0,1.21,1.06,10.58,10.58,0,0,0,6.14.66,8.65,8.65,0,0,0,2-.51c1.94-.7,2.9-1.85,2.28-3a3.69,3.69,0,0,0-.27-.35,4.53,4.53,0,0,0-2-1.11V230a11.12,11.12,0,0,1-2,.52,11,11,0,0,1-6.14-.69v-1.43a3.2,3.2,0,0,0-1,.74A1.39,1.39,0,0,0,47.72,230.87Z"/><path class="cls-9" d="M113.49,132.52a.74.74,0,0,1,0,.14c.29-.1.59-.18.89-.26,0,0,0,0,0,0,2-.23,4.07-.38,6.18-.5a28.47,28.47,0,0,0-4.88.15,32.93,32.93,0,0,1,8-1.14,28.49,28.49,0,0,0-3.71-.46c-2.34.13-4.61.31-6.79.6l-.25,0C113.19,131.54,113.34,132,113.49,132.52Z"/><path class="cls-10" d="M115,159.61a48,48,0,0,1-1.69,7.62c3-.4,11.4-2.28,13.74-4.46l0,0c3.79-2,5-7,5.95-11L118.59,158Z"/><path class="cls-11" d="M120.64,131.88c-2.11.12-4.18.27-6.18.5,0,0,0,0,0,0-.3.08-.6.16-.89.26a46.08,46.08,0,0,0-9,3.79,37.25,37.25,0,0,1-6.22,9.41c0,.29.12.56.18.85l-.49-.27a1.23,1.23,0,0,0,0-.26c-.11.14-.23.26-.36.4a.77.77,0,0,1-.12.13A13.66,13.66,0,0,1,96.14,148a33.78,33.78,0,0,1-8.93,6l.29.7,10-4.38,1.55-.66,2.56-1.14,23.61-10.3a7.64,7.64,0,0,1,3.84-.47,11.63,11.63,0,0,1,5.59,2,5.41,5.41,0,0,1,1.76,1.89,2.65,2.65,0,0,1,.27.65.22.22,0,0,1,0,.09.37.37,0,0,1,.05.2l2.29-.65c-.08-.25-.18-.46-.26-.69a13.11,13.11,0,0,0-.82-1.87l.08-.06c-2.79-4.2-8.19-7.26-14.27-8.43a32.93,32.93,0,0,0-8,1.14A28.47,28.47,0,0,1,120.64,131.88Z"/><path class="cls-12" d="M135,145.32l-22,9.61-17.25,7.56c-2.53,1.1-6.75.39-9.46-1.59-2.27-1.65-2.75-3.64-1.37-4.91-2.44,1.2-1.87,8.71.81,10.67a11.7,11.7,0,0,0,5.95,2.07,7.66,7.66,0,0,0,3.5-.49l4.26-1.87L115,159.61l3.62-1.57L133,151.76l1.54-.69c1.88-.82,2.26-5.44,2.28-7.61A2.73,2.73,0,0,1,135,145.32Z"/><path class="cls-9" d="M104.93,134.36c-.42.92-.87,1.81-1.35,2.65l.9-.56a24.52,24.52,0,0,0,1-2.26A3.39,3.39,0,0,1,104.93,134.36Z"/><path class="cls-13" d="M95.24,108.85c-.59-.57-1.19-1.18-1.78-1.76a53.27,53.27,0,0,1-5.46-6s0,0,0,0a28.36,28.36,0,0,1-3.58-6.15s0,.09,0,.11h-.15c-.21,4.55-2,9.13-2.27,13.91-.23,4.56-.46,9.11-.46,13.68,0,9.56.23,19.59,1.6,28.93.08.6.17,1.16.29,1.7a10,10,0,0,0,.58,2c1.07-.37,2.14-.8,3.2-1.29a33.78,33.78,0,0,0,8.93-6,13.66,13.66,0,0,0,1.35-1.29.77.77,0,0,0,.12-.13c.13-.14.25-.26.36-.4a1.23,1.23,0,0,1,0,.26l.49.27c-.06-.29-.13-.56-.18-.85a37.25,37.25,0,0,0,6.22-9.41l-.9.56c.48-.84.93-1.73,1.35-2.65h0a32.36,32.36,0,0,1-4-11.18,62.11,62.11,0,0,1-.88-9.69c-1.34-1.21-2.52-2.29-3.37-3.14Zm2.91,35.55a2.72,2.72,0,0,1-.06.58,3.29,3.29,0,0,0,0-.44A.45.45,0,0,0,98.15,144.4Z"/><path class="cls-10" d="M80.52,177.13c3.55,1.62,7.6-.42,11.35-2.08a25.46,25.46,0,0,0-.13-6.32,11.7,11.7,0,0,1-5.95-2.07c-2.68-2-3.25-9.47-.81-10.67,0,0,0,0,.06-.05a3.86,3.86,0,0,1,1-.61l1.5-.66-.29-.7c-1.06.49-2.13.92-3.2,1.29a39.45,39.45,0,0,1-4.4,1.23Z"/><path class="cls-13" d="M104.93,134.36a3.39,3.39,0,0,0,.56-.17,24.52,24.52,0,0,1-1,2.26,46.08,46.08,0,0,1,9-3.79.74.74,0,0,0,0-.14c-.15-.49-.3-1-.45-1.45l.25,0c-1-3-4.05-10.09-12.31-7.86a32.36,32.36,0,0,0,4,11.18Z"/><path class="cls-10" d="M114.41,228.48c.19-6.28,1.14-12.55,1.54-18.84.39-6.48.94-13.61,2.85-20.12l-5.86,2.78c-.39,4.49-1.38,8.93-1.92,13.4a5.1,5.1,0,0,0-.11.74c-.18,1.59-.4,3.58-.63,5.8-.18,1.65-.4,3.41-.59,5.17-.38,3.25-.47,10.34,0,10.47a8.17,8.17,0,0,0,.95.27A14.63,14.63,0,0,0,114.41,228.48Z"/><path class="cls-14" d="M136.8,142.79a1.68,1.68,0,0,1,0,.67c0,2.17-.4,6.79-2.28,7.61l-1.54.69c-.94,3.94-2.16,9-5.95,11l0,0,1.61.93s4.21.68,3.86,7.37-3.05,9.26-3.05,9.26l-4.45,2a20.74,20.74,0,0,1-1.57,5l-4.62,2.18c-1.91,6.51-2.46,13.64-2.85,20.12-.4,6.29-1.35,12.56-1.54,18.84,8.41-.25,20.25-5.91,21.49-12.76A5.25,5.25,0,0,0,136,215c0-.07,0-.13,0-.19,0-.45.05-1,.08-1.54l.07,0c.84-8.92,4.85-50.09,5.47-56.92.38-3.95-.94-9.77-2.32-13.76-.07-.25-.16-.49-.24-.72l-2.29.65A.49.49,0,0,1,136.8,142.79Z"/><path class="cls-9" d="M123.42,187.34a20.74,20.74,0,0,0,1.57-5l-18.32,8.49-7.21,3.32a61.83,61.83,0,0,1-6,7.27l12.15-5.74,7.32-3.42,5.86-2.78Z"/><path class="cls-15" d="M98.4,59.7a20.68,20.68,0,0,1,3.3,5.85l.12,0a28.84,28.84,0,0,1,8.88-1.14c1.16-2.6-4.92-2.39-6.14-2.06l-.06-.06a7.53,7.53,0,0,1,2.91-1.31c1.39-.6,2.69-1.19,4.07-1.87l0,0c1.57-.23,7.37-.67,6.62-3.09a26,26,0,0,1-3.31.34c1.52-.71,4-1.92,2.84-2.38-1,.1-2.18.19-3.4.3v-.06a7.94,7.94,0,0,0-5.36-1,7.7,7.7,0,0,0-4.11-.3v0c-3.07,1.27-7.4,2.17-9.67,3.8v0A12.14,12.14,0,0,1,98.4,59.7Z"/><path class="cls-16" d="M99.35,70c.83-.52,1.89-.88,2.79-1.32a5.49,5.49,0,0,0-.26-2.51l-.18-.63a20.68,20.68,0,0,0-3.3-5.85,12.14,12.14,0,0,0-3.31-3,4.53,4.53,0,0,0-1.11-.5,2.2,2.2,0,0,0-.62-.12A19.33,19.33,0,0,1,91.52,58a6.9,6.9,0,0,1,1.54.76C96.83,61.06,98.76,65.9,99.35,70Z"/><path class="cls-17" d="M152.05,87.1,153.84,86a1.34,1.34,0,0,0-1.2-1.12c-1.48-.22-1.14.81-1.59,1.59-.66,1-1.31,2-2.09,3.07,1-.82,2.19-1.52,3.12-2.38Z"/><path class="cls-15" d="M169.62,88.63c-3.17-.9-5.89,1.13-8.62,2.16a21.74,21.74,0,0,1,5.65-3.3c1.15-.45,3.89-.79,3.31-2.62h-.34c-3.94-.09-6.65,1.77-9.93,3.4l-.1-.2a18.08,18.08,0,0,1,5.13-2.63c1.48-.44,3.19-.79,3.19-2.73h-.11a15.42,15.42,0,0,0-2.73.28v0c-3.81-1.43-7.87,1-11.22,3l-1.79,1.11,0,.05c-.93.86-2.09,1.56-3.12,2.38a10.2,10.2,0,0,0-.9.82,12.64,12.64,0,0,1,3.2,2.91,20.41,20.41,0,0,1,3.2,5.55l.69-.27c2.72-1,6.37-3.94,8.48-6.28,2-1.06,5.17-1.34,6.46-3.37Z"/><path class="cls-16" d="M148.06,90.35a5.48,5.48,0,0,0-1.22-.56c-.19-.05-.43-.09-.62-.12a18.48,18.48,0,0,1-1.85,1.93,6.79,6.79,0,0,1,1.56.74c3.75,2.28,5.7,7.12,6.28,11.22.83-.52,1.89-.87,2.79-1.33a5.58,5.58,0,0,0-.26-2.52c-.08-.28-.17-.58-.28-.9a20.41,20.41,0,0,0-3.2-5.55A12.64,12.64,0,0,0,148.06,90.35Z"/><path class="cls-3" d="M145.93,92.34a6.79,6.79,0,0,0-1.56-.74,4.42,4.42,0,0,0-1.2-.35,8.91,8.91,0,0,0-.83.44c-3.4,1.92-15.79,11-20,13.79,3.86,5.19,7.19,12.07,4.17,21a5.86,5.86,0,0,1-.62.69c1-.69,2-1.42,3.08-2,8.56-5.11,15.74-11.94,23.43-18.44a16.3,16.3,0,0,0-.19-3.19C151.63,99.46,149.68,94.62,145.93,92.34Z"/><path d="M136,214.85c0,.06,0,.12,0,.19a5.25,5.25,0,0,1-.08.68c-1.24,6.85-13.08,12.51-21.49,12.76a14.63,14.63,0,0,1-3.78-.33,8.17,8.17,0,0,1-.95-.27c-.11.72-.25,1.44-.37,2.18l.23,0c5,7.5,34.54-6.51,34.54-6.51,3.38-1.68,6.85-4.17,5.54-7.89l.16-.17c-4.13-3.21-9.58-.52-13.63-2.19l-.07,0C136.05,213.88,136,214.4,136,214.85Z"/><path class="cls-18" d="M85,155.94S85,156,85,156c-1.38,1.27-.9,3.26,1.37,4.91,2.71,2,6.93,2.69,9.46,1.59l17.25-7.56,22-9.61a2.73,2.73,0,0,0,1.73-1.86,8.84,8.84,0,0,0-.05-1.07.22.22,0,0,0,0-.09,2.65,2.65,0,0,0-.27-.65,5.41,5.41,0,0,0-1.76-1.89,11.63,11.63,0,0,0-5.59-2,7.64,7.64,0,0,0-3.84.47l-23.61,10.3-2.56,1.14-1.55.66-10,4.38-1.5.66A3.86,3.86,0,0,0,85,155.94Z"/><path class="cls-12" d="M99.46,194.19l7.21-3.32L125,182.38l4.45-2s2.76-2.57,3.05-9.26-3.86-7.37-3.86-7.37l-16.86,7.85A103.57,103.57,0,0,1,99.46,194.19Z"/><path class="cls-19" d="M122.34,105.48c-.33-.44-.65-.88-1-1.29,0,0-9.35-12.31-11.95-17.06-1.7-3.44-3.24-7.62-5.27-11.15-.35-.63-.71-1.23-1.1-1.81h0a4.89,4.89,0,0,0-2.61-1.29h0a5.83,5.83,0,0,0-.82-.08,4.79,4.79,0,0,0-.93,0,.16.16,0,0,1-.12,0,9.49,9.49,0,0,0-1.29.46l-.1,0a16,16,0,0,0-1.68.8,36.72,36.72,0,0,0-5,3.35l0,0-.48.44h0c-.7.62-1.41,1.26-2.11,1.91-.55.51-1.08,1-1.62,1.56-.88.89-1.75,1.77-2.6,2.7,0,0,0,0,0,0a14.83,14.83,0,0,0-.49,2.8,15.37,15.37,0,0,0,0,2.8,17.28,17.28,0,0,0,.62,3.14c.19.66.43,1.33.69,2h0A28.36,28.36,0,0,0,88,101s0,0,0,0a53.27,53.27,0,0,0,5.46,6c.59.58,1.19,1.19,1.78,1.76l1.49,1.49c.85.85,2,1.93,3.37,3.14,6.91,6.14,18.78,15.64,21.68,15.5a5.22,5.22,0,0,0,1.29-.18s0,0,0,0a5.71,5.71,0,0,0,2.78-1.59,5.86,5.86,0,0,0,.62-.69C129.53,117.55,126.2,110.67,122.34,105.48Z"/><path class="cls-9" d="M123,128.83s0,0,.07,0,0,0,0,0S123.06,128.83,123,128.83Z"/><path class="cls-18" d="M111.77,171.55c.56-1.46,1-2.89,1.51-4.32a48,48,0,0,0,1.69-7.62L99.5,166.37a57.84,57.84,0,0,1-2,11.84,76.13,76.13,0,0,1-9.31,21.23,47.56,47.56,0,0,1-5.59,7.16c-.49.49-1,1-1.46,1.43l11.61-5.82c.25-.23.5-.49.75-.75a61.83,61.83,0,0,0,6-7.27A103.57,103.57,0,0,0,111.77,171.55Z"/><path class="cls-9" d="M111.77,171.55l16.86-7.85-1.61-.93c-2.34,2.18-10.72,4.06-13.74,4.46C112.82,168.66,112.33,170.09,111.77,171.55Z"/><path class="cls-20" d="M98.15,144.4a.45.45,0,0,1-.11.14,3.29,3.29,0,0,1,0,.44A2.72,2.72,0,0,0,98.15,144.4Z"/><path class="cls-9" d="M95.92,73.82a5.15,5.15,0,0,0-.48.37,16,16,0,0,1,1.68-.8l.1,0a6.18,6.18,0,0,0-1.18.42A.19.19,0,0,1,95.92,73.82Z"/><path class="cls-9" d="M80.52,177.13l.4,8.73-.11.11,9.9-4.6a43.92,43.92,0,0,0,1.16-6.32C88.12,176.71,84.07,178.75,80.52,177.13Z"/><path class="cls-3" d="M89.14,63c.89.7,1.75,1.44,2.6,2.16s1.86,1.56,2.76,2.35S96.19,69,97,69.7s1.73,1.57,2.54,2.37A13.72,13.72,0,0,0,99.35,70c-.59-4.11-2.52-9-6.29-11.21A6.9,6.9,0,0,0,91.52,58a6.21,6.21,0,0,0-1.2-.34,8.48,8.48,0,0,0-.84.43c-1,.54-2.24,1.31-3.69,2.2.4.3.78.61,1.17.93C87.69,61.83,88.4,62.42,89.14,63Z"/><path class="cls-17" d="M90.11,28.1c-.18-3.09-.7-3.24.61-5.54a29.09,29.09,0,0,0-.15-3c-.2.18-.45.36-.68.55l-.15,0a35,35,0,0,1-1.84,5.23c-.8,2.23-3.44,5.32-3.61,10.23-.55.3-1.13.59-1.7.89-.11,0-.16.09-.27.13a54.46,54.46,0,0,0,.22-6.4C81.66,29,78.31,29.13,78.83,32c.27,1.5.09,4.28.56,6.12.3,1.24.92,2.06,2.12,1.82a1.69,1.69,0,0,0,.06.56v.05c0,.1,0,.2,0,.29a11.21,11.21,0,0,0,.28,1.41v.11a.77.77,0,0,1,.06.15,3.54,3.54,0,0,0,1,1.33c.89.74,2,1.22,2.53,1a9.59,9.59,0,0,0,1.23-3c.75-2.6,1.54-6.19,2.18-8.34S90.21,30,90.11,28.1Z"/><path class="cls-9" d="M81.75,202.43,75,205.53l-6.85,3.19-.47,4.91,8.06-3.81,5.47-2.57.47-4.66A.46.46,0,0,1,81.75,202.43Z"/><path class="cls-21" d="M88.16,199.44a76.13,76.13,0,0,0,9.31-21.23,57.84,57.84,0,0,0,2-11.84l-4.26,1.87a7.66,7.66,0,0,1-3.5.49,25.46,25.46,0,0,1,.13,6.32,43.92,43.92,0,0,1-1.16,6.32c-2.21,8.58-6.68,17.08-9,21.06a.46.46,0,0,0-.11.16l-.47,4.66-.06.78c.5-.46,1-.94,1.46-1.43A47.56,47.56,0,0,0,88.16,199.44Z"/><path class="cls-22" d="M83,43.81a3.54,3.54,0,0,1-1-1.33.77.77,0,0,0-.06-.15v-.11a11.21,11.21,0,0,1-.28-1.41c-.25,1.16-.58,2.4-.87,3.63v0h0c0,.22-.11.42-.16.64-.13.52-.24,1-.36,1.54l0,0c2.57-.15,4.47-.68,5.26-1.88C85,45,83.86,44.55,83,43.81Z"/><path class="cls-16" d="M80.26,56.06h0Z"/><path class="cls-15" d="M80.71,44.48h0v0c.29-1.23.62-2.47.87-3.63,0-.09,0-.19,0-.29v-.05a1.69,1.69,0,0,1-.06-.56c-1.2.24-1.82-.58-2.12-1.82l-.22,0c-1.09,1.6-2.39,4-3.59,5.94-.13.22-.25.43-.39.64a9,9,0,0,1-6,.77c-.75-.22-1.53-.44-2.28-.63a20.18,20.18,0,0,1-6.27-3.75l0,0s0,0,0,0v0h0a10.47,10.47,0,0,1-.62,2.19l.71.13c1,.2,2,.41,3,.66v.06a31.28,31.28,0,0,1,4.72,1.43,29.53,29.53,0,0,1,5.48,3.23c2.32,1.66,4.36,3.33,4.83,3.72.23-1,.41-2,.59-3.06a0,0,0,0,1,0,0c.2-.85.71-1.76,1-2.77.12-.5.23-1,.36-1.54C80.6,44.9,80.66,44.7,80.71,44.48Z"/><path class="cls-23" d="M74.71,73.15c4.67,2.44,9.37,4.84,13.1,6.71.7-.65,1.41-1.29,2.11-1.91h0l.48-.44,0,0a36.72,36.72,0,0,1,5-3.35,5.15,5.15,0,0,1,.48-.37.19.19,0,0,0,.12-.06,6.18,6.18,0,0,1,1.18-.42,9.49,9.49,0,0,1,1.29-.46.16.16,0,0,0,.12,0,4.79,4.79,0,0,1,.93,0,5.83,5.83,0,0,1,.82.08c-.28-.29-.55-.55-.84-.81-.81-.8-1.68-1.59-2.54-2.37s-1.65-1.47-2.5-2.2-1.83-1.58-2.76-2.35S90,63.69,89.14,63c-.74-.57-1.45-1.16-2.18-1.73-.39-.32-.77-.63-1.17-.93l-3-2.36A37,37,0,0,1,70,57c-1.43-.3-2.86-.7-4.35-1.07a32,32,0,0,1-5.4-2.43c-1.08-.57-2.17-1.22-3.21-1.9-.29-.21-.57-.4-.84-.62-3.24-2.28-5.62-5-4-7.09a2.17,2.17,0,0,1,.32-.37s0,0,.05-.06a.78.78,0,0,1,.24-.19l-1.21-.23c-3.1-.59-7.39-1.4-7.69-1.42-4.89-.39-10.71,2.2-13.2,5A249.36,249.36,0,0,0,55.9,63.29C59.13,65,66.89,69.11,74.71,73.15Z"/><path class="cls-3" d="M61.46,80.29c1.93,1.34,4.16,2.93,6.25,4.71l0,0a19.41,19.41,0,0,1,5.33,5.39,24.65,24.65,0,0,1,1.38,2.28,23.69,23.69,0,0,1,2.23,6,17.62,17.62,0,0,1,.45,3.26l.15,3.34.26,5.79.11,2.5h0l.83,18.32.3,6.34.15,3.21.43,9.43.15,3.22.11,2.35a39.45,39.45,0,0,0,4.4-1.23,10,10,0,0,1-.58-2c-.12-.54-.21-1.1-.29-1.7-1.37-9.34-1.6-19.37-1.6-28.93,0-4.57.23-9.12.46-13.68.22-4.78,2.06-9.36,2.27-13.91h.15s0-.07,0-.11h0c-.26-.65-.5-1.32-.69-2a17.28,17.28,0,0,1-.62-3.14,15.37,15.37,0,0,1,0-2.8,14.83,14.83,0,0,1,.49-2.8s0,0,0,0c.85-.93,1.72-1.81,2.6-2.7.54-.53,1.07-1,1.62-1.56-3.73-1.87-8.43-4.27-13.1-6.71-7.82-4-15.58-8.15-18.81-9.86A249.36,249.36,0,0,1,30.7,46.6a4.4,4.4,0,0,0-.43.52,62.81,62.81,0,0,0-3,15.46c.35.08.68.18,1,.28C38.25,65.51,52.56,74.17,61.46,80.29Z"/><polygon class="cls-18" points="52.95 199.01 68.11 208.72 69.04 198.76 53.88 189.04 46.16 184.04 11.75 161.97 10.98 172.13 13.69 173.88 45.21 194.06 52.95 199.01"/><path class="cls-8" d="M68.47,50.78c-.69-.31-1.37-.64-2-1,.69.38,1.42.75,2.13,1.12A1.74,1.74,0,0,1,68.47,50.78Z"/><path class="cls-16" d="M68.33,45.56a31.28,31.28,0,0,0-4.72-1.43c-1-.25-2.06-.46-3-.63l-1.87-.32-.06.2s-.07,0-.13,0h0c-.7.13-1.48,1.35-2.23,1.31v.7l.16,0a29,29,0,0,1,4.83,1.83c1.63.74,3.39,1.61,5.2,2.53.64.34,1.32.67,2,1a1.74,1.74,0,0,0,.12.14c.2.1.4.21.6.3,2,1,4.06,2.06,5.93,2.91.39.2.8.37,1.18.52a22.9,22.9,0,0,0,3.89,1.41h.06l-.16-.15a4.76,4.76,0,0,1-.43-.68,23.55,23.55,0,0,1-.94-2.66.24.24,0,0,1-.08-.06c-.47-.39-2.51-2.06-4.83-3.72A29.53,29.53,0,0,0,68.33,45.56Z"/><path class="cls-6" d="M48.93,221.76v8.08a11,11,0,0,0,6.14.69,11.12,11.12,0,0,0,2-.52v-3.58a17,17,0,0,1,2.14.39.53.53,0,0,0,.15.05c.69-2.5,2-4.64,4.1-5.3v-.11c-2.1-.1-4.23-.12-6.39-.1l.19-14.43-8.39-5.47Z"/><path class="cls-24" d="M60.6,41.11a20.18,20.18,0,0,0,6.27,3.75c.75.19,1.53.41,2.28.63a9,9,0,0,0,6-.77c.14-.21.26-.42.39-.64,1.2-1.92,2.5-4.34,3.59-5.94l.22,0c-.47-1.84-.29-4.62-.56-6.12-.52-2.84,2.83-2.94,3.71-1.78a54.46,54.46,0,0,1-.22,6.4c.11,0,.16-.1.27-.13.57-.3,1.15-.59,1.7-.89.17-4.91,2.81-8,3.61-10.23a35,35,0,0,0,1.84-5.23l.15,0c.23-.19.48-.37.68-.55a10.48,10.48,0,0,0,2-2.11,13.43,13.43,0,0,0-.13-2.71c-.06-.33-.12-.66-.21-1C89.56,2.41,72.13-3.53,61.34,2.23V2.15A24.15,24.15,0,0,0,56.72,5.4c-3.8,3.4-6.32,7.92-5.27,12.21a142.44,142.44,0,0,0,4.18,13.81c.08.21.15.41.23.61.52,1.41,1,2.77,1.56,4,.74,1.16,1.75,2.33,1.8,3.38,0,.21.47.86,1.31,1.62,0,0,0,0,0,0Z"/><path class="cls-25" d="M80.19,56.06a22.9,22.9,0,0,1-3.89-1.41c-.38-.15-.79-.32-1.18-.52-1.87-.85-3.89-1.87-5.93-2.91-.2-.09-.4-.2-.6-.3-.71-.37-1.44-.74-2.13-1.12-1.81-.92-3.57-1.79-5.2-2.53a29,29,0,0,0-4.83-1.83l-.16,0v-.7c.75,0,1.53-1.18,2.23-1.31a26.56,26.56,0,0,1-2.92-.61,5,5,0,0,0-.76-.05.24.24,0,0,1,0-.15,7.37,7.37,0,0,0-2,.72.78.78,0,0,0-.24.19s-.05,0-.05.06a2.17,2.17,0,0,0-.32.37c-1.6,2.14.78,4.81,4,7.09.27.22.55.41.84.62,1,.68,2.13,1.33,3.21,1.9A32,32,0,0,0,65.66,56c1.49.37,2.92.77,4.35,1.07a37,37,0,0,0,12.8.95,7.22,7.22,0,0,1-.73-.54c-.58-.45-1.16-.89-1.76-1.33v0h-.12Z"/><path class="cls-26" d="M53.88,189,69,198.76,68,164.27l-1.88-57.41a15.1,15.1,0,0,0-.29-2.56,20.06,20.06,0,0,0-1.18-4.07C63.23,96.83,54.29,89.88,51.2,88c-1-.56-3.36-2-6.35-3.84-9.14-5.55-24.42-14.82-27.14-15.47a8.47,8.47,0,0,0-7.08,1.92s-.07,0-.1.07a9.24,9.24,0,0,0-.76.78,6.3,6.3,0,0,0-.5,1c-.17.23-.34.47-.5.72v0A11,11,0,0,0,7.62,79l3.05,82.31,1.08.72L46.16,184Z"/><polygon class="cls-21" points="52.95 199.01 45.21 194.06 13.69 173.88 13.66 173.94 13.76 178.61 44.76 198.76 48.91 201.46 57.31 206.93 67.64 213.63 68.11 208.72 52.95 199.01"/><path class="cls-12" d="M10.63,70.59a8.47,8.47,0,0,1,7.08-1.92c2.72.65,18,9.92,27.14,15.47,3,1.85,5.33,3.28,6.35,3.84,3.09,1.9,12,8.85,13.4,12.25a20.06,20.06,0,0,1,1.18,4.07,15.1,15.1,0,0,1,.29,2.56L68,164.27,69,198.76l-.93,10L75,205.53l6.79-3.1c2.28-4,6.75-12.48,9-21.06l-9.9,4.6.11-.11-.4-8.73-.91-20.64-.11-2.35-.15-3.22-.43-9.43-.15-3.21-.3-6.34-.83-18.32h0l-.11-2.5-.26-5.79L77.12,102a17.62,17.62,0,0,0-.45-3.26,23.69,23.69,0,0,0-2.23-6,24.65,24.65,0,0,0-1.38-2.28A19.41,19.41,0,0,0,67.73,85l0,0c-2.09-1.78-4.32-3.37-6.25-4.71-8.9-6.12-23.21-14.78-33.16-17.43-.34-.1-.67-.2-1-.28a13.59,13.59,0,0,0-6.79-.23A20.79,20.79,0,0,0,9.77,71.44a9.24,9.24,0,0,1,.76-.78S10.59,70.59,10.63,70.59Z"/><path class="cls-8" d="M9.77,71.44a6.12,6.12,0,0,0-1,1.68c.16-.25.33-.49.5-.72A6.3,6.3,0,0,1,9.77,71.44Z"/></g></g></svg>