<svg xmlns="http://www.w3.org/2000/svg" viewBox="0 0 128.23 429.98"><defs><style>.cls-1{opacity:0.25;}.cls-2{fill:#006384;}.cls-3{fill:#011a20;}.cls-4{fill:#263136;}.cls-5{fill:#1d282c;}.cls-6{fill:#41494e;}.cls-7{fill:#04091d;}.cls-8{fill:#071d39;}.cls-9{fill:#070d22;}.cls-10{fill:#0b1010;}.cls-11{fill:#071d38;}.cls-12{fill:#fbb686;}.cls-13{fill:#000322;}.cls-14{fill:#f9a873;}.cls-15{fill:#c3854e;}.cls-16{fill:#d8aa80;}.cls-17{fill:#f89c69;}.cls-18{fill:#f9a36d;}.cls-19{fill:#0b2a50;}.cls-20{fill:#e3c09f;}</style></defs><title>woman_1</title><g id="Layer_2" data-name="Layer 2"><g id="Layer_1-2" data-name="Layer 1"><g class="cls-1"><path class="cls-2" d="M78.84,429.09c25.85-3.74,46.22-18.3,49.05-34a19.94,19.94,0,0,0,.25-5.45.22.22,0,0,0,0-.14,14,14,0,0,0-.43-2.48c-3.61-16.17-27.41-25.94-54.93-21.94-28.9,4.16-51,21.88-49.3,39.56,0,.49.12,1,.21,1.49a20,20,0,0,0,2.39,6.59C33.38,425.5,54.66,432.58,78.84,429.09Z"/></g><g id="_Group_" data-name="&lt;Group&gt;"><path class="cls-3" d="M65.1,17.23l.08,0a24.05,24.05,0,0,0-1.33,7.12c-.11,1.45-.16,3-.15,4.68-2.65-4.52-3.29-12.5.08-16.16l-.08-.06c1-1.16,1.91-2.39,3-3.56a8.89,8.89,0,0,0-.84,3.57A14.45,14.45,0,0,1,65.1,17.23Z"/><path class="cls-4" d="M94.15,11.88h0c-2.32,7.74.84,18.7,7.79,21.15a16.13,16.13,0,0,0,12.11-.3,49.11,49.11,0,0,1-.94,6,20.55,20.55,0,0,1-8.33,13,14.94,14.94,0,0,1-6.91-1.24c1,1.6-.4,1.36-1.43,1a21.06,21.06,0,0,1-4.39-2.23,28.58,28.58,0,0,1-6.77-5.5h-.09a5.86,5.86,0,0,1,0,2.7c-2.63-1.18-4.55-6.06-5.51-8.53-1.34-3.42-2-7-3.34-10.37-.39.8-.39,2.07-1,2.8-1.28-3.36-.41-8.61.23-12a17.68,17.68,0,0,1,2.63-6.77c.72-1.05,2.72-2.72,2.72-4-2.16-.07-4.39,2.16-6.39,1.84,1.28-3.19,5.92-5.58,8.94-6.78A69.44,69.44,0,0,1,92,.22a14.68,14.68,0,0,1,8.94,4.24C97.41,5.53,95.23,8.37,94.15,11.88Z"/><path class="cls-3" d="M114.05,32.74a16.13,16.13,0,0,1-12.11.3c-7-2.45-10.11-13.41-7.79-21.15.17,2.95,2.23,6.37,2.93,8.63a2.9,2.9,0,0,0,.32-1.84c1.52,2,2.79,3.83,4.93,5.18,1.45,1,3.27,2.56,5.11,2.56.32-1.36-.47-2.48-.87-3.59,1.43-.17,2.86,1.44,4.38,1.52,2.16.15,2.64-1.52,2.4-3.36,1.91,1.44,4.78-2.23,5.82-3.58a10,10,0,0,0,1.69-5.77C124.38,20.84,121,29.54,114.05,32.74Z"/><path class="cls-5" d="M102.86,4.06c6.44-3,15,.34,17.9,7.28a2.11,2.11,0,0,1,.1.3,10,10,0,0,1-1.69,5.77c-1,1.35-3.91,5-5.82,3.58.24,1.84-.24,3.51-2.4,3.36-1.52-.08-3-1.69-4.38-1.52.4,1.11,1.19,2.23.87,3.59-1.84,0-3.66-1.6-5.11-2.56-2.14-1.35-3.41-3.19-4.93-5.18a2.9,2.9,0,0,1-.32,1.84c-.7-2.26-2.76-5.68-2.93-8.63h0c1.08-3.51,3.26-6.35,6.74-7.42a3.8,3.8,0,0,1,.43.47,11.11,11.11,0,0,1,1.53-.87Z"/><path class="cls-6" d="M95.29,55.41a21.78,21.78,0,0,1-13.7-2.95,21.16,21.16,0,0,1-2.3-1.56,54.41,54.41,0,0,1-5.36-4.83l-.18-.18a34.22,34.22,0,0,1-9.9-21.5,24.05,24.05,0,0,1,1.33-7.12l-.08,0a14.45,14.45,0,0,0,.72-4.37,8.89,8.89,0,0,1,.84-3.57,23,23,0,0,1,2-2.09c3.4-3.41,6.38-4.69,11.27-6a30.83,30.83,0,0,1,12-1,69.44,69.44,0,0,0-8.51,2.43c-3,1.2-7.66,3.59-8.94,6.78,2,.32,4.23-1.91,6.39-1.84,0,1.28-2,2.95-2.72,4a17.68,17.68,0,0,0-2.63,6.77c-.64,3.44-1.51,8.69-.23,12.05.64-.73.64-2,1-2.8,1.36,3.35,2,7,3.34,10.37,1,2.47,2.88,7.35,5.51,8.53a5.86,5.86,0,0,0,0-2.7h.09a28.58,28.58,0,0,0,6.77,5.5,21.06,21.06,0,0,0,4.39,2.23c1,.4,2.48.64,1.43-1a14.94,14.94,0,0,0,6.91,1.24A20.73,20.73,0,0,1,95.29,55.41Z"/><path class="cls-7" d="M29.85,88.44C35.93,89.67,42.8,93.25,48.94,95c-1.36,4-2.34,7.62-2.37,9.48a25.43,25.43,0,0,0,1.71,8.28c-6.15-3.54-16.06-8.08-23.1-14.13v-.06c-.47-2.72,2.27-8.36,4.48-10.29l.17.15S29.83,88.46,29.85,88.44Z"/><path class="cls-8" d="M61.16,158.46c.28,4.73.67,12.15.82,20.15a19.91,19.91,0,0,1-2.06-.71c-2.36-1-4.68-1.87-6.79-2.94a16,16,0,0,1-6.5-5.41c5.17-1.16,10.46-6,11.42-10.81-.06-.24-.11-.48-.16-.72C59,158.18,60,158.26,61.16,158.46Z"/><path class="cls-8" d="M101.43,155.33a25.35,25.35,0,0,0,9.85,11.89c-.33.86-1.67,2-3.74,3.13a61,61,0,0,1-9.21,4,40.56,40.56,0,0,1-4.78-6.83,23.65,23.65,0,0,1-3.23,9.27c-2.62.69-5.34,1.3-8.06,1.77,2.51-6.79,1.82-14.13,2-21.18,1.81-.5,3.58-1,5.35-1.62a92,92,0,0,0,11.47-4.72A39.7,39.7,0,0,0,101.43,155.33Z"/><path class="cls-9" d="M93.55,167.56a40.56,40.56,0,0,0,4.78,6.83c-2.48.86-5.19,1.71-8,2.44A23.65,23.65,0,0,0,93.55,167.56Z"/><path class="cls-10" d="M48.94,95c.9-2.65,2-5.46,3-7.94-1.3,18.92,7.83,51.21,8.83,66.12,0,0,.15,2,.37,5.27-1.19-.2-2.13-.28-3.27-.44-1.89-8.84-2.69-24.91-3.58-33.68a49.76,49.76,0,0,1-6-11.57,25.43,25.43,0,0,1-1.71-8.28C46.6,102.63,47.58,99,48.94,95Z"/><path class="cls-10" d="M96.8,74.16c1.14,10.72-1.09,21.43-3.69,32.15-2.83,11-9.55,38.13-3.52,49.49-1.77.59-3.54,1.12-5.35,1.62,0-1.07.08-2.11.15-3.16,1.6-17.22-.63-35.09,1-52.63,1-10.53,1.28-19.15,9.89-26.16C95.71,75.05,96.24,74.61,96.8,74.16Z"/><path class="cls-11" d="M122.78,73.72c-.41,4.22-2.43,9.2-3.85,13-2.1,6.26-5.05,12.25-7.38,18.48-4.17,11.67-8.7,22.45-10,34.94a81,81,0,0,0-.54,11,92,92,0,0,1-11.47,4.72c-6-11.36.69-38.54,3.52-49.49,2.6-10.72,4.83-21.43,3.69-32.15,6.2-5,17.59-11.4,25.22-9.62,1.26,2.52,1.36,6.34,1,9.2Z"/><path class="cls-7" d="M121.9,64.3l.12.24c-7.63-1.78-19,4.66-25.22,9.62a47.79,47.79,0,0,0-3.23-13c.77-.14,1.55-.31,2.33-.46C105.83,58.7,117.65,56.49,121.9,64.3Z"/><path class="cls-12" d="M113.51,295.13c2.14,8.08,2.14,11.57,2.14,19.64,0,16.17-2.56,33.62-4.25,49.77l-.62.18c-1.22-.87-3.1-1.17-5.92-.6l-.38.09A369,369,0,0,0,102.26,324c-.94-8.2-8.74-39.74,7.07-40.19C110.74,287.91,112.77,292.16,113.51,295.13Z"/><path class="cls-10" d="M113.51,181.84c5.21,17.58-.34,31.5-2.1,47.39-1.65,15.17-3.29,29.17-3.41,44.64a68.14,68.14,0,0,1-15.13,9.23,158.29,158.29,0,0,0,1.73-29.63c-.32-7-.64-14.35-.95-21.37a15.34,15.34,0,0,0-.39-2.83c-1.12-4.53-4.54-6.26-10.46-7.06,1.59-9.57,1.28-23.93,7.66-32.22C93.4,186.17,108,178.28,113.51,181.84Z"/><path class="cls-10" d="M95.32,386.61c.48-2.65,1-5.64,1.76-8.87a.65.65,0,0,1,0-.13c.49-1.52,1.11-3.78,1.93-6,1.24-3.32,2.93-6.59,5.43-7.38l.38-.09c2.82-.57,4.7-.27,5.92.6,3.32,2.35,1.94,8.8,1.8,13.31a1.89,1.89,0,0,1-.06.18c-1.12,1.33-1.94,1.77-2.94,4.1h0a64.59,64.59,0,0,0-.78,12.91c-1.3.06-3.12.15-4.81.27a63.18,63.18,0,0,0-1.64-16c-1.28,3.83-2,13.58-2.87,16.55v.1c-3.06.39-5.78.68-8.51-.1C89.27,391.79,91.6,386.91,95.32,386.61Z"/><path class="cls-13" d="M109.58,382.31c1-2.33,1.82-2.77,2.94-4.1-1.58,5-2,11.19-2,17l-1.74.06a64.59,64.59,0,0,1,.78-12.91Z"/><path class="cls-9" d="M98.33,174.39a61,61,0,0,0,9.21-4l1.32.18a60.46,60.46,0,0,1,4.65,11.31C108,178.28,93.4,186.17,90.46,190c-6.38,8.29-6.07,22.65-7.66,32.22,5.92.8,9.34,2.53,10.46,7.06H89.65v0l-19.06-9.56a88,88,0,0,0,2.35-10.42l.21,0a141.36,141.36,0,0,0,4.75-30c1.44-.17,2.91-.39,4.36-.64,2.72-.47,5.44-1.08,8.06-1.77C93.14,176.1,95.85,175.25,98.33,174.39Z"/><path class="cls-10" d="M108.8,395.23c0,1.44,0,2.81,0,4-1.27,1.28-3.45,1.22-5.37.53a26.93,26.93,0,0,0,.52-4.29C105.68,395.38,107.5,395.29,108.8,395.23Z"/><path class="cls-14" d="M92.87,283.1A68.14,68.14,0,0,0,108,273.87c0,.57,0,1.15,0,1.72-.36,2.32.33,5.23,1.34,8.2-15.81.45-8,32-7.07,40.19a369,369,0,0,1,2.22,40.23c-2.5.79-4.19,4.06-5.43,7.38l-.22-.08c1.2-13.93-9.31-64.56-13.7-85.44A70.19,70.19,0,0,0,92.87,283.1Z"/><path class="cls-13" d="M102.35,379.47a63.18,63.18,0,0,1,1.64,16,25.42,25.42,0,0,0-4.51.52C100.34,393.05,101.07,383.3,102.35,379.47Z"/><path class="cls-7" d="M75.87,65.11a143.1,143.1,0,0,1,16.26-3.68l1.44-.28a47.79,47.79,0,0,1,3.23,13c-.56.45-1.09.89-1.56,1.31-8.61,7-8.93,15.63-9.89,26.16-1.59,17.54.64,35.41-1,52.63-.07,1.05-.11,2.09-.15,3.16-2,.53-4,1-6.16,1.47-.72-21.36-4-43.06-6.45-63.26,0-6.52-.41-19.49-5.1-22.72a8.26,8.26,0,0,0-5.65-1.12,84.23,84.23,0,0,1,11.78-5.6C73.73,65.79,74.8,65.44,75.87,65.11Z"/><path class="cls-12" d="M93.57,61.15l-1.44.28a143.1,143.1,0,0,0-16.26,3.68c0-.64,0-1.27-.08-1.91,2.1-.85,4.76-4,5.65-5.84.81-1.62.51-3.24.15-4.9a21.78,21.78,0,0,0,13.7,2.95,39.67,39.67,0,0,1,.61,5.28C95.12,60.84,94.34,61,93.57,61.15Z"/><path class="cls-9" d="M80.62,287.31c-9.17,2.15-18.24,1.79-24.33-3.43A197.34,197.34,0,0,0,54.58,261L66,266.91l23.61,12.17V229.27h3.61a15.34,15.34,0,0,1,.39,2.83c.31,7,.63,14.35.95,21.37a158.29,158.29,0,0,1-1.73,29.63,70.19,70.19,0,0,1-7.74,3C83.63,286.55,82.13,287,80.62,287.31Z"/><path class="cls-15" d="M70.41,220.87l-.18-.09c.12-.36.24-.72.36-1.11l19.06,9.56v49.85l-2-49.12C85.1,228.42,78.27,224.86,70.41,220.87Z"/><path class="cls-16" d="M61.85,237.54l.06,0c2.6-.15,1.66-4,1.6-5.84.27,1.35.58,2.69.84,4l.26,0c2-1.07,1.55-5.72,1-8.51.49-1.61,1.19-4.06,1.63-5.26h0a14.24,14.24,0,0,0-.59,4.19h0c.29,1.57.57,3.24.85,4.77h.31c2.37,0,1.73-6.1,2-8.52,0-.19.06-.36.09-.5h0c.13-.32.24-.66.36-1l.18.09c7.86,4,14.69,7.55,17.28,9.09l2,49.12L66,266.91C62,251.24,53.1,230.75,37.4,225l-.47-20.31c.55.22,1.37.57,2.43,1,3.86,1.72,10.73,5,18.16,8.73-.39.85-.75,1.73-1.06,2.61a19.7,19.7,0,0,0-1.05,4.58v0A71.63,71.63,0,0,0,57,232.27c0,.11,0,.24.08.35a12.81,12.81,0,0,0,.62,1.87c2.54-.19,1.46-7.72.93-11.4a20.31,20.31,0,0,1,1.95-3.61l.4.17a37.43,37.43,0,0,0-.64,8.3v.16C60.19,231.16,61.21,234.63,61.85,237.54Z"/><path class="cls-7" d="M84.24,157.42c-.16,7.05.53,14.39-2,21.18-1.45.25-2.92.47-4.36.64.38-6.72.41-13.51.18-20.35C80.2,158.45,82.24,158,84.24,157.42Z"/><path class="cls-12" d="M80.65,290.81c.45,10.77,3.44,21.08,2.43,32.2-1.64,16.33-12.67,36.59-9.78,53.24a17.35,17.35,0,0,0-4.5,1C69.15,361.83,70,346.41,70,331,70,322.11,66.89,291.14,80.65,290.81Z"/><path class="cls-14" d="M75.28,58.87c-.61-4.16-1.49-8.31-1.53-12.47a2.19,2.19,0,0,0,.18-.33,54.41,54.41,0,0,0,5.36,4.83,21.16,21.16,0,0,0,2.3,1.56c.36,1.66.66,3.28-.15,4.9-.89,1.8-3.55,5-5.65,5.84C75.68,61.76,75.5,60.31,75.28,58.87Z"/><path class="cls-14" d="M61.76,383.42c-1.65,3.36-1.71,8-2.49,11.89-1.53,6.1-3.05,9.22-7.93,10.1.55-1,1.08-2.08,1.58-3.18,1.43-3.16,2.74-6.59,4.07-9.81l-.09,0c5.52-12.86-.37-89.22-.61-107.42v-1.08c6.09,5.22,15.16,5.58,24.33,3.43,0,1.18,0,2.34,0,3.5C66.89,291.14,70,322.11,70,331c0,15.42-.89,30.84-1.24,46.26A14.42,14.42,0,0,0,61.76,383.42Z"/><path class="cls-8" d="M71.63,95.63c2.49,20.2,5.73,41.9,6.45,63.26.23,6.84.2,13.63-.18,20.35a62.05,62.05,0,0,1-6.69.44c0-11.2-1.07-22.39-1.71-33.61-.84-13.6-1.06-27.43-2.55-41-.64-5.53-1.06-12.34-3.39-17.44-1.28-2.72-5.63-10.24-9.67-9.49A11.21,11.21,0,0,1,56,74.92a56.75,56.75,0,0,1,4.89-3.13,8.26,8.26,0,0,1,5.65,1.12C71.22,76.14,71.6,89.11,71.63,95.63Z"/><path class="cls-10" d="M51.34,405.41c4.88-.88,6.4-4,7.93-10.1.78-3.91.84-8.53,2.49-11.89a14.42,14.42,0,0,1,7-6.17,17.35,17.35,0,0,1,4.5-1c.29,0,.57-.05.86-.06,5.4,11.23-.92,25.64,2.34,36.44-2.55,1.93-7.48,1.28-5.76-2.33-.09-4.75-.41-9.49-.42-14.24v-.32c-4.58,2.92-12.47,12.83-13.14,18.4-.31.16-.59.29-.87.42-5.64.78-10.91,1.09-16.18-.53a20.69,20.69,0,0,1,.84-8.94c3.18-.39,9.08-1,12-2.86C52.42,403.33,51.89,404.4,51.34,405.41Z"/><path class="cls-17" d="M73.75,46.4c0,4.16.92,8.31,1.53,12.47a6.57,6.57,0,0,1-3.78-1.63,14.94,14.94,0,0,1-.19-5C71.51,49.89,72.78,48.3,73.75,46.4Z"/><path class="cls-18" d="M63.7,29.07c0-1.65,0-3.23.15-4.68a34.22,34.22,0,0,0,9.9,21.5v.51c-1,1.9-2.24,3.49-2.44,5.86a14.94,14.94,0,0,0,.19,5C66,52.66,63.74,39.41,63.7,29.07Z"/><path class="cls-8" d="M72.94,209.25c-3.45.58-8.75-.37-11.2-2.76a5.11,5.11,0,0,1-.8-1v0l.12-.87a10.36,10.36,0,0,0,1.64.33c1.91.22,6.38.22,7.66-1.49.85-1.06.63-4.89.63-6.38.43-5.52.22-11.48.22-17.22v-.21a62.05,62.05,0,0,0,6.69-.44,141.36,141.36,0,0,1-4.75,30Z"/><path class="cls-14" d="M64.39,221c-.9-.32-1.74-.64-2.43-.91-.34-.13-.68-.28-1-.43l-.4-.17A20.89,20.89,0,0,1,56.46,217c.31-.88.67-1.76,1.06-2.61.16-.36.32-.72.5-1.06.94-2,2-3.81,2.92-5.45.28-.5.55-1,.8-1.43,2.45,2.39,7.75,3.34,11.2,2.76a88,88,0,0,1-2.35,10.42c-.12.39-.24.75-.36,1.11s-.23.69-.36,1h0c0,.14-.06.31-.09.5a13.38,13.38,0,0,1-2.51-.45,2.47,2.47,0,0,1,.06-.29c0,.09-.07.18-.11.28C66.29,221.61,65.31,221.3,64.39,221Z"/><path class="cls-19" d="M71.21,179.89c0,5.74.21,11.7-.22,17.22,0,1.49.22,5.32-.63,6.38-1.28,1.71-5.75,1.71-7.66,1.49a10.36,10.36,0,0,1-1.64-.33,197.92,197.92,0,0,0,.92-26,32.69,32.69,0,0,0,9.23,1.07Z"/><path class="cls-19" d="M52,87.07a26.37,26.37,0,0,1,1.93-9c4-.75,8.39,6.77,9.67,9.49C65.89,92.69,66.31,99.5,67,105c1.49,13.61,1.71,27.44,2.55,41,.64,11.22,1.7,22.41,1.71,33.61A32.69,32.69,0,0,1,62,178.61c-.15-8-.54-15.42-.82-20.15-.22-3.28-.37-5.27-.37-5.27C59.79,138.28,50.66,106,52,87.07Z"/><path class="cls-13" d="M70.32,395.74v.32a22.93,22.93,0,0,0-5.49,15.34c-2.47.1-5.32,1.6-7.65,2.74C57.85,408.57,65.74,398.66,70.32,395.74Z"/><path class="cls-12" d="M69.78,222.3c-.25,2.42.39,8.52-2,8.52h-.31c-.28-1.53-.56-3.2-.85-4.77h0a14.24,14.24,0,0,1,.59-4.19A13.38,13.38,0,0,0,69.78,222.3Z"/><path class="cls-12" d="M65.59,227.1c.57,2.79,1,7.44-1,8.51l-.26,0c-.26-1.29-.57-2.63-.84-4a27.08,27.08,0,0,1-.67-5.32H63c.13-1.88,1-3.57,1.37-5.37.92.31,1.9.62,2.83.85C66.78,223,66.08,225.49,65.59,227.1Z"/><path class="cls-20" d="M54.58,261,38,252.48,37.4,225C53.1,230.75,62,251.24,66,266.91Z"/><path class="cls-12" d="M62.84,226.36a27.08,27.08,0,0,0,.67,5.32c.06,1.85,1,5.69-1.6,5.84l-.06,0c-.64-2.91-1.66-6.38-1.55-9.43V228a37.43,37.43,0,0,1,.64-8.3c.34.15.68.3,1,.43.69.27,1.53.59,2.43.91-.41,1.8-1.24,3.49-1.37,5.37Z"/><path class="cls-9" d="M60.5,204.5a3.84,3.84,0,0,0,.44,1v0a5.11,5.11,0,0,0,.8,1c-.25.46-.52.93-.8,1.43-1,1.25-2.74,3.05-4.26,4.78-2.92-1.46-5.68-2.85-8.1-4.08-.41-12.18.61-23.71,4.55-33.66,2.11,1.07,4.43,1.95,6.79,2.94a19.91,19.91,0,0,0,2.06.71,197.92,197.92,0,0,1-.92,26Z"/><path class="cls-12" d="M58.59,223.09c.53,3.68,1.61,11.21-.93,11.4a12.81,12.81,0,0,1-.62-1.87c0-.11,0-.24-.08-.35a71.63,71.63,0,0,1-1.55-10.62v0A19.7,19.7,0,0,1,56.46,217a20.89,20.89,0,0,0,4.08,2.44A20.31,20.31,0,0,0,58.59,223.09Z"/><path class="cls-17" d="M60.94,207.92c-.92,1.64-2,3.48-2.92,5.45l-1.34-.67C58.2,211,59.92,209.17,60.94,207.92Z"/><path class="cls-15" d="M56.68,212.7l1.34.67c-.18.34-.34.7-.5,1.06-7.43-3.69-14.3-7-18.16-8.73V204l9.22,4.6C51,209.85,53.76,211.24,56.68,212.7Z"/><path class="cls-12" d="M13.93,93.89c.11-1,.27-1.91.46-2.82a22.62,22.62,0,0,1,.95-3.33l0-.34a39,39,0,0,0,7.08-.78c-.84-3.67-2.21-8.39,1.11-8.26,1.09,4.33,2.76,6.74,6.15,9.93-2.21,1.93-4.95,7.57-4.48,10.29h-.07c-4.11.3-7.59.81-11.07.72a10,10,0,0,1-.29-2.46.25.25,0,0,1,.13,0,.52.52,0,0,0-.13-.06A21.08,21.08,0,0,1,13.93,93.89Z"/><path class="cls-18" d="M1.11,87.36c-.25-.5,0-1,1-.88l.27,0a81.76,81.76,0,0,0,12.91.9l0,.34a22.62,22.62,0,0,0-.95,3.33c-2.8-.48-5.65-.52-8.4-1.44a32.44,32.44,0,0,1-4.16-1.52A1.77,1.77,0,0,1,1.11,87.36Z"/><path class="cls-18" d="M.66,89.66c-.92-.65-1-1.38.45-2.3a1.77,1.77,0,0,0,.72.75A32.44,32.44,0,0,0,6,89.63c2.75.92,5.6,1,8.4,1.44-.19.91-.35,1.87-.46,2.82-2.59-.71-6.45-1.69-7.67-2.08A24.84,24.84,0,0,1,.66,89.66Z"/><path class="cls-18" d="M13.93,93.89a21.08,21.08,0,0,0-.18,2.92c-3-1.31-6.27-2.24-9.22-3.57C3,92.56.26,91.85.66,89.66a24.84,24.84,0,0,0,5.6,2.15C7.48,92.2,11.34,93.18,13.93,93.89Z"/><path class="cls-18" d="M13.75,96.84A10,10,0,0,0,14,99.3,24.45,24.45,0,0,1,4,96.89c-1.19-2,3.6-.74,4.47-.6A51.2,51.2,0,0,1,13.75,96.84Z"/></g></g></g></svg>