<svg xmlns="http://www.w3.org/2000/svg" viewBox="0 0 128.9 128.6"><defs><style>.cls-1{fill:#fff;}</style></defs><title>Asset 50</title><g id="Layer_2" data-name="Layer 2"><g id="Layer_1-2" data-name="Layer 1"><path class="cls-1" d="M77.93,1.45C77.4,3,76.87,4.48,76.35,6c4.69,2.55,6.15,6.15,4,9.46A6.27,6.27,0,0,1,71.52,17c-3.29-2.46-3.07-6.12.23-10.08,1.35-1.61,2.08-3.73,3.16-5.76C46.78-4.94,9.66,13.21,1.36,51.38-5.85,84.52,16.45,119.71,49.84,127c35.53,7.79,70.19-14.16,77.65-49.17C134.87,43.2,112.58,8.68,77.93,1.45Zm9.32,38.92a15.87,15.87,0,0,1,6.54-.15c2.37.55,5.31,1.34,6.64,3.08a8.16,8.16,0,0,1-.28,10.78c-1.57,1.71-4.7,2.05-7.2,2.8-.63.19-1.51-.42-2.5-.73a13.77,13.77,0,0,1-.27,3.48,20.38,20.38,0,0,1-2,3.39c-.53-1.07-1.46-2.12-1.52-3.22-.2-3.46.12-7-.14-10.42-.17-2.15-1.29-4.23-1.43-6.37A3.49,3.49,0,0,1,87.25,40.37ZM30.61,38.28c1-3.52,4-4.28,8.27-5.12a66.09,66.09,0,0,1,5,4.42c.3.31-.43,1.62-.69,2.47a14.86,14.86,0,0,1-2.41-.82c-1.13-.58-2.18-1.86-3.25-1.85a4.28,4.28,0,0,0-3.07,2c-.28.52.81,2.23,1.67,2.84,1.69,1.18,3.73,1.85,5.49,3,2.69,1.68,3.95,4.52,2.57,7.16-1.07,2-3.61,4.34-5.68,4.54-2.55.24-5.31-1.55-7.92-2.6a2.74,2.74,0,0,1,.31-2.05,2.53,2.53,0,0,1,2.1-.34c1.43.38,2.83,1.48,4.19,1.41a4.74,4.74,0,0,0,3.37-2.14c.32-.61-.84-2.42-1.76-3.17a23,23,0,0,0-4.4-2.33C31.34,44.15,29.61,41.84,30.61,38.28ZM46.32,105.2c-5.83-.17-11.66,0-17.89,0-.12-1.51-.23-2.81-.32-3.93.46-.38.66-.69.88-.72,6.91-.88,6.91-.87,6.91-8V76.14l-4.62,4.18-3.66-3.48c4.72-3.23,6.59-9.86,14.17-8.79v32l7.77.41C50.67,103.77,50,105.31,46.32,105.2ZM51.24,54c-.16.95-1.11,1.76-1.71,2.64A9.9,9.9,0,0,1,47.72,54a16.4,16.4,0,0,1-.12-3.72c-.18-5.09-.39-10.18-.6-15.53,3.35-1.06,3.35-1.06,4.82,7.1a21.66,21.66,0,0,1,2.52-1.31C59,38.77,62.26,41,62.8,45.9c.32,2.86,1.13,5.67,1.5,8.53.09.67-.71,1.44-1.1,2.17-1.37-.75-3.59-1.22-3.93-2.29-.65-2,0-4.43-.33-6.59-.26-1.51-1.4-2.86-2.14-4.28-1.63,1-4,1.74-4.69,3.22C51.17,48.82,51.65,51.55,51.24,54ZM78.61,94.61c-1.38,7.11-5.66,11.06-11.94,11.2-7,.15-11-3.07-12.84-10.52a35.13,35.13,0,0,1,.36-18.89c1.77-6,6.21-9.18,12-9.16s10,3.15,11.79,9.27a94.37,94.37,0,0,1,1.82,9.63C79.34,89.4,79.12,92,78.61,94.61ZM74.74,57.23a8.92,8.92,0,0,1-8.86-8.72,8.82,8.82,0,0,1,17.61-.1A8.92,8.92,0,0,1,74.74,57.23Zm30.7,47.71H84.34c-.06-1.3-.12-2.71-.18-4,.56-.31.79-.54,1-.56,6.53-.48,6.53-.48,6.53-7.32V76.55L87,80.18,83.57,77c3.05-3,5.44-5.76,8.26-8,1.2-.93,3.34-1,5-.8.5.06,1,2.28,1.06,3.53.09,9.3,0,18.6,0,28.25l7.53.5Z"/><path class="cls-1" d="M73.75,87c-.57,3-.54,6.45-1.93,9.14A8.25,8.25,0,0,1,65.88,100c-1.84.06-4.7-2-5.49-3.86C57.73,90,58,83.42,60.23,77.05c1-2.75,3-4.13,6.06-4.1a5.71,5.71,0,0,1,5.83,4.44C73,80.41,73.21,83.63,73.75,87Z"/><path class="cls-1" d="M89.45,49.59c.65-3.69,1.48-6.2,4.55-6.37s4.24,2.26,4.31,5S97.44,54,94,53.49C92.36,53.26,91,51,89.45,49.59Z"/><path class="cls-1" d="M74.87,53.67c-3.48.08-5-2-5.27-5.1-.24-2.77,2.45-5.59,5.11-5.43,3.07.2,4.71,2.21,5.11,5.08A5,5,0,0,1,74.87,53.67Z"/></g></g></svg>