<svg xmlns="http://www.w3.org/2000/svg" viewBox="0 0 400 400"><defs><style>.cls-1{fill:#fff;}.cls-2{fill:none;}</style></defs><title>Asset 101</title><g id="Layer_2" data-name="Layer 2"><g id="Layer_1-2" data-name="Layer 1"><path class="cls-1" d="M109.12,190.75c-2.45.64-4.29-.69-6.24-3.07-4.82-5.86-13.18-5.92-18.54-.54-6.42,6.45-6.69,17.69-.58,24.57,5.51,6.22,14.21,6,19.56-.4,1.8-2.16,7.79-3.75,10.32-2.65,1.71.76.46,1.87.1,2.72-6.19,15-26.74,17.71-37.54,5.07-6.59-7.72-7.83-19.49-3-28.83A22.41,22.41,0,0,1,95.54,175c8.06.7,14.11,4.61,17.87,11.85,1.88,3.62,1.71,3.84-2.21,3.86Z"/><path class="cls-1" d="M216.85,212.48c-2.67,8.43-9.74,12.74-18.84,11.88-8-.75-15.1-7.83-16-16-1.14-10.9,6.79-20.49,17.2-20.8,11-.33,18.91,7.87,18.69,19.25,0,2.15-.68,2.76-2.78,2.72-7-.11-14-.06-21,0-.81,0-1.88-.45-2.42.39-.65,1,.3,1.89.81,2.67,2.46,3.78,8.58,5.6,11.83,2.57C208.25,211.59,212.36,212.72,216.85,212.48ZM200,202.14c2.13,0,4.25-.07,6.37,0s2.23-.81,1.31-2.43c-2.95-5.17-10.94-5.65-14.68-.83-.6.76-1.55,1.59-1.22,2.58.41,1.27,1.72.58,2.61.63C196.29,202.22,198.17,202.14,200,202.14Z"/><path class="cls-1" d="M264.07,226.45c-1.67-10,3.26-14.67,12.56-12.69a26.48,26.48,0,0,0,3.33.5c4.25.38,7.62-1.41,8.93-4.68a9.18,9.18,0,0,0-2.34-9.94,8.89,8.89,0,0,0-10.12-1.19c-3.29,1.83-5.46,5.92-4.28,9.52.86,2.61.15,3.27-2.17,3.53a3.75,3.75,0,0,0-2.08.73c-3.5,3.17-4.1.46-4.72-2.26a18,18,0,1,1,35.41-7c1.86,9.49-4.8,19-14.39,20.8-3.4.65-6.71.1-10.05-.12C270.58,223.44,267.14,223.56,264.07,226.45Zm11.23-9.31c-2.17-1.69-4.25-3.6-7.11-1-2.17,1.93-3.44,4.09-2.73,7.32,2.22-1.53,4.7-1.11,7-1.78C275,220.87,273.12,217.8,275.3,217.14Z"/><path class="cls-1" d="M151.55,206.13a18.07,18.07,0,1,1-18-18.18A18.13,18.13,0,0,1,151.55,206.13Zm-8.68-.15a9.34,9.34,0,1,0-9.33,9.34A9.56,9.56,0,0,0,142.87,206Z"/><path class="cls-1" d="M148.47,188.78a4.07,4.07,0,0,1,.66-.24c8.45-.54,8.46-.54,11.2,7.5,2,5.87,4,11.75,6.25,18.43,2.68-7.94,5.07-15.16,7.56-22.35.46-1.31.35-3.35,2.12-3.56a35.11,35.11,0,0,1,7.46.05c1,.09.5,1.21.27,1.83-3.94,10.48-7.92,20.95-11.84,31.44-.53,1.4-1.35,1.76-2.79,1.82-7.5.36-7.48.4-10.19-6.77Q153.85,202.84,148.47,188.78Z"/><path class="cls-1" d="M247.91,210.1c0-3.74,0-7.49,0-11.23,0-1.48-.23-2.4-2-2.28-.92.07-2.29.33-2.31-1.14,0-2.2-.53-4.46.38-6.61a.32.32,0,0,1,.29-.17c4.67.72,3.61-3.19,4.37-5.51,1.86-5.65,6-9,11.69-9.55,2.19-.2,3.76,0,3.36,2.86a14.61,14.61,0,0,0,0,3.37c.14,1.63-.24,2.61-2.16,2.57a3.92,3.92,0,0,0-3.46,1.91c-.67,1.06-1.45,2.26-.95,3.49s2,.79,3,.64c3.66-.58,3.32,1.76,3.3,4.09s.44,4.77-3.25,4.08c-2.7-.5-3.31.74-3.25,3.3.18,6.86,0,13.73.12,20.59.05,2.35-.47,3.26-3,3.22-6.06-.07-6.06.07-6.06-6.14Z"/><path class="cls-1" d="M229.17,191.7c2.88-2.59,5.53-4,8.82-4.13,1.81,0,2.93.29,2.61,2.42a6.51,6.51,0,0,0,0,1.87c.45,3.15-.05,5-4.06,4.84s-6.38,2.75-6.61,7.16c-.29,5.49-.31,11-.16,16.49.07,2.56-.56,3.45-3.27,3.38-6-.14-6,0-6-5.85,0-8.62.16-17.25-.08-25.86-.09-3.12,1-4,3.79-3.59a7.38,7.38,0,0,0,2.25,0C228.63,188,229.67,188.86,229.17,191.7Z"/><path class="cls-1" d="M293.07,223.64c4-5.9,7.51-11.16,11.19-16.27,1.22-1.69,1.28-2.77,0-4.49-3.35-4.47-6.41-9.16-9.82-14.11,3.52-.66,6.79-.23,10-.29,1,0,1.45.83,1.94,1.53,3,4.41,6,8.86,9.16,13.19,1,1.39.83,2.29-.1,3.59-3.1,4.36-6.26,8.7-9,13.28-1.69,2.84-3.67,4.05-6.92,3.61A56.32,56.32,0,0,0,293.07,223.64Z"/><path class="cls-1" d="M329.74,223.64c-3.57,0-6.4-.12-9.22,0-2.09.12-2.73-1.37-3.61-2.68-4.33-6.47-4.33-6.47.25-12.74.22-.3.48-.56,1-1.19Z"/><path class="cls-1" d="M318.18,202.9c-.95-1.29-1.62-2.17-2.27-3.07-3-4.18-2.66-7.08,1.1-10.69a2.65,2.65,0,0,1,2-.7h9.19C324.75,193.42,321.61,197.94,318.18,202.9Z"/><rect class="cls-2" width="400" height="400"/></g></g></svg>