<svg xmlns="http://www.w3.org/2000/svg" viewBox="0 0 285.26 332.25"><defs><style>.cls-1{fill:#fff;}</style></defs><title>Asset 70</title><g id="Layer_2" data-name="Layer 2"><g id="Layer_1-2" data-name="Layer 1"><path class="cls-1" d="M283.34,156.28c0,24.1-.81,48.23.26,72.28.78,17.61-12.48,27.72-23.77,27.52-14.16-.25-23.34-10.94-23.38-27.86-.14-47.86-.15-95.73-.32-143.59,0-16.15-8.73-29.24-22.48-34.53-14.19-5.46-29.14-1.91-39.1,9.39-6.32,7.17-8.87,15.6-8.8,25.16.23,33.53.39,67.07.24,100.6a23.08,23.08,0,0,1-23.59,23.44c-12.78-.13-22.43-9.56-23.21-22.81-.23-3.9-.24-7.81-.29-11.71-.34-29.94-.59-59.87-1-89.8-.31-21-14.67-35.7-34.62-35.74-20.52,0-35,14.73-35.08,36,0,19.2.35,38.41.33,57.62,0,15.48-9.28,26-22.82,26.28C11.16,168.9,2,159.27,1.75,142.68c-.27-22.42-1.19-44.91.16-67.25C3.82,44,21.27,21.38,49.17,8.89c28.53-12.78,57.41-10.53,82.9,9.17,7.29,5.63,11,6.08,18.67.05,26.48-20.84,56.36-23.53,86.2-8.92,29.55,14.47,45,39.8,46,72.86.72,24.73.14,49.49.14,74.23Z"/><path class="cls-1" d="M56.91,314.29c0,2.61.11,5.22,0,7.82-.19,3.69,1.08,8.87-5,8.55-5.56-.29-4.71-5.24-4.78-9.05-.09-4.89-.18-9.78,0-14.66.21-5.09-1.89-8.65-7-8.53-4.57.11-6.53,3.86-6.63,8.22-.14,6.18,0,12.37-.13,18.56,0,2.79-.78,5.29-4.22,5.44-3.67.17-5.37-1.89-5.42-5.38-.08-5.53-.11-11.07-.06-16.61,0-5.2-.48-10.69-7.1-10.44-5.59.21-6.78,5-6.64,10.11.16,5.52-.13,11.06-.25,16.6-.06,2.81-.79,5.34-4.09,5.63-3.66.32-5.53-1.93-5.52-5.3,0-8.12-.5-16.38.76-24.34,1.58-10,12.15-15.12,21.83-11.73,3.19,1.12,5.65,2.9,9.9,1.26,14.5-5.59,24.18,1.53,24.33,17C56.93,309.73,56.91,312,56.91,314.29Z"/><path class="cls-1" d="M207.11,290.37c3.36-.91,6.07-2,8.88-2.37,8.73-1.19,15.73,3.91,16.37,12.64.6,8.09.15,16.26.1,24.39,0,3-1.33,5.16-4.47,5.33-3.72.2-5.16-2.23-5.2-5.59-.07-6.51,0-13-.1-19.53-.08-4.35-1.75-7.7-6.66-8-5.14-.34-8.15,2.57-8.61,7.35-.59,6.13-.46,12.34-.57,18.52-.06,3.44-.39,7-4.68,7.22s-5.11-3.09-5.09-6.66q.15-29.28.26-58.57c0-3.31,1-6.12,4.65-6.21,4.27-.12,5.16,3.06,5.13,6.69C207.08,273.68,207.11,281.79,207.11,290.37Z"/><path class="cls-1" d="M176.85,298.4c-1.94-1.06-3.88-1.57-4.73.05-1.12,2.13.68,3.58,2.42,4.55,2.26,1.26,4.62,2.32,6.91,3.53,5.06,2.68,8,6.82,7.17,12.62-.8,6-4.3,10-10.22,11.68-5.72,1.64-11,.64-15.38-3.32-2-1.74-3.32-4.19-1.3-6.88s4.44-2.43,6.89-1c2.95,1.72,6.38,5.5,8.72.36,2.42-5.3-3.2-6.21-6.36-7.77-7.07-3.49-12.32-7.85-8.84-16.59,2.84-7.17,8.74-9.3,15.86-7.48,3.11.79,6.32,2.7,5.69,6.76C183,299.29,180,299.68,176.85,298.4Z"/><path class="cls-1" d="M129.45,312.81a139.79,139.79,0,0,1,15.59,0c6.5.49,7.85-2.34,6.66-8.15-2.28-11.06-10.78-17.82-21.59-16.74-11.5,1.15-19,10.73-18.46,23.45.55,12.39,9.27,21,22.58,20.88a21.19,21.19,0,0,0,12.84-5.48c2.59-2.3,4.5-5.15,1.59-8.39-2.52-2.8-5.28-1.77-7.62.53-4.2,4.13-8.8,5.44-14,2.06-2.24-1.46-4.16-3.66-3.42-6.42C124.41,311.55,127.42,312.88,129.45,312.81Zm3-15.56c3.52,0,7.55,1.35,7.4,4.65-.26,5.94-5.87.83-7.88,3.25-2.91-1.37-7.53,1.61-7.53-2.68C124.41,298.57,128.53,297.24,132.42,297.25Z"/><path class="cls-1" d="M95.61,312.45c8.65.81,9.18-3.93,7.67-10.12-2-8.34-7.1-13.78-16-14.69-10.72-1.09-18.51,3.4-21.84,12.44-3.47,9.47-.77,21.32,6.14,26.93,6.58,5.34,18.75,5.69,25.6.63,3.28-2.41,6.72-5.57,3.68-9.66s-6-.76-9,1.43c-8,5.81-13.82,3.19-16.46-7.09C82.11,312.32,88.91,311.82,95.61,312.45Zm-2.74-9.36H76.7C81.59,294.48,86.64,294.35,92.87,303.09Z"/><path class="cls-1" d="M263,287.35c-12.77,0-22.34,9.33-22.34,21.8s9.39,21.73,22.23,21.72,22.43-9.12,22.42-21.58S275.56,287.37,263,287.35Zm-.26,35c-7.62-.64-11.35-5.27-11.3-13s3.25-12.37,11.37-12.58c7-.18,12.13,4.95,12.3,12.14S269.33,322.86,262.69,322.31Z"/></g></g></svg>