<svg xmlns="http://www.w3.org/2000/svg" viewBox="0 0 359.83 83.4"><defs><style>.cls-1{fill:#fff;}</style></defs><title>Asset 56</title><g id="Layer_2" data-name="Layer 2"><g id="Layer_1-2" data-name="Layer 1"><path class="cls-1" d="M234.09,48.82c-.6,1.24-1,2.12-1.46,3-1.81,3.93-3.47,4.72-7.82,3.93A2,2,0,0,1,223,54.22c-.1-.36-.27-.7-.4-1q-4.4-11.93-8.79-23.86c5.77-1.1,5.77-1.1,7.52,4,2,5.72,3.92,11.43,5.9,17.17,7.3-7.17,2.41-14.17,0-21.12,5.32-1.05,5.32-1.05,7.91,5.66,2-3.09,2.27-8.56,8.17-5.61-2.44,6.56-9,12.92-2.14,20.9,2.57-5.54,5.49-11.09,7.71-16.91,1.53-4,3.74-5.51,8.13-4.15-4.14,8.5-8.12,17.07-12.49,25.43-1.23,2.37-4.12.74-6.24,1-1.74.24-1.8-1.34-2.24-2.46C235.51,51.89,235.41,50.33,234.09,48.82Z"/><path class="cls-1" d="M161.73,39.07c-.2,2.86-.43,5.72-.61,8.58-.26,4-2.43,6.41-6.13,7.6a22.13,22.13,0,0,1-11.83.36c-5-1.15-7.07-4-6.89-9.17s.64-10.22.73-15.33c.07-3.33,2.4-2,4-2.26,2.22-.37,2.35.84,2.21,2.64-.36,4.35-.58,8.71-.77,13.07-.2,4.76,1.51,6.88,5.63,7.18s6.66-1.83,7-6.37c.36-4.72.74-9.46.78-14.19,0-3.71,2.63-2,4.23-2.3,2.3-.42,2.28,1,2.07,2.71-.3,2.48-.36,5-.52,7.47Z"/><path class="cls-1" d="M312.43,55.3c-4.89,1.59-7.32-.1-8.67-4.53-1-3.26-2.87-6.25-4.41-9.48,2-.56,3.82-.08,5.42-.94,1.87-1,2.82-2.46,2.48-4.57s-1.85-2.44-3.57-2.66c-5.13-.66-5.47-.42-5.67,4.68s-.58,10.22-.46,15.32c.07,3.17-1.82,2.47-3.62,2.66-2.39.24-2.56-1-2.46-2.9q.55-10.65.83-21.3c.05-2.06.69-2.87,2.84-2.77,3.61.16,7.23,0,10.84.1s6.37,1.46,7.17,5.3a7,7,0,0,1-4.62,8.37c-2.62.94-2.13,2.07-1.1,3.76.9,1.49,1.72,3,2.57,4.56S311.55,53.7,312.43,55.3Z"/><path class="cls-1" d="M324.36,40.58a89.67,89.67,0,0,0,5.8-7.3c2.33-3.64,5.16-5.61,10.16-3.93-2.37,2.79-4.52,5.74-7.11,8.26s-3,4.79-.3,7.73,5,6.42,7.83,10.1c-4.3.55-7.61,1-9.83-3.4a36.47,36.47,0,0,0-7.46-9.43c-.17,3.56-.52,7.12-.46,10.67s-2.48,2.2-4.16,2.46c-2.42.37-2.12-1.17-2-2.79.36-7.1.86-14.2.84-21.3,0-3.75,2.32-2.59,4.21-2.81,2.72-.3,2.24,1.48,2.14,3.12-.18,2.81-.28,5.63-.41,8.45Z"/><path class="cls-1" d="M179.88,33.18c-4.24,0-7.68,0-11.13,0-1.32,0-2.5.21-2.21-1.86.2-1.47.15-2.58,2.21-2.53,5,.14,10,0,15,.08,1.27,0,3.23-.83,3.7.66a5.37,5.37,0,0,1-1.12,5.22c-3.93,4.51-7.67,9.19-11.48,13.8-.62.75-1.22,1.52-2.27,2.83,4.3,0,8.08,0,11.85,0,1.24,0,2.23-.09,2.05,1.66-.14,1.35.22,2.77-2,2.74-6-.08-12,0-18-.07-2.11,0-2.57-3.14-.68-5.48,3.27-4.09,6.69-8.06,10-12.09C177,36.71,178.19,35.27,179.88,33.18Z"/><path class="cls-1" d="M204.63,33.18c-4.28,0-7.75,0-11.21,0-1.28,0-2.23,0-2-1.7.15-1.32-.3-2.75,2-2.69,5.11.12,10.23,0,15.34.08,1.23,0,3.19-.87,3.58.82a5.31,5.31,0,0,1-1.05,4.88c-3.85,4.42-7.5,9-11.23,13.52-.77.92-1.53,1.85-2.72,3.29,4.19,0,7.74,0,11.29,0,1.24,0,2.74-.65,2.72,1.78,0,2.26-.93,2.64-2.9,2.59-5-.11-10,0-15-.08-1.26,0-3.15.85-3.67-.68a5.21,5.21,0,0,1,1.13-5.22c4-4.62,7.84-9.37,11.74-14.07C203.15,35.09,203.65,34.43,204.63,33.18Z"/><path class="cls-1" d="M342.8,50.55c2.73.55,5.17,1.81,7.85,1.19,3.33-.76,4-2.91,1.64-5.31-2.1-2.12-4.54-3.91-6.59-6.08-4.26-4.52-2.45-10.14,3.61-11.62,2.61-.64,5.18-.25,7.8,0,2.82.24,2.34,2.51,2.19,3.88-.23,2.16-1.88.38-2.88.44-1.23.07-2.49-.3-3.7-.18a3.28,3.28,0,0,0-2.91,2c-.54,1.42.31,2.39,1.24,3.25,2.11,1.94,4.38,3.71,6.37,5.76,4.38,4.54,2.55,10.52-3.58,11.93a26.47,26.47,0,0,1-7.06.16C343.22,55.83,341.81,54.32,342.8,50.55Z"/><path class="cls-1" d="M26.69,59.58C27.84,63,26.82,65,23.83,65c-2.15,0-4.14-.73-4.41-3.05-.28-2.58,1.73-3.21,3.89-3.38.67,0,1.49.4,2-.5l-.05,0c-.42,1,.32.77.81.81L26,58.82c0,.58.34.75.82.83Z"/><path class="cls-1" d="M86.69,10a3.91,3.91,0,0,1-4,3.56,2.87,2.87,0,0,1-3.19-3.27c.13-2.41,1.83-3.56,4-3.64C85.4,6.59,86.6,7.85,86.69,10Z"/><path class="cls-1" d="M89.52,20.6c-2.07,0-3-1-2.9-3a3.35,3.35,0,0,1,3.64-3.41c1.67,0,3.37.67,3.19,2.8S91.81,20.47,89.52,20.6Z"/><path class="cls-1" d="M14.94,47.7c-2.08-.15-3.77-.94-3.8-3.26,0-2,1.37-2.86,3.25-2.81,2.09.06,3.8,1,3.86,3.24C18.3,46.81,16.78,47.58,14.94,47.7Z"/><path class="cls-1" d="M84.47,40.85a10.11,10.11,0,0,0,1.45.06c1.57-.13,3.13-.09,3.69,1.71s-.34,2.9-1.82,3.67a3.15,3.15,0,0,1-4.09-.6c-1.24-1.38-.76-2.73.44-3.95a2.81,2.81,0,0,0,.4-1Z"/><path class="cls-1" d="M41,70.07c.05,2.8-.7,4.82-4.1,4.54-3.86-.33-2.51-3.15-2.63-5.28l0,0h5.28l0,0c.33.63.65,1.3,1.56.77Z"/><path class="cls-1" d="M16.83,64.63c1.75.09,3.36.63,3.57,2.54s-1.18,2.69-2.8,2.76c-1.87.08-3.57-.63-3.75-2.74C13.69,65.27,15.3,64.87,16.83,64.63Z"/><path class="cls-1" d="M27.5,72.31a2.73,2.73,0,0,1-3.09,2.47c-1.76,0-3.3-.69-3.31-2.7,0-1.65,1.37-2.26,2.85-2.27C25.64,69.8,27.16,70.23,27.5,72.31Z"/><path class="cls-1" d="M12.67,62.05c-.15,2-1.46,2.41-2.89,2.43-1.66,0-3-.78-3.09-2.57S8,59.61,9.5,59.63A3,3,0,0,1,12.67,62.05Z"/><path class="cls-1" d="M53.58,71.64c-.23,1.83-1.56,2.46-3.1,2.56s-3-.64-3-2.46c0-1.63,1.36-2.24,2.8-2.36A2.91,2.91,0,0,1,53.58,71.64Z"/><path class="cls-1" d="M11,50.8a2.26,2.26,0,0,1-2.46,2.26c-1.69.07-3-.59-3.14-2.42-.13-1.55.93-2.21,2.34-2.24A3,3,0,0,1,11,50.8Z"/><path class="cls-1" d="M78.38,2.14c-.24,1.42-.89,2.55-2.5,2.69a2.13,2.13,0,0,1-2.51-2.11A2.46,2.46,0,0,1,75.82,0,2.21,2.21,0,0,1,78.38,2.14Z"/><path class="cls-1" d="M30.76,74.89c1.47.24,3,.35,3.07,2.14,0,1.48-1.14,2.07-2.5,2.12s-2.81-.39-2.92-2.08S29.65,75.17,30.76,74.89Z"/><path class="cls-1" d="M8.48,72.33A2.11,2.11,0,0,1,11,70.53c1.29.08,2.63.59,2.65,2.09s-1.28,2-2.62,1.92A2.39,2.39,0,0,1,8.48,72.33Z"/><path class="cls-1" d="M46.37,76.66c-.13,1.63-1.25,1.94-2.38,2s-2.3-.37-2.32-1.8S42.78,75,44,75A2.17,2.17,0,0,1,46.37,76.66Z"/><path class="cls-1" d="M61.92,2.41c-.26,1.32-1,2.32-2.44,2.32A1.93,1.93,0,0,1,57.4,2.59,2,2,0,0,1,59.71.31,2.08,2.08,0,0,1,61.92,2.41Z"/><path class="cls-1" d="M22.45,25a2,2,0,0,1-2.32,2,2,2,0,0,1-1.95-2.3A1.67,1.67,0,0,1,20.25,23C21.43,23.16,22.4,23.68,22.45,25Z"/><path class="cls-1" d="M18.07,75.45c1.32.08,2.53.49,2.54,2.07,0,1.21-1,1.61-2.08,1.64-1.35,0-2.66-.31-2.79-1.83S16.81,75.54,18.07,75.45Z"/><path class="cls-1" d="M96.73,22.34c1.06.21,2,.62,1.87,1.87a2.11,2.11,0,0,1-2.18,2.07c-1.11.09-2.07-.43-2.08-1.59C94.33,23.24,95.41,22.59,96.73,22.34Z"/><path class="cls-1" d="M29.69,18.05a1.93,1.93,0,0,1-2.1,1.67,1.88,1.88,0,0,1-2-2.12,1.75,1.75,0,0,1,2-1.69A2.06,2.06,0,0,1,29.69,18.05Z"/><path class="cls-1" d="M5.66,67.78a1.8,1.8,0,0,1-2.23,1.36c-1-.18-2-.67-1.87-1.87a1.66,1.66,0,0,1,2.19-1.41C4.7,66.08,5.69,66.43,5.66,67.78Z"/><path class="cls-1" d="M13.45,33.54c-1.31-.18-2.15-.73-2.06-1.88s1-1.61,2.11-1.43a1.73,1.73,0,0,1,1.62,2A1.49,1.49,0,0,1,13.45,33.54Z"/><path class="cls-1" d="M94.68,35.88c.91.21,1.77.58,1.51,1.67A1.91,1.91,0,0,1,94,39.1a1.33,1.33,0,0,1-1.34-1.46C92.75,36.46,93.64,36.05,94.68,35.88Z"/><path class="cls-1" d="M3.73,56.73c-.11,1.19-.88,1.46-1.84,1.42A1.75,1.75,0,0,1,0,56.28c0-.79.78-1.22,1.65-1.19C2.77,55.13,3.57,55.56,3.73,56.73Z"/><path class="cls-1" d="M26.91,81.86a1.59,1.59,0,0,1-1.84,1.54c-.91,0-1.84-.41-1.86-1.45s.87-1.4,1.81-1.4A1.71,1.71,0,0,1,26.91,81.86Z"/><path class="cls-1" d="M26,58.89a.13.13,0,0,0,0-.06H26Z"/><path class="cls-1" d="M25.26,58.11v0h-.06Z"/><path class="cls-1" d="M12.37,55.17c-.8,1.36,0,2.43.91,3.27a4.12,4.12,0,0,0,4.84.63c2.36-1.13,1.59-3,1-5.18C16.37,53.43,13.91,52.54,12.37,55.17Z"/><path class="cls-1" d="M26.77,59.65s0,0,0-.06h-.07Z"/><path class="cls-1" d="M84.54,40.79l-.05,0,0,0Z"/><path class="cls-1" d="M41,70.12a.43.43,0,0,1,0-.05h0Z"/><path class="cls-1" d="M19.1,53.89h0a2.25,2.25,0,0,0-.08-.24h0C19.05,53.73,19.08,53.81,19.1,53.89Z"/><path class="cls-1" d="M92.21,30.83c.23-4.29-3.54-3.17-6-3.64,1.42-5.83.43-7-6.56-7.77,1-5.78-1.32-7.81-7.54-6.59l-.9.2c.12-.27.25-.54.37-.82.59-4.22-.39-6.09-3.42-6.5Q63,5,62.38,12.12a22.67,22.67,0,0,0-3.27-.34,30.14,30.14,0,0,0-3.7.52c-.35-1.76.48-3.85-1.46-5.11a4.28,4.28,0,0,0-5.21.06,3.48,3.48,0,0,0-1.27,4.29c.88,2.54,2.9,2.77,5.14,2.56.38-.2.82-.48,1.09,0,.09.17-.21.54-.33.82-.4,1.44-.72,2.83-2.78,2.78-1.21,0-2,0-2.47-1.42-1.08-3.2-3.7-3.88-6.58-3.06-3.08.87-3.53,3.42-3.09,6.24,0,.29,0,.59,0,.89l-.77-.27c-5.25-.45-6.59.54-7.13,5.74-.16,1.48-.8,1.39-1.86,1.51-5.26.6-6.41,2.71-4.1,7.33a9.09,9.09,0,0,0,3.81,1.36c1.89,0,1.26,1.52,1.28,2.48.05,2-1.64,1.36-2.72,1.57-1.43.28-1.47-.38-1.28-1.63S24.9,36.21,24,35.29a21.68,21.68,0,0,0-2.51-.57c-2.24-.25-4,.51-4.37,2.91s1.2,3.67,3.3,4.22a11.77,11.77,0,0,0,2.91,0l.91,0c-.11.25-.21.5-.31.75-.56,1.57.46,3,.47,4.79-2.08-.79-3.83-.74-5.4.55-2.05,1.69-.68,3.62,0,5.72,2.84,1,7.1-1,6.24,4.43.58-.08.74.26.74.75.48,0,.8.22.75.76a15.3,15.3,0,0,0,2.5.33c1.6,0,3.08-.52,3.38,2.11.37,3.34-1.95,1.61-3.09,2-1.52.51-2.87,1.12-2.83,3s1.28,2.58,2.83,3,3.09-.58,4.66-.7a11.67,11.67,0,0,1,.08-1.55A3.6,3.6,0,0,0,33.55,65c2-.24,3.83.77,5.57.06L40,65l-.33.82h0a2.82,2.82,0,0,0,.23,1.81,2.81,2.81,0,0,1,.13.68,1.41,1.41,0,0,1-.07.45,1.3,1.3,0,0,1-.23.41c.87-.6,1.12.07,1.27.93,3-.18,6.74.75,7.09-4.11-.05-.3-.1-.59-.14-.89l.85.22,3.83-.21c.94-.29,1.39-.16.77.89,0,3.14,2,3.79,4.52,3.37,1.77-.28,3.26-1.35,2.78-3.28-.84-3.34-3.7-2.35-6.43-2,1.24-1.42.5-3.48,3-3.63,2.09-.12,2.23.9,2.89,2.3.92,1.94,2.86,2.19,4.86,1.71s3.28-1.59,3.23-3.58-1.58-2.93-3.52-3.13c-.63-.07-1.67.41-1.51-.92.09-.69.57-1,1.28-1.13,1.11-.2,1.88,0,2.36,1.16C68,59.4,70.11,59.76,72.45,59s3.83-2.3,3.21-5.06c-.22-.35-.62-.68-.19-1.11h0l1.08.42a8.26,8.26,0,0,0,1.1.08c2.2-.09,4.3-.53,5.06-2.92S82.08,47,80,46c-1.77-.85-1-2.55.26-3.4a23.8,23.8,0,0,1,4.22-1.83c.71-1.83,1.62-3.63.8-5.81C88.63,35,92,34.88,92.21,30.83ZM26.37,53.48c.15-2.11,1.11-3.48,0-5,1.33,1.29,4.46-1.41,4.46,2.17C30.87,54.08,27.79,51.62,26.37,53.48Zm10,4.55c-1,0-2,.42-1.9-1.31.1-1.21.37-1.72,1.67-1.74s2,.45,2.15,1.81C38.52,58.73,37,57.6,36.37,58Zm31-43.47c1,.16,2.21-.6,2,1a2.06,2.06,0,0,1-2.49,2.05c-1.25-.08-1.77-.49-1.86-1.7C64.86,13.29,67.09,15.6,67.41,14.56ZM39.74,22.1c2.15.2,3.51-.28,3.93,1.14a1.39,1.39,0,0,1-1.19,1.65C40.43,25.23,41.15,23.26,39.74,22.1Zm1.68,42c.64-1.34-2-3.85,1.35-3.66,1.13.07,2.94-.86,3,1.44C45.91,65.69,42.22,61.63,41.42,64.13ZM69.61,35a1.5,1.5,0,0,0-.35,2.16c1.91,3.89.52,6.86-3.81,8.68-4,1.66-8.12.82-12.65,1.18-2.15,0-4.76,0-7.38,0-.81,0-1.92.32-2.23-.8s.64-1.3,1.46-1.71A4,4,0,0,0,45,37.62c-1.3-.91-.84-2.12.06-2.24,3.7-.52,3-3.54,3.21-5.69.23-2.48,1.17-3.1,3.49-3,4.6.14,9.21,0,13.81,0,2.38,0,4.44.84,5.6,3.06S71.08,33.54,69.61,35Zm2.1,16.18c-.27-.53.32-1.11,1-1.27,2-.46,1.73,1.13,2,2.2C73.52,52.44,72.33,52.38,71.71,51.17Zm3,.95.7.72C74.85,53,74.54,52.82,74.74,52.12Zm7.85-19.25c-1,.13-2-.38-1.87-2C80.94,28.2,83,29.47,84.26,29,83.3,30.21,85,32.56,82.59,32.87Z"/><path class="cls-1" d="M273.3,28.32c-9.5-.12-16,5.65-16.11,14.4-.14,8.13,5.41,13.27,14.57,13.47,9.65.22,15.77-5.11,16-13.87C287.91,33.85,282.33,28.43,273.3,28.32Zm-1,23.49c-5.48,0-9.06-3.78-8.9-9.32.16-5.88,4.06-9.87,9.55-9.77s8.81,3.82,8.66,9.55S277.76,51.85,272.31,51.81Z"/><path class="cls-1" d="M127.47,41.79c4-2.19,5.06-5.23,4-8.84-1.15-3.89-4.53-4.16-7.89-4.17s-7,.07-10.46,0c-1.3,0-2.07.23-2.12,1.81q-.37,11.58-.93,23.15c-.07,1.48.39,2,1.85,2,4.48-.13,9,0,13.44-.32,3.56-.26,6-2.19,6.66-6C132.56,46,131.21,43.44,127.47,41.79Zm-6-9.06c2.28,0,4.37.4,4.38,3.32s-2.24,3.87-6.82,4c-3.34.06-2.23-2.08-2.45-4.61C115.67,31.57,119.08,32.77,121.47,32.73ZM118.8,51.79c-2.78-.07-2.78-.07-2.63-4.38-1.32-4.43,2.25-3.47,5.08-3.49,2.63,0,4.85.63,5,3.72S123.94,51.93,118.8,51.79Z"/><path class="cls-1" d="M58.17,37.71c1.79.13,4.43-.38,4.78,2.82.27,2.38-2.64,3.93-7,3.78-1.11,0-2.9.83-2.7-1.75C53.59,38.14,53.89,37.68,58.17,37.71Z"/><path class="cls-1" d="M58,34.81c-.87-.7-3.17,1.36-3.13-1.49,0-2.51.87-4.29,4-3.7,1.82.35,4.67-.64,4.67,2.22C63.5,35.22,60.43,34.68,58,34.81Z"/></g></g></svg>