<svg xmlns="http://www.w3.org/2000/svg" viewBox="0 0 310.75 45.44"><defs><style>.cls-1{fill:#fff;}</style></defs><title>Asset 57</title><g id="Layer_2" data-name="Layer 2"><g id="Layer_1-2" data-name="Layer 1"><path class="cls-1" d="M26.68,0l8.39,8.62L44.27,18a1.47,1.47,0,0,1,.58,1.09c0,5.06.13,10.12.19,15.18a3,3,0,0,1,0,.32c-.37-.09-.55-.4-.77-.62q-8.52-8.43-17-16.89c-.53-.54-.81-.57-1.35,0-2.34,2.33-4.75,4.59-7.1,6.91-.39.38-.59.42-1,0q-3.47-3.54-7-7c-.47-.45-.44-.69,0-1.14Q18.33,8.31,25.83.75c.24-.23.44-.5.66-.75Z"/><path class="cls-1" d="M0,15.56V11.3a.21.21,0,0,1,.29.09,10.06,10.06,0,0,1,0,4.09A.2.2,0,0,1,0,15.56Z"/><path class="cls-1" d="M0,15.56H.16a.74.74,0,0,1,.28.64A12.59,12.59,0,0,1,.3,19.73a.21.21,0,0,1-.3.09Z"/><path class="cls-1" d="M0,19.82H.16a.75.75,0,0,1,.28.64A12.59,12.59,0,0,1,.3,24a.22.22,0,0,1-.3.1Z"/><path class="cls-1" d="M.16,11.3H0V9.45l.2,0a1,1,0,0,1,.17.27C.44,10.29.59,10.84.16,11.3Z"/><path class="cls-1" d="M0,24.09H.16a1.09,1.09,0,0,1,0,1.48H0Z"/><path class="cls-1" d="M.18,25.57l0-1.48V11.3l0-1.64c.29-.12.47.08.64.24,1.66,1.65,3.33,3.29,5,5a.58.58,0,0,1,.16.32,6.59,6.59,0,0,0,.52.64c3.75,3.81,7.51,7.6,11.23,11.43.53.54.79.49,1.27,0,2.29-2.39,4.62-4.73,6.91-7.11.38-.39.57-.44,1,0q3.59,3.6,7.25,7.15c.46.44.4.67,0,1.08Q26.51,35.8,19,43.3c-.52.52-.76.44-1.23,0Q9,34.41.18,25.57Z"/><path class="cls-1" d="M131.23,13.07h4.68c.49,0,.5.39.59.68q2.63,7.93,5.21,15.88c.06.17.13.33.27.69.77-2.31,1.47-4.44,2.17-6.58,1.09-3.3,2.18-6.6,3.24-9.92.18-.55.42-.79,1-.77,1.17,0,2.35.06,3.52,0,.65,0,.9.21,1.09.8,1.68,5.22,3.4,10.42,5.11,15.63.07.22.05.51.38.66q1.89-5.73,3.77-11.45c.54-1.64,1.1-3.27,1.59-4.92a.84.84,0,0,1,1-.71c1.23,0,2.47,0,3.7,0,.51,0,.64.11.45.63q-3.8,10.91-7.53,21.82a.81.81,0,0,1-.94.63c-1.3,0-2.6-.06-3.89,0a1.16,1.16,0,0,1-1.37-.95c-1.52-4.55-3.11-9.08-4.68-13.62a1.75,1.75,0,0,0-.47-.94q-2.26,6.56-4.52,13.07c-.27.78-.36,1.8-.91,2.27s-1.6.13-2.43.14c-1,0-2.24.33-3-.13s-.78-1.79-1.11-2.74q-3.36-9.69-6.7-19.37C131.4,13.65,131.33,13.42,131.23,13.07Z"/><path class="cls-1" d="M83.16,26.66c0,1.42,0,2.84,0,4.26a1.85,1.85,0,0,1-.66,1.52,15.85,15.85,0,0,1-10.65,4.05c-6.29.24-11.51-2-14.69-7.51-5.81-10.13.37-22.85,12.21-23.84A16.37,16.37,0,0,1,81.13,8.35c.54.41.6.69.18,1.23a25.31,25.31,0,0,0-1.81,2.57c-.35.57-.57.65-1.15.2a11.79,11.79,0,0,0-14.41.4c-2.92,2.51-3.79,5.8-3.47,9.51C61,27.9,65.79,32.43,73,31.43a13.65,13.65,0,0,0,4.22-1.28,1.21,1.21,0,0,0,.8-1.27c0-2.22,0-4.44,0-6.66,0-.66.1-.95.84-.9a31.79,31.79,0,0,0,3.52,0c.72,0,.87.22.85.89C83.12,23.69,83.16,25.17,83.16,26.66Z"/><path class="cls-1" d="M196.61,17c.45-.59.78-1.06,1.16-1.5C201.54,11.14,209.47,12,212,17a10.72,10.72,0,0,1,1,4.85c0,4.47,0,9,0,13.42,0,.71-.18.9-.87.86-1.11-.06-2.23,0-3.33,0-.62,0-.77-.17-.77-.77q0-6,0-11.95a14.23,14.23,0,0,0-.13-1.84c-.64-4.24-3.88-4.9-6.72-4.25s-4.61,3-4.63,6.3c0,3.86,0,7.72,0,11.58,0,.8-.23,1-1,.93-1.08-.06-2.16,0-3.24,0-.49,0-.7-.09-.69-.65q0-15.42,0-30.84c0-.53.16-.69.68-.67,1.08,0,2.17.06,3.24,0,.75,0,1,.14,1,.95,0,3.67,0,7.35,0,11Z"/><path class="cls-1" d="M277.35,32.1c-2.53,3.72-5.89,5-10.05,4.15a7.81,7.81,0,0,1-6.24-7.34c-.23-3.36-.06-6.72-.09-10.09,0-1.63,0-3.27,0-4.9,0-.72.22-.9.89-.87a29.18,29.18,0,0,0,3.24,0c.68,0,.8.22.8.84,0,4,0,8.09,0,12.13a9.88,9.88,0,0,0,.23,2.11c.78,3.63,4.76,5.13,8.23,3.11a5.81,5.81,0,0,0,3-5.29q.07-6,0-11.94c0-.78.19-1,1-1a23.88,23.88,0,0,0,3.05,0c.7,0,.87.19.87.87,0,4.42,0,8.83,0,13.25,0,2.74,0,5.49,0,8.24,0,.55-.1.76-.7.73-1.17,0-2.35,0-3.52,0-.55,0-.66-.19-.65-.69C277.38,34.4,277.35,33.35,277.35,32.1Z"/><path class="cls-1" d="M174.71,23.62c0-1.94,0-3.89,0-5.83,0-.57-.09-.82-.74-.79s-1.61.32-2-.13-.13-1.41-.14-2.14c0-1.66,0-1.66,1.63-1.66,1.29,0,1.29,0,1.29-1.34,0-1.69,0-3.39,0-5.09,0-.66.11-.93.84-.88a27.58,27.58,0,0,0,3.15,0c.68,0,.91.14.89.85-.06,1.89,0,3.77,0,5.65,0,.67.21.84.84.82,1.55,0,3.09,0,4.63,0,.47,0,.67.11.64.61,0,.9,0,1.79,0,2.69,0,.53-.16.68-.68.67-1.54,0-3.08,0-4.63,0-.57,0-.8.11-.79.76,0,3.48,0,7,0,10.46,0,.15,0,.31,0,.46.09,1.43.46,2.72,1.93,3.31a3.49,3.49,0,0,0,3.91-.87c.39-.38.55-.31.78.13a16.46,16.46,0,0,0,1.21,2.07c.56.73.3,1.1-.36,1.57-5,3.56-11.32,1.06-12.25-4.89a28.29,28.29,0,0,1-.09-3.69C174.7,25.41,174.71,24.52,174.71,23.62Z"/><path class="cls-1" d="M254.23,20c0,5.09,0,10.18,0,15.27,0,.68-.13.92-.85.88a25.46,25.46,0,0,0-3.15,0c-.71,0-.91-.16-.91-.9,0-6.88,0-13.76,0-20.64,0-3.3,0-6.6,0-9.9,0-.58.11-.83.75-.79q1.66.07,3.33,0c.66,0,.82.18.82.82C254.21,9.82,254.23,14.91,254.23,20Z"/><path class="cls-1" d="M94,17.42c.58-.72,1-1.35,1.54-1.89a8.42,8.42,0,0,1,5.28-2.79c.47-.05.66,0,.66.56,0,1.24,0,2.47.07,3.7,0,.48-.14.61-.62.65-4,.28-6.36,2.58-6.77,6.71C93.77,27.89,94,31.45,94,35c0,.91-.17,1.26-1.14,1.16a22.18,22.18,0,0,0-3,0c-.57,0-.74-.13-.73-.71,0-2.22,0-4.45,0-6.67,0-4.91,0-9.81,0-14.72,0-.74.13-1,.94-1,1.11.07,2.22,0,3.33,0,.48,0,.65.14.63.63C93.94,14.88,94,16.07,94,17.42Z"/><path class="cls-1" d="M6,15.19C4.2,13.76,2.75,12,1.08,10.46L.2,9.66a.54.54,0,0,1,0-.18l10.33.43C8.9,11.8,7.57,13.61,6,15.19Z"/><path class="cls-1" d="M310.73,30.05c0-5.37,0-10.74,0-16.11,0-.67-.14-.93-.86-.89-1.11.07-2.22,0-3.33,0-.59,0-.75.18-.72.73.05.77,0,1.55,0,2.32l-.2.13-.32-.43c-3.7-4.46-10.82-3.78-14.2-.19a12,12,0,0,0-3,10.53,10.31,10.31,0,0,0,13.18,8.52,8.7,8.7,0,0,0,4.78-3.88A33.59,33.59,0,0,1,306,35c-.55,3.83-2.86,5.83-6.75,6a10.67,10.67,0,0,1-6.84-2.13c-.5-.35-.74-.33-1,.22-.48.86-1,1.69-1.57,2.5-.3.45-.27.69.19,1a15,15,0,0,0,10.77,2.74c5.38-.65,8.71-3.72,9.72-8.8A34.13,34.13,0,0,0,310.73,30.05Zm-11.49.61c-3.68,0-6.49-3-6.51-6.94s2.75-7,6.39-7.07a6.71,6.71,0,0,1,6.74,7A6.64,6.64,0,0,1,299.24,30.66Z"/><path class="cls-1" d="M243.84,13.89a8.45,8.45,0,0,0-5.7-7,16.13,16.13,0,0,0-4.5-1c-4.19-.31-8.39-.08-12.58-.17-.75,0-.67.41-.67.88V20.9c0,4.78,0,9.56,0,14.34,0,.75.22.94.92.9,1.17,0,2.35,0,3.52,0,.61,0,.78-.17.77-.77,0-2.13,0-4.26,0-6.39,0-1.71,0-1.7,1.76-1.72,3.08,0,6.17.16,9.21-.58,3.74-.91,6.4-3,7.23-6.9A16,16,0,0,0,243.84,13.89ZM237.19,21c-1.22,1.36-3,1.52-4.7,1.59-2.09.09-4.19,0-6.29,0-.58,0-.65-.25-.64-.72,0-1.79,0-3.58,0-5.37s0-3.58,0-5.36c0-.45.08-.69.6-.68a54.32,54.32,0,0,1,7.76.29c2,.35,3.89,1,4.51,3.26C239.14,16.49,239,18.94,237.19,21Z"/><path class="cls-1" d="M116.58,12.7c-7,0-12.12,5.05-12.12,11.84s5.14,12,12.19,12a11.78,11.78,0,0,0,12.11-11.89A11.78,11.78,0,0,0,116.58,12.7Zm0,19.38c-4.22,0-7.22-3.1-7.23-7.47a7.13,7.13,0,0,1,7.28-7.53c4.25,0,7.27,3.13,7.27,7.54A7.07,7.07,0,0,1,116.54,32.08Z"/></g></g></svg>