<svg xmlns="http://www.w3.org/2000/svg" viewBox="0 0 400 400"><defs><style>.cls-1{fill:#fff;}.cls-2{fill:none;}</style></defs><title>Asset 97</title><g id="Layer_2" data-name="Layer 2"><g id="Layer_1-2" data-name="Layer 1"><path class="cls-1" d="M144.68,208.56a20.69,20.69,0,1,1-20.51-20.7A20.43,20.43,0,0,1,144.68,208.56Z"/><path class="cls-1" d="M185.1,220.52c-5.84,7.1-13,9.5-21.3,8-9.06-1.65-16-10-16.34-19.67-.24-6,.14-12.06-.13-18.07-.16-3.5,1.94-3.11,4-3s4.76-1.28,4.6,2.82c-.23,5.56-.13,11.15,0,16.72.13,8.17,5.19,13.43,12.68,13.3,7.28-.12,12.13-5.42,12.17-13.35,0-5.42.3-10.87-.09-16.26-.27-3.76,1.85-3.34,4.14-3.26,2.1.07,4.53-.83,4.29,3.07-.34,5.4-.12,10.84-.08,16.27.07,8.14,5.1,13.55,12.52,13.53s12.43-5.37,12.55-13.55c.09-5.57.19-11.15,0-16.72-.15-3.42,2.08-2.73,3.83-2.53s4.54-1.56,4.47,2.35c-.11,6.63.36,13.29-.2,19.88-.73,8.52-5.45,14.68-13.52,17.57-7.82,2.79-15.14,1.35-21.37-4.39A21.87,21.87,0,0,1,185.1,220.52Z"/><path class="cls-1" d="M260.63,208.08c5.05-2.75,9.68-4.48,14.8-3.77,2,.27,2.12-.87,2.46-2.28,1.25-5.2,4.38-9.05,8.58-12.34,2.44-1.91,3.61-1.14,4.65,1.1.8,1.73,4.52,3.19.49,5.51a11.52,11.52,0,0,0-4.84,5.25c-1.49,3.31-2.06,6.22,1.37,9.2,4.75,4.11,5.91,10,5.76,16.05-.09,3.61-2.88,1.73-4.38,1.87s-4,1.4-3.82-1.95a22.34,22.34,0,0,0-.06-3.17A12.55,12.55,0,0,0,273,212.37c-6.65.11-11.67,5-12.37,12-.14,1.41.86,3.56-.71,4.1-1.89.64-4.15.3-6.25.23-1.57-.06-1.27-1.39-1.27-2.39,0-17.5.06-35-.07-52.5,0-3.65,2.31-2.73,4.24-2.79s4.19-.67,4.13,2.89C260.51,185.08,260.63,196.23,260.63,208.08Z"/><path class="cls-1" d="M319.45,187.71c3.76,0,7.56.29,11.29-.08,3.92-.39,3.06,2.1,3.14,4.24.09,2.36.32,4.32-3.34,4.13-6.76-.34-13.56-.05-20.33-.11-2.9,0-5.31.71-5.32,4s2.2,4.29,5.19,4.26c5.12-.05,10.24-.09,15.36,0,7.3.15,12.82,5.68,12.65,12.53s-5.55,12-12.66,12-14.17-.2-21.23.11c-3.64.16-3.64-1.55-3.74-4.28-.11-3.08.67-4.21,4-4.08,6.47.27,12.95,0,19.43.12,3,0,5.79-.49,5.82-4,0-3.8-2.85-4.35-6-4.28q-7.23.16-14.47,0c-7.38-.15-12.63-5.44-12.57-12.54.06-6.91,5.16-11.9,12.46-12.08C312.51,187.64,316,187.71,319.45,187.71Z"/><path class="cls-1" d="M100,196.45a27.69,27.69,0,0,0-1.84,2.11c-2.28,3.07-4.09,4-7.45.56-4.81-5-12.7-4.21-17.37.77A12.42,12.42,0,0,0,90.9,217.45,25.18,25.18,0,0,0,93.71,214c7.43,6.12,7.36,7.18-.21,11.83a20.68,20.68,0,1,1,2.24-33.47C97.24,193.57,98.56,195,100,196.45Z"/><path class="cls-1" d="M225.13,216.2c0-2.86-.07-5.71,0-8.57a20.93,20.93,0,0,1,22.64-20c3.44.29,2.34,2.5,2.33,4.16s1.08,3.87-2.33,4.19c-11.36,1.07-14.37,4.62-14.38,16.14,0,4.67-.18,9.34.06,14,.2,3.78-2.38,2.65-4.18,2.64s-4.48,1.2-4.21-2.62C225.31,222.83,225.13,219.51,225.13,216.2Z"/><rect class="cls-2" width="400" height="400"/></g></g></svg>