<svg xmlns="http://www.w3.org/2000/svg" viewBox="0 0 501.81 121.21"><defs><style>.cls-1{fill:#fff;}</style></defs><title>Asset 65</title><g id="Layer_2" data-name="Layer 2"><g id="Layer_1-2" data-name="Layer 1"><path class="cls-1" d="M287.76,121.21a1.11,1.11,0,0,0,0-.57,4.38,4.38,0,0,1,5.82,0c0,.18,0,.36,0,.54Z"/><path class="cls-1" d="M384.37,121.21l0-.54a4.37,4.37,0,0,1,5.81,0,1,1,0,0,0,0,.57Z"/><path class="cls-1" d="M20.65,95.81c5-17.88,9.84-34.93,14.28-52.11,1-3.74,3.14-3,5.55-3.28,2.72-.35,3.55.84,4.21,3.26,4.65,17.09,9.47,34.14,14.5,52.16,1.65-6.18,3.1-11.47,4.48-16.77Q68,62.26,72.34,45.41c1.38-5.35,1.38-5.35,7.45-4.68Q75.25,57.35,70.73,73.9c-2.53,9.22-5.15,18.43-7.56,27.68-.54,2.09-1.5,2.72-3.51,2.49-1.86-.22-3.74.6-4.55-2.42-4.62-17-9.51-34-14.31-50.94-.26-.92-.56-1.82-1-3.31-2.74,9.72-5.33,18.89-7.9,28.06-2.44,8.7-5,17.36-7.2,26.12-.75,3-2.61,2.32-4.51,2.48s-3.16-.21-3.79-2.56Q8.51,72.25.27,43.1c-.62-2.24-.25-2.56,2-2.71,3.09-.22,4.34.8,5.1,3.86,4,16.2,8.23,32.34,12.39,48.5C19.94,93.57,20.21,94.37,20.65,95.81Z"/><path class="cls-1" d="M233.55,63c5.75-7.91,15.36-8.14,21.88-5.73,6.15,2.27,8.3,7.52,8.5,13.43.35,10.32.19,20.66.28,31,0,1.19-.3,1.83-1.6,1.66a4.56,4.56,0,0,0-.64,0c-3.4-.06-7.85,1.15-9.9-.54s-.58-6.39-.65-9.76c-.11-5.32,0-10.65,0-16a23,23,0,0,0-.43-4.76c-.91-4.16-2.89-5.94-6.59-6.18-4.84-.31-8.09,1.5-9.49,5.36a19.15,19.15,0,0,0-1,6.6c0,7.46-.11,14.92.08,22.38.06,2.5-.72,3.11-3,2.92a61.34,61.34,0,0,0-7.67,0c-1.61.08-2.2-.31-2.19-2.08q.1-21.09,0-42.2c0-1.53.42-2.09,2-1.95,1.38.12,2.77,0,4.16,0C232.89,57.22,232.89,57.22,233.55,63Z"/><path class="cls-1" d="M168.85,70.52c0-5.73,0-5.73,5.86-5.73,4.68,0,9.36-.12,14,.06,2.39.09,3.55-.43,3.19-3.08-.15-1.06-.59-2.56.76-3.15,1.11-.48,1.92.67,2.74,1.28,3.93,2.91,7.85,5.83,11.73,8.8,2.44,1.86,2.42,2.69-.13,4.51q-6,4.25-12,8.41c-.74.5-1.45,1.43-2.52.81-.91-.53-.76-1.55-.6-2.32.74-3.54-1.13-3.86-4-3.75-5.21.2-10.43-.1-15.64.12-2.72.12-4-.5-3.45-3.41A14.46,14.46,0,0,0,168.85,70.52Z"/><path class="cls-1" d="M199,46.67c-4.58,0-9.17.08-13.75,0-1.95,0-3,.29-2.77,2.57s-.57,3.29-2.85,1.65q-4.66-3.34-9.43-6.57c-1.9-1.28-1.73-2.38,0-3.66,3.27-2.38,6.52-4.8,9.72-7.28,1.91-1.48,2.77-.84,2.53,1.3-.3,2.66.83,3.14,3.23,3.1,8.85-.13,17.7-.06,26.55,0,3.78,0,5.71,1.57,5.67,4.52s-1.95,4.42-5.79,4.44C207.74,46.69,203.37,46.67,199,46.67Z"/><path class="cls-1" d="M198.86,102.54c-4.58,0-9.16.11-13.73,0-2.07-.07-2.87.49-2.65,2.63.25,2.48-.63,3.19-2.85,1.57q-4.63-3.39-9.41-6.58c-1.9-1.27-1.79-2.37,0-3.64,3.25-2.4,6.49-4.81,9.7-7.26,1.82-1.4,2.86-1,2.58,1.27-.38,3,1.08,3.18,3.48,3.14,8.83-.12,17.66,0,26.5,0,3.55,0,5.41,1.5,5.47,4.33s-2,4.59-5.64,4.62C207.8,102.57,203.33,102.54,198.86,102.54Z"/><path class="cls-1" d="M474,13.83c8.47,0,13.82,8.19,11.26,16.07a21.24,21.24,0,0,1-6.53,9.24c-1.11,1-1.6.8-2.37-.39-4.05-6.35-8.2-12.63-12.31-18.93-.53-.81-1.09-1.51.18-2.27C467.54,15.56,471,14,474,13.83Z"/><path class="cls-1" d="M308.54,57.22c-5.75,0-5.75,0-6.86,5.22-1.9-2.31-3.86-4.28-6.65-5.31a18.71,18.71,0,0,0-23.25,8.74c-4,7.6-4.07,15.54-1.53,23.56,4.24,13.41,18.48,14.68,26.56,10.68,2-1,3.23-2.83,5.21-4.09a32.7,32.7,0,0,1-.2,8.26c-.76,4.21-3.4,7-7.49,7.64-3.92.59-8.13.42-10.21-3.4-1.4-2.58-3-2.83-5.26-2.68-1.17.07-2.35,0-3.52,0-1.68.11-4.28-.78-4.83.38-.89,1.84.37,4.11,1.49,6a15.21,15.21,0,0,0,5.45,5.27,25.39,25.39,0,0,0,10.28,3.18l5.82,0c.63,0,1.27-.07,1.91-.15,9.81-1.13,18.59-6.62,18.67-18.79q.11-19.35.18-38.69C314.33,57.22,314.31,57.22,308.54,57.22ZM295.3,91.66c-5.34,2.28-10.73-.26-12.79-6a19.85,19.85,0,0,1-.29-12.85,9.65,9.65,0,0,1,9.42-7.2c4.69,0,8.07,2.67,9.58,7.42a33.3,33.3,0,0,1,.95,6.53C301.82,85,300.39,89.5,295.3,91.66Z"/><path class="cls-1" d="M403.4,57.22c-4.93,0-4.93,0-5.1,4.84,0,.13-.25.25-.49.47a13.83,13.83,0,0,0-7.41-5.69,18.67,18.67,0,0,0-22.69,9.46c-3.8,7.54-3.76,15.41-1.25,23.27s9,12.33,17.33,12.47a17.1,17.1,0,0,0,14.54-6.66c0,3.75.3,6.81-.56,9.81-1.09,3.82-3.5,6.33-7.55,6.79-3.81.44-8,.32-9.9-3.39-1.44-2.73-3.14-2.85-5.48-2.75-1.06,0-2.14-.07-3.19,0-1.74.16-4.31-.89-5,.53-.91,1.83.49,4.08,1.6,5.92a15.21,15.21,0,0,0,6,5.54,26,26,0,0,0,10.06,2.81l5.81,0c13.94-1.15,20.34-8.13,20.35-22.2V64.25C410.5,57.22,410.5,57.22,403.4,57.22ZM390.29,92c-4.46,1.21-8.79-.45-10.83-4.56a18.47,18.47,0,0,1-.47-16,9,9,0,0,1,9.07-5.77,9.36,9.36,0,0,1,8.88,6.16,24.3,24.3,0,0,1,1.4,7.35C398.29,86,395.24,90.69,390.29,92Z"/><path class="cls-1" d="M486.14,54.11a22.16,22.16,0,0,1-7-7.18c-9.11-14.24-18-28.61-28.21-42.14-4.79-6.38-12.83-6.38-17.61-.07a4.56,4.56,0,0,1-3.66,2c-3.5.3-7,.77-10.45,1.26-1.35.19-2.73.53-3.36,2.4,3.57.74,7,1.65,10.55,2.15,3.12.45,5,1.41,4.88,5.1-.1,2.17.7,4.4,1.19,6.57,5,22.19,18.17,33.33,40.59,34.29a6.28,6.28,0,0,1,3.75,1.45c3.86,3,7.75,6,11.65,9,.78.59,1.38,1.51,2.75.79,3.36-1.76,6.83-3.29,10.61-5.07C496.38,60.93,491.35,57.37,486.14,54.11ZM444,8.93a1.82,1.82,0,0,1-2.05,1.57,1.86,1.86,0,0,1-2-2,1.89,1.89,0,0,1,2.23-2.07C443.33,6.5,444.05,7.3,444,8.93Zm25.89,34.36a23.16,23.16,0,0,1-8.67,1.88,12.78,12.78,0,0,1-12-8c-2-5,.08-8.88,3.52-12.35,5.07-5.12,5.06-5.11,8.73.82,3.08,5,6.15,10,9.31,14.88C471.62,42,471.58,42.66,469.84,43.29Z"/><path class="cls-1" d="M360.16,89c0-6.6.08-13.2,0-19.81-.09-5.81-2.56-9.39-8.1-11.28a35.35,35.35,0,0,0-23.48,0A14.31,14.31,0,0,0,318.6,69c-.35,1.66-.34,2.85,2,2.68,2.86-.2,5.75,0,8.62-.06.8,0,1.53.14,2-1,2.47-5.52,6.52-7.33,12.18-5.54,2.64.83,3.87,2.69,3.95,5.51s-1.66,3.76-3.77,4.43a24.91,24.91,0,0,1-4.38.84c-4.42.59-8.88.93-13.16,2.34-6.33,2.09-9.59,6.76-9.19,13.22.44,6.92,3.93,11.18,10.54,12.54,7.32,1.52,14.14.35,20.13-4.27,1.37.93-.11,3.71,2.57,3.71,3.71,0,7.42,0,11.38,0C360,98.49,360.15,93.72,360.16,89Zm-13.05-.13c-1.18,6.28-10.08,9.66-15.29,5.91-3.18-2.29-2.77-7.57.8-9.69a13.92,13.92,0,0,1,5.13-1.57c3.14-.46,6.3-.75,9.43-2A22.84,22.84,0,0,1,347.11,88.82Z"/><path class="cls-1" d="M429.5,83.42c4.79.11,9.59,0,14.39,0h11.83c5,0,5,0,4.68-4.94,0-.11,0-.21,0-.32-1.61-18.59-19.13-28.14-34.69-18.91-8.63,5.12-12.65,15.38-10.6,27.05,1.76,10,9,16.73,19.61,18.1,10.73,1.38,19.5-3,23.57-11.9,1.57-3.41,1.57-3.42-2.05-3.43-1.39,0-2.78.09-4.16,0a5.64,5.64,0,0,0-5.36,2.31c-3.2,3.78-7.62,4.28-12.28,3-4.41-1.2-6.14-4.46-6.92-8.64C427.15,83.85,427.62,83.38,429.5,83.42Zm7.71-17.77c5.64-.28,8.71,2.48,10.24,9.48H427.54C428.25,69.19,431.62,65.92,437.21,65.65Z"/><path class="cls-1" d="M161.6,70.54c-3-9.28-10.88-14.57-20.5-13.84-6.29.47-11.16,3.35-14.58,9.51,0-8.32-.14-15.88.08-23.44.07-2.65-1.31-2.34-2.93-2.29s-3-.54-3,2.22c.14,19.72.1,39.44,0,59.16,0,1.91.62,2.43,2.35,2.19,1.41-.19,3.43.73,3.16-2.1-.15-1.63,0-3.28,0-5.84,5.36,8.33,12.55,10.17,20.75,8.73,8.4-1.47,13-7.18,15.13-15.07A33.85,33.85,0,0,0,161.6,70.54Zm-5.72,19.77c-2.28,6.44-7,10.07-13.23,10.16-6.63.11-11.82-3.34-14.29-9.71a26.32,26.32,0,0,1,.14-19.92c2.41-6,7.47-9.26,13.95-9.24,6.14,0,10.52,3.14,13.11,9.34a24.8,24.8,0,0,1,1.77,10.23A23.52,23.52,0,0,1,155.88,90.31Z"/><path class="cls-1" d="M109.6,92.47c-1.72,5.11-6,7.7-11.61,8-8.58.38-14.31-4.93-16-14.82-.38-2.19,0-3,2.4-3,8.2.13,16.4,0,24.6,0,9,0,9,0,7.27-9-2-10.35-9-16.73-18.54-17.07C87.35,56.3,79.94,62,77.17,72.51a35.83,35.83,0,0,0-.54,15.18c1.73,10.46,8.88,17.27,18.42,17.52,12.52.33,19.21-4.66,21.63-16.31C113.28,88.28,111,88.4,109.6,92.47ZM84.86,68.57c2.92-4.72,7.06-7.27,12.73-7,5.43.29,9,3.28,11.57,7.86a15.11,15.11,0,0,1,1,2.34c2,5.63,1.81,5.9-4.12,5.9H81.84A23.67,23.67,0,0,1,84.86,68.57Z"/></g></g></svg>