<svg xmlns="http://www.w3.org/2000/svg" viewBox="0 0 88.92 85.26"><defs><style>.cls-1{fill:#fff;}.cls-2{fill:#cacbca;}.cls-3{fill:#b2b2b2;}.cls-4{fill:#87dec2;}</style></defs><title>Asset 77</title><g id="Layer_2" data-name="Layer 2"><g id="Layer_1-2" data-name="Layer 1"><path class="cls-1" d="M19.32,18.15l-1.8-.61c3.1-.94,5.86-1.78,8.63-2.6L74.88.52A11,11,0,0,1,76,.29a.56.56,0,0,1,.08.7,1.22,1.22,0,0,1-.41.29C68.9,4.89,62.34,8.93,55.63,12.69c-5.39,3-10.73,6.16-16.12,9.2a3.78,3.78,0,0,1-1.87.7c-5.68-1.15-11.36-2.31-16.9-4A5.4,5.4,0,0,1,19.32,18.15Z"/><path class="cls-2" d="M76.4,1.61c-2,5.95-4.06,11.9-6.12,17.83Q64.1,37.27,57.88,55.08c-.15.41-.31.82-.59,1.55l-3.21-16.2a3.79,3.79,0,0,1-.69-2.53,44.28,44.28,0,0,1,3.8-6.53c5.88-9.5,11.73-19,17.7-28.47C75.25,2.34,75.41,1.47,76.4,1.61Z"/><path class="cls-2" d="M37.88,22.23c4.16-2.33,8.33-4.63,12.47-7Q58.54,10.6,66.7,5.9c2.73-1.57,5.43-3.2,8.15-4.79A2.29,2.29,0,0,1,75.66,1c.15,1-.74,1.44-1.29,2Q60.86,16.53,47.3,30c-1.2,1.19-2.16,2.58-3.39,3.74-.47.44-.83,1.11-1.66.93L39,25.88C38.2,24.78,37.45,23.68,37.88,22.23Z"/><path class="cls-1" d="M42.25,34.71c1.66-1.12,2.68-2.84,4.07-4.23q14-14,28-28c.47-.47.89-1,1.34-1.5l.35,0a.45.45,0,0,1,.68,0,.67.67,0,0,1-.29.67C74.65,3.51,73.53,5.84,72.18,8Q62.89,22.87,53.71,37.8c-.69.51-1.4.2-2.09,0a64.37,64.37,0,0,1-7-2.12C43.82,35.37,42.9,35.37,42.25,34.71Z"/><path class="cls-1" d="M20.36,73.82a3.38,3.38,0,0,0-3.62-1.34c-.61.22-.49.69-.49,1.1,0,3.15,0,6.3,0,9.44A1.86,1.86,0,0,0,17.7,85H12.85c1.64-.23,1.45-1.47,1.45-2.59,0-2.7,0-5.4,0-8.09,0-.6.41-1.56-.48-1.73-1.05-.19-2.28-.44-3.11.66A10.4,10.4,0,0,0,10,74.51c-.62-1-.9-2.24-2.43-2.08-1.17.12-2.37,0-3.54.08-.81.09-.57.9-.51,1.38.15,1.22-.68,2.78.48,3.59,1.38,1,4-.09,4.73-1.81v4.48c-.88-2.49-2.88-1.51-4.51-1.65-.48,0-.71.27-.71.73,0,1.35,0,2.7,0,4a1,1,0,0,0,1,1c2.21,0,4.6.54,6-2,0-.06.18-.06.28-.09C10.5,84.87,10.39,85,7.86,85S2.69,85,0,84.88c1.56-.26,1.76-1.3,1.74-2.56,0-2.7,0-5.4,0-8.09,0-1.08.05-2.18-1.38-2.65H4c5.06,0,10.11,0,15.17,0,.54,0,1.29-.36,1.57.52C20.76,72.72,21.23,73.41,20.36,73.82Z"/><path class="cls-1" d="M33.23,74.72c-1.26,1.9-2.57,3.78-3.78,5.71-.56.88-.86.76-1.37,0A46.08,46.08,0,0,0,24,74.78c0,2.94,0,5.89,0,8.83,0,.59.33,1.44-.85,1.38s-.7-.85-.7-1.36q0-5.31,0-10.62c0-.49-.32-1.19.55-1.35a1.38,1.38,0,0,1,1.52.77c1.18,1.84,2.43,3.64,3.6,5.49.55.87.86.77,1.37,0,1.13-1.81,2.35-3.55,3.5-5.35.4-.62.84-1.07,1.63-.87s.51,1,.51,1.54c0,3.37,0,6.74,0,10.11,0,.58.57,1.63-.72,1.65s-.78-1.12-.8-1.74c-.07-2.8,0-5.61,0-8.41Z"/><path class="cls-1" d="M62.34,81.76c0-2.9,0-5.8,0-8.7,0-.61-.29-1.47.86-1.41s.64.88.65,1.39q0,5.22,0,10.44c0,.49.39,1.19-.35,1.46s-1.09-.29-1.48-.8c-2.51-3.23-5-6.45-7.89-10.11v6c0,1.35,0,2.7,0,4,0,.59-.1.94-.82.91s-.65-.46-.65-.91c0-3.82,0-7.64,0-11.45,0-.36-.15-.84.41-1a1.33,1.33,0,0,1,1.44.61c2,2.58,4,5.14,6,7.71.47.61,1,1.22,1.45,1.83Z"/><path class="cls-1" d="M66.52,78.26c0-1.86,0-3.71,0-5.57,0-.8.26-1.08,1.06-1.07,2.48,0,5,0,7.43,0,.47,0,1.07-.15,1.09.66s-.7.7-1.21.71c-1.85,0-3.71,0-5.56,0-1,0-1.35.28-1.35,1.32,0,3.29-.08,3.29,3.22,3.29h3.21c.47,0,.9,0,.9.69s-.45.66-.91.66c-1.74,0-3.48,0-5.22,0-.84,0-1.17.2-1.2,1.12-.14,3.56-.18,3.56,3.44,3.56h3.88c.45,0,.91,0,.92.64s-.35.72-.85.72c-2.65,0-5.29,0-7.93,0-.78,0-.93-.33-.92-1C66.54,82.08,66.52,80.17,66.52,78.26Z"/><path class="cls-1" d="M82.79,78.17c2.17-2.11,2.86-5.34,5.52-6.79l.61.48A52.39,52.39,0,0,1,86,76.2a9.14,9.14,0,0,0-2.37,7.4c.08.57.34,1.45-.84,1.39s-.7-.9-.64-1.36a9,9,0,0,0-2.28-7.26c-1.14-1.36-2-2.94-3.09-4.5a1.56,1.56,0,0,1,2.27.66C80.23,74.42,81.51,76.26,82.79,78.17Z"/><path class="cls-3" d="M19.32,18.15c3.86.59,7.6,1.68,11.4,2.5l7.16,1.58c.36,1.21.71,2.43,1.07,3.65"/><path class="cls-3" d="M44.6,35.72c2.64.18,5.06,1.31,7.64,1.78l1.47.3c.12.87.25,1.75.37,2.63A100.7,100.7,0,0,1,44.6,35.72Z"/><path class="cls-1" d="M20.36,73.82c.56-.48.17-1.15.35-1.7.47.58.23,1.28.29,1.93,0,.22.1.64-.37.48C20.33,74.43,20.35,74.1,20.36,73.82Z"/><path class="cls-4" d="M76.69.94H76c0-.22,0-.44,0-.65.28-.12.57-.46.85-.18S76.82.68,76.69.94Z"/><path class="cls-1" d="M44,71.48a6.89,6.89,0,0,0-.24,13.78,6.84,6.84,0,0,0,6.9-6.8A6.73,6.73,0,0,0,44,71.48Zm-.12,12.43a5.44,5.44,0,0,1-5.26-5.64,5.24,5.24,0,1,1,5.26,5.64Z"/></g></g></svg>