<svg xmlns="http://www.w3.org/2000/svg" viewBox="0 0 400 400"><defs><style>.cls-1{fill:#fcfdfd;}.cls-2{fill:#fdfdfd;}.cls-3{fill:#fcfcfd;}.cls-4{fill:#fbfcfc;}.cls-5{fill:none;}</style></defs><title>Asset 98</title><g id="Layer_2" data-name="Layer 2"><g id="Layer_1-2" data-name="Layer 1"><path class="cls-1" d="M288,192c-3.44,4.39-6.25,8.15-9.26,11.73-1.29,1.54-1.23,2.56,0,4.09,3.5,4.26,6.81,8.66,10.72,13.68-4,0-7.13,0-10.28,0-1.52,0-2.09-1.14-2.84-2.08-2.87-3.64-5.73-7.3-9.33-11.88,0,4.39-.15,7.66,0,10.92.16,2.52-.82,3.11-3.19,3.1-6.24,0-6.24.08-6.24-6.3,0-11.38.1-22.75-.06-34.13-.05-3.1,1-3.53,3.68-2.86,4.13,1.05,5.67,2.78,5.74,7.38.09,5.67,0,11.35,0,17.59,3.08-2.44,4.91-5.32,6.82-8,1.75-2.47,3.67-3.67,6.75-3.29A63,63,0,0,0,288,192Z"/><path class="cls-1" d="M182.82,196.43c0-5.31.08-10.62,0-15.92-.05-2.2.71-2.8,2.82-2.46,4.74.77,6.5,2.88,6.56,8.2.05,4.89.06,5.08,4.83,4.86,2.84-.14,3.53.77,3.43,3.5-.2,5.26,0,5.36-5.54,5.38-2,0-2.95.45-2.76,2.65.17,2,0,3.94,0,5.92.06,4.54.71,5.07,5.24,5,1,0,3.23-1.36,2.85,1.21-.33,2.21,2,5.41-1.89,6.54a17.94,17.94,0,0,1-9.88.09c-3.31-.92-5-3.46-5.35-6.83a16.77,16.77,0,0,1-.22-1.84c0-5.43,0-10.87,0-16.3Z"/><path class="cls-2" d="M243,222c-4.38-.16-8-.92-11.2-3-1.5-.95-2-1.77-.62-3.43,1.92-2.34,3.4-5.13,6.77-1.81a4.1,4.1,0,0,0,2,.86c2.05.39,4.66,1.13,5.52-1.37,1-3-2-3.07-3.84-3.72-1.39-.48-2.85-.81-4.24-1.3-3.12-1.12-5.33-3.14-5.78-6.57a8.73,8.73,0,0,1,3.8-8.7c4.71-3.39,14.05-3,18.6.58,1.13.89,1.28,1.49.37,2.65-1.89,2.39-3.45,5.4-7.06,2.18a2.59,2.59,0,0,0-1.37-.5c-1.93-.18-4.51-.93-5.2,1.4-.86,2.87,2.12,2.67,3.82,3.29,1.39.51,2.87.77,4.26,1.28,3.64,1.35,6.09,3.76,6.32,7.85a9.32,9.32,0,0,1-5.91,9A18,18,0,0,1,243,222Z"/><path class="cls-3" d="M318,206.65c0-4,.08-7.92,0-11.87-.05-2,.48-3.29,2.65-2.73,2.42.62,5.7-2,7.38,1.86a23.12,23.12,0,0,1,3.24-1.2c1.8-.32,4.08-2.6,5.35.08,1.55,3.25-.09,7.12-2.73,8-4.14,1.41-6.25,4.18-6.35,8.54-.07,3.21-.1,6.43,0,9.64.07,1.95-.67,2.48-2.57,2.55-6.95.25-6.95.32-6.95-6.73Z"/><path class="cls-1" d="M161.91,206.6c0-4.07.06-8.15,0-12.22,0-1.7.57-2.88,2.27-2.3,2.46.83,5.92-2.33,7.51,1.91.17.44.84,0,1.24-.23a7.47,7.47,0,0,1,1.3-.71c1.92-.73,4.52-2.38,5.79-1,1.59,1.68.57,4.7.55,7.14,0,1.34-1.38,1.19-2.24,1.5-5,1.79-6.82,4.27-6.85,9.63,0,1.6,0,3.21,0,4.81,0,6.63-1.28,7.6-7.89,6.42-1.87-.34-1.65-1.5-1.65-2.69C161.9,214.75,161.91,210.68,161.91,206.6Z"/><path class="cls-3" d="M149.68,206.17c0-4.19.09-8.38,0-12.57-.07-2,.72-2.51,2.59-2.33,4.68.43,7,2.61,7.06,7.33.11,6.78,0,13.56.06,20.34,0,1.91-.64,2.51-2.56,2.59-7.12.31-7.11.39-7.11-6.86Z"/><path class="cls-4" d="M159.67,183.19a5.19,5.19,0,0,1-5.32,5.41,5.33,5.33,0,0,1-5.21-5.21,5.46,5.46,0,0,1,5.38-5.45A5.32,5.32,0,0,1,159.67,183.19Z"/><path class="cls-2" d="M146.84,218.67C142,206,137.15,193.31,132.6,180.52c-1.26-3.53-3.76-2.36-6-2.54s-3.9-.15-4.85,2.61c-2.84,8.29-5.79,16.56-9.21,24.61-1.21,2.84-.3,7.5-4.88,8.11A22.22,22.22,0,0,1,97,212.15c-4.59-1.67-6.72-4.29-6.48-9.17.16-3.31-1.07-3.73-4-3.75-8.42-.09-13.93-5-15-13.2,8.79,0,17.56.2,26.31-.06,6.1-.18,11.11.93,13.2,8.81.9-2.22,1.28-3.12,1.62-4,2.68-7.06.77-10.52-6.73-12.16a17.6,17.6,0,0,0-3.66-.55C90,178,77.59,178,65.22,178c-1.49,0-2.11.35-2.26,2-1.14,12.85,5.33,22.74,17.67,26.55A3.44,3.44,0,0,1,83.34,209c2,6,6.47,9.44,12.39,11.19,5.19,1.54,10.55.93,15.83,1.33,3.91.3,6.08-.86,6.6-4.81.35-2.72,2-3.55,4.65-3.33a60.09,60.09,0,0,0,8.9,0c2.26-.16,3.58.61,3.86,2.82.57,4.44,3.07,6,7.34,5.24a5.74,5.74,0,0,1,1.85,0C147.2,221.81,147.75,221.05,146.84,218.67Zm-18.42-14.16c-7-.12-5.84.19-4-5.26l2.5-7.25c1.41,4,2.37,6.91,3.47,9.77C131.2,203.83,130.76,204.55,128.42,204.51Z"/><path class="cls-2" d="M300.55,191.09c-10,.28-16.56,8.49-14.73,18.82a13.56,13.56,0,0,0,10.77,11.45c6.18,1.51,12.06.9,16.77-4.06.44-.47,1.44-1.06.55-1.76a51.11,51.11,0,0,0-4.92-3.26c-1.54-.94-2.15.75-3.13,1.28-3.44,1.88-8,1.18-10.07-1.73-.49-.67-1.26-1.41-.77-2.31.41-.73,1.34-.38,2-.39,2.59,0,5.19,0,7.79,0,2.84,0,5.69,0,8.53,0,1.37,0,2.26-.11,2.4-1.91C316.48,197.9,309.87,190.84,300.55,191.09Zm6,11.23c-.42,1.1-1.48.61-2.27.66-1.23.08-2.47,0-3.7,0a14.93,14.93,0,0,1-2.22,0c-1.15-.18-2.92.75-3.3-.64s1-2.65,2.27-3.51c2.81-2,7-1.41,8.62,1.08A2.67,2.67,0,0,1,306.53,202.32Z"/><path class="cls-2" d="M227.92,210c0-2.6,0-5.2,0-7.8-.15-6.57-3.32-10.34-9.81-11.45a18.68,18.68,0,0,0-12.22,2c-1,.55-3.7,1.05-2.08,2.87,1.44,1.62,1.7,5.9,5.71,3.78,2-1.06,4-1.91,6.35-1.53a3.32,3.32,0,0,1,2.88,3.73c0,2-1.83,1.13-2.87,1.23-2.21.22-4.43.17-6.58.95-4.49,1.63-7,5.18-6.59,9.58.36,4.12,3,6.7,7.89,7.52,5,.85,10.12.43,15.19.55,1.59,0,2.21-.56,2.17-2.16C227.87,216.22,227.92,213.13,227.92,210Zm-11.58,5.21c-2-.24-4.23-.2-4.19-3s2.26-3,4.45-3.25c2.64-.28,2.33,1.43,2.25,3.13C219,213.9,219.06,215.58,216.34,215.25Z"/><rect class="cls-5" width="400" height="400"/></g></g></svg>