<svg xmlns="http://www.w3.org/2000/svg" viewBox="0 0 348.39 67.99"><defs><style>.cls-1{fill:#fff;}</style></defs><title>Asset 51</title><g id="Layer_2" data-name="Layer 2"><g id="Layer_1-2" data-name="Layer 1"><path class="cls-1" d="M207.27,23.71c-7.38-4-14.9-3.94-22,1.1l-.65-.06c0-4.3,0-8.59,0-12.88,0-1.63.56-3.82-.26-4.73s-3.19-.16-4.86-.36c-1.38-.16-1.77.26-1.76,1.71.09,14,.09,28,.11,42,0,2.42-.1,4.84-.12,7.27,0,3.41,0,3.41,3.33,3.41s3.37,0,3.64-3.32c0,0,.07-.07.2-.18.77.46,1.34,1.22,2.17,1.68a20.27,20.27,0,0,0,16.28,1.51c6.7-2.09,11.2-6.51,13-13.42a21.6,21.6,0,0,0,.83-5C217.49,34.32,214.54,27.66,207.27,23.71Zm-4.13,29.88a14.56,14.56,0,0,1-16.55-2.25c-.47-.46-.93-1-1.39-1.42a2.92,2.92,0,0,1-.69-2c.06-4.35.08-8.7.09-13.06a2.81,2.81,0,0,1,.51-1.72c4.7-6.8,17.78-8.63,23.09.8A14.88,14.88,0,0,1,209,47.51C207.34,49.84,205.71,52.15,203.14,53.59Z"/><path class="cls-1" d="M313.21,24.59c-10.4-7.42-26.46-3.3-30.28,10.73a21.37,21.37,0,0,0,3.19,18.52h0c0,.15,0,.37.05.46,3.67,4,8,6.76,13.51,7.35a22.72,22.72,0,0,0,17.53-5.14c1-.82,1.13-1.47.12-2.39a27.64,27.64,0,0,1-2.63-2.88c-.55-.65-1-.75-1.63-.1a12,12,0,0,1-3,2.14A15.09,15.09,0,0,1,294.72,53a13.23,13.23,0,0,1-5.26-8c-.32-1.31-.3-1.94,1.47-1.92,8.7.11,17.4.05,26.1.05,4.36,0,4.41,0,3.85-4.35C320.14,33.06,318,28,313.21,24.59Zm-1,12.46c-7.06,0-14.11,0-21.17,0-1.27,0-1.57-.25-1.07-1.5,1.88-4.7,5.19-7.62,10.28-8.15,4.76-.5,8.81.89,11.57,5.08A10.06,10.06,0,0,1,313.4,37C313,37,312.58,37.05,312.19,37.05Z"/><path class="cls-1" d="M253.2,24.5A19.1,19.1,0,0,0,241.1,21c-4.35.17-8.35,1.19-11.93,4.27,0-4.58,0-8.91,0-13.25,0-1.68.57-3.94-.28-4.9s-3.3-.17-5-.37c-1.39-.16-1.64.4-1.64,1.68.07,12.42.07,24.84.1,37.26a21.13,21.13,0,0,0,3.37.23,21.13,21.13,0,0,1-3.37-.23c-.31,4-.07,8-.12,12,0,3.47,0,3.47,3.46,3.47s3.36,0,3.56-3.25c0-.08.13-.16.2-.24,7,5.16,14.49,5.52,22.07,1.65a17.24,17.24,0,0,0,9.42-12.11C263.38,38.25,260.58,29.75,253.2,24.5Zm-.94,24.7c-6,9.38-18.6,6.52-22.62.43a2.83,2.83,0,0,1-.51-2.37c.12-.5.29-1-.06-1.44,0-3.61.06-7.23.07-10.84a3.33,3.33,0,0,1,.61-2.06c5-7,16.55-7.35,21.86-.64a12.52,12.52,0,0,1,2.86,8.3c-.06,2.11.13,4.23-.71,6.25C253.26,47.62,252.77,48.41,252.26,49.2Z"/><path class="cls-1" d="M15.29,15.32c.54.57.84.59,1.48,0,10.54-9.13,24-9.14,34.38,0,.59.51.89.64,1.48,0,1.51-1.6,3.1-3.13,4.66-4.69.2-.2.38-.41.61-.67-.23-.26-.42-.53-.66-.76a34,34,0,0,0-46.52,0c-.69.64-.59,1,0,1.58Q13.06,13,15.29,15.32Z"/><path class="cls-1" d="M59.64,14.12c-1.34,1.52-2.83,2.91-4.29,4.33-.5.48-.75.81-.25,1.53a27.25,27.25,0,0,1,3.36,7.67,22.4,22.4,0,0,1-.4,14.09A26.38,26.38,0,0,1,45.72,56.6a3.47,3.47,0,0,0-1.58.54,25.47,25.47,0,0,1-13.55,1.93,39.68,39.68,0,0,1-8.83-2.74c-1.12-.74-2.29-1.4-3.34-2.22A24.77,24.77,0,0,1,8.93,38.4,24.23,24.23,0,0,1,12.85,20a.9.9,0,0,0-.14-1.4c-1.51-1.44-3-2.88-4.42-4.45-.95-1.08-1.35-.77-2.06.23-9.29,13.21-8.1,30.49,3,42.7.18.64.74,1,1.17,1.4a34,34,0,0,0,36.57,7,28.87,28.87,0,0,0,11.47-8c.31-.33.62-.65.92-1a33.71,33.71,0,0,0,2.38-42.06C61,13.27,60.56,13.07,59.64,14.12Z"/><path class="cls-1" d="M347.77,21.38c-3.46-.16-6.89-.19-9.92,1.89-1,.69-2,1.41-3.09,2.18a19.58,19.58,0,0,1,0-2.18c.15-1.2-.17-1.76-1.53-1.63a20.09,20.09,0,0,1-3.72,0c-1.3-.12-1.71.28-1.7,1.64.1,9.21.11,18.41.15,27.62h0c-.53,3.11-.11,6.25-.22,9.37,0,.64.34.9.95.89,1.69,0,3.37,0,5.06,0,.67,0,1.06-.23,1-1-.08-3.14.19-6.28-.13-9.42,0-5.13.06-10.27.06-15.41a5,5,0,0,1,.59-2.24c1.84-3.82,7.35-5.71,11-4.82,1.94.47,2.07.38,2.07-1.59,0-1.47,0-2.94,0-4.4C348.38,21.89,348.48,21.42,347.77,21.38Z"/><path class="cls-1" d="M169.29,50.88,163,51l6.25-.07V49.7c0-8.86,0-17.72.1-26.58,0-1.2-.31-1.58-1.5-1.47a19.14,19.14,0,0,1-3.55,0c-1.41-.14-1.9.22-1.87,1.79.11,7,0,14,.08,21a11,11,0,0,1-1.09,5.44,19.09,19.09,0,0,1-3,3.33c-4.4,3-10.79,3-14.64-1.61a9.46,9.46,0,0,1-1.74-4.81c-.26-6.61,0-13.21-.12-19.81,0-1.73.79-4.1-.34-5s-3.35-.18-5.09-.31c-1.23-.08-1.49.37-1.48,1.53.06,6.94.05,13.89,0,20.83a27.36,27.36,0,0,0,1,7.85,6.11,6.11,0,0,0,.23,1c2.66,6.59,9.45,10.07,17,8.85A15.23,15.23,0,0,0,162.48,57c0,1.16.05,1.93,0,2.7-.09,1,.2,1.56,1.37,1.49,1.46-.09,2.93,0,4.4,0,.72,0,1.19-.15,1.16-1C169.31,57.07,169.58,54,169.29,50.88Z"/><path class="cls-1" d="M43.56,24.46c1.55-1.55,3.08-3.14,4.69-4.64.73-.69.64-1.07-.08-1.7a21.45,21.45,0,0,0-14.79-5.37,21.07,21.07,0,0,0-13.63,5.41c-.63.55-.87.9-.14,1.57a31.31,31.31,0,0,1,4,4.3c.76,1,1.34,1,2.37.15,4.62-3.95,12.35-3.83,16.25.25C42.89,25.12,43.1,24.93,43.56,24.46Z"/><path class="cls-1" d="M275.34,45.71,275.4,21c0-4.24,0-8.48,0-12.71,0-1.22-.34-1.57-1.51-1.48a19.37,19.37,0,0,1-3.73,0c-1.45-.15-1.74.37-1.73,1.76.09,12.43.1,24.86.13,37.29-.48,4.83-.09,9.68-.18,14.52,0,.67.43.84,1,.84h5.09c.61,0,.94-.25.93-.9C275.38,55.42,275.64,50.56,275.34,45.71Z"/><path class="cls-1" d="M126.61,48.35c0-2.48.08-5,.08-7.46,0-10.9,0-21.81.08-32.72,0-1.12-.31-1.46-1.42-1.39a32.45,32.45,0,0,1-4.41,0c-1.22-.09-1.48.34-1.47,1.51.06,6.89,0,13.79.06,20.68,0,1.1-.17,1.57-1.44,1.56q-14-.08-28,0c-1.18,0-1.53-.31-1.51-1.51.06-5.59,0-11.19,0-16.78,0-1.75.63-4.09-.25-5.08S85,7,83.2,6.78c-1.6-.22-1.79.47-1.78,1.86.07,12.49.07,25,.09,37.46,0,3.15-.13,6.3-.07,9.45,0,1.83-.84,4.25.38,5.33s3.55.21,5.4.3h.34c.76.06,1.15-.22,1.13-1-.09-4.66.16-9.33-.12-14,0-2.43.11-4.86,0-7.28,0-1.19.41-1.4,1.46-1.4q14.06,0,28.12,0c1.2,0,1.37.45,1.36,1.48,0,3.16,0,6.32,0,9.49-.34,3.32-.08,6.65-.13,10,0,2.84,0,2.84,2.88,2.83,4.51,0,4.56,0,4.49-4.45C126.78,54,127.15,51.15,126.61,48.35Z"/><path class="cls-1" d="M33.94,25.47a9.14,9.14,0,0,0-5.21,1.71c-.95.61-.94,1.06-.18,1.79,1.58,1.53,3.13,3.1,4.67,4.67.39.4.63.58,1.12.06,1.64-1.71,3.31-3.4,5-5,.66-.62.47-1-.1-1.42A8.4,8.4,0,0,0,33.94,25.47Z"/></g></g></svg>