<svg xmlns="http://www.w3.org/2000/svg" viewBox="0 0 400 400"><defs><style>.cls-1{fill:#fff;}.cls-2{fill:none;}</style></defs><title>Asset 92</title><g id="Layer_2" data-name="Layer 2"><g id="Layer_1-2" data-name="Layer 1"><path class="cls-1" d="M90.36,171.83c14.88,0,24,15.25,16.63,28-.66,1.14-.7,1.87.33,2.73a22.12,22.12,0,0,1,2.42,2.42,3.4,3.4,0,0,1,.05,4.74c-1.39,1.36-3.08,1.87-4.72.57a47.94,47.94,0,0,1-7-6.86c-1.45-1.74-.59-3.36.79-4.85,3-3.3,4.32-7.14,2.8-11.52-3-8.61-13.25-10.75-20.06-4.21-5.44,5.23-10.81,10.53-16.22,15.8-.38.37-.75.75-1.15,1.11-1.86,1.69-4,1.8-5.48.29s-1.46-3.57.4-5.41q6.66-6.6,13.39-13.11c1.75-1.7,3.51-3.39,5.33-5A18,18,0,0,1,90.36,171.83Z"/><path class="cls-1" d="M221.18,189.69c4.4-5.35,10.5-4.14,12.87.5,2.07-3,4.78-4.59,8.49-3.78s5.72,3,5.86,6.79c.16,4.88,0,9.76.06,14.64,0,.93-.25,1.48-1.27,1.39H247c-4.7.33-4.7.33-4.71-4.37,0-3.28.05-6.56-.06-9.83-.08-2.56-1.12-3.53-3.45-3.55s-3.94,1.32-4,3.7c-.09,4-.11,7.94,0,11.9.05,1.68-.38,2.24-2.14,2.2-3.78-.1-3.78,0-3.78-3.69,0-3.43,0-6.86,0-10.29,0-2.52-1.24-3.8-3.53-3.82a3.65,3.65,0,0,0-3.86,3.84c-.06,4-.08,8.08,0,12.12,0,1.41-.42,1.81-1.82,1.83-4.42,0-4.42.11-4.42-4.23,0-5.49,0-11,0-16.47,0-1.55.35-2.31,2-2a2.22,2.22,0,0,0,.68,0C220.11,186.24,221.83,186.54,221.18,189.69Z"/><path class="cls-1" d="M253.86,194.5c0-4.35.07-8.69,0-13,0-1.54.47-1.9,1.93-1.87q8,.12,16,0c1.45,0,1.93.46,1.74,1.83a6.51,6.51,0,0,0,0,1.59c.22,1.59-.39,2.12-2,2.06-3.28-.12-6.56,0-9.84-.05-1.13,0-1.57.25-1.62,1.51-.18,5.06-.23,5.06,4.9,5.06a46.12,46.12,0,0,0,5.26,0c2.22-.27,2.59.67,2.59,2.66s-.41,2.52-2.37,2.4c-2.88-.18-5.79,0-8.69-.07-1.28,0-1.66.33-1.69,1.65-.1,5.58-.15,5.58,5.3,5.58,2.06,0,4.13.1,6.18,0,1.65-.11,2.2.51,2,2.07a6.59,6.59,0,0,0,0,1.6c.15,1.34-.29,1.89-1.76,1.87-5.41-.08-10.82-.07-16.24,0-1.33,0-1.68-.46-1.67-1.72C253.89,203.19,253.86,198.85,253.86,194.5Z"/><path class="cls-1" d="M154.16,190.54c2.23-3.62,5.06-4.83,8.57-4.17,4.22.79,6.33,3.23,6.43,7.54.12,4.57,0,9.14.05,13.71,0,1.14-.29,1.59-1.52,1.65-4.72.23-4.72.28-4.72-4.39,0-3,0-5.94,0-8.91s-1.19-4.37-3.66-4.49c-2.81-.13-4.77,1.41-4.91,4.21-.17,3.5,0,7-.07,10.51s.44,3-3.05,3-3,.43-3-3c0-7.62,0-15.24,0-22.86,0-1.22.06-2.44,0-3.66s.26-1.57,1.5-1.62c4.42-.17,4.42-.22,4.42,4.17Z"/><path class="cls-1" d="M89.28,228.14A3.34,3.34,0,0,1,85.92,226a3,3,0,0,1,.69-3.75c1.5-1.51,3-3.05,4.55-4.49.91-.83.83-1.38,0-2.19q-3.33-3.13-6.52-6.42c-.93-1-1.57-.83-2.43.07-1.35,1.44-2.76,2.84-4.23,4.17a3.66,3.66,0,0,1-5.31.05c-1.42-1.43-1.32-3.61.33-5.26,2.48-2.48,5-4.93,7.54-7.33,2.06-1.92,3.58-1.94,5.56,0q6.93,6.64,13.75,13.38c1.73,1.71,1.77,3.43,0,5.21-2.62,2.66-5.36,5.2-8,7.79A2.94,2.94,0,0,1,89.28,228.14Z"/><path class="cls-1" d="M320.14,186.71a5.74,5.74,0,0,1,.75-.16c5.76-.24,5.75-.23,7.31,5.37,1,3.5,2,7,3,10.5.09.28.19.56.43,1.3,1.44-5.19,2.87-9.93,4.06-14.73.46-1.86,1.16-2.6,3.19-2.51,4,.18,4,.05,2.68,4q-3.27,9.59-6.55,19.18c-1.94,5.67-4.77,7.6-10.74,7.54-1.42,0-2-.33-2-1.9-.05-2.08,0-3.39,2.78-3.22,2.17.14,3.22-1.81,2.45-4-2.21-6.46-4.49-12.9-6.73-19.35C320.52,188,320.35,187.39,320.14,186.71Z"/><path class="cls-1" d="M316.32,192.92c-1.73.09-3,.17-4.05-1.35-.9-1.28-4.19-1.11-5.59-.17a1.71,1.71,0,0,0-.9,1.71,2.1,2.1,0,0,0,1.74,1.61c2.58.66,5.22,1.1,7.73,1.93,3.7,1.21,5.27,4.62,3.68,8-2,4.22-5.93,5-10,4.88-3.84-.1-7.46-.86-9.15-5-.54-1.34-.45-2,1.22-1.89,2,.14,3.82-.3,5.55,1.59,1.32,1.45,3.68,1.07,5.61.29a1.85,1.85,0,0,0,1.26-1.75,1.73,1.73,0,0,0-1.43-1.59c-2.07-.51-4.14-1-6.21-1.47-3.74-.91-5.88-3.2-5.9-6.3s2.26-5.72,5.62-6.66a14.88,14.88,0,0,1,7.89,0,7.22,7.22,0,0,1,4.32,2.79c.66,1,1.43,2.14,1.05,3.11S316.94,192.75,316.32,192.92Z"/><path class="cls-1" d="M203.71,190.05a6.4,6.4,0,0,1,2.86-3.09c1.63-.75,3.52-1.49,5-.36s.39,3,.54,4.52c.1,1-.67.79-1.27.74-5.35-.44-7.05,1.12-7.06,6.47,0,3,0,6.09,0,9.14,0,1.18-.19,1.76-1.6,1.8-4.48.14-4.48.2-4.48-4.35,0-5.41.06-10.82,0-16.23,0-1.65.31-2.49,2.1-2.16a4,4,0,0,0,.69,0C203.52,186.54,203.52,186.54,203.71,190.05Z"/><path class="cls-1" d="M135.4,179.63c-3.82-.06-7.63.05-11.44,0-1.38,0-1.84.31-1.81,1.76.1,4.27,0,8.54,0,12.81v10.53c0,4.76,0,4.7,4.74,4.58,1.39,0,1.65-.55,1.6-1.76-.08-2,.05-4,0-5.95-.06-1.22.39-1.55,1.56-1.53a34,34,0,0,0,6.61-.26c5.12-.9,8.42-4.91,8.23-10.44C144.69,183.63,140.73,179.72,135.4,179.63Zm3,10.69c-.25,2.93-2,4.41-5.26,4.47-.46,0-.92,0-1.38,0a16,16,0,0,0-1.83,0c-1.07.11-1.47-.29-1.44-1.41q.1-3.66,0-7.32c0-1.06.25-1.53,1.39-1.45,1.29.09,2.61-.1,3.89.08C137.06,185.15,138.67,187.17,138.4,190.32Z"/><path class="cls-1" d="M193,194.27c0-2.92-.94-5.5-3.74-6.81a12.81,12.81,0,0,0-12.83.7,5.4,5.4,0,0,0-2.55,3.65c-.09.46-.5,1.2.46,1.12,1.93-.16,3.94.86,5.78-1,1.45-1.43,3.52-1.27,5.38-.46,1.38.6,1.45,1.87,1.29,3.12-.18,1.4-1.41,1-2.19,1a22.15,22.15,0,0,0-7.63,1.09,6.22,6.22,0,0,0-4.24,5.93,6.57,6.57,0,0,0,3.9,6.21c3.33,1.54,7.26.65,10.64-2.86-.74,3.06.59,3.58,2.69,3.25a4.35,4.35,0,0,1,1.14,0c1.51.21,2-.42,1.94-1.92C192.92,203,193,198.62,193,194.27Zm-7.64,9.62a5.14,5.14,0,0,1-3.84,1c-1.49-.17-2.63-.79-2.67-2.5s1.15-2.33,2.58-2.59c.81-.15,1.65-.14,2.7-.22.71.36,2.1-1,2.57.34A3.43,3.43,0,0,1,185.33,203.89Z"/><path class="cls-1" d="M296.57,193.52a6.57,6.57,0,0,0-4.68-6.57,13.93,13.93,0,0,0-10,.22,6.94,6.94,0,0,0-4.29,4.45c-.15.47-.5,1.28.26,1.27,1.95,0,4,.9,5.82-.8,1.61-1.5,3.65-1.37,5.59-.57,1.34.56,1.47,1.82,1.36,3.09-.13,1.48-1.4,1-2.13,1a24.13,24.13,0,0,0-7.65,1,6.21,6.21,0,0,0-4.38,6,6.38,6.38,0,0,0,4.37,6.3c3.63,1.3,6.85.53,9.86-2.41-.66,2.63.74,2.85,2.53,2.67a5.71,5.71,0,0,1,1.37,0c1.61.24,2.06-.41,2-2C296.51,202.67,296.61,198.09,296.57,193.52Zm-6,8c-.54,2.8-4.54,4.38-6.95,2.8a2.32,2.32,0,0,1-1.17-2.51,2.55,2.55,0,0,1,2.22-2c1.34-.25,2.72-.28,4.38-.43C290.93,198.76,290.83,200.16,290.56,201.54Z"/><rect class="cls-2" width="400" height="400"/></g></g></svg>