<svg xmlns="http://www.w3.org/2000/svg" viewBox="0 0 346.76 66.15"><defs><style>.cls-1{fill:#e5e6e5;}</style></defs><title>Asset 75</title><g id="Layer_2" data-name="Layer 2"><g id="Layer_1-2" data-name="Layer 1"><path class="cls-1" d="M314.85,12.36c3,0,6,.08,9,0,1.69-.06,2,.66,1.5,2-1.07,2.85-3,4.64-6.19,4.72s-6.18,0-9.27.05c-2.44,0-4.46.77-4.38,3.57.08,2.63,2,3.27,4.35,3.22,2.89-.07,5.77-.09,8.66,0,4.41.14,7,2.81,7.08,7.24.05,2.89.07,5.78,0,8.66-.11,3.46-2.15,6.21-5.48,6.39-6.68.36-13.38.22-20.07.3-1.53,0-1.3-.95-1.1-1.9A6.38,6.38,0,0,1,305,41.84c3.08-.13,6.18,0,9.27-.08,3.5-.08,4.58-1.25,4.54-4.72,0-3.2-1.18-4.31-4.56-4.36-2.79,0-5.57,0-8.35,0-4.5-.08-7.06-2.52-7.3-7-.1-2.06-.1-4.13,0-6.18.23-4.46,2.79-6.9,7.3-7.1h9Z"/><path class="cls-1" d="M82.26,33c0,4.42-.11,8.86,0,13.28.08,2.32-1,2.41-2.56,1.71a6.83,6.83,0,0,1-4.28-6.86q0-8.64,0-17.3c0-3.48-1.14-4.6-4.62-4.66-2.58-.05-5.15-.05-7.73,0-3.32.07-4.46,1.17-4.48,4.45,0,7.42,0,14.84,0,22.25,0,2.77-.56,3.11-3,1.87a6.07,6.07,0,0,1-3.68-5.63c-.05-7.72-.1-15.45,0-23.17a6.23,6.23,0,0,1,6.22-6.42c5.86-.24,11.74-.25,17.6,0,4,.16,6.42,3,6.49,7.21C82.32,24.11,82.26,28.54,82.26,33Z"/><path class="cls-1" d="M45.09,32.88c0,4.53-.07,9.07,0,13.59,0,1.88-.71,2.07-2.2,1.64a6.71,6.71,0,0,1-4.59-6.61c-.06-5.67,0-11.33,0-17,0-4.4-1-5.35-5.49-5.37-2.27,0-4.53,0-6.8,0-3.47.06-4.56,1.14-4.59,4.68,0,7.31,0,14.62,0,21.93,0,2.88-.66,3.24-3.23,1.85a6,6,0,0,1-3.45-5.45c-.05-7.83-.11-15.65,0-23.48a6.26,6.26,0,0,1,6.42-6.22c5.76-.2,11.53-.21,17.29,0,4,.15,6.49,3,6.58,7.14C45.17,24,45.09,28.45,45.09,32.88Z"/><path class="cls-1" d="M261.35,27.92c0-4.43.1-8.86-.05-13.28-.08-2.31.93-2.44,2.57-1.72a6.61,6.61,0,0,1,4.22,6.56q0,8.49,0,17c0,4.26,1,5.25,5.31,5.29,2.06,0,4.11,0,6.17,0,4.51,0,5.5-1,5.51-5.4,0-7.21.11-14.42,0-21.63-.05-2.58,1.1-2.48,2.73-1.71a6.5,6.5,0,0,1,4,6.1c.07,7.52.15,15,0,22.55-.09,4.06-2.6,6.6-6.61,6.75-5.65.2-11.32.2-17,0-4.28-.14-6.68-2.8-6.8-7.23S261.35,32.35,261.35,27.92Z"/><path class="cls-1" d="M217.08,12.28c.2,3.93-2.16,6.63-6.14,6.8-3.18.13-6.38-.09-9.55.12-5.67.36-10,4.19-10.78,9.28a11.21,11.21,0,0,0,6.94,12.39,15.64,15.64,0,0,0,5.75.9c2.67,0,5.35-.09,8,.09A5.83,5.83,0,0,1,217,48.65c-5,0-10.08,0-15.11-.17-8.25-.24-15-5.12-17.37-12.45a18,18,0,0,1,6-19.67,18.36,18.36,0,0,1,11.73-4Z"/><path class="cls-1" d="M126.2,39.52c0-2.16,0-4.32,0-6.49.1-4.25,2.67-6.94,6.9-7.1,3.09-.12,6.18-.07,9.27,0,2.33,0,3.93-1,4-3.31s-1.64-3.42-3.89-3.46c-3.19-.05-6.38,0-9.57,0s-5.18-1.67-6.33-4.54c-.58-1.44-.52-2.26,1.44-2.23,6,.09,12-.05,17.92.06,4.48.08,7.08,2.67,7.3,7.1a46.61,46.61,0,0,1-.06,6.79c-.37,4-3,6.29-7,6.38-3,.07-6,0-9,0S133.06,33.89,133,37c0,1.85.05,3.72-.13,5.55a6.16,6.16,0,0,1-2.08,4c-1.17,1.06-2.65,2.18-4.1,1.55-1.12-.48-.38-2.22-.44-3.39C126.13,43,126.2,41.27,126.2,39.52Z"/><path class="cls-1" d="M160,27.79c0-4.43.09-8.87,0-13.29-.06-2.11.86-2.25,2.4-1.61,3,1.25,4.35,3.61,4.36,6.8,0,5.56,0,11.12,0,16.69,0,4.45,1,5.36,5.5,5.39,1.75,0,3.5,0,5.25.06a5.91,5.91,0,0,1,4.32,2.08c1.06,1.16,2.17,2.64,1.55,4.08-.49,1.16-2.24.47-3.42.49-3.81.07-7.62,0-11.43,0-6.11,0-8.45-2.33-8.49-8.35C160,36,160,31.91,160,27.79Z"/><path class="cls-1" d="M7.92,33.07c0,4.44-.09,8.88,0,13.31C8,48.52,7,48.62,5.54,48c-2.6-1.05-4.29-3-4.32-5.84-.09-9.38,0-18.77-.09-28.15,0-1.55.57-1.66,1.85-1.3,2.93.81,4.86,3.39,4.93,7C8,24.2,7.92,28.64,7.92,33.07Z"/><path class="cls-1" d="M9,4.65A4.59,4.59,0,0,1,4.28,9,4.59,4.59,0,0,1,0,4.26,4.62,4.62,0,0,1,4.52,0,4.65,4.65,0,0,1,9,4.65Z"/><path class="cls-1" d="M333.14,8.14a16.85,16.85,0,0,1,2.76.16c.74.16,1,1.17.2,1.2-3,.12-1.72,2.29-2.06,3.74-.27,1.12,1,3.2-1,3.17-1.4,0-.43-2-.71-3.12-.36-1.39,1.14-3.76-2-3.69-.16,0-.44-.42-.46-.66,0-.49.35-.71.79-.72.82,0,1.64,0,2.46,0Z"/><path class="cls-1" d="M340.94,11.62c.29.51.5,1.37.89,1.47.66.16.71-.74,1-1.19.87-1.21.37-4,2.62-3.48s.78,2.92,1,4.44c.16,1.16.65,3.54-.51,3.44-1.72-.14-.43-2.34-.79-3.59a5.53,5.53,0,0,1,0-1.47c-1.7.44-1.42,2.08-2.09,3.1-.44.67-.08,2.06-1.26,2s-.73-1.32-1.1-2a5.77,5.77,0,0,1-.35-1.46C340,12.24,339.79,11.61,340.94,11.62Z"/><path class="cls-1" d="M340.94,11.62l-.61,1.3a2.12,2.12,0,0,1-.67-1.73c-1.05-.53-.79.37-.85.82-.19,1.48.34,3-.32,4.45l-.59,0a20.42,20.42,0,0,1,0-7.79C340.46,8,340.21,10.33,340.94,11.62Z"/><path class="cls-1" d="M337.89,8.63c0,2.6,0,5.2,0,7.79A13,13,0,0,1,337.89,8.63Z"/><path class="cls-1" d="M338.49,16.46c0-1.8,0-3.59,0-5.39,0-.4.05-.9.55-.78.26.06.41.59.61.9C338,12.67,340.09,15,338.49,16.46Z"/><path class="cls-1" d="M201.73,25.93a4.52,4.52,0,1,1-4.47,4.55A4.55,4.55,0,0,1,201.73,25.93Z"/><path class="cls-1" d="M267.28,63.91c-7-8.68-14-17.32-20.9-26-5.35-6.74-6.15-5.73.28-12.78,3.64-4,7.19-8,10.89-12.21-5.32-1.12-9.3.19-12.27,4.41a32.58,32.58,0,0,1-4.1,4.61c-1.6,1.55-2.53,3.8-4.81,4.64-2.73-5.37-6.71-9.72-11.12-13.73a26.13,26.13,0,0,0-7.38,0c5,5.55,9.74,10.82,14.46,16.13.64.71,1,.16,1.55-.08l.81.06h0c-5,5.66-10,11.3-14.93,17-.7.8-1.87,1.35-1.75,2.7,6.34,1.24,10.41-2.07,13.77-6.86A26.89,26.89,0,0,1,234,39.24c3-3.34,4.4-3.36,7.45,0,7.16,8,14.29,16,21.46,23.95,1.48,1.64,3,3.42,5.89,2.8C268.22,65.2,267.78,64.53,267.28,63.91Z"/><path class="cls-1" d="M119.4,19.62c0-4.27-2.59-7.07-6.83-7.2-5.56-.17-11.14-.17-16.7,0-4.28.13-6.75,2.88-6.82,7.19-.06,3.6,0,7.21,0,10.82s-.05,7.22,0,10.83c.08,4.34,2.48,7,6.8,7.18,5.56.18,11.14.18,16.7,0,4.3-.14,6.81-2.87,6.85-7.17Q119.51,30.46,119.4,19.62Zm-10.55,22.1c-3.08.12-6.17.11-9.25,0-2.59-.09-3.84-1.51-3.81-4.18.07-4.72.06-9.45,0-14.17,0-2.84,1.35-4.19,4.09-4.23s5.75-.05,8.63,0c2.72,0,4.18,1.36,4.13,4.2-.05,2.37,0,4.73,0,7.09s0,4.73,0,7.09C112.72,40.18,111.43,41.63,108.85,41.72Z"/></g></g></svg>