<svg xmlns="http://www.w3.org/2000/svg" viewBox="0 0 400 400"><defs><style>.cls-1{fill:#fff;}.cls-2{fill:none;}</style></defs><title>Asset 112</title><g id="Layer_2" data-name="Layer 2"><g id="Layer_1-2" data-name="Layer 1"><path class="cls-1" d="M207.44,197.93c2.86,0,5.26.11,7.65,0a5.38,5.38,0,0,0,5.37-5.61c-.06-3.19-1.62-4.39-5.63-4.34-1,0-1.93,0-2.89.06-8.76.19-9.85-.75-11.47-9.35-.3-1.57.24-1.87,1.6-1.86,6.14.05,12.27,0,18.4.1a10,10,0,0,1,5.6,2.27c8.55,6.19,8.12,21.44-.88,26.95-1.64,1-1.87,1.68-1.07,3.32,1.68,3.45,3.11,7,4.73,10.51.8,1.71.49,2.49-1.48,2.33H227c-4-.06-8.67,1.17-11.67-.55s-2.68-6.87-3.89-10.49C210,207.05,208.88,202.77,207.44,197.93Z"/><path class="cls-1" d="M145.5,214.18c2.82-6.18,5.3-11.51,7.68-16.88.95-2.14,1.75-4.23,4.66-4.26,3.12,0,3.92,2.23,4.89,4.48,2.26,5.28,4.58,10.55,7.24,16.68,2.71-6.47,5.11-12.28,7.57-18.06.49-1.15.69-2.68,2.54-2.54,1.66.12,3.92-.43,4.83.44,1.05,1-.62,2.81-1.22,4.19-3,7.06-6.2,14.06-9.26,21.11-.85,2-1.82,3.71-4.3,3.73s-3.59-1.54-4.48-3.54c-2.46-5.56-5-11.09-7.83-17.41-2.64,5.51-4.94,10.33-7.26,15.14a26.11,26.11,0,0,1-1.95,3.84c-2,2.9-5.89,2.8-7.3-.39-3.7-8.35-7.11-16.82-10.66-25.23-.64-1.5-.07-1.78,1.36-1.91,3.38-.28,5.77.17,7,4.15C140.6,203.06,143.07,208.16,145.5,214.18Z"/><path class="cls-1" d="M198.58,222c-2.76,0-5.53-.07-8.29,0-1.82.06-2.19-.71-2-2.4,1.33-13.26,2.56-26.53,3.91-39.78.1-1.07-.65-2.9,1.58-3,1.94,0,1.84,1.61,2.26,2.74,3.5,9.58,6.93,19.19,6.57,29.64,0,.88-.25,2.06,1.14,2.27,1.12.18,2.52-.32,3,1.32.76,2.77,1.66,5.51,2.15,8.33.2,1.13-1.24.79-2,.81C204.11,222,201.34,222,198.58,222Z"/><path class="cls-1" d="M289.93,192.76c4.09,0,8.18.12,12.26,0,2.26-.09,3.17.47,3.11,2.95-.05,2.23-.75,2.87-2.92,2.83-2.85-.05-6.59-1.28-8.35.47-1.93,1.92-.52,5.71-.62,8.67-.12,3.84-.18,7.7,0,11.54.15,2.69-1.43,2.51-3.19,2.47s-3.62.49-3.52-2.52c.18-5.88,0-11.78.1-17.67.05-2.33-.59-3.31-3-3.06-1.9.2-3.86-.09-5.77.07-2.35.21-3.36-.36-3.4-3.06,0-2.91,1.53-2.67,3.4-2.66C282,192.79,286,192.76,289.93,192.76Z"/><path class="cls-1" d="M74.86,222.4c-3.12,0-6.25.18-9.35-.05-5.39-.38-7.83-2.84-8-8.25-.2-6.11,0-12.24-.12-18.35-.06-2.62,1.62-2.19,3.11-2.12s3.52-.81,3.45,2.13c-.12,5.27-.06,10.55,0,15.83,0,4.15,1,5.13,5,5.17,4.91,0,9.84.12,14.75,0,2.3-.08,2.5,1,2.46,2.85,0,1.66.08,3.07-2.35,2.93-3-.18-6,0-9,0Z"/><path class="cls-1" d="M342.44,200.71c-.26-5.14-2.84-7.55-8-7.8-2.75-.13-5.52,0-8.28,0h0c-2.89,0-5.78-.14-8.65,0-4.79.3-7,2.32-7.57,7A64.46,64.46,0,0,0,310,215a6.39,6.39,0,0,0,6.05,6.09,83.29,83.29,0,0,0,19.39.09c4.83-.53,6.81-2.73,7-7.55C342.65,209.36,342.66,205,342.44,200.71Zm-11,15.25c-1.92-.09-3.84,0-5.77,0-8.87-.17-9.82,1.91-9.63-9.57,0-.72,0-1.44,0-2.16.11-5.14.71-5.74,5.9-5.77,3.36,0,6.72.05,10.08,0,2.71,0,4,1.39,4,4,.05,3,0,6,0,9C336.09,214.62,334.63,216.12,331.43,216Z"/><path class="cls-1" d="M260.32,194.49a5.13,5.13,0,0,0-8.8-.21c-5.79,8.8-11.29,17.78-17,26.87,5,1.49,8.47.43,10.23-4.3.59-1.58,1.89-1.89,3.49-1.86,4.8.08,9.61.14,14.41,0a4.55,4.55,0,0,1,4.59,2.55c2.83,4.72,3.8,5,9.76,3.5C271.41,212.12,266,203.22,260.32,194.49ZM251.16,210c-2.2,0-1.7-1-1-2.17l5.54-9L262.57,210C258.27,210,254.71,210,251.16,210Z"/><path class="cls-1" d="M115.23,194.9c-2-3.06-6.69-2.5-8.84.85-5.44,8.5-10.72,17.1-16,25.68-.14.22,0,.61,0,.8,4.58,1.05,8.12.12,9.84-4.63.52-1.46,1.69-1.76,3.16-1.74,5,.08,10.1.11,15.15,0,1.79,0,3.11.43,3.72,2.11,1.78,4.92,5.51,5.13,10.25,4.11C126.65,212.87,121.11,203.77,115.23,194.9Zm-10.9,15.9,6.72-11.09c2.31,3.79,4.35,7.15,6.76,11.09Z"/><rect class="cls-2" width="400" height="400"/></g></g></svg>