<svg xmlns="http://www.w3.org/2000/svg" viewBox="0 0 400 400"><defs><style>.cls-1{fill:#fff;}.cls-2{fill:none;}</style></defs><title>Asset 111</title><g id="Layer_2" data-name="Layer 2"><g id="Layer_1-2" data-name="Layer 1"><path class="cls-1" d="M221.3,235a.58.58,0,0,0,0-.32,2.53,2.53,0,0,1,3.36,0c0,.11,0,.21,0,.31Z"/><path class="cls-1" d="M277.13,235c0-.1,0-.2,0-.31a2.53,2.53,0,0,1,3.36,0,.5.5,0,0,0,0,.32Z"/><path class="cls-1" d="M66.93,220.35c2.86-10.33,5.69-20.19,8.25-30.12.56-2.16,1.82-1.71,3.21-1.89,1.57-.21,2,.48,2.43,1.88,2.69,9.88,5.47,19.73,8.38,30.15,1-3.58,1.8-6.63,2.59-9.7q2.52-9.72,5-19.45c.8-3.09.8-3.09,4.31-2.7q-2.62,9.6-5.24,19.16c-1.46,5.33-3,10.65-4.37,16-.31,1.21-.86,1.57-2,1.44s-2.15.34-2.63-1.4c-2.67-9.83-5.49-19.63-8.27-29.44-.15-.53-.32-1.05-.58-1.91-1.59,5.62-3.09,10.92-4.57,16.22-1.41,5-2.91,10-4.16,15.09-.43,1.75-1.51,1.35-2.61,1.44s-1.82-.13-2.19-1.48q-4.54-16.9-9.31-33.76c-.36-1.29-.15-1.47,1.14-1.56,1.79-.13,2.51.46,2.94,2.23,2.31,9.36,4.76,18.69,7.17,28C66.52,219.05,66.68,219.52,66.93,220.35Z"/><path class="cls-1" d="M190,201.41c3.32-4.57,8.88-4.71,12.65-3.31,3.55,1.31,4.79,4.34,4.91,7.76.2,6,.11,11.94.16,17.91,0,.69-.18,1.06-.92,1h-.37c-2,0-4.54.67-5.73-.31s-.33-3.69-.37-5.64c-.06-3.08,0-6.16,0-9.24a13.24,13.24,0,0,0-.25-2.74c-.52-2.41-1.67-3.44-3.81-3.57-2.8-.19-4.67.86-5.48,3.09a11,11,0,0,0-.56,3.82c0,4.31-.07,8.62,0,12.93,0,1.44-.41,1.8-1.76,1.69a34.46,34.46,0,0,0-4.43,0c-.93,0-1.27-.18-1.26-1.2q.06-12.2,0-24.39c0-.88.24-1.21,1.13-1.13s1.6,0,2.4,0C189.59,198.05,189.59,198.05,190,201.41Z"/><path class="cls-1" d="M152.58,205.73c0-3.31,0-3.31,3.38-3.31,2.71,0,5.42-.07,8.12,0,1.38.05,2-.24,1.84-1.77-.08-.62-.34-1.48.44-1.83s1.11.39,1.59.74c2.27,1.69,4.53,3.37,6.78,5.09,1.41,1.07,1.39,1.55-.08,2.6q-3.45,2.46-6.94,4.86c-.42.3-.84.83-1.45.47s-.44-.89-.35-1.33c.43-2.05-.65-2.24-2.31-2.17-3,.11-6-.06-9,.07-1.57.07-2.3-.29-2-2A8.12,8.12,0,0,0,152.58,205.73Z"/><path class="cls-1" d="M170,192c-2.65,0-5.3,0-7.95,0-1.12,0-1.74.17-1.6,1.49s-.32,1.9-1.64,1q-2.7-1.94-5.45-3.8c-1.1-.74-1-1.38,0-2.11,1.88-1.38,3.76-2.78,5.61-4.21,1.11-.85,1.61-.49,1.47.75-.18,1.54.47,1.82,1.86,1.8,5.12-.08,10.23,0,15.35,0,2.18,0,3.29.91,3.27,2.61s-1.13,2.56-3.35,2.57C175.06,192,172.53,192,170,192Z"/><path class="cls-1" d="M169.92,224.24c-2.64,0-5.29.06-7.93,0-1.2,0-1.66.29-1.54,1.52.15,1.44-.36,1.84-1.64.91q-2.69-1.95-5.44-3.8c-1.1-.73-1-1.37,0-2.11q2.83-2.07,5.61-4.19c1.05-.81,1.66-.57,1.49.73-.21,1.72.63,1.84,2,1.82,5.11-.07,10.21,0,15.32,0,2,0,3.13.87,3.16,2.5s-1.16,2.66-3.26,2.68Z"/><path class="cls-1" d="M328.93,173a6.93,6.93,0,0,1,6.51,9.29,12.22,12.22,0,0,1-3.78,5.34c-.64.56-.92.46-1.36-.23-2.35-3.67-4.74-7.3-7.12-10.94-.31-.47-.62-.87.11-1.31A13,13,0,0,1,328.93,173Z"/><path class="cls-1" d="M233.31,198.05c-3.32,0-3.32,0-4,3A9.17,9.17,0,0,0,225.5,198a10.82,10.82,0,0,0-13.44,5,17.1,17.1,0,0,0-.88,13.62c2.45,7.75,10.68,8.48,15.35,6.17,1.14-.56,1.87-1.64,3-2.36a19.3,19.3,0,0,1-.11,4.77,5,5,0,0,1-4.33,4.42c-2.27.34-4.7.24-5.9-2a2.68,2.68,0,0,0-3-1.55c-.67.05-1.35,0-2,0-1,.06-2.47-.45-2.79.21-.51,1.07.21,2.38.86,3.44a8.77,8.77,0,0,0,3.15,3.05,14.72,14.72,0,0,0,5.94,1.84h3.36c.37,0,.74,0,1.11-.08,5.67-.65,10.75-3.83,10.79-10.86q.06-11.18.1-22.36C236.66,198.05,236.65,198.05,233.31,198.05ZM225.66,218c-3.09,1.32-6.2-.15-7.4-3.45a11.5,11.5,0,0,1-.16-7.42,5.68,5.68,0,0,1,11,.12,19.59,19.59,0,0,1,.55,3.78C229.43,214.12,228.6,216.7,225.66,218Z"/><path class="cls-1" d="M288.13,198.05c-2.85,0-2.85,0-2.95,2.79,0,.08-.14.14-.28.27a8.07,8.07,0,0,0-4.28-3.29,10.79,10.79,0,0,0-13.11,5.47,17.23,17.23,0,0,0-.73,13.45c1.46,4.59,5.18,7.12,10,7.21a9.9,9.9,0,0,0,8.4-3.85c0,2.16.17,3.94-.32,5.67a4.92,4.92,0,0,1-4.36,3.92c-2.21.26-4.6.19-5.73-2-.83-1.57-1.81-1.64-3.16-1.58-.62,0-1.24-.05-1.85,0-1,.1-2.49-.52-2.9.31-.52,1.05.29,2.36.93,3.42a8.75,8.75,0,0,0,3.49,3.2,15,15,0,0,0,5.82,1.62h3.36c8-.67,11.75-4.7,11.75-12.83V202.11C292.23,198.05,292.23,198.05,288.13,198.05Zm-7.58,20.11a5.18,5.18,0,0,1-6.25-2.63,10.67,10.67,0,0,1-.28-9.26,5.19,5.19,0,0,1,5.25-3.34,5.41,5.41,0,0,1,5.13,3.56,14.25,14.25,0,0,1,.81,4.25C285.18,214.67,283.41,217.39,280.55,218.16Z"/><path class="cls-1" d="M336,196.25a12.84,12.84,0,0,1-4.05-4.15c-5.26-8.23-10.43-16.54-16.3-24.35-2.77-3.69-7.42-3.69-10.18-.05a2.64,2.64,0,0,1-2.12,1.15c-2,.17-4,.44-6,.73a2,2,0,0,0-1.95,1.38c2.06.43,4.06,1,6.1,1.25,1.8.26,2.91.81,2.82,2.95a14.91,14.91,0,0,0,.68,3.79c2.9,12.82,10.51,19.26,23.46,19.82a3.61,3.61,0,0,1,2.17.84c2.23,1.74,4.48,3.46,6.73,5.17.46.34.8.87,1.6.45,1.93-1,3.94-1.89,6.12-2.93C341.87,200.19,339,198.13,336,196.25Zm-24.38-26.12a1.06,1.06,0,0,1-1.19.91,1.07,1.07,0,0,1-1.13-1.17,1.09,1.09,0,0,1,1.29-1.19C311.21,168.73,311.62,169.19,311.57,170.13Zm15,19.87a13.53,13.53,0,0,1-5,1.08,7.41,7.41,0,0,1-7-4.6c-1.16-2.89.05-5.13,2-7.14,2.93-3,2.93-3,5,.48,1.78,2.87,3.55,5.75,5.37,8.6C327.56,189.25,327.53,189.63,326.53,190Z"/><path class="cls-1" d="M263.14,216.38c0-3.81.05-7.63,0-11.44-.06-3.37-1.48-5.43-4.69-6.53a20.48,20.48,0,0,0-13.56,0,8.29,8.29,0,0,0-5.76,6.41c-.2,1-.19,1.64,1.17,1.55,1.66-.12,3.32,0,5,0,.45,0,.88.08,1.17-.57,1.42-3.19,3.76-4.23,7-3.2a3.08,3.08,0,0,1,2.29,3.18c0,1.58-1,2.18-2.18,2.56a14.5,14.5,0,0,1-2.53.49,41.85,41.85,0,0,0-7.61,1.35c-3.66,1.21-5.54,3.9-5.31,7.64.25,4,2.27,6.46,6.09,7.25a13.68,13.68,0,0,0,11.64-2.47c.79.54-.07,2.15,1.48,2.14h6.58A26.53,26.53,0,0,1,263.14,216.38Zm-7.54-.07c-.68,3.62-5.82,5.58-8.83,3.41a3.42,3.42,0,0,1,.45-5.59,8,8,0,0,1,3-.91,22.65,22.65,0,0,0,5.45-1.18A13,13,0,0,1,255.6,216.31Z"/><path class="cls-1" d="M303.21,213.19c2.77.06,5.55,0,8.32,0h6.84c2.91,0,2.91,0,2.7-2.86a1.08,1.08,0,0,0,0-.18c-.93-10.74-11.05-16.26-20-10.93-5,3-7.32,8.89-6.13,15.63,1,5.79,5.22,9.67,11.33,10.46s11.27-1.75,13.62-6.87c.91-2,.91-2-1.18-2-.8,0-1.61.06-2.4,0a3.27,3.27,0,0,0-3.1,1.34c-1.85,2.19-4.41,2.47-7.1,1.74s-3.55-2.58-4-5C301.86,213.44,302.13,213.16,303.21,213.19Zm4.46-10.27c3.26-.16,5,1.43,5.92,5.47H302.08C302.49,205,304.44,203.07,307.67,202.92Z"/><path class="cls-1" d="M148.39,205.74a11.12,11.12,0,0,0-11.85-8,9.93,9.93,0,0,0-8.43,5.5c0-4.81-.08-9.18,0-13.55,0-1.53-.76-1.35-1.69-1.32s-1.74-.31-1.73,1.28c.08,11.4.06,22.8,0,34.19,0,1.11.36,1.41,1.36,1.27.82-.11,2,.42,1.83-1.21-.09-.94,0-1.9,0-3.38,3.1,4.81,7.25,5.88,12,5s7.54-4.16,8.74-8.71A19.58,19.58,0,0,0,148.39,205.74Zm-3.31,11.43c-1.31,3.72-4.07,5.82-7.64,5.87a8.31,8.31,0,0,1-8.26-5.61,15.21,15.21,0,0,1,.08-11.52,8.2,8.2,0,0,1,8.06-5.34c3.55,0,6.08,1.82,7.58,5.4a14.33,14.33,0,0,1,1,5.91A13.67,13.67,0,0,1,145.08,217.17Z"/><path class="cls-1" d="M118.34,218.42c-1,3-3.49,4.45-6.72,4.6-5,.22-8.26-2.85-9.23-8.56-.22-1.27,0-1.74,1.39-1.71,4.74.08,9.48,0,14.22,0,5.22,0,5.22,0,4.2-5.19-1.18-6-5.19-9.67-10.72-9.86-6-.22-10.29,3.1-11.89,9.15a21,21,0,0,0-.31,8.78c1,6,5.13,10,10.65,10.12,7.24.19,11.1-2.69,12.5-9.43C120.46,216,119.13,216.06,118.34,218.42ZM104,204.6a7.71,7.71,0,0,1,7.36-4c3.13.17,5.22,1.89,6.68,4.54a8.45,8.45,0,0,1,.58,1.35c1.16,3.25,1,3.41-2.38,3.41h-14A13.67,13.67,0,0,1,104,204.6Z"/><rect class="cls-2" width="400" height="400"/></g></g></svg>