<svg xmlns="http://www.w3.org/2000/svg" viewBox="0 0 3167.37 860.6"><defs><style>.cls-1{fill:#fff;}.cls-2{fill:#fffac1;}.cls-3{fill:#fad0ba;}.cls-4{fill:#fad2be;}.cls-5{fill:#cacbca;}.cls-6{fill:#fdf12f;}.cls-7{fill:#f6f05a;}.cls-8{fill:#eded79;}.cls-9{fill:#d5e5a6;}.cls-10{fill:#fff22b;}.cls-11{fill:#92cac8;}.cls-12{fill:#f1802a;}.cls-13{fill:#c68b5f;}.cls-14{fill:#b07db2;}.cls-15{fill:#d5e35d;}.cls-16{fill:#a3c6a3;}.cls-17{fill:none;}</style></defs><title>Asset 138</title><g id="Layer_2" data-name="Layer 2"><g id="Layer_1-2" data-name="Layer 1"><path class="cls-1" d="M131.49,608.75a.58.58,0,0,1,.28-.12c.09-.07.22,0,.3-.08h.81c.05.07.15,0,.2.09a2.3,2.3,0,0,1,1,.57l0,0,0,0a1.33,1.33,0,0,1,0,.74c-.51,2.61-1.05,5.22-1.67,7.81-1.26,5.25-2.68,10.47-4.38,15.6-.06.2-.07.45-.35.5,0-1.41,0-2.81,0-4.22,0-3.36.09-6.73.13-10.09,0-1,0-1.94,0-2.91,0-.16,0-.33,0-.5a4,4,0,0,1,.3-.74c1-2.1,2.13-4.15,3.09-6.27A.93.93,0,0,1,131.49,608.75Z"/><path class="cls-2" d="M128,712.66v-.1a3,3,0,0,1,2.11,0v.1Z"/><path class="cls-3" d="M132.07,608.55a.27.27,0,0,1-.3.08v-.08Z"/><path class="cls-4" d="M133.08,608.64c-.08,0-.17,0-.2-.09h.2Z"/><path class="cls-1" d="M106.81,680.57c-.39-1.08-.69-2.2-1-3.29-.77-2.48-1.53-4.95-2.37-7.4a2.09,2.09,0,0,1-.08-.34c0-.18.2-.26.35-.35a96.83,96.83,0,0,0,9.8-7.05c.83-.68,1.61-1.42,2.49-2l.12-.08.11-.08a6.11,6.11,0,0,0,.75-.5q3.54-2.51,6.88-5.31c.59-.49,1.15-1,1.75-1.5.13-.1.23-.25.43-.24a1.21,1.21,0,0,0,1.38-1c0-.15.1-.28.15-.42a.08.08,0,0,1,0-.1h0c.61-.66,1.26-1.29,1.9-1.92a96.7,96.7,0,0,0,6.69-7.33c.12-.13.19-.32.43-.3a15,15,0,0,1,0,2.51s0,.07,0,.1c0,.92-.12,1.83-.12,2.75a10.35,10.35,0,0,0,.91,4.53.63.63,0,0,1-.2.45,26.08,26.08,0,0,1-6.19,6.64,2.12,2.12,0,0,1-.37.24c.07,0,.12,0,.18,0a14.36,14.36,0,0,0,5.22-1.88,12,12,0,0,0,3.4-3.23c.14-.18.22-.42.47-.5a3.17,3.17,0,0,0,2.31-1.35,9.18,9.18,0,0,0,1.41-2.92,59.21,59.21,0,0,0,1.73-7.68c.3-1.79.55-3.6.8-5.4.37-2.59.7-5.2,1.19-7.77a48.9,48.9,0,0,1,1.11-4.79,2.28,2.28,0,0,0,.15-.36,3.28,3.28,0,0,1,.2-.52c.86-1.91,1.75-3.81,2.6-5.73a3.87,3.87,0,0,1,.27-.43,4,4,0,0,1,1.19-1c.2.17.14.4.15.61,0,1.85-.09,3.68-.18,5.52A112.37,112.37,0,0,1,151.11,635a116.7,116.7,0,0,1-3.17,13.29,104,104,0,0,1-4.16,11.47,97.31,97.31,0,0,1-7.73,14.54,93.44,93.44,0,0,1-6.55,8.9c-.27.32-.54.64-.82,1-.11.11-.24.19-.29.36a26.44,26.44,0,0,1-3.71,1.23,40.64,40.64,0,0,1-7.35,1.34,33,33,0,0,1-7.3-.17.94.94,0,0,1-.43-.13c-.22-.31.09-.34.24-.4.67-.28,1.33-.55,2-.84a31.09,31.09,0,0,0,5.32-3.11,40.86,40.86,0,0,0,6.51-5.81,60.68,60.68,0,0,0,7.94-10.9c.67-1.14,1.21-2.35,1.88-3.48l0,0s0,0,0,0a8.17,8.17,0,0,1-1,1.24,66.64,66.64,0,0,1-12.66,10.8,59.26,59.26,0,0,1-12.5,6.28C107.14,680.55,107,680.67,106.81,680.57Z"/><path class="cls-1" d="M123.54,711.46a10.37,10.37,0,0,1-2.39-1.22,6.11,6.11,0,0,1-1.19-.9c0-.24.26-.29.43-.37a72.18,72.18,0,0,0,10.92-6.76q2.5-1.87,4.84-4c.86-.77,1.7-1.57,2.51-2.38,1.21-1.2,2.38-2.45,3.48-3.75a73.49,73.49,0,0,0,5.32-7.11c.3-.47.59-.94.88-1.41l.07-.12.12-.18a4.83,4.83,0,0,1,.51-.68,80,80,0,0,0,6.22-7.05c.1-.13.18-.29.37-.31a10.44,10.44,0,0,0,2.08.3,11.11,11.11,0,0,0,4.46-1.07,28.29,28.29,0,0,0,6.16-3.85c1.13-.9,2.21-1.85,3.35-2.73a25.37,25.37,0,0,1,5.11-3l.34-.11c.15.19,0,.35,0,.51a74.68,74.68,0,0,1-6.53,13,72.67,72.67,0,0,1-6.41,8.62,74.24,74.24,0,0,1-5.47,5.61,76.66,76.66,0,0,1-10.52,8.13c-2.13,1.38-4.32,2.63-6.57,3.8a91,91,0,0,1-10.7,4.73c-2.24.82-4.5,1.56-6.79,2.2A2,2,0,0,1,123.54,711.46Z"/><path class="cls-1" d="M172.05,633.58c.22-.11.27-.3.37-.45a10.61,10.61,0,0,1,4.34-3.93,10,10,0,0,1,3.77-1,12.72,12.72,0,0,1,3.84.31,7.59,7.59,0,0,1,5.42,4.66,14.28,14.28,0,0,1,1,4.48c.11,1.13.09,2.27.09,3.41q0,7.89,0,15.79c0,.68.07.62-.62.62h-5.58c-.19,0-.27-.08-.27-.27v-.4c0-5,0-10,0-14.94a16,16,0,0,0-.46-4.18,6.72,6.72,0,0,0-1.51-2.91,4.6,4.6,0,0,0-3.08-1.42,6,6,0,0,0-5.55,2.59,9.21,9.21,0,0,0-1.75,4.59,20.41,20.41,0,0,0-.08,2.21v14.13c0,.66.05.6-.59.6h-5.64c-.25,0-.32-.11-.3-.33V615.8c0-.68-.12-.68.67-.68h5.58c.18,0,.28.08.28.27s0,.3,0,.45V633A1.74,1.74,0,0,0,172.05,633.58Z"/><path class="cls-1" d="M309.34,629c-.34.48-.75.91-1.14,1.36l-6.4,7.49-3.9,4.54c-.3.35-.3.34,0,.69q3.77,4.34,7.52,8.66l4.65,5.35a1,1,0,0,1,.28.43.7.7,0,0,1-.38,0c-2.43,0-4.86,0-7.29,0a.81.81,0,0,1-.72-.34c-1.63-2-3.27-4-4.9-6.06l-5.69-7a.64.64,0,0,0-.32-.28,1.18,1.18,0,0,0,0,.53v12.57c0,.68.05.61-.63.61h-5.64c-.19,0-.27-.08-.27-.27s0-.23,0-.35q0-20.56,0-41.14c0-.61-.11-.65.61-.64h5.58c.23,0,.35.07.34.32s0,.3,0,.45v26c.18.09.23,0,.3-.13,1.61-2,3.22-4,4.84-6l5.25-6.55a.6.6,0,0,1,.54-.27h7.2A.19.19,0,0,1,309.34,629Z"/><path class="cls-1" d="M269.67,652.1c0,1.66,0,3.24,0,4.81,0,.25-.12.35-.32.44a9.06,9.06,0,0,1-2.56.68,16.46,16.46,0,0,1-3.06.1,10,10,0,0,1-3.37-.71,6.17,6.17,0,0,1-3.75-4.54,11.87,11.87,0,0,1-.3-2.79V634.61c0-.68.06-.62-.62-.62h-3.62c-.51,0-.51,0-.52-.53v-4c0-.62,0-.56.59-.56h3.67c.5,0,.5,0,.5-.49v-5.63c0-.5,0-.5.49-.63l5.4-1.54a1.67,1.67,0,0,1,.58-.12,1.3,1.3,0,0,1,.05.55v7.59c0,.2.08.28.27.27h6.33c.18,0,.24.09.24.25a2.09,2.09,0,0,0,0,.25v4.12c0,.49,0,.49-.51.49h-5.78c-.58,0-.55,0-.55.54v14a8,8,0,0,0,.28,2.18,2.88,2.88,0,0,0,2.32,2.18,5.32,5.32,0,0,0,3.34-.27C269.06,652.46,269.32,652.29,269.67,652.1Z"/><path class="cls-1" d="M155.92,615a3.38,3.38,0,0,1,1.8,1.59,6.09,6.09,0,0,1,.69,2.4,20.41,20.41,0,0,1,0,4.06,126.84,126.84,0,0,1-2.22,12.85c-.71,3.56-1.52,7.1-2.49,10.6a65.33,65.33,0,0,1-3.71,10.34,11.33,11.33,0,0,0-.82,6.77,26.21,26.21,0,0,0,1.79,6.32,1.05,1.05,0,0,1,.05.19.65.65,0,0,1-.24.37,102.82,102.82,0,0,1-8.83,6.87,69.67,69.67,0,0,1-9.21,5.32c-1,.48-2,.9-3,1.29-.17.07-.36.21-.55,0a3.75,3.75,0,0,1,1-1.24,72.79,72.79,0,0,0,7.1-9,86.35,86.35,0,0,0,6.15-10.78A113.11,113.11,0,0,0,148,651.81a142.51,142.51,0,0,0,5.72-21.5c.66-3.51,1.21-7,1.59-10.58.15-1.3.31-2.59.41-3.9A1.36,1.36,0,0,1,155.92,615Z"/><path class="cls-5" d="M129.17,684a12.68,12.68,0,0,0,1.68-.65,67,67,0,0,0,12.89-7.46c2.41-1.75,4.71-3.61,6.94-5.57l.28-.22a2.22,2.22,0,0,1,.28.58.84.84,0,0,1-.22.55,101.14,101.14,0,0,1-6.17,8.25,79.86,79.86,0,0,1-6.31,6.82,48.25,48.25,0,0,1-10.42,7.82,25.71,25.71,0,0,1-7.87,2.8,17.85,17.85,0,0,1-8.34-.56.33.33,0,0,1-.13-.07,1.88,1.88,0,0,1-.22-.45c-1-3-1.94-6-2.87-9a.74.74,0,0,1,0-.29.85.85,0,0,1,.88.1,2.76,2.76,0,0,0,1,.16c.55.05,1.1.12,1.65.15,1,.07,1.94.1,2.91.08,1.2,0,2.4-.14,3.59-.27a41.58,41.58,0,0,0,9-2.11l.84-.3a.44.44,0,0,1,.19-.19A.77.77,0,0,1,129.17,684Z"/><path class="cls-1" d="M111.78,696.29a.92.92,0,0,1,.59.06,16.8,16.8,0,0,0,5.5.69,21.17,21.17,0,0,0,7-1.54,34.75,34.75,0,0,0,7.77-4.37,63.1,63.1,0,0,0,9.1-8.26A98,98,0,0,0,151,671.1l.29-.42a19.21,19.21,0,0,0,1.28,2.14,6.66,6.66,0,0,0,3,2.33l.12.09c-.87,1.17-1.8,2.28-2.75,3.38-1.22,1.42-2.48,2.81-3.8,4.14a7.68,7.68,0,0,0-.5.63.38.38,0,0,0-.11.11h0a23,23,0,0,1-2.67,2.65c-1.42,1.35-2.91,2.62-4.43,3.87-2.1,1.74-4.28,3.39-6.51,5a114.17,114.17,0,0,1-10.35,6.48c-2.54,1.42-5.14,2.76-7.81,3.93-.17.07-.34.16-.52,0a22.7,22.7,0,0,1-2.4-3.87,40.27,40.27,0,0,1-2-5.08A.61.61,0,0,1,111.78,696.29Z"/><path class="cls-1" d="M184.49,672.74c-1,.64-2.05,1.26-3.07,1.91a145.06,145.06,0,0,0-12.4,8.82,42.8,42.8,0,0,0-5.75,5.75c-1.87,2.17-3.68,4.39-5.56,6.55a58.1,58.1,0,0,1-10.48,9.64,53.31,53.31,0,0,1-5.9,3.43c-.09,0-.19.07-.28.11a65.27,65.27,0,0,1-9.68,2,4.27,4.27,0,0,1-.8.1c-.15,0-.35,0-.39-.14s.16-.23.29-.29c.75-.33,1.51-.65,2.26-1q4.16-1.86,8.13-4.07,4.2-2.33,8.17-5.05a94.3,94.3,0,0,0,8.27-6.38c2.12-1.83,4.19-3.71,6.13-5.74a95.87,95.87,0,0,0,9.36-11.34A94.76,94.76,0,0,0,180.43,664a1,1,0,0,1,.23-.38,14.32,14.32,0,0,1,4.53-.59c.46,0,.56.24.55.63a48.62,48.62,0,0,1-.94,8.51A1,1,0,0,1,184.49,672.74Z"/><path class="cls-1" d="M272.38,643.2V629.48c0-.66,0-.6.59-.6h5.63c.17,0,.25.07.25.24s0,.23,0,.35v27.45c0,.66,0,.6-.59.6h-5.63c-.17,0-.25-.07-.25-.24V643.2Z"/><path class="cls-1" d="M127.46,647.37c-.08-1.35,0-2.7,0-4,.09-2.64.19-5.28.2-7.91a30.74,30.74,0,0,1,1.51-3.6c.93-2.16,1.78-4.34,2.58-6.54,1.27-3.5,2.33-7.06,3.25-10.66.14-.57.26-1.14.41-1.71,0-.16,0-.38.28-.42a18.47,18.47,0,0,1,.62,3.3,42.53,42.53,0,0,1,.26,4.66c0,1,0,2.07-.1,3.11,0,.6,0,1.2-.08,1.8a1.28,1.28,0,0,0,0,.55,14.2,14.2,0,0,1-.78,5.33,55.59,55.59,0,0,1-3.71,9.21,58.55,58.55,0,0,1-4,6.58C127.8,647.18,127.72,647.4,127.46,647.37Z"/><path class="cls-5" d="M129.17,684a1.15,1.15,0,0,1-.5.2c-.12,0-.14,0-.13-.12,1.88-2.23,3.69-4.51,5.37-6.9a95.36,95.36,0,0,0,8.35-14.42A109.49,109.49,0,0,0,149.73,641c.72-3.09,1.31-6.19,1.78-9.32.38-2.57.69-5.14.9-7.73.14-1.62.24-3.24.31-4.87.05-1.35.09-2.71.06-4.07a3,3,0,0,1,3.14,0c-.06.61-.1,1.22-.18,1.83-.06.38-.07.77-.12,1.15-.12,1.14-.26,2.28-.39,3.42s-.29,2.18-.44,3.26c-.18,1.36-.46,2.69-.67,4-.28,1.85-.67,3.67-1.05,5.5s-.86,3.8-1.34,5.69c-.62,2.48-1.32,4.93-2.08,7.37q-1.56,5-3.54,9.85-1,2.53-2.22,5c-.5,1.06-1,2.12-1.55,3.16-.76,1.45-1.54,2.88-2.37,4.3-1.07,1.81-2.21,3.59-3.4,5.32-1,1.46-2.06,2.87-3.18,4.25s-2.11,2.54-3.24,3.75A7.57,7.57,0,0,0,129.17,684Z"/><path class="cls-5" d="M180.66,663.58a.9.9,0,0,1-.17.52c-.58,1.17-1.14,2.35-1.75,3.5q-1.37,2.58-2.89,5c-.8,1.29-1.62,2.57-2.49,3.82-1.2,1.73-2.44,3.42-3.76,5.07-.86,1.08-1.73,2.16-2.64,3.2-.74.84-1.48,1.67-2.25,2.49-1,1-2,2.07-3,3s-2.21,2.09-3.35,3.09c-.81.72-1.64,1.43-2.47,2.13s-1.65,1.34-2.5,2c-2.18,1.68-4.43,3.26-6.75,4.76q-2.29,1.47-4.67,2.83c-1.28.73-2.58,1.41-3.88,2.1-2.3,1.21-4.65,2.29-7,3.31a4.3,4.3,0,0,0-.82.43,4,4,0,0,0,.6,0l2.91-.48c1.15-.18,2.29-.4,3.43-.65s2.44-.53,3.65-.85h.2a23,23,0,0,1-2.82,1.38,26.34,26.34,0,0,1-6.24,2c-.64.11-1.28.18-1.93.26H128c-.8-.13-1.61-.19-2.4-.4a9.58,9.58,0,0,1-2-.7l2.88-.88a91.89,91.89,0,0,0,12.88-5.08,82.19,82.19,0,0,0,14.18-8.72,72.85,72.85,0,0,0,10.79-10.2,71.54,71.54,0,0,0,10.39-16c.9-1.9,1.75-3.83,2.47-5.82A16.75,16.75,0,0,1,180.66,663.58Z"/><path class="cls-5" d="M127.46,647.37a5.2,5.2,0,0,0,.76-1c1.13-1.68,2.16-3.41,3.12-5.19a55.36,55.36,0,0,0,3.35-7.66c.56-1.59,1-3.22,1.44-4.84a11.68,11.68,0,0,0,.17-2.7c0-.19-.06-.4.08-.58,0,1.51,0,3,0,4.52,0,2.36.06,4.72.13,7.07,0,1.31,0,2.61.05,3.91,0,.17,0,.34,0,.5-.87,1-1.72,2-2.59,3-1.94,2.22-4,4.32-6.14,6.36-.09.07-.15.18-.29.17,0-.74,0-1.49,0-2.24A11,11,0,0,1,127.46,647.37Z"/><path class="cls-1" d="M279.56,619.16a3.73,3.73,0,0,1-3.3,3.68,4.26,4.26,0,0,1-3-.72,3.67,3.67,0,0,1-.33-5.55,4.09,4.09,0,0,1,6.09.61A3.16,3.16,0,0,1,279.56,619.16Z"/><path class="cls-5" d="M135.68,612.48a11.92,11.92,0,0,0-.44,1.63c-.31,1.15-.57,2.3-.89,3.44-.59,2.08-1.21,4.14-1.92,6.18-.81,2.3-1.66,4.59-2.6,6.84-.66,1.57-1.37,3.12-2.06,4.68a1.67,1.67,0,0,1-.12.16,12.33,12.33,0,0,1,0-1.49,1.8,1.8,0,0,0,.28-.74c1-3,1.85-5.94,2.67-8.94s1.56-6,2.23-9c.43-1.9.85-3.81,1.17-5.74a.89.89,0,0,1,.07-.19,4.09,4.09,0,0,1,1,1.47A7.62,7.62,0,0,1,135.68,612.48Z"/><path class="cls-5" d="M184.49,672.74a21.54,21.54,0,0,0,.49-2.39,28.6,28.6,0,0,0,.38-2.91,13,13,0,0,0,.13-1.65,20,20,0,0,1,.09-2.19c0-.45,0-.45-.39-.61a6.13,6.13,0,0,1,4.12,1.58,2.72,2.72,0,0,1,.68,3.21A6.85,6.85,0,0,1,188.4,670,17.36,17.36,0,0,1,184.49,672.74Z"/><path class="cls-5" d="M139.82,652.94a11.88,11.88,0,0,1-6.79,5.19,12.68,12.68,0,0,1-2.35.53c-.11,0-.27.14-.3-.1a26,26,0,0,0,6.52-6.75,2.84,2.84,0,0,1,.41-.57c.14.21.28.41.43.61A2.43,2.43,0,0,0,139.82,652.94Z"/><path class="cls-1" d="M301.61,615.89a1.06,1.06,0,0,0-.23.43l-1.26,3.18c-.08.2-.15.34-.42.33a.44.44,0,0,1-.47-.33c-.39-1-.8-2-1.2-3a1.56,1.56,0,0,0-.33-.56c0,.16,0,.32,0,.48,0,1,0,2,0,3a.42.42,0,0,1-.65.35.22.22,0,0,1-.1-.22v-4.52c0-.44,0-.44.45-.45.91,0,.72-.05,1,.67.4,1,.79,2,1.19,3l.13.28c.34-.82.65-1.59,1-2.35.17-.42.35-.84.5-1.26a.5.5,0,0,1,.56-.38c.9,0,.76-.08.76.73,0,1.36,0,2.71,0,4.07,0,.14.08.34-.12.39a.86.86,0,0,1-.63,0c-.14-.06-.08-.24-.08-.37v-3.22A.43.43,0,0,0,301.61,615.89Z"/><path class="cls-1" d="M294.15,617.55c0-.6,0-1.2,0-1.81,0-.35,0-.35-.37-.36h-.85c-.28,0-.27-.19-.27-.38s0-.39.27-.39h3.26c.13,0,.29,0,.33.15a.9.9,0,0,1,0,.54c0,.05-.11.07-.17.08h-.41c-.27,0-.62-.12-.81.08s-.06.55-.07.83v2.81a1.33,1.33,0,0,1,0,.2c0,.16.08.38-.08.47a1,1,0,0,1-.68,0c-.16,0-.12-.18-.12-.29C294.14,618.86,294.15,618.2,294.15,617.55Z"/><path class="cls-6" d="M151.41,616.42c-.8,2-1.68,3.9-2.65,5.81-.09,0-.15,0-.11-.13a16.88,16.88,0,0,1,2.65-5.8C151.4,616.28,151.44,616.31,151.41,616.42Z"/><path class="cls-7" d="M148.65,622.1l.11.13-.21.49s-.06,0-.09,0A1.32,1.32,0,0,1,148.65,622.1Z"/><path class="cls-8" d="M151.41,616.42l-.11-.12a.55.55,0,0,1,.29-.31A.75.75,0,0,1,151.41,616.42Z"/><path class="cls-9" d="M148.46,622.73h.09a.47.47,0,0,1-.18.31C148.37,622.93,148.35,622.81,148.46,622.73Z"/><path class="cls-10" d="M134.06,609.25s0,0,0,0h0Z"/><path class="cls-1" d="M120.22,630.19a11.31,11.31,0,0,1,.27,1.73,70.45,70.45,0,0,0,2.36,11.87c.05.16.08.33.12.49A5.57,5.57,0,0,1,122,646a91,91,0,0,1-6.43,9.14c-.17.21-.27.55-.64.56a16.22,16.22,0,0,0-.41-3.33c-.36-1.29-.69-2.59-1-3.89-.61-2.4-1.15-4.82-1.65-7.24a1,1,0,0,1,.39-.57,37.88,37.88,0,0,0,5.7-6.8,35.32,35.32,0,0,0,1.85-3.22C119.92,630.49,120,630.25,120.22,630.19Z"/><path class="cls-5" d="M109.52,686.61a5.27,5.27,0,0,1-.88-.1c-.3-.71-.47-1.46-.71-2.19-.35-1.14-.69-2.27-1-3.41,0-.11-.06-.23-.09-.34,1.3-.51,2.6-1,3.87-1.56a62.5,62.5,0,0,0,8.2-4.36,64.43,64.43,0,0,0,8.67-6.58,73.11,73.11,0,0,0,5.93-6c.1,0,.14,0,.11.11A61.87,61.87,0,0,1,126.07,674a49,49,0,0,1-4.95,5.33,35.86,35.86,0,0,1-8.66,6.05c-.89.43-1.8.81-2.73,1.15A.4.4,0,0,0,109.52,686.61Z"/><path class="cls-5" d="M116.19,705.43a5,5,0,0,0,1.34-.55c1.19-.54,2.36-1.1,3.52-1.7,1.7-.89,3.39-1.8,5.06-2.76q3.93-2.26,7.67-4.83c1.89-1.29,3.72-2.65,5.52-4.06,1.22-1,2.42-1.95,3.6-2.95q1.18-1,2.31-2.07l3.14-3s.09,0,.13-.07a.85.85,0,0,1-.21.45,67.51,67.51,0,0,1-9,11.4,69.5,69.5,0,0,1-16,12.22c-1.09.61-2.21,1.19-3.31,1.78a2.38,2.38,0,0,1-.67-.51A18.87,18.87,0,0,1,116.19,705.43Z"/><path class="cls-1" d="M102.7,667.75a2.57,2.57,0,0,1-.28-.69A104.16,104.16,0,0,0,97.25,655a1.57,1.57,0,0,1-.09-.23c.15-.37.51-.53.79-.75q2.79-2.21,5.39-4.63c.13-.12.23-.3.46-.25a18.23,18.23,0,0,1,.91,1.62,68.7,68.7,0,0,0,3.55,6.1c.4.6.73,1.24,1.09,1.86a7.15,7.15,0,0,0,1.49,1.88,3.57,3.57,0,0,1-.84,1.05,77.53,77.53,0,0,1-6.06,5.68,1.49,1.49,0,0,1-.29.2l-.26.11C103.17,667.67,103,667.82,102.7,667.75Z"/><path class="cls-5" d="M103.66,667.39l2.22-1.95.15-.13c1.3-1.25,2.63-2.47,3.88-3.78a9.55,9.55,0,0,1,.93-1,2.86,2.86,0,0,0,2.06.41,1.64,1.64,0,0,0,1.31-1,7.51,7.51,0,0,0,.57-2c.12-.75.13-1.5.19-2.25a15,15,0,0,0,1.14-1.39q2.33-3,4.38-6.11c.86-1.3,1.66-2.63,2.48-4a31.24,31.24,0,0,1,.94,4.29,12.64,12.64,0,0,0,.63,2.51c.11.24,0,.41-.15.59-.81,1-1.65,2-2.54,2.91s-1.59,1.77-2.46,2.58-1.53,1.39-2.24,2.15a6.35,6.35,0,0,0-1,.75h0a.46.46,0,0,0-.12.12c-1.55,1.18-3,2.5-4.56,3.7q-3.87,3-8,5.56a1.51,1.51,0,0,1-.17.1,9.42,9.42,0,0,1-.52-1.43.92.92,0,0,1,.57-.55A1.31,1.31,0,0,1,103.66,667.39Z"/><path class="cls-1" d="M114.65,615.89a4,4,0,0,1,1,.94,13.57,13.57,0,0,1,2.22,3.78,1.47,1.47,0,0,1-.05.69,57.5,57.5,0,0,1-4.24,10.87,33,33,0,0,1-2.3,3.77c-.1.14-.17.39-.44.26-.46-2.43-.9-4.87-1.29-7.31-.22-1.39-.42-2.78-.62-4.17a2.09,2.09,0,0,1,0-.25,1.31,1.31,0,0,1,.32-.56,64.39,64.39,0,0,0,5-7.64C114.38,616.12,114.41,615.91,114.65,615.89Z"/><path class="cls-5" d="M110.87,636.2c.17,0,.21-.14.29-.25a38.72,38.72,0,0,0,3.8-6.88,62.69,62.69,0,0,0,2.94-8.46,21.93,21.93,0,0,1,1.24,3.69,54.21,54.21,0,0,1,1,5.49,2.8,2.8,0,0,1,0,.4c-.52,1-1,2-1.59,2.9a38.72,38.72,0,0,1-5.45,6.92c-.42.43-.86.84-1.29,1.26Z"/><path class="cls-1" d="M91,644.66a9.33,9.33,0,0,1-1.39-4.93,3,3,0,0,1,.38-1.62,1.11,1.11,0,0,1,.53-.29,31.63,31.63,0,0,0,3.28-1.25,1,1,0,0,1,.54-.11,2.29,2.29,0,0,1,.86.38,9,9,0,0,1,2.53,2.35,53.06,53.06,0,0,1,3.09,4.76,1.46,1.46,0,0,1,.07.19.88.88,0,0,1-.59.34,17.85,17.85,0,0,1-6.3.66c-.77-.07-1.53-.11-2.29-.24A1.62,1.62,0,0,1,91,644.66Z"/><path class="cls-1" d="M95.91,652.41l-1.19-2c0-.06,0-.12,0-.19.06-.28.3-.43.49-.6,1.43-1.24,2.8-2.55,4.14-3.87.4-.39.72-.84,1.13-1.22.14-.13.26-.31.49-.3a12.36,12.36,0,0,1,1,1.67c.42.72.82,1.45,1.23,2.17,0,.18-.12.23-.23.3a73,73,0,0,1-6.8,4A.55.55,0,0,1,95.91,652.41Z"/><path class="cls-5" d="M114.65,615.89a66.09,66.09,0,0,1-4.45,7,16.89,16.89,0,0,1-1.23,1.59,16.09,16.09,0,0,1-.33-4.15,6.21,6.21,0,0,1,2.3-4.42,2.79,2.79,0,0,1,3.53-.18A1.45,1.45,0,0,1,114.65,615.89Z"/><path class="cls-5" d="M101,644.24l-1.53,1.58c-1.52,1.54-3.1,3-4.72,4.41-.17,0-.23-.18-.3-.31-.77-1.25-1.59-2.47-2.43-3.68a9.79,9.79,0,0,1-1-1.58c.45.06.89.14,1.34.19a20.86,20.86,0,0,0,4.4.13,18.31,18.31,0,0,0,4.15-.84Z"/><path class="cls-5" d="M95.91,652.41a21.11,21.11,0,0,1,1.91-1.07c1.84-1,3.65-2.09,5.4-3.26a4.81,4.81,0,0,1,.58,1l-1.37,1.24c-1.69,1.55-3.44,3-5.27,4.39C96.71,654,96.31,653.18,95.91,652.41Z"/><path class="cls-5" d="M117.09,659.25c.5-.56,1-1.08,1.59-1.59a15.1,15.1,0,0,0,1.86-1.89,3.85,3.85,0,0,1,.27-.3c1-1,1.93-2,2.83-3.11.23-.28.46-.56.71-.83a.6.6,0,0,0,.19-.45c.09.14.18.28.26.42a2.15,2.15,0,0,0,1.21.9,92.57,92.57,0,0,1-8,6.41,8.84,8.84,0,0,1-1.07.74C116.88,659.4,117,659.32,117.09,659.25Z"/><path class="cls-5" d="M131.49,608.75c-.14.34-.27.68-.44,1q-1.52,3.06-3.05,6.11a.83.83,0,0,1-.22.33,12.05,12.05,0,0,1,1.15-5.14,4.47,4.47,0,0,1,2.27-2.24A.73.73,0,0,1,131.49,608.75Z"/><path class="cls-5" d="M94.38,636.46A29.26,29.26,0,0,1,90,638.11a2.58,2.58,0,0,1,1.51-1.71A3.1,3.1,0,0,1,94.38,636.46Z"/><path class="cls-11" d="M103.41,667.6l-.6.51a.53.53,0,0,1-.11-.36l.7-.29A.09.09,0,0,1,103.41,667.6Z"/><path class="cls-10" d="M127.55,650.89a.11.11,0,0,1,0,.1.25.25,0,0,1,0-.07Z"/><path class="cls-12" d="M117.09,659.25l-.11.3a2.15,2.15,0,0,1-.79.51A2,2,0,0,1,117.09,659.25Z"/><path class="cls-13" d="M130.38,658.56c.07.11.2.06.3.1a.47.47,0,0,1-.33.09s-.15,0-.13-.09S130.33,658.6,130.38,658.56Z"/><path class="cls-14" d="M133.59,662.17l-.11-.11a.47.47,0,0,1,.26-.26A.39.39,0,0,1,133.59,662.17Z"/><path class="cls-15" d="M128.54,684.08l.13.12c0,.08-.14.09-.22.12C128.32,684.18,128.46,684.14,128.54,684.08Z"/><path class="cls-12" d="M116.07,660.18c0-.07.05-.11.12-.12S116.14,660.16,116.07,660.18Z"/><path class="cls-10" d="M148.47,683.5l.11-.11A.13.13,0,0,1,148.47,683.5Z"/><path class="cls-1" d="M250.47,638.39a14.58,14.58,0,0,0-2.27-5.75,9.81,9.81,0,0,0-5.75-4,13.13,13.13,0,0,0-4.28-.33,10.45,10.45,0,0,0-4.44,1.31,10.72,10.72,0,0,0-3.48,3.22c-.25.35-.48.71-.72,1.06l-.1,0v-4.42c0-.51,0-.51-.53-.51h-5.38c-.68,0-.61-.06-.61.63V670c0,.12,0,.24,0,.36s.12.35.36.34.24,0,.36,0h5.08c.83,0,.72,0,.72-.73V653.87a.76.76,0,0,1,.09-.54c.22.32.42.61.63.89a9.15,9.15,0,0,0,7,3.85,14.82,14.82,0,0,0,3-.14,10.74,10.74,0,0,0,3.65-1.2,12.23,12.23,0,0,0,5.28-5.88,18.44,18.44,0,0,0,1.59-6.86A23.88,23.88,0,0,0,250.47,638.39Zm-7.36,10a8.07,8.07,0,0,1-2.05,3,6.37,6.37,0,0,1-3.62,1.61,6.87,6.87,0,0,1-4.85-1.06,7,7,0,0,1-3.14-5.26,29.59,29.59,0,0,1,0-6.17,8.06,8.06,0,0,1,3.18-5.72,6.86,6.86,0,0,1,3.83-1.35,7.46,7.46,0,0,1,2.53.24,6.33,6.33,0,0,1,4,3.31,10.15,10.15,0,0,1,1,3.7,16.37,16.37,0,0,1,.09,1.85A15.17,15.17,0,0,1,243.11,648.36Z"/><path class="cls-1" d="M217.87,638.08a12.23,12.23,0,0,0-.79-4.22,7.91,7.91,0,0,0-4.41-4.64,14.17,14.17,0,0,0-5.89-1,23.26,23.26,0,0,0-3.11.24,19.57,19.57,0,0,0-6.73,2.23.65.65,0,0,0-.38.67c0,1.58,0,3.15,0,4.73a.62.62,0,0,0,.06.41.75.75,0,0,0,.32-.21,14.7,14.7,0,0,1,3.69-2.21,12.56,12.56,0,0,1,6.74-.87,4.51,4.51,0,0,1,3.44,2.28,7.66,7.66,0,0,1,.81,3.39c0,.27-.13.33-.36.36-2.87.4-5.74.79-8.6,1.21a13.24,13.24,0,0,0-4.61,1.51,7.8,7.8,0,0,0-3.94,5.09,11,11,0,0,0-.18,4.49,7.38,7.38,0,0,0,4.89,6,11.31,11.31,0,0,0,4.79.62,9,9,0,0,0,5-1.8,10.67,10.67,0,0,0,2.54-2.82c.09-.14.14-.34.35-.4a.88.88,0,0,1,.06.5v3.42c0,.47,0,.47.48.47h5.33c.46,0,.46,0,.46-.48V645C217.88,642.71,217.9,640.4,217.87,638.08Zm-6.69,10.6a6.5,6.5,0,0,1-5.27,4.48,5.56,5.56,0,0,1-4.16-.73,3.89,3.89,0,0,1-1.74-3.71,6,6,0,0,1,.17-1.19,3.34,3.34,0,0,1,1.67-2.16,9.87,9.87,0,0,1,3.29-1c2.06-.3,4.11-.57,6.16-.87.25,0,.34,0,.33.27,0,.45,0,.9,0,1.5A8.93,8.93,0,0,1,211.18,648.68Z"/><path class="cls-16" d="M103.41,667.6v-.14a.28.28,0,0,1,.26-.07A.64.64,0,0,1,103.41,667.6Z"/><rect class="cls-17" y="460.6" width="400" height="400"/><rect class="cls-17" x="2767.37" width="400" height="400"/></g></g></svg>