<svg xmlns="http://www.w3.org/2000/svg" viewBox="0 0 254.29 43.24"><defs><style>.cls-1{fill:#fff;}</style></defs><title>Asset 52</title><g id="Layer_2" data-name="Layer 2"><g id="Layer_1-2" data-name="Layer 1"><path class="cls-1" d="M3.22,14.5C6.13,10.68,7.45,6.13,9.1,1.73,9.84.46,11,.25,12.36.26c8.32.06,16.65,0,25,0,4.15,0,6,1.95,6.05,6.12.14,6.69-8.18,18.28-17.18,17.67-3.17-.22-6.38.09-9.58.16l-.24.15.15.25C12.7,23.51,8.82,24.2,5,24.24a6,6,0,0,0-3.32,0L0,23.57l0-.84a2.06,2.06,0,0,0,.94-1.87A5.52,5.52,0,0,0,2.3,17.63ZM15.77,15v0c-.54.75-1.77,1.53.09,2.18,3.24,0,6.55,1,9.67-.7,1,0,1.27-.78,1.6-1.49a1.94,1.94,0,0,0,1-1.52c.94-1.79,2.77-3.38,1.24-5.71a.34.34,0,0,0-.26-.41c-.46-1.11-1.37-1.13-2.36-1l-1.95,0c-5.68-.62-5.68-.62-7.71,4.6-.19.49-.32,1-.48,1.51l-.29,1.05A1.4,1.4,0,0,0,15.77,15Z"/><path class="cls-1" d="M74.3.1c2,.07,4,.12,6,.21,3.46.15,4.33,1.5,3.76,4.9-.36,2.18-1.64,3.88-2.3,5.87-1.6,1.37-3.08,3.13-5.24,3.39-3.42.41-2.74,1.86-1.53,4,1,1.71,2.36,3.29,2.43,5.42a35.14,35.14,0,0,1-3.84,0c-2.68-.28-5.56.93-8-1-.68-3.19-3.23-5.46-4.19-8.51-1.59-4.37-1.59-4.36,3.2-4.39a18.79,18.79,0,0,0,4.12-.25A2.55,2.55,0,0,0,70.87,7c-.19-1.49-1.61-1.12-2.59-1.15-2.34-.06-4.69,0-7,0-1.26,0-2.31.23-2.79,1.61-1,3-2.82,5.71-3.5,8.86l-.29.63a18.19,18.19,0,0,0-1.75,3.68c-.66,2.84-2.37,3.62-5.09,3.39a43.14,43.14,0,0,0-5.67.22l-1.27-.15-.57-.69Q45.14,11.93,50,.46L52.45.11Z"/><path class="cls-1" d="M82.17,15.3c1.73-3.62,3-7.41,6-10.38C90.57,2.54,93.25.57,96.43.47c9.18-.29,18.37-.1,27.64-.1a8.22,8.22,0,0,1-7.4,5.46c-3.85,0-7.71,0-11.56,0a13.13,13.13,0,0,0-2.88.18c-1.91.46-4.4,1.43-4.31,3.21.07,1.56,2.7.66,4.18.72,3.63.13,7.28,0,10.92.07.49,0,1.13-.18,1.42.43s-.14,1-.52,1.38c-1.86,1.77-3.62,3.44-6.63,3.13a84.81,84.81,0,0,0-10-.09c-.86,0-2.13-.4-2.31,1a2.29,2.29,0,0,0,1.65,2.48,9,9,0,0,0,2.83.37c4.61,0,9.21,0,13.82,0,1,0,2.15-.39,3.16.71-2.27,2.58-4.43,4.81-8.46,4.62-7.58-.36-15.19-.26-22.79-.35l-1.34-1L83.21,22a.34.34,0,0,0-.23-.42,2.14,2.14,0,0,0-.8-1.69Z"/><path class="cls-1" d="M222.19,24.22c-3.2-.06-6.39-.21-9.59-.15-2.32,0-3.17-.49-2-2.92,1.71-3.67,3.1-7.49,4.77-11.19.83-1.83.52-2.55-1.55-2.43-.69,0-1.69.33-2-.49-.39-1,.69-1.44,1.28-2C215.66,2.62,218-.42,222.19.13l5.15,0,.3.1.3-.11,1.29,0c3.63.39,3.61.38,2.21,3.85-1,2.55-2,5.12-3,7.67l0,0a1.52,1.52,0,0,0-.74,1.47l-.37,1.26-.46.66-1.89,5a3.53,3.53,0,0,0-1.16,2.55Z"/><path class="cls-1" d="M244.05,24.28,231.85,24h0c.67-4.39,3.19-8.08,4.67-12.16S238.14,7.8,234,7.34c-.14,0-.25-.28-.41-.47.46-1.68,2.79-2,3-3.9l.56-.56C239,1.66,240.45-.07,242.72.1h5.15c1.06.06,2.12.17,3.19.18,3.83.05,3.73,0,2.35,3.65-2.23,5.87-5.25,11.43-7,17.48a.46.46,0,0,0-.24.52,3.08,3.08,0,0,0-1.09,2Z"/><path class="cls-1" d="M8.75,42.55c-.39-1.3.12-2.78-.78-4C6.12,39.3,7,42.24,4.7,42.51c-.54-.89-.41-2.11-1.37-2.79-.37-.45-.18-1.4-1-1.38-.66,0-.66.68-.7,1.19-.08.94-.14,1.88-.21,2.81l-.26.25.18.13H1.27c.53-.62-.1-.62-.42-.78a12.92,12.92,0,0,1,0-6.62c.15-.57.11-1.47,1-1.34.4.06.85.65,1,1.1.6,1.54,1,4.09,2.33,4.08,1.61,0,1.84-2.53,2.28-4.11.5-1.77,1.5-1,2.47-.72l.1,1.94.08,1.29C9.18,39.1,10.89,41.36,8.75,42.55Z"/><path class="cls-1" d="M93.21,36.83c-.94.84-.64,1.8-.42,2.85s.79,2.29-.8,2.88c-.14-.39-.29-.77-.44-1.16a.89.89,0,0,0-.24-1.13c-.17-1.6-1.39-1.36-2.41-1.3s-1.32.88-1.34,1.82c0,.77,0,1.62-1.19,1.34-1-.23-1.07-1.06-.79-1.79a11,11,0,0,0,.65-3.06c.12-1.35-.94-3.47,1.84-3.51C90.43,33.73,93,33.29,93.21,36.83Z"/><path class="cls-1" d="M233,39.53c-.18,1-.37,2-.55,3-2.08-.05-2.12-2.12-3.15-3.2-.56-.58-.78-1.8-1.8-1.52s-.57,1.41-.69,2.19.16,1.45-1.13,2.35c0-2.74,0-5,0-7.29a1.41,1.41,0,0,1,.64-1c.59-.32.92.16,1.23.63,1,1.49,2,3,3.19,4.7,1.24-1.79.75-3.46.76-5.05l.23-.12,0-.26.73-.13A2.12,2.12,0,0,0,233,35.6,7.59,7.59,0,0,0,233,39.53Z"/><path class="cls-1" d="M245.83,41.38c-2.24,1.64-4.75,2-7,.53-1.91-1.26-1.73-3.48-1.2-5.53.6-2.3,2.6-2.56,4.45-3l1.25.33a1.14,1.14,0,0,0,1.11.74c.22.58.44,1.15.65,1.72a4,4,0,0,1-1.18-.45c-1.37-1.22-2.82-1.67-4.26-.27s-1.23,3.08-.68,4.79c.35,1.13,1.22,1.33,2.26,1.37a2.62,2.62,0,0,0,2.39-1.3c1-1.52-1.34-1.13-1.27-2.16a5.44,5.44,0,0,1,3,.07A4.2,4.2,0,0,1,245.83,41.38Z"/><path class="cls-1" d="M14.09,42.62c.31-3.26,1.81-5.41,2.6-7.78.39-1.18,1.56-1.48,2.24.1.92,2.14,1.79,4.31,2.75,6.44.22.46.34.73-.15,1s-.7.1-1.05-.24C17.36,39.15,17.1,39.16,14.09,42.62Z"/><path class="cls-1" d="M26.33,33.75c2,7,3.62-.81,5.52.58C32.11,35.85,29,36.08,30,38a50.58,50.58,0,0,0,2.73,4.26c-1.77.09-2-1.14-2.64-1.82s-.91-1.93-2.14-1.51c-.92.32-1,1.32-1,2.19,0,.42,0,.86-.46,1.08C25.63,40.24,25.54,37.78,26.33,33.75Z"/><path class="cls-1" d="M126.58,42.32c.76-2,1.49-4,2.29-6,.38-.92.38-2.38,1.78-2.31,1.15.06,1.16,1.36,1.54,2.21.76,1.74,1,3.7,2.27,5.24-.24.69-.79.78-1.41.75a2.17,2.17,0,0,0-2.38-2.31c-1.48,0-2.45.39-2.62,2Z"/><path class="cls-1" d="M186.69,42.32a.27.27,0,0,0-.32.22l-.42.3h-.06l-1.28-1c-1.5-4.5-2.78-.49-4.54.24,2.16-2.8,2.28-5.41-.21-8.19,2.07,1.79,3.8,3.79,6.07,0-2.46,3.26-1.73,5.82.6,8.17Z"/><path class="cls-1" d="M65.49,38.82c.25-1.23-.54-2.19-.89-3.25-.29-.88-.17-1.42.82-1.57.24.55.48,1.11.73,1.66a1.24,1.24,0,0,0,.6,1.3c-.28,1,.29,1.84.55,2.81,2.32-1.25,1.67-4.13,3.55-5.54-.62,3.28-.89,6.7-3.87,9l0-.08A9.6,9.6,0,0,0,65.49,38.82Z"/><path class="cls-1" d="M42.25,38.05c-1.37,1-4-.56-3.82,2.11s2.91.66,4.67,2.24c-2.25.17-4.68.93-5.5-.48-1.08-1.87-.81-4.46.11-6.72,1-2.54,3-.9,4.92-1.49-1.2,1.86-4.33-.24-4.23,2.54C38.5,38.79,41.17,36.8,42.25,38.05Z"/><path class="cls-1" d="M152,34.15c1.23-1.09,2.09.36,3.15.44.62,0,1.35.08,1.57-.72a.93.93,0,0,0-.34-.78,1.29,1.29,0,0,0-1.49,0c-1.13.62-1,1.82-1.18,2.81A2.06,2.06,0,0,0,154.79,38c.37.26.81.38,1.12,0a.9.9,0,0,0,.08-.81.74.74,0,0,0-1.31,0c-.68.89-1.49,1.84-.51,3,.89,1.84,3.05.85,4.28,1.92l-1.84.6c-1.42-.67-3.46.7-4.47-1.34a8.63,8.63,0,0,0,0-4.51c0-.43,0-.85,0-1.28l-.24-1.19.15-.11Z"/><path class="cls-1" d="M60,41.56c-2.61,2-5.11,1.41-5.9-1.44l0-1.26c.94-1.66-1-4.17,1.58-5.35a3,3,0,0,0,2.54,0c0,.48,1.7.12.63,1.06-.79.69-2.81-.8-2.83,1.51,0,2.49,2.41.84,3.28,1.82-.88,1.49-4.19-.45-3.66,2.35C56.11,42.65,58.56,41.09,60,41.56Z"/><path class="cls-1" d="M143.79,41.64a2.28,2.28,0,0,1-2.29-2.3c.79-.15,2.15,1.4,2.44-.64.11-.82.63-1.58.76-2.39.18-1.14.61-2.26,1.75-2.28,1.3,0,.56,1.61,1.22,2.26a8.65,8.65,0,0,0,0,4.49v.63c-.37.45-.76,1.24-1.23.15-.4-.92.19-2.06-.67-3.16C144.48,39.16,144.35,40.55,143.79,41.64Z"/><path class="cls-1" d="M98.51,34.21c.52,1.14.47,3.13,2.39,2.53,1-.32,1.27-2.08,3-3-1.17,3.12-3.47,5.2-3.51,8.36.58-3.5-3.4-5.2-2.91-8.54Z"/><path class="cls-1" d="M77.47,35.73c-.09,2.49,2.3,1.18,3.34,2.1-.44,1.17-1.42.69-2.13.77-1.07.11-1.9.4-1.79,1.7s1,1.14,1.89,1.18,1.66-.23,2.41.51c-4.75,1.67-5.64,1.06-5.64-3.67,0-1.39,0-2.77,0-4.16C77.16,33.49,76.84,35.2,77.47,35.73Z"/><path class="cls-1" d="M169.32,36.93c.73-3.54.82-3.58,6-2.43-3.65.32-5.45,1.87-4.65,5.56.6,2.83,3.21.59,4.54,2.21l-4.43.51C168.42,41.28,170.16,38.79,169.32,36.93Z"/><path class="cls-1" d="M219.8,34.33a9.94,9.94,0,0,1,0,7.7Z"/><path class="cls-1" d="M138.27,40.79c1-2.16-.45-4.79,1.26-6.86.31,2.34,2,4.4,1.14,6.86C139.87,41.46,139.06,43.49,138.27,40.79Z"/><path class="cls-1" d="M164.61.2a2.74,2.74,0,0,1-.3,2.14c-2.68,6.38-5.39,12.75-7.95,19.18-.74,1.89-1.79,2.8-3.81,2.53-.31,0-.64,0-1,0-2.33-.11-5.5,1.06-6.78-.47-1.46-1.76,1-4.22,1.76-6.36.66-1.83.11-2.32-1.62-2.26a21.52,21.52,0,0,1-3.85,0c-5.72-.87-10,.56-11.47,6.83-.42,1.78-1.8,2.44-3.68,2.33-2.13-.13-4.27-.05-6.41,0-1.74,0-2.42-.54-1.56-2.31,2.74-5.67,5.2-11.48,8.24-17A8.58,8.58,0,0,1,134.15.2c8.34.12,16.68.07,25,.07,1.06,0,2.12-.13,3.17-.19l.19-.08a2.23,2.23,0,0,0,1.82.15l.11.12ZM142.8,10V9.93c1.91,0,3.83,0,5.74,0,1.6,0,1.66-1.42,2.05-2.46.24-.67.14-1.41-.69-1.45-3.82-.18-7.66-.49-11.44.15a2.82,2.82,0,0,0-2.24,3.11c.25,1.34,1.79.61,2.75.69C140.24,10.08,141.52,10,142.8,10Z"/><path class="cls-1" d="M189.51,11.34c-2.88,2.34-5.8,4.62-8.61,7-1.53,1.31-2.48,1.46-3.15-.75A39.84,39.84,0,0,0,176,13.15c-.32-.73-.27-2-1.36-1.89s-1.06,1.24-1.38,2c-1.25,2.83-2.47,5.67-3.57,8.56a3.09,3.09,0,0,1-3.36,2.26c-11.22-.11-9.27,1.17-5.66-8.19,1.73-4.49,3.92-8.79,5.68-13.27.72-1.83,1.74-2.3,3.6-2.32,8.85-.12,9.22,0,11.6,8.63.6,2.15,1.27,1.67,2.55.65,3.32-2.65,6.74-5.17,10.07-7.82S201.54.58,205.26.46c1.15,0,.73,1.3.4,2.07-2.8,6.59-5.65,13.17-8.43,19.77a2.47,2.47,0,0,1-2.67,1.75c-2.14-.08-4.29-.1-6.42,0s-2.59-.81-1.78-2.68c1.33-3.11,2.6-6.24,3.9-9.36Z"/><path class="cls-1" d="M190.24,39.7c.16-1,.25-2.1.5-3.11a3.64,3.64,0,0,1,3.37-3c1.66-.16,3.16.14,4,2.6-2.23-1.29-4.32-2.79-5.88-.13a3.64,3.64,0,0,0,.49,4.72c2.09,1.94,3.55.09,5.21-1.1a3.08,3.08,0,0,1-2.52,2.92c-2.61.63-3.87-1.1-5.07-2.92Z"/><path class="cls-1" d="M121.84,35.94c-1.87-1.27-3.73-2.29-5.3.06a3.63,3.63,0,0,0,.5,5,2.51,2.51,0,0,0,3.5,0c1.4-1.15.16-1.89-.84-2.78,1.65-.41,2.8-.59,2.94,1.38.1,1.46.16,2.5-1.94,2.79s-3.89.51-5.2-1.25a5,5,0,0,1-.28-5.45c.82-1.68,2.29-2.13,4-2A2.42,2.42,0,0,1,121.84,35.94Z"/><path class="cls-1" d="M214.91,34.8c-1.86-.31-2.44.64-2.49,2.35s.35,3.16-.42,5.05c-1.95-2.54,1.3-6.86-3.24-8.13,2.16.15,4.35-1.32,6.13.75Z"/><path class="cls-1" d="M203.5,34.42a13,13,0,0,1,.07,7.58A12.12,12.12,0,0,1,203.5,34.42Z"/></g></g></svg>