<svg xmlns="http://www.w3.org/2000/svg" viewBox="0 0 400 400"><defs><style>.cls-1{fill:#fff;}.cls-2{fill:none;}</style></defs><title>Asset 107</title><g id="Layer_2" data-name="Layer 2"><g id="Layer_1-2" data-name="Layer 1"><path class="cls-1" d="M71.3,177.28l8.39,8.62,9.2,9.39a1.45,1.45,0,0,1,.59,1.08c0,5.06.12,10.12.18,15.18a1.6,1.6,0,0,1,0,.33c-.37-.1-.55-.4-.77-.62q-8.52-8.43-17-16.9c-.54-.54-.81-.56-1.36,0-2.34,2.32-4.74,4.59-7.1,6.91-.39.38-.59.42-1,0-2.31-2.36-4.63-4.7-7-7-.46-.45-.44-.69,0-1.14q7.55-7.51,15-15.07c.24-.23.45-.5.67-.75Z"/><path class="cls-1" d="M44.62,192.84v-4.26a.21.21,0,0,1,.3.09,10.43,10.43,0,0,1,0,4.09A.21.21,0,0,1,44.62,192.84Z"/><path class="cls-1" d="M44.62,192.84h.16a.75.75,0,0,1,.29.64,13.06,13.06,0,0,1-.15,3.53.22.22,0,0,1-.3.09Z"/><path class="cls-1" d="M44.62,197.1a.43.43,0,0,0,.16,0,.76.76,0,0,1,.29.65,13,13,0,0,1-.15,3.52.21.21,0,0,1-.3.09Z"/><path class="cls-1" d="M44.78,188.58h-.16v-1.85l.2,0A.91.91,0,0,1,45,187C45.06,187.57,45.22,188.12,44.78,188.58Z"/><path class="cls-1" d="M44.62,201.36h.16a1.08,1.08,0,0,1,0,1.48h-.18Z"/><path class="cls-1" d="M44.8,202.85l0-1.48V188.58l0-1.64c.28-.12.47.08.64.24,1.66,1.65,3.32,3.29,5,5a.67.67,0,0,1,.17.32,6.51,6.51,0,0,0,.51.64c3.75,3.81,7.51,7.6,11.24,11.43.52.54.78.48,1.27,0,2.28-2.39,4.61-4.73,6.9-7.11.38-.4.58-.45,1,0q3.59,3.62,7.25,7.16c.46.44.4.66,0,1.08q-7.61,7.45-15.16,15c-.52.52-.76.43-1.23,0Q53.6,211.68,44.8,202.85Z"/><path class="cls-1" d="M175.85,190.35c1.61,0,3.14,0,4.68,0,.49,0,.5.38.6.68q2.61,7.93,5.21,15.88c0,.17.13.33.27.69.76-2.31,1.46-4.45,2.17-6.58,1.08-3.31,2.18-6.61,3.23-9.92.18-.56.42-.79,1-.77,1.17,0,2.35.06,3.52,0,.65,0,.9.21,1.1.8q2.52,7.83,5.1,15.63c.07.22.05.51.38.66q1.89-5.74,3.77-11.45c.54-1.64,1.1-3.27,1.6-4.92a.84.84,0,0,1,1-.72c1.24,0,2.47,0,3.71,0,.51,0,.63.1.44.63q-3.78,10.91-7.53,21.82a.81.81,0,0,1-.94.63c-1.29,0-2.59-.06-3.89,0a1.15,1.15,0,0,1-1.37-.94c-1.52-4.55-3.1-9.09-4.68-13.62a1.79,1.79,0,0,0-.46-1c-1.52,4.38-3,8.73-4.53,13.08-.27.78-.36,1.8-.91,2.26s-1.6.14-2.42.15c-1,0-2.24.32-3-.13s-.78-1.79-1.11-2.74q-3.36-9.69-6.69-19.38C176,190.93,176,190.69,175.85,190.35Z"/><path class="cls-1" d="M127.78,203.93c0,1.42,0,2.85,0,4.26a1.82,1.82,0,0,1-.66,1.53,15.82,15.82,0,0,1-10.65,4c-6.29.25-11.5-2-14.68-7.5-5.81-10.14.37-22.86,12.2-23.84a16.31,16.31,0,0,1,11.75,3.21c.54.41.61.69.18,1.23a27,27,0,0,0-1.81,2.57c-.35.57-.57.65-1.15.2a11.79,11.79,0,0,0-14.41.4c-2.92,2.51-3.78,5.8-3.46,9.5.49,5.65,5.31,10.18,12.49,9.18a13.79,13.79,0,0,0,4.23-1.28,1.2,1.2,0,0,0,.79-1.27c0-2.22,0-4.44,0-6.67,0-.65.1-.94.84-.89a31.79,31.79,0,0,0,3.52,0c.73,0,.88.22.86.89C127.75,201,127.78,202.45,127.78,203.93Z"/><path class="cls-1" d="M241.23,194.27c.45-.59.78-1.07,1.16-1.5,3.77-4.35,11.71-3.5,14.23,1.52a10.71,10.71,0,0,1,1,4.84c0,4.48,0,9,0,13.43,0,.71-.18.9-.87.86-1.11-.06-2.22,0-3.33,0-.62,0-.77-.18-.77-.78,0-4,0-8,0-11.94a11.23,11.23,0,0,0-.13-1.84c-.64-4.24-3.88-4.9-6.71-4.26s-4.62,3-4.64,6.31c0,3.86,0,7.72,0,11.58,0,.8-.23,1-1,.93-1.07-.06-2.16,0-3.24,0-.49,0-.69-.1-.69-.65q0-15.42,0-30.84c0-.53.17-.69.68-.67,1.08,0,2.17.05,3.24,0,.75,0,1,.14,1,.95-.05,3.67,0,7.34,0,11Z"/><path class="cls-1" d="M322,209.38c-2.54,3.72-5.9,5-10.06,4.15a7.81,7.81,0,0,1-6.24-7.34c-.23-3.36-.05-6.73-.09-10.09,0-1.63,0-3.27,0-4.91,0-.72.22-.89.89-.86a31.83,31.83,0,0,0,3.24,0c.68,0,.81.21.8.84,0,4,0,8.08,0,12.13a10,10,0,0,0,.23,2.11c.78,3.63,4.77,5.13,8.23,3.11a5.82,5.82,0,0,0,3-5.29q.06-6,0-11.94c0-.78.18-1,1-1a23.88,23.88,0,0,0,3.05,0c.71,0,.88.19.87.87,0,4.42,0,8.83,0,13.25,0,2.74,0,5.49,0,8.24,0,.54-.11.76-.71.73-1.17,0-2.34,0-3.52,0-.55,0-.66-.19-.64-.69C322,211.68,322,210.63,322,209.38Z"/><path class="cls-1" d="M219.34,200.9c0-1.94,0-3.89,0-5.83,0-.57-.1-.83-.75-.8s-1.61.33-2-.13-.14-1.4-.15-2.14c0-1.65,0-1.65,1.63-1.65,1.3,0,1.3,0,1.3-1.34,0-1.7,0-3.39,0-5.09,0-.67.12-.94.85-.89a27.41,27.41,0,0,0,3.14,0c.68,0,.91.13.89.85,0,1.88,0,3.77,0,5.65,0,.67.2.84.84.82,1.54,0,3.08,0,4.63,0,.46,0,.66.1.64.61,0,.89,0,1.79,0,2.68,0,.54-.17.68-.68.67-1.55,0-3.09,0-4.63,0-.58,0-.81.11-.8.75,0,3.49,0,7,0,10.47,0,.15,0,.31,0,.46.09,1.43.47,2.71,1.93,3.31a3.47,3.47,0,0,0,3.91-.88c.4-.37.55-.3.78.13a14.24,14.24,0,0,0,1.22,2.07c.55.74.29,1.11-.37,1.58-5,3.56-11.32,1.05-12.24-4.89a25.2,25.2,0,0,1-.09-3.69C219.33,202.69,219.34,201.8,219.34,200.9Z"/><path class="cls-1" d="M298.85,197.28c0,5.09,0,10.18,0,15.27,0,.68-.13.92-.85.87a27.41,27.41,0,0,0-3.14,0c-.72,0-.92-.16-.92-.9,0-6.88,0-13.76,0-20.64,0-3.3,0-6.6,0-9.9,0-.58.11-.83.75-.8a30.82,30.82,0,0,0,3.33,0c.66,0,.83.19.82.83C298.84,187.1,298.85,192.19,298.85,197.28Z"/><path class="cls-1" d="M138.59,194.69c.58-.72,1-1.34,1.53-1.88A8.4,8.4,0,0,1,145.4,190c.47-.05.67,0,.66.56,0,1.23,0,2.47.07,3.7,0,.48-.14.61-.62.64-4,.29-6.35,2.59-6.77,6.71-.35,3.54-.11,7.1-.13,10.64,0,.9-.17,1.25-1.14,1.16a20.69,20.69,0,0,0-3.05,0c-.56,0-.73-.13-.73-.71,0-2.23,0-4.45,0-6.67,0-4.91,0-9.82,0-14.72,0-.74.13-1,.94-1,1.11.07,2.22,0,3.33,0,.49,0,.65.14.64.63C138.57,192.16,138.59,193.35,138.59,194.69Z"/><path class="cls-1" d="M50.59,192.47c-1.77-1.44-3.22-3.19-4.88-4.74l-.88-.79a1.15,1.15,0,0,1,0-.19l10.33.44C53.53,189.07,52.2,190.89,50.59,192.47Z"/><path class="cls-1" d="M355.35,207.33c0-5.37,0-10.74,0-16.12,0-.67-.13-.92-.85-.88-1.11.06-2.23,0-3.34,0-.58,0-.74.19-.71.74,0,.77,0,1.54,0,2.31l-.2.14a3.43,3.43,0,0,0-.32-.43c-3.7-4.46-10.82-3.79-14.19-.19a12,12,0,0,0-3,10.53A10.31,10.31,0,0,0,345.91,212a8.68,8.68,0,0,0,4.78-3.89,31.7,31.7,0,0,1-.09,4.21c-.55,3.84-2.86,5.84-6.75,6a10.79,10.79,0,0,1-6.84-2.13c-.5-.35-.74-.33-1,.21a27,27,0,0,1-1.57,2.51c-.3.45-.27.68.2,1a15,15,0,0,0,10.77,2.74c5.37-.65,8.71-3.73,9.71-8.81A32.42,32.42,0,0,0,355.35,207.33Zm-11.48.6c-3.69,0-6.5-3-6.51-6.93s2.74-7,6.39-7.08a6.72,6.72,0,0,1,6.73,7A6.61,6.61,0,0,1,343.87,207.93Z"/><path class="cls-1" d="M288.46,191.17a8.45,8.45,0,0,0-5.7-7,15.78,15.78,0,0,0-4.5-.95c-4.19-.31-8.39-.08-12.58-.17-.75,0-.67.41-.67.88v14.26c0,4.78,0,9.56,0,14.34,0,.75.22.94.93.9,1.17-.06,2.34,0,3.51,0,.62,0,.78-.17.77-.77,0-2.13,0-4.26,0-6.39,0-1.72,0-1.71,1.76-1.72,3.08,0,6.17.16,9.2-.58,3.75-.91,6.4-3,7.23-6.9A16,16,0,0,0,288.46,191.17Zm-6.64,7.07c-1.22,1.36-3,1.52-4.7,1.59-2.1.09-4.2,0-6.29,0-.58,0-.65-.25-.65-.72,0-1.79,0-3.58,0-5.37s0-3.58,0-5.37c0-.44.08-.68.6-.67a52.9,52.9,0,0,1,7.76.29c2,.35,3.89,1,4.52,3.26C283.76,193.77,283.63,196.22,281.82,198.24Z"/><path class="cls-1" d="M161.2,190c-6.95,0-12.11,5.05-12.11,11.84s5.13,12,12.18,12a11.9,11.9,0,1,0-.07-23.8Zm0,19.38c-4.21,0-7.21-3.1-7.22-7.47a7.14,7.14,0,0,1,7.27-7.54c4.25,0,7.27,3.14,7.27,7.55A7.07,7.07,0,0,1,161.16,209.36Z"/><rect class="cls-2" width="400" height="400"/></g></g></svg>