<svg xmlns="http://www.w3.org/2000/svg" viewBox="0 0 300.44 71.37"><defs><style>.cls-1{fill:#fff;}</style></defs><title>Asset 80</title><g id="Layer_2" data-name="Layer 2"><g id="Layer_1-2" data-name="Layer 1"><path class="cls-1" d="M171.43,40.25c0-7,0-14,0-21,0-.83.11-1.2,1.09-1.19,8.4,0,16.8.07,25.2,0,4.37,0,5.32,4.15,4,6.51a4.1,4.1,0,0,1-4,2.05c-5.5,0-11,0-16.5,0-1,0-1.24.24-1.19,1.19a42.27,42.27,0,0,1,0,4.36c0,.79.19,1,1,1,3.21-.05,6.42-.06,9.62,0,3.5,0,5.49,3,4.2,6.11a3.8,3.8,0,0,1-3.9,2.41c-3.24,0-6.49,0-9.74,0-1,0-1.2.27-1.19,1.21.06,3.24.07,6.49,0,9.74,0,1,.29,1.16,1.21,1.16,5.57,0,11.15,0,16.72,0,3.85,0,5.1,3.79,3.89,6.29a3.68,3.68,0,0,1-3.46,2.21c-2,0-4,0-6.07,0-6.61,0-13.22,0-19.82,0-.87,0-1.08-.23-1.08-1.08C171.45,54.23,171.43,47.24,171.43,40.25Z"/><path class="cls-1" d="M109,18.12c6.23.07,11.73,1.46,16.17,5.76,1.95,1.9,2.09,4.27.36,6.08s-4.3,2-6,.13c-4.13-4.65-14.86-4.45-19-1.38a10.31,10.31,0,0,0-3.9,5.36c-1.27,4.12-1.47,8.27.34,12.28a13.42,13.42,0,0,0,14.13,7.56,14.44,14.44,0,0,0,8.21-3.34c1.67-1.47,4.06-1,5.58.79a4,4,0,0,1-.38,5.65,17.65,17.65,0,0,1-7.19,4.1c-6,1.73-12,1.9-17.64-.83C92,56.56,87.85,50.21,87.35,41.64,87,36.32,87.92,31.21,91,26.71a19.28,19.28,0,0,1,13.69-8.24C106.22,18.25,107.74,18.19,109,18.12Z"/><path class="cls-1" d="M300.2,58a4.27,4.27,0,0,1-4.37,4.3A4.35,4.35,0,1,1,300.2,58Z"/><path class="cls-1" d="M4,45.3a4,4,0,0,1,4,4,4,4,0,0,1-4,4,4.06,4.06,0,0,1-4-4A4,4,0,0,1,4,45.3Z"/><path class="cls-1" d="M71.51,49.35a4,4,0,0,1-4.05,3.9,4,4,0,0,1-3.94-4,4,4,0,0,1,4.11-4A3.92,3.92,0,0,1,71.51,49.35Z"/><path class="cls-1" d="M4.08,63.39a4,4,0,1,1-.13,8,4,4,0,1,1,.13-8Z"/><path class="cls-1" d="M53.38,67.41a4,4,0,1,1-4-4A4,4,0,0,1,53.38,67.41Z"/><path class="cls-1" d="M4,8A4,4,0,0,1,0,4,4.08,4.08,0,0,1,4.05,0,4.06,4.06,0,0,1,8,4,4,4,0,0,1,4,8Z"/><path class="cls-1" d="M4,27.19a4,4,0,1,1-4,4A4,4,0,0,1,4,27.19Z"/><path class="cls-1" d="M4,26.07a4,4,0,1,1,4-3.95A4,4,0,0,1,4,26.07Z"/><path class="cls-1" d="M71.51,4a3.9,3.9,0,0,1-4,4,4,4,0,0,1-4-3.94,4.07,4.07,0,0,1,4-4A4,4,0,0,1,71.51,4Z"/><path class="cls-1" d="M4,17a4,4,0,1,1,4-4A4,4,0,0,1,4,17Z"/><path class="cls-1" d="M49.4,9.09a4,4,0,1,1-4,4A4,4,0,0,1,49.4,9.09Z"/><path class="cls-1" d="M71.51,31.17a3.94,3.94,0,0,1-4,4,4,4,0,1,1,0-7.95A3.92,3.92,0,0,1,71.51,31.17Z"/><path class="cls-1" d="M26.12,4a3.84,3.84,0,0,1-3.95,4,4,4,0,0,1-4-4,4,4,0,0,1,4-4A3.94,3.94,0,0,1,26.12,4Z"/><path class="cls-1" d="M9.13,49.22a4,4,0,0,1,7.95.09,4,4,0,1,1-7.95-.09Z"/><path class="cls-1" d="M54.49,4a4,4,0,0,1,4-4,4.12,4.12,0,0,1,4,4A4,4,0,0,1,58.44,8,3.88,3.88,0,0,1,54.49,4Z"/><path class="cls-1" d="M71.51,67.37a4,4,0,0,1-4,4,4,4,0,1,1,0-8A3.94,3.94,0,0,1,71.51,67.37Z"/><path class="cls-1" d="M71.51,13.05a3.93,3.93,0,0,1-4,4,4,4,0,1,1,0-7.94A3.91,3.91,0,0,1,71.51,13.05Z"/><path class="cls-1" d="M13.13,26.07a4,4,0,0,1-.06-7.95,4,4,0,0,1,4,4A4,4,0,0,1,13.13,26.07Z"/><path class="cls-1" d="M9.13,31.22a3.92,3.92,0,0,1,3.91-4,4,4,0,1,1-3.91,4Z"/><path class="cls-1" d="M58.46,26.07a3.9,3.9,0,0,1-4-4,4,4,0,0,1,4-4,4.09,4.09,0,0,1,4,4A4,4,0,0,1,58.46,26.07Z"/><path class="cls-1" d="M71.51,22.08a3.91,3.91,0,0,1-3.94,4,4,4,0,0,1-4-3.93,4,4,0,0,1,4-4A4,4,0,0,1,71.51,22.08Z"/><path class="cls-1" d="M49.39,8a4,4,0,0,1-4-4,4,4,0,1,1,8,0A3.92,3.92,0,0,1,49.39,8Z"/><path class="cls-1" d="M58.52,63.39a4.05,4.05,0,0,1,4,4,4.1,4.1,0,0,1-4.09,4,4,4,0,0,1-3.91-4.06A3.93,3.93,0,0,1,58.52,63.39Z"/><path class="cls-1" d="M49.34,26.07a4,4,0,1,1,4-3.91A3.93,3.93,0,0,1,49.34,26.07Z"/><path class="cls-1" d="M26.12,31.13a3.91,3.91,0,0,1-3.94,4,4,4,0,1,1,0-7.95A3.89,3.89,0,0,1,26.12,31.13Z"/><path class="cls-1" d="M26.12,49.27a3.91,3.91,0,0,1-3.95,4,4,4,0,1,1,0-8A3.86,3.86,0,0,1,26.12,49.27Z"/><path class="cls-1" d="M13.07,8A3.88,3.88,0,0,1,9.13,4a4,4,0,0,1,4-4,4,4,0,0,1,4,4A4,4,0,0,1,13.07,8Z"/><path class="cls-1" d="M54.49,49.28a3.9,3.9,0,0,1,4-4,4,4,0,0,1,4,4,4.1,4.1,0,0,1-4,4A4,4,0,0,1,54.49,49.28Z"/><path class="cls-1" d="M31.28,8a4,4,0,0,1-4-3.94,4,4,0,0,1,8,0A4,4,0,0,1,31.28,8Z"/><path class="cls-1" d="M54.49,13a3.92,3.92,0,0,1,4-3.9,4,4,0,0,1,4,4A4.06,4.06,0,0,1,58.4,17,3.93,3.93,0,0,1,54.49,13Z"/><path class="cls-1" d="M54.49,31.1a3.92,3.92,0,0,1,4-3.91,4,4,0,1,1-.12,8A3.94,3.94,0,0,1,54.49,31.1Z"/><path class="cls-1" d="M4,44.17a4,4,0,1,1,0-7.91,4,4,0,1,1,0,7.91Z"/><path class="cls-1" d="M9.13,40.24a3.89,3.89,0,0,1,3.85-4,4,4,0,1,1,.18,7.91A3.89,3.89,0,0,1,9.13,40.24Z"/><path class="cls-1" d="M31.19,44.17a4,4,0,1,1,4.09-3.89A4,4,0,0,1,31.19,44.17Z"/><path class="cls-1" d="M44.3,4a4,4,0,0,1-7.91.09A4,4,0,1,1,44.3,4Z"/><path class="cls-1" d="M4,54.38a3.93,3.93,0,0,1,4,4,4,4,0,0,1-8-.06A3.94,3.94,0,0,1,4,54.38Z"/><path class="cls-1" d="M13.09,54.38a3.91,3.91,0,0,1,4,4,4,4,0,0,1-3.93,3.94,3.9,3.9,0,0,1-4-3.93A3.85,3.85,0,0,1,13.09,54.38Z"/><path class="cls-1" d="M71.51,58.36a3.9,3.9,0,0,1-4,3.92,4,4,0,0,1-4-3.94,3.94,3.94,0,0,1,4-4A3.86,3.86,0,0,1,71.51,58.36Z"/><path class="cls-1" d="M71.51,40.17a3.89,3.89,0,0,1-3.92,4,4,4,0,1,1-.09-7.91A3.89,3.89,0,0,1,71.51,40.17Z"/><path class="cls-1" d="M58.42,54.38a4,4,0,1,1,.08,7.9,4,4,0,1,1-.08-7.9Z"/><path class="cls-1" d="M44.3,67.4a4,4,0,1,1-7.91-.12,3.88,3.88,0,0,1,4-3.89A3.92,3.92,0,0,1,44.3,67.4Z"/><path class="cls-1" d="M53.38,58.32a4,4,0,1,1-4-3.94A3.88,3.88,0,0,1,53.38,58.32Z"/><path class="cls-1" d="M26.12,40.24a3.86,3.86,0,0,1-4,3.93,4,4,0,1,1,.05-7.91A3.84,3.84,0,0,1,26.12,40.24Z"/><path class="cls-1" d="M36.39,13a4,4,0,1,1,7.9.11,4,4,0,0,1-7.9-.11Z"/><path class="cls-1" d="M292.7,29.86c-1.81-2.35-1.72-3.75.25-5.53a5.2,5.2,0,0,1-1.31-1.69,3.11,3.11,0,0,1,2.76-4.45c1.71-.14,3.44,0,5.15-.08.51,0,.66.19.66.68s-.15.66-.65.65c-1.41,0-2.82,0-4.24,0-1.77,0-2.72.83-2.69,2.26S293.68,24,295.36,24c1.38,0,2.75,0,4.13,0,.53,0,.73.14.73.7s-.17.72-.72.71c-1.49,0-3,0-4.47,0s-2.29.7-2.39,1.92a2.25,2.25,0,0,0,2,2.47,33.36,33.36,0,0,0,4.69.1c.48,0,.87,0,.87.69s-.47.63-.91.63c-2.18,0-4.36,0-6.53,0-.44,0-1.12.36-1.19-.59S292.13,29.85,292.7,29.86Z"/><path class="cls-1" d="M291.43,47a4,4,0,0,1,1-2.71c.24-.29.45-.62.91-.19s.45.54.11,1c-1.1,1.46-1.14,2.85-.22,4a3.49,3.49,0,0,0,4.15.9,3.06,3.06,0,0,0,1.13-4.78c-.32-.43-.68-.76-.08-1.2s.79.21,1,.49a4.4,4.4,0,0,1,.23,5.21,4.6,4.6,0,0,1-5.15,1.75A4.43,4.43,0,0,1,291.43,47Z"/><path class="cls-1" d="M243.58,28c-4.57-6.26-11.06-9.17-18.64-9.68-5.87-.4-11.75-.07-17.63-.17-.91,0-1.13.25-1.13,1.14,0,7,0,14,0,21s0,14,0,21.07c0,.77.14,1,1,1,5,0,10,0,15,0A28.32,28.32,0,0,0,236,59C248.26,52.25,250.14,37,243.58,28ZM228.72,52.84a22.68,22.68,0,0,1-6.54.93c-2.06,0-4.12,0-6.18,0-.93,0-1.23-.18-1.22-1.17.06-4.12,0-8.24,0-12.37s0-8.39,0-12.59c0-.8.22-1.06,1-1,3.47.13,7-.28,10.4.32,4.92.87,9.17,2.93,11.32,7.7C240.39,41,238.07,50.05,228.72,52.84Z"/><path class="cls-1" d="M157.2,46.91c.85-.33,1.54-.54,2.18-.85,5.74-2.75,8.08-7.53,8.16-13.67A14,14,0,0,0,153.2,18.1c-7.13.09-14.27,0-21.41,0-1,0-1.2.25-1.2,1.2,0,10.84,0,21.68,0,32.52,0,2.18,0,4.35,0,6.53a3.9,3.9,0,0,0,3.5,3.88,4.18,4.18,0,0,0,5.1-4.37c0-5.3,0-10.61,0-15.92,0-.39,0-.78.06-1.51.62.68,1,1.14,1.42,1.57q8.92,9.36,17.84,18.72A4.27,4.27,0,1,0,165,55.1C162.46,52.37,159.85,49.69,157.2,46.91ZM153,39.26c-4.34.14-8.69,0-13,.07-.59,0-.69-.25-.69-.75,0-3.74,0-7.48,0-11.21,0-.68.33-.72.85-.72,2.17,0,4.34,0,6.52,0,1.9,0,3.81,0,5.71,0a6.42,6.42,0,0,1,5.92,3.23c1.33,2.32.92,4.75-.24,7C157,38.89,154.88,39.2,153,39.26Z"/><path class="cls-1" d="M287.85,35.14c1.45-8.57-4.41-17.1-14-17-7.18.05-14.36,0-21.53,0-1,0-1.21.24-1.2,1.19,0,7.37,0,14.74,0,22.11,0,5.61,0,11.22,0,16.84a3.78,3.78,0,0,0,3,3.89c2.62.65,5.61-.8,5.55-4.27-.09-5.31,0-10.62,0-15.93a1.57,1.57,0,0,1,.27-1.32c.26.31.49.61.75.88L279.07,60.7a4.36,4.36,0,0,0,2.83,1.56,4.42,4.42,0,0,0,4.38-2.51,4.06,4.06,0,0,0-.84-4.74c-2.55-2.68-5.11-5.35-7.75-8.11C283.61,45,286.85,41.08,287.85,35.14ZM278.39,37c-1,1.88-3,2.16-4.87,2.22-4.38.14-8.77.06-13.16.08-.51,0-.65-.22-.65-.68,0-3.78,0-7.56,0-11.33,0-.73.43-.66.9-.66h6.52c1.91,0,3.82,0,5.72,0A6.34,6.34,0,0,1,278.79,30,7,7,0,0,1,278.39,37Z"/><path class="cls-1" d="M295.9,33.43a4.49,4.49,0,0,0,0,9A4.36,4.36,0,0,0,300.42,38,4.46,4.46,0,0,0,295.9,33.43Zm0,7.63a3.12,3.12,0,0,1-3.32-3,3.33,3.33,0,0,1,6.66-.14A3.24,3.24,0,0,1,295.93,41.06Z"/></g></g></svg>