<svg xmlns="http://www.w3.org/2000/svg" viewBox="0 0 400 400"><defs><style>.cls-1{fill:#e31f27;}.cls-2{fill:#fdfdfd;}.cls-3{fill:none;}</style></defs><title>Asset 114</title><g id="Layer_2" data-name="Layer 2"><g id="Layer_1-2" data-name="Layer 1"><path class="cls-1" d="M106.73,218.67h0Z"/><path class="cls-1" d="M334.5,216.24h0Z"/><path class="cls-1" d="M334.51,218v0Z"/><polygon class="cls-1" points="334.5 154.69 334.5 154.72 334.55 154.7 334.5 154.69"/><path class="cls-2" d="M192.14,186.47c0-5.05,0-10.1,0-15.15,0-.75-.15-1-1-1-1.28.08-2.58,0-3.86,0-.6,0-.8-.2-.8-.78q0-5.16,0-10.34c0-.6.25-.77.82-.77q9.6,0,19.22,0c.81,0,.77.42.77,1,0,6.68,0,13.37,0,20.05,0,.94.23,1.18,1.15,1.15,2.26-.07,4.53-.07,6.79,0,.88,0,1.17-.13,1.17-1.11-.06-6.61,0-13.23,0-19.84,0-.91.16-1.25,1.17-1.25,6.17.06,12.33,0,18.49,0,.92,0,1.19.23,1.17,1.16q-.07,4.91,0,9.82c0,.76-.24,1-.95.93-1.29,0-2.58,0-3.86,0-.6,0-.77.2-.77.79q0,15.3,0,30.6c0,.58.16.79.76.78,1.36-.05,2.72,0,4.08,0,.54,0,.73.18.73.72q0,5.26,0,10.55c0,.51-.19.64-.67.64-6.48,0-13,0-19.43,0-.8,0-.7-.44-.7-.93,0-6.54,0-13.09,0-19.64,0-1-.26-1.27-1.26-1.24-2.15.09-4.32.08-6.47,0-1,0-1.4.19-1.39,1.33.07,6.47,0,13,0,19.43,0,.79-.17,1.05-1,1q-9.39,0-18.8,0c-.85,0-1-.26-1-1.06.05-3.27.06-6.54,0-9.82,0-.9.28-1.11,1.12-1.06,1.18.06,2.37,0,3.55,0,.78,0,1-.19,1-1,0-5,0-10,0-15Z"/><path class="cls-2" d="M182.7,186.58c0,5.85.07,11.7,0,17.55-.07,4.1-1.67,7.44-5.61,9.25a11.53,11.53,0,0,1-4.77,1q-16.71,0-33.43,0c-.73,0-.93-.19-.92-.92,0-3.34,0-6.69,0-10,0-.72.18-1,.93-.94,1.18.06,2.37,0,3.55,0,.58,0,.78-.14.78-.75q0-15.4,0-30.82c0-.56-.2-.7-.73-.69-1.29,0-2.57,0-3.86,0-.49,0-.66-.13-.66-.65q0-5.22,0-10.44c0-.59.19-.77.77-.76,11.32,0,22.64-.06,34,.06,6.2.06,9.93,4,10,10.32.07,5.92,0,11.84,0,17.76Zm-15.25-.18c0-5.08,0-10.16,0-15.24,0-.66-.14-.91-.86-.9q-3.65.08-7.31,0c-.69,0-.87.21-.87.88q0,15.26,0,30.5c0,.77.28.9,1,.89,2.37,0,4.74-.05,7.1,0,.8,0,1-.22,1-1C167.44,196.5,167.46,191.45,167.45,186.4Z"/><path class="cls-2" d="M261.31,158.44c6.69,0,13.37,0,20.06,0,.88,0,1.1.24,1.09,1.11,0,5.12,0,10.24,0,15.36,0,.77-.19,1-1,1-3.35,0-6.69,0-10,0-.71,0-1-.17-1-.93.06-1.28,0-2.57,0-3.86,0-.61-.2-.76-.78-.76-2.72,0-5.43,0-8.15,0-.56,0-.81.14-.8.76,0,2.86,0,5.71,0,8.57,0,.72.32.77.88.77,3.2,0,6.41,0,9.61,0,.84,0,1.13.16,1.11,1.07-.06,3.27-.06,6.55,0,9.82,0,.89-.15,1.18-1.11,1.16-3.17-.07-6.34,0-9.51,0-.78,0-1,.19-1,1,.05,2.71,0,5.43,0,8.15,0,.79.25,1,1,1,1.29-.06,2.58,0,3.87,0,.59,0,.86.1.86.79q-.06,5.17,0,10.34c0,.69-.25.8-.85.79q-12.54,0-25.08,0c-.73,0-.84-.26-.83-.89,0-3.38,0-6.76,0-10.14,0-.77.25-.93,1-.9,1.39,0,2.78,0,4.17,0,.6,0,.77-.17.77-.76q0-15.32,0-30.62c0-.58-.15-.8-.76-.78-1.25,0-2.51-.06-3.76,0-1,.07-1.15-.29-1.14-1.18q.08-4.86,0-9.71c0-.86.27-1,1.06-1C247.8,158.46,254.55,158.44,261.31,158.44Z"/><path class="cls-2" d="M308.1,214.37c-6.75,0-13.51,0-20.27,0-.88,0-1.08-.24-1.07-1.09.06-3.31,0-6.62,0-9.93,0-.74.2-1,.93-.92,1.08.06,2.16,0,3.24,0,.61,0,.84-.12.84-.8q0-15.26,0-30.51c0-.72-.26-.88-.91-.85-1.12.05-2.23,0-3.35,0-.48,0-.75-.06-.75-.67q0-5.26,0-10.55c0-.57.22-.69.74-.69q11.91,0,23.82,0c.53,0,.73.13.72.69,0,3.52,0,7,0,10.55,0,.5-.17.67-.67.66-1.25,0-2.51,0-3.76,0-.59,0-.77.19-.77.78q0,15.3,0,30.61c0,.58.17.79.77.78q2.82-.06,5.64,0c.65,0,.84-.21.83-.84,0-2.5,0-5,0-7.52,0-.75.16-1,1-1q6.63.06,13.27,0c.85,0,1,.26,1,1.06q0,9.62,0,19.23c0,.78-.2,1-1,1C321.62,214.36,314.86,214.37,308.1,214.37Z"/><path class="cls-2" d="M131.79,178.82a34,34,0,0,0-4.59-10.44,32.24,32.24,0,0,0-6.76-7.23,15.43,15.43,0,0,0-2.6-1.92c-2.6-1.34-5-3-8-3.56-1.44-.28-2.84-.87-4.32-1.08-.31,0-.54-.1-.64-.41q-19.27,0-38.54-.05c-.71,0-.85.24-.85.9,0,7.1,0,14.2,0,21.31,0,.25-.11.55.13.79a2.7,2.7,0,0,0,1.06-.62c2.81-2,5.63-4.07,8.43-6.12.46-.33.8-.53,1.36-.11,3.78,2.79,7.59,5.53,11.37,8.31a18.63,18.63,0,0,1,2.9,2.23c-1.55,0-2.9.05-4.24,0-.89-.05-1.1.27-1.09,1.12,0,4.08,0,8.15,0,12.22,0,.91-.21,1.17-1.15,1.17-5.92-.05-11.84,0-17.76-.05-.77,0-1.07.14-1.07,1,0,7.17,0,14.35,0,21.52,0,.72.17,1,.93.93,1.84-.06,3.69,0,5.53,0l33.63,0c.46-.84,1.39-.77,2.07-.86a20.8,20.8,0,0,0,6-1.93,28.66,28.66,0,0,0,8.31-5.55,59.32,59.32,0,0,0,4.63-5,26.9,26.9,0,0,0,3.85-6.84,30.64,30.64,0,0,0,2.3-10.5A34,34,0,0,0,131.79,178.82Zm-28.94,10c-1.48,0-1.48,0-1.48,1.53s0,2.78,0,4.17c0,.7-.21.89-.89.89q-4.44-.06-8.88,0c-.71,0-.88-.23-.87-.89,0-1.5,0-3,0-4.49,0-.93-.17-1.38-1.18-1.21a7.33,7.33,0,0,1-1.17,0A13.73,13.73,0,0,1,91,186.56c1.54-1.31,3.12-2.56,4.69-3.82.34-.27.65-.62,1.17-.19,2.48,2,5,4,7.58,6.07A3.64,3.64,0,0,1,102.85,188.78Z"/><path class="cls-2" d="M280.72,234c0-.24,0-.45,0-.66,0-.41.22-.51.6-.5s.48.19.48.52c0,3.09,0,6.19-.12,9.28a3.27,3.27,0,0,1-3.19,3.15c-1.67.2-3.29.16-4.47-1.3-.2-.24-.62-.52-.27-.86s.73-.1,1,.24a3.8,3.8,0,0,0,4.33.68c1.21-.6,1.74-1.85,1.46-3.6a4.39,4.39,0,0,1-3.78,1.39c-2.23-.31-3.51-2-3.56-4.67a8.27,8.27,0,0,1,.18-1.86,4,4,0,0,1,6.66-2.14C280.28,233.75,280.37,234,280.72,234Zm-6.32,3.47c0,2,.72,3.24,2.09,3.71a2.87,2.87,0,0,0,3.25-.75c1.31-1.42,1.22-3.12.69-4.8a2.74,2.74,0,0,0-2.45-2C275.79,233.37,274.41,234.84,274.4,237.42Z"/><path class="cls-2" d="M255.78,240.78a4.68,4.68,0,0,1-4.2,1.46,3.89,3.89,0,0,1-3.16-3.45,6.76,6.76,0,0,1,.06-3,3.92,3.92,0,0,1,6.77-2,3.5,3.5,0,0,0,.28.27c.1-.07.17-.08.2-.13.22-.35-.28-1.12.53-1.1s.47.8.48,1.19c0,2.75,0,5.51-.06,8.25a3.21,3.21,0,0,1-2.48,3.34c-1.85.44-3.7.49-5.14-1.07-.29-.32-.79-.84-.29-1.24s.83,0,1.16.49c.81,1.25,2.1,1.18,3.37,1a2.72,2.72,0,0,0,2.32-2.36C255.71,242,255.71,241.51,255.78,240.78Zm-6.4-3.7A5.08,5.08,0,0,0,250,240a3,3,0,0,0,5.14-.18,4.89,4.89,0,0,0-.48-5.36,3.09,3.09,0,0,0-3.38-.65A3.31,3.31,0,0,0,249.38,237.08Z"/><path class="cls-2" d="M206.32,235.66a8.63,8.63,0,0,0,.43,2.77,4,4,0,0,0,3.94,3,4,4,0,0,0,4-2.71l.2-.48c.22-.46.66-.39,1-.3s.19.5.11.77a5.13,5.13,0,0,1-4.79,3.68c-2.81.14-4.7-.88-5.54-3.14a9.42,9.42,0,0,1,.13-7.4c1.07-2.34,3.12-3.05,5.5-3a4.49,4.49,0,0,1,4.42,2.88c.14.35.6.85,0,1.12s-.86-.1-1.07-.65c-.65-1.71-2-2.24-3.74-2.26a3.94,3.94,0,0,0-3.93,2.38A7.79,7.79,0,0,0,206.32,235.66Z"/><path class="cls-2" d="M235.73,237.8v2.41c0,.56-.1,1.17.78,1.13.22,0,.29.16.28.36a.4.4,0,0,1-.36.43c-.65.12-1.32.12-1.63-.55s-.48-.42-.89-.14a4.31,4.31,0,0,1-4.35.54,2.3,2.3,0,0,1-1.5-2.18,2.34,2.34,0,0,1,1.39-2.36,13.83,13.83,0,0,1,3.75-.87c.55-.11,1.26,0,1.36-.81a1.72,1.72,0,0,0-1-2,2.82,2.82,0,0,0-3.88,1.41.65.65,0,0,1-.81.44c-.52-.07-.3-.43-.26-.72a2.45,2.45,0,0,1,1-1.55,5.11,5.11,0,0,1,4.87-.34,2.37,2.37,0,0,1,1.16,1.76C235.8,235.86,235.66,236.94,235.73,237.8Zm-1.14.6c-.17-.29.29-1.13-.33-1-1.39.26-2.88.1-4.15.83A1.6,1.6,0,0,0,230,241,3.14,3.14,0,0,0,234.59,238.4Z"/><path class="cls-2" d="M316.85,237.72c-.9,0-1.81.05-2.71,0s-.93.31-.8,1a3,3,0,0,0,2.51,2.59,2.82,2.82,0,0,0,3.2-1.57.78.78,0,0,1,1.11-.41c.45.21,0,.59-.11.85a3.73,3.73,0,0,1-3.93,2.17,3.65,3.65,0,0,1-3.59-2.54,5.84,5.84,0,0,1,.75-5.74,4.12,4.12,0,0,1,4.81-1.18,4.76,4.76,0,0,1,2.44,4.41c-.06.46-.32.45-.65.45Zm-.64-.92h0c.8,0,1.6,0,2.39,0,.61,0,.79-.21.67-.83a2.74,2.74,0,0,0-3-2.4,3.07,3.07,0,0,0-2.93,2.64c-.07.49.17.6.58.59C314.68,236.79,315.44,236.8,316.21,236.8Z"/><path class="cls-2" d="M325.69,232.57c1.82,0,3,.73,3.34,2.07.06.27.34.65-.15.78-.32.08-.71.1-.86-.35-.5-1.49-1.7-1.6-3-1.46a1.5,1.5,0,0,0-1.47,1.37,1.31,1.31,0,0,0,1.06,1.47c.91.32,1.87.51,2.8.8,1.48.48,2.07,1.24,2,2.54a2.56,2.56,0,0,1-2.25,2.38c-2.2.51-4.07-.16-4.76-1.77-.15-.37-.66-.93,0-1.22s.9.2,1.07.78c.52,1.75,3.68,1.64,4.48.67a1.35,1.35,0,0,0-.36-2.13,3,3,0,0,0-.76-.31c-.57-.16-1.15-.29-1.73-.41-2-.41-2.93-1.29-2.79-2.75S323.76,232.57,325.69,232.57Z"/><path class="cls-2" d="M219.53,233.79a2.34,2.34,0,0,0,.95-.46,3.37,3.37,0,0,1,3.72-.45,2.73,2.73,0,0,1,1.64,2.79c0,1.88,0,3.76,0,5.64,0,.34.07.72-.48.73s-.51-.34-.51-.7c0-1.6,0-3.2,0-4.81,0-2.14-.59-2.88-2.23-3-1.87-.09-2.76.66-3.05,3a43.87,43.87,0,0,0,0,4.59c0,.39.15.89-.54.88s-.51-.53-.52-.9c0-3.69,0-7.39,0-11.08,0-.41-.09-.87.59-.84s.47.49.48.84C219.54,231.27,219.53,232.48,219.53,233.79Z"/><path class="cls-2" d="M239.7,233.76a1.36,1.36,0,0,0,.7-.39,3.61,3.61,0,0,1,3.82-.52,2.78,2.78,0,0,1,1.7,2.86c0,1.85,0,3.69,0,5.54,0,.37.07.78-.54.8s-.58-.45-.58-.85c0-1.64,0-3.28,0-4.91,0-1.89-.56-2.61-2-2.72a2.63,2.63,0,0,0-3.16,2.54,26.09,26.09,0,0,0-.06,3.65c0,.48,0,1,0,1.46,0,.34.15.81-.49.82s-.56-.48-.56-.88c0-1.25,0-2.5,0-3.76s0-2.37,0-3.55c0-.37-.33-.95.44-1.06S239.47,233.43,239.7,233.76Z"/><path class="cls-2" d="M264.79,233.87a3.89,3.89,0,0,1,4-1.16,2.72,2.72,0,0,1,2.14,2.62c0,2,0,4,0,5.94,0,.37.1.8-.53.77s-.48-.49-.49-.84c0-1.6,0-3.2,0-4.8,0-2.1-.6-2.79-2.33-2.83a2.74,2.74,0,0,0-2.92,2.85c0,1.6,0,3.2,0,4.8,0,.41.1.85-.59.83s-.51-.44-.51-.8c0-2.47,0-4.94,0-7.41,0-.36-.32-1,.46-1S264.5,233.45,264.79,233.87Z"/><path class="cls-2" d="M302.71,232.94c.78-.35,1.1-.06,1.35.63.83,2.32,1.72,4.61,2.69,7.18.64-1.65,1.19-3.06,1.73-4.47.37-1,.77-1.94,1.09-2.93a.71.71,0,0,1,1-.52c.51.2.11.59,0,.86-1,2.6-2,5.18-3,7.77a.73.73,0,0,1-.82.59c-.41,0-.7-.07-.87-.54C304.88,238.65,303.79,235.8,302.71,232.94Z"/><path class="cls-2" d="M289.71,235.47v-5.42c0-.39-.13-.84.57-.85s.71.32.71.84c0,3.34,0,6.67,0,10,0,.79.16,1.09,1,1,1.7-.08,3.4,0,5.11,0,.35,0,.82-.12.79.51s-.46.42-.77.42c-2.23,0-4.45,0-6.68,0-.64,0-.73-.29-.72-.82C289.72,239.3,289.71,237.38,289.71,235.47Z"/><path class="cls-2" d="M260.81,237.46v3.75c0,.38,0,.78-.54.81s-.59-.35-.59-.75v-7.82c0-.38,0-.66.54-.68s.6.31.6.73c0,1.32,0,2.64,0,4Z"/><path class="cls-2" d="M299.74,237.34c0-1.28,0-2.57,0-3.85,0-.33-.09-.69.48-.71s.61.27.61.71q0,3.9,0,7.81c0,.42,0,.74-.6.72s-.49-.38-.49-.72Z"/><path class="cls-2" d="M301,230.15c.08.49-.12.69-.68.71-.74,0-.6-.47-.64-.9s.11-.75.69-.76C301.06,229.19,300.94,229.66,301,230.15Z"/><path class="cls-2" d="M259.68,230c0-.48,0-.8.65-.78s.52.48.54.86,0,.81-.63.79S259.71,230.37,259.68,230Z"/><path class="cls-2" d="M161.24,235.73c2.27,1.59.95,4.21,1.88,6.21-1.12.33-1.51-.12-1.56-1.14s-.16-1.94-.29-2.9a1.73,1.73,0,0,0-1.86-1.6c-1.29,0-2.58,0-3.86,0-.6,0-.68.26-.67.75,0,1.43,0,2.85,0,4.28,0,.48,0,.77-.66.76s-.59-.29-.59-.72c0-3.79,0-7.58,0-11.37,0-.46,0-.78.64-.76,1.78.05,3.55,0,5.32.05,2.71.16,4,1.76,3.46,4.3C162.9,234.41,162.68,234.68,161.24,235.73Zm-6.35-3.08v1.88c0,.32,0,.64.46.63A28.25,28.25,0,0,0,160,235a2.26,2.26,0,0,0,1.83-2.54c0-1.19-.62-1.81-1.91-2.08a13.64,13.64,0,0,0-2.71-.12C154.89,230.27,154.89,230.27,154.89,232.65Z"/><path class="cls-2" d="M119.71,240.72a5.12,5.12,0,0,1-2.29,1.45,4,4,0,0,1-5.11-3.42,7.22,7.22,0,0,1,.15-3.3,4,4,0,0,1,6.42-2c.2.17.39.36.59.54.28-.22.17-.48.17-.7,0-.4.16-.54.57-.54s.55.2.55.57c0,1.26,0,2.51,0,3.76a49.61,49.61,0,0,1-.12,5.32,3.34,3.34,0,0,1-2.57,3.18c-1.87.44-3.69.42-5.11-1.15-.27-.3-.73-.83-.34-1.15s.87-.09,1.23.48c.77,1.23,2.06,1.14,3.29,1a2.64,2.64,0,0,0,2.36-2.3C119.61,242,119.62,241.52,119.71,240.72Zm-6.39-3.24a8.78,8.78,0,0,0,.1,1c.38,1.89,1.59,2.91,3.29,2.8a3.21,3.21,0,0,0,2.9-3.16c.13-1.58,0-3.12-1.44-4.12a3,3,0,0,0-3.18-.12C113.66,234.62,113.33,235.88,113.32,237.48Z"/><path class="cls-2" d="M144.65,240.81a4.43,4.43,0,0,1-3.77,1.48c-2.17-.29-3.42-1.74-3.69-4.26a6.63,6.63,0,0,1,.25-2.58,4,4,0,0,1,6.74-1.67,3,3,0,0,1,.31.39,1.42,1.42,0,0,0,.19-.2c.18-.39-.37-1.19.57-1.15s.46.8.47,1.2c.05,2.37,0,4.73,0,7.1a7.27,7.27,0,0,1-.3,2.27,3.57,3.57,0,0,1-3.53,2.43,4.24,4.24,0,0,1-4.09-1.54c-.2-.27-.56-.71-.14-1a.7.7,0,0,1,1,.32c.72,1.36,2,1.31,3.29,1.19a2.67,2.67,0,0,0,2.49-2.16A4.82,4.82,0,0,0,144.65,240.81Zm0-3.37c0-2.27-1.15-3.77-2.94-3.87a3,3,0,0,0-3.31,2.65c-.43,2.38.4,4.38,2.06,4.94a2.83,2.83,0,0,0,2.92-.54A3.89,3.89,0,0,0,144.69,237.44Z"/><path class="cls-2" d="M69,235.48c.06-.59.11-1.17.19-1.76.67-4.39,4.37-5.42,7.52-4.66a4.26,4.26,0,0,1,3.16,3c.08.26.31.68-.15.79s-.85.19-1-.4c-.55-1.88-2-2.49-3.75-2.55A4,4,0,0,0,70.64,233a8.56,8.56,0,0,0,.09,5.63,3.86,3.86,0,0,0,3.87,2.77,4,4,0,0,0,4-2.71,3.69,3.69,0,0,1,.23-.58c.26-.41.72-.24,1-.17s.15.42.07.68a5.22,5.22,0,0,1-5.37,3.77,4.91,4.91,0,0,1-5.17-3.82A10.36,10.36,0,0,1,69,235.48Z"/><path class="cls-2" d="M183.74,237.71h-2.92c-.42,0-.62.11-.59.6a3.13,3.13,0,0,0,2.28,2.92,2.94,2.94,0,0,0,3.45-1.45c.16-.27.23-.56.64-.55s.83,0,.53.67a4,4,0,0,1-3.8,2.42,3.82,3.82,0,0,1-3.87-2.46,6.19,6.19,0,0,1,.1-4.78,4.1,4.1,0,0,1,4.38-2.5,3.94,3.94,0,0,1,3.36,3.48c.27,1.66.27,1.66-1.36,1.65-.74,0-1.47,0-2.2,0Zm-.55-.93h0c.8,0,1.6,0,2.39,0s.73-.29.62-.83a2.78,2.78,0,0,0-3-2.4,3.09,3.09,0,0,0-2.85,2.69c-.07.46.09.53.47.52Z"/><path class="cls-2" d="M98.45,240.93a4.67,4.67,0,0,1-4.38,1.25,2.56,2.56,0,0,1-.19-5c1.1-.29,2.24-.44,3.37-.65.5-.09,1.1-.06,1.23-.73a1.7,1.7,0,0,0-.56-1.79,3,3,0,0,0-4.29,1.06c-.21.52-.52.66-.95.51s-.18-.58-.09-.88c.52-1.63,2.43-2.51,4.58-2.12a2.56,2.56,0,0,1,2.39,2.78c0,1.67,0,3.34,0,5,0,.51,0,1,.77.94.25,0,.39.07.38.35a.46.46,0,0,1-.36.44C99.59,242.43,98.88,242,98.45,240.93Zm.08-2.65c.17-.81-.09-1.12-1.09-.77a9.75,9.75,0,0,1-2,.26,3.07,3.07,0,0,0-1.54.54,1.57,1.57,0,0,0,.21,2.78A3.16,3.16,0,0,0,98.53,238.28Z"/><path class="cls-2" d="M192.56,232.56c1.78,0,3,.68,3.43,2,.09.27.41.7-.11.86A.65.65,0,0,1,195,235a2.59,2.59,0,0,0-3.49-1.3,1.44,1.44,0,0,0-1,1.32,1.27,1.27,0,0,0,.95,1.34c1.12.36,2.28.61,3.39,1a2.26,2.26,0,0,1,1.48,3.15,1.3,1.3,0,0,1-.19.37,4.09,4.09,0,0,1-3.85,1.36,3.09,3.09,0,0,1-2.94-2.11c-.11-.32-.42-.79.06-1s.78,0,1,.54a2.84,2.84,0,0,0,4,1.29,1.45,1.45,0,0,0,.86-1.42,1.3,1.3,0,0,0-1-1.23c-1-.32-2.08-.53-3.11-.83a2.29,2.29,0,0,1-1.93-2.27C189.26,233.65,190.59,232.56,192.56,232.56Z"/><path class="cls-2" d="M83.48,234.13a3.87,3.87,0,0,1,4.26-1.4,2.56,2.56,0,0,1,2,2.4c.07,2.13,0,4.25.07,6.37,0,.43-.15.55-.55.54s-.52-.2-.52-.59c0-1.74,0-3.48,0-5.22s-.55-2.51-1.84-2.64a2.65,2.65,0,0,0-3.24,2.2,29.79,29.79,0,0,0-.16,5,5.93,5.93,0,0,0,0,.73c0,.42-.18.53-.56.53s-.52-.19-.52-.57c0-3.9,0-7.8,0-11.7,0-.36,0-.58.5-.58s.59.17.59.61C83.47,231.15,83.48,232.5,83.48,234.13Z"/><path class="cls-2" d="M171.84,240.85a3.9,3.9,0,0,1-4,1.36,2.61,2.61,0,0,1-2.28-2.59c-.09-2.09,0-4.18-.05-6.27,0-.38.11-.54.53-.55s.54.26.54.64c0,1.75,0,3.49,0,5.23s.55,2.47,1.88,2.64a2.76,2.76,0,0,0,3.12-2,15.66,15.66,0,0,0,.21-4c0-.62,0-1.25,0-1.88,0-.39.12-.56.53-.57s.56.15.55.54v8.15c0,.38-.09.58-.52.57s-.6-.13-.56-.54C171.86,241.35,171.84,241.18,171.84,240.85Z"/><path class="cls-2" d="M103.55,234.07a4,4,0,0,1,3.3-1.51,2.94,2.94,0,0,1,3,3c.05,1.91,0,3.83,0,5.74,0,.38.13.77-.51.77s-.59-.3-.59-.74c0-1.7,0-3.4,0-5.11s-.52-2.42-1.78-2.59a2.72,2.72,0,0,0-3.28,2,5,5,0,0,0-.18,1.44c0,1.46,0,2.92,0,4.38,0,.34,0,.61-.47.62s-.6-.09-.6-.51q0-4.12,0-8.24c0-.33.08-.52.47-.51s.62,0,.59.48A6.65,6.65,0,0,0,103.55,234.07Z"/><path class="cls-2" d="M128.69,233.92a3.84,3.84,0,0,1,4.14-1.18,2.71,2.71,0,0,1,2,2.52c0,2.05,0,4.11,0,6.16,0,.34,0,.62-.47.63s-.58-.2-.58-.64c0-1.67,0-3.34,0-5,0-2-.55-2.74-2.11-2.82a2.75,2.75,0,0,0-3.12,2.75c-.08,1.59,0,3.2,0,4.8,0,.38.16.89-.52.91s-.52-.51-.52-.88c0-2.43,0-4.87,0-7.3,0-.35-.36-1,.42-1.05S128.41,233.45,128.69,233.92Z"/><path class="cls-2" d="M175.66,235.58v-5.64c0-.39,0-.74.56-.75s.58.31.58.73q0,5.69,0,11.37c0,.39.07.77-.54.76s-.6-.4-.6-.84C175.66,239.33,175.66,237.46,175.66,235.58Z"/><path class="cls-2" d="M124.74,237.57c0,1.24,0,2.49,0,3.74,0,.42,0,.74-.58.74s-.55-.36-.55-.76q0-3.85,0-7.71c0-.35-.14-.77.51-.79s.6.4.6.82Z"/><path class="cls-2" d="M123.59,230c-.06-.45,0-.77.62-.77s.6.4.58.82.12.84-.57.86S123.58,230.43,123.59,230Z"/><rect class="cls-3" width="400" height="400"/></g></g></svg>