<svg xmlns="http://www.w3.org/2000/svg" viewBox="0 0 213.22 42.19"><defs><style>.cls-1{fill:#fff;}</style></defs><title>Asset 69</title><g id="Layer_2" data-name="Layer 2"><g id="Layer_1-2" data-name="Layer 1"><path class="cls-1" d="M24.5,0C35.65,0,42.44,11.42,37,21c-.5.86-.53,1.4.24,2A15.64,15.64,0,0,1,39,24.82a2.54,2.54,0,0,1,0,3.55c-1,1-2.3,1.4-3.53.43a36,36,0,0,1-5.26-5.14c-1.08-1.3-.44-2.52.6-3.63,2.28-2.48,3.23-5.35,2.09-8.63C30.71,5,23,3.34,17.93,8.25c-4.08,3.91-8.1,7.88-12.15,11.83-.28.28-.56.56-.86.83-1.39,1.26-3,1.35-4.11.22s-1.09-2.68.3-4.05c3.33-3.3,6.68-6.56,10-9.83,1.31-1.27,2.63-2.53,4-3.75A13.49,13.49,0,0,1,24.5,0Z"/><path class="cls-1" d="M122.47,13.37c3.3-4,7.86-3.1,9.65.38,1.54-2.27,3.57-3.44,6.35-2.83s4.29,2.22,4.39,5.09c.12,3.65,0,7.3,0,11,0,.69-.18,1.1-1,1h-.17c-3.52.24-3.52.24-3.52-3.27,0-2.46,0-4.92,0-7.37-.06-1.91-.84-2.64-2.59-2.66a2.68,2.68,0,0,0-3,2.78c-.07,3-.09,5.94,0,8.91,0,1.26-.28,1.68-1.6,1.65-2.83-.08-2.83,0-2.83-2.76,0-2.57,0-5.14,0-7.71,0-1.89-.93-2.85-2.64-2.87a2.74,2.74,0,0,0-2.89,2.88c0,3-.06,6.06,0,9.08,0,1.06-.31,1.36-1.35,1.37-3.32,0-3.32.08-3.32-3.17,0-4.11,0-8.22,0-12.33,0-1.17.27-1.74,1.51-1.53a1.74,1.74,0,0,0,.51,0C121.67,10.79,123,11,122.47,13.37Z"/><path class="cls-1" d="M147,17c0-3.26.05-6.51,0-9.77,0-1.15.35-1.42,1.44-1.4q6,.09,12,0c1.09,0,1.45.34,1.31,1.36a4.82,4.82,0,0,0,0,1.2c.16,1.19-.29,1.59-1.51,1.54-2.45-.09-4.91,0-7.37,0-.84,0-1.17.19-1.21,1.13-.14,3.79-.17,3.79,3.67,3.79a34.32,34.32,0,0,0,3.93,0c1.67-.2,2,.5,2,2s-.31,1.89-1.78,1.8c-2.16-.14-4.34,0-6.5-.05-1,0-1.25.25-1.27,1.23-.08,4.18-.11,4.18,4,4.18,1.54,0,3.09.08,4.62,0,1.24-.08,1.66.38,1.5,1.55a4.82,4.82,0,0,0,0,1.2c.11,1-.22,1.41-1.32,1.4q-6.08-.09-12.16,0c-1,0-1.26-.34-1.25-1.29C147,23.49,147,20.23,147,17Z"/><path class="cls-1" d="M72.28,14c1.67-2.71,3.79-3.62,6.42-3.12,3.16.59,4.74,2.42,4.82,5.64.08,3.43,0,6.85,0,10.27,0,.86-.22,1.19-1.15,1.24-3.53.17-3.53.21-3.53-3.29,0-2.22,0-4.45,0-6.67S78,14.8,76.14,14.72a3.19,3.19,0,0,0-3.68,3.15c-.12,2.62,0,5.25,0,7.87S72.74,28,70.12,28s-2.24.32-2.25-2.27c0-5.71,0-11.41,0-17.12,0-.91,0-1.83,0-2.74S68.05,4.7,69,4.67c3.3-.13,3.3-.17,3.3,3.12Z"/><path class="cls-1" d="M23.69,42.17a2.48,2.48,0,0,1-2.51-1.61,2.27,2.27,0,0,1,.51-2.81c1.13-1.13,2.23-2.28,3.41-3.36.68-.62.63-1,0-1.64q-2.49-2.36-4.88-4.81c-.7-.72-1.18-.62-1.82.06-1,1.08-2.07,2.12-3.17,3.12a2.73,2.73,0,0,1-4,0,2.7,2.7,0,0,1,.25-3.94c1.86-1.85,3.73-3.69,5.65-5.48,1.54-1.44,2.68-1.46,4.16,0q5.19,5,10.3,10a2.43,2.43,0,0,1,0,3.89c-2,2-4,3.9-6,5.84A2.2,2.2,0,0,1,23.69,42.17Z"/><path class="cls-1" d="M196.58,11.14a5.41,5.41,0,0,1,.57-.12c4.31-.17,4.3-.17,5.47,4,.73,2.63,1.49,5.25,2.24,7.87.06.21.14.42.32,1,1.08-3.88,2.15-7.43,3-11,.35-1.39.87-1.94,2.39-1.88,3,.14,3,0,2,3q-2.46,7.18-4.91,14.36c-1.45,4.25-3.57,5.7-8,5.65-1.07,0-1.47-.25-1.5-1.42,0-1.56,0-2.54,2.07-2.41,1.64.1,2.42-1.36,1.84-3-1.65-4.84-3.36-9.66-5-14.49C196.87,12.14,196.74,11.65,196.58,11.14Z"/><path class="cls-1" d="M193.73,15.8c-1.3.06-2.24.12-3-1-.67-1-3.14-.83-4.18-.12a1.25,1.25,0,0,0-.68,1.27,1.59,1.59,0,0,0,1.31,1.22c1.92.49,3.9.81,5.79,1.43,2.76.92,3.94,3.47,2.74,6-1.49,3.16-4.43,3.73-7.51,3.65-2.88-.07-5.59-.64-6.85-3.77-.41-1-.34-1.5.91-1.41,1.46.1,2.86-.23,4.16,1.19,1,1.09,2.75.8,4.2.21a1.39,1.39,0,0,0,.94-1.31,1.29,1.29,0,0,0-1.07-1.19c-1.55-.38-3.1-.73-4.65-1.1-2.8-.68-4.41-2.39-4.42-4.71a5.37,5.37,0,0,1,4.21-5,11.18,11.18,0,0,1,5.91,0,5.35,5.35,0,0,1,3.23,2.09c.5.72,1.07,1.6.79,2.33S194.19,15.67,193.73,15.8Z"/><path class="cls-1" d="M109.39,13.64a4.83,4.83,0,0,1,2.15-2.31c1.21-.56,2.63-1.11,3.73-.27s.29,2.24.4,3.38c.08.74-.5.6-.94.56-4-.33-5.29.84-5.29,4.84,0,2.29,0,4.57,0,6.85,0,.89-.15,1.32-1.19,1.35-3.37.1-3.36.15-3.36-3.26,0-4.05,0-8.1,0-12.15,0-1.24.23-1.86,1.57-1.62a2.9,2.9,0,0,0,.51,0C109.25,11,109.25,11,109.39,13.64Z"/><path class="cls-1" d="M58.23,5.84c-2.85,0-5.71,0-8.56,0-1,0-1.38.24-1.36,1.32.08,3.2,0,6.4,0,9.6v7.88c0,3.56,0,3.52,3.55,3.43,1,0,1.24-.41,1.2-1.32-.06-1.48,0-3,0-4.45,0-.92.29-1.17,1.17-1.15a25.65,25.65,0,0,0,5-.2,7.25,7.25,0,0,0,6.16-7.81A7.12,7.12,0,0,0,58.23,5.84Zm2.25,8C60.29,16,59,17.15,56.54,17.2h-1a12.5,12.5,0,0,0-1.37,0c-.81.08-1.11-.22-1.08-1.05q.07-2.75,0-5.49c0-.79.19-1.15,1-1.08s2-.08,2.91.05C59.48,10,60.68,11.49,60.48,13.85Z"/><path class="cls-1" d="M101.35,16.81c0-2.19-.71-4.12-2.8-5.1a9.61,9.61,0,0,0-9.61.52A4,4,0,0,0,87,15c-.07.35-.38.9.34.84,1.45-.12,3,.64,4.33-.71,1.09-1.07,2.64-.95,4-.34,1,.45,1.09,1.39,1,2.33s-1.06.73-1.64.74a16.52,16.52,0,0,0-5.72.81,4.65,4.65,0,0,0-3.17,4.44,4.92,4.92,0,0,0,2.92,4.65c2.49,1.16,5.43.49,8-2.14-.56,2.3.44,2.68,2,2.44a3.1,3.1,0,0,1,.86,0c1.13.16,1.47-.32,1.45-1.44C101.31,23.32,101.37,20.06,101.35,16.81ZM95.63,24a3.87,3.87,0,0,1-2.88.71c-1.11-.13-2-.59-2-1.87s.86-1.74,1.93-1.94c.61-.11,1.24-.1,2-.16.53.26,1.58-.72,1.93.25A2.57,2.57,0,0,1,95.63,24Z"/><path class="cls-1" d="M178.93,16.24a4.9,4.9,0,0,0-3.5-4.91,10.38,10.38,0,0,0-7.5.16,5.17,5.17,0,0,0-3.21,3.33c-.11.35-.37,1,.2.95,1.45,0,3,.68,4.35-.6a3.73,3.73,0,0,1,4.19-.42c1,.41,1.1,1.36,1,2.31-.1,1.11-1,.72-1.6.75a17.9,17.9,0,0,0-5.73.77,4.64,4.64,0,0,0-3.28,4.52,4.79,4.79,0,0,0,3.28,4.72c2.72,1,5.12.4,7.38-1.8-.49,2,.55,2.13,1.89,2a4,4,0,0,1,1,0c1.2.18,1.55-.31,1.52-1.5C178.89,23.09,179,19.67,178.93,16.24Zm-4.49,6a3.63,3.63,0,0,1-5.21,2.1,1.75,1.75,0,0,1-.88-1.88A1.91,1.91,0,0,1,170,21c1-.18,2-.21,3.28-.32C174.71,20.17,174.64,21.22,174.44,22.25Z"/></g></g></svg>