<svg xmlns="http://www.w3.org/2000/svg" viewBox="0 0 400 400"><defs><style>.cls-1{fill:#fcfcfc;}.cls-2{fill:#fbfcfc;}.cls-3{fill:#f6f8fb;}.cls-4{fill:#fbfbfc;}.cls-5{fill:#fafbfc;}.cls-6{fill:none;}</style></defs><title>Asset 95</title><g id="Layer_2" data-name="Layer 2"><g id="Layer_1-2" data-name="Layer 1"><path class="cls-1" d="M137.36,188.23c-2.34-7.19-6.55-12.65-12-17.45-1.08-1-1.9-.89-2.7.66-1.68,3.2-4.09,6.07-5.38,9.4-1.12,2.86-4.87,4.78-3.33,8.63h0l5.3,8.29a3.53,3.53,0,0,1,.05,4.25c-1.79,2.52-2.82,5.5-4.82,7.91-1.06,1.28-1.44,2.94-.24,4.22,1.89,2,2.32,4.83,4.17,6.81,1.45,2.55,3,5,4.31,7.65.71,1.47,1.52,1.45,2.5.66a36.62,36.62,0,0,0,12.15-41Z"/><path class="cls-1" d="M246.18,216.06c0-8.71,0-17.42-.09-26.12,0-1.74.62-2,2.25-2.35,4.29-.83,6.71,1.41,8.92,4.51,2.36,3.31,4.86,6.52,7.3,9.78,1.61,0,.94-1.31,1-2,.08-3.49.07-7,0-10.47,0-1.84.55-2.72,2.57-2.2,1.8.47,3.68,0,5.52.25a1,1,0,0,1,.54.92q0,12.83,0,25.63c0,.84.47,1.85-.5,2.53-6.32,1.6-9.51-2.34-12.51-6.9-1.76-2.67-3.92-5.09-5.89-7.62-1.32.15-.76,1.19-.77,1.82-.06,3.45-.11,6.9,0,10.35.06,1.78-.61,2.36-2.29,2.18C250.21,216.14,248.17,216.66,246.18,216.06Z"/><path class="cls-2" d="M198,214.81c.11,1.07-.1,1.75-1.44,1.7-2.26-.08-4.56.25-6.77-.1-2.78-.44-3.43-3.41-5-5.25-.54-.63-.87-1.72-1.56-2.42s-.4-2.42-2-2.05-1.95,1.73-2.52,2.9c-.25.51-.06,1.22-.16,1.82-.3,1.65,1,4.16-.78,4.79-2.09.76-4.65.28-7,.2-1.2,0-1-1.11-1-1.89,0-8.32,0-16.64,0-25,0-1.54.66-2,2.05-1.89a39.56,39.56,0,0,0,4.62,0c1.6-.1,2.22.5,2.17,2.11-.09,2.65,0,5.3,0,8.25,3.08-1.41,4.5-4.13,6.08-6.31,2.33-3.23,5-4.53,8.75-4.06a38.09,38.09,0,0,0,4.32,0c-1,2-3.09,2.79-3.44,4.76-.56.81-.35,2-1.17,2.67l-.66.63c-3.52,3.46-3.58,4.64-.5,8.38.32.39.57.84.92,1.21.7.53.83,1.39,1.23,2.11.37.87,1.18,1.42,1.69,2.19C196.19,211.5,198.44,212.59,198,214.81Z"/><path class="cls-2" d="M315.09,188.52c.93,1.54,1.93,3,2.78,4.62,1.14,2.12,1.87,1.54,2.83-.19,2.82-5.1,6.35-6.57,11.93-5.28,1.5.35.92,1.06.47,1.71-2.52,3.63-5.05,7.25-7.65,10.82-.55.76-.87,1.51-.24,2.18,3,3.26,4.77,7.43,7.65,10.8.67.78,1.76,1.81,1.14,2.94-.46.83-1.71.18-2.58.38-5.5,1.31-8.67-1.47-10.78-6.12-.93-2.06-1.83-1.86-2.85,0-.83,1.47-1.77,2.88-2.66,4.32a2.5,2.5,0,0,1-3,2.31c-2.64-.2-5.31.21-7.95-.21-1.28-2,.75-3.23,1.16-4.83,1.64-2.82,3.73-5.32,5.59-8a3.23,3.23,0,0,0,.07-4.15c-1.95-3.09-4.4-5.84-6.12-9.09-1-3.24-.94-3.31,2.27-3.33,1.93,0,3.86,0,5.79,0C313.87,187.36,314.82,187.3,315.09,188.52Z"/><path class="cls-1" d="M110.15,219.72l2.8,4.42c.31,3.27,3.12,5.17,4.33,7.94a1.3,1.3,0,0,1,.12,1.81A37.2,37.2,0,0,1,93.72,236a21.08,21.08,0,0,1-5-1.56c-2-1-1.47-2-.72-3,3.37-4.38,5.32-9.57,8.33-14.15.81-1.23,1.43-2.06,3-1.88a14.09,14.09,0,0,0,3.67,0C106.62,214.85,109.08,216.1,110.15,219.72Z"/><path class="cls-2" d="M102.18,163a34.71,34.71,0,0,1,13.22,2.22c1.37.51,3.17.88,1.38,3.46A134.22,134.22,0,0,0,109,182.33c-.81,1.54-1.78,2.37-3.51,2.25-.51,0-1,0-1.54,0-7,0-7.95-.67-10.77-7.27a49.08,49.08,0,0,0-5.15-8.76c-.79-1.11-1.43-2.08.7-2.91A34.06,34.06,0,0,1,102.18,163Z"/><path class="cls-3" d="M241.73,202.15c0,3.89-.08,7.79,0,11.68.05,1.88-.36,2.76-2.51,2.72-7.45-.13-6.41.49-6.44-6.39,0-6.35.08-12.7-.05-19,0-2.43.59-3.52,3.25-3.49,5.72.06,5.72-.06,5.72,5.62Z"/><path class="cls-4" d="M102.38,209.18c-1.69-.4-4.09.92-5.17-.66-1.78-2.63-4.38-5.19-4.49-8.45s2.56-5.9,4.41-8.44c1.47-2,4.4-.52,6.66-.76,1.6-.17,3.88-.6,4.55.95,1.25,2.86,4.09,5.18,4.2,8.17s-2.75,5.5-4.31,8.18C107.12,210.08,104.43,208.89,102.38,209.18Z"/><path class="cls-1" d="M229.54,198.8c-1.3-6.61-5.62-10.32-11.94-11.46s-12.15.52-16.37,5.91c-2.46,1.14-3.17,3.32-3.45,5.76,0,1.86,0,3.72,0,5.58a2.4,2.4,0,0,0,0,.28c1,1.5,1.1,3.44,2.13,4.9a4,4,0,0,0,.67.7,3.59,3.59,0,0,1,1.15,1.24.37.37,0,0,1,.09.44c3.12,1.61,5.74,4.13,9.5,4.58a19.51,19.51,0,0,0,13.38-3.13c2-2.67,4.2-5.26,4.82-8.71A7.39,7.39,0,0,0,229.54,198.8Zm-13.12,10.61a6.33,6.33,0,0,1-7.16-2.1c-2.22-2.64-2.29-8.11,0-10.69a6.46,6.46,0,0,1,8-1.72,15,15,0,0,1,1.81,2C222.77,201.49,221.42,207.87,216.42,209.41Z"/><path class="cls-5" d="M302.68,210c0,7.44,1.15,6.48-6.34,6.52-6,0-12,0-18-.07,0-8.61,0-17.22-.07-25.83,0-2,.37-2.93,2.66-2.87,6.15.15,12.3.17,18.45,0,3.28-.09,2.19,2.13,2.35,3.74s.2,3.21-2.4,3c-3.16-.23-6.35-.1-9.52,0-.82,0-1.88-.53-2.44.63a5.53,5.53,0,0,0,0,3c3.1.8,6.26.15,9.39.37,1.21.09,2.45-.28,3.62.29.89,6.62.89,6.62-5.66,6.62-1.64,0-3.29.06-4.93,0s-2.7,0-2.68,2.2,1,2.3,2.66,2.29C294.06,209.81,298.37,209.91,302.68,210Z"/><path class="cls-1" d="M87.92,218.31c4.08-5.39,4.07-7.11-.1-12.26-.17-.21-.14-.58-.2-.88-3.06-5.17-3-7,.75-11.79,1.36-1.74,1.63-4.11,3.39-5.58a19.55,19.55,0,0,1-2.64-5c-.41-.89-1.82-1.13-1.53-2.43l0,0c-1.68-3-3.42-6-5-9-.64-1.19-1.09-1.85-2.49-.78-6.27,4.77-10.9,10.85-12.76,18.44-2.26,9.23-2.34,18.45,2.2,27.38a42.12,42.12,0,0,0,10.3,12.63c1.27,1.12,2,.76,2.79-.71,1.57-3,3.32-6,5-8.93A3,3,0,0,1,87.92,218.31Z"/><rect class="cls-6" width="400" height="400"/></g></g></svg>