<svg xmlns="http://www.w3.org/2000/svg" viewBox="0 0 265.45 66.7"><defs><style>.cls-1{fill:#fff;}</style></defs><title>Asset 43</title><g id="Layer_2" data-name="Layer 2"><g id="Layer_1-2" data-name="Layer 1"><path class="cls-1" d="M47.64,16.6C46.19,9.36,40.25,0,24.71,0,12.65,0,2.41,8.69,2.41,20c0,9.65,6.62,16.26,16.8,18.34l8.93,1.79c5,1,7.77,3.9,7.77,7.57,0,4.54-3.67,7.87-10.38,7.87-9,0-13.42-5.7-14-12L0,46.67c1,9.12,8.49,20,25.43,20,14.92,0,23.12-9.94,23.12-19.79,0-9-6.22-16.6-17.85-18.82l-8.93-1.74c-4.73-.92-6.95-3.71-6.95-7.24,0-4.2,3.95-8.11,10-8.11,8.15,0,11,5.51,11.68,9ZM191.41,65.25H204V52.7H191.41ZM112.55,13.18V1.35h-53V13.18H79.78V65.35H92.33V13.18Zm33,25.29V65.35H158V38.47L180.51,1.35h-14L152.17,26.74,137.84,1.35H123.22ZM265.45,65.35v-64H252.8v64Zm-74-25.73h35V27.08h-35Zm0-25.62h50.53V1.45H191.41Z"/></g></g></svg>