<svg xmlns="http://www.w3.org/2000/svg" viewBox="0 0 400 400"><defs><style>.cls-1{fill:#fff;}.cls-2{fill:#fdfdfd;}.cls-3{fill:none;}</style></defs><title>Asset 106</title><g id="Layer_2" data-name="Layer 2"><g id="Layer_1-2" data-name="Layer 1"><path class="cls-1" d="M87,210.05H72.73l7.2-9.45a.43.43,0,0,1,.35-.13c1.51,1.06,2.28,2.74,3.45,4.09,1,1.15,1.83,2.43,2.75,3.64.79,1,.81,1.05,1.47,0,1.23-2,2.41-4,3.65-6,.26-.43.43-.94,1-1.13a.86.86,0,0,1,.39,0c1.25,1.1,1.77,2.67,2.69,4,.67,1.28,1.5,2.47,2.19,3.74.24.44.74.89.16,1.44a9,9,0,0,1-3.27.2c-2.33,0-4.67.07-7,0A2,2,0,0,1,87,210.05Z"/><path class="cls-1" d="M118.42,171.76h17.23l-8.42,10.82a.51.51,0,0,1-.19.34.74.74,0,0,1-.39,0,2.4,2.4,0,0,1-.81-.74c-2.36-3.17-4.75-6.31-7.1-9.49a1.64,1.64,0,0,1-.37-.73A1.33,1.33,0,0,0,118.42,171.76Z"/><path class="cls-1" d="M101.51,172l-7.25,9.5c-.28.36-.58.71-.88,1.06a.38.38,0,0,1-.37.33l-.14-.12-8.46-11.07h4.5c3.74,0,7.48,0,11.22,0C100.58,171.74,101.15,171.45,101.51,172Z"/><path class="cls-1" d="M109.82,171.75l-8,0c-.1-.38.21-.58.39-.83q3.6-4.8,7.21-9.59c.31-.42.53-1,1.15-.21,2.61,3.56,5.26,7.08,7.89,10.62l0,0a1.26,1.26,0,0,1-1,.41,53.6,53.6,0,0,1-7.17-.11A2,2,0,0,1,109.82,171.75Z"/><path class="cls-1" d="M94.24,218.9l8.4,11.17H87.16l6.57-11.17A.33.33,0,0,1,94.24,218.9Z"/><path class="cls-1" d="M126.46,219.18l6.22,10.53c-.47.45-.9.28-1.28.28-4.24,0-8.49,0-12.73,0a2.37,2.37,0,0,0-1.34.11l-.1-.17a1.78,1.78,0,0,1,.54-1.09q3.58-4.65,7.13-9.32c.25-.32.48-.69.93-.78S126.32,218.92,126.46,219.18Z"/><path class="cls-1" d="M80.17,200.59h-.24c0-.58-.39-.92-.69-1.31-2.14-2.83-4.28-5.64-6.6-8.69H86.53a.73.73,0,0,1,.68.33.83.83,0,0,1,0,.58C84.84,194.52,82.68,197.69,80.17,200.59Z"/><path class="cls-1" d="M140.1,200.05c-.14.61.36.92.65,1.3,2.11,2.84,4.25,5.66,6.56,8.72H132.88a.59.59,0,0,1-.18-.35,5.74,5.74,0,0,1,1.45-2.32c1.87-2.45,3.75-4.9,5.58-7.39A.38.38,0,0,1,140.1,200.05Z"/><path class="cls-1" d="M140.1,200.05h-.3c-.48.13-.66-.27-.86-.53-2-2.65-4.06-5.23-5.92-8a.86.86,0,0,1,0-.59.62.62,0,0,1,.45-.38h14Z"/><path class="cls-1" d="M117.33,230.16v0c-2.13,2.77-4.29,5.52-6.35,8.34-.72,1-1.08,1.17-1.89,0-2-2.71-4.08-5.32-6.13-8-.15-.87.54-.54.88-.54,2,0,4,0,6,0a2,2,0,0,1,.46-.29,36.79,36.79,0,0,1,6-.1C116.72,229.61,117.16,229.67,117.33,230.16Z"/><path class="cls-1" d="M132.9,210.29l5.06,8.36H126.54c-.25.12-.37,0-.46-.21a.92.92,0,0,1,.24-.76c1.89-2.36,3.58-4.86,5.5-7.2a1.45,1.45,0,0,1,.51-.33A.66.66,0,0,1,132.9,210.29Z"/><path class="cls-1" d="M87,210.05h.71a3.79,3.79,0,0,1,.45.34c1.63,2.12,3.21,4.27,4.87,6.37a3.31,3.31,0,0,1,.86,1.55.53.53,0,0,1-.17.34H82.12c1.52-2.57,2.95-5,4.36-7.37C86.7,210.9,87.07,210.57,87,210.05Z"/><path class="cls-1" d="M132.9,210.29h-.55c-3.08.23-6.16.08-9.25.1A1.33,1.33,0,0,1,122,210c-.27-.65.18-1.11.46-1.61.59-1.07,1.2-2.13,1.84-3.16s1.34-2.26,2-3.37c.29-.46.56-1,1.25-.82a7.87,7.87,0,0,1,1.78,2.56,56.09,56.09,0,0,1,3.52,6.17l0,.32A.28.28,0,0,1,132.9,210.29Z"/><path class="cls-1" d="M133.44,190.57l-.3.35a.57.57,0,0,1-.74-.1c-1.53-2.1-3.17-4.11-4.72-6.2a3.56,3.56,0,0,1-.81-1.41.78.78,0,0,1,.13-.37l.23-.26c.4.48,1,.25,1.42.25,3,0,6.06,0,9.35,0C136.41,185.54,134.92,188.05,133.44,190.57Z"/><path class="cls-1" d="M87.09,190.89a.59.59,0,0,1-.56-.29l-4.48-7.81H92.87l.07.07a.64.64,0,0,1,.14.36A4.05,4.05,0,0,1,92,185.08q-2.08,2.8-4.19,5.59C87.6,190.85,87.39,191,87.09,190.89Z"/><path class="cls-1" d="M126.21,218.37l.33.28-.08.53-.64-.3a38.23,38.23,0,0,1-8.88-.09.59.59,0,0,1-.14-.85,53,53,0,0,1,4.6-7.42.55.55,0,0,1,.4,0A51.72,51.72,0,0,1,126.21,218.37Z"/><path class="cls-1" d="M93.73,218.66l0-.31a47.06,47.06,0,0,1,4.66-7.85.61.61,0,0,1,.4,0c1.61,2.28,2.86,4.79,4.32,7.16a.81.81,0,0,1,.11.66c-.28.57-.8.33-1.22.33-2.15,0-4.31,0-6.46,0-.44,0-.92-.15-1.32.19h-.51A.33.33,0,0,1,93.73,218.66Z"/><path class="cls-2" d="M252.83,175c6.84,0,13.68,0,20.52,0,1,0,1.31.26,1.29,1.3-.07,3.46,0,6.93-.05,10.4,0,.47.47,1.41-.51,1.39s-2.08.65-2.67-.9a20.65,20.65,0,0,0-4-6.12,7.35,7.35,0,0,0-5.57-2.64c-3.51-.15-7-.14-10.53-.18-.89,0-1.17.21-1.16,1.15q.06,8.31,0,16.63c0,.82.15,1.15,1,1.11,1.76-.09,3.52,0,5.27-.08a6.45,6.45,0,0,0,6-4.11,16.41,16.41,0,0,0,1.15-3.4c.12-.61.35-.81,1-.83,1.86,0,1.86-.08,1.86,1.82,0,5.83,0,11.65,0,17.47,0,.44.39,1.32-.58,1.2-.79-.1-2,.75-2.28-.89a23.6,23.6,0,0,0-.94-2.88c-1.09-3.51-3.66-4.9-7.14-5-1.47,0-3,0-4.43,0-.7,0-1,.16-1,.92,0,5,0,10.07,0,15.11,0,2,.79,3,2.78,3.62,1.1.32,2.25.48,3.38.72,1.42.29.53,1.4.72,2.12s-.43.73-.95.73H231.88c-.61,0-1.21,0-1-.84s-.68-1.87.84-2c.87-.09,1.75-.17,2.61-.33,2.9-.53,3.66-1.45,3.67-4.37V186.25c0-1.25,0-2.5,0-3.74,0-2-.68-2.91-2.58-3.64a14.51,14.51,0,0,0-3.48-.85c-1.7-.2-1-1.47-1.05-2.33-.1-1,.78-.69,1.29-.69C239.05,175,245.94,175,252.83,175Z"/><path class="cls-2" d="M304,223.62c-7,0-14,0-21.08,0-.54,0-1.46.36-1.3-.8.1-.81-.61-2.05,1.09-2.09a17.67,17.67,0,0,0,2.6-.36c2.61-.46,3.43-1.45,3.43-4.14v-33.4c0-2.42-.64-3.34-2.91-4.09a18.55,18.55,0,0,0-2.55-.61c-1.63-.3-2.09-1-1.67-2.64.2-.78.8-.48,1.24-.48,5.13,0,10.26,0,15.38,0h9c.59,0,1.37-.15,1.15.83-.17.73.74,2-.92,2.1a28,28,0,0,0-3,.44c-2.75.52-3.51,1.43-3.51,4.22q0,13.31,0,26.61a55.44,55.44,0,0,0,.15,7.06c.36,2.81,1.36,3.87,4.14,4a46.63,46.63,0,0,0,9.95-.26,6,6,0,0,0,3.89-2.16,34.84,34.84,0,0,0,5.07-8.54c.6-1.41,1.49-1.35,2.6-1.32.48,0,.62.17.59.67-.31,4.79-.59,9.58-.88,14.37-.06,1-.81.57-1.26.57C318.15,223.63,311.08,223.62,304,223.62Z"/><path class="cls-2" d="M209.29,223.62H196.8c-.56,0-1.35.2-1.15-.81.14-.74-.7-2,1-2a22.76,22.76,0,0,0,3.3-.32c2.3-.43,3.14-1.48,3.15-3.82q0-9.36,0-18.72V182.79c0-2.43-.75-3.42-3.09-4.09-.88-.25-1.79-.43-2.69-.61-1.6-.3-2.1-1.1-1.65-2.64.22-.76.82-.45,1.26-.45,6.52,0,13,0,19.55,0,1.76,0,3.52,0,5.27,0,.65,0,1.2.11,1,.88s.76,1.86-.8,2c-1.19.14-2.39.3-3.56.54-2.18.45-3,1.42-3,3.66,0,3,0,6,0,9v24.83c0,2.69.85,3.77,3.46,4.34a24.88,24.88,0,0,0,2.87.47c.78.06,1.05.3,1.08,1.15.06,1.31-.17,1.83-1.68,1.77C217.15,223.53,213.21,223.62,209.29,223.62Z"/><path class="cls-2" d="M174.33,223.62H161.85c-.56,0-1.36.2-1.16-.81.15-.74-.7-2,1-2a23.06,23.06,0,0,0,3.43-.36c2.15-.42,3-1.46,3-3.65,0-4.71,0-9.43,0-14.14V183.06c0-2.78-.7-3.7-3.39-4.41a23.46,23.46,0,0,0-3-.64c-.86-.11-1-.49-1.13-1.33-.13-1.44.38-1.75,1.76-1.73,8,.07,16,0,24,.05.53,0,1.49-.41,1.35.74-.1.83.71,2.13-1.1,2.22a15.45,15.45,0,0,0-4.09.7,2.8,2.8,0,0,0-2,2.22,11.46,11.46,0,0,0-.22,2.34q0,16,0,32c0,3.56.7,4.41,4.23,5.12a16.27,16.27,0,0,0,2.18.37c.78,0,1,.29,1.09,1.15,0,1.3-.18,1.83-1.68,1.77C182.19,223.53,178.26,223.62,174.33,223.62Z"/><path class="cls-1" d="M92.63,201.15a.88.88,0,0,0-.19-.76q-2.68-4.47-5.35-9v-.54l.54-.28a2,2,0,0,1,1.41-.43c3,0,6-.09,8.94.06,1,.16.94.74.58,1.42a28.21,28.21,0,0,1-1.72,2.84,5.4,5.4,0,0,0-.42.7c-1.17,2-2.2,4.07-3.55,6Z"/><path class="cls-1" d="M109.82,171.75h.33a2.16,2.16,0,0,1,.75.78c1.77,3,3.64,5.93,5.33,9,.25.45.69.93.13,1.48a69,69,0,0,1-12.69,0l-.2-.18q2.82-4.82,5.62-9.64A3.66,3.66,0,0,0,109.82,171.75Z"/><path class="cls-1" d="M92.93,183.16v-.3l.44-.28c.35.46.85.25,1.28.25,2.94,0,5.88,0,8.81,0l0,0c0,.08.11.18.07.25a46.63,46.63,0,0,1-4.45,7.36.8.8,0,0,1-.59,0A80,80,0,0,1,92.93,183.16Z"/><path class="cls-1" d="M116.75,182.79l9.94,0,.31,0,0,.28a8.58,8.58,0,0,1-1.85,2.72,40.15,40.15,0,0,1-3.7,4.63.78.78,0,0,1-.6-.05,52.37,52.37,0,0,1-4.28-7.26A.71.71,0,0,1,116.75,182.79Z"/><path class="cls-1" d="M110.13,230h-.3a24.67,24.67,0,0,0-2.45-4.45c-1.19-2.13-2.44-4.23-3.66-6.34.15-.89.87-.65,1.4-.68,1.6-.07,3.2,0,4.8-.06a20.66,20.66,0,0,1,6.23-.13.71.71,0,0,1,.39,1.12A89.6,89.6,0,0,1,110.13,230Z"/><path class="cls-1" d="M103.46,218.63H110l-4.93-8.32c1.55-.51,3.16,0,4.71-.3a1.17,1.17,0,0,1,.42-.27,17.27,17.27,0,0,1,3.52-.1,1.31,1.31,0,0,1,1.2.5,1.08,1.08,0,0,1-.12.93,79.6,79.6,0,0,1-4.54,7.72c-1.71.24-3.42,0-5.12.12-.49,0-1-.18-1.43.3A.67.67,0,0,1,103.46,218.63Z"/><path class="cls-1" d="M133.14,191.4c-1.56,1.87-2.54,4.11-3.85,6.14-.6.92-1.13,1.88-1.69,2.82-.72.69-1-.09-1.21-.47-.92-1.51-1.91-3-2.71-4.58-.09-.19-.19-.36-.29-.53-.7-1.06-1.35-2.15-2-3.25-.4-.69-.23-1.09.54-1.25,3.1-.22,6.19-.07,9.28-.09a3.11,3.11,0,0,1,1.33.36.69.69,0,0,0,.58.37Z"/><path class="cls-1" d="M98.77,199.42A32.06,32.06,0,0,0,96.24,195l.2-.52a21.21,21.21,0,0,1,5.34,0c.74.39.41.91.13,1.38-.67,1.08-1.39,2.14-2.12,3.19C99.5,199.32,99.31,199.91,98.77,199.42Z"/><path class="cls-1" d="M101.58,205.3c-1.25-.56-2.57-.16-3.86-.26-.77,0-1.55,0-2.32,0l3.34-5.27c.71-.37.88.27,1.12.65.82,1.27,1.53,2.62,2.31,3.92a.81.81,0,0,1,0,.59A.54.54,0,0,1,101.58,205.3Z"/><path class="cls-1" d="M114.81,205l-4.65,5h-.37l-4.43-4.69c.15-.77.8-.63,1.3-.67,1-.08,2,0,3-.09a1.6,1.6,0,0,1,.49,0c1.48.28,3-.18,4.48.31Z"/><path class="cls-1" d="M101.58,205.3l.48-.27a.3.3,0,0,1,.2.27q1.15,1.95,2.32,3.9c.32.53.46.93-.43.91-1.78-.05-3.57-.07-5.36-.1Z"/><path class="cls-1" d="M102.26,205.3l-.2-.27v-.59c.23-.67.83-1.17.89-1.91h.14c.47,1,1.52,1.54,2,2.51C104.17,205.17,103.17,204.74,102.26,205.3Z"/><path class="cls-1" d="M118.15,194.79a46.37,46.37,0,0,0,5.53,0l.29.34a16.2,16.2,0,0,0-2.84,4.67.29.29,0,0,1-.33-.05c-.28-.32-.43-.72-.69-1.05-.66-1.26-1.92-2.19-2.07-3.73Z"/><path class="cls-1" d="M121,199.77h.11a34.33,34.33,0,0,1,3.42,5.31l-6.07,0a.49.49,0,0,1-.65,0l-3,0,0,0c.09-1.25,1.12-1.71,1.94-2.33.14,0,.32,0,.39.08.93,1.3,1.35.51,1.9-.38S119.85,200.26,121,199.77Z"/><path class="cls-1" d="M117.83,205.05h.65a33.77,33.77,0,0,0,2.72,4.7c-.32.63-.9.32-1.36.34-1.52,0-3,0-4.77,0Z"/><path class="cls-1" d="M102.35,194.57l-.28.06a35.42,35.42,0,0,1-3.06-4l5.85,0a.76.76,0,0,1-.1,1C104,192.57,103.66,194,102.35,194.57Z"/><path class="cls-1" d="M99.56,198.92h5.57a20.06,20.06,0,0,1-2,3.61H103Z"/><path class="cls-1" d="M109.85,204.75c-1.54-1.9-3.09-3.8-4.45-5.83l.19-.17a49.46,49.46,0,0,1,8.69-.16,1.12,1.12,0,0,1,.43.16.43.43,0,0,1,.21.36c-1.22,1.87-2.7,3.55-4,5.33a.7.7,0,0,1-.7.33Z"/><path class="cls-1" d="M105.11,198.94c-.46-1.19-1.47-2-2.14-3.05-.25-.37-.63-.66-.63-1.16a10.08,10.08,0,0,1,4.91-.23.94.94,0,0,1,.37.25c-.15,1.71-1.21,2.95-2.23,4.19v0Z"/><path class="cls-1" d="M110.68,183.64l4.41,7-.19.17c-1.55.44-3.14.15-4.72.21h-.51c-1.09.05-2.19.05-3.28,0-.52,0-1.14.05-1.34-.67,1.5-2.23,3-4.44,4.49-6.71C110,182.86,110.3,183.17,110.68,183.64Z"/><path class="cls-1" d="M120.94,190.58c-.43,1.18-1.43,1.94-2.06,3-.25.41-.77.66-.73,1.24l0,0a.31.31,0,0,1-.34.1,1.26,1.26,0,0,1-.47-.35c-.69-.9-1.29-1.87-1.91-2.82-.21-.32-.56-.63-.34-1.1l0,0Z"/><path class="cls-1" d="M120.39,198.85a9.83,9.83,0,0,1-3.62,3.68,18.19,18.19,0,0,0-1.94-3.37,1.1,1.1,0,0,0,0-.18Z"/><path class="cls-1" d="M110.15,190.62l2.2,4.16H107.6a26.3,26.3,0,0,0,2.21-4.16Z"/><path class="cls-1" d="M112.61,195.32c.11-.83.76-.4,1.18-.47,1.3-.21,2.68.38,3.95-.34l.05,0c-.62,1.65-1.9,2.83-3,4.17C113.84,197.74,113.5,196.35,112.61,195.32Z"/><rect class="cls-3" width="400" height="400"/></g></g></svg>