<svg xmlns="http://www.w3.org/2000/svg" viewBox="0 0 161.41 157.11"><defs><style>.cls-1{fill:#fff;}</style></defs><title>Asset 47</title><g id="Layer_2" data-name="Layer 2"><g id="Layer_1-2" data-name="Layer 1"><path class="cls-1" d="M161.41,44.16c-5.18,5.83-11.23,10.65-17.47,15.25-.94.69-.94,1.15-.26,2,1.71,2.15,1.11,4.8-1.29,6.37a1,1,0,0,1-1.21-.09,8.74,8.74,0,0,1-3-2.67c-.75-1.2-1.5-1.06-2.59-.51a38.09,38.09,0,0,1-9.81,3.63,13.13,13.13,0,0,1-3.35.27q2.06-1.14,4.13-2.26a73.62,73.62,0,0,0,7.83-5,1.29,1.29,0,0,0,.47-2,34.91,34.91,0,0,1-2.94-5.7c-.27-.81-.9-.64-1.48-.62a63.76,63.76,0,0,1-10.79-.25,5.25,5.25,0,0,1-2.21-.7c2.93-.19,5.83-.48,8.73-.79.4,0,.8-.08,1.19-.15a10.17,10.17,0,0,0,3.07-.65c1.07-.57.12-1.81.42-2.74s.4-2.15,1.22-3.1c.79.77.79,1.84,1.29,2.67A2,2,0,0,0,136,48.28a51.15,51.15,0,0,0,16.77-8.44,3.16,3.16,0,0,1,2.64-.62,23.57,23.57,0,0,1,6,1.94ZM145.4,51a18.05,18.05,0,0,0-4.3.55c-4,.62-4,.73-1.73,4.09a3.47,3.47,0,0,0,.26.37c.17.19.36.37.63.18A17.43,17.43,0,0,0,145.4,51Z"/><path class="cls-1" d="M44.09,78A33.78,33.78,0,1,1,77.89,112,33.73,33.73,0,0,1,44.09,78ZM70.87,48.88l-.08-.2c-.58.08-1.16.14-1.73.26A26.36,26.36,0,0,0,51.84,60.76c-8.34,12.81-6.28,28,3.43,38.43,6.07,6.52,13.51,10.38,22.69,10A15.52,15.52,0,0,0,92.62,98c2.77-9.93-5.35-20.08-15.11-19.53A13.14,13.14,0,0,1,67,74C60.38,67.21,59.39,56.31,69,50,69.63,49.64,70.25,49.27,70.87,48.88Zm11.6,14a4.52,4.52,0,0,0-4.57-4.53,4.64,4.64,0,0,0-4.44,4.56,4.58,4.58,0,0,0,4.47,4.51A4.47,4.47,0,0,0,82.47,62.86Z"/><path class="cls-1" d="M116.39,111.19c.42-.89.8-1.64,1.14-2.41.83-1.93.6-2.36-1.42-2.7a2.42,2.42,0,0,1-1.58-.52,5,5,0,0,1,3.24-1c1.26.1,1.52-.64,1.73-1.58a29.79,29.79,0,0,0,.3-9.56c-.15-1.37.33-1.78,1.54-1.85,1-.07,2-.19,3-.32.8-.11,1.07.21,1.05,1-.12,4.33-.52,8.61-2.4,12.57-.48,1-.31,1.5.56,2.05,2.36,1.5,4.72,3,7,4.61,1,.73,1.67.46,2.38-.41a17.05,17.05,0,0,0,3.59-9.07,8.06,8.06,0,0,1,.38-2.29,3.46,3.46,0,0,1,1.39,1.88c1.53,3.79.71,7.47-.45,11.13a2.39,2.39,0,0,1-.28.7c-1.74,2.44-.92,4.42.92,6.4a58.46,58.46,0,0,1,4.07,5.19c.8,1.1,1.27.76,1.82-.17a20.79,20.79,0,0,0,2.29-7.56,45,45,0,0,0,.19-10.63c0-.35-.2-.8.08-1a20.6,20.6,0,0,1,4.72-2.52c.42-.16.42.29.45.58a31.16,31.16,0,0,1-1.43,14.86A50.73,50.73,0,0,1,144.49,130a2.61,2.61,0,0,1-2.76,1.3,1.51,1.51,0,0,0-.3,0c-2.48.05-4.58-.25-5.11-3.39-.31-1.85-1.48-3.48-2.42-5.13-.4-.7-.7-1.07-1.6-.49-1.87,1.22-1.92,1.16-3.11-.66-.84-1.3-1.62-2.64-2.51-3.9-.43-.62-.5-1.09.18-1.48,1-.56.61-1,0-1.58-1.79-1.6-3.58-3.19-5.32-4.84-.62-.59-1-.51-1.65,0A5.27,5.27,0,0,1,116.39,111.19Z"/><path class="cls-1" d="M41.3,3.06a6.76,6.76,0,0,1,2.56,2,55.13,55.13,0,0,1,6.65,7.5c.47.65.92,1.31,1.65.24a.61.61,0,0,1,.51-.24c1.85.42,3.71.83,5.53,1.37.58.17.23.8.08,1.18A12.93,12.93,0,0,1,55.41,20a2,2,0,0,0-.54,2.39,59.44,59.44,0,0,1,3,13c0,.25.08.5.1.74a.91.91,0,0,1-.73,1c-.54.11-.58-.44-.7-.79A33.48,33.48,0,0,0,54.14,30a20.47,20.47,0,0,0-2.27-3.34,1,1,0,0,0-1.54-.22c-2.64,1.71-5.31,3.39-7.94,5.1-.85.55-1.23,1-.46,2.18,1.89,3,2.92,6.34,4.38,9.51.42.91-.42,1.07-1,1.36-.69.37-.88-.13-1.07-.61A33.31,33.31,0,0,0,38.6,34.9a3,3,0,0,0-3-1.24c-1.06.15-2.14.13-3.29.2a2.42,2.42,0,0,1,1.3-1.33c1.23-.72,1.05-1.39.16-2.31a49.92,49.92,0,0,0-9.12-7.74,1.8,1.8,0,0,1-1-1.82,24.44,24.44,0,0,1,.75-5.19c.41-1.61.48-1.62,1.73-.61A70,70,0,0,1,37.83,26.68c1.16,1.51,1.18,1.52,2.63.19,2.17-2,4.29-4.05,6.51-6,.93-.82.83-1.44.23-2.4a28.89,28.89,0,0,0-6.26-6.83,1.86,1.86,0,0,1-.75-2.05C40.62,7.46,40.93,5.3,41.3,3.06Z"/><path class="cls-1" d="M36.34,125.79a17.78,17.78,0,0,1-3.54-.35,3.42,3.42,0,0,0-3.51.79A24,24,0,0,1,19.88,131c-1.23.3-1.33.8-.35,1.61a9.69,9.69,0,0,1,1.09,1.29c-1.25,0-2.26.24-3.15-.3-7.16-4.27-12.06-10.12-12.16-18.83-.07-6.16,3.06-10.7,8.38-13.74,9.17-5.25,18.24-2,24.77,4.26a33.27,33.27,0,0,1,4.6,5.71c.47.69.47,1.06-.52,1-2.25,0-4.5,0-6.75,0a1,1,0,0,1-1-.64c-4-8.05-13.8-10.23-21.17-3.58-4,3.6-5.72,8-4.4,13.2a13.5,13.5,0,0,0,7.4,8.76,2,2,0,0,0,1.46.09,11.34,11.34,0,0,0,7.26-5.13,1.32,1.32,0,0,0-.53-2.17,15,15,0,0,1-5.68-5.4c-.77-1.35-.64-1.55.94-1.69.29,0,.59-.07.89-.09,2.51-.16,2.56-.18,3.61,2.13A6.5,6.5,0,0,0,26.86,120c.71.54,1.39.81,2-.18.31-.53.74-.54,1.28-.28,1.21.58,2.45,1.12,3.69,1.64.89.38,1.08.93.35,1.56-.91.77-.52,1.19.26,1.66A4.55,4.55,0,0,1,36.34,125.79Z"/><path class="cls-1" d="M112.06,20.81c-5.71,5.21-10,11.3-16.59,15.68A157.81,157.81,0,0,0,104.29,23a76.57,76.57,0,0,0,6.37-14.19,2.12,2.12,0,0,1,1.56-1.61A40,40,0,0,0,116,5.9a1.08,1.08,0,0,1,1.65.7,11.93,11.93,0,0,1,.85,6.88q-2.25,10.4-4.46,20.8c-.06.29,0,.59-.09,1A22.44,22.44,0,0,0,119,31.71a38.87,38.87,0,0,0,10.07-13.09c.25-.5.47-1,1.12-1.07,2.41-.4,4.8-.83,7.53-1.31-.64,1-1.14,1.69-1.57,2.45C131.47,27,124.38,33,116.41,37.91c-2.06,1.29-4.08,2.87-6.66,3.16-.49,0-1,.13-1.77.25A54.64,54.64,0,0,0,112.06,20.81Z"/><path class="cls-1" d="M0,56.77C.07,48.9,2.76,42.83,6.89,37.28c.58-.77,1-.67,1.4.1,1,1.67,2,3.35,3.07,5,.55.84.1,1.39-.29,2A26.74,26.74,0,0,0,7,57.11C6.58,65,12,71.25,20,72.77c2,.38,4.07-.45,5.87-1.46a25,25,0,0,0,11.2-12.59c.85-2,1.63-4.08,2.42-6.12.17-.46.41-.83,1-.64s.35.65.26,1c-1.43,5.92-3.4,11.59-7.42,16.35a19.84,19.84,0,0,1-12.43,6.9c-6.58,1-14.07-2.68-17.7-8.22C.76,64.26.48,60.11,0,56.77Z"/><path class="cls-1" d="M63.13,157.11a1.18,1.18,0,0,1-.11-1.32,8.88,8.88,0,0,0,.36-1.14c1-4.12.84-4.29-3.15-5.7S52.08,146,48,144.4a3.09,3.09,0,0,0-2.7.1,11.79,11.79,0,0,1-6,1.39,47.17,47.17,0,0,0,4.22-2.63c.62-.5.86-.89.16-1.55a3,3,0,0,1-1-2.35c.89.46,1.68.84,2.44,1.26a2.57,2.57,0,0,0,3-.31,49.55,49.55,0,0,0,11-10.76c3.13-4.13,3.09-4.16,8.22-4.61l.15,0c3.1-.25,3.08-.26,2.89,3-.32,5-.59,10.08-.91,15.12-.08,1.14.17,1.77,1.47,1.42a1.35,1.35,0,0,1,1.62.73,24.44,24.44,0,0,0,1.7,2.46c.72.93.38,1.39-.58,1.75a15.9,15.9,0,0,1-5.51,1.17,1.26,1.26,0,0,0-1.43,1.07A10.47,10.47,0,0,1,63.13,157.11ZM49.32,142.47a28.07,28.07,0,0,0,12,3.15c2.89.17,2.9.11,3.17-2.74a48,48,0,0,0-.23-8.22c-.11-1.48-.32-1.52-1.6-.65L60,135.87C56.63,138.19,53.15,140.32,49.32,142.47Z"/><path class="cls-1" d="M98.4,156.07c0-1.66-.05-2.89,0-4.11a66.6,66.6,0,0,0-1.68-19.65c-.3-1.2-.64-1.78-2.1-1.38a33.73,33.73,0,0,1-10.53,1.22c-1.58-.07-1.66-.18-1-1.66a2.44,2.44,0,0,0,.18-.41c.69-2.8,2.3-3.92,5.34-4.33,8-1.07,14.2-5.59,19.78-11.1a21.75,21.75,0,0,1,2-2,8.48,8.48,0,0,1-1.71,7.39,31.58,31.58,0,0,1-5.44,6.16c-.79.64-.58,1.43-.5,2.2a70.36,70.36,0,0,1,.18,15.42A25.58,25.58,0,0,1,98.4,156.07Z"/><path class="cls-1" d="M76.07,33.49c.53-2.89,1.09-5.77,1.58-8.67A32.06,32.06,0,0,0,75.23,5.49a1.75,1.75,0,0,1,.24-2.15A14.4,14.4,0,0,0,77.05.8,1.4,1.4,0,0,1,78.5,0c2.9.09,2.22-.41,2.73,2.3a48.18,48.18,0,0,1-.59,21.1C79.89,26.38,77.72,31.71,76.07,33.49Z"/><path class="cls-1" d="M78,98.24a4.52,4.52,0,0,1,.28-9,4.58,4.58,0,0,1,4.38,4.59A4.5,4.5,0,0,1,78,98.24Z"/></g></g></svg>