<svg xmlns="http://www.w3.org/2000/svg" viewBox="0 0 3723.7 859.04"><defs><style>.cls-1{fill:#fff;}.cls-2{fill:none;}</style></defs><title>Asset 139</title><g id="Layer_2" data-name="Layer 2"><g id="Layer_1-2" data-name="Layer 1"><path class="cls-1" d="M210.11,606.58l.71-1.12A35.11,35.11,0,0,1,221,610.1a47.08,47.08,0,0,1,6.47,5.18A38.51,38.51,0,0,1,236,628a37.45,37.45,0,0,1,3,16.55c-.78,13.78-7.11,24.39-18.78,31.74a14.58,14.58,0,0,1-2.9,1.69c-1.27.45-2.46,1.11-3.71,1.58a38.57,38.57,0,0,1-3.74,1.18,22.22,22.22,0,0,1-3.85.76c-3.05.21-6.12.36-9.18.36-1.5,0-3-.45-4.5-.6-1-.1-1.34-.58-1.33-1.38a79.47,79.47,0,0,0,8.66.82,39,39,0,0,0,8.69-1,38.35,38.35,0,0,0,8.32-3A41.91,41.91,0,0,0,224,672c2.24-1.78,4.17-4,6.32-6a5.66,5.66,0,0,1,.42-1.1c1-1.76,2-3.52,3.13-5.25a11.61,11.61,0,0,1,1.15-1.18,1.33,1.33,0,0,0,.3-.7c0-.46-.16-1,0-1.39a37.94,37.94,0,0,0,1.44-22.11,13.2,13.2,0,0,1-.19-2.07,5,5,0,0,1-.68-1A38.6,38.6,0,0,0,228.27,618a37.83,37.83,0,0,0-15.51-10.54c-.86-.33-1.74-.6-2.61-.9Z"/><path class="cls-1" d="M210.15,606.55a41.44,41.44,0,0,0-10.51-1.34,44.78,44.78,0,0,0-12,2,29.47,29.47,0,0,0-6.05,2.44.94.94,0,0,1-.55.05,8.68,8.68,0,0,1-1,1.22c-1.66,1.29-3.34,2.57-5.06,3.79a5.61,5.61,0,0,1-1.51.54l.34.29a66,66,0,0,0-4.91,6.22c-1.71,2.78-3,5.8-4.48,8.74a22.44,22.44,0,0,0-.72,2.19,4.71,4.71,0,0,1-.47.66,1.86,1.86,0,0,0-.37.78c0,.43.2.87.16,1.29-.21,2.61-.68,5.21-.66,7.81.1,11.64,4.81,21.17,13.59,28.73a38.38,38.38,0,0,0,13,7.11c.65.22,1.12,1,1.55,1.77l-5.28-1.71.15-1.36-1.31.69-.14.3c-2.55-1.63-5.21-3.11-7.64-4.92a37.73,37.73,0,0,1-10.62-12.42,39.07,39.07,0,0,1,6-45.22,38.67,38.67,0,0,1,14.64-9.76,2.25,2.25,0,0,1,1.51.09,7.08,7.08,0,0,1,1.71-1.14A32,32,0,0,1,199.58,604a14.06,14.06,0,0,1,2.49.49c.31-.13.69-.47,1-.42,2.39.31,4.77.7,7.31,1.09-.12.62-.2,1-.28,1.41Z"/><path class="cls-1" d="M199.78,704.42q-17.62,0-35.26,0a5.29,5.29,0,0,1-1.46-.43,6.3,6.3,0,0,1,1.44-.35q35.25,0,70.51,0a5.53,5.53,0,0,1,1.46.44,6.3,6.3,0,0,1-1.44.35Q217.41,704.44,199.78,704.42Z"/><path class="cls-1" d="M216.38,695.71l-.94.44a5.14,5.14,0,1,1,7.12-7.39c1.73,2.06,1.87,5.9-.9,7.64a5.16,5.16,0,0,1-4.92.59C216.14,696.74,216,696.45,216.38,695.71Zm5.61-3.45a3.3,3.3,0,0,0-3.32-3.39c-1.92,0-3.45,1.72-3.6,4,0,.85,2.31,2.58,3.57,2.61A3.35,3.35,0,0,0,222,692.26Z"/><path class="cls-1" d="M182.22,691.4l-.81-.37c0,.28,0,.54.11.61,1.24.88.69,1.91.21,2.87a4.76,4.76,0,0,1-1.19,1.54c-.31.25-.88.18-1.41.27l.19.46c-1.58,1.19-5.4.41-6.28-1.53-.8-1.77-1.57-3.71-.36-5.62a4.81,4.81,0,0,1,5.14-2.55,5,5,0,0,1,4.27,3.56A5.67,5.67,0,0,1,182.22,691.4Zm-5.12-2.53a3.32,3.32,0,1,0,3.34,3.26A3.3,3.3,0,0,0,177.1,688.87Z"/><path class="cls-1" d="M207.27,691.3c.7-1.16,1.33-2,1.8-3a1.75,1.75,0,0,1,2.41-1v9.8h-1.59c-.08-1.87-.17-3.78-.27-6-.59.79-1,1.4-1.49,2-.63.8-1.13.8-1.74,0-.46-.6-.89-1.22-1.5-2.06l-.11,2.08H203c0-1.82,0-3.65,0-5.48,0-.16.37-.48.51-.45.55.11,1.28.18,1.57.55A41.22,41.22,0,0,1,207.27,691.3Z"/><path class="cls-1" d="M190.21,694.46c-1.64-.73-3.25-1.31-4.74-2.12a2.6,2.6,0,0,1-.37-4.23,4.89,4.89,0,0,1,5.41-.2,3.58,3.58,0,0,1,.53.77,32.72,32.72,0,0,0-3.87.45,1.86,1.86,0,0,0-1,1.29c-.12.65.44.76,1.09.9a8.78,8.78,0,0,1,2.92,1.29,2.43,2.43,0,0,1,0,3.89,3.58,3.58,0,0,1-3.82.22c-.18-.11-.48,0-.71-.05a6.36,6.36,0,0,1-1.56-.52c-.14-.08-.15-.78,0-.95a1.16,1.16,0,0,1,1-.21A4.5,4.5,0,0,0,190.21,694.46Z"/><path class="cls-1" d="M165.05,697.15h-1.49v-5.48h3c1.11,0,1.83-.55,1.74-1.37-.11-1-.8-1.3-1.73-1.27s-2,0-2.93,0c-.3-1.92-.28-1.82,1.44-2a8.62,8.62,0,0,1,3.84.87c.89.34,1.42,1.83,1.21,3a3.19,3.19,0,0,1-2.65,2.55c-.75.09-1.79-.07-2.14.35s-.15,1.46-.19,2.23C165.12,696.39,165.08,696.73,165.05,697.15Z"/><path class="cls-1" d="M195.86,697.12v-6.64c0-1.6,0-1.6-1.67-1.61H193v-1.59h7.85v1.59c-.62,0-1.22,0-1.82,0-.8-.06-1.09.25-1.08,1.06,0,2,0,4,0,6v1.21Z"/><path class="cls-1" d="M229.37,696.69c-.45.31-.71.64-1,.63a3.28,3.28,0,0,1-2.94-1.76c.65-.55,1.14-1.09,2.08-.39a1.23,1.23,0,0,0,2-.92c.07-1.74,0-3.48,0-5.38h-2c-1.38,0-1.4,0-1.22-1.64h3.73a4.66,4.66,0,0,1,.64.08l.79.15-.41.94c.67.52.72,1.17-.06,1.82.73,1.16.71,1.74-.17,2.4,1,1.15.77,2.32,0,3.5A1.17,1.17,0,0,1,229.37,696.69Z"/><path class="cls-1" d="M236.51,697.14h-2v-6.36a27,27,0,0,1,.05-3c0-.26.57-.66.87-.65s1,.36,1.06.57C236.53,690.82,236.51,693.93,236.51,697.14Z"/><path class="cls-1" d="M183.23,709.49l-2.34,3-2.57-3.29v4.56h-.26v-5.41l2.84,3.55,2.83-3.62v5.49h-.23v-4.21Z"/><path class="cls-1" d="M211.07,708.39c1.8-.17,2.69.25,2.8,1.29s-.42,1.49-2.51,1.71c0,.39-.05.79-.06,1.2a2.45,2.45,0,0,1-.23,1.23Zm.33.06v2.92a13.43,13.43,0,0,0,2-1,1,1,0,0,0-.05-1A12.42,12.42,0,0,0,211.4,708.45Z"/><path class="cls-1" d="M236.45,713.71c-1,.18-2.17.85-2.82-.46-.23-.46-.19-1.45.11-1.66a8.85,8.85,0,0,1,2.5-.8v-2.64h.21Zm-2.91-1.49c.27,1,.71,1.6,1.45,1.41a1.8,1.8,0,0,0,1.14-1.14A1,1,0,0,0,235,711.3C234.45,711.39,234,711.9,233.54,712.22Z"/><path class="cls-1" d="M229.79,711.24V714a19.57,19.57,0,0,1-2.64-.35,1.18,1.18,0,0,1-.49-1.05,2.63,2.63,0,0,1,1.11-1.51C228.3,710.83,229.06,711.15,229.79,711.24Zm-1.95,2.62.57,0c.33-.46.87-.89,1-1.39a1,1,0,0,0-1.18-1.18,1.68,1.68,0,0,0-1.14,1.1C227,712.86,227.55,713.37,227.84,713.86Z"/><path class="cls-1" d="M206,714a20.64,20.64,0,0,1-2.73-.51,1.22,1.22,0,0,1-.38-1.09,2.8,2.8,0,0,1,1.24-1.41c.51-.19,1.22.15,1.87.26Zm-1.29-.15c.31-.48.81-.93.88-1.44a1,1,0,0,0-1.22-1.12,1.82,1.82,0,0,0-1.12,1.16C203,713.21,203.59,713.65,204.66,713.87Z"/><path class="cls-1" d="M172,713.4l1.71.3a1.35,1.35,0,0,1-2-.31,1.57,1.57,0,0,1,.43-2.22c.8-.51,1.53-.27,2.23.83L172,713Zm1.75-1.51,0-.41c-.43,0-.92-.23-1.26-.08s-.54.64-.81,1l.27.25Z"/><path class="cls-1" d="M192.42,712l-2.27,1,0,.36,1.76.35a1.39,1.39,0,0,1-2.11-.4,1.59,1.59,0,0,1,.58-2.19C191.16,710.67,191.82,710.93,192.42,712Zm-.51-.16v-.37c-.4-.06-.87-.29-1.16-.15s-.65.65-1,1l.24.27Z"/><path class="cls-1" d="M216,710.92a1.57,1.57,0,1,1,0,3.13,1.58,1.58,0,0,1-1.6-1.61A1.55,1.55,0,0,1,216,710.92Zm-.3,2.94h.57c.32-.47.86-.91.93-1.41a1,1,0,0,0-1.22-1.15,1.68,1.68,0,0,0-1.11,1.12C214.82,712.88,215.39,713.38,215.69,713.86Z"/><path class="cls-1" d="M166.77,708.62l-1.84.13v5h-.28v-5l-2-.16v-.19h4.07Z"/><path class="cls-1" d="M168.11,711.33c2.17-.8,2.58-.31,2,2.4a4.76,4.76,0,0,0,0-1.31,5.08,5.08,0,0,0-.67-1.14c-.42.31-1,.55-1.22,1s-.13,1-.32,1.52v-5.62h.19Z"/><ellipse class="cls-1" cx="207.19" cy="710.95" rx="0.11" ry="4.02"/><path class="cls-1" d="M222.94,711.12c-1.52.58-.37,1.92-1.06,2.79l-.31-2.72-.13.08.48-2.18C222.51,709.66,221.52,710.92,222.94,711.12Z"/><path class="cls-1" d="M197.76,713.81v-2.58c.75,0,1.92-.31,2.23.07.44.55.26,1.61.35,2.45H200a5.39,5.39,0,0,0,0-1.45,3.9,3.9,0,0,0-.76-1c-.37.32-.89.58-1.07,1a4.36,4.36,0,0,0-.11,1.55Z"/><path class="cls-1" d="M220,711.22l-1.06.35a5.71,5.71,0,0,1,.74.82c.22.36.58.89.46,1.15-.35.76-1,.62-1.87,0a3.11,3.11,0,0,0,.83.08,5.63,5.63,0,0,0,.82-.4,5.63,5.63,0,0,0-.53-.64c-.25-.22-.64-.33-.79-.58a.81.81,0,0,1,.17-.8A4.26,4.26,0,0,1,220,711Z"/><path class="cls-1" d="M225.73,711.11a6.05,6.05,0,0,0-1.71.69,1.26,1.26,0,0,0-.08,1.23,7.13,7.13,0,0,0,1.7.86,1.37,1.37,0,0,1-1.71-.25,1.41,1.41,0,0,1-.29-2A1.51,1.51,0,0,1,225.73,711.11Z"/><path class="cls-1" d="M196,713.72a4.67,4.67,0,0,0,0-1.35,4.21,4.21,0,0,0-.73-1.1c-.39.34-.91.62-1.14,1.05s-.09,1-.28,1.44V711.2c.72,0,1.88-.29,2.14.06.44.61.31,1.63.42,2.48Z"/><path class="cls-1" d="M186.88,713.75v-5.58H187v5.59Z"/><path class="cls-1" d="M231.51,711.18l-.13,2.64h-.21V711.2Z"/><ellipse class="cls-1" cx="188.5" cy="710.97" rx="0.09" ry="3.93"/><path class="cls-1" d="M185.55,711.2v2.61h-.18v-2.59Z"/><path class="cls-1" d="M201.52,713.79v-2.56h.18v2.58Z"/><path class="cls-1" d="M232.44,642.86c.77-.64.64-2.42-.26-3.43,1.19-1.31.17-5.13-1.56-5.82.79-1.09.82-1.16.3-2.49a32.48,32.48,0,0,0-6.53-10.49c-.52-.55-1-1.43-2.1-.89-.17.08-.59-.32-.89-.5l.11-.25,1.3.13c0-.24-.16-.29-.28-.39-.86-.71-1.7-2-2.56-2-1.45,0-1.23-1.53-2.3-1.8a12.28,12.28,0,0,1-2.76-1.53l-.21.85c-.23-.44-.34-1.05-.65-1.19-2.07-.86-4.17-1.62-6.2-2.39-.12.85-.19,1.4-.26,2l-.41,0c-.06-.25-.24-.53-.16-.73.28-.77.09-1.29-.68-1.4-1.33-.2-2.67-.37-4-.49a2.48,2.48,0,0,0-.93.28,7,7,0,0,0-1.85-.41c-1.65.07-3.3.23-4.94.45-.4.06-.75.46-1.12.7l-.56.32-.36-.68a34.68,34.68,0,0,0-12.07,5.66,42.74,42.74,0,0,0-6.91,6.66,1.15,1.15,0,0,0,0,1.75c-.46,0-1.17-.05-1.25.14-1,2.12-3.62,3.76-1.92,6.65a1.85,1.85,0,0,0-2,1.53,34.32,34.32,0,0,0-1.48,11.17,38.25,38.25,0,0,0,2.34,11.17c.47,1.38,1.55,2.14,2.46,3.05s1.13,1.17.31,2.17c.35,1,1.14,1.5,1.64,2.27a26.34,26.34,0,0,0,6.72,6.76c.4-.19.72-.36,1-.52l.16.23-.43,1c1.71.93,3.38,1.88,5.09,2.74a7.34,7.34,0,0,0,1.77.33c.19.84,3.73,2,4.58,1.42a5,5,0,0,0,1.17.63,33,33,0,0,0,14.09-.33c1-.23,2.19-.5,2.24-2,0,0,.09-.06.22-.15,0,.39,0,.71-.09,1.19a14.88,14.88,0,0,0,1.81-.4,28.67,28.67,0,0,0,8.59-5,54.34,54.34,0,0,0,5.11-5.07,32.37,32.37,0,0,0,2.59-3.64c.39-.57.86-1.16.21-1.62.35-.22.86-.36,1-.67a31.64,31.64,0,0,0,3.47-14C233,643.49,232.65,643.18,232.44,642.86Zm-39.37-20.44a8.42,8.42,0,0,0,.87-1.36,6.35,6.35,0,0,1,5.91-4.52,6.21,6.21,0,0,1,5.89,4.36,2.36,2.36,0,0,0,1.07,1.5,1.77,1.77,0,0,1,.69,1.5c-.13.49-.84.82-1.31,1.2-.32.25-.78.4-1,.72a6.28,6.28,0,0,1-5.33,3.07,6.4,6.4,0,0,1-5.25-2.95c-.24-.36-.72-.56-1.06-.87s-1-.72-1.09-1.17S192.81,622.9,193.07,622.42Zm-11.19,19.71a2.33,2.33,0,0,1-.44.72,3,3,0,0,1-.31.31,3.23,3.23,0,0,1-1.29.62,7.76,7.76,0,0,1-1.37.15c-.41,0-.82.05-1.32.07v2.68a6.29,6.29,0,0,1-.87.24.8.8,0,0,1-.51-.06c-.23-.14-.29-.52-.28-1.2,0-.13,0-.26,0-.4s0-.28,0-.42c-.06-.85-.13-1.74.27-2.16a1.83,1.83,0,0,1,1.29-.34c.41,0,.86,0,1.27,0H179c.65-.06,1.21-.28,1.23-1a.9.9,0,0,0-.26-.73,1.23,1.23,0,0,0-.66-.31,3.41,3.41,0,0,0-.55,0c-.77,0-1.54,0-2.31,0h-.21c-.47,0-.86-.19-.69-.79a1.16,1.16,0,0,1,.35-.47.93.93,0,0,1,.51-.25,23.75,23.75,0,0,1,2.67.06c.3,0,.59.08.88.13a2.77,2.77,0,0,1,.89.32,2.4,2.4,0,0,1,.9.89,2.58,2.58,0,0,1,.32,1.19A2.3,2.3,0,0,1,181.88,642.13Zm23.94,24.58a1.85,1.85,0,0,1-1.79,1.36c-1.5,0-3,0-4.48,0v0c-1.08,0-2.15,0-3.23,0a2.05,2.05,0,0,1-1.43-3.72c.14-.13.35-.25.38-.41a11.54,11.54,0,0,1,2.32-4.54,3.49,3.49,0,0,0,.52-1.5c.17-1,.59-1.35,1.52-.93a4.05,4.05,0,0,1,1.84,1.31c1.1,1.87,2.88,3.33,3.33,5.59,0,.25.34.47.55.69A1.87,1.87,0,0,1,205.82,666.71Zm10.41-6.38c-1-.89-1.85-1.86-2.76-2.8l-12.72-13.1c-.13-.13-.28-.25-.49-.43l-6,5.79q-5.07,4.9-10.13,9.81c-.36.36-.79,1-1.28.32-.16-.22.14-1,.44-1.27,5.3-5.21,10.64-10.38,16.05-15.63l-5.55-5.76c-3.36-3.45-6.73-6.89-10-10.37-.29-.3-.28-.88-.41-1.33.45.14,1,.15,1.34.45q7.4,7.54,14.73,15.17a9.43,9.43,0,0,1,.78,1l9.59-9.31,6.63-6.45c.08-.08.16-.21.25-.23.37-.06.75-.09,1.12-.13-.07.36,0,.85-.23,1.07-1.65,1.67-3.35,3.29-5,4.93l-10.62,10.3c-.19.18-.36.39-.61.67,1.72,1.79,3.41,3.57,5.12,5.33q5.19,5.36,10.4,10.69c.11.11.29.2.31.33a10.17,10.17,0,0,1,.09,1.11C216.89,660.46,216.44,660.53,216.23,660.33ZM223.92,647c-.59,0-1.06,0-1-.84,0-1.26,0-2.53,0-4.16l-1.37,1.51c-.76.83-1.21.83-2,0l-1.19-1.3c-.34,1.65-.34,1.65-2,1.47V639a1.81,1.81,0,0,1,2.42.81A22.92,22.92,0,0,0,220.4,642c1.67-1,1.69-3.68,4.42-3v2.79c0,1.46,0,2.92,0,4.39C224.84,646.84,224.54,647,223.92,647Z"/><path class="cls-1" d="M196.29,622.1l-1.06-.36a4.72,4.72,0,0,1,4.58-3.85,4.77,4.77,0,0,1,4.75,3.85l-.95.44c.79,1,1.19,1.91.4,3.05a4.8,4.8,0,0,1-4.26,2.29,5,5,0,0,1-2-.5C195.52,626,195.11,624.54,196.29,622.1Z"/><path class="cls-1" d="M200,658.4c.31.67.62,1.34.92,2,0,0,0,.1,0,.11,1.05.5,1.16,1.73,1.91,2.46,0,0,.09,0,.1,0a12.31,12.31,0,0,0,1.64,3.13,1.37,1.37,0,0,1-.57.56,5.65,5.65,0,0,1-1.48.16c-1.92,0-3.83,0-5.74-.07a4.3,4.3,0,0,1-1.38-.54,10.31,10.31,0,0,0,1-1,3.12,3.12,0,0,0,.47-1.07c0-.22-.1-.49-.15-.74,1.64-.36.61-2.63,2.19-3.08.16,0,.2-.51.28-.78s.19-.68.28-1Z"/><rect class="cls-2" y="459.04" width="400" height="400"/><rect class="cls-2" x="3323.7" width="400" height="400"/></g></g></svg>