<svg xmlns="http://www.w3.org/2000/svg" viewBox="0 0 326.32 91.67"><defs><style>.cls-1{fill:#fff;}</style></defs><title>Asset 73</title><g id="Layer_2" data-name="Layer 2"><g id="Layer_1-2" data-name="Layer 1"><path class="cls-1" d="M221.85,50.74c0-2.5,0-4.56,0-6.62,0-.48.13-.61.61-.61,3.28,0,6.57,0,9.85,0,.52,0,.59.18.59.63,0,4,0,7.89,0,11.84a1.83,1.83,0,0,0,1.83,2c1.61.09,2.45-.44,2.45-1.78A57.49,57.49,0,0,0,237,49a8.58,8.58,0,0,0-2.29-4.47c-1.67-2-3.65-3.68-5.43-5.58a80.89,80.89,0,0,1-5.48-6.07,9.59,9.59,0,0,1-2-5.8c0-1.91,0-3.83,0-5.74a12.47,12.47,0,0,1,1-5.4,8.85,8.85,0,0,1,5-4.52,19.86,19.86,0,0,1,6.91-1.24,22.17,22.17,0,0,1,6.93.72c3.74,1.13,6.09,3.52,6.41,7.49.29,3.55.05,7.1.12,10.65,0,.39-.13.5-.51.5-3.33,0-6.66,0-10,0-.58,0-.55-.29-.55-.68q0-4.64,0-9.27c0-1.06-.32-1.55-1.12-1.68a1.88,1.88,0,0,0-2.31,1.15,7.33,7.33,0,0,0-.19,3.74c.06.69,0,1.39.14,2.09a9.5,9.5,0,0,0,2.5,4.93c2.25,2.58,4.84,4.83,7.17,7.34,1.83,2,3.87,3.79,4.94,6.36a10.5,10.5,0,0,1,.9,4c0,2.9.07,5.79,0,8.68A9.13,9.13,0,0,1,246.23,63a12.61,12.61,0,0,1-7.11,2.87,26.76,26.76,0,0,1-4.81.25,19.24,19.24,0,0,1-7.62-1.59,8.18,8.18,0,0,1-4.71-7C221.75,55.13,222,52.71,221.85,50.74Z"/><path class="cls-1" d="M126.5,22.35a11.65,11.65,0,0,1,6.84-1.6,8.79,8.79,0,0,1,6.48,2.9,5.16,5.16,0,0,1,1.1,3.55c0,12.63,0,25.25,0,37.87,0,.53-.16.65-.66.65-3.19,0-6.38,0-9.56,0-.63,0-.71-.22-.71-.75q0-17.36,0-34.71c0-.9-.13-1.77-1.12-2.18a1.67,1.67,0,0,0-2.43,1.71q0,17.46,0,34.93c0,1.13.11,1-1,1-3.11,0-6.23,0-9.34,0-.5,0-.66-.13-.66-.65q0-21.66,0-43.32c0-.52.15-.65.66-.65,3.16,0,6.33.07,9.49,0C126.74,21.05,126.42,21.71,126.5,22.35Z"/><path class="cls-1" d="M293.74,46.73q0,9.12,0,18.24c0,.55-.09.76-.71.75-3.19,0-6.37,0-9.56,0-.61,0-.71-.2-.71-.75q0-18.19,0-36.4c0-.65-.13-.9-.82-.85s-1.62,0-2.43,0c-.35,0-.47-.11-.47-.47q0-2.87,0-5.73c0-.38.15-.45.48-.45.81,0,1.62,0,2.43,0,.62,0,.86-.1.81-.79a16,16,0,0,1,.41-4.62c.73-3.26,1.48-3.89,4.68-4.67a15,15,0,0,1,3.47-.34c2.6,0,5.2,0,7.8,0,.57,0,.69.15.68.69,0,1.59,0,3.19,0,4.78,0,.45-.12.6-.57.57a23.91,23.91,0,0,0-2.93.1c-1.57.11-2.45,1.12-2.58,3-.08,1.25-.08,1.25,1.14,1.25,1.45,0,2.9,0,4.34,0,.5,0,.61.15.6.62,0,1.78,0,3.58,0,5.36,0,.59-.19.68-.71.67-1.57,0-3.14,0-4.71,0-.56,0-.68.15-.68.69C293.75,34.52,293.74,40.63,293.74,46.73Z"/><path class="cls-1" d="M174.92,43.7c0-5.78,0-10.51,0-15.24,0-.57-.13-.76-.72-.73-1.17.05-2.35,0-3.53,0-.45,0-.59-.14-.58-.59,0-1.83,0-3.67,0-5.51,0-.42.13-.55.55-.55,1.22,0,2.45,0,3.67,0,.5,0,.61-.15.61-.62,0-2.57,0-5.15,0-7.72,0-.57.16-.69.7-.69q4.78,0,9.56,0c.58,0,.68.19.68.72,0,2.54,0,5.09,0,7.64,0,.5.11.68.64.67,1.5,0,3,0,4.49,0,.45,0,.65.08.64.6,0,1.81,0,3.63,0,5.44,0,.5-.16.62-.63.61-1.52,0-3,0-4.56,0-.44,0-.58.12-.58.58q0,13.46,0,26.91a2.38,2.38,0,0,0,2,2.42,13,13,0,0,0,3.62.32c.49,0,.63.14.63.62q0,3.29,0,6.55c0,.45-.13.59-.58.59-2.68,0-5.35,0-8,0a22.56,22.56,0,0,1-4.25-.53,4.51,4.51,0,0,1-3.75-3.77,22.34,22.34,0,0,1-.45-3.24C174.73,53,175.05,47.82,174.92,43.7Z"/><path class="cls-1" d="M101.38,38.15q0-13.35,0-26.69c0-.6.14-.78.76-.77,3.57,0,7.15,0,10.73,0,.55,0,.7.13.7.69q0,26.79,0,53.6c0,.56-.12.75-.72.74q-5.37,0-10.73,0c-.6,0-.73-.17-.73-.74Q101.4,51.57,101.38,38.15Z"/><path class="cls-1" d="M306.67,78.62a4,4,0,0,1,4.07-1.69,2.6,2.6,0,0,1,2,2.66c0,1.87,0,3.73,0,5.59,0,.53.07.85.69.72s.69.18.65.68c0,.29,0,.46-.4.45-1.27,0-2.54,0-3.82,0-.53,0-.31-.38-.34-.63s-.08-.56.37-.51c.19,0,.39,0,.58,0s.36-.11.36-.38c0-1.94,0-3.87,0-5.8,0-1.15-.9-1.66-2.14-1.28a4.16,4.16,0,0,0-1.84,1.23.91.91,0,0,0-.17.68c0,1.65,0,3.29,0,4.93,0,.53.15.7.65.62s.71,0,.7.59-.3.54-.69.54c-1.15,0-2.3,0-3.45,0-.48,0-.49-.22-.49-.58s0-.64.49-.55c.75.15.87-.19.85-.87,0-2.06,0-4.11,0-6.17,0-.55-.09-.84-.7-.73s-.66-.13-.64-.64.14-.45.47-.44c.76,0,1.52,0,2.28,0,.46,0,.62.11.56.57C306.64,77.89,306.67,78.18,306.67,78.62Z"/><path class="cls-1" d="M267.15,78.69a4,4,0,0,1,4.07-1.76,2.46,2.46,0,0,1,2,2.55c0,1.88,0,3.77,0,5.66,0,.6.12.88.75.75s.74.26.69.79c0,.24-.08.35-.34.35-1.32,0-2.65,0-4,0-.5,0-.37-.33-.39-.6s0-.54.44-.55c1,0,1,0,1-1.1,0-1.35,0-2.7,0-4a7.74,7.74,0,0,0-.16-1.44c-.18-.79-.92-1.13-1.88-.88a4.27,4.27,0,0,0-2,1.24.92.92,0,0,0-.21.74c0,1.64,0,3.28,0,4.93,0,.49.15.66.62.57.64-.12.79.18.73.77,0,.29-.13.37-.4.37-1.28,0-2.55,0-3.83,0-.52,0-.33-.37-.35-.62s-.07-.61.37-.51c1,.22,1-.36,1-1.06q0-3,0-6c0-.56-.14-.78-.69-.67s-.67-.2-.65-.7c0-.35.15-.4.44-.39.73,0,1.47,0,2.2,0,.53,0,.71.13.63.65C267.12,77.94,267.15,78.21,267.15,78.69Z"/><path class="cls-1" d="M156,85.44a5,5,0,0,1-2.8,1.72,2.71,2.71,0,0,1-3.4-2.84c-.05-1.84,0-3.68,0-5.52,0-.55-.12-.75-.68-.67-.37.05-.69.08-.68-.53s.26-.56.66-.55c.66,0,1.33,0,2,0,.49,0,.66.08.65.62,0,2.08,0,4.17,0,6.25,0,1.51.55,2,2.14,1.67a4.18,4.18,0,0,0,2-1.22c.21-.2.17-.44.17-.68,0-1.64,0-3.29,0-4.93,0-.53-.15-.69-.66-.63s-.69.08-.69-.53.27-.56.67-.55a20.24,20.24,0,0,0,2.06,0c.49,0,.61.13.6.61,0,2.53,0,5,0,7.58,0,.54.11.76.67.67.38-.05.69-.06.68.53s-.27.62-.71.6a15.21,15.21,0,0,0-1.91,0c-.63.06-.78-.2-.7-.75C156,86.08,156,85.85,156,85.44Z"/><path class="cls-1" d="M185,85.35a4.56,4.56,0,0,0,0-.74c-.11-.62.23-.67.72-.64.29,0,.4.07.43.4a2.09,2.09,0,0,0,2.05,1.87,2.59,2.59,0,0,0,2.7-1.21,2.43,2.43,0,0,0-.46-2.87,10.91,10.91,0,0,0-2.24-1.46,12.66,12.66,0,0,1-2-1.39,3.2,3.2,0,0,1-.94-3.7,3.46,3.46,0,0,1,3.27-2.38,11,11,0,0,1,3.47.35c.39.1.64.28.58.76a4.17,4.17,0,0,0,0,1.17c.1.69-.24.76-.79.72-.33,0-.55-.08-.47-.45.18-.76-.29-1-.89-1.25a2.31,2.31,0,0,0-2.51.18,2.05,2.05,0,0,0-.76,2.11,3,3,0,0,0,1.56,1.83c1,.56,1.93,1.18,2.9,1.78a3.7,3.7,0,0,1-.33,6.23,5.36,5.36,0,0,1-3.27.59c-.72-.09-1.45-.13-2.17-.23s-1-.43-.89-1.16A2.88,2.88,0,0,0,185,85.35Z"/><path class="cls-1" d="M222.44,85.52a15.61,15.61,0,0,1-1.56,1.24c-1.59.77-3.61.7-4.4-1.15a3.31,3.31,0,0,1-.24-1.28c0-1.84,0-3.67,0-5.51,0-.53-.09-.78-.67-.69-.36.05-.69.1-.69-.51s.32-.58.72-.57a17.37,17.37,0,0,0,1.91,0c.51,0,.66.11.65.63,0,2.06,0,4.12,0,6.17s1.08,2.1,2.49,1.64a4.07,4.07,0,0,0,1.4-.89,1.14,1.14,0,0,0,.4-1c0-1.59,0-3.18,0-4.77,0-.54-.09-.84-.7-.73s-.69-.1-.65-.63c0-.34.09-.46.45-.45.76,0,1.52,0,2.28,0,.46,0,.56.13.56.57,0,2.52,0,5,0,7.57,0,.55.1.82.7.72.42-.07.65,0,.65.55s-.23.6-.66.58c-.66,0-1.32,0-2,0-.5,0-.73-.1-.65-.63A8.47,8.47,0,0,0,222.44,85.52Z"/><path class="cls-1" d="M129,85c.16,1.29.19,1.38-1,1.77-2.55.88-5.07,1-7.4-.69a5.21,5.21,0,0,1-1.9-2.7,9.27,9.27,0,0,1,.35-7,5.24,5.24,0,0,1,4.07-3,12.94,12.94,0,0,1,5.32.42c.41.1.53.28.5.68a11.63,11.63,0,0,0,0,1.32c0,.39.1.76-.56.74s-.77-.23-.7-.73-.23-.83-.7-1a4.26,4.26,0,0,0-4.68.44,5.26,5.26,0,0,0-1.77,3.48,8.08,8.08,0,0,0,.4,4.57c1.33,2.84,4,3.74,6.93,2.42A2.79,2.79,0,0,0,129,85Z"/><path class="cls-1" d="M280.19,76.93a6.42,6.42,0,0,1,1.3.09c.49.15,1.28,0,1.45.44a4.23,4.23,0,0,1,.09,2c-.06.62-.58.19-.88.28s-.43-.1-.44-.44c0-.91-.71-1.39-1.86-1.33a1.46,1.46,0,0,0-1.46,1.5c0,.6.46.88.91,1.1.86.43,1.76.8,2.63,1.21a2.51,2.51,0,0,1,1.71,3.08,3,3,0,0,1-2.54,2.29,7.47,7.47,0,0,1-4.27-.47c-.3-.12-.42-.26-.4-.58s0-.64,0-1c0-.89.16-1,1.06-.86.17,0,.26,0,.3.24s-.21.73.19,1a3.65,3.65,0,0,0,2.24.69,1.53,1.53,0,0,0,1.48-1.77c-.12-.66-.69-.94-1.23-1.19a9.11,9.11,0,0,1-3.22-1.78,2.62,2.62,0,0,1,1-4.24A4.08,4.08,0,0,1,280.19,76.93Z"/><path class="cls-1" d="M259.87,73.55c.62,0,1.23,0,1.84,0,.41,0,.55.1.56.53s-.21.55-.58.48c-.68-.13-.77.19-.77.8q0,4.92,0,9.84c0,.55.12.81.71.71.43-.08.64,0,.64.57s-.26.57-.67.56c-1.15,0-2.3,0-3.45,0-.47,0-.64-.1-.64-.6s.18-.61.6-.53c.62.11.76-.15.75-.75,0-3.31,0-6.61,0-9.92,0-.53-.1-.77-.68-.68-.31,0-.66.13-.67-.46s.28-.56.68-.54C258.75,73.56,259.31,73.55,259.87,73.55Z"/><path class="cls-1" d="M168.46,49.85a8.47,8.47,0,0,0-.88-3.72,9.93,9.93,0,0,0-5-4.39,31.15,31.15,0,0,1-5-2.91c-1.71-.87-3-2-3.28-4.1a17.24,17.24,0,0,1-.13-5,2.76,2.76,0,0,1,.39-1.08,1.59,1.59,0,0,1,1.53-.79c.67,0,1,.56,1.17,1.07a10.2,10.2,0,0,1,.59,4.58,12.67,12.67,0,0,1-.12,2.68c0,.66,0,1.32,0,2,0,.5.15.62.62.62q4.71,0,9.42,0c.53,0,.66-.17.65-.67-.07-3.24.15-6.47-.13-9.7a7.17,7.17,0,0,0-2.73-5.2c-2.46-2-5.42-2.24-8.38-2.45a22.87,22.87,0,0,0-5.6.38,10.73,10.73,0,0,0-5.29,2.27,8,8,0,0,0-2.78,6.34,71.32,71.32,0,0,0,.11,8.14,5.74,5.74,0,0,0,2.22,4.26,67.51,67.51,0,0,0,9,5.43,4.42,4.42,0,0,1,1.93,2.19,12,12,0,0,1,.85,4.18,10.06,10.06,0,0,1-.38,4.11,1.55,1.55,0,0,1-2.84.44,2.34,2.34,0,0,1-.31-1.33V48.34c0-.34.09-.68-.48-.68-3.33,0-6.67,0-10,0-.34,0-.49.1-.48.45.07,3.58-.21,7.16.14,10.72a7.11,7.11,0,0,0,3.54,5.57,14.61,14.61,0,0,0,7,1.86,22.85,22.85,0,0,0,8.95-1,8.1,8.1,0,0,0,5.81-8C168.5,54.81,168.48,52.33,168.46,49.85Z"/><path class="cls-1" d="M210.37,76.93a7.74,7.74,0,0,1,2.31.26c.15,0,.43,0,.44.19a11.54,11.54,0,0,1,0,2.2c0,.27-.57.08-.87.12s-.36,0-.32-.28c.1-.76-.12-1.24-1-1.41a2.34,2.34,0,0,0-2.27.58,3.3,3.3,0,0,0-.79,1.21,5.44,5.44,0,0,0,0,4.19c.77,1.84,2,1.92,3.73,1.71a3.89,3.89,0,0,0,1.11-.3c.48-.23.44,0,.48.36.09.72-.19,1-.89,1.18a7.51,7.51,0,0,1-3.16.16,4.77,4.77,0,0,1-3.66-4.36,6.73,6.73,0,0,1,.36-3.08A4.26,4.26,0,0,1,210.37,76.93Z"/><path class="cls-1" d="M134.34,79.27c0,2,0,4,0,6,0,.55.12.76.68.67.37-.05.68-.08.67.52s-.22.63-.69.61c-1.13,0-2.26,0-3.38,0-.53,0-.52-.24-.53-.62s.11-.6.52-.52c.68.12.83-.17.82-.82,0-3.55,0-7.11,0-10.66,0-.52,0-.84-.68-.73-.37.06-.69.08-.68-.53s.26-.56.66-.55c.69,0,1.38,0,2.06,0,.45,0,.58.09.57.56C134.33,75.2,134.34,77.24,134.34,79.27Z"/><path class="cls-1" d="M321.23,85.74c.11,1.36.07,1.46-1.25,1.48-2.17,0-3.1-.91-3.18-3.33-.06-1.68,0-3.38,0-5.06,0-.59-.24-.64-.69-.59s-.69,0-.67-.54.12-.74.65-.65.77,0,.71-.63c0-.36-.23-.89.14-1.1a6.91,6.91,0,0,1,1.59-.44.17.17,0,0,1,.21.14c0,.1,0,.2,0,.3.06.57-.28,1.35.14,1.66s1.13.1,1.71.07.67.06.68.61-.26.6-.7.59-1.36-.21-1.7.09-.13,1.14-.12,1.74c0,1.54-.09,3.07.07,4.61a1.36,1.36,0,0,0,2.07,1.19Z"/><path class="cls-1" d="M230.38,78.76a3.43,3.43,0,0,1,3.36-1.86c.39,0,.49.14.47.51a9.62,9.62,0,0,0,0,1.61c.06.58-.26.55-.65.55s-.81.06-.69-.56a2.41,2.41,0,0,0,0-.38,2.87,2.87,0,0,0-2.22,1,.73.73,0,0,0-.29.63c0,1.74,0,3.48,0,5.22,0,.6.36.48.66.43.65-.1.72.24.68.75,0,.26-.06.4-.37.4-1.27,0-2.54,0-3.82,0-.58,0-.33-.41-.37-.67s0-.54.41-.46c.78.15.94-.2.92-.94-.06-2,0-4.06,0-6.09,0-.53-.07-.86-.69-.73s-.67-.2-.65-.69.13-.41.43-.4c.76,0,1.52,0,2.28,0,.48,0,.59.15.54.58S230.38,78.24,230.38,78.76Z"/><path class="cls-1" d="M291.38,85.79c.1,1.49.24,1.29-1.19,1.4a2.56,2.56,0,0,1-3.08-2.87c0-1.78,0-3.57,0-5.36,0-.55-.1-.78-.71-.73s-.89-.25-.73-1c.08-.36.34-.23.51-.21.7.09,1.06-.09.93-.89-.05-.28-.18-.73.11-.88a6.82,6.82,0,0,1,1.52-.42c.11,0,.16.08.16.18s0,.29,0,.44c0,1.56,0,1.54,1.6,1.57.37,0,1-.31.92.56,0,.53-.16.64-.66.63s-1.43-.29-1.75.1-.13,1.16-.11,1.76a27.09,27.09,0,0,0,.11,4.32C289.37,86.09,289.73,86.28,291.38,85.79Z"/><path class="cls-1" d="M176.39,85.76c0,1.27,0,1.27-1.26,1.27s-1.19,0-1.19-1.2,0-1.26,1.27-1.26S176.39,84.57,176.39,85.76Z"/><path class="cls-1" d="M246.87,85.81c0-1.24,0-1.24,1.27-1.24a4.34,4.34,0,0,0,.51,0c.4,0,.62.07.55.51a1.4,1.4,0,0,0,0,.29c0,1.67,0,1.65-1.68,1.67-.5,0-.74-.1-.66-.64A3.85,3.85,0,0,0,246.87,85.81Z"/><path class="cls-1" d="M326.05,85.84c0,1.19,0,1.19-1.13,1.19s-1.16,0-1.16-1.22,0-1.24,1.19-1.24S326.05,84.57,326.05,85.84Z"/><path class="cls-1" d="M326.3,48.81c0-.53-.15-.65-.65-.65-3.19,0-6.37,0-9.56,0-.59,0-.73.16-.72.73,0,2.8,0,5.59,0,8.39a1.75,1.75,0,0,1-1.11,1.85c-1.31.42-2.35-.41-2.35-1.92,0-3.16,0-6.32,0-9.48,0-.64.12-.86.82-.85,4.29,0,8.58,0,12.87,0,.59,0,.72-.17.71-.73,0-5.34,0-10.69,0-16a13.07,13.07,0,0,0-.13-2.25,7.35,7.35,0,0,0-4.05-5.54,16.81,16.81,0,0,0-7.16-1.6,22.49,22.49,0,0,0-7.78.84,8.75,8.75,0,0,0-4.8,3.38A8.28,8.28,0,0,0,301,29.74c0,4.58,0,9.16,0,13.75s0,9.26,0,13.89a8.72,8.72,0,0,0,1.24,4.5A8.89,8.89,0,0,0,308,65.69a23.26,23.26,0,0,0,6.86.61,19,19,0,0,0,6.24-1.12,7.45,7.45,0,0,0,5.2-7C326.38,55,326.28,51.92,326.3,48.81ZM311.92,29.72a1.7,1.7,0,0,1,1.88-1.89c1,.06,1.58.7,1.58,1.93v4.78c0,1.62,0,3.23,0,4.85,0,.44-.06.66-.59.63-.78,0-1.56,0-2.35,0-.4,0-.55-.09-.55-.52C311.92,36.24,311.9,33,311.92,29.72Z"/><path class="cls-1" d="M277.09,30.07a10.93,10.93,0,0,0-.11-1.81,7.88,7.88,0,0,0-4.56-6.18,17.19,17.19,0,0,0-6.72-1.34,26.08,26.08,0,0,0-3.06.11,17.19,17.19,0,0,0-5.72,1.24,7.27,7.27,0,0,0-4.74,6.66c-.12,3.13,0,6.27,0,9.41,0,.51.16.61.62.6,3.07,0,6.13,0,9.19,0,.51,0,.68-.14.65-.65-.1-1.8-.32-3.6-.25-5.4a10.06,10.06,0,0,1,.68-3.83,1.45,1.45,0,0,1,1.26-1.06c1.19-.06,1.84.56,1.85,1.82,0,2.2,0,4.41,0,6.61a1.6,1.6,0,0,1-.59,1.29,12.91,12.91,0,0,1-2.36,1.57,46.63,46.63,0,0,0-8.45,5.12A7.4,7.4,0,0,0,251.7,50c0,3.48-.18,7,.09,10.43.22,2.91,2,4.66,4.7,5.42a15,15,0,0,0,4.9.48c2.16-.13,4.34-.21,6.05-2a3.39,3.39,0,0,1,0,.52c-.12.71.12.94.89.93,2.62-.06,5.24,0,7.86,0,.7,0,.9-.14.9-.87Q277.08,47.47,277.09,30.07Zm-10.95,22v5.28c0,1.21-.58,1.89-1.62,1.93a1.74,1.74,0,0,1-1.91-1.81c-.05-2.79-.08-5.58,0-8.36,0-1.5,1.16-2.27,2.44-2.78,1.08-.44,1.08-.42,1.08.75Z"/><path class="cls-1" d="M219.49,31.42a22.38,22.38,0,0,0-.13-3.06,7.69,7.69,0,0,0-3.3-5.54c-2.31-1.59-5-1.92-7.69-2.08a25.72,25.72,0,0,0-5.74.39,11.09,11.09,0,0,0-5.57,2.35,8,8,0,0,0-2.61,6.26c0,2.5,0,5,0,7.5,0,1.52,0,1.52,1.54,1.52h8.39c.3,0,.68.09.65-.43-.07-1-.12-2-.19-3.07a16.91,16.91,0,0,1,.41-5.93c.31-1.1.89-1.53,1.71-1.5a1.7,1.7,0,0,1,1.62,1.87c0,2-.07,3.93,0,5.88a2.56,2.56,0,0,1-1.15,2.36,13,13,0,0,1-1.84,1.16,47.48,47.48,0,0,0-8.35,5,7.76,7.76,0,0,0-3.21,6.33c0,1.79,0,3.58,0,5.37,0,1.56-.08,3.12.1,4.68a6,6,0,0,0,5.06,5.39,16.85,16.85,0,0,0,6.09.27c1.59-.2,3.18-.43,4.44-1.83a2.53,2.53,0,0,1,0,.43c-.13.77.17,1,.94,1q4-.08,7.94,0c.66,0,.85-.15.84-.83Q219.47,48.15,219.49,31.42ZM208.58,52c0,1.79,0,3.58,0,5.36,0,1.18-.61,1.88-1.63,1.91A1.7,1.7,0,0,1,205,57.39c0-2.77,0-5.54,0-8.3a2.66,2.66,0,0,1,1.58-2.35c2-1.09,2-1.09,2,1.07Z"/><path class="cls-1" d="M170.88,85.9c-.55.09-.72-.11-.72-.7,0-4,0-8,0-12,0-.47-.11-.65-.61-.62a20.21,20.21,0,0,1-2.06,0c-.4,0-.66,0-.67.56s.34.5.7.54.62-.23.63.23c0,1.3,0,2.61,0,4l-.64-.45c-1.4-.93-4.11-.91-5.28.88a6.92,6.92,0,0,0-.63,6.56,3.27,3.27,0,0,0,3.93,2.21,4.49,4.49,0,0,0,2.62-1.71c0,.44,0,.71,0,1-.08.53.15.68.65.64a20.22,20.22,0,0,1,2.06,0c.42,0,.61-.06.61-.55S171.35,85.82,170.88,85.9Zm-2.69-4.11v1.54a2.61,2.61,0,0,1-2.61,2.38A2,2,0,0,1,163.45,84a6.32,6.32,0,0,1,.36-4.66,1.92,1.92,0,0,1,1.84-1.05,4.1,4.1,0,0,1,2.26.85.76.76,0,0,1,.29.71C168.18,80.46,168.19,81.13,168.19,81.79Z"/><path class="cls-1" d="M142.17,76.92a4,4,0,0,0-4,2.15,6.57,6.57,0,0,0-.62,3.78c.25,2.45,1.73,4.19,4.15,4.34A4.67,4.67,0,0,0,145.44,86a5.36,5.36,0,0,0,1.5-4.31C146.88,79.21,145.39,76.69,142.17,76.92Zm1.32,8.74a1.91,1.91,0,0,1-2.62,0,4.88,4.88,0,0,1-1.34-4.26,5.22,5.22,0,0,1,.72-2.25,2.12,2.12,0,0,1,3.8-.09,4.61,4.61,0,0,1,.84,2.71A4.87,4.87,0,0,1,143.49,85.66Z"/><path class="cls-1" d="M302,86.28c.07-.25,0-.42-.35-.38-.71.08-.84-.43-.95-.94a16.27,16.27,0,0,1-.14-3.16c0-.9,0-1.69,0-2.47a2.18,2.18,0,0,0-1.83-2.27,7.17,7.17,0,0,0-3.29.06c-1.59.35-1.64.42-1.63,2,0,.34,0,.61.48.58s.84,0,.77-.58.26-.7.59-.89a1.9,1.9,0,0,1,2.9.72,4.78,4.78,0,0,1,.2,1.56c0,.47-.13.6-.58.57a7.73,7.73,0,0,0-3.26.51,2.85,2.85,0,0,0-1.8,3.16,2.75,2.75,0,0,0,2.28,2.38,4.08,4.08,0,0,0,3.4-1.08c.26-.21.38-.27.5.09.38,1.16,1.49,1.17,2.49.9C302.27,86.92,301.92,86.54,302,86.28Zm-3.27-2.66c0,1.57-.51,2.14-1.89,2.14a1.61,1.61,0,0,1-1.67-1.14,1.87,1.87,0,0,1,.88-2.06,5.1,5.1,0,0,1,1.65-.47c1-.16,1-.09,1,.87Z"/><path class="cls-1" d="M202.58,85.29a5.49,5.49,0,0,1-3,.47c-1.34-.13-2.79-2.31-2.49-3.65.08-.31.27-.23.45-.23H202c1.14,0,1.14,0,1.13-1.17A3.74,3.74,0,0,0,201,77.12a4.32,4.32,0,0,0-4.51,1,5.5,5.5,0,0,0-1.34,3.36,5.19,5.19,0,0,0,2.46,5.18,5.77,5.77,0,0,0,4.52.28c1-.27,1-.31,1-1.31C203.1,85.12,203,85.07,202.58,85.29Zm-5.17-5.49a2.07,2.07,0,0,1,1.5-1.84,1.55,1.55,0,0,1,1.84.83,2.52,2.52,0,0,1,.3,1.95c-.17.4-1,.08-1.49.15-.12,0-.24,0-.36,0h-1C197.17,80.89,197.18,80.89,197.41,79.8Z"/><path class="cls-1" d="M243.74,85.09a7.82,7.82,0,0,1-.79.34c-1.25.38-2.51.69-3.69-.14a3.3,3.3,0,0,1-1.35-2.53c-.09-.89-.11-.89.79-.89h4.55c.19,0,.5.13.52-.22a5.19,5.19,0,0,0-1-3.78c-1-1.27-3.76-1.16-4.92-.39-2.32,1.53-2.72,5.32-1.26,7.55s3.26,2.56,5.83,2C244.06,86.61,243.79,86.81,243.74,85.09ZM238.06,80c.17-.86.42-1.77,1.5-2a1.53,1.53,0,0,1,2,1c.67,1.65.5,1.91-1.23,1.91h-.44c-.36,0-.73,0-1.1,0C237.64,80.86,237.86,81,238.06,80Z"/><path class="cls-1" d="M44.57,9.12A36.91,36.91,0,0,1,55.4,10.31a37.48,37.48,0,0,1,14,7.08,37,37,0,0,1,7.47,8.14A37.93,37.93,0,0,1,81,33.65a36.07,36.07,0,0,1,2,8.31A35.54,35.54,0,0,1,83,49.88a40.31,40.31,0,0,1-2.17,9.53A35.67,35.67,0,0,1,77.5,66.2,37.14,37.14,0,0,1,62,80a35.77,35.77,0,0,1-9.81,3.13,34.05,34.05,0,0,1-8,.51A41.21,41.21,0,0,1,34.81,82a.85.85,0,0,0-.22,0,.34.34,0,0,1-.09-.19c0-.79.29-1.54.35-2.32,0-.57-.1-.84-.68-1A23.94,23.94,0,0,1,29.42,77a31.46,31.46,0,0,1-7.27-4.23,33,33,0,0,1-5.52-5.56,25.58,25.58,0,0,1-3.47-5.68.32.32,0,0,1,.08-.2,12.64,12.64,0,0,0,1.61-.66c.41-.23.57-.16.76.25A31.39,31.39,0,0,0,19,66.58a33.22,33.22,0,0,0,10.33,9.09,33.55,33.55,0,0,0,12.2,4.09A30.64,30.64,0,0,0,47.7,80,34.55,34.55,0,0,0,60,76.93a33.74,33.74,0,0,0,11-8.07A32.27,32.27,0,0,0,76,61.35,33.93,33.93,0,0,0,79.3,50.61,33.64,33.64,0,0,0,76,31.23a35.29,35.29,0,0,0-5.2-7.54A33.22,33.22,0,0,0,62.29,17a33.6,33.6,0,0,0-18.68-4.17,30.91,30.91,0,0,0-11,2.69,1.53,1.53,0,0,1-1.45.08.32.32,0,0,1,.16-.32,36.92,36.92,0,0,1,10.79-3.12,8.64,8.64,0,0,1,1.6-.13c.49,0,.66-.18.63-.65s0-.93,0-1.39A1.06,1.06,0,0,1,44.57,9.12Z"/><path class="cls-1" d="M63.51,27.19a3.31,3.31,0,0,0,.62-.62c.43-.71.76-.51,1.26,0a27.47,27.47,0,0,1,5.27,6.85,26.71,26.71,0,0,1,3.11,9.85A29.65,29.65,0,0,1,74,47.55,27.68,27.68,0,0,1,62.13,69.4a27.19,27.19,0,0,1-10.74,4.44,27.65,27.65,0,0,1-15.78-1.66,26.67,26.67,0,0,1-10-7.23,27,27,0,0,1-6.43-13.41A28,28,0,0,1,19.73,39a27.62,27.62,0,0,1,5.76-10.61c.42-.5.54.22.84.14a.18.18,0,0,1,0,.22A21.65,21.65,0,0,0,23,33.47,25,25,0,0,0,19.9,44.81a25.86,25.86,0,0,0,7.69,19.3,24.26,24.26,0,0,0,8.47,5.43,5.24,5.24,0,0,0,2.23.62,1.45,1.45,0,0,1,.36,0,28.81,28.81,0,0,0,3.85,1,12.05,12.05,0,0,0,3.4.21c.29,0,.59,0,.88,0,1.18-.28,2.42,0,3.6-.35.26-.08.55-.07.81-.16.47-.13,1-.19,1.44-.29s1.17-.38,1.75-.57a24.14,24.14,0,0,0,7.28-4,26.28,26.28,0,0,0,5.86-6.58,14.78,14.78,0,0,0,.77-1.41A12.66,12.66,0,0,0,69,56.68c.14-.39.36-.75.5-1.14s.17-.62.3-.91A21.42,21.42,0,0,0,70.85,50,6,6,0,0,1,71,49c0-.23,0-.46,0-.69A4.11,4.11,0,0,1,71.12,47a2.18,2.18,0,0,0,0-.72A11.93,11.93,0,0,1,70.93,44c-.11-.84-.24-1.68-.32-2.51a2.23,2.23,0,0,0,0-1.09,26,26,0,0,0-4.29-9.66,28.25,28.25,0,0,0-2.15-2.6,3.29,3.29,0,0,1-.61-.73A.54.54,0,0,1,63.51,27.19Z"/><path class="cls-1" d="M47.43,1.14H46.25c-.43,0-.65-.13-.66-.63s.29-.51.65-.51A48.07,48.07,0,0,1,57.86,1.65,46,46,0,0,1,88.43,29.27a41.26,41.26,0,0,1,2.82,12c.1,1.36.28,2.71.26,4.07,0,.37,0,.6-.5.59s-.5-.16-.53-.55c-.17-2-.13-4-.45-5.89a49.77,49.77,0,0,0-1.93-8A44.93,44.93,0,0,0,53.36,1.73,45.28,45.28,0,0,0,47.43,1.14Z"/><path class="cls-1" d="M0,47.55c0-.41,0-.83,0-1.25s0-.57.44-.56.56.11.56.54A42.06,42.06,0,0,0,2.39,56.93a44.61,44.61,0,0,0,7.74,15.94A45.48,45.48,0,0,0,23.7,84.75a43.55,43.55,0,0,0,10.7,4.37,41.41,41.41,0,0,0,6.92,1.21,31.43,31.43,0,0,0,4,.25c.46,0,.45.22.45.55s0,.56-.45.54a50.19,50.19,0,0,1-12-1.75,47.79,47.79,0,0,1-8.6-3.36,45.61,45.61,0,0,1-8.85-6A45.61,45.61,0,0,1,1.9,59.2,50,50,0,0,1,.26,51.56,23.29,23.29,0,0,1,0,47.55Z"/><path class="cls-1" d="M47.27,87c-.39,0-.78,0-1.17,0s-.5,0-.5-.43.13-.44.47-.45a42.84,42.84,0,0,0,12-2,40.18,40.18,0,0,0,9.51-4.55,39.73,39.73,0,0,0,6.93-5.67,41.14,41.14,0,0,0,6.66-9.09,40.22,40.22,0,0,0,3.77-10,32,32,0,0,0,.89-5.93c0-.88.12-1.75.1-2.63,0-.42.13-.55.54-.55s.49.18.48.53a47.15,47.15,0,0,1-.73,7.31,40.63,40.63,0,0,1-9.58,19.49,42.09,42.09,0,0,1-8.15,7.16A40.73,40.73,0,0,1,55,86,42.29,42.29,0,0,1,47.27,87Z"/><path class="cls-1" d="M11.62,20l.45-.57a7.34,7.34,0,0,0,1.82-1.91c.71-.8,1.49-1.53,2.23-2.29a.42.42,0,0,1,.4-.12A26.25,26.25,0,0,1,19,17.91l1.14,1.24c.35.39.37.72,0,1.07a28.55,28.55,0,0,0-3.75,4.6c-.2.29-.38.5-.77.3-1.67-.86-3.38-1.66-5.05-2.53a1,1,0,0,1-.22-.2c-.12-.28.1-.46.21-.67A8.34,8.34,0,0,0,11.62,20Z"/><path class="cls-1" d="M10.6,21.75l-.29.6c.11.35-.12.61-.3.86A39.69,39.69,0,0,0,7.9,26.83c-.36.67-.32.79.36,1.12,1.94.95,3.83,2,5.75,3,.71.36.74.33,1.12-.38a34.65,34.65,0,0,1,9.94-11.81,35.69,35.69,0,0,1,5.42-3.36,1.18,1.18,0,0,1,.83-.24.19.19,0,0,1,0,.28l-.14.16a39.78,39.78,0,0,0-6.6,4.23A33.9,33.9,0,0,0,17,28.35a21.39,21.39,0,0,0-1.72,3.11c-.21.5-.45.47-.83.28L8.74,28.8c-.52-.26-1-.53-1.57-.78-.26-.13-.35-.22-.19-.55a35.4,35.4,0,0,1,3.49-5.86C10.6,21.58,10.67,21.6,10.6,21.75Z"/><path class="cls-1" d="M13.24,61.33v.14c-.05.11-.1.19-.23.2a.32.32,0,0,1-.18-.1,12.83,12.83,0,0,1-1.2-2.67c-.16-.41-.32-.45-.7-.32-1.68.6-3.35,1.24-5.06,1.75-.73.22-.75.34-.47,1.07a41.29,41.29,0,0,0,4.33,8.31,35.24,35.24,0,0,0,6.06,7A29,29,0,0,0,18,78.61a.6.6,0,0,1,.33.54c-.07.16-.17.25-.34.11A38.58,38.58,0,0,1,7.67,67.41a41.26,41.26,0,0,1-3-6.39c-.19-.54-.14-.82.47-1,2-.64,3.9-1.33,5.84-2,.59-.21.88-.14,1.09.54A28.73,28.73,0,0,0,13.24,61.33Z"/><path class="cls-1" d="M16.46,15.13a34.36,34.36,0,0,0-3.94,4.24c-.14.18-.26.52-.45,0A42.91,42.91,0,0,1,24.8,8.53,41.3,41.3,0,0,1,38.63,3.62a3.77,3.77,0,0,1,.94-.11,1.9,1.9,0,0,1,.82-.07.17.17,0,0,1,.11.18c-.35.49-.93.43-1.41.46a23.87,23.87,0,0,0-4.36,1,38.35,38.35,0,0,0-9.09,3.68,41.58,41.58,0,0,0-8.45,6C17,14.94,16.83,15.24,16.46,15.13Z"/><path class="cls-1" d="M18,79.26a.25.25,0,0,0,.27-.15c.35-.19.56.09.77.26a37.7,37.7,0,0,0,10,5.28,30.55,30.55,0,0,0,3.88,1.08c.37.08.53,0,.6-.4.19-1.1.44-2.2.63-3.31a.49.49,0,0,1,.21-.26.2.2,0,0,1,.21,0l0,.16c0,1.41-.49,2.76-.62,4.15,0,.38-.35.37-.68.3a37.47,37.47,0,0,1-6.82-2.13A36.07,36.07,0,0,1,18,79.26Z"/><path class="cls-1" d="M40.46,3.63V3.51c-.05,0-.07-.07-.05-.1s0-.05.05-.05h0c.37-.2.81.08,1.17-.17h0c.43-.16.91.06,1.34-.13a3.43,3.43,0,0,1,1,0c.46.14.18.58.21.88.14,1.44.26,2.89.26,4.34,0,.28-.08.59.13.84,0,.8,0,1.61,0,2.42,0,.53-.18.64-.67.66a32.43,32.43,0,0,0-10.41,2.36l-2.17.84v-.27s0-.07,0-.11a1.28,1.28,0,0,1,.6-.4,35.75,35.75,0,0,1,7.55-2.36c1.21-.24,2.46-.36,3.7-.51.84-.1.86-.16.85-1,0-.56-.19-1.11-.15-1.67s0-.93,0-1.39a22.78,22.78,0,0,0,0-2.48L43.84,5a7,7,0,0,1,0-1c0-.29-.07-.48-.42-.4a19.67,19.67,0,0,0-2.17.21C41,3.78,40.68,3.87,40.46,3.63Z"/><path class="cls-1" d="M10.6,21.75l-.13-.14A9.23,9.23,0,0,1,11.62,20c.14.55-.42.78-.57,1.21A2,2,0,0,1,10.6,21.75Z"/><path class="cls-1" d="M43,3.07c-.42.3-.89.12-1.34.13C42.05,3,42.52,3.18,43,3.07Z"/><path class="cls-1" d="M41.63,3.19c-.35.36-.78.11-1.17.17C40.82,3.09,41.25,3.32,41.63,3.19Z"/><path class="cls-1" d="M40.46,3.36v.15h-.89C39.83,3.23,40.16,3.42,40.46,3.36Z"/><path class="cls-1" d="M34.57,81.77h-.13c-.27-.25-.19-.58-.17-.89a6.64,6.64,0,0,1,.16-.87c.22-1.11.2-1-.89-1.34a32.41,32.41,0,0,1-7.64-3,32.59,32.59,0,0,1-12.7-13.2c-.13-.26-.31-.52-.11-.83l.15-.15a37.15,37.15,0,0,0,3.22,5.22,34.1,34.1,0,0,0,5.25,5.49,24.64,24.64,0,0,0,4.39,3A29.34,29.34,0,0,0,31,77.41c1.21.36,2.43.68,3.65,1,.32.08.45.19.4.6A13.63,13.63,0,0,1,34.57,81.77Z"/><path class="cls-1" d="M33,67.77a46.76,46.76,0,0,0,5.23,2.55c-.51.26-1-.09-1.38-.24a27.54,27.54,0,0,1-8.46-5,28,28,0,0,1-5-6.13A26.19,26.19,0,0,1,21,54a22.59,22.59,0,0,1-1.17-5.25,25.58,25.58,0,0,1-.12-4.87,27.27,27.27,0,0,1,.79-4.74,24.38,24.38,0,0,1,1.62-4.5,28.39,28.39,0,0,1,3.71-5.69.61.61,0,0,1,.49-.28l.15.14c.06.27-.15.4-.28.56A25.31,25.31,0,0,0,20.32,43.8a30.74,30.74,0,0,0,.22,5.84,19.78,19.78,0,0,0,1.33,5,23.2,23.2,0,0,0,3.94,6.84A26.55,26.55,0,0,0,33,67.77Z"/><path class="cls-1" d="M70.78,41.31c-.22-.14-.07-.46-.3-.6a19,19,0,0,0-1.8-5.15l-.29-.66a17.87,17.87,0,0,0-2.14-3.53A19.33,19.33,0,0,0,63.4,28a.3.3,0,0,1-.13-.32l.33-.46c.72.86,1.42,1.73,2.17,2.57a23,23,0,0,1,2.83,4.41,24.48,24.48,0,0,1,1.66,4.12c.27.83.44,1.7.64,2.55A.42.42,0,0,1,70.78,41.31Z"/><path class="cls-1" d="M54.3,70l.17.16a5.21,5.21,0,0,1-1.8.54C53.08,70.17,53.8,70.35,54.3,70Z"/><path class="cls-1" d="M68.43,58.13l-.16-.19c.33-.39.35-1,.72-1.33a.22.22,0,0,1,.13.15A5.51,5.51,0,0,1,68.43,58.13Z"/><path class="cls-1" d="M69.12,56.76,69,56.61c.16-.4.13-.89.59-1.13v.06C69.6,56,69.25,56.34,69.12,56.76Z"/><path class="cls-1" d="M69.58,55.54v-.06c0-.27-.12-.64.31-.76A1.62,1.62,0,0,1,69.58,55.54Z"/><path class="cls-1" d="M50.5,71.2s-.31-.07-.09-.14a2.55,2.55,0,0,1,.83,0C51,71.31,50.74,71.12,50.5,71.2Z"/><path class="cls-1" d="M45.92,71.59a.74.74,0,0,1,.85,0A1.88,1.88,0,0,1,45.92,71.59Z"/><path class="cls-1" d="M71.17,49.1a.55.55,0,0,1,0-.72Z"/><path class="cls-1" d="M71.31,47a.58.58,0,0,1,0-.7A1.38,1.38,0,0,1,71.31,47Z"/><path class="cls-1" d="M33,67.77a9.5,9.5,0,0,1-3.12-2,27.61,27.61,0,0,1-5.33-5.62,24.56,24.56,0,0,1-3-5.67,17.9,17.9,0,0,1-1.31-5.66A29.06,29.06,0,0,1,20,45.51a35.28,35.28,0,0,1,.73-5.78A26.91,26.91,0,0,1,22.9,34a22.6,22.6,0,0,1,3.59-5.21l.14,0c.09.11.19.22.28.34.23.34.88.41.82.84s-.47.65-.74,1a22.38,22.38,0,0,0-3.89,6.63,23.18,23.18,0,0,0-1.52,6.27,25.73,25.73,0,0,0,.7,9.33,25,25,0,0,0,5.07,9.59A29.29,29.29,0,0,0,33,67.77Z"/><path class="cls-1" d="M63.27,27.65A19.06,19.06,0,0,1,67,32.21c.43.64.77,1.35,1.18,2a.85.85,0,0,1,.2.68,27.93,27.93,0,0,0-5.07-6.53c-.19-.18-.52-.36-.18-.7Z"/><path class="cls-1" d="M34.33,81.91a17.15,17.15,0,0,0-2.94-1.21,37.41,37.41,0,0,1-8.56-5,36,36,0,0,1-8.36-9.26c-.73-1.17-1.4-2.39-2.05-3.61-.44-.84-.41-.86.49-1.19l.18,0A17.92,17.92,0,0,0,15,65.19a30.34,30.34,0,0,0,5,6A29.27,29.27,0,0,0,30,77.31a18.85,18.85,0,0,0,4.35,1.26c.4.05.59.22.47.74a6.58,6.58,0,0,0-.33,2.45Z"/><path class="cls-1" d="M31.34,15.13c-.3-.64-.57-1.29-.9-1.91-.24-.45-.25-.69.29-.92A35.73,35.73,0,0,1,41.47,9.39l2.67-.29c0,.73.21,1.44.16,2.18,0,.4-.09.58-.56.63A42.46,42.46,0,0,0,37.22,13,41.3,41.3,0,0,0,31.34,15.13Z"/><path class="cls-1" d="M44.14,7.62A15.54,15.54,0,0,1,44,5,8.36,8.36,0,0,1,44.14,7.62Z"/><path class="cls-1" d="M44,5A3.66,3.66,0,0,1,43.9,3.8c0-.24,0-.5-.35-.47.38-.24.45,0,.45.3S44,4.54,44,5Z"/><path class="cls-1" d="M30.88,63.52c-.25.47-.51.53-.93.12a23.5,23.5,0,0,1-7.3-14.33A23.35,23.35,0,0,1,34,26.16,22.79,22.79,0,0,1,43.88,23a23.13,23.13,0,0,1,16.85,5.11,22.46,22.46,0,0,1,6.5,8.32,23,23,0,0,1,2.13,9.3,24,24,0,0,1-2.2,10.76,22.2,22.2,0,0,1-3.48,5.27c-.44.5-.5-.16-.73-.29a1.37,1.37,0,0,1,.43-.91A20.9,20.9,0,0,0,68.3,49.05a22.15,22.15,0,0,0-2.4-13,22.64,22.64,0,0,0-10.07-9.86A20.56,20.56,0,0,0,47.44,24a24.27,24.27,0,0,0-7.55.72,21.92,21.92,0,0,0-7.58,3.77,22.63,22.63,0,0,0-4.58,4.64,23.17,23.17,0,0,0-3.45,7.08,23.43,23.43,0,0,0-.83,7.2,21.47,21.47,0,0,0,1.82,8,21.89,21.89,0,0,0,5.13,7.27,2,2,0,0,1,.52.61A.2.2,0,0,1,30.88,63.52Z"/><path class="cls-1" d="M30.91,63.39a26.44,26.44,0,0,1-2.76-2.84,17.72,17.72,0,0,1-2.66-4.16,21.3,21.3,0,0,1-2.11-7.3c-.08-1-.15-2-.13-3A23.93,23.93,0,0,1,24,40.34a23.16,23.16,0,0,1,2.14-5.24,22.08,22.08,0,0,1,5.05-6,23.24,23.24,0,0,1,4.41-3,25.83,25.83,0,0,1,5.14-1.85,21.15,21.15,0,0,1,5.36-.56,21.21,21.21,0,0,1,8.14,1.53,23.58,23.58,0,0,1,9.11,6.68,21.38,21.38,0,0,1,3.67,6.19,20.59,20.59,0,0,1,1.53,7.47,24.21,24.21,0,0,1-.8,7.1,24.45,24.45,0,0,1-2.86,6.21c-.6.92-1.37,1.7-2,2.61h-.13a.42.42,0,0,1-.35-.41,9.41,9.41,0,0,1,1.33-2,21.59,21.59,0,0,0,3.58-8.15,23.82,23.82,0,0,0,.3-6.8,19.46,19.46,0,0,0-2-7.17,21.26,21.26,0,0,0-6.82-8.23,22.47,22.47,0,0,0-9-3.87,22.84,22.84,0,0,0-5.55-.29,21.33,21.33,0,0,0-6.76,1.59A19.15,19.15,0,0,0,32,29.45a22.71,22.71,0,0,0-5.3,6.43A22,22,0,0,0,27.8,58.76a22.87,22.87,0,0,0,2.88,3.33c.27.27.61.5.63.95C31.26,63.25,31.17,63.42,30.91,63.39Z"/><path class="cls-1" d="M62.53,61.15l-.11,0c-.82-.39-.91-.67-.37-1.39a23.29,23.29,0,0,0,3.26-5.47,20.67,20.67,0,0,0,1.12-12.24A21,21,0,0,0,54.67,27.33a20.46,20.46,0,0,0-6-1.73,19.86,19.86,0,0,0-7.08.31A22.38,22.38,0,0,0,37.1,27.4a19.54,19.54,0,0,0-4.72,3.07,21.83,21.83,0,0,0-4.06,4.62,20.95,20.95,0,0,0-.63,21.51A15.68,15.68,0,0,0,31,60.91a7.66,7.66,0,0,1,.57.57c.67.71.62,1.05-.23,1.6h-.13c0-.31-.24-.48-.43-.65a19.25,19.25,0,0,1-4.51-5.91A21,21,0,0,1,24.1,49.9a28.52,28.52,0,0,1-.26-4.23A21.78,21.78,0,0,1,25.89,37a23.46,23.46,0,0,1,5.91-7.66,19.85,19.85,0,0,1,4.36-2.79,20.63,20.63,0,0,1,6.37-2,19.39,19.39,0,0,1,4.88-.17,29.42,29.42,0,0,1,4.36.74,22,22,0,0,1,4.14,1.6A20.61,20.61,0,0,1,62,31.17a24,24,0,0,1,4.7,7.68A22.11,22.11,0,0,1,68,48a20.52,20.52,0,0,1-2.55,8.83A48.45,48.45,0,0,1,62.53,61.15Z"/><path class="cls-1" d="M43.67,60.74a10.18,10.18,0,0,1-3.89-1.11,14.21,14.21,0,0,1-8.24-10.71,13.91,13.91,0,0,1,2-10.23,14.06,14.06,0,0,1,7.54-6,.28.28,0,0,1,.19.36c-.52.61-1.33.68-2,1.06a14,14,0,0,0-6.88,8.84,13.39,13.39,0,0,0,1.78,11,13.78,13.78,0,0,0,8.11,5.93,21.36,21.36,0,0,0,5.45.52c.19.05.43.05.4.35h0c-.29.15-.61,0-.9.12a5.11,5.11,0,0,1-2.66,0C44.29,60.72,44,60.9,43.67,60.74Z"/><path class="cls-1" d="M60.28,49a13.93,13.93,0,0,1-3.81,7.55,12.77,12.77,0,0,1-7,4c-.19,0-.37.12-.54-.05-.05-.48.34-.48.63-.55a14,14,0,0,0,10-10.71c0-.25.07-.55.36-.68S60.19,48.78,60.28,49Z"/><path class="cls-1" d="M49.28,32.22a14.06,14.06,0,0,1,7.36,4.29,14.25,14.25,0,0,1,3.64,7.32c-.09.17.06.48-.29.49-.38-.18-.35-.57-.42-.88a13.78,13.78,0,0,0-4.75-7.8,16.31,16.31,0,0,0-4.35-2.52c-.5-.21-1.15,0-1.53-.56C48.89,32.28,49.12,32.29,49.28,32.22Z"/><path class="cls-1" d="M49.28,32.22l-.29.29c-.26.22-.56.13-.84.08a12.34,12.34,0,0,0-5.73.31,1.5,1.5,0,0,1-1.21.07l-.15-.3A8.41,8.41,0,0,1,43.81,32a31.29,31.29,0,0,1,4.33,0A4.38,4.38,0,0,1,49.28,32.22Z"/><path class="cls-1" d="M60,44.26c.21-.07.13-.32.28-.43a15.71,15.71,0,0,1,0,5.12c-.15-.1-.07-.36-.28-.43a.92.92,0,0,1-.15-.83,8.72,8.72,0,0,0,0-2.6A.92.92,0,0,1,60,44.26Z"/><path class="cls-1" d="M48.14,32H43.81a9.28,9.28,0,0,1,2.78-.12A2.74,2.74,0,0,1,48.14,32Z"/><path class="cls-1" d="M49,60.27c.12.21.33.16.51.19a2.7,2.7,0,0,1-1.37.3c-.12-.2-.32-.17-.51-.19A1.06,1.06,0,0,1,49,60.27Z"/><path class="cls-1" d="M43.67,60.74c.3,0,.63-.12.9.12C44.27,60.84,43.94,61,43.67,60.74Z"/><path class="cls-1" d="M47.23,60.87c.27-.25.6-.09.9-.12C47.86,61,47.53,60.83,47.23,60.87Z"/><path class="cls-1" d="M49,60.27a4,4,0,0,0-1.37.3,16.71,16.71,0,0,1-6.13-.71,13.93,13.93,0,0,1-9.52-11A13.42,13.42,0,0,1,34.8,37.64a13.09,13.09,0,0,1,6-4.45,1.57,1.57,0,0,0,.37-.22A15.33,15.33,0,0,1,49,32.51a15.89,15.89,0,0,1,4.56,2A14,14,0,0,1,59.88,44a.77.77,0,0,0,.12.24,16,16,0,0,1,0,4.26,24.31,24.31,0,0,1-1.24,3.85,14.68,14.68,0,0,1-6,6.47A18,18,0,0,1,49,60.27Z"/><path class="cls-1" d="M56.08,55.2a13,13,0,0,1-8.42,4.5c-.34-.27-.33-.35.09-.79a1.2,1.2,0,0,1,.33-.13,12.48,12.48,0,0,0,6.79-3.59,1.49,1.49,0,0,1,.73-.47C55.92,54.72,56.21,54.75,56.08,55.2Z"/><path class="cls-1" d="M35.3,54.74a12.43,12.43,0,0,1-2.79-7.1c.25-.18.37-.63.82-.39a4,4,0,0,1,.3,1.4,11.07,11.07,0,0,0,1,3.16,8.12,8.12,0,0,0,.91,1.66c.16.24.38.46.36.78A3.1,3.1,0,0,1,35.3,54.74Z"/><path class="cls-1" d="M56.5,38.07A11.12,11.12,0,0,1,59,43.49c.16.23,0,.54.16.77s0,.69.15,1a.53.53,0,0,1-.56.14.52.52,0,0,1-.37-.49,14,14,0,0,0-2.62-6.3.33.33,0,0,1,0-.14C55.88,38.17,56.23,38.2,56.5,38.07Z"/><path class="cls-1" d="M47.81,59c-.08.23-.48.39-.15.71a11.84,11.84,0,0,1-4.28-.08,8.1,8.1,0,0,1-3.08-1,.48.48,0,0,1,.12-.68A.65.65,0,0,1,41,58a9.92,9.92,0,0,0,3.58.88,9.91,9.91,0,0,0,2.72,0A.46.46,0,0,1,47.81,59Z"/><path class="cls-1" d="M40.47,57.91l-.17.67a8.38,8.38,0,0,1-2.87-1.68,9.7,9.7,0,0,1-2.13-2.16c0-.39.27-.5.61-.49s.48.19.66.38A13.58,13.58,0,0,0,40,57.39C40.24,57.5,40.49,57.6,40.47,57.91Z"/><path class="cls-1" d="M56.08,55.2c0-.38-.31-.35-.57-.35-.06-.63.56-.89.79-1.37s.47-.73.68-1.11a14.73,14.73,0,0,0,1.26-3.59,1.13,1.13,0,0,1,.22-.53c.37-.06.5-.44.79-.6a9.59,9.59,0,0,1-.65,3.24A11.81,11.81,0,0,1,56.08,55.2Z"/><path class="cls-1" d="M33.25,47.2c-.27.11-.4.46-.74.44A13.43,13.43,0,0,1,33,42.33c.23-.07.12-.29.19-.43s.17-.54.39-.58.42.28.53.52c.16.53-.17,1-.24,1.47a4,4,0,0,0-.15.85,4,4,0,0,1-.07.69,7.87,7.87,0,0,0-.16,1.81C33.54,46.9,33.5,47.11,33.25,47.2Z"/><path class="cls-1" d="M48.59,34c-.22-.36-.12-.53.3-.5a7.13,7.13,0,0,1,2.35.72,11.68,11.68,0,0,1,3.7,2.42c.32.32,1,.23,1,.86-.3.2-.64-.35-.94,0-.34,0-.52-.22-.71-.42a10,10,0,0,0-2.53-1.78l-.19-.08L51,34.92a9.14,9.14,0,0,0-1.75-.63C49,34.23,48.72,34.21,48.59,34Z"/><path class="cls-1" d="M48.59,34a7.53,7.53,0,0,1,2.47.84.18.18,0,0,1,0,.21c-.34.41-.68.1-1,0a5.24,5.24,0,0,0-2.87-.39c-.84,0-1.68,0-2.53,0-.38,0-.74-.35-1.16,0-.15.13-.52,0-.74-.2a.16.16,0,0,1,0-.22l2.1-.45a3,3,0,0,1,2.74,0A1.22,1.22,0,0,0,48.59,34Z"/><path class="cls-1" d="M33.56,44.11c0-.76.45-1.42.44-2.18a4,4,0,0,1,.33-1,15.59,15.59,0,0,1,1.3-2.19c.47-.46.75-1.11,1.39-1.4.69-.54,1.36-1.08,2-1.6a1.21,1.21,0,0,1,.78-.36c.15-.06.19,0,.21.15a3,3,0,0,1-1.12.92,12.66,12.66,0,0,0-4.77,6.78,1.6,1.6,0,0,1-.4.85A.22.22,0,0,1,33.56,44.11Z"/><path class="cls-1" d="M35.76,38.83,34.46,41c-.69,0-.8-.11-.53-.7a2.32,2.32,0,0,0,.32-.8,3.39,3.39,0,0,1,.59-.94c.15,0,.21-.07.27-.18s.28-.36.52-.21A.4.4,0,0,1,35.76,38.83Z"/><path class="cls-1" d="M59.25,47.65c-.16.27,0,.91-.68.58a7.23,7.23,0,0,1,.09-2.93l.65,0A5.27,5.27,0,0,1,59.25,47.65Z"/><path class="cls-1" d="M47.64,33.81a13.93,13.93,0,0,0-2.74,0c-.26-.55-.09-.75.51-.69s1.24,0,1.88.09S47.78,33.46,47.64,33.81Z"/><path class="cls-1" d="M35.76,38.83c0-.22,0-.47-.25-.54s-.3.18-.4.33-.19.14-.27,0c.31-.4.63-.8.93-1.21.42-.59.83-.67,1.25,0Z"/><path class="cls-1" d="M34.25,39.54c.22.29-.06.49-.17.68-.3.51-.18.75.38.82-.17.28-.13.68-.46.89l-.31-.54c-.4.23-.27.76-.66.94A9.51,9.51,0,0,1,34.25,39.54Z"/><path class="cls-1" d="M55,37.52c0-.41.13-.62.55-.3.13.1.27.17.41.26s.45.31.53.59c0,.62-.44.28-.7.3A1,1,0,0,1,55,37.52Z"/><path class="cls-1" d="M40,35.58l-.17-.16a5.27,5.27,0,0,1,2.49-1,.93.93,0,0,0,.46-.18v.18a.27.27,0,0,1-.2.34c-.79.25-1.52.63-2.31.88A.35.35,0,0,1,40,35.58Z"/><path class="cls-1" d="M59.16,44.26c-.27-.22-.13-.51-.16-.77C59.27,43.7,59.08,44,59.16,44.26Z"/><path class="cls-1" d="M40.47,57.91a21.29,21.29,0,0,1-3-2.16c-.49-.52-1-1-1.54-1.5A10.21,10.21,0,0,1,34.56,52a.44.44,0,0,1,0-.32c.58-.1.51.48.76.72a10.85,10.85,0,0,0,.85,1.34c.17.19.37.34.55.52a5.57,5.57,0,0,0,.76.85,4.78,4.78,0,0,0,.72.63,6.74,6.74,0,0,0,1,.82c.27.23.62.34.89.57a5.66,5.66,0,0,1,.75.44,4.49,4.49,0,0,0,.71.31c.25.09.52.14.78.24a7,7,0,0,0,1.13.31,11.72,11.72,0,0,0,1.32.22l.23,0h2.16c.31,0,.63-.19.93,0a.22.22,0,0,1,0,.32l-.3.05h-.42a13.48,13.48,0,0,1-2.84,0A9.35,9.35,0,0,1,40.47,57.91Z"/><path class="cls-1" d="M48.11,58.94v-.26a.53.53,0,0,1,.3-.25,3.9,3.9,0,0,0,.67-.18,2.28,2.28,0,0,1,.45-.2c.25-.09.51-.13.76-.23s.55-.21.82-.33.56-.33.86-.45a3.67,3.67,0,0,0,.65-.4,4.45,4.45,0,0,0,.85-.71c.23-.12.37-.34.59-.47a1.58,1.58,0,0,0,.59-.53c.25-.24.46-.52.7-.77a2.9,2.9,0,0,0,.48-.57,9.74,9.74,0,0,0,.56-.86c.14-.19.2-.42.39-.56s.28.14.3.32a11.82,11.82,0,0,1-1.57,2.36,14.49,14.49,0,0,1-5,3.46A16.83,16.83,0,0,1,48.11,58.94Z"/><path class="cls-1" d="M34.58,51.61l0,.34a11.91,11.91,0,0,1-1.31-4.75,11.53,11.53,0,0,0,.1-1.67c0-.24,0-.5.19-.69a.13.13,0,0,1,.2.07A17.36,17.36,0,0,0,34,48.85a17.63,17.63,0,0,0,.59,1.87C34.63,51,34.82,51.31,34.58,51.61Z"/><path class="cls-1" d="M57.08,52.49l-.28-.29a.26.26,0,0,1,.05-.29c.37-.42.27-1,.54-1.46a7.24,7.24,0,0,0,.6-1.88A11.24,11.24,0,0,0,57.85,44a11.08,11.08,0,0,0-2.46-5.18A9.16,9.16,0,0,0,52.28,36a1.26,1.26,0,0,1-.55-.57.27.27,0,0,1,.06-.31A9.62,9.62,0,0,1,55,37.52l.79.85a15.38,15.38,0,0,1,2.51,5.1,11.16,11.16,0,0,0,.35,1.83,11.06,11.06,0,0,1-.09,2.93,16.91,16.91,0,0,1-1.22,3.85A.82.82,0,0,1,57.08,52.49Z"/><path class="cls-1" d="M44.55,59h2.84A5.08,5.08,0,0,1,44.55,59Z"/><path class="cls-1" d="M33.69,44.85h-.15l0-.73h.13A.51.51,0,0,1,33.69,44.85Z"/><path class="cls-1" d="M51.05,35v-.17a.81.81,0,0,1,.59.31c-.06.38-.28.23-.48.15A.26.26,0,0,1,51.05,35Z"/><path class="cls-1" d="M51.2,35.14c.15,0,.3.23.45,0l.14,0v.27C51.46,35.59,51.15,35.72,51.2,35.14Z"/><path class="cls-1" d="M33.69,44.85v-.74a17.41,17.41,0,0,1,1.9-4.38A12.58,12.58,0,0,1,40,35.58l2.79-1.18c.6.27,1.21-.3,1.81,0-.1.36-.42.39-.7.43a11.59,11.59,0,0,0-4.36,1.67,12.71,12.71,0,0,0-1.36,1.06,8.27,8.27,0,0,0-.92.85,3,3,0,0,0-.54.69,6.8,6.8,0,0,0-.46.6c-.09.13-.19.24-.27.38a2.24,2.24,0,0,1-.39.73,6.42,6.42,0,0,0-.34.56,6.82,6.82,0,0,0-.31.79,1.41,1.41,0,0,1-.13.24,2.57,2.57,0,0,0-.16.54c-.06.19-.09.39-.14.58s-.09.4-.14.6a4.33,4.33,0,0,0-.21,1.06c0,.26,0,.53,0,.79a.66.66,0,0,1-.12.3c-.34.5-.11,1-.09,1.56s.19.77-.12,1.12A8.58,8.58,0,0,1,33.69,44.85Z"/><path class="cls-1" d="M51.2,35.14c0,.39.36.26.59.29.39.52,1,.69,1.54,1.06a13,13,0,0,1,4.5,6.39,2.53,2.53,0,0,1,.14.94c-.65,0-.37-.69-.66-1a5.36,5.36,0,0,1-.17-.57A3.27,3.27,0,0,0,57,42a2.16,2.16,0,0,0-.21-.29,1.44,1.44,0,0,1-.24-.48,3,3,0,0,0-.17-.41,4.74,4.74,0,0,0-.31-.54c-.11-.15-.19-.31-.31-.45s-.24-.37-.39-.54-.2-.24-.3-.36a5.08,5.08,0,0,0-.39-.41l-.31-.32a3.08,3.08,0,0,1-.3-.33,1.3,1.3,0,0,0-.32-.3,2.21,2.21,0,0,0-.47-.33c-.22-.1-.33-.32-.5-.47a1.89,1.89,0,0,0-.51-.26,4.92,4.92,0,0,1-.83-.54l-.18-.08a2.11,2.11,0,0,0-.69-.29,3.61,3.61,0,0,1-.46-.17,2.65,2.65,0,0,0-.87-.22c-.33,0-.57-.29-.9-.27s-.69,0-1-.25a.25.25,0,0,1-.05-.22,4.5,4.5,0,0,1,3.13.52c.22.11.38.17.59,0Z"/><path class="cls-1" d="M47.33,34.43l.06.1c0,.29-.2.34-.38.33a6.91,6.91,0,0,0-1.9.44,39.17,39.17,0,0,0-4.49,1.33c-.38.15-.87.42-1.19-.17a10.07,10.07,0,0,1,4.22-1.78,4.63,4.63,0,0,0,1-.26Z"/><path class="cls-1" d="M34,46v-.87c1.37,0,2.68.44,4,.6a11.37,11.37,0,0,1,4.41,1.67.81.81,0,0,0,1.06-.11,2.44,2.44,0,0,1,1.1-.71,7.84,7.84,0,0,1,2.69.1,7.63,7.63,0,0,1,4.85,4.91,13.37,13.37,0,0,1,.8,3.12,2.61,2.61,0,0,1-.27,2,1.4,1.4,0,0,1-.62.39c-.43,0-.36-.36-.37-.65A11,11,0,0,0,51,52.34a6.72,6.72,0,0,0-2.3-3.24,4.22,4.22,0,0,0-4-.78,6.26,6.26,0,0,0-3.57,3.44,7.48,7.48,0,0,0-.8,4.68.59.59,0,0,1-.3.75c-.26-.23-.68-.24-.88-.58A3.14,3.14,0,0,1,39,54.46c.4-1.89.79-3.8,2.2-5.27a.26.26,0,0,0,.07-.25,2.48,2.48,0,0,1-1.12-.61,8.79,8.79,0,0,0-3.66-1.6,16.92,16.92,0,0,0-2.22-.49A.35.35,0,0,1,34,46Z"/><path class="cls-1" d="M40,57.19a1,1,0,0,0,.13-.78,7.25,7.25,0,0,1,.75-4.63,6.34,6.34,0,0,1,2.62-3.16c2.22-1.27,4-.91,5.87.83a8.11,8.11,0,0,1,2.4,5.38,7.49,7.49,0,0,1,.05,2.06c0,.08.15.18.22.27l-.87.45c-.44-.21-.33-.62-.31-1a8.84,8.84,0,0,0-1.24-5.26,4.47,4.47,0,0,0-4.54-2.14,4,4,0,0,0-2.43,1.64,8.6,8.6,0,0,0-1.7,6c0,.28.15.59-.22.77Z"/><path class="cls-1" d="M50.33,58c-.21.2-.52.13-.75.25-.41-.32-.2-.73-.13-1.08a5.83,5.83,0,0,0-1-4.75c-1.35-1.86-3.55-2-5,.11a5.81,5.81,0,0,0-1,5c.07.28.12.6-.25.76-.23-.12-.54-.05-.74-.27-.38-.29-.24-.73-.27-1.09a7.85,7.85,0,0,1,1.92-6,4,4,0,0,1,5.89.21,7.49,7.49,0,0,1,1.62,4,16.34,16.34,0,0,1,0,2A1.28,1.28,0,0,1,50.33,58Z"/><path class="cls-1" d="M50.33,58a10.51,10.51,0,0,0-.09-3.83,7.56,7.56,0,0,0-1.32-2.86A3.74,3.74,0,0,0,43.33,51a7.47,7.47,0,0,0-1.85,6.09c0,.29-.15.58,0,.86a1.64,1.64,0,0,1-.74-.29c.25-.33,0-.66,0-1a8.7,8.7,0,0,1,1.8-5.93A4,4,0,0,1,45.86,49c2.68,0,3.77,1.72,4.66,3.76a7.54,7.54,0,0,1,.54,3.91,1.29,1.29,0,0,0,.13.92Z"/><path class="cls-1" d="M34,46c2.41.43,4.83.8,6.74,2.55a.57.57,0,0,0,.47.16c.18,0,.42-.17.5.1s-.15.29-.27.4c-1.23,1.19-1.58,2.77-2,4.33a11.66,11.66,0,0,0-.26,3,2.24,2.24,0,0,1-1.06-.86,13.32,13.32,0,0,1,1.31-5.63c.61-1.2.31-1.08-.63-1.25a1.87,1.87,0,0,1-.32,0l-.2,0a2.43,2.43,0,0,0-.87-.26,4.57,4.57,0,0,1-.75-.32c-.36-.2-.68-.44-1-.6A4.73,4.73,0,0,1,34,46.32Z"/><path class="cls-1" d="M48.41,58.54l-.3.14c-.31-.07-.58.11-.88.11-.12-.16,0-.28.09-.36,1.38-.87,1.15-4,0-5.15a1.83,1.83,0,0,0-2.88.25,4,4,0,0,0-.51,4.1,1.36,1.36,0,0,0,.14.33c.12.17-.08.58.4.48.15,0,.3.15.26.36l-1.32-.27c-.67-.28-.76-1-.84-1.51a5.23,5.23,0,0,1,1.84-5.19,2.69,2.69,0,0,1,3.2.07,5.34,5.34,0,0,1,1.66,5.45c-.07.33-.13.67-.22,1S48.58,58.34,48.41,58.54Z"/><path class="cls-1" d="M49,58.37c-.27-.69.14-1.32.23-2,.21-1.51-.86-4-2.16-4.71a3,3,0,0,0-3.05.73,5.28,5.28,0,0,0-.75,5.95c0,.06.1.11.14.16a3.24,3.24,0,0,1-1.17-.32.86.86,0,0,0,.08-.7A5.94,5.94,0,0,1,43,52.9a4.44,4.44,0,0,1,2.12-2c1.18-.57,3.11.59,3.67,1.56a8.28,8.28,0,0,1,1,3.46,7.57,7.57,0,0,1-.25,1.87.67.67,0,0,0,0,.42l-.43.17A.09.09,0,0,1,49,58.37Z"/><path class="cls-1" d="M47.07,58.8H44.88a1.24,1.24,0,0,0-.28-.5,3.64,3.64,0,0,1-.33-4.08c1-1.55,2.47-1.46,3.42.07a3.78,3.78,0,0,1-.34,4C47.21,58.41,47,58.55,47.07,58.8Z"/><path class="cls-1" d="M47.07,58.8l-.34-.23c1.4-.9,1.72-4.06,0-5a1.84,1.84,0,0,0-2.15.47,4.56,4.56,0,0,0-.43,3.41c.06.4.43.57.67.84s.4.33.06.55h-.16s0-.11-.08-.11c-1.16-.17-1-1.26-1.18-1.94a3.87,3.87,0,0,1,1.11-3.68,2.07,2.07,0,0,1,3.21.51,4.94,4.94,0,0,1,.46,4c-.15.54-.63.85-1,1.22Z"/><path class="cls-1" d="M38.69,48.67l.5.1c1.05.24,1,.27.45,1.27a9.36,9.36,0,0,0-1.09,3.4,10.64,10.64,0,0,1-.47,2.31,1.18,1.18,0,0,1-.71-.6,1,1,0,0,1-.18-.76,13.93,13.93,0,0,1,1.09-4.13A2.64,2.64,0,0,0,38.69,48.67Z"/><path class="cls-1" d="M35.61,47.48a2.34,2.34,0,0,1,1,.6.68.68,0,0,1-.06.82,7.3,7.3,0,0,0-.82,2.57c-.07.39-.1.85-.59,1-.27-.25-.2-.72-.59-.88l-.15-.88A8.12,8.12,0,0,1,35.61,47.48Z"/><path class="cls-1" d="M35.17,52.49a2,2,0,0,0,.42-1.14,6.09,6.09,0,0,1,.82-2.52,1.33,1.33,0,0,0,.23-.75l.73.3c.08.12.32,0,.34.23a26.48,26.48,0,0,0-1.08,2.85A9.26,9.26,0,0,0,36.4,53c-.07.28-.06.59-.35.77A6.46,6.46,0,0,1,35.17,52.49Z"/><path class="cls-1" d="M38.69,48.67a1,1,0,0,1,0,1.21,12,12,0,0,0-1.34,5.27c-.31-.25-.66-.45-.75-.88a4.56,4.56,0,0,1,.18-1.8,16.3,16.3,0,0,1,1-3.17,1.1,1.1,0,0,1,.57-.63Z"/><path class="cls-1" d="M38.4,48.67a13.54,13.54,0,0,0-1.61,5.15c0,.16,0,.34-.17.45-.28-.05-.39-.29-.57-.46a14,14,0,0,1,.29-1.9c.37-1.14.48-2.42,1.33-3.39a1.09,1.09,0,0,1,.58.15Z"/><path class="cls-1" d="M52.68,56.77a8.74,8.74,0,0,0-.5-4.35A7.66,7.66,0,0,0,51,49.78,7.37,7.37,0,0,0,47.63,47a11.67,11.67,0,0,0-3.05-.24c-.2-.39.1-.59.34-.76s.56-.62,1-.62a11.27,11.27,0,0,1,2.39.64,8.5,8.5,0,0,1,2.06,1.37,10.52,10.52,0,0,1,2.89,5.27,8.32,8.32,0,0,1,.4,2.89.7.7,0,0,1-.14.48A2,2,0,0,1,52.68,56.77Z"/><path class="cls-1" d="M56.5,40.72c.17.11.14.28.15.44.16.31-.08.45-.26.6A16.11,16.11,0,0,0,54,44.51c-.29.42-.56.89-1.3.72A17.5,17.5,0,0,0,53.8,46.8,14.36,14.36,0,0,1,56,53.1a1.26,1.26,0,0,1-.05.58c-.13.21-.18.48-.45.57-.44-.06-.5-.43-.55-.76-.09-.48-.22-1-.31-1.43a11.87,11.87,0,0,0-4.39-7.2c-.16-.12-.43-.19-.33-.49.3-.21.6-.07.9,0s.52,0,.77.08c.93.3.9.28,1.51-.46a26.48,26.48,0,0,1,2.85-3A.85.85,0,0,1,56.5,40.72Z"/><path class="cls-1" d="M53.55,56c-.13-.62,0-1.24-.13-1.87-.49-2.58-1.27-5-3.34-6.8a5.6,5.6,0,0,0-3.63-1.63.54.54,0,0,1-.55-.29A1.16,1.16,0,0,1,47,44.77,7.84,7.84,0,0,1,51.85,48a11.06,11.06,0,0,1,1.89,4.24c.15.71.31,1.43.47,2.14a1.34,1.34,0,0,1-.07,1.2C53.88,55.64,53.88,56.05,53.55,56Z"/><path class="cls-1" d="M49.88,44.41a11.8,11.8,0,0,1,4.45,5.94,22.94,22.94,0,0,1,.72,3c.07.32.09.69.41.9a2.75,2.75,0,0,1-.72.76c-.46-.26-.45-.74-.48-1.16a12.13,12.13,0,0,0-1.84-5.35A9.3,9.3,0,0,0,48.93,45c-.29-.16-.61-.31-.24-.7a.73.73,0,0,1,.23-.09C49.25,44.22,49.6,44.14,49.88,44.41Z"/><path class="cls-1" d="M55.91,53.68c-.29-.45-.11-1-.2-1.44a17,17,0,0,0-2.38-5.87,5,5,0,0,0-.74-.79c-.11-.13-.26-.26-.16-.45s.29-.14.46-.09.36.16.52-.07a28.63,28.63,0,0,1,3.24-3.81c.09.15.19.3.29.45s0,.31-.12.43A27.34,27.34,0,0,0,54,45.28c-.25.3-.07.52.08.71a9.9,9.9,0,0,1,1.58,2.95c.43,1.25,1.13,2.44.86,3.86C56.31,53.09,56.26,53.48,55.91,53.68Z"/><path class="cls-1" d="M48.7,44.41c-.05.13-.14.28,0,.37,2.35,1.11,3.63,3.09,4.72,5.35a21.67,21.67,0,0,1,1.11,4.4,4.5,4.5,0,0,0,.16.48.89.89,0,0,1-.6.56,10.79,10.79,0,0,0-.53-3c-.15-.46-.21-.94-.35-1.39a9.18,9.18,0,0,0-4.65-5.7,16.58,16.58,0,0,1-1.68-.65c.33-.59.94-.47,1.46-.59A.42.42,0,0,1,48.7,44.41Z"/><path class="cls-1" d="M56.5,52.8c-.26-.44,0-.93-.17-1.37-.24-.81-.56-1.59-.83-2.39a20,20,0,0,0-2-3.54,44.15,44.15,0,0,1,3.39-3.89.28.28,0,0,1,.14.29c.18.33-.1.49-.24.7-.56.81-1.29,1.47-1.87,2.26a.8.8,0,0,0-.1,1A23.79,23.79,0,0,1,57,50.78a1.74,1.74,0,0,1,0,1.27l-.14.15A1,1,0,0,1,56.5,52.8Z"/><path class="cls-1" d="M49,58.37l.16,0c-.21.2-.49.1-.74.15C48.55,58.31,48.79,58.4,49,58.37Z"/><path class="cls-1" d="M35.61,47.48c0,.1.09.23.06.28-.72.87-.68,2.05-1.24,3A4.76,4.76,0,0,1,33.84,49c0-.86-.22-1.69-.16-2.56,0-.46.2-.14.33-.09A16.26,16.26,0,0,1,35.61,47.48Z"/><path class="cls-1" d="M57.23,42.2c.22.15.13.38.15.59a.73.73,0,0,1-.15,1.13c-.72.65-.71.7-.23,1.53s.68,1.55,1.08,2.31a1,1,0,0,1,0,.91,4.27,4.27,0,0,1-.59,1.91c-.48-.24-.56-.74-.67-1.17a12.37,12.37,0,0,0-1.44-3.26,1.39,1.39,0,0,1,.05-1.8C56,43.61,56.65,42.92,57.23,42.2Z"/><path class="cls-1" d="M57.23,42.2c0,.75-.82,1-1.08,1.58,0,.08-.13.14-.19.21-.91,1.07-.89,1.08-.21,2.32a17.74,17.74,0,0,1,1.47,3.54,6.59,6.59,0,0,0,.3.73c-.26.47-.1,1.1-.58,1.47A8.83,8.83,0,0,0,56,48.7a16.29,16.29,0,0,0-1.59-3.18c-.17-.26,0-.34.16-.48.77-.94,1.54-1.88,2.3-2.83a1.17,1.17,0,0,0,.17-.31A.31.31,0,0,1,57.23,42.2Z"/><path class="cls-1" d="M58.11,48.67c.1-.84-.59-1.4-.8-2.14a5.44,5.44,0,0,0-.79-1.48c-.41-.59.18-1,.54-1.23a.74.74,0,0,0,.32-1c.5.16.08.86.59,1A8.52,8.52,0,0,1,58.11,48.67Z"/><path class="cls-1" d="M48.4,44.41a4.79,4.79,0,0,0-1.47.44l-1,.59c-.42.46-1.14.62-1.32,1.32-.49.15-.77.59-1.15.88a.69.69,0,0,1-1,0,11.35,11.35,0,0,0-3.24-1.54,20.12,20.12,0,0,0-3.33-.54c-.47-.07-.91-.34-1.41-.16-.23.08-.33-.16-.47-.27a2.59,2.59,0,0,1,.26-1.06.66.66,0,0,1,.2.27c.08.22.27.26.47.27a37.77,37.77,0,0,1,7.2.77,4.16,4.16,0,0,0,3-.55A9.73,9.73,0,0,0,46.9,43.6c1.6-1.36,3.3-2.59,5-3.79a22.64,22.64,0,0,0,2.22-1.43.52.52,0,0,1,.62,0l.42.45A7.16,7.16,0,0,1,53.53,40a22.25,22.25,0,0,0-4.78,4.14A2.39,2.39,0,0,1,48.4,44.41Z"/><path class="cls-1" d="M53.4,37.08c.24,0,.33.22.47.38s-.19.3-.34.39c-1.76,1-3.52,2-5.29,3a16.63,16.63,0,0,1-8,2.49,26.93,26.93,0,0,0-4.73.37c-.87.17-1.07,0-1-.77,0-.2,0-.42.16-.58a1.39,1.39,0,0,0,1.11.21c2.08-.26,4.17-.48,6.23-.86a8.4,8.4,0,0,0,3-.9,10.87,10.87,0,0,1,1.64-.63c1.78-.75,3.46-1.7,5.17-2.57A4.83,4.83,0,0,1,53.4,37.08Z"/><path class="cls-1" d="M53.4,37.08c-1.26.62-2.52,1.23-3.76,1.88a16.91,16.91,0,0,1-3,1.37c-1.08.31-2,.94-3.13,1.2-1.49.36-3,.46-4.47.76-1.14.24-2.31.14-3.44.46-.29.09-.89.32-.92-.42l.09-.14a1.35,1.35,0,0,1,1-.5,38.47,38.47,0,0,0,11.76-2.88c1.45-.65,2.91-1.28,4.36-1.94a1.82,1.82,0,0,1,.9-.27C53.15,36.59,53.1,37.05,53.4,37.08Z"/><path class="cls-1" d="M34.56,42.91c-.05.47.16.68.64.61a26.59,26.59,0,0,1,2.93-.35c.7,0,1.4-.08,2.09-.07a14,14,0,0,0,6.36-1.64c1.57-.77,3-1.7,4.58-2.52a27.3,27.3,0,0,1,2.71-1.48.35.35,0,0,1,.28.32c0,.25-.16.33-.32.43-2.12,1.31-4.3,2.53-6.39,3.88a17.53,17.53,0,0,1-4.23,1.85,2,2,0,0,1-.65.08q-3.69,0-7.36,0c-.32,0-.86.16-.78-.51C34.43,43.29,34.39,43.07,34.56,42.91Z"/><path class="cls-1" d="M52.82,36.6c-1.27.77-2.69,1.21-4,1.86a39.42,39.42,0,0,1-4.05,1.64,20.22,20.22,0,0,1-3,.81c-1,.19-1.93.44-2.9.61a28.67,28.67,0,0,0-2.88.36,4.33,4.33,0,0,0-1.16.31,2.09,2.09,0,0,1,.36-.87,30.21,30.21,0,0,1,3.14-.67,43.35,43.35,0,0,0,4.5-.95,63.83,63.83,0,0,0,8.27-3.12,3.3,3.3,0,0,1,1.28-.23A.78.78,0,0,1,52.82,36.6Z"/><path class="cls-1" d="M34.42,43.5c0,.34.3.32.55.32,2.62,0,5.24.08,7.84,0a8.09,8.09,0,0,0,3.12-1.12,40.8,40.8,0,0,0,4-2.39c.68-.45,1.44-.8,2.15-1.22s1.41-.85,2.11-1.27l.3.29c-.74.86-1.87,1.14-2.76,1.78-1.25.89-2.57,1.69-3.81,2.59a10.26,10.26,0,0,1-7.76,2.24,33.22,33.22,0,0,0-3.87-.13,12.94,12.94,0,0,1-2-.15l0-.31C34.27,43.88,34.23,43.66,34.42,43.5Z"/><path class="cls-1" d="M52.36,36.35c-2.59,1-5.09,2.19-7.74,3a26.69,26.69,0,0,1-5.15,1.25,34.5,34.5,0,0,0-4,.82c-.17,0-.26.12-.28-.11l.31-.59c1.82-.54,3.7-.84,5.55-1.25A43.16,43.16,0,0,0,46,38c1.59-.55,3.14-1.21,4.74-1.74a2.47,2.47,0,0,0,.75-.44Z"/><path class="cls-1" d="M50.61,35.43a.88.88,0,0,1,.73.31c0,.34-.3.36-.5.43a95.75,95.75,0,0,1-10.49,3.4c-1.23.31-2.47.53-3.7.81-.27.06-.75.27-.74-.36l.27-.34a6.54,6.54,0,0,1,2.08-.55c1.81-.49,3.6-1.06,5.41-1.53s3.42-1.14,5.15-1.6C49.43,35.83,49.94,35.38,50.61,35.43Z"/><path class="cls-1" d="M50.61,35.43a16.1,16.1,0,0,1-3.23,1.21c-.83.23-1.61.63-2.44.86-2,.56-4.06,1.21-6.11,1.71a6.62,6.62,0,0,1-2.65.47c0-.32.32-.38.44-.6a3.13,3.13,0,0,1,1.5-.51c2.91-.57,5.67-1.64,8.51-2.4a8.71,8.71,0,0,0,1.79-.65,2.73,2.73,0,0,1,1.77-.27Z"/><path class="cls-1" d="M50.19,35.25c-1.52.19-2.85,1-4.32,1.36-2.3.6-4.52,1.46-6.84,2a14.36,14.36,0,0,1-2.41.51,1,1,0,0,1,.59-.73,10.68,10.68,0,0,1,2.6-.78c1.69-.48,3.34-1.1,5.06-1.49,1.08-.24,2.07-.73,3.15-1,.44-.1.87.11,1.27-.11A2,2,0,0,1,50.19,35.25Z"/><path class="cls-1" d="M49.29,35c-1.52.35-3,.88-4.47,1.32-1.82.54-3.62,1.12-5.44,1.61a8,8,0,0,1-2.17.44,2.64,2.64,0,0,1,.88-.88c1.47-.5,3-.93,4.45-1.35s3-.9,4.57-1.32c.43-.12.88.09,1.29-.1S48.93,35.08,49.29,35Z"/><path class="cls-1" d="M35.91,40c.07.37.37.3.58.23.51-.18,1.06-.16,1.56-.3,2.16-.58,4.33-1.13,6.47-1.78,1.23-.38,2.42-.86,3.67-1.17a23.51,23.51,0,0,0,3.15-1.26l.15,0c0,.44-.34.55-.61.6A29,29,0,0,0,48,37.48c-1.81.51-3.54,1.27-5.35,1.8S39,40,37.18,40.52a3.56,3.56,0,0,1-1.7.21C35.77,40.58,35.68,40.2,35.91,40Z"/><path class="cls-1" d="M48.4,34.7a20.36,20.36,0,0,0-2.76.72L41,36.79c-.89.26-1.77.55-2.66.82,0,0-.15-.09-.23-.14a4.27,4.27,0,0,1,1.34-1,.94.94,0,0,0,1,0c1.53-.61,3.16-.89,4.69-1.43.76-.27,1.56-.11,2.24-.52C47.7,34.75,48.07,34.61,48.4,34.7Z"/><path class="cls-1" d="M34.29,44.4a1.88,1.88,0,0,1,1.07-.14c2.1.09,4.2.21,6.3.29A8.19,8.19,0,0,0,46.53,43c1.94-1.27,3.87-2.58,5.83-3.84.66-.43,1.39-.75,2.09-1.13l.32.29c-.79.12-1.28.76-1.92,1.14a50.2,50.2,0,0,0-6.27,4.6,6.2,6.2,0,0,1-3.39,1.58,7.49,7.49,0,0,1-2.29-.28,39.18,39.18,0,0,0-4.69-.55,4.19,4.19,0,0,0-1.37,0C34.53,44.9,34.24,44.84,34.29,44.4Z"/><path class="cls-1" d="M48.4,44.41a9.86,9.86,0,0,1,2.8-2.95A23,23,0,0,1,54.79,39a3.33,3.33,0,0,1,.4-.16l.26.33c.06.33-.18.48-.4.63A34.87,34.87,0,0,0,51.18,43a1,1,0,0,0-.21.2,2.2,2.2,0,0,1-2.12,1.22H48.4Z"/><path class="cls-1" d="M48.85,44.4c1-.07,1.47-.76,2.08-1.4a24.14,24.14,0,0,1,4.19-3.48,1.79,1.79,0,0,0,.33-.39c.26.11.25.43.45.58s0,.23-.14.3a21.45,21.45,0,0,0-4.31,4,1.56,1.56,0,0,1-.69.5,2.66,2.66,0,0,0-.88-.14Z"/><path class="cls-1" d="M50.76,44.55a40.24,40.24,0,0,1,3.49-3.66,15,15,0,0,1,1.65-1.18c.1.15.2.29.29.44s-.06.33-.2.42a22,22,0,0,0-3.8,3.79c-.15.17-.29.35-.55.19Z"/><path class="cls-1" d="M51.64,44.55c.55-.08.69-.65,1-1,.74-.86,1.6-1.61,2.32-2.49.34-.41,1-.47,1.26-.94.21.13.17.4.31.57a23.64,23.64,0,0,0-3.68,3.87C52.43,45.14,52,44.73,51.64,44.55Z"/><path class="cls-1" d="M38.25,48.67a.92.92,0,0,1-.58-.15c-.13,0-.24,0-.3-.14A1,1,0,0,1,38.25,48.67Z"/><path class="cls-1" d="M45.77,57.79a1.34,1.34,0,0,1-1-1,1.92,1.92,0,0,1,.49-2.21c.74-.64,1.57-.33,2,.7A1.81,1.81,0,0,1,45.77,57.79Z"/><path class="cls-1" d="M46.63,56.05c0,.51-.08,1-.62,1s-.68-.48-.7-1,0-1,.63-1S46.72,55.52,46.63,56.05Z"/></g></g></svg>