<svg xmlns="http://www.w3.org/2000/svg" viewBox="0 0 195.56 141.56"><defs><style>.cls-1{fill:#fff;}</style></defs><title>Asset 48</title><g id="Layer_2" data-name="Layer 2"><g id="Layer_1-2" data-name="Layer 1"><path class="cls-1" d="M137.62,88.78l-.79,7.45c-4.14,0-8.1,0-12.05,0-3.6-.06-2.54-2.91-2.54-4.81-.07-24.3,0-48.6,0-72.9,0-4-.19-8,.13-12,.1-1.17,1.6-3.08,2.58-3.16,4.41-.34,8.87-.15,13.84-.15V32.15c11-8,22.06-10.27,34.05-5.8,7.81,2.91,13.56,8.29,17.7,15.42,9.07,15.61,5.62,37.15-7.75,48.87C170.38,101.49,153.47,101,137.62,88.78Zm41.53-27.69c-.1-12.71-9-22-21-21.81-11.61.15-20.52,9.71-20.41,21.91.1,12.64,9.55,22.43,21.39,22.18C170.76,83.13,179.25,73.67,179.15,61.09Z"/><path class="cls-1" d="M100.82,34.54l.62-7.72h14.33V95.88H101.5c-.19-2.15-.4-4.39-.64-7.06a19.49,19.49,0,0,0-2.61,1.46C87.88,98.4,76.48,101,64.09,95.92c-12.58-5.13-19-15.3-20.87-28.34C40.72,50.53,48,35,61.43,28.06,73.9,21.6,87.05,23,97.75,32ZM80.11,39.27c-11.88,0-21,9.94-20.9,22.65.13,12,9.41,21.47,21.05,21.46s20.34-9.47,20.44-21.95C100.8,48.64,92.07,39.25,80.11,39.27Z"/><path class="cls-1" d="M17.59,26.56c6.9-21.46,17-28.92,35-25.93V16c-1.37.13-2.65.32-3.93.35-10.58.23-13.82,3.56-13.82,14.31q0,29.48,0,59v6.25c-5,0-9.58.26-14.11-.21-.93-.09-2.26-2.85-2.28-4.39-.17-14.82-.1-29.64-.1-44.47V40.88H0V26.56Z"/><path class="cls-1" d="M89.21,124.05A17.36,17.36,0,0,1,71.3,141.49a17.62,17.62,0,0,1-17.78-17.68,17.84,17.84,0,0,1,18-18C81.75,105.9,89.35,113.76,89.21,124.05Zm-1.9-.48a15.91,15.91,0,1,0-15.65,16.06A16.15,16.15,0,0,0,87.31,123.57Z"/><path class="cls-1" d="M43.75,140.17V124.61c-2.13-.17-3.43-.35-4.74-.36-5.8,0-11.6,0-18.26,0v16.25l-1.44,0V107l1.12-.08v15.32c7.46,0,14.07.13,20.67-.15.88,0,2.28-2.11,2.37-3.33.31-3.89.12-7.82.12-11.74H45v33.06Z"/><path class="cls-1" d="M137.45,124H121.83c0,4.83-.21,8.94.16,13,.08.89,2.19,2.21,3.42,2.28,4.85.27,9.73.11,14.6.11v1.25H119.8q0-10.63,0-21.23c0-13,0-13,12.87-13.07h7.39l.11,1.43c-1.92.16-3.83.41-5.75.46-3.16.09-6.36-.25-9.45.2a4.66,4.66,0,0,0-3,3.15c-.42,3.25-.14,6.59-.14,10.76h15.66Z"/><path class="cls-1" d="M189.44,109.64c-2.34-.66-4.64-1.69-7-1.91-4.08-.36-7.83.8-9.12,5.21s1.68,6.75,5.27,8.34c2.88,1.27,5.91,2.24,8.72,3.63,3.38,1.68,5.41,4.45,5.05,8.41s-3,6.14-6.47,7.45c-5.22,2-11.07.29-15.35-5.19a41.51,41.51,0,0,0,4.26,1.93c2.65.78,5.65,2.51,7.95,1.86,2.77-.77,6-3.15,7.13-5.68,1.51-3.26-1.34-5.88-4.38-7.34-2.54-1.21-5.26-2.06-7.85-3.18-5.36-2.31-7.48-5.74-6.49-10.36.89-4.18,5-7.22,10.25-6.93,2.92.16,5.78,1.29,8.67,2Z"/><path class="cls-1" d="M92.52,106.71h20.94l.14,1.05-9.75.91v31.59l-1.67,0V108.53L92.54,108Z"/><path class="cls-1" d="M167,140.74H149.64V107l1.21-.1c.12,1.83.34,3.66.35,5.48.05,7.48.16,15,0,22.42-.08,3.39,1,4.87,4.52,4.64,3.77-.24,7.57,0,11.35,0Z"/></g></g></svg>