<svg xmlns="http://www.w3.org/2000/svg" viewBox="0 0 220.7 104.11"><defs><style>.cls-1{fill:#fff;}.cls-2{fill:#fffac1;}.cls-3{fill:#fad0ba;}.cls-4{fill:#fad2be;}.cls-5{fill:#cacbca;}.cls-6{fill:#fdf12f;}.cls-7{fill:#f6f05a;}.cls-8{fill:#eded79;}.cls-9{fill:#d5e5a6;}.cls-10{fill:#fff22b;}.cls-11{fill:#92cac8;}.cls-12{fill:#f1802a;}.cls-13{fill:#c68b5f;}.cls-14{fill:#b07db2;}.cls-15{fill:#d5e35d;}.cls-16{fill:#a3c6a3;}</style></defs><title>Asset 76</title><g id="Layer_2" data-name="Layer 2"><g id="Layer_1-2" data-name="Layer 1"><path class="cls-1" d="M41.84.2a.49.49,0,0,1,.28-.11c.09-.08.22,0,.31-.09h.8c.05.07.15,0,.21.09a2.26,2.26,0,0,1,1,.57l0,0,0,0a1.37,1.37,0,0,1,0,.75c-.52,2.61-1.06,5.21-1.68,7.8-1.26,5.25-2.68,10.47-4.38,15.6-.06.2-.07.45-.35.5,0-1.41,0-2.81,0-4.22,0-3.36.09-6.73.13-10.09,0-1,0-1.94,0-2.91,0-.16,0-.33,0-.5a4,4,0,0,1,.3-.74c1-2.09,2.13-4.15,3.09-6.27A1,1,0,0,1,41.84.2Z"/><path class="cls-2" d="M38.3,104.11V104a3,3,0,0,1,2.11,0v.1Z"/><path class="cls-3" d="M42.43,0a.3.3,0,0,1-.31.09V0Z"/><path class="cls-4" d="M43.44.09c-.09,0-.18,0-.21-.09h.2A.28.28,0,0,0,43.44.09Z"/><path class="cls-1" d="M17.16,72c-.39-1.08-.69-2.19-1-3.29-.77-2.48-1.53-5-2.37-7.4a2.09,2.09,0,0,1-.08-.34.65.65,0,0,1,.35-.34,99.83,99.83,0,0,0,9.81-7.06c.82-.68,1.6-1.42,2.48-2l.12-.08.12-.08a8.6,8.6,0,0,0,.74-.49q3.56-2.52,6.88-5.32c.59-.49,1.15-1,1.75-1.5.13-.1.24-.25.43-.24a1.21,1.21,0,0,0,1.38-1c0-.15.1-.28.15-.42s0-.07,0-.09h0c.61-.66,1.26-1.29,1.91-1.92A98.85,98.85,0,0,0,46.5,33.1c.11-.13.19-.32.42-.29a14.91,14.91,0,0,1,0,2.5s0,.07,0,.1c0,.92-.12,1.83-.12,2.75a10.57,10.57,0,0,0,.91,4.54.7.7,0,0,1-.19.45,26.42,26.42,0,0,1-6.2,6.63,3,3,0,0,1-.37.25c.07,0,.12,0,.18,0a14.36,14.36,0,0,0,5.22-1.88,11.9,11.9,0,0,0,3.4-3.23c.14-.18.22-.42.47-.5A3.17,3.17,0,0,0,52.48,43a8.78,8.78,0,0,0,1.41-2.92,59.47,59.47,0,0,0,1.74-7.67c.29-1.8.54-3.61.79-5.41.37-2.59.7-5.2,1.2-7.77a45.41,45.41,0,0,1,1.11-4.78c.05-.12.1-.25.14-.37a2.85,2.85,0,0,1,.2-.51c.86-1.92,1.75-3.82,2.6-5.74a3.87,3.87,0,0,1,.27-.43,4,4,0,0,1,1.19-1c.2.17.15.4.15.61,0,1.85-.09,3.68-.18,5.52A112.37,112.37,0,0,1,61.46,26.4,118.82,118.82,0,0,1,58.3,39.69a105.37,105.37,0,0,1-4.17,11.47A97.31,97.31,0,0,1,46.4,65.7a93.44,93.44,0,0,1-6.55,8.9c-.27.32-.54.64-.82,1-.11.11-.24.19-.28.36A27,27,0,0,1,35,77.14a40.53,40.53,0,0,1-7.34,1.34,33.08,33.08,0,0,1-7.31-.17.86.86,0,0,1-.42-.13c-.22-.31.08-.34.23-.4.67-.28,1.33-.55,2-.84a31.18,31.18,0,0,0,5.33-3.11A40.79,40.79,0,0,0,34,68a61.22,61.22,0,0,0,8-10.9c.66-1.14,1.2-2.35,1.88-3.48,0,0,0,0,0,0s0,0,0,0a8.17,8.17,0,0,1-1,1.24A67.06,67.06,0,0,1,30.14,65.67,60,60,0,0,1,17.64,72C17.49,72,17.34,72.12,17.16,72Z"/><path class="cls-1" d="M33.9,102.91a10,10,0,0,1-2.39-1.22,6.55,6.55,0,0,1-1.2-.89c0-.25.26-.3.43-.38a72.18,72.18,0,0,0,10.92-6.76q2.51-1.87,4.84-4c.86-.77,1.7-1.57,2.51-2.38,1.21-1.2,2.38-2.45,3.48-3.75a71.88,71.88,0,0,0,5.32-7.11c.31-.47.6-.94.88-1.41l.07-.12.13-.18a4.76,4.76,0,0,1,.5-.68,80,80,0,0,0,6.22-7c.11-.13.18-.29.37-.31a10.44,10.44,0,0,0,2.08.3,11.27,11.27,0,0,0,4.46-1.06,28.72,28.72,0,0,0,6.16-3.86c1.13-.89,2.21-1.85,3.35-2.73a25.17,25.17,0,0,1,5.12-3l.33-.11c.16.19,0,.35,0,.51a74.33,74.33,0,0,1-6.53,13,72.67,72.67,0,0,1-6.41,8.62A72.37,72.37,0,0,1,69,84,76.66,76.66,0,0,1,58.5,92.13c-2.12,1.38-4.32,2.63-6.57,3.8a90.32,90.32,0,0,1-10.7,4.73c-2.23.82-4.49,1.56-6.79,2.2A2,2,0,0,1,33.9,102.91Z"/><path class="cls-1" d="M82.41,25c.21-.11.26-.3.36-.45a10.68,10.68,0,0,1,4.34-3.93,10,10,0,0,1,3.77-.95,12.7,12.7,0,0,1,3.84.31,7.61,7.61,0,0,1,5.43,4.66,14.86,14.86,0,0,1,1,4.48c.1,1.13.08,2.27.09,3.41V48.35c0,.68.06.62-.62.62H95.07c-.19,0-.27-.08-.27-.27s0-.27,0-.4c0-5,0-10,0-14.94a16.4,16.4,0,0,0-.47-4.18,6.62,6.62,0,0,0-1.51-2.91,4.58,4.58,0,0,0-3.07-1.42,6,6,0,0,0-5.56,2.59A9.1,9.1,0,0,0,82.45,32a18.15,18.15,0,0,0-.09,2.21V48.37c0,.66,0,.6-.59.6H76.14c-.26,0-.33-.1-.31-.33s0-.2,0-.3V7.25c0-.68-.11-.68.67-.68h5.58c.18,0,.28.08.28.27s0,.3,0,.46V24.44A1.54,1.54,0,0,0,82.41,25Z"/><path class="cls-1" d="M219.69,20.41a16.1,16.1,0,0,1-1.14,1.36l-6.4,7.49-3.9,4.54c-.29.35-.3.34,0,.69l7.51,8.66,4.65,5.35a.88.88,0,0,1,.28.43.7.7,0,0,1-.38,0H213a.81.81,0,0,1-.72-.34c-1.62-2-3.26-4-4.9-6.06l-5.68-7c-.09-.1-.15-.22-.32-.28a1.06,1.06,0,0,0,0,.53V48.36c0,.68,0,.61-.63.61h-5.64c-.19,0-.27-.08-.26-.27V7.21c0-.61-.11-.64.61-.64H201c.22,0,.35.07.33.32s0,.3,0,.45v26c.19.09.23,0,.3-.13,1.61-2,3.22-4,4.84-6,1.75-2.18,3.51-4.36,5.25-6.55a.62.62,0,0,1,.55-.27h7.19A.19.19,0,0,1,219.69,20.41Z"/><path class="cls-1" d="M180,43.55c0,1.66,0,3.24,0,4.81a.44.44,0,0,1-.32.44,9.21,9.21,0,0,1-2.57.68,16.46,16.46,0,0,1-3.06.1,10,10,0,0,1-3.37-.71A6.17,6.17,0,0,1,167,44.33a12.42,12.42,0,0,1-.3-2.79V26.06c0-.68.06-.62-.62-.62h-3.62c-.51,0-.51,0-.51-.53v-4c0-.62,0-.56.58-.56h3.67c.5,0,.5,0,.5-.49V14.21c0-.5,0-.5.49-.63l5.4-1.54a1.72,1.72,0,0,1,.58-.12,1.3,1.3,0,0,1,.05.55v7.19c0,.14,0,.27,0,.41s.08.27.27.26h6c.12,0,.24,0,.35,0s.24.09.24.25V25c0,.48,0,.48-.51.48h-5.78c-.58,0-.55,0-.55.54V40a8.12,8.12,0,0,0,.28,2.19,2.88,2.88,0,0,0,2.32,2.17,5.28,5.28,0,0,0,3.35-.27C179.41,43.91,179.67,43.74,180,43.55Z"/><path class="cls-1" d="M66.27,6.43A3.35,3.35,0,0,1,68.07,8a6.14,6.14,0,0,1,.69,2.4,20.41,20.41,0,0,1-.05,4.06,126.84,126.84,0,0,1-2.22,12.85c-.71,3.56-1.52,7.1-2.49,10.6a65.33,65.33,0,0,1-3.71,10.34,11.35,11.35,0,0,0-.81,6.78,26.24,26.24,0,0,0,1.78,6.31,1.05,1.05,0,0,1,.05.19.58.58,0,0,1-.24.37,101.29,101.29,0,0,1-8.83,6.87A69.74,69.74,0,0,1,43,74.12c-1,.47-2,.9-3,1.28-.17.07-.36.21-.55,0a3.85,3.85,0,0,1,1-1.24,72.79,72.79,0,0,0,7.1-9,86.35,86.35,0,0,0,6.15-10.78,110.71,110.71,0,0,0,4.61-11.09,141.34,141.34,0,0,0,5.72-21.5c.66-3.5,1.21-7,1.6-10.58.14-1.3.3-2.59.4-3.89A1.37,1.37,0,0,1,66.27,6.43Z"/><path class="cls-5" d="M39.52,75.45a12.16,12.16,0,0,0,1.68-.65,67.11,67.11,0,0,0,12.9-7.46c2.4-1.75,4.7-3.61,6.94-5.57a2.88,2.88,0,0,1,.27-.22,2.22,2.22,0,0,1,.28.58.84.84,0,0,1-.22.55,101.14,101.14,0,0,1-6.17,8.25,78.27,78.27,0,0,1-6.31,6.82,48.25,48.25,0,0,1-10.42,7.82,25.61,25.61,0,0,1-7.87,2.8,17.86,17.86,0,0,1-8.34-.56.33.33,0,0,1-.13-.07,1.88,1.88,0,0,1-.22-.45c-1-3-1.94-6-2.87-9A.59.59,0,0,1,19,78a.83.83,0,0,1,.87.1,2.76,2.76,0,0,0,1,.16c.55,0,1.1.12,1.65.15,1,.07,1.94.1,2.91.08,1.2,0,2.4-.14,3.6-.27a41.63,41.63,0,0,0,9-2.11l.85-.3c0-.09.12-.14.19-.19A.74.74,0,0,1,39.52,75.45Z"/><path class="cls-1" d="M22.13,87.74a.86.86,0,0,1,.59.07,17.12,17.12,0,0,0,5.51.68,21.41,21.41,0,0,0,7-1.53A35,35,0,0,0,43,82.58a63.1,63.1,0,0,0,9.1-8.26,99.09,99.09,0,0,0,9.24-11.77l.28-.42a19.21,19.21,0,0,0,1.28,2.14,6.72,6.72,0,0,0,3,2.33.54.54,0,0,1,.12.09c-.86,1.17-1.8,2.28-2.75,3.38-1.22,1.42-2.48,2.81-3.8,4.14a5.91,5.91,0,0,0-.49.63.32.32,0,0,0-.12.11h0a22.28,22.28,0,0,1-2.67,2.65c-1.42,1.35-2.91,2.62-4.42,3.87-2.11,1.74-4.29,3.39-6.52,5a112.74,112.74,0,0,1-10.34,6.49c-2.55,1.41-5.15,2.75-7.82,3.92-.17.07-.34.16-.52,0A22.7,22.7,0,0,1,24.14,93a40.27,40.27,0,0,1-2-5.08A1.21,1.21,0,0,1,22.13,87.74Z"/><path class="cls-1" d="M94.84,64.19c-1,.64-2,1.26-3.06,1.91a142,142,0,0,0-12.4,8.82,42.87,42.87,0,0,0-5.76,5.75c-1.86,2.17-3.68,4.39-5.56,6.55a58.1,58.1,0,0,1-10.48,9.64,51.78,51.78,0,0,1-5.9,3.43,1.36,1.36,0,0,1-.28.11,65.27,65.27,0,0,1-9.68,2,4.17,4.17,0,0,1-.79.1c-.15,0-.36,0-.4-.14s.16-.23.29-.29c.75-.33,1.51-.65,2.26-1q4.16-1.86,8.13-4.07,4.2-2.32,8.17-5a94.44,94.44,0,0,0,8.28-6.38c2.11-1.83,4.18-3.71,6.12-5.74a95.87,95.87,0,0,0,9.36-11.34,92.79,92.79,0,0,0,7.64-13.11A.91.91,0,0,1,91,55a10.22,10.22,0,0,1,2.18-.47,9.68,9.68,0,0,1,2.34-.12c.46,0,.57.24.55.63a49.58,49.58,0,0,1-.93,8.51A1,1,0,0,1,94.84,64.19Z"/><path class="cls-1" d="M182.73,34.65V20.93c0-.66,0-.6.59-.6h5.28c.12,0,.23,0,.35,0s.25.07.25.24v27.8c0,.66.05.6-.59.6H183c-.17,0-.25-.07-.25-.24V34.65Z"/><path class="cls-1" d="M37.81,38.82c-.08-1.35-.05-2.7,0-4,.09-2.64.19-5.28.2-7.91a30.8,30.8,0,0,1,1.52-3.6c.92-2.16,1.77-4.34,2.57-6.54A110.91,110.91,0,0,0,45.34,6.06c.14-.57.26-1.14.42-1.71,0-.16,0-.38.27-.42a18.47,18.47,0,0,1,.62,3.3,38.09,38.09,0,0,1,.26,4.66c0,1,0,2.07-.1,3.11,0,.6,0,1.2-.08,1.8a1.28,1.28,0,0,0,0,.55,14,14,0,0,1-.78,5.33,55.59,55.59,0,0,1-3.71,9.21,58.47,58.47,0,0,1-4,6.58C38.15,38.63,38.07,38.85,37.81,38.82Z"/><path class="cls-5" d="M39.52,75.45a1.15,1.15,0,0,1-.5.2c-.11,0-.14,0-.13-.12,1.89-2.23,3.7-4.51,5.38-6.9a95.3,95.3,0,0,0,8.34-14.42,109.49,109.49,0,0,0,7.47-21.76q1.08-4.62,1.78-9.32c.38-2.57.69-5.14.91-7.73.13-1.62.23-3.24.3-4.87.06-1.35.09-2.71.06-4.07a3,3,0,0,1,3.14,0c-.06.61-.1,1.22-.18,1.84C66,8.64,66,9,66,9.41c-.13,1.14-.26,2.28-.4,3.42s-.29,2.18-.44,3.27c-.18,1.35-.46,2.68-.67,4-.28,1.85-.67,3.67-1,5.5s-.86,3.8-1.34,5.69c-.62,2.48-1.32,4.93-2.08,7.37q-1.56,5-3.54,9.86c-.69,1.68-1.43,3.35-2.21,5-.51,1.06-1,2.12-1.56,3.16-.76,1.45-1.54,2.88-2.37,4.3q-1.6,2.73-3.39,5.32c-1,1.46-2.07,2.88-3.19,4.25s-2.1,2.54-3.24,3.75A8.19,8.19,0,0,0,39.52,75.45Z"/><path class="cls-5" d="M91,55a1,1,0,0,1-.17.52c-.59,1.17-1.15,2.35-1.76,3.5q-1.36,2.58-2.89,5c-.8,1.29-1.62,2.57-2.49,3.82C82.51,69.65,81.27,71.34,80,73c-.87,1.08-1.73,2.16-2.65,3.2-.74.84-1.48,1.67-2.25,2.49-1,1-2,2.07-3,3s-2.21,2.09-3.35,3.09c-.81.72-1.64,1.43-2.46,2.13s-1.66,1.34-2.51,2c-2.18,1.68-4.43,3.26-6.75,4.76-1.53,1-3.09,1.92-4.67,2.83-1.28.73-2.58,1.42-3.88,2.1-2.3,1.21-4.65,2.29-7,3.31a4.3,4.3,0,0,0-.82.43,4,4,0,0,0,.6,0l2.91-.47c1.15-.19,2.29-.41,3.43-.66s2.44-.53,3.65-.85a1.33,1.33,0,0,1,.2,0,24.58,24.58,0,0,1-2.82,1.39,26.85,26.85,0,0,1-6.23,2c-.64.11-1.29.18-1.94.26H38.3c-.8-.13-1.61-.19-2.4-.4a8.79,8.79,0,0,1-2-.7l2.87-.88A91.89,91.89,0,0,0,49.65,97a81.81,81.81,0,0,0,14.18-8.72A73.42,73.42,0,0,0,74.63,78,71.5,71.5,0,0,0,85,62.07c.91-1.9,1.75-3.83,2.47-5.82A16.84,16.84,0,0,1,91,55Z"/><path class="cls-5" d="M37.81,38.82a5.2,5.2,0,0,0,.76-1c1.13-1.68,2.16-3.41,3.12-5.19A55.36,55.36,0,0,0,45,24.92c.57-1.59,1-3.22,1.44-4.84a11.15,11.15,0,0,0,.17-2.7c0-.19-.06-.4.08-.58,0,1.51,0,3,0,4.52,0,2.36.06,4.72.13,7.07,0,1.31,0,2.61,0,3.92,0,.16,0,.33,0,.5-.86,1-1.72,2-2.59,3-1.94,2.22-4,4.32-6.14,6.36-.08.08-.15.18-.29.17,0-.74,0-1.49,0-2.24A9.21,9.21,0,0,1,37.81,38.82Z"/><path class="cls-1" d="M189.92,10.61a3.75,3.75,0,0,1-3.31,3.68,4.26,4.26,0,0,1-3-.72A3.67,3.67,0,0,1,183.24,8a4.09,4.09,0,0,1,6.09.62A3.19,3.19,0,0,1,189.92,10.61Z"/><path class="cls-5" d="M46,3.93a11.92,11.92,0,0,0-.44,1.63C45.28,6.71,45,7.86,44.7,9c-.59,2.08-1.21,4.14-1.92,6.18-.81,2.3-1.65,4.59-2.6,6.84-.66,1.57-1.37,3.12-2.06,4.68,0,.06-.08.1-.12.16a14.79,14.79,0,0,1,0-1.49,2,2,0,0,0,.29-.74c1-2.95,1.84-5.94,2.66-8.94s1.57-6,2.24-9c.42-1.9.84-3.81,1.16-5.74,0-.06,0-.12.07-.19a4.09,4.09,0,0,1,1,1.47A7.17,7.17,0,0,1,46,3.93Z"/><path class="cls-5" d="M94.84,64.19a24.13,24.13,0,0,0,.5-2.39c.18-1,.28-1.94.37-2.91a13,13,0,0,0,.13-1.65,20,20,0,0,1,.09-2.19c0-.45,0-.45-.39-.61A6.17,6.17,0,0,1,99.67,56a2.74,2.74,0,0,1,.67,3.21,6.85,6.85,0,0,1-1.59,2.18A17.14,17.14,0,0,1,94.84,64.19Z"/><path class="cls-5" d="M50.17,44.39a11.85,11.85,0,0,1-6.79,5.19,11.92,11.92,0,0,1-2.35.53c-.11,0-.27.14-.3-.1a26,26,0,0,0,6.52-6.75,2.52,2.52,0,0,1,.41-.56l.43.6A2.45,2.45,0,0,0,50.17,44.39Z"/><path class="cls-1" d="M212,7.34a1.13,1.13,0,0,0-.23.43L210.47,11c-.08.2-.15.34-.42.34a.45.45,0,0,1-.47-.34c-.38-1-.79-2-1.19-3a1.69,1.69,0,0,0-.34-.57c0,.16,0,.32,0,.48v3a.43.43,0,0,1-.66.35c-.09-.05-.09-.13-.1-.22V6.51c0-.44,0-.44.45-.44.91,0,.72-.06,1,.66.41,1,.8,2,1.19,3l.13.28c.34-.82.65-1.59,1-2.35.17-.42.35-.84.5-1.26a.5.5,0,0,1,.56-.38c.9,0,.76-.08.77.73,0,1.36,0,2.72,0,4.07,0,.14.08.34-.12.39a.91.91,0,0,1-.63,0c-.14-.07-.08-.25-.08-.38V7.64C212,7.54,212,7.45,212,7.34Z"/><path class="cls-1" d="M204.5,9V7.2c0-.35,0-.36-.38-.37h-.85c-.28,0-.27-.19-.27-.38s0-.39.27-.38h3.26c.13,0,.29,0,.33.14a.86.86,0,0,1,0,.55s-.11.06-.17.07h-.4c-.28,0-.63-.12-.82.09s-.06.54-.07.82v2.81a1.33,1.33,0,0,1,0,.2c0,.16.08.38-.07.47a1,1,0,0,1-.69,0c-.15,0-.12-.18-.12-.29Z"/><path class="cls-6" d="M61.76,7.87q-1.2,3-2.64,5.81c-.1,0-.16,0-.12-.13a17.07,17.07,0,0,1,2.65-5.8C61.75,7.73,61.8,7.76,61.76,7.87Z"/><path class="cls-7" d="M59,13.55l.12.13-.22.49c0,.05-.06.05-.09,0A1.32,1.32,0,0,1,59,13.55Z"/><path class="cls-8" d="M61.76,7.87l-.11-.12a.55.55,0,0,1,.29-.31A.69.69,0,0,1,61.76,7.87Z"/><path class="cls-9" d="M58.81,14.18h.09a.56.56,0,0,1-.17.32C58.72,14.38,58.7,14.26,58.81,14.18Z"/><path class="cls-10" d="M44.41.7s0,0,0,0h0Z"/><path class="cls-1" d="M30.57,21.64a11.31,11.31,0,0,1,.27,1.73,71.48,71.48,0,0,0,2.37,11.87c0,.16.07.33.11.49a5.57,5.57,0,0,1-.93,1.75A89.39,89.39,0,0,1,26,46.62c-.17.21-.27.55-.64.56a16.21,16.21,0,0,0-.4-3.33c-.36-1.29-.7-2.59-1-3.88-.61-2.41-1.15-4.82-1.65-7.25a1,1,0,0,1,.39-.57,37.88,37.88,0,0,0,5.7-6.8,33.12,33.12,0,0,0,1.85-3.22C30.27,21.94,30.31,21.7,30.57,21.64Z"/><path class="cls-5" d="M19.87,78.06A5,5,0,0,1,19,78a21.49,21.49,0,0,1-.71-2.19c-.36-1.14-.7-2.27-1-3.41,0-.11-.06-.23-.09-.34,1.3-.51,2.6-1,3.87-1.56a61.88,61.88,0,0,0,8.2-4.36,65.16,65.16,0,0,0,8.68-6.58,73,73,0,0,0,5.92-6c.1,0,.14,0,.11.11a62.32,62.32,0,0,1-7.51,11.79,50.08,50.08,0,0,1-5,5.33,35.67,35.67,0,0,1-8.66,6.05c-.89.43-1.8.81-2.73,1.15A.4.4,0,0,0,19.87,78.06Z"/><path class="cls-5" d="M26.54,96.88a5,5,0,0,0,1.34-.55c1.19-.53,2.36-1.1,3.52-1.7,1.71-.89,3.4-1.8,5.06-2.76Q40.39,89.6,44.13,87C46,85.75,47.85,84.39,49.65,83c1.22-1,2.42-2,3.6-3,.79-.67,1.56-1.36,2.32-2.07L58.7,75l.13-.07c0,.19-.12.31-.21.45a68,68,0,0,1-8.94,11.4A69.56,69.56,0,0,1,33.62,99c-1.09.61-2.2,1.19-3.31,1.79a2.62,2.62,0,0,1-.67-.52A18.87,18.87,0,0,1,26.54,96.88Z"/><path class="cls-1" d="M13.06,59.2a2.31,2.31,0,0,1-.29-.69A100.83,100.83,0,0,0,7.6,46.4a1.55,1.55,0,0,1-.08-.23c.14-.37.5-.53.78-.75,1.86-1.46,3.66-3,5.39-4.63.13-.12.23-.3.46-.25a16,16,0,0,1,.91,1.62c1.12,2.07,2.23,4.15,3.55,6.11.4.59.73,1.23,1.09,1.85A7.15,7.15,0,0,0,21.19,52a3.71,3.71,0,0,1-.83,1,79.49,79.49,0,0,1-6.07,5.68,1.42,1.42,0,0,1-.28.2l-.27.11C13.52,59.12,13.31,59.27,13.06,59.2Z"/><path class="cls-5" d="M14,58.84l2.22-2,.15-.13c1.3-1.25,2.64-2.47,3.88-3.78a9.55,9.55,0,0,1,.93-1,2.86,2.86,0,0,0,2.06.41,1.64,1.64,0,0,0,1.31-1,7.07,7.07,0,0,0,.57-2c.12-.75.13-1.5.19-2.25a15,15,0,0,0,1.14-1.39q2.33-3,4.39-6.11c.85-1.3,1.65-2.63,2.47-4A29.83,29.83,0,0,1,34.26,40a12,12,0,0,0,.64,2.51c.1.24,0,.41-.16.59-.81,1-1.65,2-2.54,2.91s-1.59,1.77-2.45,2.58S28.21,50,27.5,50.76a6.35,6.35,0,0,0-1,.75h0a.32.32,0,0,0-.11.12c-1.56,1.19-3,2.5-4.57,3.7q-3.87,3-8,5.56a1,1,0,0,1-.17.1,9.42,9.42,0,0,1-.52-1.43.92.92,0,0,1,.57-.55A1.31,1.31,0,0,1,14,58.84Z"/><path class="cls-1" d="M25,7.34a3.86,3.86,0,0,1,1,.94,13.57,13.57,0,0,1,2.22,3.78,1.46,1.46,0,0,1-.05.69A57.88,57.88,0,0,1,24,23.62a33.57,33.57,0,0,1-2.3,3.77c-.1.14-.17.39-.45.26-.46-2.43-.9-4.87-1.29-7.31-.22-1.39-.41-2.78-.62-4.17a1.06,1.06,0,0,1,0-.25,1.19,1.19,0,0,1,.31-.56,64.39,64.39,0,0,0,5-7.64C24.73,7.57,24.76,7.36,25,7.34Z"/><path class="cls-5" d="M21.22,27.65c.17,0,.22-.14.29-.25a39,39,0,0,0,3.8-6.87,63.31,63.31,0,0,0,2.94-8.47,21.93,21.93,0,0,1,1.24,3.69,54.24,54.24,0,0,1,1.06,5.49c0,.14,0,.27,0,.4-.52,1-1,2-1.59,2.9a38.72,38.72,0,0,1-5.45,6.92c-.42.43-.86.84-1.29,1.26Z"/><path class="cls-1" d="M1.39,36.11A9.33,9.33,0,0,1,0,31.18a3,3,0,0,1,.39-1.62,1.12,1.12,0,0,1,.52-.29A32.69,32.69,0,0,0,4.2,28a1.08,1.08,0,0,1,.53-.11,2.34,2.34,0,0,1,.87.38,9.1,9.1,0,0,1,2.52,2.35,53.06,53.06,0,0,1,3.09,4.76c0,.06,0,.13.08.19a.92.92,0,0,1-.6.34,17.62,17.62,0,0,1-6.3.66c-.76-.07-1.53-.11-2.29-.24A1.62,1.62,0,0,1,1.39,36.11Z"/><path class="cls-1" d="M6.26,43.86l-1.19-2a.21.21,0,0,1,0-.19c.06-.28.3-.43.5-.6C7,39.84,8.37,38.53,9.72,37.21c.39-.39.71-.84,1.12-1.21.15-.14.26-.31.5-.31a13.41,13.41,0,0,1,1,1.67c.42.72.82,1.45,1.23,2.17,0,.18-.12.23-.23.3a74.18,74.18,0,0,1-6.79,4A.57.57,0,0,1,6.26,43.86Z"/><path class="cls-5" d="M25,7.34a66,66,0,0,1-4.44,7,19.22,19.22,0,0,1-1.23,1.59A16,16,0,0,1,19,11.78a6.25,6.25,0,0,1,2.3-4.43,2.81,2.81,0,0,1,3.53-.18A1.45,1.45,0,0,1,25,7.34Z"/><path class="cls-5" d="M11.34,35.69,9.8,37.27c-1.51,1.54-3.1,3-4.72,4.41-.17,0-.22-.18-.3-.31C4,40.12,3.19,38.9,2.35,37.69a10.08,10.08,0,0,1-1-1.58c.45.07.89.14,1.34.19a20.86,20.86,0,0,0,4.4.13,18.5,18.5,0,0,0,4.16-.84Z"/><path class="cls-5" d="M6.26,43.86a20,20,0,0,1,1.92-1.07c1.83-1,3.64-2.09,5.39-3.26a4.63,4.63,0,0,1,.58,1l-1.37,1.25c-1.68,1.54-3.44,3-5.26,4.38C7.06,45.42,6.67,44.63,6.26,43.86Z"/><path class="cls-5" d="M27.44,50.7A21.83,21.83,0,0,1,29,49.11a15,15,0,0,0,1.85-1.89,4,4,0,0,1,.28-.3c1-1,1.92-2,2.82-3.11.23-.28.46-.56.72-.83a.68.68,0,0,0,.19-.45c.08.14.17.28.25.43a2.18,2.18,0,0,0,1.21.89,92.57,92.57,0,0,1-8,6.41,8.84,8.84,0,0,1-1.07.74C27.23,50.85,27.34,50.77,27.44,50.7Z"/><path class="cls-5" d="M41.84.2c-.14.34-.27.68-.43,1L38.35,7.32a.74.74,0,0,1-.22.33,12.2,12.2,0,0,1,1.15-5.14A4.41,4.41,0,0,1,41.55.28.63.63,0,0,1,41.84.2Z"/><path class="cls-5" d="M4.73,27.91A29.57,29.57,0,0,1,.39,29.56a2.57,2.57,0,0,1,1.5-1.71A3.1,3.1,0,0,1,4.73,27.91Z"/><path class="cls-11" d="M13.76,59.05l-.6.51a.48.48,0,0,1-.1-.36l.69-.29A.09.09,0,0,1,13.76,59.05Z"/><path class="cls-10" d="M37.9,42.35a.1.1,0,0,1,0,.09.25.25,0,0,1,0-.07Z"/><path class="cls-12" d="M27.44,50.7l-.11.3a2.07,2.07,0,0,1-.79.51A2,2,0,0,1,27.44,50.7Z"/><path class="cls-13" d="M40.73,50c.08.11.2.06.3.1a.42.42,0,0,1-.32.09c-.06,0-.16,0-.13-.09S40.68,50.05,40.73,50Z"/><path class="cls-14" d="M43.94,53.62l-.11-.11a.47.47,0,0,1,.26-.26A.39.39,0,0,1,43.94,53.62Z"/><path class="cls-15" d="M38.89,75.53l.13.12c-.05.08-.13.09-.21.12C38.67,75.63,38.81,75.59,38.89,75.53Z"/><path class="cls-12" d="M26.43,51.63a.12.12,0,0,1,.11-.12C26.54,51.59,26.49,51.61,26.43,51.63Z"/><path class="cls-10" d="M58.82,75l.12-.11S58.9,74.94,58.82,75Z"/><path class="cls-1" d="M160.82,29.84a14.43,14.43,0,0,0-2.27-5.75A9.82,9.82,0,0,0,152.8,20a13.11,13.11,0,0,0-4.28-.33A10.45,10.45,0,0,0,144.08,21a10.72,10.72,0,0,0-3.48,3.22c-.25.35-.48.71-.72,1.06l-.1,0V20.84c0-.51,0-.51-.53-.51h-5.38c-.68,0-.6-.06-.6.63V61.44c0,.12,0,.24,0,.36,0,.27.12.35.37.34h5.43c.83,0,.72,0,.72-.73q0-8.05,0-16.09a.76.76,0,0,1,.08-.54c.22.32.42.61.63.89a9.15,9.15,0,0,0,7,3.85,14.79,14.79,0,0,0,3.05-.14,10.87,10.87,0,0,0,3.66-1.2,12.26,12.26,0,0,0,5.27-5.88,18.43,18.43,0,0,0,1.59-6.85A23.41,23.41,0,0,0,160.82,29.84Zm-7.35,10a8.22,8.22,0,0,1-2.06,3,6.31,6.31,0,0,1-3.62,1.61A6.84,6.84,0,0,1,143,43.36a7,7,0,0,1-3.15-5.26,29.59,29.59,0,0,1,0-6.17A8.06,8.06,0,0,1,143,26.21a6.89,6.89,0,0,1,3.83-1.35,7.54,7.54,0,0,1,2.54.24,6.33,6.33,0,0,1,4,3.31,10.15,10.15,0,0,1,1,3.7,16.38,16.38,0,0,1,.1,1.85A15.55,15.55,0,0,1,153.47,39.81Z"/><path class="cls-1" d="M128.22,29.53a12.23,12.23,0,0,0-.79-4.22,8,8,0,0,0-4.4-4.64,14.21,14.21,0,0,0-5.9-1,23,23,0,0,0-3.1.24,19.84,19.84,0,0,0-6.74,2.23.65.65,0,0,0-.38.67c0,1.58,0,3.15,0,4.73a.61.61,0,0,0,.06.41.73.73,0,0,0,.32-.2A14.44,14.44,0,0,1,111,25.52a12.66,12.66,0,0,1,6.74-.87,4.51,4.51,0,0,1,3.44,2.28,7.66,7.66,0,0,1,.81,3.39c0,.27-.13.33-.36.36-2.87.4-5.74.79-8.6,1.22a13.43,13.43,0,0,0-4.61,1.5,7.8,7.8,0,0,0-3.94,5.09,11,11,0,0,0-.18,4.49,7.41,7.41,0,0,0,4.89,6,11.49,11.49,0,0,0,4.8.61,9,9,0,0,0,5-1.8A10.67,10.67,0,0,0,121.55,45c.09-.14.14-.34.35-.4a.88.88,0,0,1,.06.5V48.5c0,.47,0,.47.48.47h5.33c.46,0,.46,0,.46-.48,0-.1,0-.2,0-.3q0-5.85,0-11.72C128.23,34.16,128.25,31.85,128.22,29.53Zm-6.69,10.6a6.5,6.5,0,0,1-5.27,4.48,5.6,5.6,0,0,1-4.16-.72,3.93,3.93,0,0,1-1.74-3.72,6.83,6.83,0,0,1,.17-1.19,3.37,3.37,0,0,1,1.67-2.16,9.86,9.86,0,0,1,3.3-1l6.15-.87c.25,0,.34,0,.33.27,0,.45,0,.9,0,1.5A8.93,8.93,0,0,1,121.53,40.13Z"/><path class="cls-16" d="M13.76,59.05v-.14a.28.28,0,0,1,.26-.07A.64.64,0,0,1,13.76,59.05Z"/></g></g></svg>