<svg xmlns="http://www.w3.org/2000/svg" viewBox="0 0 85.33 120.34"><defs><style>.cls-1{fill:#fff;}</style></defs><title>Asset 59</title><g id="Layer_2" data-name="Layer 2"><g id="Layer_1-2" data-name="Layer 1"><path class="cls-1" d="M53.72,2.83l.77-1.23a38.14,38.14,0,0,1,11.1,5.08,50.26,50.26,0,0,1,7.07,5.66A42,42,0,0,1,82,26.23a40.74,40.74,0,0,1,3.26,18.09C84.42,59.38,77.5,71,64.74,79a16.47,16.47,0,0,1-3.16,1.85c-1.39.49-2.69,1.2-4.06,1.72a42.15,42.15,0,0,1-4.09,1.29,22.62,22.62,0,0,1-4.2.83c-3.34.23-6.7.39-10,.39-1.64,0-3.28-.49-4.92-.65-1.06-.11-1.47-.63-1.45-1.51a86.4,86.4,0,0,0,9.47.9,42.76,42.76,0,0,0,9.5-1.06,41.9,41.9,0,0,0,9.09-3.24,45.16,45.16,0,0,0,8-5.21c2.45-1.94,4.56-4.31,6.91-6.58a6.62,6.62,0,0,1,.45-1.2c1.12-1.93,2.25-3.86,3.43-5.74A12.82,12.82,0,0,1,81,59.51a1.36,1.36,0,0,0,.32-.76c0-.51-.17-1.08,0-1.52a41.52,41.52,0,0,0,1.57-24.16,14.91,14.91,0,0,1-.21-2.27,4.89,4.89,0,0,1-.74-1.05A42.2,42.2,0,0,0,73.57,15.3,41.41,41.41,0,0,0,56.62,3.77c-.94-.35-1.91-.65-2.86-1Z"/><path class="cls-1" d="M53.76,2.79A45.88,45.88,0,0,0,42.27,1.33,48.56,48.56,0,0,0,29.14,3.55a32.84,32.84,0,0,0-6.62,2.66,1,1,0,0,1-.6.07A9.63,9.63,0,0,1,20.8,7.6C19,9,17.14,10.41,15.26,11.75a6.62,6.62,0,0,1-1.64.59l.37.31a70.59,70.59,0,0,0-5.37,6.8c-1.88,3-3.32,6.34-4.9,9.56a23.06,23.06,0,0,0-.79,2.39,4.75,4.75,0,0,1-.51.72A2.06,2.06,0,0,0,2,33c0,.47.21,1,.17,1.42-.23,2.84-.75,5.69-.72,8.53.11,12.72,5.26,23.14,14.85,31.41A42,42,0,0,0,30.53,82.1c.72.24,1.23,1.1,1.7,1.94l-5.77-1.88.16-1.49-1.43.76-.15.33c-2.79-1.78-5.7-3.4-8.35-5.37A41.11,41.11,0,0,1,5.08,62.8,42.68,42.68,0,0,1,27.6,2.7a2.47,2.47,0,0,1,1.65.11,7.42,7.42,0,0,1,1.88-1.25A35.16,35.16,0,0,1,42.2,0a15.72,15.72,0,0,1,2.73.55C45.27.41,45.68,0,46,.09c2.62.35,5.22.77,8,1.2l-.32,1.54Z"/><path class="cls-1" d="M42.42,109.78q-19.26,0-38.53,0a5.8,5.8,0,0,1-1.61-.48,7,7,0,0,1,1.58-.38q38.54,0,77.07,0a6,6,0,0,1,1.6.47,6.78,6.78,0,0,1-1.57.38Q61.69,109.79,42.42,109.78Z"/><path class="cls-1" d="M60.57,100.25l-1,.48a5.61,5.61,0,1,1,7.78-8.07c1.9,2.25,2.05,6.45-1,8.35a5.64,5.64,0,0,1-5.37.65C60.31,101.38,60.12,101.06,60.57,100.25Zm6.14-3.77a3.62,3.62,0,0,0-3.64-3.7c-2.1,0-3.77,1.88-3.93,4.39,0,.93,2.53,2.82,3.9,2.86A3.67,3.67,0,0,0,66.71,96.48Z"/><path class="cls-1" d="M23.23,95.54l-.89-.4c.05.31,0,.58.13.66,1.35,1,.75,2.1.22,3.15a5.06,5.06,0,0,1-1.3,1.67c-.34.28-1,.21-1.53.3l.2.5c-1.73,1.31-5.9.45-6.86-1.67-.88-1.93-1.72-4.06-.39-6.14,1.43-2.25,3.18-3.13,5.61-2.79a5.41,5.41,0,0,1,4.67,3.89A6.22,6.22,0,0,1,23.23,95.54Zm-5.59-2.76a3.63,3.63,0,1,0,3.65,3.57A3.61,3.61,0,0,0,17.64,92.78Z"/><path class="cls-1" d="M50.61,95.43c.77-1.26,1.45-2.22,2-3.27a1.91,1.91,0,0,1,2.64-1.07V101.8H53.48c-.09-2-.19-4.14-.29-6.53-.65.87-1.13,1.53-1.63,2.17-.69.86-1.24.87-1.91,0-.51-.65-1-1.32-1.64-2.24,0,.93-.08,1.54-.11,2.27h-2c0-2,0-4,0-6,0-.18.4-.53.55-.5.6.13,1.4.2,1.71.61A41.71,41.71,0,0,1,50.61,95.43Z"/><path class="cls-1" d="M32,98.89c-1.8-.79-3.56-1.44-5.19-2.32a2.84,2.84,0,0,1-.4-4.62,5.32,5.32,0,0,1,5.91-.22,3.44,3.44,0,0,1,.58.84,34.43,34.43,0,0,0-4.23.49,2,2,0,0,0-1.08,1.41c-.14.72.48.83,1.19,1A9.35,9.35,0,0,1,32,96.87a2.65,2.65,0,0,1-.05,4.25,3.88,3.88,0,0,1-4.17.24c-.21-.12-.53,0-.78-.06a6.79,6.79,0,0,1-1.7-.56c-.16-.09-.17-.85,0-1a1.26,1.26,0,0,1,1.12-.23A4.94,4.94,0,0,0,32,98.89Z"/><path class="cls-1" d="M4.46,101.83H2.84v-6H6.09c1.22,0,2-.6,1.91-1.5-.13-1.09-.88-1.42-1.89-1.39S3.94,93,2.9,93c-.33-2.11-.31-2,1.58-2.16a9.43,9.43,0,0,1,4.19.95c1,.37,1.56,2,1.32,3.29a3.47,3.47,0,0,1-2.9,2.79c-.81.09-1.95-.08-2.34.38s-.15,1.6-.2,2.44C4.53,101,4.5,101.37,4.46,101.83Z"/><path class="cls-1" d="M38.14,101.79V94.54c0-1.76,0-1.76-1.82-1.76H35V91h8.59v1.74c-.68,0-1.34,0-2,0-.87-.07-1.19.27-1.17,1.15,0,2.19,0,4.37,0,6.55v1.32Z"/><path class="cls-1" d="M74.77,101.32c-.49.34-.77.7-1,.7a3.6,3.6,0,0,1-3.21-1.93c.71-.6,1.25-1.19,2.27-.43a1.35,1.35,0,0,0,2.23-1c.08-1.89,0-3.8,0-5.87H72.87c-1.51,0-1.53,0-1.33-1.79h4.07a6.06,6.06,0,0,1,.71.1l.86.16-.46,1c.74.56.79,1.27-.06,2,.81,1.27.78,1.91-.18,2.62,1.09,1.26.84,2.55,0,3.83A1.26,1.26,0,0,1,74.77,101.32Z"/><path class="cls-1" d="M82.57,101.82H80.36V94.87a29.84,29.84,0,0,1,0-3.28c0-.28.62-.71,1-.71s1.16.4,1.16.63C82.6,94.91,82.57,98.3,82.57,101.82Z"/><path class="cls-1" d="M24.33,115.32l-2.55,3.26L19,115v5h-.28V114l3.11,3.88,3.1-4v6h-.26v-4.6Z"/><path class="cls-1" d="M54.77,114.12c2-.19,2.94.27,3.06,1.4s-.46,1.64-2.75,1.88c0,.42,0,.86-.06,1.3a2.71,2.71,0,0,1-.25,1.35Zm.35.07v3.19a14.43,14.43,0,0,0,2.19-1.15,1.13,1.13,0,0,0-.05-1.1A12,12,0,0,0,55.12,114.19Z"/><path class="cls-1" d="M82.51,119.93c-1.11.2-2.38.93-3.09-.51-.24-.49-.2-1.58.13-1.81a9.85,9.85,0,0,1,2.73-.87v-2.89h.23Zm-3.18-1.62c.29,1.14.77,1.74,1.59,1.53a2,2,0,0,0,1.24-1.24,1.07,1.07,0,0,0-1.27-1.3C80.33,117.39,79.85,118,79.33,118.31Z"/><path class="cls-1" d="M75.23,117.23v3a20.35,20.35,0,0,1-2.89-.38,1.29,1.29,0,0,1-.53-1.15A2.92,2.92,0,0,1,73,117C73.6,116.78,74.43,117.13,75.23,117.23Zm-2.13,2.86.62,0c.37-.51,1-1,1-1.53a1.06,1.06,0,0,0-1.28-1.28,1.82,1.82,0,0,0-1.25,1.19C72.17,119,72.78,119.56,73.1,120.09Z"/><path class="cls-1" d="M49.17,120.27a22.8,22.8,0,0,1-3-.56,1.27,1.27,0,0,1-.41-1.19A3.1,3.1,0,0,1,47.13,117c.55-.2,1.33.17,2,.3Zm-1.41-.17c.34-.52.89-1,1-1.57a1.06,1.06,0,0,0-1.33-1.22,2,2,0,0,0-1.22,1.26C46,119.38,46.59,119.86,47.76,120.1Z"/><path class="cls-1" d="M12,119.59l1.87.33a1.48,1.48,0,0,1-2.22-.34,1.71,1.71,0,0,1,.46-2.43c.88-.56,1.68-.29,2.44.91L12,119.19Zm1.92-1.65,0-.45c-.46,0-1-.25-1.37-.09s-.59.71-.88,1.08l.29.27Z"/><path class="cls-1" d="M34.38,118.1l-2.48,1.06,0,.39,1.92.38a1.5,1.5,0,0,1-2.29-.43,1.74,1.74,0,0,1,.62-2.4C33,116.61,33.73,116.89,34.38,118.1Zm-.56-.18v-.4c-.43-.07-.94-.33-1.27-.17s-.7.71-1.05,1.09l.27.3Z"/><path class="cls-1" d="M60.14,116.88a1.71,1.71,0,1,1,0,3.42,1.74,1.74,0,0,1-1.75-1.76A1.7,1.7,0,0,1,60.14,116.88Zm-.32,3.22h.62c.35-.51.94-1,1-1.54a1.09,1.09,0,0,0-1.33-1.26,1.84,1.84,0,0,0-1.22,1.22C58.87,119,59.49,119.57,59.82,120.1Z"/><path class="cls-1" d="M6.35,114.37l-2,.13V120H4v-5.45l-2.15-.18v-.2H6.34Z"/><path class="cls-1" d="M7.8,117.33c2.38-.87,2.83-.33,2.24,2.62a5.68,5.68,0,0,0,0-1.43,5.71,5.71,0,0,0-.74-1.25c-.46.35-1.07.61-1.33,1.07s-.14,1.11-.35,1.66v-6.15h.2Z"/><ellipse class="cls-1" cx="50.52" cy="116.92" rx="0.12" ry="4.4"/><path class="cls-1" d="M67.74,117.1c-1.66.63-.4,2.1-1.15,3.05l-.34-3-.15.08.53-2.37C67.27,115.5,66.19,116.88,67.74,117.1Z"/><path class="cls-1" d="M40.22,120.05v-2.83c.82,0,2.1-.34,2.43.08.49.6.29,1.75.39,2.67l-.38,0a5.61,5.61,0,0,0,0-1.59,4.14,4.14,0,0,0-.83-1.14c-.41.36-1,.64-1.17,1.09A4.92,4.92,0,0,0,40.5,120Z"/><path class="cls-1" d="M64.52,117.21l-1.15.38a5.68,5.68,0,0,1,.81.9c.24.39.64,1,.5,1.26-.39.82-1.08.67-2,0a3.16,3.16,0,0,0,.9.1,7.49,7.49,0,0,0,.9-.44,4.4,4.4,0,0,0-.58-.7c-.27-.24-.7-.36-.86-.64a.89.89,0,0,1,.18-.87,4.75,4.75,0,0,1,1.33-.25Z"/><path class="cls-1" d="M70.79,117.09a6.77,6.77,0,0,0-1.87.75,1.36,1.36,0,0,0-.08,1.35,7.19,7.19,0,0,0,1.86.93,1.51,1.51,0,0,1-1.88-.26,1.55,1.55,0,0,1-.31-2.16A1.64,1.64,0,0,1,70.79,117.09Z"/><path class="cls-1" d="M38.29,119.94a5.14,5.14,0,0,0,0-1.47,4.84,4.84,0,0,0-.79-1.21c-.43.38-1,.68-1.25,1.16s-.1,1-.3,1.57v-2.81c.78,0,2-.31,2.33.07.48.67.34,1.79.46,2.71Z"/><path class="cls-1" d="M28.32,120v-6.11h.15V120Z"/><path class="cls-1" d="M77.11,117.16,77,120.05h-.24v-2.86Z"/><ellipse class="cls-1" cx="30.1" cy="116.93" rx="0.09" ry="4.29"/><path class="cls-1" d="M26.87,117.19V120h-.2v-2.83Z"/><path class="cls-1" d="M44.33,120v-2.8h.2V120Z"/><path class="cls-1" d="M78.13,42.49c.83-.7.7-2.65-.29-3.75,1.31-1.43.19-5.62-1.7-6.36.86-1.19.89-1.28.32-2.73a35.34,35.34,0,0,0-7.13-11.46c-.57-.61-1.1-1.57-2.29-1-.19.09-.65-.35-1-.55l.12-.26,1.42.14c0-.27-.17-.32-.3-.43-.94-.78-1.86-2.19-2.81-2.21-1.58,0-1.34-1.67-2.5-2a13.66,13.66,0,0,1-3-1.67c-.09.41-.15.66-.22.93-.25-.48-.37-1.15-.72-1.3C55.77,9,53.47,8.12,51.25,7.28c-.13.93-.21,1.53-.29,2.13h-.45c-.06-.26-.25-.57-.17-.79.31-.84.1-1.4-.74-1.53-1.46-.22-2.92-.41-4.38-.53a2.45,2.45,0,0,0-1,.3,8,8,0,0,0-2-.45c-1.81.08-3.61.26-5.4.5-.44.06-.82.5-1.23.76L34.94,8l-.4-.74a37.71,37.71,0,0,0-13.19,6.19,46.43,46.43,0,0,0-7.55,7.27,1.28,1.28,0,0,0,0,1.92c-.49,0-1.27-.05-1.36.15-1,2.32-3.95,4.11-2.09,7.27a2,2,0,0,0-2.22,1.67A37.38,37.38,0,0,0,6.51,44,42,42,0,0,0,9.06,56.18c.52,1.51,1.7,2.34,2.7,3.34s1.23,1.27.34,2.36c.37,1.07,1.24,1.65,1.79,2.49a28.54,28.54,0,0,0,7.35,7.39l1.13-.57.18.25-.48,1.07c1.88,1,3.69,2.06,5.56,3a7.28,7.28,0,0,0,1.94.36c.21.92,4.08,2.18,5,1.56a5.52,5.52,0,0,0,1.27.69,36,36,0,0,0,15.4-.36c1.16-.26,2.41-.55,2.46-2.14,0,0,.1-.07.24-.17,0,.42-.06.77-.1,1.3a15,15,0,0,0,2-.44,31.11,31.11,0,0,0,9.39-5.46,59.75,59.75,0,0,0,5.59-5.55,36.41,36.41,0,0,0,2.82-4c.43-.63,1-1.27.23-1.77.39-.24,1-.39,1.12-.74a34.55,34.55,0,0,0,3.8-15.31C78.78,43.17,78.36,42.83,78.13,42.49Zm-43-22.35A8.44,8.44,0,0,0,36,18.65a6.93,6.93,0,0,1,6.47-4.93A6.79,6.79,0,0,1,49,18.48a2.58,2.58,0,0,0,1.16,1.64,1.94,1.94,0,0,1,.76,1.64c-.15.53-.92.89-1.44,1.31-.35.28-.85.44-1.07.79a6.89,6.89,0,0,1-5.82,3.36A7,7,0,0,1,36.8,24c-.27-.4-.79-.61-1.17-.95s-1.1-.79-1.19-1.28S34.81,20.66,35.1,20.14ZM22.86,41.69a2.58,2.58,0,0,1-.48.79,2.65,2.65,0,0,1-.34.33,3.5,3.5,0,0,1-1.41.68,9.19,9.19,0,0,1-1.49.17l-1.45.07v2.93a6.4,6.4,0,0,1-1,.26.85.85,0,0,1-.55-.06c-.26-.16-.32-.57-.31-1.32,0-.14,0-.28,0-.43l0-.46c-.06-.93-.14-1.9.3-2.36a2,2,0,0,1,1.41-.37c.45,0,.93,0,1.38,0h.44l.31,0c.71-.06,1.32-.3,1.34-1.13a1,1,0,0,0-.28-.8,1.33,1.33,0,0,0-.73-.33,3.8,3.8,0,0,0-.59-.06c-.84,0-1.68,0-2.53,0h-.22c-.53,0-.94-.2-.76-.87a1.18,1.18,0,0,1,.38-.51.94.94,0,0,1,.56-.27,23.73,23.73,0,0,1,2.92.07c.32,0,.64.08,1,.14a2.94,2.94,0,0,1,1,.35,2.61,2.61,0,0,1,1,1,2.56,2.56,0,0,1,.35,1.3A2.48,2.48,0,0,1,22.86,41.69ZM49,68.55a2,2,0,0,1-2,1.5c-1.63,0-3.27,0-4.9,0v0c-1.17,0-2.35,0-3.52,0A2.25,2.25,0,0,1,37.08,66c.15-.15.38-.28.42-.45a12.78,12.78,0,0,1,2.54-5A3.85,3.85,0,0,0,40.6,59c.18-1.09.65-1.47,1.66-1a4.46,4.46,0,0,1,2,1.43c1.19,2,3.14,3.64,3.63,6.11.06.28.38.52.6.76A2,2,0,0,1,49,68.55Zm11.38-7c-1-1-2-2-3-3.06L43.49,44.21c-.14-.15-.31-.28-.53-.48l-6.54,6.33L25.36,60.79c-.4.39-.87,1.07-1.41.34-.17-.23.16-1.07.49-1.39C30.23,54.05,36.06,48.4,42,42.66c-2.06-2.13-4.06-4.22-6.07-6.29-3.67-3.78-7.35-7.54-11-11.34-.31-.33-.3-1-.44-1.46.49.16,1.14.17,1.46.5Q34,32.32,42.05,40.64a12.79,12.79,0,0,1,.84,1.13c3.67-3.55,7.08-6.86,10.49-10.18l7.25-7c.09-.09.17-.23.27-.25.41-.07.82-.1,1.22-.15-.07.4,0,.93-.25,1.17-1.8,1.83-3.66,3.6-5.5,5.39Q50.57,36.34,44.77,42c-.21.2-.39.43-.67.74,1.88,1.95,3.73,3.9,5.6,5.82q5.67,5.85,11.36,11.68c.12.12.32.23.34.36.07.4.08.81.11,1.22C61.13,61.73,60.64,61.8,60.41,61.58ZM68.82,47c-.65,0-1.17,0-1.14-.91,0-1.39,0-2.77,0-4.56L66.21,43.2c-.83.91-1.34.92-2.16,0-.42-.45-.83-.91-1.3-1.43-.38,1.81-.38,1.81-2.2,1.61V38.28a2,2,0,0,1,2.65.9A25,25,0,0,0,65,41.57c1.82-1,1.85-4,4.82-3.31v3c0,1.6,0,3.2,0,4.8C69.82,46.83,69.5,47,68.82,47Z"/><path class="cls-1" d="M38.61,19.8l-1.15-.4a5.15,5.15,0,0,1,5-4.21,5.23,5.23,0,0,1,5.2,4.2l-1,.49c.85,1.06,1.29,2.08.43,3.33a5.27,5.27,0,0,1-4.66,2.51,5.57,5.57,0,0,1-2.18-.55C37.77,24,37.32,22.46,38.61,19.8Z"/><path class="cls-1" d="M42.65,59.47l1,2.2s0,.11,0,.12c1.15.55,1.27,1.89,2.09,2.69,0,0,.1,0,.11,0a13.29,13.29,0,0,0,1.79,3.42,1.43,1.43,0,0,1-.62.62,6.28,6.28,0,0,1-1.62.17c-2.09,0-4.19,0-6.28-.07a4.86,4.86,0,0,1-1.5-.6,10.18,10.18,0,0,0,1.06-1.12,3.27,3.27,0,0,0,.51-1.16c.06-.24-.1-.54-.16-.81,1.8-.39.66-2.88,2.39-3.37.17-.05.22-.55.31-.85s.2-.74.3-1.12Z"/></g></g></svg>