<svg xmlns="http://www.w3.org/2000/svg" viewBox="0 0 259.48 52.89"><defs><style>.cls-1{fill:#fff;}</style></defs><title>Asset 54</title><g id="Layer_2" data-name="Layer 2"><g id="Layer_1-2" data-name="Layer 1"><path class="cls-1" d="M38.86,17.2c-2.45.64-4.29-.7-6.24-3.07C27.8,8.27,19.44,8.2,14.08,13.59,7.66,20,7.39,31.28,13.5,38.16c5.51,6.21,14.22,6,19.56-.4,1.8-2.16,7.79-3.76,10.32-2.65,1.71.75.46,1.86.1,2.72-6.19,15-26.74,17.71-37.54,5.06C-.65,35.18-1.89,23.41,2.89,14.07A22.39,22.39,0,0,1,25.28,1.49c8.07.69,14.12,4.61,17.87,11.84C45,17,44.87,17.18,41,17.2Z"/><path class="cls-1" d="M146.59,38.93c-2.67,8.42-9.74,12.74-18.84,11.88-8-.76-15.1-7.83-16-16-1.14-10.9,6.79-20.49,17.2-20.8,11-.33,18.91,7.86,18.69,19.24,0,2.15-.68,2.76-2.78,2.73-7-.11-14-.06-21,0-.82,0-1.89-.44-2.43.4-.65,1,.3,1.88.81,2.67,2.46,3.78,8.58,5.6,11.83,2.57C138,38,142.1,39.16,146.59,38.93ZM129.78,28.58c2.13,0,4.25-.06,6.37,0s2.23-.82,1.31-2.44c-3-5.16-10.94-5.65-14.68-.82-.6.76-1.54,1.59-1.22,2.58.41,1.27,1.72.58,2.61.63C126,28.66,127.91,28.58,129.78,28.58Z"/><path class="cls-1" d="M193.81,52.89c-1.67-10,3.26-14.67,12.56-12.68a28.76,28.76,0,0,0,3.33.5c4.25.37,7.62-1.41,8.93-4.68a9.2,9.2,0,0,0-2.34-10,8.92,8.92,0,0,0-10.12-1.19c-3.29,1.84-5.46,5.93-4.28,9.52.86,2.61.15,3.28-2.16,3.53a3.84,3.84,0,0,0-2.09.73c-3.5,3.18-4.1.46-4.72-2.25a18,18,0,1,1,35.41-7c1.86,9.49-4.8,19-14.39,20.81-3.4.64-6.71.1-10.05-.12C200.32,49.88,196.88,50,193.81,52.89ZM205,43.59c-2.17-1.7-4.25-3.61-7.11-1.05-2.17,1.94-3.44,4.09-2.73,7.33,2.23-1.53,4.7-1.11,7-1.78C204.74,47.31,202.86,44.25,205,43.59Z"/><path class="cls-1" d="M81.29,32.58a18.06,18.06,0,1,1-18-18.19A18.11,18.11,0,0,1,81.29,32.58Zm-8.68-.15a9.34,9.34,0,0,0-18.67,0,9.34,9.34,0,0,0,18.67,0Z"/><path class="cls-1" d="M78.21,15.23a4.73,4.73,0,0,1,.66-.25c8.45-.54,8.46-.54,11.2,7.5,2,5.88,4,11.76,6.26,18.44C99,33,101.39,25.76,103.88,18.57c.46-1.32.35-3.35,2.12-3.57a35.78,35.78,0,0,1,7.46.05c1,.1.5,1.21.27,1.83-3.94,10.49-7.92,21-11.84,31.44-.53,1.4-1.35,1.76-2.79,1.83-7.5.36-7.48.4-10.19-6.77Q83.59,29.3,78.21,15.23Z"/><path class="cls-1" d="M177.65,36.55c0-3.74-.05-7.49,0-11.23,0-1.49-.23-2.4-2-2.28-.92.06-2.29.33-2.31-1.15,0-2.2-.53-4.45.38-6.6a.33.33,0,0,1,.3-.17c4.66.72,3.6-3.2,4.37-5.51,1.85-5.65,6-9,11.68-9.56,2.19-.2,3.76.05,3.36,2.87a14.52,14.52,0,0,0,0,3.36c.14,1.64-.24,2.62-2.16,2.58a3.9,3.9,0,0,0-3.46,1.91c-.67,1.06-1.45,2.26-.95,3.48s2,.8,3,.65c3.66-.58,3.32,1.76,3.3,4.09s.44,4.77-3.25,4.08c-2.7-.51-3.31.74-3.25,3.3.18,6.86,0,13.73.12,20.59.05,2.35-.47,3.25-3,3.22-6.06-.08-6.06.07-6.06-6.14Z"/><path class="cls-1" d="M158.91,18.14c2.88-2.58,5.53-4.05,8.82-4.12,1.81,0,2.93.29,2.61,2.42a6.51,6.51,0,0,0,0,1.87c.45,3.14-.06,5-4.07,4.83s-6.38,2.76-6.61,7.17c-.29,5.48-.31,11-.16,16.48.07,2.56-.56,3.45-3.27,3.39-6-.14-6,0-6-5.85,0-8.62.16-17.25-.08-25.87-.09-3.11,1-4,3.79-3.59a7.08,7.08,0,0,0,2.25,0C158.37,14.47,159.41,15.31,158.91,18.14Z"/><path class="cls-1" d="M222.81,50.08c4-5.89,7.51-11.15,11.19-16.26,1.22-1.69,1.28-2.77,0-4.49-3.35-4.48-6.41-9.16-9.82-14.11,3.52-.66,6.79-.23,10-.3,1,0,1.45.83,1.94,1.54,3,4.4,6,8.86,9.16,13.18,1,1.4.83,2.29-.1,3.59-3.1,4.36-6.26,8.7-9,13.29-1.69,2.84-3.67,4-6.92,3.61A53.82,53.82,0,0,0,222.81,50.08Z"/><path class="cls-1" d="M259.48,50.08c-3.57,0-6.4-.12-9.22,0-2.09.12-2.73-1.36-3.6-2.67-4.34-6.47-4.34-6.47.24-12.74.22-.3.48-.57,1-1.19Z"/><path class="cls-1" d="M247.92,29.34c-.95-1.28-1.62-2.16-2.27-3.06-3-4.19-2.66-7.08,1.1-10.69a2.62,2.62,0,0,1,2-.7H258Z"/></g></g></svg>