<svg xmlns="http://www.w3.org/2000/svg" viewBox="0 0 146.38 56"><defs><style>.cls-1{fill:#fbfbfb;}.cls-2{fill:#f8fbf8;}.cls-3{fill:#fafbfa;}.cls-4{fill:#f9fbf9;}.cls-5{fill:#f8fef7;}.cls-6{fill:#f9faf9;}.cls-7{fill:#fefbfd;}.cls-8{fill:#f4f9f5;}.cls-9{fill:#f7fbf8;}.cls-10{fill:#f5f9f5;}.cls-11{fill:#eaf4ea;}.cls-12{fill:#f5f9f4;}.cls-13{fill:#20a72d;}.cls-14{fill:#f1f8f0;}.cls-15{fill:#1ea627;}.cls-16{fill:#f9fbfa;}.cls-17{fill:#f7fdf1;}.cls-18{fill:#f0fdf9;}.cls-19{fill:#fff;}</style></defs><title>Asset 44</title><g id="Layer_2" data-name="Layer 2"><g id="Layer_1-2" data-name="Layer 1"><path class="cls-1" d="M100.72,14.48c1.29-1,1-2.7-.55-3.58-.85-.48-1.74-.88-2.57-1.39-2.74-1.65-2.84-4.07-.29-6,.14-.18.24-.42.54-.25A9.71,9.71,0,0,1,101.07,3a7.19,7.19,0,0,1,1.14.23c.8.22.63.91.51,1.4-.17.69-.62.1-.91,0a6.64,6.64,0,0,0-2.3-.28c-1,.12-2.06.31-2.35,1.49s.53,1.9,1.49,2.44a16.78,16.78,0,0,1,3.46,2.05,3.19,3.19,0,0,1,0,5c-.58.53-1.35.51-2,.87a4.49,4.49,0,0,1-4.38-.45A2.56,2.56,0,0,1,95.56,14a6.29,6.29,0,0,0,2.55.78A20.8,20.8,0,0,1,100.72,14.48Z"/><path class="cls-2" d="M74.91,16.08l0-.06-.08,0a14.72,14.72,0,0,1-.23-4.77c.13-2.49-.15-5,0-7.46,0-.17-.08-.34.13-.43,2-.43,4-.09,6.06-.18.54,0,.63.33.63.77s-.24.6-.65.6c-1.17,0-2.34,0-3.5,0-.76,0-.94.26-1,1-.11,3.3-.13,3.32,3.17,3.29,1,0,1.85,0,1.44,1.42-.33.55-.88.45-1.38.47a10.86,10.86,0,0,0-2.42.13c-.76.28-.6.93-.6,1.51a5.42,5.42,0,0,0,.14,1.88.67.67,0,0,0,.34.23c1.16.08,2.33,0,3.5,0,.42,0,.87-.1,1.21.28v0a1.13,1.13,0,0,1,0,1.29l0,0a1.08,1.08,0,0,1-1,.3A31.15,31.15,0,0,1,74.91,16.08Z"/><path class="cls-3" d="M127.51,46.57c-1.14-5.45,2.68-9.54,8-8.58a3.81,3.81,0,0,1,1,.28c.64.31.45.95.32,1.38s-.59.06-.86,0c-2.21-.71-4.23-.51-5.85,1.29a6.35,6.35,0,0,0-.59,6.53c1,1.9,3.16,2.72,5.63,2.12.54-.13,1.06-.33,1.63-.5.27,1,0,1.59-1.11,1.82a9.11,9.11,0,0,1-4,.07,5.85,5.85,0,0,1-4.07-3.65C127.29,47.12,127.42,46.84,127.51,46.57Z"/><path class="cls-4" d="M119.77,27.83c-.38,1.23-.08,2.48-.16,3.72,0,.64.44.61.89.6H124c.42,0,.88-.07.9.61s-.36.77-.9.76c-1.65,0-3.29,0-4.94,0-.7,0-1-.19-1-1q0-5.52,0-11c0-.68.25-.92.91-.9,1.52,0,3,.05,4.55,0,1.17,0,1.38.43.91,1.4a11,11,0,0,1-3.58.12c-1.08,0-1.37.34-1.25,1.33a13.35,13.35,0,0,0,.14,2.68c1.11,0,2.21.08,3.32.09,1.32,0,1.45.24.86,1.5A13.81,13.81,0,0,1,119.77,27.83Z"/><path class="cls-5" d="M76.24,27.88a46,46,0,0,1,0,5.38,1.5,1.5,0,0,1-1.31,0h0a.67.67,0,0,1-.15-.38c0-1.54.08-3.07,0-4.6a1.83,1.83,0,0,1,0-.4,3.83,3.83,0,0,0,0-1.75,1.83,1.83,0,0,1,0-.4,19.33,19.33,0,0,0,0-3.95,1.14,1.14,0,0,1,.25-1c1.08-.41,1.46,0,1.39,1.11-.09,1.4-.06,2.81-.08,4.22a25.5,25.5,0,0,0,4.1.09,18,18,0,0,0,2.65,0c0-1.46,0-2.92,0-4.37-.06-1.09.32-1.43,1.33-1.05a20.91,20.91,0,0,1,.12,4.11c0,2.42,0,4.83,0,7.25,0,1.35,0,1.35-1.37,1.13L83,27.8C80.74,27.83,78.48,27.68,76.24,27.88Z"/><path class="cls-6" d="M116.35,38.22c2.31,3.3,4.43,6.72,6.53,10.15.4-.39.25-.89.25-1.35,0-2.44,0-4.87,0-7.3a2.14,2.14,0,0,1,.33-1.61c1-.35,1.11.16,1.11,1,0,3.58,0,7.16,0,10.74,0,.4.17.92-.39,1.1a1.09,1.09,0,0,1-1.29-.34.93.93,0,0,0-.38-.33l-5-7.76c-.26-.39-.55-.76-.83-1.14-.24-.09-.39-.23-.28-.51s-.21-.33-.38-.43l-.13.68c-.73.32-1.42.55-1.43-.68v-.89C114.42,38,114.86,37.69,116.35,38.22Z"/><path class="cls-4" d="M110.07,11.31a14.13,14.13,0,0,0-.13,3.44c0,1.49-.18,1.6-1.66,1.05-.36-1.64.07-3.32-.25-5-.87-2.22-2.16-4.24-3.13-6.41-.15-.35-.87-.8-.24-1.16a1.14,1.14,0,0,1,1.52.3,3.5,3.5,0,0,0,.24.3c.34.35.81.62.58,1.23l.45.87c.25.07.28.25.25.47l1.38,3.22c1-1.95,2-3.69,2.93-5.49.45-.9,1-1.23,2-.79l-3.91,7.73c.08.07.1.12,0,.15A.14.14,0,0,1,110.07,11.31Z"/><path class="cls-4" d="M107.23,29.87l-.52.27c-.48.18-.3-.52-.66-.49l-2.77-6-.24,0v9.78a1.15,1.15,0,0,1-1.53-.09l0,0,0-.05a16.6,16.6,0,0,1-.12-3.73c0-2.5,0-5,0-7.52,0-.42-.13-.86.14-1.26,2-.27,2-.28,2.76,1.5a48.67,48.67,0,0,1,2.2,5.21c.14.38.07.86.5,1.11h0C107.07,29,107.51,29.37,107.23,29.87Z"/><path class="cls-7" d="M114.6,40.83c.13.08.32.38.38.21.36-.95.58-.28.85,0v9.65a1.07,1.07,0,0,1-1.33,0h0A65.84,65.84,0,0,1,114.6,40.83Z"/><path class="cls-4" d="M99.11,39.48A2.26,2.26,0,0,0,98.89,38,1.11,1.11,0,0,0,97.6,38V48.17l-.37.06L90.55,38A2,2,0,0,0,89,38c-.41.39-.25.89-.25,1.35,0,3.88,0,7.77,0,11.65.44.5.94.33,1.44.16,0-.06,0-.12.11-.18V40.38A9.79,9.79,0,0,1,92,42.87q2.68,4.07,5.39,8.13a2.44,2.44,0,0,0,1.8-.06C99.13,47.12,99.13,43.3,99.11,39.48Z"/><path class="cls-8" d="M122.5,50.24c1.77.84,1.94.72,1.94-1.27,0-3.2,0-6.41,0-9.61,0-.7-.1-1.23-1-1.14l-.19-.07.16-.11,0-.06a1.22,1.22,0,0,1,1.29,0c.14,4.34.13,8.67,0,13a2.77,2.77,0,0,1-1.82,0Z"/><path class="cls-9" d="M80,43.88c-1.19-.08-2.4.23-3.57-.17-.37-1.18-.07-2.39-.16-3.58,0-.62.36-.67.84-.67h3.23c.41,0,.9.13,1.06-.46-.09-.35.28-.82-.27-1a29.58,29.58,0,0,0-6.24,0l-.23.49a11.89,11.89,0,0,0,0,4.37c0,.56.09,1.11.11,1.67.07,2.17-.14,4.33.11,6.49a1.48,1.48,0,0,0,1.3,0c.28-1.82-.17-3.68.24-5.5,1.15-.51,2.36-.1,3.54-.22.48,0,1,.06,1-.68S80.52,43.91,80,43.88Z"/><path class="cls-6" d="M114.6,40.83l-.09,9.93a83.94,83.94,0,0,1-.11-8.54,14.09,14.09,0,0,1,.16-4.25,2.36,2.36,0,0,1,1.79,0,1,1,0,0,1,0,.24C114.45,38.25,114.43,38.27,114.6,40.83Z"/><path class="cls-10" d="M83.05,33.26c1,.13,1.27-.28,1.26-1.24,0-3.75,0-7.5,0-11.25.34.2.23.53.23.81,0,3.62,0,7.24,0,10.87C84.51,33.64,84.3,33.74,83.05,33.26Z"/><path class="cls-11" d="M74.69,33.25q0-6.24,0-12.48l.2,0,.06,1a23.39,23.39,0,0,1,0,4.1v.33a3.4,3.4,0,0,1,0,1.49v.34A33.12,33.12,0,0,1,75,33l-.06.3Z"/><path class="cls-6" d="M112.64,24.33l.38-1.19.28,0V33.49h0c1.07.26,1.53-.21,1.48-1.27h0V21.79c-.16-.41.16-1.13-.67-1.14-.66,0-1.36-.17-1.68.73a22.81,22.81,0,0,1-1,2.06,1.18,1.18,0,0,0-.56,1.22c-.64,2-1.8,3.71-2.36,5.71-.17.17,0,.54-.37.58s-.28-.26-.41-.41a1.29,1.29,0,0,1-.19-.71h0a.79.79,0,0,0-.39-.13.68.68,0,0,0-.61.47,1.35,1.35,0,0,0,.14.79c.18.48.34,1,.56,1.43s.23,1.13.92,1.09.63-.66.82-1.07c1.14-2.51,2.12-5.09,3.43-7.53"/><path class="cls-11" d="M76.24,27.88c.19-.37.55-.37.89-.37h5a1,1,0,0,1,.82.29l-.26,0a50.65,50.65,0,0,1-5.78.14,1,1,0,0,1-.47-.09A.39.39,0,0,0,76.24,27.88Z"/><path class="cls-10" d="M83,26.19c-1.61.65-3.3.17-5,.28-.59,0-1.3.28-1.8-.35a.7.7,0,0,0,.25.05A1.08,1.08,0,0,1,77,26.1c1.93,0,3.86-.12,5.78.09A.28.28,0,0,0,83,26.19Z"/><path class="cls-12" d="M108.53,30.37c0,.35,0,1-.45.8a.9.9,0,0,1-.52-1.34C108,29.8,107.58,31.31,108.53,30.37Z"/><path class="cls-12" d="M107,28.57c-1,0-.54-.65-.5-1.11A2.06,2.06,0,0,1,107,28.57Z"/><path class="cls-13" d="M107.48,38h-1.54"/><path class="cls-12" d="M107.23,29.87,107,28.56a2.6,2.6,0,0,1,.58,1.27Z"/><path class="cls-12" d="M106.05,29.65l.66.49V31Z"/><path class="cls-14" d="M115.84,51h-1.31l0-.25,1.33,0Z"/><path class="cls-15" d="M124.69,38H123.4"/><path class="cls-11" d="M74.9,33.27h1.31A.84.84,0,0,1,74.9,33.27Z"/><path class="cls-1" d="M99,25.33c-.91-5-5.73-5.67-8.72-4.24-2,1-2.75,2.89-3.31,4.89a11.56,11.56,0,0,0,0,2.28c.09.33.17.66.28,1,.66,2.12,1.89,3.75,4.14,4.25s4.33.28,6-1.58a1.9,1.9,0,0,0,.82-.9A8.29,8.29,0,0,0,99,25.33Zm-1.62,3A4.23,4.23,0,0,1,91,31.76c-.16,0-.16,0-.71-.51a6,6,0,0,1-.08-8.2l.59-.5c2.71-1.69,5.66-.5,6.52,2.63l0,.27A4.72,4.72,0,0,1,97.36,28.33Z"/><path class="cls-3" d="M112,49.84q-2.25-5.93-4.54-11.84a1.54,1.54,0,0,0-1.54,0l-5,12.94a1.44,1.44,0,0,0,1.8,0c1-3.57,1-3.57,4.63-3.58.43,0,.86,0,1.29,0a.79.79,0,0,1,.9.56,19.5,19.5,0,0,1,1,3,1.83,1.83,0,0,0,1.55.07C112.58,50.56,112.15,50.2,112,49.84ZM108.18,46c-.89,0-1.78,0-2.67,0s-1.06-.29-.61-1c.53-1.56,1-3.12,1.58-4.67.3-.18.35.09.47.25l1.59,4.67C108.92,45.74,108.88,46,108.18,46Z"/><path class="cls-16" d="M93.69,14.94c-1.37-3.6-2.77-7.2-4.14-10.8-.21-.57-.43-1-1.16-1s-1,.44-1.18,1c-.53,1.42-1,2.87-1.6,4.26-.8,1.86-1.23,3.87-2.37,5.58-.36.29-.11.71-.25,1,.26.31-.66.85.16,1,.62.12,1.27.17,1.52-.72s.6-1.59.91-2.39a.14.14,0,0,0,.1-.06s0-.11,0-.19c.52-.45,1.14-.13,1.71-.2,2.4-.31,4.5-.11,4.84,3,0,0,0,.07.06.11.27.77,1,.62,1.42.46C94.36,15.78,93.81,15.27,93.69,14.94Zm-7-3.8c-.25,0-.37-.11-.27-.3h0a.37.37,0,0,1,0-.52l.48-.8A11.31,11.31,0,0,1,88,6.4c.14-.23.25-.5.55-.61.66,1.7,1.31,3.4,2.07,5.35Z"/><path class="cls-17" d="M86.38,10.32l0,.52c0,.2.15.24.28.3-.07.34-.17.75-.6.62-.58-.17,0-.54,0-.82S86.25,10.53,86.38,10.32Z"/><path class="cls-10" d="M75,33c0-1.63,0-3.26,0-4.88A12,12,0,0,1,75,33Z"/><path class="cls-10" d="M75,25.93v-4.1A8.88,8.88,0,0,1,75,25.93Z"/><path class="cls-10" d="M75,27.75V26.26A1.38,1.38,0,0,1,75,27.75Z"/><path class="cls-18" d="M124.08,48.73a1.84,1.84,0,0,1-.27-.34.87.87,0,0,1,0-.31c.08.08.2.14.24.24S124.1,48.53,124.08,48.73Z"/><path class="cls-10" d="M86.33,39.49l.29-.24c.22-.53.52-1.08-.28-1.41-1.28.1-2.59-.26-3.85.2.25.48-.5,1.49.76,1.45a.86.86,0,0,1,.22.46c.08,2.9,0,5.8,0,8.69,0,.55-.34.75-.78.89a1.23,1.23,0,0,0,0,1.48,22.55,22.55,0,0,0,3.58.1c.73-.21.42-.71.34-1.16a.24.24,0,0,1,0-.23c-1.06,0-1.38-.48-1.34-1.58.11-2.49,0-5,0-7.48,0-.39-.25-.87.26-1.16"/><polygon class="cls-4" points="145.55 39.53 145.55 39.53 145.55 39.53 145.55 39.53"/><path class="cls-4" d="M145,49.51c-.94.08-1.9,0-2.85,0-.75,0-1-.17-1.07-1-.08-3.42-.11-3.42,3.28-3.44h.13c1.14.13,1.54-.31,1.12-1.41-1.24,0-2.48,0-3.71,0-.58,0-.93-.14-.74-.8.07-1.13-.43-2.3.28-3.38a26.26,26.26,0,0,1,4.16,0c.76-.53.8-1.06,0-1.59l-6,.05h0q0,6.49,0,13a33.3,33.3,0,0,0,6.77,0C146.55,49.85,146.12,49.4,145,49.51Z"/><path class="cls-19" d="M23.57,32.34S-.38,34,0,24,23.38,14,23.38,14Z"/><path class="cls-19" d="M2.45,37.36S8.56,42.84,24,41.92c.41.08,1.41-4.92.41-4.92s-9.45.41-14.72-1.3-8.75-5.9-9-4.3S.52,36.71,2.45,37.36Z"/><path class="cls-19" d="M2.45,46.36S8.56,51.84,24,50.92c.41.08,1.41-4.92.41-4.92s-9.45.41-14.72-1.3-8.75-5.9-9-4.3S.52,45.71,2.45,46.36Z"/><path class="cls-19" d="M44.88,22c-8.17,0-15.09-2.73-17.54-6.5a5.5,5.5,0,0,0-1,3c0,5.25,8.29,9.5,18.5,9.5s18.5-4.25,18.5-9.5a5.48,5.48,0,0,0-1-3C60,19.27,53.06,22,44.88,22Z"/><path class="cls-19" d="M44.88,31.33c-8.17,0-15.09-2.72-17.54-6.5a5.52,5.52,0,0,0-1,3c0,5.25,8.29,9.5,18.5,9.5s18.5-4.25,18.5-9.5a5.51,5.51,0,0,0-1-3C60,28.61,53.06,31.33,44.88,31.33Z"/><path class="cls-19" d="M44.88,40.67c-8.17,0-15.09-2.73-17.54-6.5a5.5,5.5,0,0,0-1,3c0,5.24,8.29,9.5,18.5,9.5s18.5-4.26,18.5-9.5a5.48,5.48,0,0,0-1-3C60,37.94,53.06,40.67,44.88,40.67Z"/><path class="cls-19" d="M44.88,50c-8.17,0-15.09-2.73-17.54-6.5a5.5,5.5,0,0,0-1,3c0,5.25,8.29,9.5,18.5,9.5s18.5-4.25,18.5-9.5a5.48,5.48,0,0,0-1-3C60,47.27,53.06,50,44.88,50Z"/><ellipse class="cls-19" cx="44.88" cy="9.5" rx="18.5" ry="9.5"/></g></g></svg>