<svg xmlns="http://www.w3.org/2000/svg" viewBox="0 0 392.95 63.93"><defs><style>.cls-1{fill:#fff;}</style></defs><title>Asset 49</title><g id="Layer_2" data-name="Layer 2"><g id="Layer_1-2" data-name="Layer 1"><path class="cls-1" d="M31.64,0A32,32,0,1,1,0,32,31.9,31.9,0,0,1,31.64,0ZM53.7,32.1A22,22,0,0,0,31.37,9.77C19.63,9.81,9.64,20.05,9.67,32A22.34,22.34,0,0,0,31.93,54.19,22.09,22.09,0,0,0,53.7,32.1Z"/><path class="cls-1" d="M87.75,55.89c-4.18-11-8-21.17-11.83-31.29-1.54-4.1-2.94-8.26-4.61-12.31-.9-2.17-.31-2.49,1.83-2.76,4.31-.55,6.58.84,7.85,5.21,1.8,6.21,4.37,12.19,6.93,19.14l12-25.11c4,8.52,7.57,16.36,11.61,25.09,2.94-7.51,5.57-14.26,8.24-21,.59-1.49.73-3.29,3.18-3.28,7.6,0,6.63-.38,4.31,5.71-5,13.19-9.82,26.47-15,40.57L100,27.74C95.82,37.3,92,46.12,87.75,55.89Z"/><path class="cls-1" d="M196.93,33.93l12-25.15,11.63,25.06c2.76-7,5.48-13.15,7.57-19.51,1.22-3.73,2.95-5.1,6.93-4.85,3.23.21,3,1.13,2.1,3.5-4.3,11.37-8.46,22.79-12.68,34.18-1,2.64-2,5.27-3.25,8.6L209,27.74c-4.12,9.51-7.95,18.35-12.2,28.14-4.15-11-8-21-11.76-31.11-1.55-4.11-2.89-8.3-4.61-12.32-1.09-2.52-.14-2.65,2-2.94,4.24-.56,6.29,1,7.52,5.11C191.83,20.93,194.39,27,196.93,33.93Z"/><path class="cls-1" d="M358.83,31.51c-3.11,3.3-6.41,6.44-9.26,9.94-2.29,2.81-3.8,3.32-6.29.15C340.42,38,337,34.8,333,30.58c0,7.32-.27,13.63.1,19.89.23,3.82-1.52,3.94-4.45,4s-4.18-.44-4.12-3.85c.22-12.92.08-25.84.08-38.76V8c6.64,7.57,12.73,14.22,18.45,21.17,2.38,2.89,3.63,3.2,6.17.11,5.74-6.95,11.9-13.55,18.71-21.23V28.23c0,7.66-.17,15.34.09,23,.12,3.41-1.7,3.18-3.95,3.17s-4.43.43-4.25-3.28c.3-6.45.08-12.93.08-19.4Z"/><path class="cls-1" d="M178.12,32.25C178,45,167,55.41,154,55.14c-13.23-.28-23.61-10.66-23.52-23.53.09-12.53,10.8-22.8,23.77-22.8C167.75,8.81,178.27,19.14,178.12,32.25ZM154.51,16.1a15.75,15.75,0,0,0-16.29,15.51c-.22,8.57,7.05,15.94,15.87,16.08A16.1,16.1,0,0,0,170.36,32,15.76,15.76,0,0,0,154.51,16.1Z"/><path class="cls-1" d="M320.75,31.7c.06,12.83-10.39,23.21-23.57,23.41a23.41,23.41,0,0,1-24-23.36c.06-12.63,10.62-22.92,23.55-23C310.07,8.76,320.68,18.89,320.75,31.7Zm-7.87,0c-.07-8.92-7-15.64-16.08-15.61A15.5,15.5,0,0,0,281,32a15.93,15.93,0,0,0,31.86-.27Z"/><path class="cls-1" d="M371.65,32.15c0-6.52.07-13,0-19.55,0-2.21.65-3,2.89-2.94,5.09.11,10.21.18,15.29-.1,4-.21,2.85,2.48,3,4.51s.32,4.09-2.86,3.7a38.26,38.26,0,0,0-4.67,0c-5.67,0-6.89,1.62-5.68,7.27.27,1.27.83,1.61,2,1.58,2,0,4,.11,5.95,0,2.8-.18,4.69-.15,4.59,3.81-.08,3.53-1.24,4.12-4.36,4.07-8.56-.14-8.47,0-8.14,8.6.09,2.17.59,3.06,2.87,2.9,2.54-.17,5.12.15,7.65-.09,2.88-.28,3.06,1.41,2.63,3.34s1.68,4.94-2.52,4.88c-5.39-.09-10.77-.13-16.15,0-2.25.06-2.5-1-2.48-2.81C371.7,44.9,371.65,38.53,371.65,32.15Z"/><path class="cls-1" d="M270,42.37c-.4,4.68-3.45,8.91-8.73,11.3-5.76,2.61-11.32,1.73-16.37-2.08-.79-.6-1.37-1.48-2.2-2-3.63-2.29-2.77-4.31.05-6.65,1.37-1.14,2.06-1.4,3.38,0a15.72,15.72,0,0,0,7.21,4.25c3.75,1.12,6.45-.1,8.11-3.45,1.76-3.55.44-6.41-2.72-8.32-2.41-1.45-5.06-2.52-7.62-3.73-7.09-3.34-9.72-7.42-8.54-13.32,1.06-5.35,6.19-9.26,13-9.66a17.86,17.86,0,0,1,8.69,1.62c4.37,2,4.47,3.06,1.37,6.61-1.27,1.45-2.21,1.79-3.82.64a9,9,0,0,0-6.9-1.41c-2.22.36-4.11,1.35-4.52,3.82s1.06,4,3.17,4.92c2.59,1.12,5.3,2,7.85,3.21C266.81,30.75,270.08,34.86,270,42.37Z"/><path class="cls-1" d="M31.61,31.15c-1.27-3.11-2.47-6.26-3.85-9.32-.94-2.07-.22-2.72,1.81-3a13.39,13.39,0,1,1-5.7,24c-4.45-3.11-6.55-10-4.76-15.23.91-2.66,2.11-3.12,4.39-1.22s5,3.62,7.55,5.41Z"/></g></g></svg>