<svg xmlns="http://www.w3.org/2000/svg" viewBox="0 0 276.18 58.07"><defs><style>.cls-1{fill:#fff;}</style></defs><title>Asset 79</title><g id="Layer_2" data-name="Layer 2"><g id="Layer_1-2" data-name="Layer 1"><path class="cls-1" d="M82.77,37.59A20.69,20.69,0,1,1,62.26,16.9,20.44,20.44,0,0,1,82.77,37.59Z"/><path class="cls-1" d="M123.19,49.56c-5.84,7.09-13,9.5-21.3,8-9.06-1.65-16-10-16.34-19.67-.24-6,.14-12.06-.13-18.08-.16-3.49,1.94-3.1,4-2.94s4.76-1.28,4.6,2.81c-.23,5.57-.13,11.15,0,16.73.13,8.17,5.19,13.43,12.68,13.3,7.28-.12,12.13-5.42,12.17-13.35,0-5.43.3-10.87-.09-16.27-.27-3.75,1.85-3.33,4.14-3.26,2.1.08,4.53-.82,4.29,3.08-.34,5.4-.12,10.84-.08,16.26.07,8.15,5.1,13.55,12.52,13.54S152,44.33,152.16,36.15c.09-5.57.19-11.16,0-16.72C152,16,154.2,16.7,156,16.89s4.54-1.55,4.47,2.36c-.11,6.62.36,13.29-.2,19.87-.73,8.52-5.45,14.69-13.52,17.57-7.82,2.79-15.14,1.36-21.37-4.38A22.63,22.63,0,0,1,123.19,49.56Z"/><path class="cls-1" d="M198.72,37.12c5.05-2.76,9.68-4.48,14.8-3.77,2,.27,2.12-.88,2.46-2.28,1.25-5.21,4.38-9.06,8.58-12.34,2.44-1.92,3.61-1.14,4.65,1.09.8,1.73,4.52,3.2.49,5.52a11.42,11.42,0,0,0-4.84,5.25c-1.49,3.31-2.06,6.21,1.37,9.2,4.75,4.11,5.91,10,5.76,16.05-.09,3.61-2.88,1.72-4.38,1.87s-4,1.4-3.82-2a22.2,22.2,0,0,0-.06-3.16,12.54,12.54,0,0,0-12.64-11.18c-6.65.11-11.68,5-12.37,12-.14,1.41.86,3.56-.71,4.09-1.89.65-4.15.31-6.25.23-1.57,0-1.27-1.39-1.27-2.38,0-17.5.06-35-.07-52.5,0-3.65,2.31-2.73,4.24-2.79s4.19-.67,4.13,2.88C198.6,14.11,198.72,25.27,198.72,37.12Z"/><path class="cls-1" d="M257.54,16.75c3.76,0,7.56.29,11.29-.09,3.92-.39,3.06,2.11,3.14,4.24.09,2.37.32,4.33-3.34,4.14-6.76-.34-13.56-.05-20.33-.11-2.9,0-5.31.71-5.32,4s2.2,4.29,5.19,4.26c5.12,0,10.24-.09,15.36,0,7.3.15,12.82,5.69,12.65,12.53s-5.55,12-12.66,12.05-14.17-.21-21.23.11c-3.64.16-3.64-1.55-3.74-4.28-.11-3.08.67-4.22,4-4.08,6.47.27,13,0,19.43.11,3,0,5.79-.48,5.82-4,0-3.8-2.85-4.36-6-4.28q-7.23.16-14.47,0c-7.38-.15-12.63-5.45-12.57-12.54.06-6.91,5.16-11.9,12.46-12.09C250.6,16.68,254.07,16.75,257.54,16.75Z"/><path class="cls-1" d="M38.11,25.48c-.68.77-1.32,1.4-1.84,2.11-2.28,3.08-4.09,4-7.45.57C24,23.21,16.12,24,11.45,28.93A12.42,12.42,0,0,0,29,46.48,25.09,25.09,0,0,0,31.8,43c7.43,6.12,7.36,7.18-.21,11.83A20.68,20.68,0,0,1,6.21,22.49a20.93,20.93,0,0,1,27.62-1.12C35.33,22.61,36.65,24.07,38.11,25.48Z"/><path class="cls-1" d="M163.22,45.24c0-2.86-.07-5.72,0-8.57a20.92,20.92,0,0,1,22.64-20c3.44.29,2.34,2.5,2.33,4.16s1.08,3.87-2.33,4.19c-11.36,1.07-14.37,4.61-14.38,16.14,0,4.66-.18,9.33.06,14,.2,3.78-2.38,2.65-4.18,2.63s-4.48,1.2-4.21-2.61C163.4,51.87,163.22,48.55,163.22,45.24Z"/></g></g></svg>