<svg xmlns="http://www.w3.org/2000/svg" viewBox="0 0 99.03 60"><defs><style>.cls-1{fill:#fff;}</style></defs><title>Layer 1-2</title><g id="Layer_2" data-name="Layer 2"><g id="Layer_1-2" data-name="Layer 1"><g id="Layer_1-2-2" data-name="Layer 1-2"><path class="cls-1" d="M19.62,22.62c.43-2.11,1.58-2.92,3.64-3.36q20-4.44,40-9.14C68.57,8.88,71.12,5.34,70.79,0c-3,1.91-6.34,2.72-9.66,3.66-14.55,4.16-29.77,5.91-44,11C10.48,17,5.93,18.7,1.88,25.27a10.55,10.55,0,0,0-1.65,8c.34,1.46,1.21,2.45,2.9,2.15S4.56,34,4.3,32.68c-.79-3.73.81-7,4.29-9A28.72,28.72,0,0,1,16.12,21c-4.09,3.33-3.74,7.65-4.88,11.42-.28,1-.05,2.3-1.4,2.6-3.38.74-3,3.46-3.46,6.13,1.21-.36,1.87-1.53,3.21-1C9.07,42.77,8.51,45.42,8,48S7,52.94,7.32,55.48c.45,3.08,2.71,5,5.33,4.43.76-.16,1.7-.38,1.41-1.41-1.76-6.08.58-11.81,1.39-17.67.3-2.18,1.17-3.51,3.4-3.95,3.41-.7,4.91-3.06,5.12-6.8a28.64,28.64,0,0,1-6.79,2.7C18.08,29.12,19,25.89,19.62,22.62Z"/><path class="cls-1" d="M63.21,17.92a40.88,40.88,0,0,1-3.8,7.6c-.8,1.25-1.55,2.43-2.63,3.83a29.43,29.43,0,0,1-2.7,2.89,36.7,36.7,0,0,1,2.56-11.51c.42-1.13.42-2.29-.94-1.82C52.39,20,48.46,19.67,46,23a43.17,43.17,0,0,0-4.68,9.6C41,33.67,39,35.48,37.63,36.8a36.21,36.21,0,0,1,2.56-11.51c.42-1.12.41-2.28-.95-1.82-3.31,1.13-7.24.77-9.72,4.09a26.32,26.32,0,0,0-4,7,18.6,18.6,0,0,0-.95,6.23c.12,2.08,1.87,3.07,4.12,1.79a14.45,14.45,0,0,0,4.09-4.18c.94,2.4,2.14,3.41,4.32,2A22.33,22.33,0,0,0,41,36.39c.51,2.26,1.89,2.92,4.09,1.66a14.29,14.29,0,0,0,4.09-4.17c.94,2.4,2.13,3.4,4.32,2C55,35,58.13,31,59.65,28.53s2.86-4.93,4.29-7.4c.58,2.63.74,7.83.41,8.86a5.63,5.63,0,0,1-3.25,3.45c-1.69.8.58,1.82.58,1.82,1.75.77,6.27,2,7.48-5a19.78,19.78,0,0,0-.07-5.85c-.63-4.34-2.65-8,1.13-12.07C67.21,13.48,64.47,14.78,63.21,17.92ZM34.92,28.56a39.83,39.83,0,0,1-3.85,9.62c-.28.46-.55,1.12-1.24,1s-.62-1.43-.59-1.53,1.71-7,3.87-10c.37-.5.86-1.25,1.63-.87S35.07,28,34.92,28.56ZM51.37,24a40.21,40.21,0,0,1-3.84,9.62c-.28.46-.55,1.12-1.24,1s-.63-1.38-.59-1.53,1.7-7,3.87-10c.36-.5.86-1.25,1.63-.87s.35,1.18.18,1.8Z"/><path class="cls-1" d="M99,6c-3.18,1.26-6.11,2.63-7.33,6-1,2.53-1.88,8.84-9.15,14.23,2.11-2.63,2.79-5.93,3.13-9.75.38-4.27-2.05-5.92-6-4C74.1,15,71.63,19.79,71.17,25c-.2,4.25,1.76,5.6,4.26,5.49s6.6-1,12.48-6.76a17.82,17.82,0,0,0,4.51-7.18c.51,2.88,1.33,5,1,9.42-.26,3.93-2.53,8-12,11-25.61,8-23.67,6.49-49.88,13.3-5.43,1.42-6.92,3.08-7.31,8.83,6.7-1.82,36.4-9.64,58.37-16.91,14.1-4.68,15.24-9,16-13.58C99.79,21,93.25,11.54,99,6ZM81.14,16.23a25.88,25.88,0,0,1-2.86,9.87c-.38.73-.88,1.75-1.88,1.43s-.77-1.4-.71-2.34a27.61,27.61,0,0,1,3.21-9.66c.34-.59.81-1.29,1.54-1S81.24,15.54,81.14,16.23Z"/></g></g></g></svg>