<svg xmlns="http://www.w3.org/2000/svg" viewBox="0 0 3225.6 857.92"><defs><style>.cls-1{fill:#fff;}.cls-2{fill:none;}</style></defs><title>Asset 140</title><g id="Layer_2" data-name="Layer 2"><g id="Layer_1-2" data-name="Layer 1"><g id="Layer_1-2-2" data-name="Layer 1-2"><path class="cls-1" d="M162.08,648.56c.54-2.68,2-3.71,4.61-4.26q25.42-5.64,50.76-11.6c6.72-1.56,10-6.06,9.54-12.83-3.77,2.42-8.05,3.44-12.25,4.64-18.46,5.28-37.77,7.5-55.85,13.89-8.41,3-14.19,5.19-19.32,13.53-1.91,3.13-2.93,6.49-2.09,10.2.42,1.84,1.53,3.1,3.67,2.72,2.32-.41,1.82-1.83,1.48-3.53-1-4.73,1-8.88,5.45-11.38a36.32,36.32,0,0,1,9.55-3.41c-5.19,4.22-4.74,9.7-6.18,14.49-.37,1.21-.07,2.92-1.79,3.3-4.28.94-3.79,4.39-4.38,7.77,1.53-.45,2.37-1.94,4.07-1.28-.66,3.31-1.37,6.67-2,10-.58,3.12-1.35,6.23-.89,9.45.57,3.91,3.44,6.29,6.76,5.62,1-.2,2.16-.48,1.78-1.79-2.22-7.72.75-15,1.78-22.42.37-2.76,1.48-4.45,4.31-5,4.32-.9,6.22-3.89,6.49-8.63a36.57,36.57,0,0,1-8.61,3.42C160.11,656.81,161.23,652.71,162.08,648.56Z"/><path class="cls-1" d="M217.38,642.6a52.61,52.61,0,0,1-4.82,9.64c-1,1.59-2,3.08-3.34,4.86a38.28,38.28,0,0,1-3.43,3.66,46.39,46.39,0,0,1,3.25-14.6c.54-1.43.53-2.89-1.19-2.31-4.21,1.44-9.19,1-12.34,5.19a54.8,54.8,0,0,0-5.93,12.18c-.36,1.36-2.91,3.66-4.66,5.33a46.37,46.37,0,0,1,3.24-14.6c.54-1.43.53-2.89-1.19-2.31-4.2,1.44-9.19,1-12.34,5.19a33.46,33.46,0,0,0-5.1,8.94,24,24,0,0,0-1.21,7.89c.16,2.64,2.38,3.89,5.24,2.27,2.1-1.2,3.56-3.14,5.19-5.29,1.18,3,2.7,4.31,5.48,2.58,2-1.28,5-5.19,5-5.19.64,2.87,2.4,3.7,5.19,2.11,2.1-1.2,3.56-3.14,5.19-5.29,1.18,3,2.7,4.31,5.48,2.58,1.84-1.16,5.86-6.25,7.78-9.37s3.64-6.26,5.44-9.38c.75,3.33,1,9.92.53,11.24a7.16,7.16,0,0,1-4.13,4.37c-2.13,1,.74,2.31.74,2.31,2.23,1,8,2.58,9.49-6.3a24.87,24.87,0,0,0-.09-7.41c-.8-5.51-3.35-10.15,1.43-15.32C222.45,637,219,638.62,217.38,642.6Zm-35.9,13.5a50.69,50.69,0,0,1-4.88,12.2c-.35.59-.7,1.43-1.58,1.29-1-.16-.78-1.81-.74-1.93s2.16-8.9,4.91-12.72c.46-.64,1.09-1.6,2.06-1.12S181.67,655.32,181.48,656.1Zm20.87-5.8a50.26,50.26,0,0,1-4.87,12.2c-.35.59-.7,1.43-1.58,1.3-1-.17-.8-1.75-.74-1.94s2.16-8.9,4.91-12.72c.46-.64,1.09-1.6,2.06-1.11s.45,1.49.23,2.28Z"/><path class="cls-1" d="M262.82,627.43c-4,1.6-7.75,3.33-9.31,7.56-1.2,3.21-2.39,11.22-11.61,18,2.68-3.34,3.55-7.52,4-12.37.48-5.42-2.61-7.51-7.6-5.12-7.09,3.38-10.23,9.43-10.81,16.05-.25,5.39,2.23,7.09,5.41,7s8.36-1.3,15.83-8.58a22.58,22.58,0,0,0,5.71-9.1c.66,3.65,1.7,6.29,1.31,12-.34,5-3.21,10.14-15.3,13.92C208,677,210.41,675,177.15,683.63c-6.89,1.79-8.77,3.9-9.26,11.19,8.5-2.29,46.17-12.21,74.05-21.45,17.88-5.93,19.33-11.48,20.26-17.22C263.77,646.56,255.48,634.5,262.82,627.43Zm-22.7,13A33.09,33.09,0,0,1,236.5,653c-.49.92-1.13,2.22-2.4,1.81s-1-1.77-.9-3a35.15,35.15,0,0,1,4.08-12.26c.43-.75,1-1.64,1.95-1.3S240.24,639.58,240.12,640.46Z"/></g><rect class="cls-2" y="457.92" width="400" height="400"/><rect class="cls-2" x="2825.6" width="400" height="400"/></g></g></svg>