<svg xmlns="http://www.w3.org/2000/svg" viewBox="0 0 400 400"><defs><style>.cls-1{fill:#fdfdfd;}.cls-2{fill:none;}</style></defs><title>Asset 110</title><g id="Layer_2" data-name="Layer 2"><g id="Layer_1-2" data-name="Layer 1"><path class="cls-1" d="M138.12,165.67c-1.34,3.62-2.56,7-3.81,10.33-1.36,3.67-2.75,7.32-4.1,11a1.59,1.59,0,0,1-1.26,1.17,13.32,13.32,0,0,0-5.88,3.25c.16-.59.22-.92.33-1.23q5-14.38,10-28.78a1.24,1.24,0,0,1,1.43-1c2.29.05,4.59.07,6.88,0a1.44,1.44,0,0,1,1.61,1.13c2.87,7.51,5.5,15.1,8.24,22.66q4.2,11.56,8.48,23.1c.41,1.09.2,1.35-.92,1.28a37.84,37.84,0,0,0-4.26,0,1.24,1.24,0,0,1-1.43-1c-1.31-3.69-2.69-7.35-4-11-.32-.91-.68-1.29-1.73-1.27q-6.69.11-13.38,0a8.73,8.73,0,0,0-8.07,4.54,26.93,26.93,0,0,0-2.88,7.7c-.18.78-.46,1.1-1.31,1.06-1.45-.07-2.92,0-4.38,0-.47,0-.85,0-.64-.67,1.32-4.16,2.41-8.42,5-12.07a13.78,13.78,0,0,1,11.6-6.3c4.09-.05,8.17-.05,12.26,0,.8,0,1-.11.69-.95C143.8,181,141,173.47,138.12,165.67Z"/><path class="cls-1" d="M168.37,190.51v-1.66c0-9,0-18.1,0-27.14,0-1.21.37-1.42,1.47-1.41,5.67,0,11.34,0,17,0,7.13,0,12.09,4,13.64,11a25.65,25.65,0,0,1-.12,11.53A14.18,14.18,0,0,1,188,193.48c-2.61.28-5.22.57-7.84.81a10.6,10.6,0,0,0-2.56.53c-2.22.83-2.94,1.85-2.94,4.22,0,2.83,0,5.67,0,8.5,0,.83-.23,1.07-1,1-1.5-.07-3,0-4.51,0-.58,0-.8-.16-.79-.77,0-4,0-7.93,0-11.89a6.15,6.15,0,0,1,2.84-4.9,12.88,12.88,0,0,1,6.42-2.21c2.36-.28,4.72-.55,7.07-.84a12.45,12.45,0,0,0,2.21-.38c3.15-1,6.11-2.24,7.25-5.69,1.33-4,1.37-8.09-1-11.78a8.27,8.27,0,0,0-7.38-4c-3.29,0-6.59,0-9.88,0-1,0-1.26.21-1.26,1.22.06,6,0,12.1,0,18.14,0,.87-.17,1.41-1.07,1.65C171.64,187.68,170.12,189,168.37,190.51Z"/><path class="cls-1" d="M104.6,166.16H103c-7.42,0-14.84,0-22.26,0-1,0-1.43-.2-1.34-1.28a22.72,22.72,0,0,0,0-3.5c-.09-1.07.47-1.09,1.28-1.09q14.44,0,28.89,0c3.13,0,3,0,3.18,3.08a6.43,6.43,0,0,1-1.71,4.7c-7.85,9.52-15.6,19.12-23.42,28.66a9.3,9.3,0,0,0-2.11,6c0,1.62,0,3.25,0,4.87,0,.68-.14,1-.89,1-1.58-.06-3.16,0-4.75,0-.51,0-.87,0-.86-.7a47.46,47.46,0,0,1,.31-6.74,17.16,17.16,0,0,1,3.73-8.07Q93.54,180,104,167C104.12,166.81,104.26,166.61,104.6,166.16Z"/><path class="cls-1" d="M305.63,208.56c-4.67,0-9.34,0-14,0-1,0-1.17-.26-1.16-1.18,0-5.46.09-10.93,0-16.39-.11-7,4.39-10.36,10.53-10.65,5.83-.27,11.68,0,17.51-.07.75,0,1,.19,1,1a36.28,36.28,0,0,0,0,3.76c.05.87-.31,1-1.09,1-5.25,0-10.5,0-15.76,0a12.47,12.47,0,0,0-1.62.06c-2.77.31-4,1.63-4.07,4.4-.05,3.79,0,7.59,0,11.38,0,1,.51.92,1.16.92,7.09,0,14.18,0,21.26,0,1.22,0,1.76.21,1.59,1.55a18.56,18.56,0,0,0,0,3.25c.05.8-.19,1.06-1,1.05C315.14,208.54,310.39,208.56,305.63,208.56Z"/><path class="cls-1" d="M281,208.56h-5.83c-6.75,0-13.51,0-20.26,0-.92,0-1.18-.21-1.18-1.16q0-22.95,0-45.88c0-1,.29-1.3,1.26-1.24a33.36,33.36,0,0,0,4,0c1-.06,1.27.22,1.26,1.23-.06,4.5,0,9,0,13.51,0,8.83,0,17.67,0,26.5,0,1,.2,1.27,1.22,1.25,3.88-.07,7.76.11,11.63-.07,3.21-.15,5.3,1.31,6.87,3.87C280.23,207.15,280.53,207.75,281,208.56Z"/><path class="cls-1" d="M207.29,160.32c2.45,0,5,0,7.5,0,.51,0,.71.38.94.72,4.72,6.86,9.48,13.7,14.14,20.61a17.45,17.45,0,0,1,3,10.39c-.1,5.13,0,10.26,0,15.38,0,1-.27,1.21-1.19,1.16a31.4,31.4,0,0,0-4,0c-1,.07-1.34-.21-1.32-1.28,0-5.12,0-10.25,0-15.37a12.44,12.44,0,0,0-1.4-5.88,79.43,79.43,0,0,0-7.76-11.62c-3.32-4.44-6.55-8.94-9.81-13.42A.54.54,0,0,1,207.29,160.32Z"/><path class="cls-1" d="M290.48,183.15V169.3c0-2.62,0-5.25,0-7.88,0-.78.24-1,1-1q14.25,0,28.51,0c.81,0,1,.29,1,1a33.8,33.8,0,0,0,0,3.63c.06.93-.33,1.09-1.16,1.09-7.17,0-14.34,0-21.51-.05-1.13,0-1.37.3-1.34,1.38.08,3.08-.06,6.17.07,9.25a2.22,2.22,0,0,1-1.54,2.46,9.82,9.82,0,0,0-3.43,2.23C291.52,182,291,182.53,290.48,183.15Z"/><path class="cls-1" d="M234,185.91a10.67,10.67,0,0,0-2.23-5.32,1.11,1.11,0,0,1-.05-1.53q6.11-8.76,12.13-17.59a2.4,2.4,0,0,1,2.37-1.17c1.75.09,3.5,0,5.25,0,.36,0,.85-.2,1.05.18s-.27.64-.48.92L236.18,183C235.51,183.86,234.86,184.76,234,185.91Z"/><path class="cls-1" d="M99.66,208.56c-3.75,0-7.5,0-11.25,0-.84,0-1.2-.17-1.14-1.09.08-1.28,0-2.58,0-3.87,0-.65.18-.87.85-.87q11.7,0,23.39,0c.71,0,.82.31.8.9,0,1.3,0,2.59,0,3.88,0,.81-.2,1.06-1,1.05C107.42,208.54,103.54,208.56,99.66,208.56Z"/><path class="cls-1" d="M167.28,235.61a6,6,0,0,1-3.75-1.06,3.21,3.21,0,0,1-1.46-2.5c0-.31-.14-.7.41-.72.34,0,.57,0,.73.45a4.3,4.3,0,0,0,6,2.44,2.46,2.46,0,0,0,1.61-2.06,2.37,2.37,0,0,0-1.36-2.34,12,12,0,0,0-2.66-1.06,9.25,9.25,0,0,1-3.16-1.44,3.31,3.31,0,0,1-.56-4.68c1.8-2.27,6.21-2.26,8,0a2.63,2.63,0,0,1,.54,1c.12.53.72,1.26-.13,1.58s-.73-.62-.93-1.09a3.26,3.26,0,0,0-2.74-2.08,3.73,3.73,0,0,0-3.74,1.21,2.26,2.26,0,0,0,.61,3.37,9.51,9.51,0,0,0,2.76,1.13,11.67,11.67,0,0,1,2.87,1.21,3.28,3.28,0,0,1,1.73,3.1,3.31,3.31,0,0,1-2,2.93A5.38,5.38,0,0,1,167.28,235.61Z"/><path class="cls-1" d="M287,226.4a4.29,4.29,0,0,1,4.15-1.72,2.84,2.84,0,0,1,2.53,2.27c.55,2.64.16,5.32.25,8,0,.49-.36.46-.7.47s-.51-.29-.51-.66c0-2.08,0-4.17,0-6.25,0-1.61-.68-2.48-1.88-2.74a3.23,3.23,0,0,0-3.53,1.54,2.69,2.69,0,0,0-.29,1.44c0,1.92,0,3.84,0,5.76,0,.44.14.95-.62.92s-.58-.46-.58-.87V221c0-.4-.11-.85.55-.88s.65.44.65.9Z"/><path class="cls-1" d="M247.39,225c-1.6,4.25-3.14,8.46-4.78,12.64-.64,1.63-1.75,2.29-3,2.09-.31-.05-.69,0-.63-.55s.23-.51.64-.56A3.28,3.28,0,0,0,242,234.5c-1.07-2.79-2.18-5.58-3.26-8.37-.15-.38-.28-.77-.42-1.17.91-.35,1.32,0,1.61.79.92,2.58,1.91,5.13,3,7.92l1.35-3.74c.49-1.37,1-2.73,1.45-4.12C246,225,246.36,224.6,247.39,225Z"/><path class="cls-1" d="M254.44,228.31c0-2,0-4.08,0-6.12,0-.72.11-1,.94-1,2.33.05,4.66,0,7,0,.33,0,.8-.17.83.45s-.43.58-.84.58c-2,0-3.91,0-5.87,0-.66,0-.86.19-.83.84,0,1.25.06,2.5,0,3.75,0,.82.29,1,1,.94,1.59-.05,3.17,0,4.75,0,.35,0,.78-.11.78.5s-.36.55-.75.55c-1.62,0-3.25,0-4.87,0-.7,0-.94.18-.91.9,0,1.62,0,3.25,0,4.87,0,.47.07.92-.66.89s-.55-.47-.55-.87Q254.44,231.43,254.44,228.31Z"/><path class="cls-1" d="M100.64,235.61c-2.28,0-3.73-.77-4.2-2.12-.11-.32-.4-.77.08-1a.66.66,0,0,1,1,.53c.34,1.76,3.9,2,5,.81a1.67,1.67,0,0,0-.55-2.72,10.69,10.69,0,0,0-2.61-.81c-2.12-.6-3-1.57-2.85-3.07s1.73-2.63,3.73-2.64c1.81,0,3.37.91,3.71,2.21.09.31.38.77-.16,1s-.71,0-.95-.48a2.9,2.9,0,0,0-3.78-1.45,1.75,1.75,0,0,0-1.34,1.63A1.6,1.6,0,0,0,99,229.05c1.26.53,2.69.59,3.89,1.3A2.62,2.62,0,0,1,103,235a4.38,4.38,0,0,1-1.26.53A5.45,5.45,0,0,1,100.64,235.61Z"/><path class="cls-1" d="M279.25,235.62c-1.63,0-3.08-.37-3.88-2-.18-.37-.5-.9.09-1.15s.76.11,1,.62c.75,1.67,3.84,2,5.05.66a1.65,1.65,0,0,0-.57-2.63,10.87,10.87,0,0,0-2.61-.83c-2.2-.61-3.08-1.59-2.87-3.15s1.81-2.62,3.8-2.55a3.61,3.61,0,0,1,3.57,2c.16.35.43.86-.07,1.1s-.77,0-1-.55a3,3,0,0,0-4.17-1.18,1.66,1.66,0,0,0-.91,1.52,1.5,1.5,0,0,0,1,1.43c.58.23,1.19.37,1.78.56s1.36.41,2,.69a2.5,2.5,0,0,1,1.67,2.54,2.78,2.78,0,0,1-1.92,2.53A5,5,0,0,1,279.25,235.62Z"/><path class="cls-1" d="M235.1,234.11a4.06,4.06,0,0,1-3,1.51,3.24,3.24,0,0,1-3.63-2.87,58.42,58.42,0,0,1-.15-7.37c0-.44.2-.56.62-.56s.55.36.55.75c0,1.66,0,3.33,0,5a12.58,12.58,0,0,0,.1,1.62c.27,1.78,1.16,2.51,2.88,2.37a2.76,2.76,0,0,0,2.72-2.83c0-2,0-3.92,0-5.88,0-.45-.22-1.06.65-1s.55.59.55,1c0,2.84,0,5.67,0,8.51,0,.37.34,1-.42,1.09s-.58-.6-.71-1A1.82,1.82,0,0,0,235.1,234.11Z"/><path class="cls-1" d="M313.81,226.43a4,4,0,0,1,4.09-1.74,2.88,2.88,0,0,1,2.6,2.49c.47,2.55.12,5.15.22,7.72,0,.49-.3.5-.65.51-.56,0-.56-.35-.56-.75V230c0-.5,0-1,0-1.5-.11-2-1-2.89-2.71-2.84a2.9,2.9,0,0,0-3,3.12c0,1.92,0,3.83,0,5.75,0,.39.13.85-.56.85s-.61-.53-.61-.95c0-2.87,0-5.75,0-8.62,0-.38-.28-1,.51-1s.52.58.59,1C313.75,225.93,313.76,226.05,313.81,226.43Z"/><path class="cls-1" d="M107.54,230.16a5.73,5.73,0,0,0,.61,2.9,2.74,2.74,0,0,0,2.9,1.52,2.48,2.48,0,0,0,2.5-1.87c.13-.56.41-.71.87-.58s.3.6.21.92a3.41,3.41,0,0,1-2.75,2.45,4.12,4.12,0,0,1-4.32-1.29,7.18,7.18,0,0,1,0-8.18,4.08,4.08,0,0,1,4.31-1.26,3.34,3.34,0,0,1,2.73,2.6c.08.36.42.85-.21,1s-.76-.15-.88-.71a2.5,2.5,0,0,0-2.4-2,2.74,2.74,0,0,0-2.94,1.44A5.76,5.76,0,0,0,107.54,230.16Z"/><path class="cls-1" d="M131.65,233.79c1-2.79,2-5.4,2.89-8,.26-.75.6-1.16,1.55-.79q-1.91,5-3.79,10a.64.64,0,0,1-.65.45c-.59,0-.67-.4-.81-.78l-2.79-7.36c-.19-.5-.41-1-.56-1.52-.09-.29-.55-.71.05-.9a.77.77,0,0,1,1.06.57c.53,1.58,1.14,3.13,1.71,4.69C130.74,231.28,131.16,232.45,131.65,233.79Z"/><path class="cls-1" d="M189.57,227.73q0-3.31,0-6.63c0-.4-.21-1,.58-.95s.62.5.62.94q0,6.69,0,13.38c0,.43.14.95-.61.95s-.59-.53-.59-.94Q189.57,231.11,189.57,227.73Z"/><path class="cls-1" d="M185,227.81q0-3.36,0-6.73c0-.43-.16-.94.61-.92s.55.48.55.87v13.46c0,.43.14.95-.62.92s-.53-.6-.54-1C185,232.22,185,230,185,227.81Z"/><path class="cls-1" d="M149.49,226.45a3.47,3.47,0,0,1,2.8-1.82c.38,0,.89-.15.88.55,0,.55-.28.63-.79.65a2.75,2.75,0,0,0-2.95,3.09c0,1.84,0,3.67,0,5.51,0,.39.24,1-.55,1s-.61-.5-.61-.93q0-4.3,0-8.63c0-.38-.29-1,.5-1s.51.59.6,1C149.39,225.93,149.41,226,149.49,226.45Z"/><path class="cls-1" d="M93.55,230.18v4.49c0,.38,0,.74-.53.75s-.7-.24-.7-.75q0-4.54,0-9.11c0-.5.11-.76.69-.75s.54.38.54.75Z"/><path class="cls-1" d="M298.27,230.18c0,1.5,0,3,0,4.49,0,.38.05.74-.54.75s-.68-.28-.68-.77q0-4.54,0-9.09c0-.49.11-.76.69-.75s.52.41.52.77C298.27,227.11,298.27,228.65,298.27,230.18Z"/><path class="cls-1" d="M284.43,208.05c-1.48-1.73-2.29-3.88-4.54-5.29,1.48,0,2.66,0,3.83,0,.55,0,.72.22.71.74C284.41,205,284.43,206.53,284.43,208.05Z"/><path class="cls-1" d="M155,234.48a9.64,9.64,0,0,1-.95,3.14.49.49,0,0,1-.69.33c-.35-.13-.16-.41-.12-.63a12,12,0,0,0,.53-3.3c-.05-.51.33-.48.67-.48C155.28,233.55,154.91,234.18,155,234.48Z"/><path class="cls-1" d="M93.57,220.94c0,.47.1.89-.58.91s-.69-.39-.68-.88,0-.82.6-.85S93.59,220.53,93.57,220.94Z"/><path class="cls-1" d="M298.26,220.94c0,.52.07.91-.59.9s-.62-.38-.63-.82,0-.91.7-.88S298.23,220.65,298.26,220.94Z"/><path class="cls-1" d="M223.33,227.91c1.71-1.39,2.15-2.55,1.65-4.19s-1.91-2.35-3.54-2.46-3,0-4.5-.08c-.58,0-.68.26-.68.76q0,6.38,0,12.75c0,.53.17.74.72.73,1.66,0,3.33,0,5,0,2.14-.08,3.61-1.25,3.92-3C226.27,230.29,225.5,228.92,223.33,227.91Zm-5.88-3.09c0-2.61,0-2.61,2.67-2.6a6.2,6.2,0,0,1,2.09.24,2.35,2.35,0,0,1,1.72,2.44,2.31,2.31,0,0,1-1.73,2.43,16.54,16.54,0,0,1-4.33.22c-.41,0-.42-.31-.42-.61Zm4.77,9.5c-1.36.12-2.75.06-4.12.11-.6,0-.68-.29-.66-.77,0-.75,0-1.5,0-2.25,0-2.86,0-2.86,2.82-2.85a7.82,7.82,0,0,1,2.36.18,2.77,2.77,0,0,1,2.13,3A2.61,2.61,0,0,1,222.22,234.32Z"/><path class="cls-1" d="M208.19,234.23a1.26,1.26,0,0,1-.2-2,4.58,4.58,0,0,0,.71-2.49c0-.33.13-.69-.41-.72s-.67.15-.68.63a5.78,5.78,0,0,1-.55,2c-.24.6-.49.66-.93.13-.89-1.11-1.79-2.2-2.76-3.23-.59-.62-.65-1,.12-1.52a9.39,9.39,0,0,0,1.78-1.55,2.62,2.62,0,0,0,.43-2.82,2.58,2.58,0,0,0-2.28-1.69,3.19,3.19,0,0,0-3.25,1.13,3.09,3.09,0,0,0-.19,3.65c1.09,1.48.66,2.21-.53,3.34a3.63,3.63,0,0,0,1.7,6.32,5.21,5.21,0,0,0,4.22-.54c.86-.56,1.49-.94,2.17.19.29.5.88.31,1.58.19A10.33,10.33,0,0,0,208.19,234.23Zm-6-12.14a1.83,1.83,0,0,1,2.29.77,2.07,2.07,0,0,1-.6,2.68,1.46,1.46,0,0,1-.19.16c-.63.31-1.13,1.37-1.8,1a2.94,2.94,0,0,1-1.13-2.46A2,2,0,0,1,202.21,222.09Zm3.2,11.61a4.51,4.51,0,0,1-2.79.89,2.85,2.85,0,0,1-3.11-2.12,3.85,3.85,0,0,1,1.9-3.77c.36-.2.52-.08.72.16,1.13,1.32,2.26,2.66,3.41,4C205.9,233.22,205.78,233.44,205.41,233.7Z"/><path class="cls-1" d="M89.36,226.29a5.71,5.71,0,0,0-5.83-5.1c-1.12,0-2.25.05-3.37,0-.86,0-1.16.19-1.13,1.09.07,2,0,4,0,6s0,4.17,0,6.25c0,.72.21.94.91.91,1.29,0,2.59,0,3.88,0a5.67,5.67,0,0,0,5.5-4.88A14,14,0,0,0,89.36,226.29Zm-1.24,4.09a4.65,4.65,0,0,1-4.57,4c-3.28.23-3.28.23-3.28-3V228.3c0-1.75,0-3.5,0-5.25,0-.66.19-.89.85-.84s1.5,0,2.25,0a4.68,4.68,0,0,1,4.79,4.06A11.53,11.53,0,0,1,88.12,230.38Z"/><path class="cls-1" d="M272.67,234.89c-.37-2.36-.07-4.74-.19-7.11-.09-1.74-1.12-2.78-3-3.09s-3.92.51-4.47,1.94c-.13.33-.51.82.09,1.06s.75-.07,1-.59a3,3,0,0,1,4.6-.71,2.59,2.59,0,0,1,.57,2.58c-.2.79-1.06.34-1.6.36a7.17,7.17,0,0,0-4.09.88,2.82,2.82,0,0,0-1.18,3.28,2.69,2.69,0,0,0,2.5,2.09,4.79,4.79,0,0,0,4.42-1.75c.08.58.11.87.16,1.15.09.56.53.41.88.42S272.71,235.17,272.67,234.89ZM271,233a4,4,0,0,1-4.09,1.5A1.84,1.84,0,0,1,265.5,233a1.88,1.88,0,0,1,.71-1.88c.72-.63,1.51-.82,3.31-.83h.12c.54.12,1.36-.36,1.57.27A2.71,2.71,0,0,1,271,233Z"/><path class="cls-1" d="M179.81,224.8a4.35,4.35,0,0,0-5.23,2.35,7.09,7.09,0,0,0-.52,4.28c.65,4.53,4.91,4.9,7.34,3.49.34-.2,1-.34.63-1s-.75-.08-1.06.09c-2.77,1.5-5.3.26-5.75-2.8-.12-.78,0-1.19.91-1.11s1.75,0,2.62,0h3c.45,0,.76,0,.82-.63A4.39,4.39,0,0,0,179.81,224.8Zm.74,4.29c-.74-.05-1.49,0-2.24,0s-1.58,0-2.37,0c-.49,0-.64-.14-.57-.65a3.37,3.37,0,0,1,3.07-2.79,2.81,2.81,0,0,1,2.86,2.58C181.4,228.87,181.24,229.14,180.55,229.09Z"/><path class="cls-1" d="M139.52,230.11c.86.08,1.74,0,2.62,0s2,0,3,0c.49,0,.73-.07.76-.67.16-2.38-1-4.29-3-4.72a4.38,4.38,0,0,0-5.22,3,7.48,7.48,0,0,0-.2,4.06,4.72,4.72,0,0,0,7.29,3.1c.32-.2,1-.32.62-1s-.76-.08-1.07.09c-2.73,1.48-5.4.17-5.75-2.81C138.49,230.46,138.59,230,139.52,230.11Zm-.47-2.56a3,3,0,0,1,3.44-1.82,2.77,2.77,0,0,1,2.16,2.56c.06.59-.07.84-.7.8-.79,0-1.58,0-2.36,0H140C138.52,229.08,138.41,228.9,139.05,227.55Z"/><path class="cls-1" d="M307.11,224.88a4.59,4.59,0,0,0-6.09,3.36c-.9,3.54.71,6.84,3.55,7.31l.37,0c3.22.27,5.26-1.86,5.26-5.49C310.19,227.51,309,225.54,307.11,224.88Zm1.2,8.11a3.18,3.18,0,0,1-5.62-.07,5.57,5.57,0,0,1,0-5.62,3.16,3.16,0,0,1,5.54-.06,5,5,0,0,1,.72,2.87A5.19,5.19,0,0,1,308.31,233Z"/><path class="cls-1" d="M122.53,224.79a4.54,4.54,0,0,0-5.77,3.54c-.81,3.4.62,6.53,3.28,7.17a4.21,4.21,0,0,0,.62.09c3.23.3,5.28-1.82,5.28-5.45C125.94,227.34,124.65,225.32,122.53,224.79Zm-1.39,9.8c-2.06-.05-3.36-1.78-3.36-4.45s1.38-4.49,3.48-4.49,3.51,1.82,3.51,4.49S123.34,234.65,121.14,234.59Z"/><rect class="cls-2" width="400" height="400"/></g></g></svg>