<svg xmlns="http://www.w3.org/2000/svg" viewBox="0 0 276.23 80.64"><defs><style>.cls-1{fill:#fdfdfd;}</style></defs><title>Asset 72</title><g id="Layer_2" data-name="Layer 2"><g id="Layer_1-2" data-name="Layer 1"><path class="cls-1" d="M36.09,80.34c.1-.65.67-.93,1.06-1.32C43.74,72.45,50.41,66,56.92,59.3a24.76,24.76,0,0,0-.21-35,25.17,25.17,0,0,0-35.22-.24C14.75,30.64,8.1,37.31,1.41,43.93c-.33.32-.56.77-1.25.89A40.19,40.19,0,0,1,1.27,31,41.61,41.61,0,0,1,38.25.14,39.44,39.44,0,0,1,81.07,36.46,41.52,41.52,0,0,1,44.89,80.33a43.88,43.88,0,0,1-7.6.25C36.9,80.57,36.45,80.7,36.09,80.34Z"/><path class="cls-1" d="M38.7,66.66c-1.18-2.92-2.44-5.53-3.66-8.16A25.37,25.37,0,0,0,22,45.68c-2.21-1-4.36-2.15-6.67-2.94-.89-.31-1.27-.57-.38-1.43,4-3.87,7.8-7.91,11.87-11.67,7.51-6.95,19.39-6.24,25.62,1.4A17.6,17.6,0,0,1,52,53.17C48,57.9,43.24,62,38.7,66.66Z"/><path class="cls-1" d="M171.12,37.83q-1.81,5.39-3.61,10.78c-.14.4-.24.82-.4,1.21a2.7,2.7,0,0,1-2.5,1.87,2.59,2.59,0,0,1-2.73-1.78q-3-8.2-5.83-16.45a2.19,2.19,0,0,1,1.37-3.08,2.34,2.34,0,0,1,3.11,1.69c1.35,4,2.62,8,3.92,12.08.66-.26.6-.89.75-1.35q1.68-5,3.27-10.11c.46-1.44,1.19-2.45,2.89-2.42s2.31,1,2.75,2.39c1.22,3.77,2.45,7.53,3.68,11.32.76-.16.69-.8.83-1.25,1.17-3.51,2.28-7,3.46-10.55.61-1.82,2.4-2.5,3.74-1.47a2.2,2.2,0,0,1,.74,2.69c-1.93,5.44-3.84,10.87-5.79,16.3a2.83,2.83,0,0,1-5.43-.1q-2-5.87-3.89-11.73Z"/><path class="cls-1" d="M92.44,41c.19-4.27,1.91-7.72,5.81-9.68a11,11,0,0,1,11.61.64c1.69,1.09,2.11,2.35,1.33,3.54s-2.25,1.26-3.9.13c-2.67-1.82-5.4-1.83-7.62,0a7.29,7.29,0,0,0-1.73,8.28,6.06,6.06,0,0,0,6.55,3.66A7.15,7.15,0,0,0,107.92,46c1.32-1,2.43-1,3.23,0s.6,2.29-.65,3.29A10.69,10.69,0,0,1,98.61,50.8C94.51,48.92,92.64,45.46,92.44,41Z"/><path class="cls-1" d="M121.23,34.1c.77-1,1.33-1.78,2-2.49a4.43,4.43,0,0,1,3.21-1.53,2.11,2.11,0,0,1,2.39,1.83,2.29,2.29,0,0,1-1.52,2.79c-4.82,1.82-5.93,3.37-6.06,8.54,0,1.85,0,3.7,0,5.55a2.44,2.44,0,1,1-4.84,0q0-7.71,0-15.4c0-2,.84-3,2.41-3.06s2.37,1,2.45,3C121.24,33.48,121.23,33.67,121.23,34.1Z"/><path class="cls-1" d="M222,29.34c-.33,1.26.24,1.82,1.75,1.64.94-.11,1.9,0,2.85,0s2,.11,2,1.29-1,1.4-2.05,1.38-2.12.06-3.17,0-1.36.27-1.35,1.33c.06,4.6,0,9.2,0,13.81a10.28,10.28,0,0,1,0,1.11c-.09,1-.58,1.66-1.58,1.64a1.53,1.53,0,0,1-1.56-1.65c0-.53,0-1.06,0-1.59,0-4.39,0-8.78,0-13.17,0-1-.15-1.6-1.35-1.48-.91.09-1.59-.32-1.57-1.34s.73-1.38,1.63-1.29c1.1.12,1.36-.37,1.29-1.36a8.57,8.57,0,0,1,.43-3.44,6.49,6.49,0,0,1,8.41-3.55,1.3,1.3,0,0,1,.9,1.5,1.36,1.36,0,0,1-1.39,1.09,4.76,4.76,0,0,1-.62-.11C223.45,24.74,222.12,25.91,222,29.34Z"/><path class="cls-1" d="M246,35.18a17.8,17.8,0,0,1,3.61-3.5,6.45,6.45,0,0,1,3.11-1.05c.87-.05,1.61.19,1.79,1.16a1.4,1.4,0,0,1-1.23,1.86c-5.22.64-7.46,5.09-7.29,10.07.07,2,0,3.91,0,5.86,0,1-.37,1.85-1.45,1.9s-1.68-.74-1.69-1.86q0-8.48,0-16.95c0-1.1.51-1.92,1.67-1.87s1.48.86,1.46,1.9C246,33.53,246,34.35,246,35.18Z"/><path class="cls-1" d="M232.59,41.17c0-2.75,0-5.49,0-8.24,0-1.12.29-2.12,1.56-2.12s1.62.93,1.61,2.08q0,8.24,0,16.47c0,1.13-.29,2.12-1.56,2.13s-1.62-.93-1.61-2.09C232.61,46.66,232.59,43.91,232.59,41.17Z"/><path class="cls-1" d="M236.09,24.83a1.69,1.69,0,0,1-1.93,1.8,1.67,1.67,0,0,1-1.76-1.82,1.85,1.85,0,1,1,3.69,0Z"/><path class="cls-1" d="M211.38,25.3c0-1.92-.95-3-2.49-3s-2.35,1.15-2.37,3c0,2.59,0,5.17,0,8.07-.42-.32-.59-.42-.73-.56-4.09-3.83-9.83-3.66-13.47.56-2.78,3.23-3.15,7.07-2.11,11,2,7.6,11.39,9.77,15.75,4.2a1.61,1.61,0,0,1,.39-.23c.41,2.27,1.32,3.29,2.77,3.18s2.26-1.23,2.26-3.56Q211.38,36.64,211.38,25.3ZM200.54,47.52c-3.42,0-5.86-2.83-5.85-6.72s2.46-6.61,6-6.57,5.95,2.91,5.94,6.7S203.9,47.56,200.54,47.52Z"/><path class="cls-1" d="M142.08,30.07a10.93,10.93,0,1,0,0,21.85,11.05,11.05,0,0,0,11.22-11C153.31,34.73,148.49,30.06,142.08,30.07Zm0,17.55a6.41,6.41,0,0,1-6.4-6.66c0-3.86,2.69-6.73,6.32-6.71A6.52,6.52,0,0,1,148.45,41C148.47,44.82,145.82,47.62,142.12,47.62Z"/><path class="cls-1" d="M261.55,42.19c2.11.11,4.23,0,6.35,0h6.51c1.14,0,1.76-.45,1.81-1.68a9.48,9.48,0,0,0-11.71-9.69,9.31,9.31,0,0,0-7.12,7c-1.12,4.07-.54,7.91,2.51,11.07a10.65,10.65,0,0,0,14.77.07c.63-.64,1-1.3.3-2.06s-1.39-.53-2.09.05a11.2,11.2,0,0,1-1.54,1.12,7.31,7.31,0,0,1-11-4.18C260,42.73,260.06,42.12,261.55,42.19ZM260.2,39a6.79,6.79,0,0,1,6.58-5.75c3.22,0,5.7,2.4,6.24,5.83.12.75,0,.92-.74.91-1.85,0-3.69,0-5.54,0s-3.8,0-5.7,0C260.24,40,260.06,39.73,260.2,39Z"/></g></g></svg>