<svg xmlns="http://www.w3.org/2000/svg" viewBox="0 0 400 400"><defs><style>.cls-1{fill:#fff;}.cls-2{fill:none;}</style></defs><title>Asset 124</title><g id="Layer_2" data-name="Layer 2"><g id="Layer_1-2" data-name="Layer 1"><path class="cls-1" d="M162.55,180.65a1.1,1.1,0,0,1,.36,0,11.58,11.58,0,0,1,0,7.13,2.22,2.22,0,0,1-.37,0Z"/><path class="cls-1" d="M162.92,187.75a11.58,11.58,0,0,0,0-7.13,39.45,39.45,0,0,1,34-35.75c15.49-2.06,29.4,4.58,36.56,17.46,8.36,15,3.07,35.37-11.44,43.95-13.82,8.18-34.19,1.65-39.7-12.73-4.22-11-.06-23.61,9.55-29,9.18-5.13,21.52-2.09,26.5,6.51,5.2,9,.76,20-9,22.27-5.42,1.26-10.66-1.12-12.72-5.76-1.12-2.52-.45-5,1.65-6.15s4.35-.46,5.84,1.89a2.72,2.72,0,0,0,3.36,1.26c4.14-1,5.8-5.78,3.39-9.71-3.41-5.57-12.25-6.33-17.28-1.48-5.85,5.65-5.83,16,.11,21.69,8.37,8,24.82,9.43,32.68-6.55,7.39-15-2.69-32.73-19.3-35A31.36,31.36,0,0,0,174,172c-6,14.33-1.2,36.7,20.62,42.73,10.78,3,17,11,17,22.14,0,4.5,0,9,0,13.5,0,3.15-1.77,5.19-4.41,5.16s-4.21-1.95-4.23-5.1c0-4.64,0-9.27,0-13.91,0-6.34-2.58-10.23-8.47-12.65-2.75-1.13-5.67-1.77-8.36-3.07C172.24,214.06,164.61,203,162.92,187.75Z"/><rect class="cls-2" width="400" height="400"/></g></g></svg>