<svg xmlns="http://www.w3.org/2000/svg" viewBox="0 0 367.55 101.35"><defs><style>.cls-1{fill:#fcfcfc;}.cls-2{fill:#fbfcfc;}.cls-3{fill:#f6f8fb;}.cls-4{fill:#fbfbfc;}.cls-5{fill:#fafbfc;}</style></defs><title>Asset 60</title><g id="Layer_2" data-name="Layer 2"><g id="Layer_1-2" data-name="Layer 1"><path class="cls-1" d="M98,34.55c-3.2-9.84-9-17.32-16.45-23.9-1.48-1.3-2.59-1.21-3.7.9-2.3,4.39-5.6,8.33-7.37,12.88C68.94,28.36,63.8,31,65.91,36.25h0l7.26,11.36a4.83,4.83,0,0,1,.07,5.81c-2.46,3.46-3.87,7.54-6.61,10.84-1.45,1.75-2,4-.33,5.77,2.59,2.76,3.19,6.62,5.71,9.34,2,3.48,4.16,6.88,5.91,10.48,1,2,2.07,2,3.42.9A50.13,50.13,0,0,0,98,34.55Z"/><path class="cls-1" d="M247,72.67c0-11.93,0-23.85-.13-35.78,0-2.38.85-2.78,3.08-3.21,5.88-1.14,9.2,1.93,12.23,6.18,3.23,4.53,6.65,8.93,10,13.39,2.21-.07,1.29-1.8,1.32-2.78.1-4.78.09-9.56,0-14.34,0-2.52.74-3.73,3.51-3,2.47.65,5.05,0,7.57.33a1.37,1.37,0,0,1,.74,1.27q0,17.55,0,35.11c0,1.15.64,2.53-.68,3.46-8.67,2.19-13-3.21-17.14-9.45-2.41-3.67-5.36-7-8.07-10.44-1.81.2-1,1.63-1.05,2.49-.08,4.73-.16,9.46,0,14.18.08,2.43-.83,3.23-3.13,3C252.54,72.78,249.74,73.49,247,72.67Z"/><path class="cls-2" d="M181,71c.15,1.46-.13,2.4-2,2.33-3.09-.12-6.25.34-9.27-.14-3.81-.61-4.7-4.68-6.85-7.19-.74-.87-1.19-2.36-2.13-3.31s-.55-3.32-2.72-2.81c-2,.45-2.67,2.36-3.45,4-.33.7-.07,1.67-.22,2.49-.4,2.26,1.31,5.7-1.06,6.56-2.87,1-6.37.38-9.6.28-1.63-.06-1.36-1.52-1.36-2.6,0-11.39,0-22.79,0-34.18,0-2.11.9-2.68,2.81-2.58a55.69,55.69,0,0,0,6.33,0c2.18-.14,3,.69,3,2.89-.11,3.63,0,7.26,0,11.31,4.22-1.93,6.17-5.66,8.33-8.65,3.2-4.42,6.78-6.2,12-5.56a52,52,0,0,0,5.92,0c-1.43,2.71-4.23,3.83-4.72,6.51-.76,1.12-.47,2.7-1.6,3.66l-.9.87c-4.82,4.74-4.91,6.35-.69,11.48.44.53.78,1.15,1.26,1.65,1,.73,1.14,1.91,1.68,2.89.51,1.2,1.62,1.94,2.32,3C178.55,66.43,181.63,67.92,181,71Z"/><path class="cls-2" d="M341.4,35c1.27,2.11,2.64,4.16,3.8,6.33,1.57,2.91,2.57,2.11,3.88-.26,3.86-7,8.7-9,16.34-7.23,2.05.48,1.26,1.44.64,2.34-3.45,5-6.92,9.92-10.47,14.81-.76,1.05-1.19,2.07-.34,3,4.16,4.47,6.54,10.18,10.48,14.79.92,1.08,2.42,2.48,1.56,4-.63,1.13-2.34.23-3.52.52-7.55,1.79-11.88-2-14.77-8.39-1.28-2.83-2.5-2.55-3.9-.06-1.14,2-2.43,4-3.65,5.93-.45,2.25-1.65,3.35-4.1,3.16-3.63-.28-7.28.28-10.9-.3-1.75-2.76,1-4.41,1.59-6.61,2.25-3.86,5.12-7.29,7.66-10.94a4.45,4.45,0,0,0,.1-5.69c-2.68-4.22-6-8-8.39-12.44-1.34-4.43-1.28-4.54,3.11-4.57,2.65,0,5.29,0,7.93,0C339.73,33.36,341,33.28,341.4,35Z"/><path class="cls-1" d="M60.72,77.69l3.84,6c.41,4.47,4.27,7.07,5.93,10.87a1.76,1.76,0,0,1,.15,2.47c-10.48,4.65-21.32,5.33-32.43,2.87a29.12,29.12,0,0,1-6.89-2.13c-2.77-1.37-2-2.76-1-4.1,4.61-6,7.28-13.11,11.41-19.38,1.11-1.69,2-2.82,4.13-2.58a19.25,19.25,0,0,0,5,0C55.88,71,59.25,72.72,60.72,77.69Z"/><path class="cls-2" d="M49.8,0a47.44,47.44,0,0,1,18.11,3c1.88.71,4.33,1.2,1.89,4.74-4.06,5.87-7.25,12.36-10.6,18.69-1.11,2.1-2.43,3.23-4.81,3.07-.7-.05-1.4,0-2.1,0-9.67,0-10.89-.92-14.76-10a66.65,66.65,0,0,0-7.06-12c-1.07-1.52-2-2.85,1-4A46.78,46.78,0,0,1,49.8,0Z"/><path class="cls-3" d="M240.92,53.62c0,5.33-.11,10.66,0,16,.08,2.58-.49,3.78-3.43,3.73-10.21-.18-8.78.67-8.82-8.75,0-8.7.1-17.4-.07-26.09-.06-3.33.81-4.82,4.45-4.78,7.83.08,7.83-.08,7.83,7.7Z"/><path class="cls-4" d="M50.08,63.24c-2.33-.54-5.61,1.26-7.08-.9-2.44-3.6-6-7.11-6.15-11.57s3.5-8.08,6-11.56c2-2.76,6-.72,9.12-1,2.18-.23,5.31-.82,6.23,1.3C60,43.39,63.83,46.57,64,50.66c.17,4.24-3.77,7.54-5.91,11.2C56.57,64.47,52.88,62.84,50.08,63.24Z"/><path class="cls-1" d="M224.23,49c-1.78-9.06-7.7-14.14-16.36-15.71s-16.64.72-22.41,8.1c-3.38,1.55-4.34,4.55-4.72,7.89-.07,2.55,0,5.09,0,7.64,0,.13,0,.25,0,.38,1.32,2.06,1.51,4.71,2.92,6.71a5.27,5.27,0,0,0,.93,1,4.92,4.92,0,0,1,1.57,1.7.49.49,0,0,1,.12.6c4.28,2.21,7.87,5.67,13,6.28a26.71,26.71,0,0,0,18.33-4.29c2.78-3.66,5.75-7.21,6.6-11.93A10.09,10.09,0,0,0,224.23,49Zm-18,14.52a8.67,8.67,0,0,1-9.81-2.88c-3-3.61-3.13-11.1-.07-14.63,2.93-3.38,6.76-4.2,11-2.37a21.71,21.71,0,0,1,2.49,2.76C215,52.71,213.11,61.45,206.26,63.56Z"/><path class="cls-5" d="M324.4,64.3c0,10.19,1.57,8.87-8.69,8.93-8.22.06-16.45-.06-24.68-.1,0-11.79.05-23.58-.09-35.37,0-2.76.51-4,3.64-3.94,8.42.21,16.85.24,25.27,0,4.5-.13,3,2.92,3.23,5.12.23,2.38.27,4.4-3.29,4.14-4.33-.3-8.7-.13-13.05,0-1.12,0-2.58-.73-3.34.86a7.66,7.66,0,0,0,0,4.14c4.25,1.1,8.58.21,12.86.51,1.65.12,3.36-.39,5,.39C322.44,58,322.44,58,313.47,58c-2.25,0-4.5.09-6.75,0s-3.69.06-3.67,3,1.34,3.15,3.64,3.13C312.6,64.11,318.5,64.24,324.4,64.3Z"/><path class="cls-1" d="M30.27,75.75c5.6-7.38,5.58-9.74-.13-16.8-.23-.28-.19-.79-.27-1.19-4.19-7.08-4.11-9.56,1-16.15C32.74,39.22,33.12,36,35.54,34c-1.74-2-2.55-4.47-3.63-6.8-.56-1.22-2.49-1.54-2.09-3.32l0,0c-2.31-4.1-4.68-8.18-6.9-12.34-.87-1.63-1.48-2.52-3.4-1.07C11,17,4.62,25.34,2.07,35.73-1,48.38-1.13,61,5.09,73.23c3.52,6.9,8.41,12.34,14.1,17.3,1.74,1.53,2.78,1,3.82-1,2.15-4.14,4.55-8.15,6.85-12.22A4.33,4.33,0,0,1,30.27,75.75Z"/></g></g></svg>