<svg xmlns="http://www.w3.org/2000/svg" viewBox="0 0 94.95 45"><defs><style>.cls-1{fill:#fff;}</style></defs><title>Asset 46</title><g id="Layer_2" data-name="Layer 2"><g id="Layer_1-2" data-name="Layer 1"><path class="cls-1" d="M59.4,0A25.31,25.31,0,0,1,64,1.88a5.09,5.09,0,0,1,2.63,4.87,19.23,19.23,0,0,1-3.31-.07c-.4-.06-.71-.82-1-1.29C60.94,3.27,56.71,2.68,55,4.5a3.52,3.52,0,0,0-1,2.36A2.38,2.38,0,0,0,56.3,9.05c2,.25,4.1.45,6.1.9a6.05,6.05,0,0,1,4.76,7.13,6.27,6.27,0,0,1-4.43,5c-3.5,1.1-7,1.19-10.24-1a7.13,7.13,0,0,1-3.11-5.54c1.27,0,2.41,0,3.56,0a.74.74,0,0,1,.52.44,5.67,5.67,0,0,0,8.83,2.23,2.77,2.77,0,0,0,.87-2.93,2.32,2.32,0,0,0-2.09-1.77c-1.76-.34-3.56-.49-5.33-.75-4-.58-6-3.26-5.54-7.22.27-2.17,2.53-4.4,5.12-5.07L57.38,0Z"/><path class="cls-1" d="M0,31.5c1.05,0,2.1,0,3.15,0H94.6l.09,2H0Z"/><path class="cls-1" d="M10.13,0c1.65.53,3.34.91,4.71,2.15a7.31,7.31,0,0,1,2.58,5.14c-1.18,0-2.3,0-3.4,0-.25,0-.61-.41-.69-.69A3.75,3.75,0,0,0,9.79,3.64C8,3.45,6.35,3.83,5.4,5.48A7.77,7.77,0,0,0,4.28,8.77a28.69,28.69,0,0,0,.21,6.81,4.73,4.73,0,0,0,7.87,2.54c.49-.42.6-1.26,1-1.85a1.5,1.5,0,0,1,.89-.7c1-.09,2,0,3.13,0a6.26,6.26,0,0,1-2.24,4.95,9.11,9.11,0,0,1-11.47.59,6.32,6.32,0,0,1-2.48-3.21C.74,16.43.38,15,0,13.5V9.45C.41,7.92.75,6.38,1.24,4.88a5.19,5.19,0,0,1,2.6-3.06C5.21,1.11,6.68.6,8.1,0Z"/><path class="cls-1" d="M0,42.75C.6,41.18,1.18,39.6,1.81,38c.13-.32.46-.81.68-.8a1.53,1.53,0,0,1,.94.65A5.11,5.11,0,0,1,4,39.16c.45,1.24.86,2.5,1.3,3.76-1,.6-1.13-.28-1.41-1a15.25,15.25,0,0,0-1.79,0c-.27,0-.69.24-.74.44-.23.88-.78.76-1.39.57ZM3.45,41l-.68-2.34L1.73,41Z"/><path class="cls-1" d="M91.13,45l-.31-.69c1.54-.57,1.69-1.5.66-3.29-.35-.63-.62-1.31-.93-2,1.1-.37,1.1-.37,1.44.73l.56,1.82.31.08A12.15,12.15,0,0,0,93.47,40c.16-.87.57-1.32,1.48-1.25v.45c-.51,1.2-1.08,2.37-1.51,3.6A3.82,3.82,0,0,1,92,45Z"/><path class="cls-1" d="M25,22.43c-1.15,0-2.12.05-3.08,0-.24,0-.51-.38-.65-.65a1.79,1.79,0,0,1,0-.77V.71c.18-.1.24-.17.3-.17,3.6,0,7.21-.13,10.77.2a5.88,5.88,0,0,1,5.57,4.84,6.42,6.42,0,0,1-3,7.39.92.92,0,0,0-.45,1.43c1,2.19,2,4.4,3,6.6a14.14,14.14,0,0,1,.47,1.43c-1.3,0-2.45.05-3.59,0-.3,0-.69-.43-.84-.75-1-2.22-2-4.49-3-6.7a1.61,1.61,0,0,0-1.1-.8c-1.11-.11-2.24,0-3.37,0-.76,0-1,.31-1,1.09C25,17.54,25,19.9,25,22.43Zm3.32-11.75v-.09c.9,0,1.8.05,2.7,0A3.2,3.2,0,0,0,34.23,7a3.32,3.32,0,0,0-2.84-3,19,19,0,0,0-3-.13c-1.08,0-2.6-.32-3.11.24S25,6.21,25,7.31s-.32,2.51.22,3S27.21,10.6,28.28,10.68Z"/><path class="cls-1" d="M80.44.49c1,0,1.93.05,2.83,0S84.33.8,84.33,1.6c0,5.25,0,10.49,0,15.73,0,1.15.31,1.47,1.44,1.43,2.54-.09,5.09,0,7.64,0,.85,0,1.19.19,1.19,1.11,0,2.61,0,2.61-2.6,2.61-3.52,0-7,0-10.56,0-.73,0-1.08-.13-1.08-1,0-6.7,0-13.41,0-20.11C80.35,1.12,80.4.87,80.44.49Z"/><path class="cls-1" d="M45.8.49V22.34H41.92c0-.4-.08-.79-.09-1.19,0-6.49,0-13,0-19.46C41.8.78,42,.39,43,.48S44.78.49,45.8.49Z"/><path class="cls-1" d="M74.81,22.38H71V.59h3.82Z"/><path class="cls-1" d="M23.08,42.87a19.62,19.62,0,0,1-3.1.26,2,2,0,0,1-1.48-.87c-.24-.45,0-1.17.05-1.77.05-.39.3-.81.22-1.17-.18-.82-.31-1.6.62-2a1.48,1.48,0,0,1,2.06.51,1.39,1.39,0,0,1-.65,2.07c-.08,0-.11.18-.2.32l1.09.92.27-1.2h1.35C22.72,40.93,22,41.83,23.08,42.87ZM21,42.35l.08-.38a4.45,4.45,0,0,0-.85-1,2.91,2.91,0,0,0-1.09-.15c.05.42,0,1.12.16,1.22A5.88,5.88,0,0,0,21,42.35Zm-.85-4.75c-.29.45-.58.71-.57.95s.29.54.45.81c.23-.25.58-.47.65-.75S20.43,38.09,20.16,37.6Z"/><path class="cls-1" d="M36,42.74a6.75,6.75,0,0,0-1.41.23,2.16,2.16,0,0,1-3.06-1.46,8.15,8.15,0,0,1,.05-2.87c.21-1.13,1.18-1.48,2.22-1.46A2.14,2.14,0,0,1,36,39a3.89,3.89,0,0,1-1.17-.38c-1.06-.89-2-.74-2.57.5A2.78,2.78,0,0,0,32.85,42a1.64,1.64,0,0,0,1.32.25c.4-.19.61-.76.91-1.18a4.44,4.44,0,0,0-.42-.27l-1.07-.49a9.8,9.8,0,0,1,1.17-.35c.88-.15,1.33.17,1.22,1.15A13.61,13.61,0,0,0,36,42.74Z"/><path class="cls-1" d="M71.55,43a22,22,0,0,0,0-2.44c0-.35-.4-.66-.62-1-.31.3-.82.57-.88.92A15.26,15.26,0,0,0,70,43l-.31.26c-.26-.25-.73-.48-.75-.74-.08-1.19,0-2.38,0-3.45a6.1,6.1,0,0,1,2-.28,7.46,7.46,0,0,0,2.94,0c.31,0,.95.54,1,.91A15.69,15.69,0,0,1,75,42.58c0,.16-.22.32-.33.49-.15-.17-.4-.33-.42-.51a11.68,11.68,0,0,0-.07-1.68c-.12-.46-.47-1.18-.79-1.22-.65-.09-1,.48-1,1.18a9.25,9.25,0,0,1,0,1.58c0,.26-.3.5-.45.75Z"/><path class="cls-1" d="M12.68,41.24a5.27,5.27,0,0,1,.78.37c.27.18.5.56.78.59A3.91,3.91,0,0,0,15.83,42a1,1,0,0,0,.2-.85,3.72,3.72,0,0,0-1.21-.65,6.32,6.32,0,0,1-1.58-.45,1.6,1.6,0,0,1,.56-2.71,2.29,2.29,0,0,1,3.26,1.53c-.41-.09-.8-.07-1-.25-1.12-1-1.58-1-2.7.42a13,13,0,0,0,1.87.57c1.23.19,1.89.7,1.91,1.64a1.9,1.9,0,0,1-1.93,1.89C13.67,43.29,12.91,42.76,12.68,41.24Z"/><path class="cls-1" d="M76.36,44.71V38.88a10.93,10.93,0,0,1,2.87,0c1,.29,1.44,1.85,1,3.06-.34,1-1.34,1.35-2.75,1-.09.56-.16,1.13-.3,1.67C77.18,44.77,76.72,44.71,76.36,44.71Zm.57-3.78c.59.61.92,1.25,1.36,1.35.89.18,1-.61,1-1.26s0-1.54-1-1.41C77.89,39.66,77.54,40.32,76.93,40.93Z"/><path class="cls-1" d="M25.75,40.92c-.42,2-.42,2-1.13,2V37.29a22.17,22.17,0,0,1,2.45,0c1.35.16,1.76.65,1.73,1.86s-.6,1.65-1.88,1.74C26.55,40.94,26.17,40.92,25.75,40.92Zm-.33-1.09.36.41a7.91,7.91,0,0,0,1.85-.63,1.31,1.31,0,0,0-.08-1.18c-.42-.27-1.28-.51-1.51-.29C25.65,38.51,25.6,39.25,25.42,39.83Z"/><path class="cls-1" d="M45.71,38.86c1.49-.23,2.42.14,2.77,1a2.45,2.45,0,0,1-.74,2.88c-.47.26-1.17.09-1.74.2-1.73.34-1.33-.88-1.35-1.79,0-1.08,0-2.16,0-3.24,0-.26.35-.5.53-.75a3.73,3.73,0,0,1,.43.75A4.44,4.44,0,0,1,45.71,38.86Zm-.08,2.08c0,.69,0,1.42,1,1.4s1-.74,1-1.36,0-1.43-1-1.45S45.69,40.27,45.63,40.94Z"/><path class="cls-1" d="M63,41a2.21,2.21,0,0,1-4.23.85,10,10,0,0,1,0-3.5c.23-1.12,1.32-1.38,2.34-1.24a2,2,0,0,1,1.93,2,5.16,5.16,0,0,1-1.23-.67,1.17,1.17,0,0,0-2,.19,2.39,2.39,0,0,0,0,2.88c.63.91,1.34.92,2.08.1A4.66,4.66,0,0,1,63,41Z"/><path class="cls-1" d="M81.4,40.29c.2-1.47,1-1.64,1.84-1.58s1.52.35,1.57,1.37.14,2,.19,2.84c-.77.1-1.49.2-2.2.26A1.56,1.56,0,0,1,81,42c-.19-.65.58-1.37,1.46-1.49a2,2,0,0,0,1.21-.34.77.77,0,0,0-.15-.56,2.29,2.29,0,0,0-1,0A5.71,5.71,0,0,0,81.4,40.29Zm2.25.65-1.56.83c.21.2.41.55.63.57C83.38,42.4,83.78,42.06,83.65,40.94Z"/><path class="cls-1" d="M6.09,43v-4a9.79,9.79,0,0,1,2.45-.17,1.74,1.74,0,0,1,1.21,1.07,9.57,9.57,0,0,1,.06,2.78c0,.22-.49.4-.76.6L8.77,43a19.68,19.68,0,0,0,0-2.43c0-.34-.42-.65-.64-1-.31.3-.78.56-.89.93a5.85,5.85,0,0,0-.06,1.78C7.18,43.1,6.81,43.22,6.09,43Z"/><path class="cls-1" d="M49.53,39.68c.25-.23.47-.61.75-.65a5.27,5.27,0,0,1,2.13,0c.31.09.56.81.64,1.28.13.89.13,1.81.17,2.58-.67.08-1.29.13-1.89.25a1.76,1.76,0,0,1-2-1c-.15-.74.41-1.36,1.42-1.54a2.12,2.12,0,0,0,.44,0,3.31,3.31,0,0,0,.82-.41c.05,0-.1-.52-.21-.54a2.65,2.65,0,0,0-1,0,7.59,7.59,0,0,0-1.08.43ZM52,41l-1.65.73c.18.23.33.62.54.66C51.66,42.49,52.09,42.14,52,41Z"/><path class="cls-1" d="M67.76,41c0,1.48-.72,2.23-2.09,2.2a2.14,2.14,0,0,1-2-2.25,2.1,2.1,0,0,1,2.1-2.24C67.12,38.72,67.77,39.47,67.76,41Zm-.68-.09c-.57-.58-.89-1.21-1.3-1.27-.93-.13-1,.67-1,1.37s.15,1.43,1,1.26C66.21,42.17,66.53,41.5,67.08,40.9Z"/><path class="cls-1" d="M86.24,43V39c.65-.08,1.23-.14,1.81-.24a1.29,1.29,0,0,1,1.67,1.18,20.12,20.12,0,0,1,0,2.69c0,.17-.27.33-.42.49-.14-.18-.38-.34-.39-.53,0-.67,0-1.35-.06-2,0-.33-.44-.61-.68-.92-.29.28-.74.52-.83.86a5.88,5.88,0,0,0-.07,1.78C87.32,43,87.05,43.24,86.24,43Z"/><path class="cls-1" d="M43.42,40.93c0,1.46-.66,2.23-1.92,2.22a2.21,2.21,0,0,1,0-4.41C42.74,38.72,43.41,39.47,43.42,40.93Zm-2.94,0c-.06.78.26,1.48,1.06,1.29a1.83,1.83,0,0,0,1.05-1.4,1.67,1.67,0,0,0-1.08-1.24C40.66,39.47,40.43,40.2,40.48,41Z"/><path class="cls-1" d="M55.52,37.3c0,1.22,0,2.48,0,3.74a9.78,9.78,0,0,0,.18,1.19c0,.27.07.55.1.83-.32-.06-.74,0-.93-.21a1.62,1.62,0,0,1-.36-1c0-1.3,0-2.61,0-3.91C54.47,37.24,54.72,37,55.52,37.3Z"/><path class="cls-1" d="M37.35,40c0-.71,0-1.42,0-2.13,0-.24.32-.45.49-.68.14.22.39.43.4.66.05,1.08,0,2.17,0,3.25a5.1,5.1,0,0,0,.19,1.08,7.07,7.07,0,0,0,.24.74c-.2.05-.46.19-.59.11-.29-.17-.69-.42-.72-.68a18.4,18.4,0,0,1,0-2.35Z"/></g></g></svg>