<svg xmlns="http://www.w3.org/2000/svg" viewBox="0 0 400 400"><defs><style>.cls-1{fill:#fff;}.cls-2{fill:none;}</style></defs><title>Asset 102</title><g id="Layer_2" data-name="Layer 2"><g id="Layer_1-2" data-name="Layer 1"><path class="cls-1" d="M166.9,218.46H146.64a18.52,18.52,0,0,1-7.13-1.35,17,17,0,0,1-5.68-3.78,17.35,17.35,0,0,1-3.75-5.75,20.3,20.3,0,0,1,0-14.56,17.46,17.46,0,0,1,3.75-5.75,17,17,0,0,1,5.68-3.78,19.37,19.37,0,0,1,14.21,0,17.11,17.11,0,0,1,5.67,3.77,17.35,17.35,0,0,1,3.75,5.75,19.07,19.07,0,0,1,1.35,7.26,17.89,17.89,0,0,1-2.07,8.57,15.9,15.9,0,0,1-6.23,6.27v.1H166.9ZM132.53,200.3a16.54,16.54,0,0,0,1,5.68,14.74,14.74,0,0,0,2.77,4.76,13.07,13.07,0,0,0,4.43,3.29,13.82,13.82,0,0,0,5.93,1.23,13.68,13.68,0,0,0,5.87-1.23,13.28,13.28,0,0,0,4.46-3.29,15,15,0,0,0,2.82-4.76,16.63,16.63,0,0,0,0-11.36,15.16,15.16,0,0,0-2.82-4.76,13.28,13.28,0,0,0-4.46-3.29,13.68,13.68,0,0,0-5.87-1.23,13.82,13.82,0,0,0-5.93,1.23,13.07,13.07,0,0,0-4.43,3.29,14.85,14.85,0,0,0-2.77,4.76A16.54,16.54,0,0,0,132.53,200.3Z"/><path class="cls-1" d="M189.6,218.46q-.09-1-.15-2.1c0-.77,0-1.4,0-1.9h-.1a7.69,7.69,0,0,1-3.25,3.32,9.49,9.49,0,0,1-4.75,1.28c-3,0-5.19-.89-6.68-2.65a10.58,10.58,0,0,1-2.22-7V195.05h3.4V208a17.09,17.09,0,0,0,.3,3.35,7.12,7.12,0,0,0,1,2.58,5,5,0,0,0,1.95,1.68,7,7,0,0,0,3.08.6,6.7,6.7,0,0,0,2.63-.55,6.52,6.52,0,0,0,2.27-1.68,8.32,8.32,0,0,0,1.6-2.85,12.44,12.44,0,0,0,.6-4.08v-12h3.4V213.3c0,.64,0,1.46,0,2.46s.09,1.9.15,2.7Z"/><path class="cls-1" d="M205.81,186a2.23,2.23,0,0,1-.75,1.73,2.34,2.34,0,0,1-3.3,0,2.36,2.36,0,0,1,0-3.45,2.34,2.34,0,0,1,3.3,0A2.21,2.21,0,0,1,205.81,186Zm-.7,32.42h-3.4V195.05h3.4Z"/><path class="cls-1" d="M231,200.4a6.51,6.51,0,0,0-2.48-2.23,7.34,7.34,0,0,0-3.52-.87,9.2,9.2,0,0,0-3.71.72,8.3,8.3,0,0,0-2.82,2,8.59,8.59,0,0,0-1.8,3,10.76,10.76,0,0,0-.63,3.72,10.53,10.53,0,0,0,.63,3.7,9,9,0,0,0,1.77,3,8.1,8.1,0,0,0,2.8,2,9.2,9.2,0,0,0,3.71.73,7.9,7.9,0,0,0,3.8-.85,7.79,7.79,0,0,0,2.55-2.21l2.55,1.91a11.29,11.29,0,0,1-3.68,3,11.49,11.49,0,0,1-5.22,1.1,13.67,13.67,0,0,1-5.16-.93,11.28,11.28,0,0,1-3.92-2.57,11.62,11.62,0,0,1-2.53-3.91,13.79,13.79,0,0,1,0-9.8,11.57,11.57,0,0,1,2.53-3.9,11.44,11.44,0,0,1,3.92-2.58,13.87,13.87,0,0,1,5.16-.92,12.27,12.27,0,0,1,4.77,1,9.43,9.43,0,0,1,3.93,3Z"/><path class="cls-1" d="M242.67,205.6h.15l10.81-10.55h4.9l-11.81,10.7,13,12.71h-5l-11.91-12.31h-.15v12.31h-3.4V180.64h3.4Z"/><path class="cls-1" d="M282,188.75a8.66,8.66,0,0,0-3-2.58,9.06,9.06,0,0,0-4.36-1,9.58,9.58,0,0,0-2.65.4,7.84,7.84,0,0,0-2.45,1.23,6.27,6.27,0,0,0-1.77,2.08,6.09,6.09,0,0,0-.68,2.95,5.5,5.5,0,0,0,.65,2.8,6,6,0,0,0,1.72,1.87A9.91,9.91,0,0,0,272,197.8c.92.33,1.87.67,2.87,1,1.23.4,2.47.83,3.72,1.3a13.48,13.48,0,0,1,3.37,1.83,8.89,8.89,0,0,1,2.44,2.85,9,9,0,0,1,.95,4.37,9.39,9.39,0,0,1-3.64,7.76,11,11,0,0,1-3.69,1.85,15,15,0,0,1-4.18.6,15.88,15.88,0,0,1-3.2-.33,14.86,14.86,0,0,1-3.05-1,12.85,12.85,0,0,1-2.7-1.65,12.29,12.29,0,0,1-2.2-2.3l3.1-2.31A9.46,9.46,0,0,0,269,215a9.12,9.12,0,0,0,4.87,1.28,9.54,9.54,0,0,0,2.75-.43,7.69,7.69,0,0,0,2.53-1.3,7.11,7.11,0,0,0,1.85-2.15,6.63,6.63,0,0,0,0-6,6.37,6.37,0,0,0-1.92-2.05,11.87,11.87,0,0,0-2.76-1.38c-1-.37-2.11-.73-3.25-1.1s-2.31-.78-3.45-1.25a11.83,11.83,0,0,1-3.05-1.83,8.49,8.49,0,0,1-2.17-2.77,9,9,0,0,1-.83-4,8.86,8.86,0,0,1,1-4.4,9.19,9.19,0,0,1,2.67-3.06,11.3,11.3,0,0,1,3.65-1.75,15.16,15.16,0,0,1,3.95-.55,13.67,13.67,0,0,1,6.16,1.28,10.64,10.64,0,0,1,3.85,3Z"/><path class="cls-1" d="M314.2,206.05v.75c0,.27,0,.55-.05.85H294.74a9.1,9.1,0,0,0,.7,3.3,8.24,8.24,0,0,0,1.8,2.71,8.86,8.86,0,0,0,2.7,1.82,8.91,8.91,0,0,0,7.93-.55,9.26,9.26,0,0,0,2.93-2.83l2.55,2a12.75,12.75,0,0,1-4.63,3.8,13,13,0,0,1-5.43,1.15,12.36,12.36,0,0,1-4.82-.93,11.18,11.18,0,0,1-3.83-2.57,12.07,12.07,0,0,1-2.52-3.91,12.69,12.69,0,0,1-.93-4.9,13.1,13.1,0,0,1,.9-4.9,11.81,11.81,0,0,1,2.5-3.9,11.63,11.63,0,0,1,3.75-2.58,11.8,11.8,0,0,1,4.65-.92,12.07,12.07,0,0,1,4.86.92,10.1,10.1,0,0,1,3.5,2.5,10.75,10.75,0,0,1,2.12,3.68A13.53,13.53,0,0,1,314.2,206.05Zm-3.45-1.1a8.46,8.46,0,0,0-2.13-5.48A7.21,7.21,0,0,0,303,197.3a8,8,0,0,0-3.15.62,8.68,8.68,0,0,0-2.55,1.7,8.5,8.5,0,0,0-1.75,2.46,8,8,0,0,0-.75,2.87Z"/><path class="cls-1" d="M325,218.46h-3.4V180.64H325Z"/><path class="cls-1" d="M337.61,218.46h-3.4V180.64h3.4Z"/><path id="d" class="cls-1" d="M82.26,198.43h6.29v6.83H82.26Z"/><path id="e" class="cls-1" d="M91.38,193.32h11.16V205.2H91.38Z"/><path class="cls-1" d="M91.28,171.12A28.88,28.88,0,1,0,120.16,200,28.89,28.89,0,0,0,91.28,171.12Zm-21,20.55H75v1.06H70.26Zm5,4.08H67.32v-1h7.93Zm11.55,23a4.35,4.35,0,1,1,4.35-4.35A4.35,4.35,0,0,1,86.8,218.78Zm10.45,0a4.35,4.35,0,1,1,4.34-4.35A4.35,4.35,0,0,1,97.25,218.78Zm13.54-28.67-5.64,15.58a1.77,1.77,0,0,1-1.67,1.17H79.66a1.77,1.77,0,0,1-1.75-1.51l-2.33-15.59a1.76,1.76,0,0,1,1.49-2,1.14,1.14,0,0,1,.26,0h31.79a1.78,1.78,0,0,1,1.78,1.77A1.83,1.83,0,0,1,110.79,190.11Z"/><rect class="cls-2" width="400" height="400"/></g></g></svg>