<svg xmlns="http://www.w3.org/2000/svg" viewBox="0 0 309.04 105.35"><defs><style>.cls-1{fill:#e31f27;}.cls-2{fill:#fdfdfd;}</style></defs><title>Asset 62</title><g id="Layer_2" data-name="Layer 2"><g id="Layer_1-2" data-name="Layer 1"><path class="cls-1" d="M47.4,74.12h0Z"/><path class="cls-1" d="M309,71.32v0Z"/><path class="cls-1" d="M309,73.35v0Z"/><polygon class="cls-1" points="308.98 0.63 308.98 0.67 309.04 0.65 308.98 0.63"/><path class="cls-2" d="M145.49,37.14c0-5.8,0-11.6,0-17.4,0-.86-.17-1.21-1.11-1.16-1.47.08-3,0-4.44,0-.68,0-.91-.23-.91-.89q0-5.94,0-11.88c0-.69.28-.88.94-.88q11,0,22.07,0c.93,0,.89.48.89,1.13,0,7.68,0,15.36,0,23,0,1.08.27,1.35,1.32,1.32q3.9-.12,7.8,0c1,0,1.35-.15,1.34-1.27-.06-7.6,0-15.2-.05-22.8,0-1,.18-1.43,1.35-1.42q10.61.09,21.23,0c1,0,1.36.27,1.34,1.33-.06,3.76-.05,7.52,0,11.28,0,.88-.28,1.1-1.09,1.07-1.48-.06-3,0-4.44,0-.68,0-.88.23-.87.9q0,17.58,0,35.15c0,.66.18.91.88.89,1.56-.05,3.12,0,4.68,0,.62,0,.84.21.83.83q0,6.06,0,12.12c0,.59-.21.74-.77.74-7.43,0-14.87,0-22.31,0-.92,0-.8-.51-.8-1.07,0-7.52,0-15,0-22.55,0-1.17-.29-1.47-1.44-1.42-2.47.09-5,.09-7.43,0-1.2,0-1.61.22-1.59,1.53.07,7.43,0,14.87.05,22.31,0,.91-.2,1.21-1.17,1.2q-10.8-.06-21.59,0c-1,0-1.18-.29-1.17-1.2.05-3.76.06-7.52,0-11.28,0-1,.33-1.28,1.29-1.23,1.35.08,2.72,0,4.07,0,.9,0,1.15-.22,1.14-1.12,0-5.76,0-11.52,0-17.27Z"/><path class="cls-2" d="M134.65,37.26c0,6.72.09,13.44,0,20.15-.08,4.72-1.91,8.55-6.44,10.63a13.21,13.21,0,0,1-5.47,1.13q-19.2,0-38.39,0c-.84,0-1.07-.22-1.06-1.06,0-3.84,0-7.68,0-11.52,0-.83.21-1.12,1.07-1.07,1.35.07,2.72,0,4.08,0,.66,0,.89-.16.89-.85q0-17.7,0-35.39c0-.65-.23-.81-.84-.8-1.47,0-2.95,0-4.43,0-.56,0-.76-.15-.76-.74q0-6,0-12c0-.69.22-.88.89-.88,13,0,26-.06,39,.07,7.12.08,11.4,4.61,11.48,11.85.07,6.8,0,13.6,0,20.4Zm-17.51-.2c0-5.84,0-11.68,0-17.51,0-.75-.16-1-1-1q-4.2.07-8.4,0c-.8,0-1,.24-1,1q0,17.52,0,35c0,.89.32,1,1.1,1,2.72,0,5.44-.06,8.16,0,.91,0,1.13-.25,1.12-1.13C117.13,48.65,117.14,42.86,117.14,37.06Z"/><path class="cls-2" d="M224.93,5c7.68,0,15.36,0,23,0,1,0,1.26.27,1.25,1.26-.05,5.88,0,11.76,0,17.64,0,.9-.22,1.15-1.13,1.14q-5.76-.07-11.52,0c-.82,0-1.14-.19-1.1-1.06.07-1.48,0-3,0-4.44,0-.7-.24-.88-.9-.87-3.12,0-6.24,0-9.36,0-.65,0-.93.15-.92.87,0,3.28,0,6.56,0,9.84,0,.83.38.89,1,.88,3.68,0,7.36,0,11,0,1,0,1.29.18,1.27,1.22q-.1,5.64,0,11.28c0,1-.18,1.36-1.28,1.33-3.64-.08-7.28,0-10.92-.05-.9,0-1.14.22-1.13,1.13.06,3.11.05,6.24,0,9.35,0,.91.29,1.16,1.16,1.12,1.48-.07,3,0,4.44,0,.68,0,1,.11,1,.9,0,4-.05,7.92,0,11.88,0,.79-.28.91-1,.91q-14.4,0-28.8,0c-.83,0-1-.3-1-1,0-3.88.05-7.76,0-11.64,0-.88.29-1.06,1.09-1,1.6,0,3.2,0,4.8,0,.68,0,.88-.21.88-.89q0-17.56,0-35.15c0-.67-.17-.92-.87-.9-1.44,0-2.89-.07-4.32,0-1.11.08-1.32-.34-1.31-1.36q.09-5.58,0-11.16c0-1,.31-1.18,1.22-1.18C209.41,5,217.17,5,224.93,5Z"/><path class="cls-2" d="M278.66,69.18c-7.75,0-15.51,0-23.27,0-1,0-1.25-.27-1.23-1.26.06-3.8,0-7.6,0-11.4,0-.84.23-1.1,1.08-1.06,1.23.08,2.48,0,3.71,0,.7,0,1-.15,1-.93q0-17.51,0-35c0-.83-.3-1-1.05-1-1.28.05-2.56,0-3.84,0-.56,0-.87-.07-.86-.76q0-6.06,0-12.12c0-.66.26-.79.85-.79h27.36c.61,0,.84.15.83.8q0,6.06,0,12.12c0,.57-.2.76-.77.75-1.44,0-2.88,0-4.32,0-.68,0-.88.21-.88.89q0,17.58,0,35.16c0,.66.19.9.88.89,2.16,0,4.32-.05,6.48,0,.74,0,1-.23.95-1,0-2.88,0-5.76,0-8.64,0-.85.18-1.17,1.12-1.16q7.62.07,15.24,0c1,0,1.2.3,1.19,1.22q0,11,0,22.08c0,.9-.23,1.14-1.13,1.13C294.18,69.16,286.42,69.18,278.66,69.18Z"/><path class="cls-2" d="M76.19,28.35a39.74,39.74,0,0,0-5.27-12,36.9,36.9,0,0,0-7.77-8.3,17.23,17.23,0,0,0-3-2.21c-3-1.54-5.8-3.42-9.22-4.09-1.65-.32-3.26-1-5-1.23-.35-.05-.62-.13-.74-.48Q23.11,0,1,0C.17,0,0,.27,0,1,0,9.18,0,17.34,0,25.5c0,.29-.13.63.15.91A3.15,3.15,0,0,0,1.4,25.7q4.84-3.51,9.69-7c.51-.37.91-.59,1.56-.11,4.33,3.2,8.72,6.34,13.06,9.54A22,22,0,0,1,29,30.64c-1.77,0-3.33.06-4.87,0-1-.05-1.26.31-1.25,1.29,0,4.68,0,9.36,0,14,0,1-.25,1.34-1.32,1.33-6.8-.06-13.6,0-20.4-.05C.35,47.22,0,47.39,0,48.4Q.06,60.76,0,73.11c0,.83.2,1.1,1.06,1.07,2.12-.06,4.24,0,6.36,0l38.63,0c.52-1,1.59-.88,2.37-1a23.9,23.9,0,0,0,6.88-2.22,32.87,32.87,0,0,0,9.55-6.38,70.6,70.6,0,0,0,5.31-5.77,30.77,30.77,0,0,0,4.41-7.85,34.88,34.88,0,0,0,2.65-12.07A39.2,39.2,0,0,0,76.19,28.35ZM43,39.79c-1.7,0-1.7,0-1.7,1.75s0,3.2,0,4.8c0,.8-.24,1-1,1q-5.1-.06-10.2,0c-.81,0-1-.26-1-1,.05-1.72,0-3.44,0-5.16,0-1.06-.2-1.58-1.35-1.38a9.77,9.77,0,0,1-1.35,0,16.42,16.42,0,0,1,2.9-2.57c1.77-1.49,3.58-2.93,5.39-4.38.38-.31.74-.71,1.34-.22,2.84,2.31,5.71,4.59,8.7,7A4.28,4.28,0,0,1,43,39.79Z"/><path class="cls-2" d="M247.22,91.67c0-.29.05-.52.05-.76,0-.48.26-.59.7-.58s.55.22.54.59c0,3.56,0,7.12-.13,10.66a3.76,3.76,0,0,1-3.66,3.62c-1.92.23-3.79.19-5.14-1.5-.22-.27-.72-.59-.31-1s.84-.11,1.2.28a4.36,4.36,0,0,0,5,.78c1.4-.69,2-2.13,1.68-4.14a5,5,0,0,1-4.34,1.6c-2.56-.36-4-2.3-4.08-5.36a8.54,8.54,0,0,1,.21-2.14,4.53,4.53,0,0,1,7.64-2.46C246.71,91.43,246.81,91.68,247.22,91.67Zm-7.26,4c0,2.24.82,3.73,2.4,4.26a3.28,3.28,0,0,0,3.73-.86c1.5-1.63,1.41-3.58.79-5.51a3.14,3.14,0,0,0-2.81-2.28C241.55,91,240,92.68,240,95.64Z"/><path class="cls-2" d="M218.57,99.51c-1.54,1.37-3,2-4.81,1.67a4.48,4.48,0,0,1-3.64-4,7.89,7.89,0,0,1,.07-3.45c1-3.82,4.9-5,7.77-2.3.11.11.23.21.33.3.11-.07.19-.09.22-.14.26-.41-.31-1.29.62-1.27s.54.92.54,1.37c0,3.16.05,6.32-.06,9.48a3.68,3.68,0,0,1-2.85,3.83c-2.13.51-4.24.56-5.9-1.23-.34-.36-.91-1-.34-1.42s.95,0,1.33.56c.94,1.44,2.42,1.35,3.88,1.12a3.09,3.09,0,0,0,2.66-2.7A18.27,18.27,0,0,0,218.57,99.51Zm-7.34-4.26a5.85,5.85,0,0,0,.75,3.34,3.48,3.48,0,0,0,5.91-.21,5.63,5.63,0,0,0-.55-6.16,3.53,3.53,0,0,0-3.88-.74A3.79,3.79,0,0,0,211.23,95.25Z"/><path class="cls-2" d="M161.78,93.63a9.83,9.83,0,0,0,.49,3.18,4.85,4.85,0,0,0,9.15.31c.08-.18.15-.37.23-.55.25-.54.76-.46,1.15-.35.55.14.22.58.13.88a5.9,5.9,0,0,1-5.51,4.23c-3.22.17-5.4-1-6.35-3.6a10.8,10.8,0,0,1,.15-8.51c1.22-2.68,3.58-3.49,6.3-3.41a5.16,5.16,0,0,1,5.09,3.3c.16.4.69,1,0,1.29s-1-.12-1.23-.75c-.75-2-2.33-2.57-4.29-2.59a4.53,4.53,0,0,0-4.52,2.73A8.87,8.87,0,0,0,161.78,93.63Z"/><path class="cls-2" d="M195.55,96.08v2.77c0,.64-.12,1.35.9,1.3.24,0,.33.18.32.41a.48.48,0,0,1-.42.5c-.74.14-1.51.14-1.87-.64s-.55-.48-1-.16a5,5,0,0,1-5,.62,2.63,2.63,0,0,1-1.72-2.5,2.66,2.66,0,0,1,1.59-2.71,16.73,16.73,0,0,1,4.3-1c.64-.12,1.45,0,1.57-.92a2,2,0,0,0-1.14-2.28,3.26,3.26,0,0,0-4.46,1.63.74.74,0,0,1-.93.5c-.59-.08-.34-.49-.29-.83A2.8,2.8,0,0,1,188.52,91a5.88,5.88,0,0,1,5.59-.39,2.71,2.71,0,0,1,1.33,2C195.64,93.85,195.47,95.09,195.55,96.08Zm-1.31.69c-.19-.33.33-1.29-.38-1.16-1.59.3-3.3.11-4.76,1a1.84,1.84,0,0,0-.08,3.23A3.61,3.61,0,0,0,194.24,96.77Z"/><path class="cls-2" d="M288.71,96c-1,0-2.08.06-3.12,0s-1.07.36-.92,1.14a3.49,3.49,0,0,0,2.89,3,3.24,3.24,0,0,0,3.67-1.8.91.91,0,0,1,1.28-.48c.51.24,0,.68-.13,1a4.28,4.28,0,0,1-4.51,2.48,4.19,4.19,0,0,1-4.12-2.92,6.71,6.71,0,0,1,.86-6.59,4.75,4.75,0,0,1,5.52-1.35,5.43,5.43,0,0,1,2.8,5.06c-.06.53-.37.52-.74.52ZM288,94.93h0c.92,0,1.84,0,2.75,0,.7,0,.9-.24.77-.94A3.16,3.16,0,0,0,288,91.23a3.51,3.51,0,0,0-3.36,3c-.08.57.19.69.67.69C286.22,94.92,287.09,94.93,288,94.93Z"/><path class="cls-2" d="M298.86,90.08c2.09,0,3.46.83,3.83,2.37.08.31.4.75-.16.9-.37.09-.82.11-1-.4-.57-1.71-1.94-1.84-3.41-1.68a1.73,1.73,0,0,0-1.69,1.58,1.53,1.53,0,0,0,1.22,1.69c1.05.36,2.16.57,3.22.91,1.7.55,2.38,1.43,2.31,2.91a3,3,0,0,1-2.59,2.74c-2.52.58-4.67-.19-5.46-2-.18-.43-.75-1.07,0-1.41s1,.24,1.23.9c.59,2,4.22,1.88,5.14.77a1.54,1.54,0,0,0-.41-2.44,3.48,3.48,0,0,0-.87-.36c-.66-.18-1.32-.34-2-.47-2.33-.47-3.36-1.48-3.2-3.16S296.65,90.08,298.86,90.08Z"/><path class="cls-2" d="M177,91.47A2.64,2.64,0,0,0,178,91a3.84,3.84,0,0,1,4.27-.51,3.13,3.13,0,0,1,1.89,3.19c0,2.16,0,4.32,0,6.48,0,.39.09.83-.55.84s-.59-.39-.59-.8c0-1.84,0-3.68,0-5.52,0-2.46-.67-3.31-2.55-3.41-2.15-.12-3.18.76-3.5,3.44a46.26,46.26,0,0,0-.06,5.27c0,.44.17,1-.63,1s-.59-.61-.59-1q0-6.36,0-12.71c0-.48-.09-1,.68-1s.55.56.55,1C177,88.58,177,90,177,91.47Z"/><path class="cls-2" d="M200.11,91.44a1.58,1.58,0,0,0,.81-.44,4.11,4.11,0,0,1,4.38-.6,3.19,3.19,0,0,1,1.95,3.28c0,2.12,0,4.24,0,6.36,0,.43.08.91-.62.92s-.66-.51-.66-1c0-1.88,0-3.76,0-5.64,0-2.16-.63-3-2.29-3.11-2.27-.16-3.33.89-3.63,2.91a30.77,30.77,0,0,0-.07,4.19c0,.56,0,1.12,0,1.68,0,.4.17.93-.56.94s-.64-.55-.64-1c0-1.43,0-2.87,0-4.31s0-2.72,0-4.08c0-.43-.38-1.09.51-1.22S199.84,91.06,200.11,91.44Z"/><path class="cls-2" d="M228.93,91.57a4.46,4.46,0,0,1,4.56-1.34,3.14,3.14,0,0,1,2.45,3c0,2.28,0,4.55,0,6.83,0,.42.11.92-.61.88s-.55-.56-.55-1c0-1.83,0-3.67,0-5.51,0-2.4-.69-3.2-2.68-3.25a3.15,3.15,0,0,0-3.34,3.28c-.06,1.84,0,3.67,0,5.51,0,.47.11,1-.68.95s-.58-.51-.58-.92c0-2.83,0-5.67,0-8.5,0-.42-.36-1.1.53-1.2S228.58,91.08,228.93,91.57Z"/><path class="cls-2" d="M272.47,90.5c.9-.4,1.26-.06,1.55.73,1,2.66,2,5.29,3.1,8.24l2-5.13c.43-1.12.89-2.23,1.25-3.36a.83.83,0,0,1,1.19-.61c.59.23.13.69,0,1-1.13,3-2.3,5.94-3.43,8.92a.84.84,0,0,1-.95.67c-.47,0-.8-.08-1-.62C275,97.06,273.71,93.78,272.47,90.5Z"/><path class="cls-2" d="M257.54,93.41V87.18c0-.45-.15-1,.66-1s.81.37.81,1c0,3.83,0,7.66,0,11.5,0,.9.19,1.24,1.18,1.2,2-.08,3.91,0,5.86,0,.41,0,.95-.14.92.58s-.54.48-.89.48c-2.56,0-5.11,0-7.67,0-.74,0-.84-.33-.83-.94C257.56,97.8,257.55,95.6,257.54,93.41Z"/><path class="cls-2" d="M224.35,95.69V100c0,.44.05.9-.62.93s-.67-.4-.67-.86v-9c0-.44,0-.76.62-.78s.68.35.68.83c0,1.52,0,3,0,4.55Z"/><path class="cls-2" d="M269.06,95.56c0-1.48,0-3,0-4.43,0-.38-.11-.79.55-.81s.7.31.7.81q0,4.49,0,9c0,.49,0,.85-.69.83s-.56-.44-.56-.83Z"/><path class="cls-2" d="M270.45,87.3c.1.55-.14.79-.78.81-.86,0-.69-.54-.73-1s.12-.85.78-.86C270.57,86.2,270.44,86.74,270.45,87.3Z"/><path class="cls-2" d="M223.05,87.11c-.05-.55,0-.91.75-.9s.59.55.62,1,0,.93-.73.91S223.09,87.55,223.05,87.11Z"/><path class="cls-2" d="M110,93.71c2.6,1.82,1.09,4.83,2.15,7.12-1.28.38-1.73-.13-1.78-1.3s-.19-2.23-.34-3.33a2,2,0,0,0-2.14-1.84c-1.48,0-3,0-4.43,0-.69,0-.78.29-.76.86,0,1.63,0,3.27,0,4.91,0,.55,0,.89-.76.88s-.68-.34-.68-.83c0-4.35,0-8.7,0-13.06,0-.53,0-.9.74-.88,2,.06,4.08,0,6.11.07,3.11.17,4.54,2,4,4.93C111.91,92.19,111.65,92.5,110,93.71Zm-7.3-3.54v2.15c0,.37,0,.74.53.73a32.16,32.16,0,0,0,5.38-.16A2.6,2.6,0,0,0,110.73,90c0-1.38-.72-2.08-2.2-2.39a15.35,15.35,0,0,0-3.1-.15C102.72,87.43,102.72,87.44,102.71,90.17Z"/><path class="cls-2" d="M62.31,99.43a5.85,5.85,0,0,1-2.63,1.67,4.59,4.59,0,0,1-5.87-3.92,8.56,8.56,0,0,1,.17-3.8,4.56,4.56,0,0,1,7.38-2.25l.68.62c.32-.25.2-.55.2-.8,0-.46.18-.62.64-.62s.64.23.64.66c0,1.44,0,2.88,0,4.32a56.69,56.69,0,0,1-.12,6.11,3.84,3.84,0,0,1-3,3.64c-2.15.51-4.23.48-5.86-1.32-.31-.34-.85-.95-.4-1.32s1-.11,1.42.56c.87,1.41,2.36,1.3,3.77,1.12a3,3,0,0,0,2.71-2.64C62.2,100.92,62.21,100.36,62.31,99.43ZM55,95.72a10,10,0,0,0,.12,1.19c.43,2.17,1.82,3.34,3.78,3.22A3.7,3.7,0,0,0,62.2,96.5c.15-1.81,0-3.58-1.66-4.73a3.38,3.38,0,0,0-3.64-.15C55.37,92.43,55,93.88,55,95.72Z"/><path class="cls-2" d="M91,99.53a5.06,5.06,0,0,1-4.33,1.7c-2.48-.32-3.93-2-4.23-4.88a7.64,7.64,0,0,1,.28-3,4.57,4.57,0,0,1,7.75-1.92c.13.14.23.3.36.46.11-.13.18-.17.2-.23.22-.45-.42-1.37.66-1.33s.53.93.54,1.38c.06,2.72,0,5.44,0,8.16a8.19,8.19,0,0,1-.34,2.6c-.65,1.94-2.17,2.67-4.06,2.8s-3.52-.17-4.69-1.78c-.23-.31-.65-.81-.16-1.13a.8.8,0,0,1,1.2.36c.83,1.57,2.31,1.51,3.77,1.37a3.08,3.08,0,0,0,2.87-2.48A5.63,5.63,0,0,0,91,99.53Zm0-3.86c0-2.61-1.32-4.33-3.38-4.45a3.46,3.46,0,0,0-3.8,3c-.49,2.73.47,5,2.36,5.67a3.27,3.27,0,0,0,3.36-.62A4.47,4.47,0,0,0,91,95.67Z"/><path class="cls-2" d="M4,93.42c.07-.67.12-1.35.23-2,.76-5,5-6.23,8.62-5.35a4.88,4.88,0,0,1,3.63,3.49c.09.3.36.77-.17.9s-1,.22-1.17-.46c-.63-2.15-2.25-2.86-4.3-2.92A4.55,4.55,0,0,0,6,90.57,9.83,9.83,0,0,0,6.06,97a4.43,4.43,0,0,0,4.45,3.17,4.55,4.55,0,0,0,4.63-3.1,3.87,3.87,0,0,1,.26-.67c.3-.48.82-.28,1.18-.2s.18.49.08.78a6,6,0,0,1-6.17,4.34A5.67,5.67,0,0,1,4.55,97,12.19,12.19,0,0,1,4,93.42Z"/><path class="cls-2" d="M135.85,96h-3.36c-.49,0-.71.12-.67.68a3.58,3.58,0,0,0,2.61,3.36,3.36,3.36,0,0,0,4-1.66c.18-.31.27-.65.74-.64s1,0,.61.77a4.54,4.54,0,0,1-4.37,2.78,4.38,4.38,0,0,1-4.44-2.83,7.13,7.13,0,0,1,.12-5.48,4.72,4.72,0,0,1,5-2.88,4.55,4.55,0,0,1,3.87,4c.3,1.9.3,1.9-1.57,1.89h-2.52Zm-.63-1.07h0c.91,0,1.83,0,2.74,0s.84-.33.71-.94a3.18,3.18,0,0,0-3.46-2.76,3.54,3.54,0,0,0-3.28,3.08c-.08.53.1.61.54.6Z"/><path class="cls-2" d="M37.89,99.68a5.36,5.36,0,0,1-5,1.43,2.93,2.93,0,0,1-.22-5.7c1.26-.34,2.58-.51,3.87-.75.57-.11,1.27-.07,1.41-.84a1.93,1.93,0,0,0-.64-2A3.38,3.38,0,0,0,32.36,93c-.24.6-.6.76-1.08.58s-.21-.66-.11-1c.59-1.87,2.79-2.88,5.26-2.44a3,3,0,0,1,2.75,3.19c0,1.92,0,3.84,0,5.75,0,.59,0,1.17.88,1.08.29,0,.45.09.44.41a.51.51,0,0,1-.42.5C39.21,101.39,38.4,100.94,37.89,99.68Zm.1-3c.19-.94-.1-1.3-1.25-.9a11.37,11.37,0,0,1-2.35.31,3.56,3.56,0,0,0-1.78.62,1.82,1.82,0,0,0,.25,3.2A3.63,3.63,0,0,0,38,96.64Z"/><path class="cls-2" d="M146,90.06c2,0,3.42.79,3.93,2.3.11.31.48.81-.12,1a.75.75,0,0,1-1-.45,3,3,0,0,0-4-1.49,1.67,1.67,0,0,0-1.18,1.51,1.47,1.47,0,0,0,1.1,1.54c1.28.42,2.62.71,3.88,1.17a2.6,2.6,0,0,1,1.71,3.62,1.75,1.75,0,0,1-.22.43,4.68,4.68,0,0,1-4.42,1.56,3.55,3.55,0,0,1-3.38-2.43c-.13-.36-.48-.9.06-1.13s.91,0,1.19.62a3.26,3.26,0,0,0,4.61,1.48,1.67,1.67,0,0,0,1-1.64,1.49,1.49,0,0,0-1.12-1.4c-1.18-.37-2.39-.61-3.57-1a2.61,2.61,0,0,1-2.21-2.61C142.19,91.31,143.71,90.06,146,90.06Z"/><path class="cls-2" d="M20.71,91.87c1.5-1.65,3.05-2.16,4.88-1.61A2.93,2.93,0,0,1,27.87,93c.08,2.44.05,4.88.08,7.32,0,.48-.17.62-.63.61s-.6-.23-.6-.67q0-3,0-6c0-2-.63-2.88-2.12-3-2-.21-3.33.64-3.73,2.52a34.39,34.39,0,0,0-.17,5.74,5.89,5.89,0,0,0,0,.84c0,.48-.21.62-.65.62s-.6-.22-.6-.67q0-6.72,0-13.43c0-.42.07-.66.58-.67s.68.2.67.71C20.69,88.45,20.71,90,20.71,91.87Z"/><path class="cls-2" d="M122.18,99.58a4.47,4.47,0,0,1-4.54,1.56,3,3,0,0,1-2.62-3c-.1-2.39,0-4.8,0-7.2,0-.44.12-.62.61-.63s.62.3.62.74q0,3,0,6c0,2,.63,2.84,2.15,3a3.19,3.19,0,0,0,3.59-2.32c.45-1.53.18-3.1.24-4.65,0-.72,0-1.44,0-2.16,0-.45.14-.65.61-.66s.64.17.63.62c0,3.12,0,6.24,0,9.36,0,.43-.11.67-.6.66s-.68-.15-.64-.63C122.2,100.16,122.18,100,122.18,99.58Z"/><path class="cls-2" d="M43.75,91.8a4.63,4.63,0,0,1,3.79-1.74A3.39,3.39,0,0,1,51,93.48c.06,2.19,0,4.39,0,6.59,0,.43.15.89-.59.88s-.68-.35-.67-.84c0-2,0-3.92,0-5.87s-.6-2.79-2-3a3.13,3.13,0,0,0-3.77,2.33,6.11,6.11,0,0,0-.2,1.65c0,1.68,0,3.35,0,5,0,.4,0,.71-.55.71s-.68-.1-.68-.58c0-3.16,0-6.31,0-9.47,0-.37.09-.59.54-.58s.72,0,.68.55A8.83,8.83,0,0,0,43.75,91.8Z"/><path class="cls-2" d="M72.62,91.63a4.42,4.42,0,0,1,4.76-1.36,3.09,3.09,0,0,1,2.29,2.9c.07,2.35,0,4.71,0,7.07,0,.39,0,.72-.54.72s-.67-.23-.66-.73c0-1.92,0-3.84,0-5.76,0-2.3-.63-3.15-2.42-3.23a3.15,3.15,0,0,0-3.58,3.15c-.1,1.83,0,3.67,0,5.51,0,.45.18,1-.6,1.06s-.59-.59-.59-1c0-2.8,0-5.6,0-8.39,0-.41-.42-1.1.48-1.21S72.3,91.09,72.62,91.63Z"/><path class="cls-2" d="M126.56,93.53c0-2.16,0-4.31,0-6.47,0-.45,0-.86.65-.86s.66.36.66.83q0,6.54,0,13.06c0,.45.08.89-.63.88s-.68-.47-.68-1C126.57,97.84,126.56,95.69,126.56,93.53Z"/><path class="cls-2" d="M68.09,95.81c0,1.44,0,2.87,0,4.31,0,.48,0,.84-.66.84s-.64-.42-.64-.87c0-3,0-5.9,0-8.85,0-.4-.16-.89.58-.91s.7.46.7.94Z"/><path class="cls-2" d="M66.77,87.08c-.07-.51,0-.88.71-.88s.69.45.67.94.14,1-.66,1S66.76,87.61,66.77,87.08Z"/></g></g></svg>