<svg xmlns="http://www.w3.org/2000/svg" viewBox="0 0 240.47 38.71"><defs><style>.cls-1{fill:#fcfdfd;}.cls-2{fill:#fdfdfd;}.cls-3{fill:#fcfcfd;}.cls-4{fill:#fbfcfc;}</style></defs><title>Asset 64</title><g id="Layer_2" data-name="Layer 2"><g id="Layer_1-2" data-name="Layer 1"><path class="cls-1" d="M197.37,12.32c-3,3.86-5.48,7.15-8.12,10.29-1.13,1.35-1.08,2.24,0,3.58,3.06,3.73,6,7.6,9.39,12-3.48,0-6.24,0-9,0-1.34,0-1.84-1-2.49-1.83-2.52-3.19-5-6.4-8.18-10.41,0,3.84-.13,6.71,0,9.57.14,2.21-.72,2.72-2.79,2.71-5.47,0-5.47.07-5.47-5.52,0-10,.09-19.94-.06-29.91,0-2.72.92-3.09,3.23-2.51,3.62.92,5,2.44,5,6.47.08,5,0,10,0,15.42,2.7-2.14,4.3-4.67,6-7,1.53-2.16,3.21-3.21,5.91-2.87A56.86,56.86,0,0,0,197.37,12.32Z"/><path class="cls-1" d="M105.18,16.23c0-4.65.07-9.31,0-14,0-1.93.62-2.45,2.47-2.15,4.16.68,5.7,2.52,5.75,7.18,0,4.29,0,4.46,4.23,4.26,2.5-.11,3.1.68,3,3.07-.17,4.61,0,4.7-4.86,4.72-1.76,0-2.58.39-2.41,2.32.15,1.72,0,3.46,0,5.19.06,4,.62,4.45,4.6,4.38.89,0,2.83-1.19,2.49,1.06-.29,1.94,1.73,4.75-1.65,5.74a15.74,15.74,0,0,1-8.66.07c-2.91-.8-4.35-3-4.69-6a14.45,14.45,0,0,1-.2-1.61q0-7.14,0-14.28Z"/><path class="cls-2" d="M157.88,38.67c-3.84-.13-7-.8-9.81-2.6-1.32-.83-1.75-1.55-.55-3,1.68-2,3-4.49,5.93-1.58a3.58,3.58,0,0,0,1.78.75c1.79.34,4.08,1,4.83-1.19.9-2.64-1.72-2.7-3.36-3.26-1.22-.43-2.5-.72-3.72-1.15-2.74-1-4.67-2.75-5.07-5.76a7.64,7.64,0,0,1,3.34-7.62c4.13-3,12.31-2.65,16.3.5,1,.79,1.12,1.32.32,2.33-1.65,2.1-3,4.73-6.18,1.91a2.2,2.2,0,0,0-1.21-.44c-1.69-.16-3.94-.82-4.56,1.23-.75,2.51,1.87,2.34,3.36,2.88,1.22.45,2.51.68,3.73,1.13,3.19,1.18,5.34,3.29,5.54,6.88a8.17,8.17,0,0,1-5.18,7.92A15.66,15.66,0,0,1,157.88,38.67Z"/><path class="cls-3" d="M223.65,25.18c0-3.46.07-6.93,0-10.4,0-1.73.42-2.88,2.33-2.39,2.11.54,5-1.73,6.47,1.63A19.73,19.73,0,0,1,235.25,13c1.58-.27,3.58-2.27,4.69.07,1.36,2.86-.08,6.25-2.39,7-3.63,1.24-5.48,3.66-5.57,7.48-.06,2.82-.08,5.64,0,8.45.06,1.71-.6,2.17-2.26,2.23-6.09.22-6.09.29-6.09-5.89Z"/><path class="cls-1" d="M86.85,25.14c0-3.57.05-7.14,0-10.71,0-1.49.5-2.52,2-2,2.15.73,5.19-2,6.58,1.68.15.39.74,0,1.09-.2a6.34,6.34,0,0,1,1.14-.63c1.68-.64,4-2.08,5.08-.9,1.39,1.48.5,4.12.48,6.26,0,1.17-1.22,1.05-2,1.31-4.41,1.57-6,3.74-6,8.45,0,1.4,0,2.81,0,4.22,0,5.8-1.13,6.65-6.92,5.62-1.64-.3-1.44-1.31-1.45-2.36C86.84,32.29,86.85,28.72,86.85,25.14Z"/><path class="cls-3" d="M76.13,24.76c0-3.67.08-7.34,0-11-.06-1.79.63-2.2,2.28-2.05,4.09.38,6.11,2.29,6.18,6.43.1,5.94,0,11.89,0,17.83,0,1.67-.55,2.2-2.24,2.27-6.24.27-6.24.34-6.24-6C76.12,29.73,76.12,27.25,76.13,24.76Z"/><path class="cls-4" d="M84.88,4.62a4.55,4.55,0,0,1-4.66,4.75A4.68,4.68,0,0,1,75.65,4.8,4.78,4.78,0,0,1,80.37,0,4.66,4.66,0,0,1,84.88,4.62Z"/><path class="cls-2" d="M73.64,35.73C69.39,24.61,65.15,13.49,61.15,2.28,60.05-.81,57.86.21,55.88.05s-3.42-.12-4.25,2.29c-2.49,7.27-5.07,14.52-8.08,21.58-1,2.49-.26,6.57-4.27,7.1A19.48,19.48,0,0,1,30,30c-4-1.47-5.89-3.76-5.68-8,.15-2.89-.93-3.26-3.47-3.28-7.38-.07-12.21-4.4-13.15-11.57,7.71,0,15.39.17,23.06-.05,5.35-.16,9.74.81,11.57,7.72.79-1.95,1.12-2.73,1.42-3.53C46.08,5.06,44.41,2,37.83.59A14.66,14.66,0,0,0,34.62.11C23.78.06,12.94.08,2.1,0,.79,0,.24.34.11,1.81c-1,11.27,4.68,19.94,15.5,23.28A3,3,0,0,1,18,27.27c1.76,5.26,5.66,8.28,10.86,9.81,4.55,1.35,9.24.81,13.87,1.17,3.43.26,5.33-.75,5.79-4.22.31-2.39,1.73-3.11,4.07-2.92a53.44,53.44,0,0,0,7.8,0c2-.14,3.14.53,3.39,2.47.5,3.89,2.69,5.29,6.44,4.59a4.89,4.89,0,0,1,1.62,0C74,38.47,74.43,37.81,73.64,35.73ZM57.5,23.31c-6.13-.1-5.13.17-3.5-4.61.62-1.81,1.25-3.61,2.19-6.35,1.24,3.49,2.09,6,3.05,8.56C59.93,22.71,59.54,23.35,57.5,23.31Z"/><path class="cls-2" d="M208.37,11.55c-8.79.24-14.51,7.44-12.91,16.49a11.88,11.88,0,0,0,9.44,10c5.41,1.32,10.57.79,14.7-3.56.39-.41,1.26-.93.48-1.54a43.65,43.65,0,0,0-4.32-2.86c-1.35-.82-1.88.66-2.74,1.13-3,1.64-7,1-8.83-1.52-.42-.59-1.1-1.24-.66-2s1.16-.33,1.77-.34c2.28,0,4.55,0,6.83,0,2.49,0,5,0,7.48,0,1.2,0,2-.1,2.1-1.68C222.33,17.52,216.54,11.32,208.37,11.55Zm5.24,9.84c-.37,1-1.29.53-2,.58-1.08.07-2.17,0-3.25,0a12.67,12.67,0,0,1-1.95,0c-1-.16-2.55.65-2.89-.56s.91-2.32,2-3.08c2.47-1.72,6.14-1.23,7.55.94A2.34,2.34,0,0,1,213.61,21.39Z"/><path class="cls-2" d="M144.7,28.15c0-2.27.05-4.55,0-6.83-.13-5.76-2.91-9.06-8.6-10A16.41,16.41,0,0,0,125.38,13c-.9.49-3.25.93-1.83,2.52,1.27,1.42,1.5,5.18,5,3.32a8.73,8.73,0,0,1,5.57-1.35,2.93,2.93,0,0,1,2.52,3.28c0,1.77-1.6,1-2.51,1.08a23,23,0,0,0-5.77.82c-3.94,1.43-6.12,4.54-5.78,8.4.32,3.61,2.67,5.87,6.92,6.59,4.41.75,8.87.38,13.31.49,1.39,0,1.94-.5,1.9-1.89C144.66,33.58,144.7,30.86,144.7,28.15Zm-10.14,4.57c-1.75-.21-3.71-.17-3.68-2.63s2-2.65,3.9-2.85c2.32-.25,2.05,1.25,2,2.74C136.93,31.54,136.94,33,134.56,32.72Z"/></g></g></svg>