<svg xmlns="http://www.w3.org/2000/svg" viewBox="0 0 400 400"><defs><style>.cls-1{fill:#fff;}.cls-2{fill:#afafaf;}.cls-3{fill:none;}</style></defs><title>Asset 117</title><g id="Layer_2" data-name="Layer 2"><g id="Layer_1-2" data-name="Layer 1"><path class="cls-1" d="M137.11,212c-4.9,3.8-10.38,4.63-16.17,4-6.19-.65-10.09-4.6-10.79-10.32s2.94-11.54,8.39-12.87c4.33-1.06,8.76-1.23,13.08-2.19,2.62-.59,5.44-1,5.2-4.73-.19-3.11-2-4.58-6-4.72-4.61-.16-6.23.78-8,4.78-.29.67-.5,1.26-1.28,1.26-3,0-6,.11-9-.07-1.83-.11-1.08-1.75-.92-2.62,1-5.49,4.95-8.57,9.85-9.77a37.83,37.83,0,0,1,18.64,0c5.4,1.41,7.86,5,8,10.75.24,9.4-.9,18.85.87,28.19.26,1.36-.25,1.5-1.29,1.49-2.66,0-5.32-.08-8,0C137.61,215.27,137.94,213.41,137.11,212Zm-9.19-3.38c5.68,0,8.56-2.63,8.93-8.29.27-4.08.27-4.07-3.93-3.31-2,.37-4.14.57-6.17,1-4,.92-5.68,3-5.27,6.34C121.82,207.16,123.94,208.56,127.92,208.58Z"/><path class="cls-1" d="M272.16,216.13c-6.44,0-11.87-.74-16.07-5.09a12.11,12.11,0,0,1-1.83-2.34c-1.11-1.94-2.39-4.27-1.36-6.21.78-1.47,3.26-.51,5-.57,2.6-.08,5-.74,6.31,3.2,1.34,4.16,10.49,4.74,13.44,1.36,2.07-2.38.73-5.77-2.55-6.61-4.11-1-8.23-2-12.28-3.28-6.8-2.09-9.48-5.12-9.44-10.33,0-6.17,3.11-10.12,10-11.81,6.68-1.63,13.39-1.69,19.62,1.92a10.55,10.55,0,0,1,3,2.54c1.59,2,3.39,4.52,2.35,6.91-.79,1.81-3.6.64-5.5.73-2.27.1-4.47.58-5.71-2.71-1.16-3.09-8.82-3.74-11.34-1.42-1.76,1.62-1.59,3.35.2,4.81a11.15,11.15,0,0,0,4.84,2.06,82.14,82.14,0,0,1,11.55,2.94c4.14,1.56,7.12,4.1,7.51,8.77.44,5.27-1.33,9.58-6,12.37A21.64,21.64,0,0,1,272.16,216.13Z"/><path class="cls-1" d="M210,174.81c3,.16,4-1,4.05-4.21,0-6.41,4.3-10.55,10.81-11.23a24.83,24.83,0,0,1,3-.06c6.32.09,5.4-.61,5.62,5.78.08,2.43-.76,2.93-3,2.83-4.07-.16-5.22,1.05-5.28,4.48,0,1.76.62,2.42,2.31,2.21a4.18,4.18,0,0,1,1,0c1.36.2,3.48-.79,3.94.65a12.06,12.06,0,0,1,0,6.2c-.38,1.54-2.33.92-3.51.79-3.1-.36-3.9.87-3.83,3.87.2,8.74,0,17.49.13,26.23,0,2.1-.5,2.87-2.75,2.9-8.62.12-8.62.2-8.62-8.27,0-6.86-.12-13.72.07-20.58.09-3-.5-4.71-3.94-4.1a5.12,5.12,0,0,1-1.89-.48C207.87,179.24,209,177.05,210,174.81Z"/><path class="cls-1" d="M186.8,212.62c-1.79.18-1.42-1.36-1.71-2.26-1.6-4.91-3.11-9.85-4.68-14.78-.28-.89-.35-2.18-1.59-2.21s-1.34,1.25-1.62,2.15c-1.57,5-3.07,10.11-4.7,15.12-.38,1.15-.31,2.71-1.93,3.14q-2.53-8.28-5.09-16.55c1.76.13,1.46-1.46,1.75-2.33,2-6,3.92-12,5.74-18,.5-1.65,1.28-2.19,3-2.22,7.93-.13,7.84-.16,10.2,7.34,1.76,5.6,3.79,11.1,5.15,16.81Q189.08,205.71,186.8,212.62Z"/><path class="cls-1" d="M249.39,194.9c0,5.75-.09,11.51,0,17.25,0,2.2-.73,2.8-2.87,2.81-8.33,0-8.33.1-8.33-8.33,0-9.73,0-19.46,0-29.2,0-2,.37-2.88,2.71-2.89,8.46,0,8.46-.11,8.46,8.42V194.9Z"/><path class="cls-2" d="M186.8,212.62q2.26-6.92,4.54-13.82c2.95-6.73,4.73-13.86,6.83-20.87.78-2.61,2-3.52,4.58-3.26,2.4.25,4.83.11,7.25.14-1,2.24-2.13,4.43-1.88,7-1.6.45-1.64,2-2,3.16-2.87,9-5.78,18-8.48,27.11-.67,2.23-1.67,3.08-4,2.83a40.74,40.74,0,0,0-5.3,0C186.65,214.94,186.2,214.15,186.8,212.62Z"/><path class="cls-2" d="M165.48,197.23q2.55,8.28,5.09,16.55c.81,1.15,0,1.25-.85,1.25-2.44,0-4.88-.08-7.31,0-1.95,0-1.94-1.58-2.3-2.68-2.5-7.65-4.9-15.33-7.33-23q-2.28-7.22-4.56-14.45a8.33,8.33,0,0,1,.86-.22c9.28-.49,9.28-.49,12,8.35Q163.3,190.11,165.48,197.23Z"/><path class="cls-1" d="M243.19,168.6c-5.89-.19-4.91,1.54-5-7,0-1.66.52-2.46,2.28-2.31,1.09.1,2.2,0,3.3,0,5.57.06,5.41.07,5.64,5.5.12,3-.65,4.36-3.79,3.8A15.8,15.8,0,0,0,243.19,168.6Z"/><path class="cls-1" d="M142.83,234.27c0-6.14.36-6.44,6.48-5.52,3.29.49,4.75,2.41,4.63,6.08-.1,3.39-1.71,5.24-4.85,5.6C142.85,241.13,142.83,241.12,142.83,234.27Zm1.79.4c.56,1.47-1.49,4.54,2.67,4.32,3.55-.19,4.92-1.17,5-4.28.07-3.32-1.1-4.15-4.65-4.48C143.79,229.87,144.71,232.39,144.62,234.67Z"/><path class="cls-1" d="M137.17,237.74c.65-3.25-.3-6.21.66-9l1,0a92.72,92.72,0,0,1-.12,10.81c-.22,1.83-1.58.71-2.31-.13-2.14-2.49-4.26-5-6.66-7.82-.76,3.14.36,6.12-1.17,8.78a28.43,28.43,0,0,1-.46-10.86c.2-1.8,1.64-.52,2.32.27C132.63,232.3,134.74,234.85,137.17,237.74Z"/><path class="cls-1" d="M268.83,240.54c-3.84-.06-6.32-2.49-6.27-6.12s2.74-6,6.52-6c4,0,6.47,2.54,6.33,6.41C275.28,238.55,272.9,240.61,268.83,240.54ZM269,229.9a4.37,4.37,0,0,0-4.62,4.86c.09,2.77,1.84,4.39,4.72,4.36a4.4,4.4,0,0,0,4.7-4.79A4.5,4.5,0,0,0,269,229.9Z"/><path class="cls-1" d="M288.52,238c0-3.16,0-5.32,0-7.48,0-.46-.31-1.22.5-1.33,1-.13.95.68,1,1.32,0,2.65.05,5.3,0,7.95,0,.71.31,1.68-.76,1.91-.89.18-1.34-.6-1.84-1.18L281,231.63c-1,3,.17,6-.8,8.83-1.56-.39-1-1.56-1.06-2.4-.07-2.54,0-5.08,0-7.62,0-.61-.23-1.42.64-1.66a1.61,1.61,0,0,1,1.69.77C283.57,232.1,285.69,234.63,288.52,238Z"/><path class="cls-1" d="M171.58,232c0,2.52,0,4.83,0,7.14,0,.45.11.9-.53.94a.69.69,0,0,1-.81-.78c0-3.1-.17-6.22.11-9.3.14-1.6,1.38-1,2.1-.21,2.28,2.44,4.5,5,6.94,7.65,1.2-3-.36-6,1-8.66l.94,0c0,3.64.22,7.31-.1,10.92-.13,1.39-1.5.81-2.22,0-1.72-2-3.38-4-5.1-6C173.35,233,173,232.12,171.58,232Z"/><path class="cls-1" d="M202.13,228.7c1.21,0,2,0,2.76,0,2.11.16,3.6,1,3.59,3.42s-1.36,3.35-3.55,3.47a9.37,9.37,0,0,1-2,0c-2.32-.38-3.21.53-2.89,2.86.09.63.44,1.83-.68,1.85-1.4,0-.83-1.27-.86-2-.08-1.87.18-3.78-.08-5.62C198,229.27,199.16,227.9,202.13,228.7Zm1.12,1.56c-1.16.43-3.19-1-3.22,1.88,0,2.22,1.08,2.28,2.64,2.13s3.93.58,4-2.11C206.81,229.66,204.64,230.55,203.25,230.26Z"/><path class="cls-1" d="M218.17,240.37a67.21,67.21,0,0,1-.16-10.9c0-.7.66-.8,1.23-.78a52.34,52.34,0,0,1,6.27.24c2.46.36,3.4,2.49,2.28,4.7-.82,1.61-1.07,3.31-4,1.91-3.07-1.46-4.22-.19-4.42,3.28a12.21,12.21,0,0,1-.29,1.56Zm3.63-6.47c1.18-.94,4.3,1.31,4.65-1.88.27-2.39-2.17-1.76-3.43-1.66s-3.49-1.35-3.63,1.63C219.31,233.57,219.82,234.25,221.8,233.9Z"/><path class="cls-1" d="M189.82,240.53c-2.12.21-3.92-.35-4.9-2.46-.26-.57-.57-1.35.28-1.68.65-.25,1,.33,1.12.89.41,1.86,1.83,1.88,3.27,1.85s3.51.16,3.59-1.9c.08-1.91-2-1.68-3.27-2-.31-.09-.67,0-1-.12-1.53-.5-3.39-.52-3.85-2.6a2.77,2.77,0,0,1,1.24-3.17,6.49,6.49,0,0,1,5.74-.47,1,1,0,0,1,.7,1.32c-.27.69-.87.39-1.39.2a5.37,5.37,0,0,0-1.54-.43c-1.24-.06-2.65.06-3,1.46-.45,1.78,1.27,1.78,2.32,2.14.82.28,1.76.19,2.61.41,1.8.47,3.44,1.15,3.13,3.51-.28,2.17-1.77,2.9-3.7,3.08C190.75,240.56,190.31,240.53,189.82,240.53Z"/><path class="cls-1" d="M230.68,240.2c1.8-3.8,3.43-7.5,5.32-11.06.51-1,1.57-.46,2,.5,1.46,3.08,2.88,6.17,4.34,9.25.26.54.44,1.17-.15,1.43a1.1,1.1,0,0,1-1.48-.91c-.48-2.49-2.2-2.46-4.21-2.49s-3.18.38-3.73,2.32C232.62,239.87,232.29,240.49,230.68,240.2Zm8.31-4.7-2.23-4.87c-.84,2-1.43,3.3-2.11,4.87Z"/><path class="cls-1" d="M118.82,234.24c-1.43,1.46-2.84.9-4,.83-2.38-.15-3.77.36-3.29,3.15a1.93,1.93,0,0,1-1,2.38c-.93-2-.42-4-.44-5.92-.07-6.07,0-6.07,6-6,.66,0,1.32,0,2,0a.84.84,0,0,1,.88.8.82.82,0,0,1-.87.8c-1.55,0-3.1.12-4.63,0s-1.91.43-1.9,1.88.69,1.55,1.84,1.59C115.05,233.82,116.82,233.36,118.82,234.24Z"/><path class="cls-1" d="M249.06,228.67c1.32,0,2.65,0,4,0,.63,0,1.19.23,1.18.84s-.64.87-1.24.76c-3.24-.6-3.26,1.39-3.1,3.69.12,1.76,0,3.54,0,5.31,0,.43,0,.94-.61,1-.74.08-.9-.44-.9-1,0-1.44,0-2.88,0-4.32.11-2.55.62-5.34-3.54-4.63a.76.76,0,0,1-.91-.74c0-.7.55-.87,1.13-.87C246.4,228.65,247.73,228.66,249.06,228.67Z"/><path class="cls-1" d="M257.29,234.73c0-1.64,0-3.28,0-4.93a.85.85,0,0,1,.72-.94.86.86,0,0,1,1,.95q0,4.77,0,9.54a.86.86,0,0,1-1,1c-.52-.07-.68-.5-.69-1,0-1.53,0-3.07,0-4.6Z"/><path class="cls-1" d="M123.75,234.53c0,1.54,0,3.07,0,4.61,0,.56-.09,1.15-.83,1.15-.52,0-.7-.44-.7-.91q0-4.77,0-9.54c0-.45.09-.93.64-1,.73-.06.89.49.89,1.06C123.76,231.46,123.75,233,123.75,234.53Z"/><path class="cls-1" d="M213.52,234.87v4.27c0,.56,0,1.19-.76,1.16s-.74-.7-.74-1.24q0-4.6,0-9.2c0-.45.09-.94.63-1,.75-.07.84.5.84,1.07C213.52,231.58,213.51,233.22,213.52,234.87Z"/><path class="cls-1" d="M166.15,234.42c0,1.65,0,3.3,0,5,0,.4,0,.92-.6,1s-.92-.43-.93-1c0-3.19,0-6.39,0-9.58,0-.6.27-1.07,1-1s.59.59.6,1c0,1.54,0,3.09,0,4.63Z"/><path class="cls-1" d="M194.09,231.91c-.12-.15-.3-.28-.31-.43s.11-.34.18-.51c.11.14.3.26.32.41S194.16,231.73,194.09,231.91Z"/><rect class="cls-3" width="400" height="400"/></g></g></svg>