<svg xmlns="http://www.w3.org/2000/svg" viewBox="0 0 400 400"><defs><style>.cls-1{fill:#fff;}.cls-2{fill:none;}</style></defs><title>Asset 100</title><g id="Layer_2" data-name="Layer 2"><g id="Layer_1-2" data-name="Layer 1"><path class="cls-1" d="M93.6,186.2c3.69,1.45,6.11,3.87,7,7.65,1.76,8-3.08,14.64-11.65,15.21-7.43.5-14.91.25-22.36.35-1.3,0-1.35-.77-1.35-1.72,0-4.2,0-8.4,0-12.59q0-13,0-26.06c0-2.34,0-2.34,2.27-2.34,6,0,12-.06,18,.05a28.35,28.35,0,0,1,6.22.8,8.65,8.65,0,0,1,7,7.56c.61,4.07-.29,7.65-3.88,10.17C94.46,185.54,94.11,185.82,93.6,186.2Zm-18.85,4.44c0,3.52,0,6.83,0,10.13,0,.37.77,1,1.18,1,3.49,0,7,.07,10.48-.12a4.79,4.79,0,0,0,4.88-5.07c.07-3.34-1.58-5.71-4.65-5.91C82.81,190.45,78.91,190.64,74.75,190.64Zm.1-16.19v9.32c3.7,0,7.31.19,10.88-.07,2.57-.19,3.89-2.12,3.87-4.76s-1.23-4.24-3.94-4.43C82.14,174.26,78.59,174.45,74.85,174.45Z"/><path class="cls-1" d="M177.4,178.48l-1.86,5.9c-2.44,7.77-4.92,15.54-7.3,23.33-.4,1.31-1,1.79-2.32,1.72-1.86-.09-3.73-.05-5.6,0a1.55,1.55,0,0,1-1.81-1.39c-1.44-5.64-3-11.26-4.47-16.89-.14-.5-.29-1-.59-2-.66,2.52-1.2,4.55-1.72,6.59-1,4.06-2.1,8.12-3.06,12.2a1.63,1.63,0,0,1-1.9,1.52c-2-.07-4.09,0-6.12-.07a2,2,0,0,1-1.52-1c-3.12-9.64-6.15-19.3-9.2-29a4.15,4.15,0,0,1,0-.9c2.72,0,5.39-.06,8.05.06.41,0,1,.86,1.14,1.41,1.66,5.88,3.25,11.79,4.85,17.68.08.27.18.52.42,1.23,1.29-5.26,2.48-10.08,3.67-14.9.32-1.3.73-2.58.94-3.9s.71-1.69,2-1.62c1.8.09,3.61.08,5.42,0,1.09-.05,1.5.34,1.76,1.4,1.42,5.88,2.92,11.75,4.4,17.62.08.32.21.64.45,1.34,1.5-5.52,2.91-10.66,4.3-15.8,1.22-4.54,1.21-4.54,5.83-4.54Z"/><path class="cls-1" d="M225.56,189.89l12.91,19.52a50.14,50.14,0,0,0-6.31.05c-3.16.43-5-.78-6.42-3.59-1.77-3.45-4-6.65-6.05-10-2.24,1.45-3.6,3.08-3.28,5.9a66.11,66.11,0,0,1,.06,7.47H208c0-.66-.13-1.27-.13-1.88,0-12.89,0-25.77,0-38.65,0-1.59.41-2.2,2-2.06a31,31,0,0,0,4.72,0c1.42-.09,1.91.36,1.89,1.85-.07,6.24,0,12.47,0,18.71v1.7c1.7-1.62,3.24-3.07,4.75-4.56,1.94-1.92,3.53-4.63,5.86-5.61s5.39-.26,8.12-.27c.45,0,.9.06,1.27.09Z"/><path class="cls-1" d="M205.13,209.37c-2.65,0-5.21.15-7.73-.1-.64-.07-1.16-1.42-1.78-2.25a15.54,15.54,0,0,1-12.82,2.86c-4.5-.84-7.25-3.91-7.46-8.2-.24-5.05,1.75-8.11,6.52-9.39,2.74-.73,5.61-1,8.42-1.46,1-.18,2.05-.38,3.06-.65a2.73,2.73,0,0,0,2.3-2.88c-.06-1.64-.65-3.13-2.41-3.4a16.67,16.67,0,0,0-5.18-.05c-2.12.34-2.89,2.14-3.27,4.17H176.4a7.23,7.23,0,0,1,2.25-6.12,14.72,14.72,0,0,1,5.08-3.22,23.32,23.32,0,0,1,14.45-.07c4.21,1.26,6,3.88,6.09,8.26.07,6.35.14,12.71.28,19.06A24,24,0,0,0,205.13,209.37Zm-9.5-14.47c-2.46.45-4.86.83-7.23,1.35a8.43,8.43,0,0,0-2.89,1.13,3.73,3.73,0,0,0,.33,6.36,6.69,6.69,0,0,0,9.78-5.45C195.72,197.15,195.63,196,195.63,194.9Z"/><path class="cls-1" d="M110.11,196.1c.12,3.92,1.64,6.21,4.48,7.08a8,8,0,0,0,9-2.63c.28-.38.73-.88,1.12-.9,2.19-.08,4.39,0,6.83,0-1.36,4.59-3.82,7.9-8.1,9.48-9.36,3.44-21.63-.75-22-14.5-.21-7.89,3.94-14.17,10.86-16.3,10.16-3.13,19.47,3.74,19.82,14.69.12,3.58.29,3.1-3,3.12-5.59,0-11.19,0-16.78,0Zm12.94-5.71a5.62,5.62,0,0,0-5.55-6.12c-4.4-.17-7.22,2.17-7.32,6.12Z"/><path class="cls-1" d="M267.39,193.77c.13-6,2-11.09,7.48-14.06a16.91,16.91,0,0,1,17.34.26c4.88,2.82,6.77,7.52,7.05,12.92.4,7.77-3.28,14.73-11.27,16.71C277.87,212.12,267.23,206.75,267.39,193.77Zm23.37-.15a36.12,36.12,0,0,0-1-4.92c-1-3.1-3.31-4.48-6.72-4.44a6.27,6.27,0,0,0-6.26,4.64,15.62,15.62,0,0,0-.2,9.28c1.07,3.77,3.33,5.46,7.11,5.34,3.4-.11,5.69-2.09,6.48-5.72C290.44,196.56,290.53,195.28,290.76,193.62Z"/><path class="cls-1" d="M234.84,193.48c.2-5.84,2.18-11.2,8.08-14.06,6.09-2.94,12.26-2.68,17.88,1.3,4.64,3.28,6.11,8.25,6,13.66-.16,6.31-2.51,11.63-8.6,14.25-6.31,2.71-12.58,2.34-18.09-2.14C236.15,203.28,234.92,198.76,234.84,193.48Zm23.61.28c-.58-2-.85-4.41-1.9-6.39-2.34-4.39-9.26-4.33-11.55.08a13.88,13.88,0,0,0-.17,12.61c1.2,2.62,3.49,3.56,6.3,3.47s4.87-1.29,5.86-3.88A49.7,49.7,0,0,0,258.45,193.76Z"/><path class="cls-1" d="M311.34,184.31V195.2c0,4.2,0,8.4,0,12.6,0,1.22-.4,1.67-1.61,1.62a50.45,50.45,0,0,0-5.07,0c-1.51.09-2-.42-2-2,.08-6.94,0-13.88,0-20.83v-2.27h-5.08c0-1.81-.07-3.43.05-5,0-.31.76-.73,1.22-.81,1.18-.19,2.75.19,3.49-.45s.28-2.17.38-3.32a8.34,8.34,0,0,1,6.36-7.48,18.23,18.23,0,0,1,8.38-.13v6.1c-1.89.69-4.28-.82-5.6,1.21-.63,1-.54,2.4-.85,4,1.81,0,3.24.05,4.66,0,1.07-.05,1.4.39,1.45,1.42.24,4.39.26,4.39-4,4.42Z"/><path class="cls-1" d="M101.21,218.24c1.63.82,3.63-1,4.35,1.25,1.48-.46,3-1.34,4.58-1.31s3.06.94,4.9,1.58a6,6,0,0,1,5.57-1.62c2.21.34,4,1.78,4.06,3.94.18,3.89,0,7.79,0,11.62-.19.12-.28.23-.38.24-3.93.41-3.93.41-3.93-3.5,0-2,0-4.08,0-6.12,0-1.41-.42-2.55-2.11-2.66s-2.71.57-2.85,2.35c-.2,2.55-.07,5.13-.15,7.69,0,.75-.17,2.06-.49,2.14a10,10,0,0,1-3.45,0c-.2,0-.43-.87-.43-1.34-.05-2.56,0-5.13,0-7.7,0-2.35-.67-3.17-2.32-3.19s-2.73,1.07-2.79,3.27q-.09,3.77,0,7.52c0,1.2-.38,1.73-1.62,1.6a13.39,13.39,0,0,1-1.91-.07c-.38-.1-1-.58-1-.89C101.19,228.31,101.21,223.54,101.21,218.24Z"/><path class="cls-1" d="M92.06,234.38c-4.85,0-8-3.26-8-8.19s3.23-8.16,8.09-8.13,8.09,3.3,8,8.2S97,234.38,92.06,234.38Zm3.69-8.17a15.84,15.84,0,0,0-.64-2.86,3.33,3.33,0,0,0-4.86-1.4c-2.32,1.48-2.39,7.14,0,8.48a4.41,4.41,0,0,0,2.8.37C94.88,230.42,95.62,228.94,95.75,226.21Z"/><path class="cls-1" d="M83.65,224.09a24.54,24.54,0,0,1-3.23,0c-.45-.06-.81-.65-1.25-.94-.86-.58-1.77-1.58-2.62-1.55a3.94,3.94,0,0,0-2.77,1.63,6.16,6.16,0,0,0-.06,6.2c1,2.05,4.33,2.33,5.15.27s2.12-1.74,3.59-1.73a11.76,11.76,0,0,1,1.18.11c.07,3.52-2.85,6.24-6.74,6.35-4.82.14-8.18-2.88-8.32-7.47-.16-5.18,2.72-8.65,7.33-8.84S83.45,220.1,83.65,224.09Z"/><path class="cls-1" d="M330.24,178.72a6.56,6.56,0,1,1-.18-13.11,6.56,6.56,0,1,1,.18,13.11Zm3.19-3a8.44,8.44,0,0,0,.77-.93,5.08,5.08,0,0,0-1.25-6.71,4.67,4.67,0,0,0-6.41.81,5.34,5.34,0,0,0,.38,6.86c1.85,1.83,4.36,1.8,6.55-.07Z"/><path class="cls-1" d="M67.63,233.91H63.09v-4.52h4.54Z"/><path class="cls-1" d="M333.47,175.71c-1.28.5-2.08,0-2.62-1.19a17,17,0,0,0-1.14-1.8l-.44.13a9.89,9.89,0,0,1-.13,2c-.09.39-.52.71-.8,1.05-.27-.29-.76-.58-.77-.89-.07-2.13,0-4.27,0-6.57H330c1.3,0,2.86-.07,3.11,1.52.15,1-.55,2.07-.88,3.11l-.56-.06c.59.92,1.17,1.85,1.77,2.78Zm-3.16-4.06,1.19-1c-.43-.27-.85-.7-1.3-.75s-.65.5-1,.78Z"/><rect class="cls-2" width="400" height="400"/></g></g></svg>