<svg xmlns="http://www.w3.org/2000/svg" viewBox="0 0 400 400"><defs><style>.cls-1{fill:#fff;}.cls-2{fill:none;}</style></defs><title>Asset 120</title><g id="Layer_2" data-name="Layer 2"><g id="Layer_1-2" data-name="Layer 1"><path class="cls-1" d="M123.11,184.87c-1.31-6.55-6.68-15-20.72-15-10.9,0-20.15,7.85-20.15,18.1,0,8.73,6,14.7,15.18,16.58l8.07,1.61c4.49.92,7,3.53,7,6.85,0,4.1-3.32,7.11-9.38,7.11C95,220.11,91,215,90.48,209.25L80.06,212c.92,8.24,7.68,18.1,23,18.1,13.48,0,20.9-9,20.9-17.88,0-8.16-5.63-15-16.14-17l-8.07-1.57c-4.27-.83-6.28-3.36-6.28-6.55,0-3.79,3.58-7.32,9-7.32,7.37,0,9.94,5,10.55,8.15Zm129.93,44h11.34V217.49H253Zm-71.27-47.06V171.08H133.88v10.69h18.27v47.15h11.34V181.77Zm29.79,22.85v24.3h11.25v-24.3l20.37-33.54H230.53L217.58,194l-13-22.94H191.41Zm108.38,24.3V171.08H308.51v57.84ZM253,205.67h31.57V194.33H253Zm0-23.16H298.7V171.17H253Z"/><rect class="cls-2" width="400" height="400"/></g></g></svg>