<svg xmlns="http://www.w3.org/2000/svg" viewBox="0 0 400 400"><defs><style>.cls-1{fill:#fff;}.cls-2{fill:none;}</style></defs><title>Asset 91</title><g id="Layer_2" data-name="Layer 2"><g id="Layer_1-2" data-name="Layer 1"><path class="cls-1" d="M79.67,186.3a22.58,22.58,0,0,1,23,11.82A22.81,22.81,0,0,1,73.6,229.8c8.29-4.35,13.63-10.78,15-20S86.7,192.86,79.67,186.3Z"/><path class="cls-1" d="M78.65,213.7a22.6,22.6,0,0,1-23-11.82A22.81,22.81,0,0,1,84.72,170.2c-8.3,4.35-13.63,10.78-15,20S71.62,207.14,78.65,213.7Z"/><path class="cls-1" d="M132.32,183.34a19,19,0,0,1,4.35.57c3.5.83,3.86,1.83,1.9,4.87-.53.81-1,.6-1.74.45a43,43,0,0,0-4.34-.68c-1.89-.17-3.81,0-4.51,2.13s.89,3.38,2.45,4.36c2.18,1.39,4.51,2.55,6.69,4,2.37,1.54,4.29,3.51,4.8,6.47.93,5.42-2.3,9.73-8.09,10.59a22.21,22.21,0,0,1-11.43-1.55c-1.83-.71-1.22-1.76-.64-2.81s.35-3.05,2.65-1.94A14.14,14.14,0,0,0,131,211c2.05,0,3.84-.69,4.55-2.76s-.61-3.5-2.21-4.51c-2.4-1.52-5-2.78-7.36-4.33s-4.15-3.64-4.4-6.67C121.07,186.89,125,183.27,132.32,183.34Z"/><path class="cls-1" d="M323.78,210.94c.66,1,.19,2.19.31,3.28s-.39,1.51-1.5,1.51c-5.7,0-11.4,0-17.1,0-1.11,0-1.51-.39-1.5-1.51q0-14.37,0-28.76c0-1.57.81-1.59,1.94-1.58,4.93,0,9.85.13,14.77,0,2.19-.08,3,.57,2.65,2.71-.12.68-.13,1.37-.19,2-3.42.56-6.87.21-10.3.21-1.69,0-2.44.3-2.4,2.24.12,5.85.14,11.71,0,17.57,0,1.8.62,2.11,2.23,2.12C316.39,210.76,320.09,210.38,323.78,210.94Z"/><path class="cls-1" d="M286.39,202.25c0-3.72-.06-7.44,0-11.15,0-1.53-.32-2.28-2-2.08a26.89,26.89,0,0,1-3.11,0c-3.28,0-3.94-.91-3.28-4.16.2-1,.78-1,1.48-1,6.83,0,13.67,0,20.5,0,1.73,0,1.51,1.19,1.33,2.12s1.06,2.8-1.21,3c-.35,0-.7,0-1,0-6,.08-6,.08-6,6s-.07,12.11,0,18.16c0,1.85-.34,2.59-2.39,2.53-4.32-.12-4.33,0-4.33-4.43Z"/><path class="cls-1" d="M328.54,199.85c0-4.49.08-9,0-13.48-.05-1.85.33-2.59,2.38-2.53,4.33.12,4.33,0,4.33,4.39,0,6.66.06,13.32,0,20,0,1.76.38,2.47,2.27,2.36,2.58-.16,5.18,0,7.77-.07,2.2-.09,1.75,1.41,1.74,2.62s.55,2.68-1.7,2.64c-5-.1-10-.08-15,0-1.46,0-1.7-.64-1.69-1.88C328.57,209.19,328.54,204.52,328.54,199.85Z"/><path class="cls-1" d="M226,199.71c0-4.59.05-9.17,0-13.76,0-1.51.3-2.1,2-2.11,4.77,0,4.77-.1,4.77,4.77,0,6.58.05,13.15,0,19.73,0,1.64.39,2.31,2.15,2.21,2.58-.14,5.19,0,7.78-.06,2.29-.09,1.62,1.52,1.64,2.66s.58,2.66-1.69,2.6c-4.93-.12-9.86-.1-14.79,0-1.62,0-1.82-.69-1.81-2C226,209.05,226,204.38,226,199.71Z"/><path class="cls-1" d="M152.82,199.92c0,4.59-.06,9.17,0,13.75,0,1.55-.35,2.13-2,2.08-5.64-.17-4.56.65-4.6-4.4-.07-8.31,0-16.61-.07-24.92,0-2,.52-2.87,2.59-2.56a6.84,6.84,0,0,0,2.07,0c1.63-.22,2,.46,2,2C152.76,190.58,152.82,195.25,152.82,199.92Z"/><path class="cls-1" d="M323.78,210.94c-3.81,0-7.62,0-11.43,0-1.54,0-2.16-.43-2.14-2.06q.1-9.09,0-18.18c0-1.77.66-2.21,2.29-2.17,3.55.1,7.1,0,10.65,0-3.27,1-6.62.36-9.93.38-2,0-2.73.5-2.59,2.59.19,2.75.05,5.52.2,8.58,2-4.84,6.11-3.6,9.73-3.66,2.26,0,1.31,1.78,1.44,2.87s.22,2.3-1.58,2.24c-2.6-.09-5.19,0-7.79,0-1.39,0-1.94.31-2,1.85-.25,7.11-.3,7.06,6.81,7.14C319.56,210.57,321.72,210,323.78,210.94Z"/><path class="cls-1" d="M166,194.41l0-.21c0-.2.8,1,.77,1.69,1.84,5.77,3.67,11.53,5.54,17.29.25.77.25,1.72,1.32,2.06,3.21,1,5.7-.24,6.73-3.5q2.68-8.49,5.38-17c.94,5.57,1.41,11.07,1.85,16.58.41,5.12-.47,4.26,4.89,4.39,1.36,0,1.72-.3,1.57-1.76-.9-8.25-1.6-16.53-2.47-24.78-.57-5.33-.66-5.24-5.93-5.34-1.86,0-2.72.48-3.23,2.33-1.67,6-3.51,11.94-5.35,17.88-.22.72,0,1.79-1.21,2.12q-2.58-8.49-5.13-16.89c-1.68-5.5-1.68-5.44-7.38-5.44-1.63,0-2.2.42-2.35,2.12-.79,8.78-1.72,17.55-2.64,26.33-.36,3.43-.4,3.42,3.1,3.42a2.26,2.26,0,0,1,.52,0c1.76.31,2.35-.42,2.46-2.22.38-6,.93-12.07,1.42-18.1,0-.33.08-.66.11-1"/><path class="cls-1" d="M262.15,183.27c-9.15-.09-15.7,6.65-15.77,16.22-.06,10.06,6.05,16.73,15.37,16.77,9.05,0,15.62-6.81,15.69-16.36C277.52,190.06,271.36,183.36,262.15,183.27Zm6.11,24.32c-3.36,4.85-9.89,4.72-12.91-.32a15,15,0,0,1-1.07-13,8,8,0,0,1,7.44-5.84c3.56,0,6.32,2,7.79,5.71a14.47,14.47,0,0,1,.9,5C270.44,202.57,269.89,205.24,268.26,207.59Z"/><path class="cls-1" d="M213.41,183.78c-3.94-.93-7.9-.4-11.86.11-1.66.21-2.17.83-2.13,2.46.09,4.5,0,9,0,13.51,0,4.67,0,9.35,0,14,0,1.32.35,1.77,1.74,1.82,5,.18,5,.24,5-4.76v-1.82c0-5.35,0-5.35,5.15-5.88.44,0,.87-.06,1.3-.13,5.26-.91,9-4.79,9.12-9.5S218.71,185,213.41,183.78Zm-4.86,14.56c-2.13.55-2.58-.72-2.4-2.74a22,22,0,0,0,0-4.14c-.23-2.13.32-3.17,2.74-3,3.63.19,6.12,2.12,6,5S212.54,198.32,208.55,198.34Z"/><rect class="cls-2" width="400" height="400"/></g></g></svg>