<svg xmlns="http://www.w3.org/2000/svg" viewBox="0 0 400 400"><defs><style>.cls-1{fill:#fff;}.cls-2{fill:none;}</style></defs><title>Asset 126</title><g id="Layer_2" data-name="Layer 2"><g id="Layer_1-2" data-name="Layer 1"><path class="cls-1" d="M256.54,175.9a77.8,77.8,0,0,1-12.23,10.69c-.66.48-.66.8-.18,1.4a2.93,2.93,0,0,1-.91,4.46c-.35.23-.57.11-.85-.06a6.1,6.1,0,0,1-2.09-1.88c-.53-.83-1.06-.74-1.82-.35a26.79,26.79,0,0,1-6.87,2.54,8.62,8.62,0,0,1-2.35.19l2.9-1.58a49.94,49.94,0,0,0,5.48-3.51c.55-.4.69-.75.33-1.38a24.3,24.3,0,0,1-2.06-4c-.19-.57-.63-.45-1-.44a45.47,45.47,0,0,1-7.56-.17,3.77,3.77,0,0,1-1.54-.5c2.05-.13,4.08-.33,6.11-.55.28,0,.56-.05.84-.1a7.34,7.34,0,0,0,2.14-.46c.75-.4.09-1.27.3-1.92a5.43,5.43,0,0,1,.86-2.17c.55.54.55,1.29.9,1.87a1.42,1.42,0,0,0,1.86.8,35.65,35.65,0,0,0,11.75-5.92,2.26,2.26,0,0,1,1.85-.43,16.5,16.5,0,0,1,4.18,1.36Zm-11.21,4.8a12.82,12.82,0,0,0-3,.39c-2.82.43-2.84.51-1.22,2.87l.18.26c.12.13.26.26.45.12A12.26,12.26,0,0,0,245.33,180.7Z"/><path class="cls-1" d="M174.35,199.62A23.66,23.66,0,1,1,198,223.4,23.62,23.62,0,0,1,174.35,199.62Zm18.76-20.41-.06-.14c-.4.06-.81.1-1.21.18a18.49,18.49,0,0,0-12.06,8.28,21.5,21.5,0,0,0,2.4,26.93c4.26,4.56,9.47,7.27,15.9,7a10.87,10.87,0,0,0,10.27-7.87c1.94-7-3.75-14.07-10.58-13.69a9.2,9.2,0,0,1-7.4-3.11c-4.61-4.77-5.3-12.41,1.44-16.8C192.24,179.74,192.68,179.48,193.11,179.21Zm8.13,9.79a3.17,3.17,0,0,0-3.2-3.17,3.24,3.24,0,0,0-3.11,3.19,3.2,3.2,0,0,0,3.13,3.16A3.12,3.12,0,0,0,201.24,189Z"/><path class="cls-1" d="M225,222.86c.3-.62.56-1.14.8-1.68.58-1.36.42-1.66-1-1.89a1.72,1.72,0,0,1-1.1-.37,3.5,3.5,0,0,1,2.27-.67c.88.07,1.07-.45,1.21-1.11a20.59,20.59,0,0,0,.21-6.69c-.1-1,.24-1.25,1.08-1.31s1.4-.13,2.09-.22.75.15.73.7a21.54,21.54,0,0,1-1.67,8.8c-.34.72-.22,1.05.39,1.44,1.65,1,3.3,2.11,4.91,3.23.73.51,1.17.32,1.67-.29a11.91,11.91,0,0,0,2.51-6.35,5.48,5.48,0,0,1,.27-1.6,2.39,2.39,0,0,1,1,1.31c1.07,2.65.5,5.23-.32,7.8a1.61,1.61,0,0,1-.19.49c-1.22,1.7-.64,3.09.64,4.48a38.71,38.71,0,0,1,2.85,3.64c.56.77.9.53,1.28-.12a14.55,14.55,0,0,0,1.6-5.3,32,32,0,0,0,.14-7.45c0-.24-.14-.55,0-.7a14.45,14.45,0,0,1,3.31-1.77c.29-.11.29.21.32.41a21.7,21.7,0,0,1-1,10.41,35.45,35.45,0,0,1-4.32,8,1.84,1.84,0,0,1-1.94.91h-.21c-1.73,0-3.21-.18-3.58-2.38a11.48,11.48,0,0,0-1.69-3.6c-.28-.49-.49-.74-1.12-.33-1.31.85-1.35.8-2.18-.47-.59-.91-1.13-1.85-1.76-2.73-.3-.44-.35-.76.13-1,.67-.39.42-.72,0-1.11-1.26-1.11-2.52-2.23-3.73-3.38-.44-.42-.74-.36-1.16,0A3.71,3.71,0,0,1,225,222.86Z"/><path class="cls-1" d="M172.4,147.11a4.77,4.77,0,0,1,1.79,1.42,40.12,40.12,0,0,1,4.66,5.25c.33.46.64.92,1.15.17a.46.46,0,0,1,.36-.17c1.3.3,2.6.58,3.87,1,.41.12.16.56.06.83a9.07,9.07,0,0,1-2,3.41,1.42,1.42,0,0,0-.38,1.67,41.72,41.72,0,0,1,2.13,9.09c0,.17.06.34.07.52a.64.64,0,0,1-.51.7c-.38.08-.4-.3-.49-.55a23.05,23.05,0,0,0-1.71-4.4,14.83,14.83,0,0,0-1.59-2.34.71.71,0,0,0-1.08-.16c-1.85,1.2-3.72,2.38-5.57,3.58-.59.38-.86.68-.31,1.53a53.65,53.65,0,0,1,3.07,6.66c.29.64-.3.75-.68.95s-.62-.09-.75-.43a23.75,23.75,0,0,0-4-6.39,2.12,2.12,0,0,0-2.08-.87c-.74.11-1.5.1-2.31.14a1.74,1.74,0,0,1,.92-.93c.85-.5.73-1,.1-1.61a34.21,34.21,0,0,0-6.39-5.43,1.26,1.26,0,0,1-.68-1.28,16.49,16.49,0,0,1,.53-3.63c.28-1.13.33-1.14,1.2-.43a48.43,48.43,0,0,1,8.16,8.28c.82,1.06.83,1.07,1.85.14,1.52-1.4,3-2.84,4.55-4.2.66-.57.59-1,.17-1.68a20.18,20.18,0,0,0-4.39-4.78,1.3,1.3,0,0,1-.52-1.44C171.92,150.19,172.13,148.67,172.4,147.11Z"/><path class="cls-1" d="M168.92,233.1a13.1,13.1,0,0,1-2.48-.25,2.42,2.42,0,0,0-2.46.55,16.85,16.85,0,0,1-6.59,3.36c-.87.21-.93.56-.25,1.12a6.75,6.75,0,0,1,.77.91,4.08,4.08,0,0,1-2.22-.21c-5-3-8.44-7.09-8.51-13.19-.05-4.32,2.14-7.5,5.87-9.63,6.42-3.68,12.78-1.38,17.36,3a24.25,24.25,0,0,1,3.22,4c.33.49.33.75-.37.74-1.57,0-3.15,0-4.73,0a.7.7,0,0,1-.73-.45c-2.79-5.64-9.67-7.17-14.83-2.51-2.79,2.52-4,5.61-3.08,9.25a9.47,9.47,0,0,0,5.18,6.14,1.47,1.47,0,0,0,1,.07,8,8,0,0,0,5.08-3.6c.41-.65.36-1.09-.37-1.52a10.57,10.57,0,0,1-4-3.79c-.54-.94-.44-1.08.66-1.18l.63-.06c1.76-.11,1.79-.13,2.52,1.49a4.59,4.59,0,0,0,1.64,1.69c.49.37,1,.57,1.38-.13.22-.37.52-.38.9-.2.85.41,1.72.79,2.59,1.16.62.26.75.65.24,1.09s-.36.83.19,1.16A3.25,3.25,0,0,1,168.92,233.1Z"/><path class="cls-1" d="M222,159.54c-4,3.65-7,7.92-11.63,11a109.31,109.31,0,0,0,6.19-9.42,54,54,0,0,0,4.46-9.94,1.48,1.48,0,0,1,1.09-1.13,27.22,27.22,0,0,0,2.67-.94.77.77,0,0,1,1.16.5,8.29,8.29,0,0,1,.59,4.82q-1.58,7.28-3.12,14.57a4.44,4.44,0,0,0-.06.73,15.94,15.94,0,0,0,3.54-2.53,27.27,27.27,0,0,0,7-9.17c.18-.35.33-.67.79-.75,1.68-.28,3.36-.59,5.27-.92-.44.69-.8,1.19-1.1,1.72-3.3,5.84-8.27,10-13.85,13.46-1.45.91-2.86,2-4.67,2.21l-1.24.18A38.09,38.09,0,0,0,222,159.54Z"/><path class="cls-1" d="M143.46,184.74a22.25,22.25,0,0,1,4.83-13.66c.4-.53.66-.47,1,.07.69,1.18,1.39,2.35,2.15,3.49.38.58.07,1-.21,1.42a18.84,18.84,0,0,0-2.84,8.92c-.3,5.48,3.47,9.9,9.11,11a6.33,6.33,0,0,0,4.12-1,17.48,17.48,0,0,0,7.84-8.81c.6-1.43,1.14-2.86,1.7-4.3.12-.32.28-.58.69-.44s.25.45.19.7c-1,4.15-2.39,8.12-5.2,11.46a13.9,13.9,0,0,1-8.72,4.83c-4.6.73-9.85-1.88-12.39-5.75C144,190,143.8,187.07,143.46,184.74Z"/><path class="cls-1" d="M187.69,255a.84.84,0,0,1-.08-.93,7.46,7.46,0,0,0,.26-.8c.69-2.88.58-3-2.22-4s-5.71-2.1-8.55-3.19a2.17,2.17,0,0,0-1.89.07,8.25,8.25,0,0,1-4.22,1,30.92,30.92,0,0,0,2.95-1.84c.44-.34.6-.62.11-1.08a2.13,2.13,0,0,1-.72-1.65c.62.32,1.18.59,1.71.89a1.83,1.83,0,0,0,2.13-.22,34.82,34.82,0,0,0,7.69-7.54c2.19-2.9,2.16-2.92,5.76-3.23h.1c2.17-.18,2.16-.18,2,2.07-.21,3.53-.4,7.06-.63,10.59-.06.8.12,1.24,1,1a.93.93,0,0,1,1.13.52,20.24,20.24,0,0,0,1.19,1.72c.51.65.27,1-.4,1.22a10.74,10.74,0,0,1-3.86.83c-.55,0-.81.15-1,.75A7.32,7.32,0,0,1,187.69,255ZM178,244.78a19.63,19.63,0,0,0,8.44,2.2c2,.12,2,.09,2.22-1.91a33.56,33.56,0,0,0-.16-5.76c-.08-1-.23-1.07-1.12-.45l-1.9,1.3C183.13,241.78,180.69,243.27,178,244.78Z"/><path class="cls-1" d="M212.4,254.31c0-1.17,0-2,0-2.88a46.89,46.89,0,0,0-1.18-13.77c-.21-.84-.45-1.24-1.47-1a23.58,23.58,0,0,1-7.38.86c-1.1-.05-1.16-.13-.74-1.17a1.43,1.43,0,0,0,.13-.28c.49-2,1.61-2.74,3.75-3,5.56-.76,9.94-3.92,13.85-7.78a15.18,15.18,0,0,1,1.38-1.4,5.93,5.93,0,0,1-1.2,5.18,21.75,21.75,0,0,1-3.81,4.32c-.55.45-.4,1-.35,1.54a48.75,48.75,0,0,1,.12,10.8A17.83,17.83,0,0,1,212.4,254.31Z"/><path class="cls-1" d="M196.75,168.43c.37-2,.77-4.05,1.11-6.08a22.45,22.45,0,0,0-1.7-13.54,1.23,1.23,0,0,1,.17-1.51,9.84,9.84,0,0,0,1.11-1.78,1,1,0,0,1,1-.56c2,.06,1.55-.28,1.91,1.61a33.72,33.72,0,0,1-.41,14.79C199.43,163.45,197.91,167.18,196.75,168.43Z"/><path class="cls-1" d="M198.08,213.79a3.17,3.17,0,0,1,.2-6.33,3.21,3.21,0,0,1,3.07,3.21A3.16,3.16,0,0,1,198.08,213.79Z"/><rect class="cls-2" width="400" height="400"/></g></g></svg>