<svg xmlns="http://www.w3.org/2000/svg" viewBox="0 0 256.49 41.71"><defs><style>.cls-1{fill:#fff;}</style></defs><title>Asset 71</title><g id="Layer_2" data-name="Layer 2"><g id="Layer_1-2" data-name="Layer 1"><path class="cls-1" d="M134.94,19c2.57,0,4.73.09,6.88,0a4.82,4.82,0,0,0,4.82-5c0-2.86-1.45-3.95-5.06-3.9l-2.59.05c-7.88.17-8.86-.67-10.32-8.4C128.4.26,128.89,0,130.11,0c5.52.05,11,0,16.55.09a8.83,8.83,0,0,1,5,2.05c7.69,5.56,7.3,19.27-.79,24.23-1.48.9-1.68,1.51-1,3,1.51,3.11,2.79,6.32,4.25,9.46.72,1.54.44,2.23-1.33,2.09h-.32c-3.57-.06-7.8,1.06-10.5-.5s-2.4-6.17-3.5-9.43C137.27,27.2,136.23,23.35,134.94,19Z"/><path class="cls-1" d="M79.23,33.6c2.54-5.55,4.77-10.35,6.91-15.18.86-1.92,1.58-3.8,4.19-3.83,2.8,0,3.53,2,4.4,4,2,4.76,4.12,9.5,6.51,15,2.43-5.81,4.6-11,6.81-16.24.44-1,.62-2.41,2.29-2.28,1.49.11,3.52-.39,4.33.4s-.55,2.52-1.09,3.76c-2.73,6.35-5.57,12.65-8.32,19-.78,1.78-1.65,3.33-3.87,3.35s-3.23-1.38-4-3.18c-2.22-5-4.48-10-7-15.66-2.37,5-4.44,9.29-6.52,13.61A24.43,24.43,0,0,1,82,39.83c-1.84,2.61-5.3,2.52-6.57-.35C72.14,32,69.07,24.35,65.88,16.79c-.57-1.35-.07-1.6,1.23-1.71,3-.26,5.18.14,6.26,3.72C74.83,23.61,77.05,28.19,79.23,33.6Z"/><path class="cls-1" d="M127,40.65c-2.49,0-5-.06-7.45,0-1.64,0-2-.64-1.82-2.16,1.19-11.93,2.3-23.86,3.51-35.78.1-.95-.58-2.61,1.43-2.66,1.74,0,1.65,1.44,2,2.46,3.15,8.62,6.24,17.25,5.91,26.65,0,.79-.22,1.85,1,2.05,1,.16,2.27-.29,2.67,1.18.68,2.49,1.49,5,1.94,7.49.17,1-1.12.71-1.79.73C131.94,40.68,129.45,40.65,127,40.65Z"/><path class="cls-1" d="M209.12,14.35c3.68,0,7.36.1,11,0,2-.08,2.85.42,2.8,2.65,0,2-.68,2.58-2.63,2.54-2.57,0-5.92-1.14-7.51.43-1.74,1.73-.47,5.13-.55,7.8-.12,3.45-.17,6.92,0,10.37.13,2.43-1.29,2.26-2.87,2.22s-3.25.44-3.17-2.26c.17-5.29,0-10.6.09-15.89.05-2.09-.52-3-2.72-2.75-1.71.17-3.47-.09-5.18.06-2.13.19-3-.32-3.06-2.75,0-2.62,1.37-2.41,3-2.39C202,14.37,205.55,14.35,209.12,14.35Z"/><path class="cls-1" d="M15.71,41c-2.81,0-5.62.16-8.41,0-4.85-.35-7-2.56-7.19-7.43C-.06,28,.12,22.53,0,17c0-2.35,1.46-2,2.8-1.9S6,14.4,5.9,17c-.11,4.75-.05,9.49,0,14.24,0,3.73.89,4.61,4.54,4.65,4.43,0,8.85.1,13.27,0,2.07-.07,2.25.94,2.22,2.56s.07,2.77-2.12,2.64c-2.68-.16-5.39,0-8.08,0Z"/><path class="cls-1" d="M256.35,21.49c-.24-4.62-2.56-6.78-7.23-7-2.48-.12-5,0-7.46,0h0c-2.59,0-5.19-.13-7.77,0-4.31.26-6.34,2.09-6.81,6.32a58,58,0,0,0,0,13.56,5.76,5.76,0,0,0,5.45,5.48,75.36,75.36,0,0,0,17.44.08c4.34-.47,6.12-2.46,6.33-6.79A116.27,116.27,0,0,0,256.35,21.49Zm-9.91,13.72c-1.72-.08-3.45,0-5.18,0-8-.16-8.84,1.72-8.67-8.61,0-.65,0-1.3,0-1.94.09-4.62.63-5.16,5.3-5.19,3,0,6,.05,9.07,0,2.44,0,3.56,1.25,3.6,3.58,0,2.7,0,5.4,0,8.1S249.32,35.35,246.44,35.21Z"/><path class="cls-1" d="M182.49,15.9a4.61,4.61,0,0,0-7.91-.19c-5.21,7.91-10.15,16-15.3,24.16,4.52,1.35,7.62.39,9.2-3.86.53-1.42,1.7-1.7,3.14-1.68,4.32.08,8.64.13,13,0a4.11,4.11,0,0,1,4.13,2.31c2.54,4.24,3.42,4.48,8.77,3.14C192.47,31.75,187.59,23.75,182.49,15.9Zm-8.24,14c-2,0-1.52-.88-.86-2l5-8.09c2.07,3.38,3.94,6.45,6.14,10C180.65,29.85,177.45,29.82,174.25,29.87Z"/><path class="cls-1" d="M52,16.27c-1.83-2.75-6-2.25-7.95.77-4.89,7.64-9.64,15.37-14.42,23.08-.13.21,0,.55,0,.73,4.12.94,7.3.1,8.85-4.17.47-1.31,1.52-1.58,2.84-1.56,4.54.07,9.09.1,13.62,0,1.62,0,2.8.39,3.35,1.89,1.6,4.44,4.95,4.62,9.22,3.7C62.29,32.43,57.3,24.25,52,16.27Zm-9.8,14.3,6-10c2.08,3.4,3.92,6.42,6.08,10Z"/></g></g></svg>