<svg xmlns="http://www.w3.org/2000/svg" viewBox="0 0 400 400"><defs><style>.cls-1{fill:#fff;}.cls-2{fill:none;}</style></defs><title>Asset 113</title><g id="Layer_2" data-name="Layer 2"><g id="Layer_1-2" data-name="Layer 1"><path class="cls-1" d="M238.05,186.3a7.64,7.64,0,0,1,5.83-3,5.9,5.9,0,0,1,5.62,3.06,12.07,12.07,0,0,1,1.91-1.82c2.88-2.06,7.3-1.53,9.2,1.1a6.29,6.29,0,0,1,1.08,3.72q.07,6,0,12A2.51,2.51,0,0,1,258.5,204a2.62,2.62,0,0,1-1.88-2.72c0-2.45,0-4.9,0-7.36,0-1.36,0-2.72-.12-4.07a2.61,2.61,0,0,0-4.08-2.24c-1.64.87-2.08,2.39-2.2,4.09-.19,3-.07,5.92-.1,8.88a6,6,0,0,1-.18,1.73,2.43,2.43,0,0,1-2.38,1.79,2.38,2.38,0,0,1-2.36-1.81,5.74,5.74,0,0,1-.2-1.65c0-3.21,0-6.42,0-9.62a6.87,6.87,0,0,0-.29-2.16,2.12,2.12,0,0,0-2.22-1.63,3.21,3.21,0,0,0-3.62,2.75,14.5,14.5,0,0,0-.42,3.53q0,3.69,0,7.36a4.51,4.51,0,0,1-.26,1.64,2.36,2.36,0,0,1-2.23,1.59,2.42,2.42,0,0,1-2.31-1.48,4,4,0,0,1-.31-1.56c0-5,0-10.06,0-15.08,0-1.91,1.14-3,2.77-2.71a2.23,2.23,0,0,1,1.89,1.94C238,185.53,238,185.84,238.05,186.3Z"/><path class="cls-1" d="M96.66,210.22l9,9a10.56,10.56,0,0,1-4,5.66,43.66,43.66,0,0,1-10.31,5.92c-2.5,1.12-5,2.15-7.57,3.2a5.18,5.18,0,0,1-1.6.47c-.58.06-.81-.23-.73-.78a3.37,3.37,0,0,1,.21-.77,117.93,117.93,0,0,1,6.81-15A21.18,21.18,0,0,1,93.19,212,7.87,7.87,0,0,1,96.66,210.22Z"/><path class="cls-1" d="M305.87,186.31a12,12,0,0,1,1.61-1.59c2.76-2.28,9-2.45,10.72,2.9a7.17,7.17,0,0,1,.35,2.15c0,3.88.05,7.77,0,11.65a2.46,2.46,0,0,1-3.1,2.62,2.1,2.1,0,0,1-1.67-1.72,5.46,5.46,0,0,1-.16-1.51c0-2.94,0-5.88,0-8.82a10.53,10.53,0,0,0-.26-2.23c-.43-2-1.67-2.91-4.12-2.41a4.33,4.33,0,0,0-3.22,3.73,25,25,0,0,0-.16,3.56c0,2,0,4.08,0,6.12a7,7,0,0,1-.12,1.3,2.35,2.35,0,0,1-2.51,2.06,2.26,2.26,0,0,1-2.28-2.2,8.92,8.92,0,0,1-.06-1.16V179a5.49,5.49,0,0,1,.17-1.66,2.22,2.22,0,0,1,2.24-1.72,2.27,2.27,0,0,1,2.35,1.68,5.25,5.25,0,0,1,.22,1.58c0,2.19,0,4.37,0,6.56Z"/><path class="cls-1" d="M201.8,200.62a13.26,13.26,0,0,1-2.06,2,7.57,7.57,0,0,1-8.66.09,5.7,5.7,0,0,1-2.22-4.64c-.09-4.13-.07-8.26,0-12.38a2.33,2.33,0,0,1,2.37-2.52,2.41,2.41,0,0,1,2.47,2.28,11.38,11.38,0,0,1,.1,1.3q0,4.45,0,8.89a7.82,7.82,0,0,0,.27,1.87,3.13,3.13,0,0,0,4.57,2.22,4.34,4.34,0,0,0,2.76-3.87c.26-3,.08-6,.14-9,0-.36,0-.73,0-1.09a2.49,2.49,0,0,1,2.45-2.56,2.45,2.45,0,0,1,2.48,2.59,5.62,5.62,0,0,1,0,.58c0,4.88,0,9.77,0,14.65a5.28,5.28,0,0,1-.15,1.37,2.22,2.22,0,0,1-4.2.37A4.63,4.63,0,0,1,201.8,200.62Z"/><path class="cls-1" d="M175.84,204.05c-3.53,0-6.29-1-8.25-3.72a9.67,9.67,0,0,1-1.71-4.81,12.41,12.41,0,0,1,1.7-8.31,8.78,8.78,0,0,1,6.52-3.91,10.58,10.58,0,0,1,6.76,1.2,6.49,6.49,0,0,1,3.39,4.08,2.2,2.2,0,0,1-2.35,2.79,1.71,1.71,0,0,1-1.15-.56,19.61,19.61,0,0,1-1.41-1.85,4.46,4.46,0,0,0-7.69.78,8.82,8.82,0,0,0-.08,7.81,4.61,4.61,0,0,0,8.05.68c.38-.53.68-1.12,1.06-1.66a2,2,0,0,1,2.57-.89,2.37,2.37,0,0,1,1.29,2.61,6.87,6.87,0,0,1-4.17,4.82A9.92,9.92,0,0,1,175.84,204.05Z"/><path class="cls-1" d="M288.59,194c0-2.14,0-3.91,0-5.68,0-.67-.07-1-.87-.95a1.83,1.83,0,1,1,0-3.64c.7,0,.89-.2.87-.9,0-1.36,0-2.72.07-4.08a2.37,2.37,0,0,1,2.34-2.47,2.43,2.43,0,0,1,2.49,2.41,39.79,39.79,0,0,1,.08,4.37c0,.5.14.69.66.65a12.21,12.21,0,0,1,1.6,0,1.76,1.76,0,0,1,1.72,1.66,1.66,1.66,0,0,1-1.47,1.85,6.27,6.27,0,0,1-1.88.15c-.46,0-.63.09-.63.59,0,3.28,0,6.56,0,9.84a5.73,5.73,0,0,0,.08,1,1.34,1.34,0,0,0,1.56,1.27,12.61,12.61,0,0,0,1.73-.23,1.7,1.7,0,0,1,2,.9,1.94,1.94,0,0,1-.56,2.3,4.4,4.4,0,0,1-2.06.84,11,11,0,0,1-4.27,0,3.88,3.88,0,0,1-3.28-3.51A44.7,44.7,0,0,1,288.59,194Z"/><path class="cls-1" d="M168.71,217.4c1.66-1.32,2.67-1.24,3.65.35a2.41,2.41,0,0,1,2.37-1.24,2,2,0,0,1,2,1.74,34.35,34.35,0,0,1,.1,4.65c0,.55-.44.31-.71.35s-.54,0-.53-.45c0-1.29,0-2.58,0-3.86,0-1.1-.52-1.58-1.5-1.51a1.37,1.37,0,0,0-1.31,1.46c0,1.26,0,2.53,0,3.79,0,.44-.11.6-.57.59s-.65-.08-.64-.59c0-1.24,0-2.48,0-3.72,0-.58-.11-1.2-.77-1.45a1.66,1.66,0,0,0-1.74.42,1,1,0,0,0-.34.84c0,1.29,0,2.57,0,3.86,0,.44-.06.65-.58.65s-.64-.19-.63-.68c0-1.77,0-3.54,0-5.32,0-.28-.22-.71.39-.74s.68.25.68.7C168.61,217.28,168.65,217.31,168.71,217.4Z"/><path class="cls-1" d="M289.67,217.42c1.71-1.34,2.71-1.26,3.68.34a2.4,2.4,0,0,1,2.36-1.25,2,2,0,0,1,2,1.73,34.46,34.46,0,0,1,.1,4.66c0,.54-.43.32-.7.35s-.55,0-.54-.44c0-1.29,0-2.58,0-3.86,0-1.08-.48-1.55-1.42-1.52a1.36,1.36,0,0,0-1.39,1.45c0,1.27,0,2.53,0,3.79,0,.42-.09.62-.56.6s-.67-.06-.65-.59c0-1.23,0-2.47,0-3.71,0-.58-.11-1.2-.76-1.45a1.62,1.62,0,0,0-1.75.41,1,1,0,0,0-.34.83c0,1.31,0,2.62,0,3.93,0,.45-.13.59-.58.58s-.65-.07-.64-.59c0-1.82,0-3.64,0-5.46,0-.27-.17-.66.38-.68s.69.15.68.62C289.58,217.22,289.63,217.29,289.67,217.42Z"/><path class="cls-1" d="M312.89,217.43a3.54,3.54,0,0,1,2.15-.93,2.1,2.1,0,0,1,2.33,2.08c.09,1.42,0,2.86,0,4.29,0,.56-.4.35-.67.39s-.54-.06-.53-.47c0-1.17,0-2.33,0-3.5,0-.72,0-1.44-.84-1.77a2.21,2.21,0,0,0-2.26.62.94.94,0,0,0-.22.74c0,1.24,0,2.48,0,3.71,0,.48-.07.7-.62.69s-.59-.19-.59-.64q0-4.2,0-8.38c0-.49.1-.68.64-.68s.58.24.57.66C312.88,215.26,312.89,216.28,312.89,217.43Z"/><path class="cls-1" d="M219.05,216.81c-.8.73-1.6,1.47-2.42,2.18-.39.34-.44.59-.07,1,.87,1,1.68,2.07,2.57,3.17a1.51,1.51,0,0,1-1.81-.53c-.53-.75-1.16-1.44-1.74-2.16-.22-.27-.46-.55-.85-.42s-.18.5-.2.76c0,.66,0,1.31,0,2,0,.5-.28.46-.61.46s-.61,0-.61-.46c0-2.91,0-5.83,0-8.74,0-.5.28-.46.61-.47s.61,0,.6.49c0,1.48,0,3,0,4.44,0,.22-.14.52.18.63s.5-.07.7-.28A19.63,19.63,0,0,0,217,217.2a1.69,1.69,0,0,1,1.83-.61Z"/><path class="cls-1" d="M191.43,223.18a1.58,1.58,0,0,1-1.94-.69c-.52-.73-1.13-1.4-1.69-2.1a.7.7,0,0,0-.76-.32c-.37.11-.2.45-.2.68,0,.68,0,1.36,0,2,0,.49-.26.48-.6.47s-.61.06-.61-.45q0-4.38,0-8.74c0-.49.26-.48.6-.48s.62,0,.61.48c0,1.5,0,3,0,4.51,0,.2-.11.48.17.57a.59.59,0,0,0,.65-.22,21,21,0,0,0,1.68-1.72,1.68,1.68,0,0,1,1.83-.62l.2.22c-.8.73-1.59,1.48-2.42,2.17-.47.39-.4.66,0,1.08C189.76,221.05,190.56,222.09,191.43,223.18Z"/><path class="cls-1" d="M197.29,217.47a3.25,3.25,0,0,1,2.32-1,2.12,2.12,0,0,1,2.17,2.17c.07,1.39,0,2.77,0,4.16,0,.45-.24.45-.55.43s-.66.11-.65-.43c0-1.19,0-2.38,0-3.57,0-.72-.06-1.43-.88-1.75a2.26,2.26,0,0,0-2.25.65,1,1,0,0,0-.19.75c0,1.26,0,2.52,0,3.79,0,.45-.14.58-.58.57s-.65-.08-.64-.59c0-1.8,0-3.6,0-5.39,0-.28-.22-.71.39-.75s.68.24.68.7C197.18,217.28,197.22,217.32,197.29,217.47Z"/><path class="cls-1" d="M232.9,223.4a3.12,3.12,0,0,1-1.54-.47c-.22-.15-.65-.23-.39-.69s.52-.37.86-.16a2.24,2.24,0,0,0,1.44.4c.63,0,1.17-.28,1.27-1s-.42-.86-.92-1-.88-.27-1.31-.43c-.91-.34-1.34-.87-1.34-1.62a1.87,1.87,0,0,1,1.39-1.76,3.27,3.27,0,0,1,2.68.25c.22.12.6.21.38.63s-.46.37-.79.17a2.22,2.22,0,0,0-1.47-.27,1,1,0,0,0-1,.8c-.11.55.3.77.72.94s1.06.35,1.58.55a1.55,1.55,0,0,1,1.21,1.46,1.89,1.89,0,0,1-1.1,1.89A3.28,3.28,0,0,1,232.9,223.4Z"/><path class="cls-1" d="M268.67,223.4c-1.28,0-1.87-.54-1.89-1.64s0-2.37,0-3.56c0-.44-.07-.71-.59-.63-.3,0-.52,0-.55-.41s.26-.41.47-.4c.57,0,.75-.27.75-.79a10,10,0,0,1,.15-1.08c0-.36.19-.56.61-.53s.32.34.33.58c0,.53-.14,1.18.11,1.56s.94.12,1.44.15c.33,0,.4.18.4.46s0,.49-.38.46h-.08c-.47.05-1.1-.22-1.39.13s-.08,1-.09,1.48c0,.78,0,1.56,0,2.33s.45,1.18,1.21.84c.39-.17.58-.12.75.23s-.2.48-.41.58A5.07,5.07,0,0,1,268.67,223.4Z"/><path class="cls-1" d="M281.36,220c0-.61,0-1.22,0-1.82,0-.44-.11-.64-.57-.58-.28,0-.53,0-.56-.39s.22-.42.45-.42c.6,0,.77-.3.78-.84,0-.38.12-.77.16-1.15s.26-.41.56-.41.37.23.36.49v.29c0,1.42,0,1.44,1.45,1.51.38,0,.5.14.5.51s-.22.41-.51.42c-1.44.06-1.44.06-1.44,1.51,0,.82,0,1.65,0,2.47s.46,1.13,1.19.79c.42-.19.64-.1.79.28s-.26.46-.48.55a2.31,2.31,0,0,1-1.77.09,1.3,1.3,0,0,1-.91-1.27c0-.68,0-1.36,0-2Z"/><path class="cls-1" d="M307,220c0-.46,0-.92,0-1.38s.19-1.25-.81-1.08c-.23,0-.3-.19-.31-.4s0-.35.26-.35c1.17,0,.92-.89,1.06-1.56.08-.36-.08-.89.59-.88.26,0,.42.07.4.37a2.81,2.81,0,0,0,0,.29c0,.51-.14,1.13.1,1.49s.9.12,1.38.14.46.13.46.47-.13.45-.46.46c-.48,0-1.14-.24-1.38.13s-.09,1-.1,1.48c0,.78,0,1.56,0,2.33s.45,1.17,1.23.82c.39-.17.57-.09.74.25s-.22.47-.43.57a2.51,2.51,0,0,1-1.27.24,1.44,1.44,0,0,1-1.45-1.5.76.76,0,0,1,0-.15Z"/><path class="cls-1" d="M248.09,217.72a2.21,2.21,0,0,1,2.2-1.21c.4,0,.72.09.64.63s-.22.66-.76.54a1.76,1.76,0,0,0-2.14,1.76c0,1,0,2.08,0,3.12,0,.43,0,.73-.58.72s-.64-.2-.63-.68c0-1.79,0-3.59,0-5.38,0-.32-.11-.69.46-.68s.61.27.61.68C247.9,217.38,247.85,217.57,248.09,217.72Z"/><path class="cls-1" d="M221.63,220c0,.9,0,1.79,0,2.69,0,.49-.15.61-.62.6s-.59-.1-.58-.57c0-1.86,0-3.73,0-5.59,0-.47.16-.56.58-.57s.64.11.62.6C221.61,218.09,221.63,219,221.63,220Z"/><path class="cls-1" d="M193.94,220c0,.89,0,1.79,0,2.69,0,.49-.16.61-.62.6s-.6-.1-.59-.56c0-1.87,0-3.74,0-5.6,0-.55.25-.55.66-.57s.55.19.54.6C193.92,218.09,193.94,219,193.94,220Z"/><path class="cls-1" d="M221,215.28a.79.79,0,0,1-.84-.8.85.85,0,1,1,1.7,0A.81.81,0,0,1,221,215.28Z"/><path class="cls-1" d="M193.3,213.59c.6,0,.89.37.89.84a.85.85,0,0,1-1.7,0A.8.8,0,0,1,193.3,213.59Z"/><path class="cls-1" d="M145.3,165.62a10.64,10.64,0,0,0-3.69.14,45,45,0,0,0-9.7,3.27,37.51,37.51,0,0,0-16.6,13.06,80.2,80.2,0,0,1-6.07,8.36c-.29.32-.47.42-.9.23a24.22,24.22,0,0,0-8.44-2.32c-3.39-.22-6.4.58-8.75,3.2-2,2.16-3.91,4.32-5.85,6.49a28.32,28.32,0,0,0-3,3.6A2.88,2.88,0,0,0,84,206.07a3.69,3.69,0,0,0,2.55-.25,52.56,52.56,0,0,0,5.39-2.88,5.49,5.49,0,0,1,5-.24c.64.25.7.48.39,1.08-1.24,2.41-1.14,2.94.71,4.93l0,.06c0,.27.24.41.41.58l8.06,8.06c.15.15.28.34.52.38a2.72,2.72,0,0,0,3.36.32c.47-.24.94-.5,1.4-.77.24-.13.41-.2.58.12a7.37,7.37,0,0,1,1.18,4.35,9,9,0,0,1-1.44,3.39,26.52,26.52,0,0,0-2.35,4.67,3.11,3.11,0,0,0,1,3.6,2.92,2.92,0,0,0,3.7-.17c.25-.19.52-.37.75-.58,2.83-2.52,5.6-5.11,8.48-7.56,3.35-2.83,4.17-6.44,3.59-10.56a25.93,25.93,0,0,0-2.68-8,.68.68,0,0,1,.2-1,82.31,82.31,0,0,1,6.89-5,37.83,37.83,0,0,0,9-8.24,54.79,54.79,0,0,0,7.69-15.69,18.32,18.32,0,0,0,1-6.14C149.38,167.67,148,166.1,145.3,165.62Zm-15,25.27a6.11,6.11,0,1,1,6.07-6.08A6.18,6.18,0,0,1,130.28,190.89Z"/><path class="cls-1" d="M284.4,201a15.9,15.9,0,0,1-.75-5.45,49.53,49.53,0,0,0-.06-6.33c-.26-3.09-1.67-4.92-4.41-5.62a16.59,16.59,0,0,0-5.21-.4,10,10,0,0,0-5.35,1.66,4.7,4.7,0,0,0-2.23,4,1.9,1.9,0,0,0,1.49,1.83,1.72,1.72,0,0,0,2.13-.77c.25-.37.48-.73.72-1.1a4.07,4.07,0,0,1,3.09-2,10.67,10.67,0,0,1,2.33,0,2.46,2.46,0,0,1,2.38,2.08c.08.38.14.76.23,1.14a.6.6,0,0,1-.53.82c-.78.17-1.54.42-2.32.6-2.1.49-4.23.88-6.3,1.47a5.39,5.39,0,0,0-4.1,5.72,5.63,5.63,0,0,0,4.51,5.22,9.2,9.2,0,0,0,6.48-.92,20.38,20.38,0,0,0,2.62-1.72c.27.4.5.77.76,1.11a9.08,9.08,0,0,0,.89,1.06,2.12,2.12,0,0,0,3.12,0A2.09,2.09,0,0,0,284.4,201Zm-5.87-3.79c-.56,2.74-4,4-6.16,3.29a2.74,2.74,0,0,1-1.89-2.59,2.59,2.59,0,0,1,2-2.5c.66-.22,1.36-.35,2-.51,1.41-.34,2.84-.62,4.28-1.12A14.2,14.2,0,0,1,278.53,197.24Z"/><path class="cls-1" d="M216.12,195c1.6,0,3.21,0,5.14,0,1.61-.06,3.55.12,5.49-.11,1.62-.2,2.5-.91,2.59-2.26a8.26,8.26,0,0,0-3.11-7.4c-2.66-2.13-5.71-2.39-8.9-1.61a8.17,8.17,0,0,0-5.88,5.08,13.22,13.22,0,0,0-.12,9.74,8.25,8.25,0,0,0,3.37,4.18,11.65,11.65,0,0,0,11.84-.12,5.84,5.84,0,0,0,2.43-3,1.74,1.74,0,0,0-.58-2.14,1.88,1.88,0,0,0-2.33.31c-.59.54-1.17,1.09-1.78,1.62a5.44,5.44,0,0,1-4.79,1.35,5.15,5.15,0,0,1-3.87-5.11C215.6,195.05,215.71,194.94,216.12,195Zm-.48-3.33c.18-1.75,1-4,3.16-4.66,2.56-.8,5,.72,5.58,3.54.33,1.53.33,1.53-1.24,1.53h-6.92C215.93,192,215.6,192.1,215.64,191.62Z"/><path class="cls-1" d="M244.47,222.23a5.83,5.83,0,0,0-1.95-.18,3.11,3.11,0,0,1-1.21-.16c-.24-.1-.42-.27-.34-.56a.57.57,0,0,1,.49-.48,2.17,2.17,0,0,1,.42.07c1.91.14,3.34-.94,2.87-2.79-.08-.33.07-.39.31-.4s.67-.07.61-.52-.41-.23-.64-.26a3.32,3.32,0,0,1-1.36-.15,3.12,3.12,0,0,0-1.62-.29,2.32,2.32,0,0,0-2.24,1.45,2.21,2.21,0,0,0,.85,2.61c-.93.94-.94,1-.38,2,.19.34-.12.31-.24.39a1.37,1.37,0,0,0,.17,2.5,4.37,4.37,0,0,0,2.75.42,2.87,2.87,0,0,0,2.41-1.53A1.41,1.41,0,0,0,244.47,222.23Zm-2.19-4.8a1.31,1.31,0,0,1,1.5,1.37,1.35,1.35,0,0,1-1.49,1.4,1.39,1.39,0,0,1-1.52-1.4A1.33,1.33,0,0,1,242.28,217.43Zm1.48,7.25a2.87,2.87,0,0,1-1.47.28,2.68,2.68,0,0,1-1.34-.26.84.84,0,0,1-.52-1,.93.93,0,0,1,.85-.79,16.23,16.23,0,0,1,2.3.14c.37,0,.77.17.82.67A1,1,0,0,1,243.76,224.68Z"/><path class="cls-1" d="M207.46,222.09c-.68-.05-1.36,0-2-.1-.36,0-.86-.1-.75-.66s.47-.47.91-.43c1.91.18,3.33-.93,2.87-2.77-.09-.33.06-.39.31-.4s.66-.07.6-.52-.41-.23-.64-.26a3.32,3.32,0,0,1-1.36-.15,3.12,3.12,0,0,0-1.62-.29,2.32,2.32,0,0,0-2.24,1.45,2.22,2.22,0,0,0,.85,2.61c-.92.94-.94,1-.37,2,.18.34-.13.31-.25.39a1.36,1.36,0,0,0,.11,2.46,4.37,4.37,0,0,0,4.38-.1,2,2,0,0,0,1-2C209.06,222.58,208.45,222.16,207.46,222.09Zm-1.57-4.66c1,0,1.58.46,1.59,1.35A1.35,1.35,0,0,1,206,220.2a1.4,1.4,0,0,1-1.54-1.38A1.32,1.32,0,0,1,205.89,217.43Zm1.62,7.22A2.68,2.68,0,0,1,206,225a2.81,2.81,0,0,1-1.4-.27.83.83,0,0,1-.51-1,1,1,0,0,1,.87-.77,17.75,17.75,0,0,1,2.3.14c.36,0,.73.17.79.62A.89.89,0,0,1,207.51,224.65Z"/><path class="cls-1" d="M229.34,222.53c0-2.77,0-5.54,0-8.31,0-.44-.09-.65-.6-.64s-.62.17-.61.64c0,.95,0,1.91,0,2.92-1.87-1-3.42-.78-4.27.62a4.35,4.35,0,0,0,0,4.51,2,2,0,0,0,1.75,1,3,3,0,0,0,2.53-1,3.35,3.35,0,0,1,.08.33c.05.44.2.7.73.67S229.34,222.81,229.34,222.53Zm-1.18-1.85a1.67,1.67,0,0,1-1.52,1.7,1.58,1.58,0,0,1-2-1.27,4.32,4.32,0,0,1,0-2.23,1.87,1.87,0,0,1,2.33-1.43,1.3,1.3,0,0,1,1.16,1.41v1.82Z"/><path class="cls-1" d="M253.56,219.9c.63,0,1.26,0,1.89,0s1.31,0,2,0c.38,0,.5-.17.52-.52a2.71,2.71,0,0,0-2.5-2.88c-2.24-.16-3.58,1.2-3.52,3.58a3,3,0,0,0,1.71,2.89,3.83,3.83,0,0,0,3.81-.33c.18-.11.47-.24.24-.56a.5.5,0,0,0-.74-.2,4.46,4.46,0,0,1-.92.41,2.14,2.14,0,0,1-2.9-1.88C253.08,220.07,253.13,219.88,253.56,219.9Zm-.27-1.39a1.83,1.83,0,0,1,2-1.08,1.52,1.52,0,0,1,1.44,1.12c.15.41.12.69-.45.64a11.28,11.28,0,0,0-1.3,0c-.44,0-.88,0-1.31,0C253,219.25,253.1,218.93,253.29,218.51Z"/><path class="cls-1" d="M279.09,222.64c0-1.34,0-2.68,0-4a2.07,2.07,0,0,0-1.58-2,3.68,3.68,0,0,0-3,.61c-.19.13-.46.24-.26.57a.5.5,0,0,0,.74.2c.31-.14.59-.34.91-.45,1.23-.42,2.07.16,2.08,1.4,0,.39-.09.55-.52.56a7.08,7.08,0,0,0-2.27.43c-1.15.43-1.63,1.24-1.34,2.23a1.91,1.91,0,0,0,2.33,1.23,4,4,0,0,0,1.86-1,2.87,2.87,0,0,1,.13.38c.07.39.32.5.69.45S279.09,222.86,279.09,222.64Zm-1.22-1.8a1.09,1.09,0,0,1-.7,1.39,1.82,1.82,0,0,1-1.8.15,1,1,0,0,1,0-1.67,3.94,3.94,0,0,1,2.23-.5C278.18,220.23,277.8,220.73,277.87,220.84Z"/><path class="cls-1" d="M264.52,222.6c0-1.31,0-2.62,0-3.93A2,2,0,0,0,263,216.6a3.68,3.68,0,0,0-3.11.61c-.19.14-.42.27-.21.59a.49.49,0,0,0,.69.19,9.7,9.7,0,0,1,1-.48c1.21-.4,2,.17,2.05,1.37,0,.42-.08.58-.55.61a5.66,5.66,0,0,0-2.79.69,1.69,1.69,0,0,0,.49,3.14,3.18,3.18,0,0,0,2.92-.91c.05.17.09.26.11.35a.54.54,0,0,0,.66.5C264.69,223.22,264.51,222.85,264.52,222.6Zm-1.23-1.76c.22.81-.22,1.13-.71,1.39a1.8,1.8,0,0,1-1.79.15,1,1,0,0,1,0-1.67,4,4,0,0,1,2.24-.5C263.6,220.23,263.22,220.73,263.29,220.84Z"/><path class="cls-1" d="M304.75,222.66c0-1.34,0-2.67,0-4a2.05,2.05,0,0,0-1.56-2.05,3.69,3.69,0,0,0-3.11.62c-.16.12-.39.23-.23.52a.48.48,0,0,0,.66.27c.34-.14.64-.36,1-.48,1.25-.45,2.12.17,2.1,1.44,0,.37-.1.5-.49.51a6.82,6.82,0,0,0-2.48.5,1.73,1.73,0,0,0-1.2,2,1.77,1.77,0,0,0,2,1.43,3.4,3.4,0,0,0,2.24-1c.06.18.12.31.15.44.08.37.32.44.65.42S304.75,222.89,304.75,222.66Zm-1.92-.43a1.82,1.82,0,0,1-1.8.15,1,1,0,0,1,0-1.71,4.33,4.33,0,0,1,1.66-.46c.59-.08,1.07-.05.83.74C303.74,221.64,303.31,222,302.83,222.23Z"/><path class="cls-1" d="M183.59,218.53a2,2,0,0,0-1.59-1.95,3.74,3.74,0,0,0-3.05.63c-.19.14-.42.26-.22.58a.5.5,0,0,0,.69.2c.33-.15.63-.36,1-.48,1.24-.41,2.06.19,2.06,1.44,0,.42-.15.51-.55.53a6,6,0,0,0-2.79.7,1.59,1.59,0,0,0-.87,1.63,1.63,1.63,0,0,0,1.35,1.51,3.18,3.18,0,0,0,2.92-.91c.09.25.14.44.21.62s.4.23.64.22.26-.23.26-.42C183.61,221.39,183.64,220,183.59,218.53Zm-1.93,3.71a1.77,1.77,0,0,1-1.79.13,1,1,0,0,1,.08-1.71,4.25,4.25,0,0,1,2.1-.46c.39,0,.39,0,.39.88C182.6,221.68,182.14,222,181.66,222.24Z"/><rect class="cls-2" width="400" height="400"/></g></g></svg>