<svg xmlns="http://www.w3.org/2000/svg" viewBox="0 0 203.08 91.82"><defs><style>.cls-1{fill:#fff;}.cls-2{fill:#afafaf;}</style></defs><title>Asset 41</title><g id="Layer_2" data-name="Layer 2"><g id="Layer_1-2" data-name="Layer 1"><path class="cls-1" d="M30.64,59.39c-5.52,4.29-11.71,5.22-18.23,4.54C5.43,63.19,1,58.74.25,52.29s3.31-13,9.46-14.51c4.88-1.19,9.88-1.38,14.74-2.47,3-.66,6.13-1.09,5.87-5.33-.22-3.5-2.31-5.16-6.77-5.32-5.2-.18-7,.88-9,5.39-.32.75-.56,1.42-1.44,1.42-3.37,0-6.75.12-10.11-.08-2.06-.12-1.22-2-1-3,1.14-6.18,5.59-9.65,11.1-11a42.62,42.62,0,0,1,21,0c6.09,1.59,8.87,5.67,9,12.12.27,10.6-1,21.25,1,31.77.29,1.54-.29,1.7-1.45,1.69-3,0-6-.09-9,0C31.21,63.12,31.57,61,30.64,59.39Zm-10.36-3.8c6.41,0,9.65-3,10.07-9.35.3-4.6.3-4.59-4.43-3.73-2.32.42-4.67.64-7,1.17-4.51,1-6.4,3.41-6,7.14C13.4,54,15.79,55.56,20.28,55.59Z"/><path class="cls-1" d="M182.9,64.09c-7.27,0-13.39-.83-18.13-5.73a13.8,13.8,0,0,1-2.06-2.64c-1.25-2.18-2.7-4.81-1.53-7,.87-1.66,3.67-.57,5.6-.64,2.93-.09,5.68-.84,7.11,3.6,1.51,4.69,11.83,5.35,15.16,1.53,2.34-2.68.83-6.5-2.88-7.44-4.63-1.18-9.28-2.31-13.84-3.71-7.67-2.35-10.68-5.77-10.64-11.63,0-7,3.5-11.42,11.28-13.32,7.53-1.84,15.1-1.91,22.12,2.16a12.23,12.23,0,0,1,3.4,2.87c1.78,2.28,3.81,5.09,2.64,7.79-.89,2-4.06.72-6.19.82-2.57.11-5.05.65-6.44-3.06-1.32-3.48-9.95-4.21-12.79-1.59-2,1.82-1.8,3.77.22,5.42a12.69,12.69,0,0,0,5.46,2.32c4.38,1,8.8,1.72,13,3.31,4.66,1.76,8,4.63,8.46,9.89.5,5.94-1.49,10.8-6.81,14A24.4,24.4,0,0,1,182.9,64.09Z"/><path class="cls-1" d="M112.81,17.51c3.37.19,4.55-1.15,4.57-4.74.05-7.23,4.85-11.9,12.19-12.66A26.88,26.88,0,0,1,132.93,0c7.13.1,6.1-.69,6.34,6.52.1,2.74-.86,3.29-3.39,3.19-4.58-.18-5.88,1.18-6,5.05,0,2,.71,2.73,2.62,2.49a4.66,4.66,0,0,1,1.12,0c1.53.22,3.92-.89,4.44.73a13.57,13.57,0,0,1,0,7c-.42,1.74-2.62,1-3.95.89-3.49-.4-4.39,1-4.32,4.37.23,9.85,0,19.71.14,29.57,0,2.36-.55,3.23-3.09,3.27-9.72.13-9.72.22-9.72-9.33,0-7.73-.14-15.47.08-23.2.1-3.41-.56-5.31-4.44-4.62-.66.12-1.42-.35-2.13-.55C110.41,22.51,111.71,20,112.81,17.51Z"/><path class="cls-1" d="M86.66,60.14c-2,.21-1.6-1.53-1.93-2.54-1.8-5.54-3.5-11.12-5.27-16.67-.32-1-.4-2.45-1.8-2.49s-1.51,1.41-1.82,2.43c-1.77,5.68-3.46,11.38-5.31,17-.42,1.29-.35,3.05-2.17,3.53q-2.86-9.31-5.74-18.65c2,.15,1.65-1.65,2-2.63Q68,30.05,71.07,19.84c.57-1.86,1.44-2.48,3.4-2.51,9-.15,8.84-.18,11.5,8.28,2,6.31,4.27,12.52,5.81,19Q89.21,52.35,86.66,60.14Z"/><path class="cls-1" d="M157.22,40.17c0,6.48-.09,13,0,19.45.06,2.48-.81,3.15-3.23,3.16-9.39,0-9.39.11-9.39-9.39,0-11,0-21.95,0-32.92,0-2.3.42-3.25,3.06-3.26,9.53,0,9.53-.13,9.53,9.49V40.17Z"/><path class="cls-2" d="M86.66,60.14q2.55-7.78,5.12-15.58C95.1,37,97.11,28.93,99.48,21c.88-2.94,2.2-4,5.16-3.67,2.7.27,5.45.12,8.17.15-1.1,2.53-2.4,5-2.11,7.9-1.81.52-1.85,2.22-2.28,3.57-3.24,10.17-6.51,20.33-9.57,30.57C98.11,62.05,97,63,94.4,62.73a44,44,0,0,0-6,0C86.49,62.75,86,61.87,86.66,60.14Z"/><path class="cls-2" d="M62.62,42.79q2.88,9.33,5.74,18.65c.92,1.3,0,1.42-1,1.42-2.74,0-5.49-.09-8.24,0-2.19.06-2.18-1.78-2.59-3-2.82-8.63-5.52-17.29-8.26-25.94q-2.58-8.14-5.14-16.29a6,6,0,0,1,1-.25c10.45-.55,10.46-.55,13.54,9.4Z"/><path class="cls-1" d="M150.23,10.52c-6.63-.22-5.53,1.73-5.61-7.9,0-1.87.58-2.78,2.57-2.6,1.23.11,2.48,0,3.72,0,6.28.07,6.1.08,6.36,6.2.14,3.35-.74,4.92-4.27,4.28A19,19,0,0,0,150.23,10.52Z"/><path class="cls-1" d="M37.09,84.55c0-6.92.4-7.26,7.31-6.23,3.7.56,5.35,2.72,5.22,6.86-.12,3.82-1.93,5.91-5.48,6.31C37.11,92.28,37.1,92.27,37.09,84.55Zm2,.45c.63,1.65-1.67,5.12,3,4.87,4-.22,5.54-1.32,5.62-4.83.08-3.74-1.23-4.68-5.24-5.05C38.17,79.59,39.2,82.43,39.1,85Z"/><path class="cls-1" d="M30.71,88.46c.73-3.67-.34-7,.74-10.12l1.19,0c0,4.06.33,8.17-.14,12.18-.24,2.06-1.78.8-2.6-.15-2.42-2.8-4.8-5.63-7.51-8.82-.86,3.54.4,6.91-1.32,9.9a32,32,0,0,1-.52-12.23c.22-2,1.85-.59,2.61.3C25.6,82.32,28,85.2,30.71,88.46Z"/><path class="cls-1" d="M179.14,91.62c-4.33-.07-7.13-2.81-7.07-6.91s3.09-6.77,7.35-6.75c4.47,0,7.29,2.87,7.14,7.22C186.41,89.37,183.73,91.69,179.14,91.62Zm.19-12c-3.32.08-5.32,2.18-5.21,5.48.1,3.12,2.07,5,5.32,4.92s5.42-2.2,5.3-5.4A5.08,5.08,0,0,0,179.33,79.62Z"/><path class="cls-1" d="M201.34,88.77c0-3.55,0-6,0-8.43,0-.52-.35-1.37.56-1.49,1.11-.15,1.07.76,1.08,1.48,0,3,.06,6,0,9,0,.81.34,1.9-.86,2.15-1,.21-1.51-.67-2.07-1.33l-7.24-8.54c-1.1,3.41.19,6.77-.9,10-1.76-.43-1.18-1.76-1.2-2.7-.07-2.86,0-5.72,0-8.59,0-.69-.26-1.6.72-1.87a1.83,1.83,0,0,1,1.91.87C195.76,82.1,198.15,85,201.34,88.77Z"/><path class="cls-1" d="M69.5,82c0,2.84,0,5.44,0,8,0,.51.12,1-.6,1.07a.78.78,0,0,1-.91-.89c0-3.49-.19-7,.12-10.48.17-1.8,1.57-1.11,2.38-.24,2.56,2.76,5.06,5.58,7.81,8.63,1.35-3.35-.4-6.81,1.11-9.77l1.07,0c0,4.11.24,8.24-.13,12.31-.14,1.57-1.69.92-2.5,0-1.94-2.24-3.8-4.54-5.74-6.78C71.5,83.11,71.06,82.13,69.5,82Z"/><path class="cls-1" d="M104,78.27c1.36,0,2.24,0,3.1,0,2.38.18,4.07,1.12,4,3.86s-1.53,3.77-4,3.91a10.49,10.49,0,0,1-2.24,0c-2.61-.43-3.62.59-3.25,3.22.1.71.5,2.07-.76,2.09-1.59,0-.94-1.44-1-2.29-.09-2.11.2-4.26-.09-6.34C99.24,78.91,100.59,77.37,104,78.27ZM105.2,80c-1.31.48-3.59-1.15-3.63,2.12,0,2.5,1.22,2.56,3,2.4s4.44.65,4.55-2.38C109.21,79.35,106.77,80.35,105.2,80Z"/><path class="cls-1" d="M122,91.43c-.58-4.07-.26-8.19-.18-12.29,0-.8.74-.9,1.39-.88a59.36,59.36,0,0,1,7.07.27c2.77.4,3.83,2.8,2.57,5.29-.93,1.82-1.2,3.74-4.5,2.16-3.46-1.65-4.76-.21-5,3.7a13.15,13.15,0,0,1-.33,1.75Zm4.09-7.3c1.34-1.06,4.86,1.48,5.25-2.12.3-2.69-2.45-2-3.86-1.87s-3.94-1.52-4.1,1.84C123.31,83.76,123.88,84.53,126.11,84.13Z"/><path class="cls-1" d="M90.06,91.6c-2.38.25-4.41-.39-5.51-2.77-.3-.65-.65-1.52.31-1.9.73-.28,1.13.38,1.26,1,.46,2.1,2.06,2.12,3.69,2.09s4,.18,4-2.15c.09-2.15-2.21-1.89-3.68-2.29-.36-.1-.76,0-1.11-.15-1.72-.56-3.82-.58-4.34-2.92A3.11,3.11,0,0,1,86.11,79a7.32,7.32,0,0,1,6.48-.54,1.15,1.15,0,0,1,.78,1.49c-.3.79-1,.44-1.56.23a6.51,6.51,0,0,0-1.73-.49c-1.41-.06-3,.08-3.39,1.65-.5,2,1.43,2,2.62,2.41.93.31,2,.21,2.94.46,2,.53,3.88,1.3,3.53,4-.32,2.43-2,3.27-4.17,3.47C91.11,91.64,90.61,91.6,90.06,91.6Z"/><path class="cls-1" d="M136.12,91.24c2-4.29,3.87-8.46,6-12.47.59-1.1,1.78-.52,2.29.56,1.65,3.47,3.26,7,4.9,10.42.29.62.49,1.33-.17,1.61a1.24,1.24,0,0,1-1.67-1c-.55-2.8-2.48-2.77-4.75-2.81s-3.58.43-4.2,2.62C138.32,90.86,137.94,91.56,136.12,91.24Zm9.37-5.31L143,80.45l-2.37,5.48Z"/><path class="cls-1" d="M10,84.51c-1.62,1.64-3.21,1-4.55.94-2.69-.17-4.26.41-3.71,3.54a2.2,2.2,0,0,1-1.13,2.7C-.42,89.43.16,87.14.14,85c-.08-6.84,0-6.85,6.73-6.8.75,0,1.49,0,2.24,0a1,1,0,0,1,1,.91.92.92,0,0,1-1,.9c-1.74,0-3.49.13-5.22,0s-2.15.48-2.14,2.12S2.54,83.94,3.83,84C5.77,84,7.76,83.52,10,84.51Z"/><path class="cls-1" d="M156.84,78.23c1.5,0,3,0,4.5,0,.7,0,1.34.27,1.32,1s-.71,1-1.4.86c-3.64-.68-3.66,1.56-3.48,4.15.13,2,0,4,0,6,0,.49-.06,1.07-.7,1.14-.83.08-1-.51-1-1.18,0-1.62-.05-3.25,0-4.87.12-2.87.69-6-4-5.22a.87.87,0,0,1-1-.83c0-.79.62-1,1.29-1C153.85,78.22,155.35,78.23,156.84,78.23Z"/><path class="cls-1" d="M166.13,85.07c0-1.85,0-3.71,0-5.56a1,1,0,1,1,2,0c0,3.59,0,7.17-.05,10.76a1,1,0,0,1-1.17,1.07c-.59-.09-.76-.57-.77-1.09,0-1.73,0-3.46,0-5.19Z"/><path class="cls-1" d="M15.57,84.84c0,1.73,0,3.46,0,5.2,0,.63-.1,1.29-.92,1.29-.59,0-.8-.49-.8-1,0-3.59,0-7.17,0-10.76,0-.5.1-1,.72-1.1.82-.07,1,.56,1,1.2C15.59,81.38,15.58,83.11,15.57,84.84Z"/><path class="cls-1" d="M116.78,85.22c0,1.6,0,3.21,0,4.82,0,.63,0,1.34-.87,1.3s-.83-.78-.83-1.39c0-3.46,0-6.92,0-10.38,0-.5.11-1,.71-1.11.86-.08,1,.56,1,1.2C116.78,81.51,116.78,83.37,116.78,85.22Z"/><path class="cls-1" d="M63.38,84.71c0,1.87,0,3.73,0,5.59,0,.45,0,1-.67,1.11-.87.11-1.05-.49-1.06-1.13q0-5.4,0-10.8c0-.67.3-1.2,1.11-1.11s.66.66.67,1.13c0,1.74,0,3.47,0,5.21Z"/><path class="cls-1" d="M94.88,81.89c-.13-.17-.34-.32-.36-.48a1.54,1.54,0,0,1,.22-.58c.12.15.33.29.35.46S95,81.68,94.88,81.89Z"/></g></g></svg>