<svg xmlns="http://www.w3.org/2000/svg" viewBox="0 0 400 400"><defs><style>.cls-1{fill:#cacbca;}.cls-2{fill:#b2b2b2;}.cls-3{fill:#fff;}.cls-4{fill:none;}</style></defs><title>Asset 137</title><g id="Layer_2" data-name="Layer 2"><g id="Layer_1-2" data-name="Layer 1"><path class="cls-1" d="M119.91,168.71c-2.39,7-4.76,13.94-7.17,20.9q-7.24,20.88-14.54,41.75c-.17.48-.36,1-.68,1.82l-3.77-19a4.44,4.44,0,0,1-.8-3c1.11-2.76,2.9-5.14,4.45-7.65,6.89-11.13,13.75-22.29,20.74-33.36C118.56,169.56,118.75,168.54,119.91,168.71Z"/><path class="cls-1" d="M74.78,192.87c4.87-2.73,9.75-5.43,14.61-8.18q9.6-5.44,19.15-10.95c3.2-1.85,6.36-3.76,9.55-5.61A2.62,2.62,0,0,1,119,168c.18,1.21-.85,1.69-1.5,2.34Q101.71,186.18,85.81,202c-1.4,1.39-2.53,3-4,4.38-.55.51-1,1.3-1.94,1.1L76,197.15C75.15,195.85,74.27,194.56,74.78,192.87Z"/><path class="cls-2" d="M53,188.09c4.51.69,8.9,2,13.35,2.93,2.8.6,5.6,1.23,8.4,1.85.41,1.42.83,2.85,1.24,4.28"/><path class="cls-2" d="M82.64,208.68c3.1.21,5.94,1.53,9,2.08l1.73.35c.14,1,.29,2,.43,3.08A118.25,118.25,0,0,1,82.64,208.68Z"/><path class="cls-3" d="M120.46,167c-.34-.33-.67.07-1,.21h0c-.45.09-.91.14-1.34.27L61,184.32c-3.25,1-6.48,2-10.11,3.05l2.11.72a6.35,6.35,0,0,0,1.66.49c6.5,2,13.15,3.37,19.8,4.71a4.48,4.48,0,0,0,2.2-.82c6.31-3.56,12.56-7.23,18.88-10.78,7.64-4.28,15.79-9.35,23.51-13.48-.3.34-1.29,1.18-1.61,1.5q-16.39,16.42-32.81,32.83c-1.62,1.62-2.82,3.64-4.76,5,.75.76,1.84.77,2.74,1.18a79.42,79.42,0,0,0,8.23,2.48c.81.19,1.65.55,2.45,0,7.21-11.64,14.39-23.3,21.64-34.91,1.59-2.54,2.9-5.26,5-7.49a.83.83,0,0,0,.34-.78C120.4,167.61,120.82,167.29,120.46,167Z"/><path class="cls-3" d="M228,192.17c-2.76,4.13-5.59,8.21-8.24,12.41-1.22,1.93-1.87,1.65-3-.07a104.29,104.29,0,0,0-8.89-12.21c0,6.4,0,12.8,0,19.2,0,1.28.71,3.13-1.87,3-2.35-.12-1.51-1.84-1.52-3q-.09-11.55,0-23.1c0-1.06-.7-2.59,1.2-2.94,1.53-.28,2.48.4,3.3,1.69,2.56,4,5.3,7.9,7.83,11.93,1.19,1.9,1.88,1.69,3-.07,2.46-3.92,5.12-7.72,7.62-11.63.87-1.35,1.84-2.33,3.54-1.9,2,.51,1.11,2.21,1.12,3.37.08,7.33.11,14.66,0,22,0,1.24,1.24,3.53-1.57,3.57-3.1.05-1.71-2.43-1.74-3.77-.15-6.1-.07-12.2-.07-18.3Z"/><path class="cls-3" d="M291.27,207.48c0-6.31,0-12.62,0-18.92,0-1.32-.62-3.2,1.86-3.08s1.4,1.93,1.42,3q.12,11.36,0,22.71c0,1.06.85,2.59-.75,3.17s-2.38-.63-3.23-1.74c-5.45-7-10.93-14-17.15-22v13.06c0,2.93,0,5.86,0,8.79,0,1.3-.23,2.06-1.79,2s-1.41-1-1.41-2q0-12.45,0-24.91c0-.78-.32-1.81.91-2.08a2.88,2.88,0,0,1,3.13,1.32c4.3,5.62,8.67,11.19,13,16.77,1,1.34,2.1,2.66,3.15,4Z"/><path class="cls-3" d="M300.35,199.86c0-4,.07-8.07,0-12.11,0-1.74.56-2.35,2.32-2.33,5.37.09,10.75,0,16.13,0,1,0,2.35-.32,2.38,1.43,0,2-1.52,1.53-2.62,1.55-4,0-8.07.12-12.1,0-2.22-.08-2.93.62-2.94,2.89-.06,7.15-.16,7.15,7,7.15h7c1,0,2,.06,2,1.5s-1,1.44-2,1.44c-3.79,0-7.59.08-11.37,0-1.83-.05-2.53.43-2.61,2.43-.3,7.74-.39,7.74,7.48,7.74h8.44c1,0,2-.11,2,1.4s-.77,1.56-1.87,1.55c-5.75,0-11.49-.06-17.24,0-1.71,0-2-.72-2-2.19C300.39,208.17,300.35,204,300.35,199.86Z"/><path class="cls-3" d="M335.76,199.67c4.72-4.6,6.2-11.62,12-14.77l1.32,1c-2.11,3.16-4,6.51-6.39,9.44-3.89,4.75-6.07,9.85-5.16,16.1.18,1.23.74,3.13-1.82,3-2.4-.12-1.54-2-1.4-3,.81-6.07-1.06-11.13-4.95-15.78-2.49-3-4.42-6.39-6.72-9.8,2.27-1,3.68-.51,4.93,1.45C330.18,191.52,333,195.51,335.76,199.67Z"/><path class="cls-3" d="M201.36,190.7c-.14-1.4.39-2.92-.63-4.19h0c-.62-1.91-2.24-1.14-3.42-1.14-11-.06-22,0-33,0h-7.88c3.13,1,3,3.41,3,5.76,0,5.87-.07,11.73,0,17.6,0,2.75-.4,5-3.78,5.58,5.86.22,11.48.22,17.09.22s5.76-.25,6.37-6.18c-.21.06-.54.06-.61.19-2.95,5.53-8.15,4.39-12.95,4.35a2.09,2.09,0,0,1-2.19-2.07c-.11-2.93-.06-5.86-.06-8.8,0-1,.5-1.7,1.55-1.6,3.55.31,7.89-1.82,9.81,3.59v-9.74c-1.62,3.75-7.28,6-10.28,3.94-2.53-1.76-.72-5.16-1-7.81-.13-1.05-.66-2.81,1.12-3,2.53-.27,5.14.08,7.68-.18,3.32-.34,4,2.42,5.29,4.52a20.58,20.58,0,0,1,1.48-2.85c1.8-2.4,4.48-1.85,6.77-1.43,1.94.35,1,2.45,1,3.75.1,5.86,0,11.73,0,17.59,0,2.46.42,5.15-3.16,5.64h10.55c-1.94-.77-3.24-1.76-3.2-4.19.13-6.84,0-13.68.06-20.53,0-.9-.28-1.92,1.06-2.4,2.55-.89,6.14.37,7.87,2.91,0,.61-.06,1.34.6,1.56C201.56,192.1,201.42,191.19,201.36,190.7Z"/><path class="cls-3" d="M251.38,185.12a14.5,14.5,0,0,0-14.89,14.73c-.08,8.6,6.08,15.14,14.37,15.25a14.89,14.89,0,0,0,15-14.8A14.64,14.64,0,0,0,251.38,185.12Zm-.26,27c-6.36,0-11.53-5.55-11.44-12.27s5-11.82,11.41-11.82,11.37,5.24,11.33,12.21C262.38,207,257.49,212.15,251.12,212.15Z"/><rect class="cls-4" width="400" height="400"/></g></g></svg>