<svg xmlns="http://www.w3.org/2000/svg" viewBox="0 0 400 400"><defs><style>.cls-1{fill:#fff;}.cls-2{fill:none;}</style></defs><title>Asset 108</title><g id="Layer_2" data-name="Layer 2"><g id="Layer_1-2" data-name="Layer 1"><path class="cls-1" d="M252.21,204.37c0-2.24,0-4.07,0-5.9,0-.43.12-.54.54-.54q4.4,0,8.77,0c.46,0,.52.16.52.56,0,3.51,0,7,0,10.53a1.62,1.62,0,0,0,1.63,1.77c1.43.09,2.17-.38,2.18-1.58a52.39,52.39,0,0,0-.1-6.39,7.53,7.53,0,0,0-2-4c-1.49-1.77-3.25-3.28-4.83-5s-3.4-3.47-4.87-5.4a8.57,8.57,0,0,1-1.77-5.17c0-1.7,0-3.4,0-5.1a11.1,11.1,0,0,1,.87-4.8,7.88,7.88,0,0,1,4.46-4,17.46,17.46,0,0,1,6.15-1.1,19.39,19.39,0,0,1,6.16.64c3.33,1,5.42,3.12,5.71,6.66.25,3.15,0,6.31.1,9.47,0,.35-.11.44-.45.44-3,0-5.93,0-8.9,0-.51,0-.49-.25-.49-.6q0-4.12,0-8.25c0-.94-.29-1.37-1-1.5a1.68,1.68,0,0,0-2.06,1,6.57,6.57,0,0,0-.17,3.32c.06.61,0,1.24.13,1.86a8.39,8.39,0,0,0,2.22,4.38c2,2.3,4.31,4.3,6.38,6.53,1.63,1.75,3.44,3.37,4.39,5.66a9.19,9.19,0,0,1,.8,3.57c0,2.57.07,5.15,0,7.72a8.1,8.1,0,0,1-2.62,6.06,11.12,11.12,0,0,1-6.33,2.55,22.72,22.72,0,0,1-4.28.23,17.15,17.15,0,0,1-6.77-1.42,7.28,7.28,0,0,1-4.19-6.24C252.11,208.26,252.3,206.12,252.21,204.37Z"/><path class="cls-1" d="M167.39,179.11a10.3,10.3,0,0,1,6.08-1.42,7.75,7.75,0,0,1,5.76,2.58,4.52,4.52,0,0,1,1,3.15c0,11.23,0,22.46,0,33.69,0,.47-.14.58-.59.57-2.83,0-5.67,0-8.5,0-.56,0-.63-.19-.63-.67q0-15.44,0-30.88c0-.8-.12-1.57-1-1.93a1.48,1.48,0,0,0-2.16,1.51q0,15.54,0,31.08c0,1,.1.87-.86.87-2.77,0-5.54,0-8.31,0-.45,0-.59-.11-.59-.57q0-19.28,0-38.53c0-.46.14-.59.59-.58,2.82,0,5.63.06,8.44,0C167.61,178,167.32,178.54,167.39,179.11Z"/><path class="cls-1" d="M316.15,200.8q0,8.1,0,16.22c0,.49-.08.67-.63.67q-4.26,0-8.5,0c-.55,0-.64-.18-.64-.67q0-16.19,0-32.38c0-.58-.12-.8-.73-.75s-1.44,0-2.16,0c-.31,0-.42-.09-.41-.41,0-1.7,0-3.4,0-5.1,0-.34.14-.41.43-.4.72,0,1.44,0,2.16,0,.55,0,.77-.1.72-.71a14.58,14.58,0,0,1,.36-4.11c.66-2.9,1.32-3.46,4.17-4.15a12.81,12.81,0,0,1,3.09-.3c2.31,0,4.62,0,6.93,0,.51,0,.62.14.6.62,0,1.42,0,2.84,0,4.25,0,.41-.1.53-.51.51a20.54,20.54,0,0,0-2.6.09c-1.4.1-2.18,1-2.3,2.69-.07,1.11-.07,1.11,1,1.11,1.28,0,2.57,0,3.86,0,.44,0,.54.14.53.55,0,1.6,0,3.19,0,4.78,0,.52-.17.6-.63.59-1.4,0-2.8,0-4.19,0-.5,0-.61.14-.61.62C316.16,189.94,316.15,195.37,316.15,200.8Z"/><path class="cls-1" d="M210.46,198.1c0-5.14,0-9.35,0-13.56,0-.5-.11-.67-.64-.65-1,0-2.09,0-3.14,0-.4,0-.52-.12-.52-.52,0-1.63,0-3.27,0-4.91,0-.37.12-.49.49-.48,1.09,0,2.18,0,3.27,0,.44,0,.54-.14.54-.56,0-2.29,0-4.58,0-6.87,0-.5.14-.61.62-.6,2.83,0,5.67,0,8.5,0,.52,0,.61.17.6.64,0,2.27,0,4.53,0,6.8,0,.45.11.61.58.6,1.33,0,2.66,0,4,0,.4,0,.57.07.57.53,0,1.61,0,3.23,0,4.84,0,.45-.15.55-.56.54-1.36,0-2.71,0-4.06,0-.39,0-.52.1-.52.51q0,12,0,23.94a2.12,2.12,0,0,0,1.8,2.15,12,12,0,0,0,3.22.29c.44,0,.57.12.56.55q0,2.91,0,5.82c0,.4-.11.53-.52.52-2.38,0-4.75,0-7.13,0a21,21,0,0,1-3.78-.47,4,4,0,0,1-3.34-3.36,19.94,19.94,0,0,1-.39-2.88C210.29,206.36,210.57,201.76,210.46,198.1Z"/><path class="cls-1" d="M145.05,193.16q0-11.86,0-23.74c0-.54.12-.69.67-.69q4.77,0,9.55,0c.48,0,.62.11.61.61q0,23.84,0,47.67c0,.51-.11.67-.64.67-3.18,0-6.37,0-9.55,0-.53,0-.64-.15-.64-.66Q145.06,205.09,145.05,193.16Z"/><path class="cls-1" d="M327.65,229.16a3.58,3.58,0,0,1,3.62-1.5,2.3,2.3,0,0,1,1.79,2.37c0,1.65,0,3.31,0,5,0,.48.07.76.61.64s.62.16.58.62c0,.25,0,.4-.35.39h-3.4c-.47,0-.28-.34-.3-.56s-.08-.5.32-.45c.17,0,.35,0,.52,0s.32-.1.32-.34c0-1.72,0-3.44,0-5.16,0-1-.81-1.47-1.91-1.14a3.79,3.79,0,0,0-1.64,1.1.78.78,0,0,0-.15.6c0,1.46,0,2.92,0,4.38,0,.47.13.63.58.56s.62,0,.62.52-.27.48-.62.48c-1,0-2,0-3.07,0-.42,0-.43-.2-.44-.52s0-.58.45-.49c.66.13.76-.18.75-.78,0-1.83,0-3.66,0-5.49,0-.48-.08-.74-.62-.64s-.59-.12-.57-.57.12-.4.42-.4c.67,0,1.35,0,2,0,.41,0,.56.11.51.51A8.25,8.25,0,0,0,327.65,229.16Z"/><path class="cls-1" d="M292.5,229.22a3.54,3.54,0,0,1,3.62-1.56,2.18,2.18,0,0,1,1.8,2.26c0,1.68,0,3.36,0,5,0,.53.1.79.66.67s.66.23.62.7c0,.21-.07.31-.3.31h-3.54c-.44,0-.32-.29-.34-.53s0-.48.39-.49c.9,0,.9,0,.9-1,0-1.2,0-2.4,0-3.6a6.12,6.12,0,0,0-.14-1.28c-.15-.7-.81-1-1.67-.78a3.86,3.86,0,0,0-1.8,1.09.86.86,0,0,0-.18.66c0,1.46,0,2.93,0,4.39,0,.44.13.59.54.51.57-.11.71.16.65.68,0,.26-.11.33-.35.33h-3.41c-.46,0-.29-.33-.31-.55s-.07-.54.32-.45c.87.19.86-.32.85-.95,0-1.79,0-3.57,0-5.36,0-.5-.13-.69-.61-.6s-.6-.18-.58-.62.13-.35.39-.34c.65,0,1.31,0,2,0,.47,0,.63.12.56.57A8.58,8.58,0,0,0,292.5,229.22Z"/><path class="cls-1" d="M193.61,235.23a4.33,4.33,0,0,1-2.49,1.52,2.41,2.41,0,0,1-3-2.52c0-1.63,0-3.27,0-4.9,0-.49-.11-.68-.61-.61-.33.05-.61.07-.6-.46s.23-.51.59-.49c.58,0,1.17,0,1.76,0,.44,0,.59.08.58.56,0,1.85,0,3.7,0,5.56,0,1.34.5,1.8,1.91,1.48a3.73,3.73,0,0,0,1.74-1.09c.19-.18.15-.39.15-.6,0-1.46,0-2.92,0-4.38,0-.47-.14-.62-.58-.57s-.62.08-.62-.46.24-.5.59-.49c.61,0,1.23,0,1.84,0,.43,0,.54.12.54.54,0,2.25,0,4.49,0,6.74,0,.48.1.68.6.6.34,0,.61,0,.61.47s-.25.55-.64.53a12,12,0,0,0-1.7,0c-.55,0-.68-.18-.62-.67C193.63,235.79,193.61,235.59,193.61,235.23Z"/><path class="cls-1" d="M219.39,235.15a3.64,3.64,0,0,0,0-.66c-.1-.55.21-.59.64-.57.26,0,.35.06.39.36a1.85,1.85,0,0,0,1.82,1.66,2.3,2.3,0,0,0,2.4-1.07,2.15,2.15,0,0,0-.41-2.56,9.16,9.16,0,0,0-2-1.3,12.42,12.42,0,0,1-1.74-1.23,2.86,2.86,0,0,1-.83-3.3,3.09,3.09,0,0,1,2.91-2.12,10,10,0,0,1,3.08.32c.35.08.57.25.52.67a3.69,3.69,0,0,0,0,1.05c.09.61-.22.67-.71.63-.28,0-.48-.06-.41-.39.15-.68-.26-.93-.79-1.12a2.07,2.07,0,0,0-2.24.16,1.82,1.82,0,0,0-.67,1.88,2.64,2.64,0,0,0,1.38,1.62c.88.5,1.73,1.06,2.59,1.59a3.3,3.3,0,0,1-.29,5.55,4.89,4.89,0,0,1-2.91.52c-.64-.08-1.29-.12-1.94-.21s-.91-.38-.79-1A2.24,2.24,0,0,0,219.39,235.15Z"/><path class="cls-1" d="M252.73,235.3a15.1,15.1,0,0,1-1.39,1.1c-1.41.68-3.21.63-3.91-1a2.79,2.79,0,0,1-.22-1.14c0-1.63,0-3.27,0-4.9,0-.47-.08-.69-.6-.62-.32.05-.61.09-.6-.45s.27-.51.64-.5c.56,0,1.13,0,1.69,0s.59.09.58.56c0,1.83,0,3.66,0,5.49s1,1.87,2.22,1.46a3.72,3.72,0,0,0,1.24-.8,1,1,0,0,0,.36-.85c0-1.42,0-2.83,0-4.25,0-.48-.07-.75-.62-.64s-.61-.1-.58-.56c0-.3.09-.42.41-.41a19.44,19.44,0,0,0,2,0c.41,0,.51.11.5.51,0,2.24,0,4.48,0,6.73,0,.49.09.73.63.64.37-.07.57,0,.57.49s-.2.53-.58.51a17.2,17.2,0,0,0-1.76,0c-.45,0-.65-.1-.58-.57A6.66,6.66,0,0,0,252.73,235.3Z"/><path class="cls-1" d="M169.63,234.79c.14,1.15.17,1.23-.85,1.58-2.27.78-4.51.86-6.58-.62a4.6,4.6,0,0,1-1.7-2.4,8.27,8.27,0,0,1,.32-6.27,4.65,4.65,0,0,1,3.62-2.62,11.47,11.47,0,0,1,4.73.37c.36.09.47.24.44.6a11.61,11.61,0,0,0,0,1.18c0,.35.09.68-.49.66s-.69-.21-.62-.65-.21-.74-.63-.92a3.8,3.8,0,0,0-4.17.4,4.69,4.69,0,0,0-1.57,3.09,7.24,7.24,0,0,0,.36,4.07c1.18,2.52,3.52,3.32,6.16,2.14A2.41,2.41,0,0,0,169.63,234.79Z"/><path class="cls-1" d="M304.1,227.65a7.5,7.5,0,0,1,1.15.08c.44.14,1.14,0,1.3.4a3.89,3.89,0,0,1,.07,1.74c-.05.54-.51.16-.78.25s-.38-.1-.39-.4c0-.8-.63-1.23-1.66-1.18a1.28,1.28,0,0,0-1.29,1.33c0,.54.41.78.81,1,.76.38,1.56.72,2.34,1.08a2.23,2.23,0,0,1,1.52,2.73,2.67,2.67,0,0,1-2.26,2.05,6.7,6.7,0,0,1-3.8-.42c-.26-.11-.38-.23-.35-.52s0-.57,0-.85c0-.8.14-.91.95-.77.14,0,.23,0,.26.21s-.18.66.17.88a3.16,3.16,0,0,0,2,.62,1.36,1.36,0,0,0,1.32-1.57c-.1-.59-.61-.84-1.1-1.06a8.32,8.32,0,0,1-2.86-1.59,2.34,2.34,0,0,1,.89-3.77A3.72,3.72,0,0,1,304.1,227.65Z"/><path class="cls-1" d="M286,224.65c.54,0,1.09,0,1.63,0,.36,0,.49.09.49.47s-.18.5-.51.43c-.6-.12-.69.17-.68.71q0,4.38,0,8.75c0,.5.1.73.63.64s.57,0,.57.5-.23.51-.6.5c-1,0-2.05,0-3.07,0-.42,0-.56-.09-.56-.54s.16-.54.53-.48c.55.11.67-.12.67-.66q0-4.41,0-8.82c0-.48-.08-.69-.6-.61-.27,0-.59.12-.59-.4s.24-.5.59-.49Z"/><path class="cls-1" d="M204.71,203.57a7.49,7.49,0,0,0-.78-3.31,8.77,8.77,0,0,0-4.44-3.9,28.5,28.5,0,0,1-4.48-2.59,4.66,4.66,0,0,1-2.92-3.65,15.17,15.17,0,0,1-.11-4.46,2.42,2.42,0,0,1,.35-1,1.42,1.42,0,0,1,1.35-.7c.6,0,.86.5,1,.95a9.4,9.4,0,0,1,.52,4.07,10.62,10.62,0,0,1-.11,2.39c0,.59,0,1.18,0,1.76s.12.55.55.55q4.19,0,8.37,0c.47,0,.59-.15.58-.6-.06-2.87.14-5.75-.11-8.62a6.4,6.4,0,0,0-2.43-4.63c-2.19-1.74-4.82-2-7.45-2.18a20.78,20.78,0,0,0-5,.34,9.53,9.53,0,0,0-4.71,2,7.15,7.15,0,0,0-2.48,5.64,64.78,64.78,0,0,0,.1,7.24,5.16,5.16,0,0,0,2,3.79,59.54,59.54,0,0,0,8,4.83,4,4,0,0,1,1.72,2,11.05,11.05,0,0,1,.75,3.71,9,9,0,0,1-.34,3.67,1.38,1.38,0,0,1-1.13,1,1.4,1.4,0,0,1-1.39-.66,2,2,0,0,1-.28-1.18v-7.85c0-.29.08-.6-.43-.6-3,0-5.93,0-8.89,0-.31,0-.44.09-.43.41.07,3.17-.19,6.36.13,9.53a6.33,6.33,0,0,0,3.14,5,13.05,13.05,0,0,0,6.19,1.65,20.08,20.08,0,0,0,8-.85,7.21,7.21,0,0,0,5.18-7.14C204.75,208,204.73,205.78,204.71,203.57Z"/><path class="cls-1" d="M242,227.66a6.6,6.6,0,0,1,2,.23c.14,0,.39,0,.4.17a9.76,9.76,0,0,1,0,1.95c0,.25-.51.08-.77.11s-.32,0-.29-.24c.09-.68-.11-1.11-.85-1.26a2.08,2.08,0,0,0-2,.51,3,3,0,0,0-.71,1.08,4.87,4.87,0,0,0,0,3.73c.68,1.64,1.74,1.71,3.31,1.52a3.47,3.47,0,0,0,1-.27c.42-.2.39,0,.43.32.08.64-.17.91-.8,1.05a6.67,6.67,0,0,1-2.81.15,4.26,4.26,0,0,1-3.26-3.88,6,6,0,0,1,.33-2.74A3.78,3.78,0,0,1,242,227.66Z"/><path class="cls-1" d="M174.37,229.74c0,1.77,0,3.53,0,5.3,0,.49.11.67.61.6.33,0,.61-.07.6.46s-.2.56-.62.55c-1,0-2,0-3,0-.47,0-.46-.21-.47-.55s.1-.53.47-.47c.6.12.73-.14.73-.72,0-3.16,0-6.33,0-9.49,0-.46,0-.74-.6-.65-.33.06-.61.08-.6-.46s.23-.5.59-.49c.61,0,1.22,0,1.83,0,.4,0,.51.09.51.5C174.35,226.12,174.37,227.93,174.37,229.74Z"/><path class="cls-1" d="M340.6,235.5c.1,1.21.06,1.29-1.11,1.31-1.93,0-2.76-.81-2.83-3-.05-1.5,0-3,0-4.5,0-.53-.21-.57-.61-.53s-.62,0-.59-.48.1-.65.57-.57.68,0,.63-.57c0-.32-.2-.79.13-1a6,6,0,0,1,1.41-.4.15.15,0,0,1,.19.13c0,.09,0,.18,0,.26.06.51-.24,1.21.13,1.48s1,.09,1.52.06.6.06.61.55-.24.53-.63.52-1.2-.18-1.51.08-.12,1-.11,1.55c0,1.37-.08,2.73.07,4.1a1.21,1.21,0,0,0,1.84,1.06Z"/><path class="cls-1" d="M259.79,229.29a3.06,3.06,0,0,1,3-1.66c.35,0,.43.13.42.45a8.65,8.65,0,0,0,0,1.44c.06.51-.22.49-.57.49s-.72.05-.62-.51a1.82,1.82,0,0,0,0-.33,2.58,2.58,0,0,0-2,.86.7.7,0,0,0-.26.56c0,1.55,0,3.1,0,4.64,0,.54.33.43.59.39.57-.09.64.21.6.67,0,.23-.05.35-.32.35h-3.4c-.52,0-.29-.36-.34-.59s0-.49.37-.42c.7.14.84-.17.82-.83-.05-1.8,0-3.61,0-5.42,0-.47-.06-.77-.61-.65s-.6-.18-.58-.61.12-.36.38-.36c.68,0,1.36,0,2,0,.43,0,.53.13.49.51S259.79,228.82,259.79,229.29Z"/><path class="cls-1" d="M314.05,235.54c.09,1.33.22,1.14-1.06,1.25a2.28,2.28,0,0,1-2.73-2.55c0-1.59,0-3.19,0-4.77,0-.49-.09-.7-.63-.66s-.8-.22-.65-.84c.07-.33.31-.21.46-.19.61.08.93-.08.82-.79,0-.25-.16-.65.1-.78a6.56,6.56,0,0,1,1.35-.38c.1,0,.14.07.14.17s0,.26,0,.39c0,1.38,0,1.37,1.42,1.39.33,0,.86-.28.83.5,0,.47-.15.57-.59.56s-1.27-.25-1.56.09-.11,1-.09,1.57a23.29,23.29,0,0,0,.09,3.83C312.26,235.81,312.59,236,314.05,235.54Z"/><path class="cls-1" d="M211.76,235.51c0,1.13,0,1.13-1.11,1.13s-1.06,0-1.06-1.07,0-1.11,1.13-1.11S211.76,234.46,211.76,235.51Z"/><path class="cls-1" d="M274.46,235.56c0-1.1,0-1.1,1.13-1.1a3.53,3.53,0,0,0,.46,0c.35,0,.54.06.48.46a2.25,2.25,0,0,0,0,.26c0,1.48,0,1.47-1.5,1.48-.44,0-.65-.09-.58-.57A3,3,0,0,0,274.46,235.56Z"/><path class="cls-1" d="M344.89,235.58c0,1.06,0,1.06-1,1.06s-1,0-1-1.08,0-1.1,1.06-1.1S344.89,234.46,344.89,235.58Z"/><path class="cls-1" d="M345.12,202.64c0-.47-.14-.57-.59-.57-2.83,0-5.67,0-8.5,0-.52,0-.65.14-.64.65,0,2.48,0,5,0,7.45a1.58,1.58,0,0,1-1,1.66c-1.16.37-2.09-.37-2.09-1.71,0-2.81,0-5.62,0-8.44,0-.57.11-.76.73-.76,3.82,0,7.63,0,11.45,0,.52,0,.64-.14.64-.65,0-4.75,0-9.5,0-14.25a12.32,12.32,0,0,0-.11-2,6.53,6.53,0,0,0-3.61-4.92,15,15,0,0,0-6.37-1.43,20.21,20.21,0,0,0-6.91.75,7.76,7.76,0,0,0-4.27,3,7.37,7.37,0,0,0-1.21,4.23c0,4.08,0,8.15,0,12.23s0,8.24,0,12.36a7.73,7.73,0,0,0,1.1,4,7.93,7.93,0,0,0,5.09,3.39,20.82,20.82,0,0,0,6.1.54,16.94,16.94,0,0,0,5.55-1,6.62,6.62,0,0,0,4.62-6.26C345.19,208.18,345.09,205.41,345.12,202.64Zm-12.8-17A1.52,1.52,0,0,1,334,184c.92.06,1.41.63,1.41,1.72V190c0,1.44,0,2.88,0,4.31,0,.4-.06.6-.52.57a20.81,20.81,0,0,0-2.09,0c-.36,0-.5-.08-.49-.47C332.32,191.46,332.31,188.56,332.32,185.67Z"/><path class="cls-1" d="M301.34,186a9.79,9.79,0,0,0-.1-1.62,7,7,0,0,0-4.06-5.49,15.08,15.08,0,0,0-6-1.19,22.48,22.48,0,0,0-2.72.09,15.53,15.53,0,0,0-5.09,1.11,6.46,6.46,0,0,0-4.22,5.92c-.1,2.79,0,5.58,0,8.37,0,.45.14.54.55.54,2.73,0,5.45,0,8.18,0,.45,0,.6-.12.57-.58-.09-1.6-.28-3.2-.22-4.8a8.86,8.86,0,0,1,.6-3.41c.23-.49.51-.9,1.12-.93,1.06-.06,1.64.49,1.65,1.61,0,2,0,3.92,0,5.89a1.44,1.44,0,0,1-.52,1.14A11.76,11.76,0,0,1,289,194a40.86,40.86,0,0,0-7.52,4.56,6.56,6.56,0,0,0-2.72,5.1c0,3.09-.15,6.19.08,9.28a5.19,5.19,0,0,0,4.19,4.81,13.35,13.35,0,0,0,4.36.43c1.91-.11,3.85-.19,5.37-1.79a2.58,2.58,0,0,1,0,.45c-.1.64.11.85.79.83,2.34-.05,4.67,0,7,0,.62,0,.8-.13.8-.78Q301.33,201.45,301.34,186Zm-9.74,19.55v4.7c0,1.08-.51,1.69-1.44,1.72a1.55,1.55,0,0,1-1.7-1.61c0-2.48-.07-5,0-7.44,0-1.33,1-2,2.17-2.47,1-.39,1-.37,1,.66Z"/><path class="cls-1" d="M250.1,187.18a19.19,19.19,0,0,0-.12-2.73,6.78,6.78,0,0,0-2.92-4.92,13,13,0,0,0-6.84-1.85,23,23,0,0,0-5.11.34,9.87,9.87,0,0,0-5,2.1,7.13,7.13,0,0,0-2.32,5.56c0,2.22,0,4.45,0,6.67,0,1.35,0,1.35,1.37,1.35h7.45c.27,0,.61.09.58-.38-.06-.91-.1-1.82-.16-2.72a14.88,14.88,0,0,1,.36-5.28c.28-1,.79-1.36,1.52-1.33a1.5,1.5,0,0,1,1.44,1.66c0,1.74-.06,3.49,0,5.23a2.24,2.24,0,0,1-1,2.09,12.25,12.25,0,0,1-1.64,1,42.1,42.1,0,0,0-7.43,4.47,6.93,6.93,0,0,0-2.86,5.63c0,1.6,0,3.19,0,4.78,0,1.39-.07,2.77.09,4.17a5.38,5.38,0,0,0,4.5,4.79,15.2,15.2,0,0,0,5.42.24,5.76,5.76,0,0,0,3.95-1.63,3.53,3.53,0,0,1,0,.38c-.12.68.15.87.83.85,2.35,0,4.71,0,7.06,0,.6,0,.76-.14.76-.75Q250.09,202.06,250.1,187.18Zm-9.7,18.3v4.76c0,1-.55,1.68-1.46,1.7a1.51,1.51,0,0,1-1.71-1.67c0-2.46,0-4.92,0-7.38a2.38,2.38,0,0,1,1.41-2.09c1.75-1,1.75-1,1.75,1Z"/><path class="cls-1" d="M206.87,235.63c-.5.09-.65-.09-.64-.61,0-3.56,0-7.11,0-10.66,0-.42-.09-.58-.54-.55-.61,0-1.22,0-1.83,0-.36,0-.59,0-.6.49s.3.45.62.48.56-.2.57.21c0,1.16,0,2.32,0,3.56-.25-.18-.4-.3-.56-.4-1.26-.83-3.66-.81-4.7.77a6.17,6.17,0,0,0-.56,5.85,2.9,2.9,0,0,0,3.5,2,4.06,4.06,0,0,0,2.33-1.52,7.37,7.37,0,0,1,0,.85c-.06.48.13.6.58.58.61,0,1.22,0,1.83,0,.38,0,.54,0,.55-.49S207.28,235.56,206.87,235.63ZM204.48,232v1.37a2.34,2.34,0,0,1-2.32,2.12,1.85,1.85,0,0,1-1.91-1.57,5.66,5.66,0,0,1,.33-4.14,1.68,1.68,0,0,1,1.63-.94,3.69,3.69,0,0,1,2,.76.66.66,0,0,1,.25.63C204.47,230.8,204.48,231.39,204.48,232Z"/><path class="cls-1" d="M181.33,227.65a3.54,3.54,0,0,0-3.59,1.92,5.89,5.89,0,0,0-.55,3.36,3.91,3.91,0,0,0,3.69,3.86,4.15,4.15,0,0,0,3.35-1,4.76,4.76,0,0,0,1.34-3.84C185.51,229.69,184.19,227.45,181.33,227.65Zm1.17,7.77a1.69,1.69,0,0,1-2.33,0,4.38,4.38,0,0,1-1.19-3.8,4.57,4.57,0,0,1,.64-2,1.89,1.89,0,0,1,3.38-.07,4,4,0,0,1,.75,2.4A4.33,4.33,0,0,1,182.5,235.42Z"/><path class="cls-1" d="M323.49,236c.07-.23,0-.38-.31-.35-.63.08-.75-.37-.85-.83a14.2,14.2,0,0,1-.12-2.81c0-.8,0-1.5,0-2.2a1.94,1.94,0,0,0-1.62-2,6.49,6.49,0,0,0-2.94.06c-1.41.31-1.46.37-1.44,1.79,0,.31,0,.54.43.52s.74,0,.68-.51.23-.63.52-.8a1.69,1.69,0,0,1,2.58.64,4.32,4.32,0,0,1,.18,1.39c0,.42-.12.54-.52.51a6.85,6.85,0,0,0-2.9.45,2.55,2.55,0,0,0-1.6,2.81,2.44,2.44,0,0,0,2,2.12,3.6,3.6,0,0,0,3-1c.23-.19.34-.24.45.08.34,1,1.33,1,2.21.8C323.74,236.55,323.42,236.21,323.49,236Zm-2.91-2.37c0,1.39-.45,1.91-1.68,1.91a1.43,1.43,0,0,1-1.48-1,1.65,1.65,0,0,1,.78-1.84,4.25,4.25,0,0,1,1.47-.41c.87-.15.91-.09.91.78Z"/><path class="cls-1" d="M235.06,235.09a4.77,4.77,0,0,1-2.66.42,3.18,3.18,0,0,1-2.21-3.25c.07-.27.24-.2.39-.2h3.93c1,0,1,0,1-1.05a3.3,3.3,0,0,0-1.91-3.18,3.83,3.83,0,0,0-4,.86,4.89,4.89,0,0,0-1.19,3,4.6,4.6,0,0,0,2.19,4.61,5.13,5.13,0,0,0,4,.24c.91-.23.92-.27.92-1.16C235.53,234.94,235.45,234.9,235.06,235.09Zm-4.6-4.88a1.86,1.86,0,0,1,1.34-1.64,1.38,1.38,0,0,1,1.63.74,2.25,2.25,0,0,1,.27,1.74c-.15.35-.86.07-1.32.13h-1.17C230.25,231.18,230.26,231.18,230.46,230.21Z"/><path class="cls-1" d="M271.67,234.91a5.62,5.62,0,0,1-.7.31c-1.11.33-2.23.61-3.28-.12a3,3,0,0,1-1.2-2.26c-.08-.79-.1-.78.7-.78h4.05c.17,0,.44.12.46-.2a4.54,4.54,0,0,0-.87-3.35c-.93-1.13-3.34-1-4.38-.36-2.06,1.37-2.41,4.74-1.11,6.72s2.9,2.28,5.18,1.75C272,236.27,271.72,236.45,271.67,234.91Zm-5.05-4.5c.15-.77.38-1.58,1.33-1.81a1.37,1.37,0,0,1,1.77.88c.59,1.47.44,1.7-1.1,1.7h-1.36C266.25,231.15,266.44,231.29,266.62,230.41Z"/><path class="cls-1" d="M94.52,167.34a32.49,32.49,0,0,1,9.62,1.06,33.17,33.17,0,0,1,12.46,6.3,32.63,32.63,0,0,1,6.64,7.24,33,33,0,0,1,3.64,7.22,32.5,32.5,0,0,1,1.77,7.39,33.22,33.22,0,0,1,.06,7,36.13,36.13,0,0,1-1.94,8.48,31.56,31.56,0,0,1-3,6,32.48,32.48,0,0,1-5.43,6.61A33.39,33.39,0,0,1,110,230.4a31.92,31.92,0,0,1-8.72,2.78,29.8,29.8,0,0,1-7.12.45,36,36,0,0,1-8.37-1.49,1.2,1.2,0,0,0-.2,0,.29.29,0,0,1-.07-.18c0-.7.25-1.36.31-2.06,0-.5-.09-.75-.61-.85a21.76,21.76,0,0,1-4.23-1.3A27.83,27.83,0,0,1,74.57,224a29.11,29.11,0,0,1-4.91-5,23.11,23.11,0,0,1-3.09-5,.3.3,0,0,1,.08-.18,11.11,11.11,0,0,0,1.42-.58c.37-.21.51-.14.68.21a28.5,28.5,0,0,0,3,5.05A29.67,29.67,0,0,0,81,226.54a30.09,30.09,0,0,0,10.85,3.64,27.63,27.63,0,0,0,5.45.21,30.7,30.7,0,0,0,10.92-2.73,30.11,30.11,0,0,0,9.77-7.18,28.57,28.57,0,0,0,4.52-6.68,29.92,29.92,0,0,0,2.9-9.56,29.28,29.28,0,0,0-.43-10.05,28.93,28.93,0,0,0-2.53-7.18,31.06,31.06,0,0,0-4.62-6.71,29.48,29.48,0,0,0-7.55-6,29.86,29.86,0,0,0-16.61-3.71A27.49,27.49,0,0,0,83.91,173a1.37,1.37,0,0,1-1.29.06c0-.13,0-.2.14-.27a32.47,32.47,0,0,1,9.6-2.78,6.91,6.91,0,0,1,1.43-.12c.43,0,.58-.16.56-.57s0-.83,0-1.24A.94.94,0,0,1,94.52,167.34Z"/><path class="cls-1" d="M111.36,183.42a3.23,3.23,0,0,0,.55-.56c.38-.63.67-.45,1.12,0a24.58,24.58,0,0,1,4.69,6.1,23.76,23.76,0,0,1,2.77,8.76,25.88,25.88,0,0,1,.2,3.83,24.87,24.87,0,0,1-3.55,12,24.56,24.56,0,0,1-7,7.46,24.25,24.25,0,0,1-9.56,3.95,24.6,24.6,0,0,1-14-1.48A23.63,23.63,0,0,1,77.6,217a24,24,0,0,1-5.72-11.92,24.9,24.9,0,0,1,.54-11.16,24.43,24.43,0,0,1,5.12-9.44c.38-.44.48.2.75.13a.15.15,0,0,1,0,.19,19.2,19.2,0,0,0-3,4.2,22.08,22.08,0,0,0-2.75,10.08,22.94,22.94,0,0,0,6.84,17.17,21.33,21.33,0,0,0,7.53,4.83,4.65,4.65,0,0,0,2,.56.86.86,0,0,1,.32,0,25.79,25.79,0,0,0,3.42.92,10.92,10.92,0,0,0,3,.19h.78c1-.25,2.15,0,3.2-.32a5.72,5.72,0,0,0,.72-.14c.42-.11.85-.17,1.28-.26s1-.33,1.56-.5a21.59,21.59,0,0,0,6.47-3.54,23.66,23.66,0,0,0,5.22-5.85,13.83,13.83,0,0,0,.68-1.26,10.9,10.9,0,0,0,.6-1.24c.12-.35.31-.66.44-1s.15-.55.27-.81a19.57,19.57,0,0,0,1-4.15,4.61,4.61,0,0,1,.12-.83c0-.2,0-.41,0-.61a3.53,3.53,0,0,1,.1-1.17,2,2,0,0,0,0-.64,10.87,10.87,0,0,1-.16-2.06c-.1-.74-.21-1.48-.29-2.23a2,2,0,0,0,0-1,23.22,23.22,0,0,0-3.82-8.6,24.75,24.75,0,0,0-1.92-2.31,3.73,3.73,0,0,1-.54-.65A.43.43,0,0,1,111.36,183.42Z"/><path class="cls-1" d="M97.06,160.24H96c-.38,0-.58-.11-.59-.56s.26-.46.58-.45a42.65,42.65,0,0,1,10.34,1.47,40.25,40.25,0,0,1,14.16,7.09,39.78,39.78,0,0,1,7.57,7.71,40.26,40.26,0,0,1,5.46,9.77,36.49,36.49,0,0,1,2.5,10.67c.09,1.21.25,2.41.23,3.62,0,.32,0,.53-.44.52s-.44-.14-.47-.49c-.15-1.74-.12-3.51-.4-5.24a44.29,44.29,0,0,0-1.72-7.08,40.31,40.31,0,0,0-20-22.91,39.54,39.54,0,0,0-10.9-3.59A42.57,42.57,0,0,0,97.06,160.24Z"/><path class="cls-1" d="M54.87,201.53c0-.37,0-.75,0-1.12s0-.5.39-.49.5.09.5.47A37.42,37.42,0,0,0,57,209.87a38.44,38.44,0,0,0,2.07,6,39,39,0,0,0,4.82,8.2A40.43,40.43,0,0,0,76,234.62a38.81,38.81,0,0,0,9.51,3.88,36.6,36.6,0,0,0,6.16,1.08,30.07,30.07,0,0,0,3.55.22c.41,0,.4.2.4.48s0,.51-.4.49a45.21,45.21,0,0,1-10.65-1.55,42.05,42.05,0,0,1-7.65-3A40.68,40.68,0,0,1,69,230.9a40.65,40.65,0,0,1-12.43-19,44.88,44.88,0,0,1-1.47-6.79A22.25,22.25,0,0,1,54.87,201.53Z"/><path class="cls-1" d="M96.92,236.64h-1c-.28,0-.44,0-.44-.38s.12-.39.42-.41a37.9,37.9,0,0,0,10.67-1.77A36.32,36.32,0,0,0,121.14,225a36.63,36.63,0,0,0,5.93-8.09,35.69,35.69,0,0,0,3.35-8.88,29.28,29.28,0,0,0,.8-5.28c0-.78.1-1.56.08-2.34,0-.37.12-.48.48-.48s.44.15.43.47a41.74,41.74,0,0,1-.65,6.5,36.15,36.15,0,0,1-4.37,11.63,35.53,35.53,0,0,1-4.16,5.7,36.86,36.86,0,0,1-7.24,6.37,36.42,36.42,0,0,1-12,5.16A38.6,38.6,0,0,1,96.92,236.64Z"/><path class="cls-1" d="M65.2,177l.4-.51a6.39,6.39,0,0,0,1.62-1.7c.63-.71,1.33-1.35,2-2a.37.37,0,0,1,.35-.11,25.86,25.86,0,0,1,2.17,2.51l1,1.1c.31.35.33.64,0,1a24.21,24.21,0,0,0-3.33,4.09c-.19.25-.35.44-.69.26-1.49-.76-3-1.48-4.49-2.25a.82.82,0,0,1-.2-.17c-.11-.25.09-.41.19-.6A7.85,7.85,0,0,0,65.2,177Z"/><path class="cls-1" d="M64.3,178.58l-.27.53c.1.31-.1.54-.26.77a33.14,33.14,0,0,0-1.87,3.21c-.33.6-.29.71.31,1,1.73.84,3.41,1.76,5.12,2.63.63.32.66.3,1-.33a30.86,30.86,0,0,1,8.85-10.51,31.48,31.48,0,0,1,4.82-3c.23-.12.45-.29.73-.21a.16.16,0,0,1,0,.25l-.13.13a35.52,35.52,0,0,0-5.87,3.77A30.27,30.27,0,0,0,70,184.44a20.31,20.31,0,0,0-1.54,2.77c-.18.45-.39.42-.73.25l-5.09-2.61c-.47-.24-.93-.48-1.4-.7-.23-.11-.31-.19-.17-.48a32.69,32.69,0,0,1,3.11-5.22C64.29,178.43,64.36,178.44,64.3,178.58Z"/><path class="cls-1" d="M66.65,213.78a.62.62,0,0,0,0,.13c0,.09-.09.17-.2.18a.42.42,0,0,1-.16-.09,12.39,12.39,0,0,1-1.07-2.38c-.14-.36-.29-.4-.62-.28-1.5.53-3,1.1-4.5,1.55-.65.2-.67.31-.42,1a36.37,36.37,0,0,0,3.85,7.4,31.4,31.4,0,0,0,5.39,6.18,24.73,24.73,0,0,0,2,1.73.56.56,0,0,1,.29.48c-.06.15-.15.23-.3.1a34.48,34.48,0,0,1-9.17-10.54A36.79,36.79,0,0,1,59,213.5c-.17-.47-.12-.72.42-.9,1.74-.57,3.47-1.18,5.19-1.8.52-.19.78-.13,1,.48A25.77,25.77,0,0,0,66.65,213.78Z"/><path class="cls-1" d="M69.51,172.68a29.09,29.09,0,0,0-3.5,3.78c-.13.16-.24.46-.41,0a38.18,38.18,0,0,1,11.33-9.68,36.84,36.84,0,0,1,12.3-4.36,3.37,3.37,0,0,1,.83-.1,1.81,1.81,0,0,1,.73-.06.14.14,0,0,1,.1.16c-.31.44-.82.38-1.25.41a21.29,21.29,0,0,0-3.88.84A34.4,34.4,0,0,0,77.67,167a36.51,36.51,0,0,0-7.51,5.38C70,172.52,69.83,172.78,69.51,172.68Z"/><path class="cls-1" d="M70.86,229.73a.22.22,0,0,0,.24-.14c.31-.16.49.09.69.24a33.47,33.47,0,0,0,8.91,4.69,25.54,25.54,0,0,0,3.45,1c.33.07.47,0,.53-.35.17-1,.39-2,.57-2.95a.44.44,0,0,1,.18-.23.19.19,0,0,1,.19,0v.15c0,1.25-.43,2.45-.55,3.69,0,.33-.3.33-.6.26a32.86,32.86,0,0,1-6.07-1.89A32.21,32.21,0,0,1,70.86,229.73Z"/><path class="cls-1" d="M90.86,162.46v-.11s-.06-.06,0-.09,0,0,0,0h0c.33-.18.72.07,1-.15h0c.38-.14.81.06,1.19-.11a3,3,0,0,1,.9,0c.4.12.16.52.19.79.12,1.28.22,2.56.22,3.85,0,.25-.07.52.13.75,0,.71,0,1.43,0,2.15,0,.47-.16.57-.6.59a29,29,0,0,0-9.26,2.1l-1.92.75v-.24a.69.69,0,0,0,0-.1,1.17,1.17,0,0,1,.54-.36,31.49,31.49,0,0,1,6.71-2.1c1.08-.21,2.19-.31,3.29-.45.75-.09.77-.15.76-.91,0-.5-.17-1-.14-1.5s0-.82,0-1.23c0-.74,0-1.47,0-2.2a.73.73,0,0,1,0-.2,5.5,5.5,0,0,1,0-.91c0-.25-.06-.43-.37-.36-.65,0-1.29.1-1.94.19C91.3,162.59,91.05,162.67,90.86,162.46Z"/><path class="cls-1" d="M64.3,178.58l-.12-.13a8.07,8.07,0,0,1,1-1.45c.13.49-.37.7-.5,1.08C64.63,178.27,64.43,178.41,64.3,178.58Z"/><path class="cls-1" d="M93.08,162c-.38.26-.79.11-1.19.11C92.27,161.9,92.69,162.06,93.08,162Z"/><path class="cls-1" d="M91.89,162.07c-.3.31-.69.09-1,.15C91.17,162,91.56,162.18,91.89,162.07Z"/><path class="cls-1" d="M90.85,162.21v.14h-.8C90.29,162.1,90.59,162.27,90.85,162.21Z"/><path class="cls-1" d="M85.62,232H85.5c-.24-.23-.17-.52-.15-.8a6.92,6.92,0,0,1,.14-.77c.19-1,.18-.93-.79-1.19a29,29,0,0,1-6.79-2.68,28.23,28.23,0,0,1-8.72-7.66,27.59,27.59,0,0,1-2.58-4.09c-.12-.22-.28-.46-.1-.73l.13-.13a34.47,34.47,0,0,0,2.87,4.64,30,30,0,0,0,4.67,4.89,22.5,22.5,0,0,0,3.9,2.68,25.24,25.24,0,0,0,4.37,2c1.08.33,2.16.61,3.25.88.28.07.39.17.35.54A11.43,11.43,0,0,1,85.62,232Z"/><path class="cls-1" d="M84.24,219.51a40.76,40.76,0,0,0,4.65,2.27c-.46.23-.86-.08-1.22-.21a22.55,22.55,0,0,1-12-9.87,22.44,22.44,0,0,1-2.09-4.44,19.51,19.51,0,0,1-1-4.67,22.52,22.52,0,0,1-.11-4.34,23.38,23.38,0,0,1,.7-4.22,21.42,21.42,0,0,1,1.44-4,25.15,25.15,0,0,1,3.3-5.06.56.56,0,0,1,.44-.25l.13.13c.06.24-.14.35-.25.5a23.68,23.68,0,0,0-3.85,6.56,23.44,23.44,0,0,0-1.39,6.28,27.34,27.34,0,0,0,.2,5.2,17.39,17.39,0,0,0,1.18,4.46,20.55,20.55,0,0,0,3.51,6.09A23.59,23.59,0,0,0,84.24,219.51Z"/><path class="cls-1" d="M117.83,196c-.2-.13-.07-.42-.27-.54a17,17,0,0,0-1.6-4.58c-.09-.19-.17-.39-.26-.59a16.73,16.73,0,0,0-1.9-3.14,17.91,17.91,0,0,0-2.54-3,.25.25,0,0,1-.11-.28l.29-.4c.64.76,1.27,1.54,1.93,2.28a20.45,20.45,0,0,1,2.52,3.92,24.27,24.27,0,0,1,1.48,3.67c.24.74.38,1.51.56,2.27A.38.38,0,0,1,117.83,196Z"/><path class="cls-1" d="M103.16,221.5l.16.14a4.78,4.78,0,0,1-1.61.49C102.08,221.64,102.72,221.81,103.16,221.5Z"/><path class="cls-1" d="M115.74,210.93l-.15-.16c.29-.35.31-.86.65-1.19a.24.24,0,0,1,.11.13A5.36,5.36,0,0,1,115.74,210.93Z"/><path class="cls-1" d="M116.35,209.71l-.11-.13c.13-.35.11-.79.52-1v0C116.77,209.05,116.47,209.35,116.35,209.71Z"/><path class="cls-1" d="M116.76,208.63v0c0-.25-.11-.57.28-.68A1.59,1.59,0,0,1,116.76,208.63Z"/><path class="cls-1" d="M99.78,222.56s-.27-.06-.07-.13a2.6,2.6,0,0,1,.74,0C100.27,222.66,100,222.49,99.78,222.56Z"/><path class="cls-1" d="M95.71,222.91a.68.68,0,0,1,.76,0A1.63,1.63,0,0,1,95.71,222.91Z"/><path class="cls-1" d="M118.17,202.9a.47.47,0,0,1,0-.63Z"/><path class="cls-1" d="M118.3,201.07a.5.5,0,0,1,0-.62A1.3,1.3,0,0,1,118.3,201.07Z"/><path class="cls-1" d="M84.24,219.51a8.31,8.31,0,0,1-2.77-1.75,24.5,24.5,0,0,1-4.75-5,21.91,21.91,0,0,1-2.64-5,16,16,0,0,1-1.17-5,27,27,0,0,1-.23-3,32,32,0,0,1,.66-5.14,23.54,23.54,0,0,1,1.89-5.09,19.93,19.93,0,0,1,3.2-4.63l.12,0a3.61,3.61,0,0,1,.25.3c.21.3.79.36.73.74s-.41.58-.65.86a19.57,19.57,0,0,0-3.46,5.89,20.61,20.61,0,0,0-1.36,5.58,23,23,0,0,0,.62,8.3,22.43,22.43,0,0,0,4.51,8.53A26.33,26.33,0,0,0,84.24,219.51Z"/><path class="cls-1" d="M111.15,183.82a17.07,17.07,0,0,1,3.32,4.06c.39.57.69,1.2,1,1.79a.78.78,0,0,1,.18.6,24.91,24.91,0,0,0-4.51-5.81c-.17-.16-.46-.32-.16-.62Z"/><path class="cls-1" d="M85.4,232.08A16.07,16.07,0,0,0,82.79,231a32.92,32.92,0,0,1-7.61-4.49,31.91,31.91,0,0,1-7.44-8.23c-.66-1-1.24-2.12-1.82-3.21-.4-.75-.37-.77.43-1.06l.16,0a15.78,15.78,0,0,0,1.73,3.18,27.13,27.13,0,0,0,4.49,5.31A26.12,26.12,0,0,0,81.51,228a16.68,16.68,0,0,0,3.87,1.12c.36,0,.52.19.41.66A6,6,0,0,0,85.5,232Z"/><path class="cls-1" d="M82.74,172.68c-.26-.56-.5-1.14-.8-1.7-.21-.39-.22-.61.26-.81a31.69,31.69,0,0,1,9.56-2.59l2.37-.26c0,.65.19,1.29.14,1.94,0,.36-.08.51-.5.56a37.83,37.83,0,0,0-5.79,1A37.19,37.19,0,0,0,82.74,172.68Z"/><path class="cls-1" d="M94.13,166a14,14,0,0,1-.14-2.34A7.67,7.67,0,0,1,94.13,166Z"/><path class="cls-1" d="M94,163.67a2.92,2.92,0,0,1-.07-1.06c0-.22,0-.44-.31-.42.33-.21.4,0,.4.27S94,163.27,94,163.67Z"/><path class="cls-1" d="M82.34,215.73c-.23.42-.46.47-.83.11A20.84,20.84,0,0,1,75,203.09a20.3,20.3,0,0,1,.82-9.06,21,21,0,0,1,33.05-9.79,20,20,0,0,1,5.78,7.41,20.53,20.53,0,0,1,1.89,8.26,21.39,21.39,0,0,1-2,9.57,20.09,20.09,0,0,1-3.1,4.69c-.39.45-.44-.14-.65-.26a1.18,1.18,0,0,1,.39-.8,18.62,18.62,0,0,0,4.37-10.25,19.79,19.79,0,0,0-2.13-11.6,20.23,20.23,0,0,0-9-8.76,18.12,18.12,0,0,0-7.46-1.95,21.67,21.67,0,0,0-6.72.64,19.38,19.38,0,0,0-6.74,3.35,20.16,20.16,0,0,0-4.07,4.13,20.41,20.41,0,0,0-3.08,6.3,21,21,0,0,0-.74,6.4A19.64,19.64,0,0,0,81.91,215a1.9,1.9,0,0,1,.46.55A.17.17,0,0,1,82.34,215.73Z"/><path class="cls-1" d="M82.36,215.61a22.43,22.43,0,0,1-2.45-2.52,16.12,16.12,0,0,1-2.37-3.71,19,19,0,0,1-1.88-6.49,26.29,26.29,0,0,1-.11-2.66,21.7,21.7,0,0,1,.7-5.12,20.94,20.94,0,0,1,1.91-4.66,19.7,19.7,0,0,1,4.48-5.36,21.17,21.17,0,0,1,3.93-2.65,22.84,22.84,0,0,1,4.57-1.64,18.34,18.34,0,0,1,4.77-.5,18.89,18.89,0,0,1,7.24,1.36,21,21,0,0,1,8.1,5.94,19,19,0,0,1,3.27,5.51,18.1,18.1,0,0,1,1.35,6.64,21.31,21.31,0,0,1-.71,6.32,21.09,21.09,0,0,1-2.54,5.52c-.53.82-1.22,1.52-1.76,2.32h-.11a.35.35,0,0,1-.31-.36,7.61,7.61,0,0,1,1.18-1.79,19.31,19.31,0,0,0,3.18-7.25,21.16,21.16,0,0,0,.27-6.05,17.24,17.24,0,0,0-1.79-6.38,18.87,18.87,0,0,0-6.06-7.32,20.18,20.18,0,0,0-8-3.45,21.45,21.45,0,0,0-4.94-.26,19.48,19.48,0,0,0-6,1.42,16.88,16.88,0,0,0-5,3,20,20,0,0,0-4.72,5.71,19.62,19.62,0,0,0,1,20.35,19,19,0,0,0,2.56,3c.24.24.54.46.55.85C82.67,215.49,82.59,215.64,82.36,215.61Z"/><path class="cls-1" d="M110.49,213.62h-.1c-.73-.33-.81-.59-.33-1.22a20.57,20.57,0,0,0,2.9-4.88,18.41,18.41,0,0,0,1-10.88,18.8,18.8,0,0,0-3.68-7.8,18.5,18.5,0,0,0-6.78-5.31A18,18,0,0,0,98.12,182a17.59,17.59,0,0,0-6.3.28,19.51,19.51,0,0,0-3.95,1.32,17.13,17.13,0,0,0-4.2,2.73,19.66,19.66,0,0,0-3.61,4.11,18.68,18.68,0,0,0-.56,19.14,13.92,13.92,0,0,0,2.92,3.82c.18.16.34.34.51.51.6.63.56.94-.21,1.43h-.11c0-.27-.21-.42-.39-.57a17.13,17.13,0,0,1-4-5.26,18.61,18.61,0,0,1-1.92-5.89,25.11,25.11,0,0,1-.23-3.77,19.29,19.29,0,0,1,1.83-7.71,20.62,20.62,0,0,1,5.25-6.81A17.7,17.7,0,0,1,87,182.84,18.42,18.42,0,0,1,92.7,181a16.55,16.55,0,0,1,4.34-.15,25.57,25.57,0,0,1,3.88.66A19.06,19.06,0,0,1,104.6,183a18.12,18.12,0,0,1,5.42,4,21.2,21.2,0,0,1,4.18,6.83,19.78,19.78,0,0,1,1.11,8.13,18.3,18.3,0,0,1-2.27,7.85A43.48,43.48,0,0,1,110.49,213.62Z"/><path class="cls-1" d="M93.71,213.26a9.25,9.25,0,0,1-3.46-1,12.61,12.61,0,0,1-7.32-9.53,12.31,12.31,0,0,1,1.75-9.09,12.57,12.57,0,0,1,6.71-5.37.27.27,0,0,1,.17.33c-.46.55-1.19.6-1.76.94a12.42,12.42,0,0,0-6.12,7.86,12,12,0,0,0,1.58,9.82,12.26,12.26,0,0,0,7.21,5.27,18.91,18.91,0,0,0,4.85.46c.17,0,.38,0,.36.31h0c-.25.14-.55,0-.8.11a4.64,4.64,0,0,1-2.37,0C94.26,213.23,94,213.4,93.71,213.26Z"/><path class="cls-1" d="M108.49,202.77a12.39,12.39,0,0,1-3.39,6.72A11.32,11.32,0,0,1,98.9,213c-.17.05-.34.11-.48,0,0-.43.3-.43.55-.48a12.48,12.48,0,0,0,8.92-9.53c0-.23.06-.49.32-.61S108.41,202.62,108.49,202.77Z"/><path class="cls-1" d="M98.7,187.89a12.42,12.42,0,0,1,6.55,3.82,12.67,12.67,0,0,1,3.24,6.5c-.08.15.05.43-.26.44-.34-.16-.31-.5-.37-.79a12.3,12.3,0,0,0-4.23-6.93,14.27,14.27,0,0,0-3.87-2.24c-.45-.19-1,0-1.36-.5C98.35,187.94,98.56,188,98.7,187.89Z"/><path class="cls-1" d="M98.7,187.89l-.26.25c-.23.2-.49.12-.75.08a10.83,10.83,0,0,0-5.09.28,1.35,1.35,0,0,1-1.08.05l-.13-.27a7.59,7.59,0,0,1,2.45-.55,27.48,27.48,0,0,1,3.85,0A3.49,3.49,0,0,1,98.7,187.89Z"/><path class="cls-1" d="M108.24,198.6c.18-.06.11-.29.25-.39a14.53,14.53,0,0,1,0,4.56c-.14-.09-.07-.32-.25-.38a.86.86,0,0,1-.14-.74,7.46,7.46,0,0,0,0-2.31A.85.85,0,0,1,108.24,198.6Z"/><path class="cls-1" d="M97.69,187.73H93.84a8.19,8.19,0,0,1,2.47-.11A2.41,2.41,0,0,1,97.69,187.73Z"/><path class="cls-1" d="M98.44,212.84c.11.18.29.14.46.16a2.35,2.35,0,0,1-1.22.27c-.11-.17-.29-.15-.45-.17A.94.94,0,0,1,98.44,212.84Z"/><path class="cls-1" d="M93.71,213.26c.27,0,.56-.11.8.11C94.24,213.34,94,213.49,93.71,213.26Z"/><path class="cls-1" d="M96.88,213.37c.24-.22.53-.08.8-.11C97.44,213.49,97.15,213.34,96.88,213.37Z"/><path class="cls-1" d="M98.44,212.84a3.59,3.59,0,0,0-1.21.26,14.84,14.84,0,0,1-5.46-.63,12.39,12.39,0,0,1-8.47-9.81,12,12,0,0,1,2.52-9.95,11.64,11.64,0,0,1,5.38-4,1.87,1.87,0,0,0,.32-.2,13.77,13.77,0,0,1,6.92-.41,14.63,14.63,0,0,1,4.06,1.75,12.51,12.51,0,0,1,5.63,8.49.65.65,0,0,0,.11.22,14.15,14.15,0,0,1,0,3.79,23.08,23.08,0,0,1-1.1,3.42,13,13,0,0,1-5.37,5.75A15.81,15.81,0,0,1,98.44,212.84Z"/><path class="cls-1" d="M104.75,208.33a11.51,11.51,0,0,1-7.49,4c-.3-.24-.29-.31.08-.7a1,1,0,0,1,.29-.12,11.13,11.13,0,0,0,6.05-3.19,1.27,1.27,0,0,1,.64-.42C104.61,207.9,104.87,207.93,104.75,208.33Z"/><path class="cls-1" d="M86.27,207.92a11.11,11.11,0,0,1-2.49-6.32c.22-.16.34-.55.74-.35a3.64,3.64,0,0,1,.26,1.26,9.9,9.9,0,0,0,.92,2.8,6.9,6.9,0,0,0,.82,1.48,1.12,1.12,0,0,1,.31.69A2.65,2.65,0,0,1,86.27,207.92Z"/><path class="cls-1" d="M105.12,193.1a9.92,9.92,0,0,1,2.23,4.81c.14.21,0,.48.14.68s0,.62.13.92a.48.48,0,0,1-.5.12.45.45,0,0,1-.32-.44,12.48,12.48,0,0,0-2.34-5.6.28.28,0,0,1,0-.13C104.57,193.18,104.88,193.21,105.12,193.1Z"/><path class="cls-1" d="M97.4,211.7c-.08.2-.44.35-.14.63a10.61,10.61,0,0,1-3.81-.07,7.14,7.14,0,0,1-2.74-.93.42.42,0,0,1,.11-.6.62.62,0,0,1,.56,0,8.56,8.56,0,0,0,3.18.79,9.34,9.34,0,0,0,2.42,0A.42.42,0,0,1,97.4,211.7Z"/><path class="cls-1" d="M90.87,210.74l-.16.59a7.58,7.58,0,0,1-2.55-1.48,8.87,8.87,0,0,1-1.89-1.93c0-.35.24-.44.54-.43s.43.16.58.33a12.28,12.28,0,0,0,3.09,2.46C90.66,210.38,90.88,210.46,90.87,210.74Z"/><path class="cls-1" d="M104.75,208.33c0-.34-.28-.31-.51-.31,0-.57.5-.79.71-1.22s.41-.65.6-1a12.87,12.87,0,0,0,1.12-3.19,1,1,0,0,1,.2-.48c.33,0,.44-.38.7-.52a8.35,8.35,0,0,1-.58,2.88A10.6,10.6,0,0,1,104.75,208.33Z"/><path class="cls-1" d="M84.44,201.22c-.24.09-.35.4-.66.38a11.79,11.79,0,0,1,.47-4.72c.21-.06.11-.26.16-.39s.16-.48.36-.51.37.25.47.47c.13.47-.16.87-.22,1.3a3.78,3.78,0,0,0-.14.76,3.31,3.31,0,0,1,0,.62,7.21,7.21,0,0,0-.15,1.61A.4.4,0,0,1,84.44,201.22Z"/><path class="cls-1" d="M98.08,189.45c-.19-.32-.1-.47.27-.44a6.4,6.4,0,0,1,2.1.64,10.54,10.54,0,0,1,3.28,2.15c.29.29.87.2.92.76-.27.19-.57-.31-.83,0-.31.05-.46-.19-.64-.37a8.85,8.85,0,0,0-2.24-1.59l-.17-.07-.58-.28a8.8,8.8,0,0,0-1.56-.56C98.43,189.68,98.21,189.66,98.08,189.45Z"/><path class="cls-1" d="M98.08,189.45a6.88,6.88,0,0,1,2.21.75.17.17,0,0,1,0,.19c-.3.36-.6.08-.87,0a4.75,4.75,0,0,0-2.55-.35c-.75,0-1.5,0-2.25,0-.34,0-.66-.31-1,0-.12.11-.46,0-.66-.18a.17.17,0,0,1,0-.2l1.87-.39a2.58,2.58,0,0,1,2.43,0A1.09,1.09,0,0,0,98.08,189.45Z"/><path class="cls-1" d="M84.72,198.47c0-.68.39-1.27.39-1.94a3.63,3.63,0,0,1,.29-.86,15.41,15.41,0,0,1,1.16-1.95c.42-.41.67-1,1.24-1.25l1.82-1.42a1.17,1.17,0,0,1,.69-.32c.13,0,.17,0,.19.14-.22.4-.65.57-1,.82a11.24,11.24,0,0,0-4.24,6,1.32,1.32,0,0,1-.36.75A.19.19,0,0,1,84.72,198.47Z"/><path class="cls-1" d="M86.68,193.76l-1.16,2c-.61,0-.71-.09-.48-.62a1.69,1.69,0,0,0,.29-.72,3,3,0,0,1,.53-.82c.13,0,.18-.07.24-.17s.24-.31.46-.18A.35.35,0,0,1,86.68,193.76Z"/><path class="cls-1" d="M107.57,201.62c-.15.23,0,.8-.6.51a6.21,6.21,0,0,1,.08-2.61h.57A4.56,4.56,0,0,1,107.57,201.62Z"/><path class="cls-1" d="M97.24,189.31a11,11,0,0,0-2.43,0c-.23-.49-.08-.67.45-.61s1.11,0,1.67.07S97.37,189,97.24,189.31Z"/><path class="cls-1" d="M86.68,193.76c0-.19,0-.41-.23-.47s-.26.16-.36.29-.16.12-.23,0c.27-.36.56-.72.82-1.08.38-.53.74-.6,1.12,0Z"/><path class="cls-1" d="M85.33,194.39c.19.27,0,.45-.15.62-.26.44-.16.66.34.72-.15.25-.12.61-.41.8l-.28-.48c-.35.2-.24.67-.58.83A8.48,8.48,0,0,1,85.33,194.39Z"/><path class="cls-1" d="M103.8,192.6c0-.36.11-.55.49-.27a2.74,2.74,0,0,0,.36.23c.19.16.41.28.47.54,0,.54-.38.24-.62.26A.88.88,0,0,1,103.8,192.6Z"/><path class="cls-1" d="M90.46,190.88l-.15-.15a4.62,4.62,0,0,1,2.22-.9.88.88,0,0,0,.41-.17v.17a.24.24,0,0,1-.18.3c-.7.22-1.36.56-2.06.78A.32.32,0,0,1,90.46,190.88Z"/><path class="cls-1" d="M107.49,198.59c-.24-.18-.11-.45-.14-.68C107.59,198.1,107.42,198.37,107.49,198.59Z"/><path class="cls-1" d="M90.87,210.74a18.25,18.25,0,0,1-2.69-1.92c-.44-.46-.91-.89-1.37-1.33a9.18,9.18,0,0,1-1.2-2.05.35.35,0,0,1,0-.28c.52-.1.46.42.68.64A10.25,10.25,0,0,0,87,207c.15.17.33.31.49.47a4.85,4.85,0,0,0,.68.75,4.28,4.28,0,0,0,.64.56,6,6,0,0,0,.92.74c.24.2.55.29.79.5a5.45,5.45,0,0,1,.66.39,5,5,0,0,0,.63.28c.23.08.47.12.7.22a8.17,8.17,0,0,0,1,.27c.39.1.78.13,1.17.19l.21,0h1.93c.27,0,.55-.17.82,0a.21.21,0,0,1,0,.29l-.26,0H97a11.89,11.89,0,0,1-2.53,0A8.33,8.33,0,0,1,90.87,210.74Z"/><path class="cls-1" d="M97.66,211.66v-.23a.51.51,0,0,1,.27-.23,3,3,0,0,0,.59-.16,2.87,2.87,0,0,1,.4-.18c.22-.08.46-.11.68-.2l.73-.29c.27-.11.49-.3.76-.41a3.53,3.53,0,0,0,.59-.35,5,5,0,0,0,.75-.63c.2-.11.33-.3.52-.42a1.59,1.59,0,0,0,.53-.47c.22-.22.41-.46.62-.69a2.58,2.58,0,0,0,.43-.5,7.71,7.71,0,0,0,.49-.77c.13-.16.18-.37.35-.49s.25.12.27.28a10.67,10.67,0,0,1-1.4,2.1,12.78,12.78,0,0,1-4.45,3.07A14.56,14.56,0,0,1,97.66,211.66Z"/><path class="cls-1" d="M85.63,205.13l0,.31a10.57,10.57,0,0,1-1.17-4.22,9.32,9.32,0,0,0,.09-1.49c0-.21,0-.44.17-.62a.12.12,0,0,1,.18.06,15.85,15.85,0,0,0,.2,3.51,16,16,0,0,0,.53,1.66C85.67,204.6,85.84,204.87,85.63,205.13Z"/><path class="cls-1" d="M105.64,205.92l-.25-.26a.25.25,0,0,1,0-.26c.33-.37.24-.89.48-1.29a6.59,6.59,0,0,0,.54-1.68,10,10,0,0,0-.13-4.11,9.86,9.86,0,0,0-2.18-4.61,8.06,8.06,0,0,0-2.77-2.42,1.15,1.15,0,0,1-.49-.51.28.28,0,0,1,.05-.28,8.66,8.66,0,0,1,2.87,2.1l.7.76a13.5,13.5,0,0,1,2.23,4.53,8.87,8.87,0,0,0,.32,1.63,10.38,10.38,0,0,1-.08,2.61,14.81,14.81,0,0,1-1.09,3.42A.67.67,0,0,1,105.64,205.92Z"/><path class="cls-1" d="M94.49,211.69H97A4.54,4.54,0,0,1,94.49,211.69Z"/><path class="cls-1" d="M84.84,199.12H84.7l0-.64h.12A.46.46,0,0,1,84.84,199.12Z"/><path class="cls-1" d="M100.28,190.35v-.15a.72.72,0,0,1,.52.27c0,.34-.25.21-.42.14S100.24,190.47,100.28,190.35Z"/><path class="cls-1" d="M100.41,190.48c.13,0,.27.21.4,0l.12,0v.24C100.64,190.89,100.37,191,100.41,190.48Z"/><path class="cls-1" d="M84.84,199.12v-.66a15.16,15.16,0,0,1,1.69-3.9,11.18,11.18,0,0,1,3.93-3.68l2.49-1c.53.24,1.08-.27,1.61,0-.09.32-.38.34-.63.38a10.49,10.49,0,0,0-3.88,1.48,10.88,10.88,0,0,0-1.2.95,6.52,6.52,0,0,0-.82.75,2.81,2.81,0,0,0-.48.61,5.12,5.12,0,0,0-.41.54,4,4,0,0,0-.24.33,2.1,2.1,0,0,1-.35.66c-.11.15-.2.33-.3.49a4.59,4.59,0,0,0-.27.7l-.12.22a2.06,2.06,0,0,0-.15.48c0,.17-.08.35-.12.52s-.08.36-.13.53a4.34,4.34,0,0,0-.18.94c0,.24,0,.47,0,.7a.94.94,0,0,1-.1.28c-.31.44-.1.92-.09,1.38s.17.69-.1,1A7.56,7.56,0,0,1,84.84,199.12Z"/><path class="cls-1" d="M100.41,190.48c0,.35.32.24.52.26.35.47.93.61,1.37.95a11.59,11.59,0,0,1,4,5.68,2.39,2.39,0,0,1,.12.83c-.57,0-.33-.61-.59-.85-.07-.16-.09-.34-.15-.5a1.14,1.14,0,0,0-.13-.3,1.44,1.44,0,0,0-.18-.25,1.51,1.51,0,0,1-.22-.44,1.61,1.61,0,0,0-.15-.36,4.53,4.53,0,0,0-.27-.48c-.1-.13-.17-.28-.28-.4s-.21-.33-.34-.48a4.15,4.15,0,0,1-.27-.32c-.11-.13-.23-.25-.34-.36l-.28-.29a3.71,3.71,0,0,1-.27-.29,1,1,0,0,0-.28-.27,1.75,1.75,0,0,0-.42-.29c-.2-.09-.29-.29-.45-.42a1.47,1.47,0,0,0-.45-.23,5.21,5.21,0,0,1-.74-.48l-.15-.07a1.86,1.86,0,0,0-.62-.26c-.14,0-.28-.1-.41-.15a2.3,2.3,0,0,0-.78-.2c-.28,0-.5-.25-.79-.24s-.62,0-.86-.22a.24.24,0,0,1,0-.2,4.08,4.08,0,0,1,2.78.46c.2.11.34.16.53,0Z"/><path class="cls-1" d="M97,189.85a.41.41,0,0,0,0,.09c0,.26-.18.3-.34.3a6.11,6.11,0,0,0-1.69.39,35.05,35.05,0,0,0-4,1.18c-.34.13-.77.38-1.06-.15a9.11,9.11,0,0,1,3.75-1.59,3.83,3.83,0,0,0,.87-.22Z"/><path class="cls-1" d="M85.11,200.17v-.78c1.22,0,2.4.39,3.59.53a10.31,10.31,0,0,1,3.93,1.49.72.72,0,0,0,.94-.1,2.13,2.13,0,0,1,1-.63,6.62,6.62,0,0,1,2.39.09,6.76,6.76,0,0,1,4.31,4.37,12,12,0,0,1,.72,2.77,2.37,2.37,0,0,1-.25,1.82,1.48,1.48,0,0,1-.54.35c-.39,0-.33-.33-.33-.59a10,10,0,0,0-.6-3.71,5.88,5.88,0,0,0-2-2.88,3.73,3.73,0,0,0-3.59-.69,5.55,5.55,0,0,0-3.17,3.06,6.56,6.56,0,0,0-.72,4.16c0,.25,0,.54-.26.67-.24-.21-.61-.21-.79-.51a2.84,2.84,0,0,1-.12-1.92,9.12,9.12,0,0,1,2-4.69.21.21,0,0,0,.06-.22,2.15,2.15,0,0,1-1-.54,7.89,7.89,0,0,0-3.26-1.43,16.89,16.89,0,0,0-2-.43A.33.33,0,0,1,85.11,200.17Z"/><path class="cls-1" d="M90.47,210.1a.89.89,0,0,0,.11-.69,6.43,6.43,0,0,1,.67-4.12,5.7,5.7,0,0,1,2.33-2.82c2-1.12,3.57-.8,5.22.74a7.29,7.29,0,0,1,2.14,4.79,7.08,7.08,0,0,1,0,1.84c0,.06.13.16.2.24l-.78.39c-.39-.19-.29-.55-.27-.86A7.94,7.94,0,0,0,99,204.93,4,4,0,0,0,95,203a3.53,3.53,0,0,0-2.16,1.47,7.65,7.65,0,0,0-1.51,5.33c0,.25.13.53-.19.69Z"/><path class="cls-1" d="M99.63,210.79c-.18.18-.45.11-.66.23-.37-.29-.18-.66-.12-1a5.21,5.21,0,0,0-.9-4.22,2.52,2.52,0,0,0-4.44.1,5.18,5.18,0,0,0-.86,4.4c.07.25.11.53-.22.67-.21-.1-.48,0-.66-.23-.34-.26-.21-.65-.24-1a7,7,0,0,1,1.71-5.31,3.51,3.51,0,0,1,5.24.19,6.62,6.62,0,0,1,1.44,3.57,14.92,14.92,0,0,1,0,1.77A1.1,1.1,0,0,1,99.63,210.79Z"/><path class="cls-1" d="M99.63,210.79a9.11,9.11,0,0,0-.08-3.41,6.62,6.62,0,0,0-1.17-2.54,3.32,3.32,0,0,0-5-.26A6.65,6.65,0,0,0,91.76,210c0,.26-.13.52,0,.77a1.38,1.38,0,0,1-.65-.26c.21-.3,0-.59,0-.88a7.7,7.7,0,0,1,1.59-5.27,3.59,3.59,0,0,1,3-1.53c2.38,0,3.36,1.54,4.14,3.35a6.62,6.62,0,0,1,.49,3.47,1.12,1.12,0,0,0,.11.82Z"/><path class="cls-1" d="M85.11,200.17c2.14.37,4.3.7,6,2.26a.49.49,0,0,0,.42.14c.15,0,.36-.15.44.09s-.14.26-.24.36a8.18,8.18,0,0,0-1.82,3.85,10.43,10.43,0,0,0-.23,2.72,2,2,0,0,1-.94-.77,12,12,0,0,1,1.16-5c.54-1.07.28-1-.55-1.11a2.85,2.85,0,0,1-.29,0l-.18,0a2.29,2.29,0,0,0-.78-.24,4.21,4.21,0,0,1-.66-.28c-.32-.17-.6-.39-.93-.53a4.28,4.28,0,0,1-1.39-1.14Z"/><path class="cls-1" d="M97.92,211.3l-.26.13c-.27-.07-.52.1-.79.1a.22.22,0,0,1,.09-.33c1.22-.77,1-3.54,0-4.58a1.62,1.62,0,0,0-2.56.23,3.51,3.51,0,0,0-.46,3.64,1.6,1.6,0,0,0,.13.3c.1.15-.07.51.35.42.14,0,.27.13.24.32l-1.17-.23c-.61-.26-.68-.86-.75-1.35a4.66,4.66,0,0,1,1.63-4.62,2.39,2.39,0,0,1,2.84.07,4.71,4.71,0,0,1,1.48,4.84c-.06.3-.11.6-.19.89S98.08,211.13,97.92,211.3Z"/><path class="cls-1" d="M98.44,211.15c-.23-.61.12-1.18.21-1.75a4.93,4.93,0,0,0-1.93-4.19,2.68,2.68,0,0,0-2.71.64,4.71,4.71,0,0,0-.66,5.3.87.87,0,0,0,.13.15,3,3,0,0,1-1-.3.74.74,0,0,0,.07-.62,5.26,5.26,0,0,1,.61-4.1A4,4,0,0,1,95,204.51c1.05-.51,2.77.53,3.27,1.39a7.25,7.25,0,0,1,.9,3.08,6.37,6.37,0,0,1-.22,1.66.62.62,0,0,0,0,.38l-.38.14A.09.09,0,0,1,98.44,211.15Z"/><path class="cls-1" d="M96.74,211.53H94.79a1.07,1.07,0,0,0-.25-.44,3.24,3.24,0,0,1-.29-3.64c.92-1.37,2.19-1.29,3,.07A3.36,3.36,0,0,1,97,211C96.86,211.19,96.71,211.31,96.74,211.53Z"/><path class="cls-1" d="M96.74,211.53l-.31-.2c1.24-.8,1.53-3.62,0-4.49a1.66,1.66,0,0,0-1.91.42,4.08,4.08,0,0,0-.38,3c0,.35.38.5.6.74s.35.3.05.5h-.14s-.05-.1-.08-.1c-1-.15-.91-1.12-1-1.73a3.42,3.42,0,0,1,1-3.26,1.84,1.84,0,0,1,2.86.45,4.37,4.37,0,0,1,.4,3.56c-.13.48-.56.75-.9,1.08Z"/><path class="cls-1" d="M89.29,202.52l.44.09c.93.21.87.24.4,1.13a8.05,8.05,0,0,0-1,3,9.66,9.66,0,0,1-.42,2.06,1.09,1.09,0,0,1-.63-.54.87.87,0,0,1-.16-.68,12.3,12.3,0,0,1,1-3.67A2.43,2.43,0,0,0,89.29,202.52Z"/><path class="cls-1" d="M86.54,201.47a2,2,0,0,1,.92.52.6.6,0,0,1,0,.73,6.62,6.62,0,0,0-.74,2.29c-.06.35-.08.75-.52.91-.24-.22-.18-.64-.52-.79,0-.26-.1-.52-.14-.77A7.1,7.1,0,0,1,86.54,201.47Z"/><path class="cls-1" d="M86.15,205.92a1.67,1.67,0,0,0,.37-1,5.58,5.58,0,0,1,.73-2.25,1.13,1.13,0,0,0,.21-.67l.65.27c.07.11.28,0,.3.2a25.94,25.94,0,0,0-1,2.54,8.42,8.42,0,0,0-.21,1.41c-.06.25,0,.53-.31.68A5.82,5.82,0,0,1,86.15,205.92Z"/><path class="cls-1" d="M89.29,202.52a.92.92,0,0,1,0,1.08,10.61,10.61,0,0,0-1.19,4.68c-.28-.21-.59-.4-.67-.78a3.94,3.94,0,0,1,.16-1.6,14.73,14.73,0,0,1,.91-2.82,1,1,0,0,1,.51-.56Z"/><path class="cls-1" d="M89,202.52a12.31,12.31,0,0,0-1.43,4.58c0,.15,0,.3-.15.4s-.35-.26-.51-.41a12.7,12.7,0,0,1,.26-1.69,7.84,7.84,0,0,1,1.18-3,1,1,0,0,1,.52.13Z"/><path class="cls-1" d="M101.72,209.73a7.76,7.76,0,0,0-.44-3.87,7,7,0,0,0-1.06-2.36,6.6,6.6,0,0,0-3-2.47,10.34,10.34,0,0,0-2.71-.21c-.18-.35.09-.52.3-.68s.5-.55.92-.55a10.18,10.18,0,0,1,2.13.57,7.59,7.59,0,0,1,1.83,1.22,9.34,9.34,0,0,1,2.57,4.69,7.43,7.43,0,0,1,.35,2.57.62.62,0,0,1-.12.43A1.74,1.74,0,0,1,101.72,209.73Z"/><path class="cls-1" d="M105.12,195.45c.15.1.13.25.14.39s-.08.4-.23.54a13.82,13.82,0,0,0-2.14,2.44c-.26.38-.5.79-1.15.64a13.48,13.48,0,0,0,1,1.4,12.74,12.74,0,0,1,1.92,5.6,1.15,1.15,0,0,1,0,.52c-.12.18-.16.42-.4.51-.4-.06-.44-.39-.49-.68s-.19-.85-.27-1.27a10.65,10.65,0,0,0-3.91-6.41c-.14-.11-.38-.17-.29-.44.26-.18.53-.06.79,0s.47,0,.69.07c.83.26.81.25,1.34-.41a24.28,24.28,0,0,1,2.54-2.63A.75.75,0,0,1,105.12,195.45Z"/><path class="cls-1" d="M102.5,209.07c-.12-.55,0-1.11-.11-1.66-.45-2.3-1.14-4.48-3-6a4.93,4.93,0,0,0-3.23-1.45.48.48,0,0,1-.48-.26,1,1,0,0,1,.94-.6,7,7,0,0,1,4.35,2.86,9.93,9.93,0,0,1,1.68,3.78c.13.63.28,1.27.42,1.9a1.19,1.19,0,0,1-.07,1.07C102.79,208.72,102.79,209.08,102.5,209.07Z"/><path class="cls-1" d="M99.23,198.73a10.43,10.43,0,0,1,4,5.29,20.77,20.77,0,0,1,.65,2.67,1.05,1.05,0,0,0,.36.8,2.4,2.4,0,0,1-.64.67c-.41-.23-.4-.66-.43-1a10.91,10.91,0,0,0-1.63-4.76,8.31,8.31,0,0,0-3.11-3.09c-.25-.14-.54-.28-.21-.62a.5.5,0,0,1,.2-.08C98.68,198.56,99,198.49,99.23,198.73Z"/><path class="cls-1" d="M104.6,207c-.26-.4-.1-.86-.18-1.28a15.15,15.15,0,0,0-2.11-5.22,5.5,5.5,0,0,0-.66-.71c-.1-.11-.24-.23-.15-.4s.26-.12.41-.08.33.14.46-.06a26,26,0,0,1,2.89-3.39c.08.14.17.27.25.4s0,.28-.1.39a25.58,25.58,0,0,0-2.53,2.87c-.22.27-.06.47.08.63a8.77,8.77,0,0,1,1.4,2.63c.38,1.11,1,2.18.76,3.43C105,206.45,104.91,206.8,104.6,207Z"/><path class="cls-1" d="M98.19,198.73c0,.12-.13.25,0,.33,2.09,1,3.23,2.75,4.2,4.76a18.85,18.85,0,0,1,1,3.91,3.09,3.09,0,0,0,.14.43.82.82,0,0,1-.54.5,9.66,9.66,0,0,0-.47-2.66c-.13-.4-.18-.83-.31-1.23a8.17,8.17,0,0,0-4.14-5.07,15.09,15.09,0,0,1-1.48-.58c.28-.53.83-.42,1.29-.52A.41.41,0,0,1,98.19,198.73Z"/><path class="cls-1" d="M105.12,206.19c-.23-.38,0-.83-.15-1.21-.21-.72-.5-1.42-.73-2.13a17,17,0,0,0-1.74-3.15,40.34,40.34,0,0,1,3-3.46.26.26,0,0,1,.13.26c.16.29-.09.44-.22.62-.49.72-1.15,1.31-1.66,2a.72.72,0,0,0-.08.89,21.56,21.56,0,0,1,1.85,4.37,1.5,1.5,0,0,1,0,1.14l-.12.13A.78.78,0,0,1,105.12,206.19Z"/><path class="cls-1" d="M98.44,211.15h.15c-.19.19-.44.09-.67.14C98.05,211.09,98.26,211.18,98.44,211.15Z"/><path class="cls-1" d="M86.54,201.47c0,.08.09.2,0,.24-.63.77-.6,1.82-1.1,2.65a4.39,4.39,0,0,1-.52-1.58c0-.76-.2-1.5-.14-2.27,0-.41.17-.12.29-.08A12.91,12.91,0,0,1,86.54,201.47Z"/><path class="cls-1" d="M105.77,196.76c.19.14.12.35.14.53a.64.64,0,0,1-.14,1c-.64.58-.63.63-.2,1.37s.61,1.38,1,2.05a.92.92,0,0,1,0,.81,3.92,3.92,0,0,1-.52,1.7c-.43-.21-.5-.66-.6-1a10.94,10.94,0,0,0-1.29-2.9,1.25,1.25,0,0,1,0-1.61C104.71,198,105.25,197.4,105.77,196.76Z"/><path class="cls-1" d="M105.77,196.76c0,.67-.73.88-1,1.41,0,.08-.12.12-.18.19-.81.95-.79,1-.19,2.06a15,15,0,0,1,1.31,3.15,4.55,4.55,0,0,0,.28.65c-.24.41-.1,1-.53,1.31a7.78,7.78,0,0,0-.8-3,14,14,0,0,0-1.41-2.82c-.15-.23,0-.3.14-.43l2-2.51a1.51,1.51,0,0,0,.15-.28A.26.26,0,0,1,105.77,196.76Z"/><path class="cls-1" d="M106.56,202.52c.08-.75-.53-1.24-.72-1.9a4.8,4.8,0,0,0-.7-1.32c-.36-.53.16-.86.48-1.09a.67.67,0,0,0,.29-.92c.44.15.07.77.52.91A7.66,7.66,0,0,1,106.56,202.52Z"/><path class="cls-1" d="M97.92,198.73a4.39,4.39,0,0,0-1.31.39l-.91.53c-.37.41-1,.55-1.18,1.17-.44.14-.68.52-1,.78a.6.6,0,0,1-.86,0,10,10,0,0,0-2.88-1.37,17.92,17.92,0,0,0-3-.48c-.41-.06-.81-.3-1.25-.14-.21.07-.3-.14-.43-.24a2.38,2.38,0,0,1,.24-.94.53.53,0,0,1,.18.24c.07.19.23.23.42.23a32.75,32.75,0,0,1,6.4.7,3.89,3.89,0,0,0,2.63-.49,9.38,9.38,0,0,0,1.6-1.12c1.43-1.21,2.94-2.31,4.48-3.37a21.33,21.33,0,0,0,2-1.27.46.46,0,0,1,.55,0l.38.4a6.41,6.41,0,0,1-1.48,1.05,19.68,19.68,0,0,0-4.25,3.68A1.79,1.79,0,0,1,97.92,198.73Z"/><path class="cls-1" d="M102.36,192.21c.22,0,.3.2.42.34s-.16.26-.3.34l-4.7,2.65a15,15,0,0,1-7.07,2.22,23.81,23.81,0,0,0-4.21.32c-.78.15-1,0-.89-.69,0-.17,0-.37.14-.51a1.23,1.23,0,0,0,1,.19c1.85-.24,3.71-.43,5.54-.76A7.65,7.65,0,0,0,95,195.5a9.44,9.44,0,0,1,1.45-.56c1.59-.66,3.08-1.51,4.61-2.29A4.55,4.55,0,0,1,102.36,192.21Z"/><path class="cls-1" d="M102.36,192.21c-1.11.55-2.23,1.09-3.34,1.67a14.57,14.57,0,0,1-2.63,1.22c-1,.28-1.79.83-2.79,1.07-1.32.32-2.66.41-4,.68-1,.21-2.06.12-3.06.41-.26.07-.8.28-.82-.38l.08-.13a1.2,1.2,0,0,1,.88-.44,34,34,0,0,0,10.46-2.56c1.29-.58,2.59-1.14,3.88-1.73a1.49,1.49,0,0,1,.8-.23C102.15,191.77,102.1,192.19,102.36,192.21Z"/><path class="cls-1" d="M85.61,197.39c0,.43.14.61.57.55a25.45,25.45,0,0,1,2.61-.31c.62,0,1.24-.08,1.85-.07a12.28,12.28,0,0,0,5.66-1.46c1.39-.68,2.7-1.51,4.07-2.24a25.56,25.56,0,0,1,2.41-1.31.31.31,0,0,1,.25.28c0,.23-.14.3-.28.39-1.89,1.16-3.82,2.24-5.68,3.45a16,16,0,0,1-3.77,1.64,1.62,1.62,0,0,1-.58.07c-2.18,0-4.36,0-6.54,0-.29,0-.77.15-.7-.45C85.49,197.74,85.45,197.54,85.61,197.39Z"/><path class="cls-1" d="M101.85,191.79c-1.13.68-2.39,1.07-3.57,1.65a35.2,35.2,0,0,1-3.6,1.46,18.22,18.22,0,0,1-2.68.72c-.86.17-1.71.39-2.57.54a24.52,24.52,0,0,0-2.56.32,4.19,4.19,0,0,0-1,.27,1.86,1.86,0,0,1,.32-.77,26.07,26.07,0,0,1,2.79-.59,39,39,0,0,0,4-.85,56.16,56.16,0,0,0,7.36-2.77,2.81,2.81,0,0,1,1.14-.21A.65.65,0,0,1,101.85,191.79Z"/><path class="cls-1" d="M85.48,197.92c0,.31.27.28.49.28,2.33,0,4.66.08,7,0a7.32,7.32,0,0,0,2.78-1,39,39,0,0,0,3.51-2.13c.6-.4,1.28-.72,1.92-1.08s1.25-.76,1.87-1.14l.27.27a12.31,12.31,0,0,1-2.45,1.57c-1.11.8-2.29,1.5-3.4,2.31a9.13,9.13,0,0,1-6.89,2,28.34,28.34,0,0,0-3.45-.11,12.63,12.63,0,0,1-1.74-.14l0-.27C85.35,198.26,85.32,198.07,85.48,197.92Z"/><path class="cls-1" d="M101.44,191.56c-2.3.87-4.53,1.95-6.88,2.68A23.83,23.83,0,0,1,90,195.35a29.74,29.74,0,0,0-3.57.73c-.15,0-.23.1-.25-.1l.28-.52c1.62-.48,3.29-.75,4.94-1.12A38.71,38.71,0,0,0,95.79,193c1.41-.5,2.79-1.08,4.21-1.55a2.29,2.29,0,0,0,.67-.4Z"/><path class="cls-1" d="M99.89,190.74a.79.79,0,0,1,.65.28c0,.3-.27.32-.45.38a82.49,82.49,0,0,1-9.33,3c-1.09.28-2.2.48-3.3.73-.24,0-.66.24-.65-.32l.24-.31A6.17,6.17,0,0,1,88.9,194c1.61-.44,3.2-.94,4.81-1.36s3-1,4.59-1.42C98.84,191.1,99.29,190.7,99.89,190.74Z"/><path class="cls-1" d="M99.89,190.74A14.08,14.08,0,0,1,97,191.82c-.74.2-1.43.56-2.17.76-1.81.51-3.61,1.08-5.44,1.52a5.7,5.7,0,0,1-2.35.42c0-.28.28-.34.39-.53a2.83,2.83,0,0,1,1.34-.46c2.58-.5,5-1.45,7.57-2.13a7.78,7.78,0,0,0,1.59-.58,2.44,2.44,0,0,1,1.57-.24Z"/><path class="cls-1" d="M99.51,190.58a30.58,30.58,0,0,0-3.84,1.22c-2,.52-4,1.29-6.09,1.73a12,12,0,0,1-2.14.46.92.92,0,0,1,.53-.65,9.68,9.68,0,0,1,2.3-.69c1.51-.43,3-1,4.51-1.33,1-.22,1.84-.65,2.8-.88.39-.09.78.1,1.13-.1A1.86,1.86,0,0,1,99.51,190.58Z"/><path class="cls-1" d="M98.71,190.34c-1.35.31-2.65.78-4,1.18-1.61.48-3.21,1-4.84,1.43a7,7,0,0,1-1.92.39,2.36,2.36,0,0,1,.78-.79c1.31-.44,2.63-.82,4-1.2s2.7-.8,4.06-1.17c.38-.1.78.08,1.15-.09S98.39,190.43,98.71,190.34Z"/><path class="cls-1" d="M86.81,194.83c.06.33.33.27.51.2.46-.16,1-.14,1.39-.26,1.92-.52,3.85-1,5.76-1.59,1.09-.34,2.15-.76,3.26-1a21.63,21.63,0,0,0,2.81-1.12l.13,0c0,.4-.31.49-.55.54a25.84,25.84,0,0,0-2.58,1c-1.61.45-3.15,1.12-4.77,1.6s-3.25.6-4.83,1.1a3.3,3.3,0,0,1-1.51.19C86.68,195.33,86.6,195,86.81,194.83Z"/><path class="cls-1" d="M97.92,190.09a19,19,0,0,0-2.46.65L91.32,192c-.79.24-1.57.5-2.37.73,0,0-.13-.08-.2-.13a3.87,3.87,0,0,1,1.19-.89c.3.25.62.13.92,0,1.36-.54,2.81-.79,4.17-1.27.67-.24,1.38-.09,2-.46C97.29,190.13,97.62,190,97.92,190.09Z"/><path class="cls-1" d="M85.37,198.72a1.64,1.64,0,0,1,.95-.12c1.87.08,3.74.18,5.6.25a7.2,7.2,0,0,0,4.33-1.33c1.73-1.14,3.45-2.31,5.19-3.43.59-.38,1.24-.66,1.86-1l.28.25c-.7.1-1.13.68-1.7,1a45.65,45.65,0,0,0-5.58,4.09,5.62,5.62,0,0,1-3,1.42,6.87,6.87,0,0,1-2.05-.26,32.31,32.31,0,0,0-4.16-.48,3.84,3.84,0,0,0-1.22,0C85.59,199.17,85.32,199.12,85.37,198.72Z"/><path class="cls-1" d="M97.92,198.73a8.66,8.66,0,0,1,2.49-2.62,19.83,19.83,0,0,1,3.2-2.22,3.65,3.65,0,0,1,.35-.14l.23.29c.06.3-.16.43-.35.56a31.54,31.54,0,0,0-3.45,2.86,1,1,0,0,0-.18.18,2,2,0,0,1-1.9,1.09h-.39Z"/><path class="cls-1" d="M98.31,198.73c.86-.07,1.31-.69,1.86-1.25a21.33,21.33,0,0,1,3.73-3.1,1.93,1.93,0,0,0,.29-.34c.23.09.22.38.4.51s0,.21-.12.27a19,19,0,0,0-3.84,3.59,1.43,1.43,0,0,1-.61.45,2.38,2.38,0,0,0-.79-.13Z"/><path class="cls-1" d="M100,198.86a35.41,35.41,0,0,1,3.1-3.26,14,14,0,0,1,1.47-1l.26.39a.31.31,0,0,1-.18.38,19.25,19.25,0,0,0-3.38,3.37c-.13.15-.26.31-.49.17Z"/><path class="cls-1" d="M100.8,198.86c.49-.07.61-.58.86-.87.67-.76,1.43-1.43,2.07-2.21.3-.37.85-.42,1.12-.84.19.12.15.36.27.51a20.89,20.89,0,0,0-3.27,3.44C101.5,199.38,101.15,199,100.8,198.86Z"/><path class="cls-1" d="M88.89,202.52a.86.86,0,0,1-.52-.13.25.25,0,0,1-.26-.13A.87.87,0,0,1,88.89,202.52Z"/><path class="cls-1" d="M95.58,210.63a1.2,1.2,0,0,1-.93-.93,1.71,1.71,0,0,1,.44-2c.66-.56,1.4-.29,1.75.62A1.61,1.61,0,0,1,95.58,210.63Z"/><path class="cls-1" d="M96.35,209.08c0,.46-.07.87-.55.88s-.61-.43-.63-.87,0-.91.56-.9S96.43,208.61,96.35,209.08Z"/><rect class="cls-2" width="400" height="400"/></g></g></svg>