<svg xmlns="http://www.w3.org/2000/svg" viewBox="0 0 143.05 84.61"><defs><style>.cls-1{fill:#fff;}</style></defs><title>Asset 61</title><g id="Layer_2" data-name="Layer 2"><g id="Layer_1-2" data-name="Layer 1"><path class="cls-1" d="M.87,82.18c.24.2.16.34-.08.46l-.06-.3Z"/><path class="cls-1" d="M.41,84.17a.29.29,0,0,0,0,.13H0l.24-.58C.43,83.82.4,84,.41,84.17Z"/><path class="cls-1" d="M98.53,58.11l-2.78-1.72c0-.37-.31-.43-.61-.43h0l-1-.5a1.6,1.6,0,0,1-.18-.25.9.9,0,0,0-.81-.43.84.84,0,0,1-.28,0c-.34-.2-.63-.48-1-.68l-.23-.23a.59.59,0,0,0-.38-.18H91.2l-1.88-1.15-.12-.24a10.71,10.71,0,0,0-1.45-1,12.78,12.78,0,0,0-2.82-1.63l-.41-.1a4.37,4.37,0,0,0-.55-.32,1.24,1.24,0,0,1-.18-.21,1.18,1.18,0,0,0-.54-.52c-2.6-1.6-5.24-3.13-7.84-4.73a1.63,1.63,0,0,0-.71-.28.6.6,0,0,1-.23,0,7.74,7.74,0,0,0-2.07-1.14h0a3.45,3.45,0,0,0-1.25-.77h0c-.55-.36-1.12-.7-1.64-1.1-.25-.19-.36,0-.52.05a10.33,10.33,0,0,0-1.86,1h0L63.3,44h0a21.26,21.26,0,0,0-1.85,1.08l-2.16,1.37L58.06,47l-.29.17c-.23-.49-.48-.08-.62,0s0,.22.15.26l-3.54,2.21-.35.23a1.6,1.6,0,0,0-.75.47h-.13v.12a7.56,7.56,0,0,0-1.9,1.07l-1.5.92h0a18.15,18.15,0,0,0-2.6,1.57A7.3,7.3,0,0,0,45,55a2.92,2.92,0,0,0-1,.59h0a1.18,1.18,0,0,0-.59.34,2.21,2.21,0,0,0-.84.54h0a3.6,3.6,0,0,0-2.44,1.38s0,.05,0,.07a.43.43,0,0,0-.54.18,4.81,4.81,0,0,1-.6.4c-.23.12-.1.22,0,.34l.76-.29c.17-.15.52,0,.6-.27a.2.2,0,0,0,.17,0,6.74,6.74,0,0,1,1.69-.63,16.48,16.48,0,0,1,1.67-.45c.11-.07.23-.15.19-.3h0a4.06,4.06,0,0,0,1.19-.34l.3-.1,5.59-1.41h0l.25,0c1.65-.23,3.26-.66,4.92-.77l.08-.12h0l1.14,0,.33-.14h.9c.24-.15.53,0,.78-.1,1.85-.31,3.73-.27,5.58-.45a1.07,1.07,0,0,0,.5,0h0c3.47,0,6.93,0,10.39.23.51.16,1.06,0,1.56.2l.28,0a1.09,1.09,0,0,0,1,0A1.19,1.19,0,0,0,79,54l.26,0c.3.15.65,0,1,.13l.07,0,.05,0a8.17,8.17,0,0,0,1.7.29c.21.19.51,0,.72.16s.67,0,1,.17.45,0,.63.13l.16,0,0,.06c.35.27.8.17,1.2.29.22.28.55,0,.8.16a.74.74,0,0,0,.46.06l.16.08.15,0c.14.09.27.22.46.13l.16,0A2.85,2.85,0,0,0,89,56a.93.93,0,0,0,.6.19,2.55,2.55,0,0,0,1.15.26,4.52,4.52,0,0,0,1.31.34,5.94,5.94,0,0,0,1.54.46c.11.17.33,0,.44.15l1.72.48c.1.09.23.07.35.11a2.27,2.27,0,0,0,1.18.36.85.85,0,0,0,.51.2h.08a3.13,3.13,0,0,0,1.11.39c.31.06.56.55,1,.16A3.9,3.9,0,0,0,98.53,58.11Zm-35.22-14h0Z"/><path class="cls-1" d="M36.15,57a1.33,1.33,0,0,1,.61-.32l.18-.25c.16-.15.43-.2.45-.49.3,0,.51-.17.76-.27,0,.21,0,.4.31.43,0-.21.13-.42,0-.63a.49.49,0,0,1,0-.12h0a15.31,15.31,0,0,0,2.62-1.55l.19,0a6.31,6.31,0,0,0,2.54-1.47,1.34,1.34,0,0,1,.18-.28,8.31,8.31,0,0,0,1-.58l.35,0a2.17,2.17,0,0,0,1.24-.86.49.49,0,0,1,0-.11A17,17,0,0,0,49.14,49l.09,0c.74,0,1.17-.6,1.78-.85.27-.19.57-.32.84-.51.71-.49,1.61-.74,2.12-1.52a1.54,1.54,0,0,0,.05-.17,2.2,2.2,0,0,0,.75-.41l1.52-.81c.52-.49,1.27-.67,1.75-1.21l.21-.11.11-.07a4.16,4.16,0,0,0,1.27-.7,1.78,1.78,0,0,1,.47-.09c.46-.25,1.1-.3,1.12-1l0,0h0c.18,0,.35,0,.43-.16l0,0a.91.91,0,0,0,.16-.11l0,0a1.39,1.39,0,0,0,.56-.3.68.68,0,0,1,.29,0,18.42,18.42,0,0,0,2.83-1.61.42.42,0,0,0,.18-.32s0,0,0-.06l.48-.27.06,0a1.59,1.59,0,0,0,1.33-.78s0,0,0-.06l.18,0c0-.23,0-.46,0-.69q0-14.37,0-28.73c0-2.48,0-5,0-7.45a.16.16,0,0,0-.12,0h0a.12.12,0,0,0-.12.08h0l0-.16c-.08.44-.16.88-.23,1.32a10.33,10.33,0,0,0-.38,2,4.74,4.74,0,0,0-.31,1.53c0,.05-.09.11-.14.17h-.15c-.07.3-.13.6-.2.91,0,.15,0,.31,0,.47l-.31,1.52-.13.18a.81.81,0,0,1-.15.62,14.44,14.44,0,0,1-.65,2.59h-.14l-.17.62a.36.36,0,0,0,0,.46h0a.34.34,0,0,1,0,.14h0c-.14-.06-.21.06-.28.19l-.13.75c0,.16,0,.32,0,.47h0a1,1,0,0,0-.17.75,6.43,6.43,0,0,0-.46,1.55.87.87,0,0,0-.13.61h0a5.7,5.7,0,0,0-.8,2.3c-.06.08-.12.15-.17.23-.1.23-.19.46-.28.69L61.71,22c-.06.15-.13.3-.19.44h0a1.5,1.5,0,0,0-.32.78h0c-.12.2-.36.33-.31.61l-.26.34c0,.33-.37.55-.33.91h0c-.06.35-.47.53-.46.91a.31.31,0,0,1-.13,0c-.11.3-.22.6-.34.9l-.15.29h0a2.4,2.4,0,0,0-.46.95c-.19.08-.23.28-.31.45l-.13.3s0,0,0,0c-.41.19-.35.68-.62.95,0,.1,0,.15-.09.17-.25.32-.64.58-.56,1.07l.06.07c-.21.38-.43.76-.65,1.14l-.27.48c-.07.22-.42.3-.31.61l-.31.31c0,.06,0,.11,0,.17-.26.19-.31.5-.47.75a2.62,2.62,0,0,0,0,.28c-.71.36-.79,1.17-1.22,1.72a2.54,2.54,0,0,1-.16.28.16.16,0,0,0-.15,0l-.14.17c-.2.31-.41.62-.59.94a.25.25,0,0,1-.19.27c-.28.67-1,1.07-1.15,1.82a.13.13,0,0,1,0,.06l-.06,0c-.1.22-.21.44-.31.67a.72.72,0,0,0-.48.39h0a.22.22,0,0,0-.11.15.77.77,0,0,0,0,.15l-.07.12s0,0,0,0-.2.1-.25.22a.62.62,0,0,0-.17.25s0,.1,0,.15l-.23.22-.18.42,0,0c-.69.23-.91.86-1.21,1.43l-.33.46a2.94,2.94,0,0,0-.56.75.6.6,0,0,1-.06.19c-.5.61-1,1.21-1.51,1.81,0,0,0,0,0,0-.26,0-.39.19-.56.34-.71.66-1.14,1.55-1.83,2.23a2.56,2.56,0,0,1-.11.24l-.23.17h0a1.15,1.15,0,0,0-.48.45l-.26.32c-.16.22-.56.26-.53.62h0a.42.42,0,0,0-.23.16c-.17.1-.25.32-.45.39a1.51,1.51,0,0,0-.76.83s0,0,0,.06l-1.62,1.4-.3.37-.34.28h0l-.28,0c-.21.16-.46.28-.46.6l-.45.16-.16.16h0c-.3.21-.61.41-.92.61C35.86,57.16,36,57.16,36.15,57ZM60.81,25.67h0Zm-2.23,3.41c0,.06-.08.09-.11.1S58.54,29.1,58.58,29.08ZM38.35,55.52h0Z"/><polygon class="cls-1" points="36.86 57.89 36.86 57.89 36.86 57.89 36.86 57.89"/><path class="cls-1" d="M37.81,58.22h0c-.41,0-.72.18-.77.68l.9-.53.28,0c.07-.13.39-.16.16-.41A1.19,1.19,0,0,0,37.81,58.22Z"/><path class="cls-1" d="M101.35,56l-.15,0-.77-.59h0c-.15-.17-.4-.24-.48-.48l-2.07-1.6s0,0,0,0h0l.06,0c-.21-.69-.93-.94-1.3-1.49l-1.25-1.24-.74-.92c-.16-.25-.57-.25-.61-.62a3.82,3.82,0,0,1-.86-.89l0,0a.41.41,0,0,0-.32-.43.44.44,0,0,1-.25-.3,2.22,2.22,0,0,0-.68-.78l-.09-.14a2.65,2.65,0,0,0-.63-.79.91.91,0,0,0-.35-.55,1.16,1.16,0,0,0-.27-.18l-.12-.2a.19.19,0,0,0-.15,0c-.34-.3-.45-.79-.89-1,0-.34-.23-.54-.4-.78-.44-.64-.9-1.27-1.35-1.9l-.34-.35s0,0,0-.09a4.49,4.49,0,0,0-1.09-1.56l-.11-.15-.42-.39a4.19,4.19,0,0,0-.89-1.34l-.08-.29a2.2,2.2,0,0,0-.45-.77,1.81,1.81,0,0,0-.44-.69h0l-.36-.54v-.28l-.43-.48L83,34l-.21-.59a1.48,1.48,0,0,1-.46-.77c-.09-.11-.19-.22-.28-.34h0l-.65-1.32L81,30.49a1.25,1.25,0,0,1,0-.19,8.49,8.49,0,0,0-1.56-2.76.21.21,0,0,0-.12.05h0L79.2,27a1.29,1.29,0,0,0-.36-.68.5.5,0,0,0-.08-.07V26c-.11-.1-.21-.2-.31-.31s-.1-.19-.14-.28a.23.23,0,0,1,0-.07c0-.1,0-.2-.13-.24a.22.22,0,0,1-.11-.27c-.18-.36-.11-.86-.6-1v-.26a2.06,2.06,0,0,1-.35-.63,1.09,1.09,0,0,0,0-.26,8.44,8.44,0,0,1-.41-1.05c-.06-.11-.17-.14-.25-.22l-.19-.3c0-.1,0-.2,0-.3-.19-.29-.07-.78-.51-.91a.36.36,0,0,1,0-.09v-.23c-.38-1.43-.91-2.82-1.3-4.25a.16.16,0,0,0-.18-.1s0,0,0,.05v0h0l0-.22c0-.17,0-.34.06-.51s0-.72-.43-.81a.13.13,0,0,1,0-.06c.26-.64-.22-1.1-.39-1.64a.19.19,0,0,0-.13,0h0c-.29-1.12-.57-2.24-.86-3.36h0c-.07-.32-.15-.65-.23-1h0c-.09-.41-.19-.81-.28-1.22h0c-.06-.15-.11-.31-.17-.46a2.46,2.46,0,0,1,0-.26h0a5,5,0,0,0-.27-1.43h0c-.06-.21-.12-.42-.17-.62a2.34,2.34,0,0,0,0-.26A4.47,4.47,0,0,0,71.08,2h0a1.06,1.06,0,0,0-.14-.65h0c0-.18,0-.37,0-.56V.47C70.76.35,71,0,70.59,0a1.8,1.8,0,0,0,0,1c0,.61,0,1.23,0,1.84q0,17.12,0,34.23c0,.25-.15.57.19.75l4.42,2.68h0l9.38,5.7,6.63,4a1.22,1.22,0,0,0,.57.35h0l2,1.22,2.54,1.63,0,0c.07.36.36.28.61.3h0l.75.37h0l2.79,1.69c.14.23.39.29.6.42l.47.32.15-.17ZM71.07,35.2h0Zm2.74-21v0s0,0,0,0S73.84,14.26,73.81,14.22ZM72.44,8.61h0Z"/><path class="cls-1" d="M68.8.68,68.56,1c0,.28,0,.55,0,.83a.12.12,0,0,0,0,.13.09.09,0,0,0,.12-.05h.12Z"/><path class="cls-1" d="M142.93,67.89a22.43,22.43,0,0,1-2.84,0c-.36.08-.37.4-.48.67a.86.86,0,0,0-.05.23,3.4,3.4,0,0,0-.39.7l-.1,0a.49.49,0,0,0-.39.3c-.09.38-.46.63-.47,1,0,.13.1.3-.13.35s-.23.29-.29.47,0,.1,0,.16l-.08.13h-.07c-.23.11-.27.35-.38.54a9.55,9.55,0,0,0-.86,1.45.76.76,0,0,0,0,.15l-.07.07-.05.25h0c-.4.25-.67.16-.85-.3a4.45,4.45,0,0,0-.83-1.32h0c-.13-.27-.18-.6-.46-.77h0c-.06-.18-.06-.42-.32-.47h-.12a2.62,2.62,0,0,1,0-.28c-.13-.28-.09-.7-.46-.79a.25.25,0,0,0,0-.07,1,1,0,0,0-.3-.54c-.29-.53-.54-1.07-.8-1.6-.18-.1-.3-.29-.47-.4L129.1,68h0l-.24-.09a.55.55,0,0,0,.15.6.63.63,0,0,1,0,.19.82.82,0,0,0,0,.31,1.67,1.67,0,0,0,.74.93c.16,0,.19.11.18.24a.64.64,0,0,0,.06.18.34.34,0,0,1,.2.32.73.73,0,0,1,.16.33,8.2,8.2,0,0,0,1.74,2.92.22.22,0,0,1,.11,0V74l.43.56c0,.16.06.32.11.48.21.44.25,1,.79,1.24h0s0,.11,0,.16l.35.6c.24,0,.27.32.43.45h0a1.74,1.74,0,0,0,.11.18c0,1.89,0,3.79,0,5.69,0,.44.08.67.59.63h.12a2.93,2.93,0,0,0,1.41,0,4.86,4.86,0,0,0,.54,0l.07,0h.08V77.89l.07-.06a4.27,4.27,0,0,1,.36-.38,1.08,1.08,0,0,0,.11-.5s0,0,0,0h0l0-.24h.05c.4-.09.4-.44.47-.75l0-.09h0a1.23,1.23,0,0,1,.33-.6l.84-1.57,0-.06a.16.16,0,0,0,.15-.09h0c.29-.16.3-.51.48-.75,0-.11-.05-.26.12-.32a.19.19,0,0,0,.13-.14v0a.38.38,0,0,0,.19-.33l.18-.55.23-.18a.66.66,0,0,0,.33-.48.39.39,0,0,1,.21-.37.88.88,0,0,0,.46-.78,1.92,1.92,0,0,1,0-.24,4.51,4.51,0,0,0,.48-.82,1,1,0,0,1,.13-.09.37.37,0,0,0,.13-.15h0A.25.25,0,0,0,142.93,67.89Z"/><path class="cls-1" d="M103.2,82.79c0-4.88,0-9.75,0-14.63a.39.39,0,0,0-.1-.27,16.83,16.83,0,0,1-2.56,0,.14.14,0,0,0,0,.17,1.73,1.73,0,0,0-.07.81c0,4.66,0,9.31,0,14,0,.38,0,.76-.06,1.14l.26,0h.28a3.57,3.57,0,0,0,1.72,0H103c.29-.12.25-.34.21-.55A5,5,0,0,0,103.2,82.79Z"/><path class="cls-1" d="M74.49,68.85c0-.27.09-.57-.17-.79l-.24-.12-.16,0h-.58a1.92,1.92,0,0,1-1,0H72a.69.69,0,0,0-.2.77,7,7,0,0,1,.06,1.37c0,4.64,0,9.28,0,13.93a.18.18,0,0,0,.24,0l.12,0,1.85,0,.15,0a.39.39,0,0,0,.1.08.45.45,0,0,0,.21-.2,5.16,5.16,0,0,0,0-1.52C74.54,77.84,74.51,73.34,74.49,68.85Z"/><path class="cls-1" d="M36.23,70.48l-.15-.14a12.31,12.31,0,0,0-1.47-1.14,1.3,1.3,0,0,1-.15-.23,1.23,1.23,0,0,0-1-.48,3.34,3.34,0,0,0-.43-.1,4.42,4.42,0,0,0-1.12-.3,1.18,1.18,0,0,1-.19-.11c-.21-.06-.44,0-.64-.09H28.9a.25.25,0,0,0-.13.09l-.1,0a4,4,0,0,0-1.34.26,1,1,0,0,1-.34-.07.47.47,0,0,0-.37.18l-.42.34A7.4,7.4,0,0,0,24.29,70a3.59,3.59,0,0,1-.34.17,2.19,2.19,0,0,0-.53.37.79.79,0,0,0-.14.17,5.4,5.4,0,0,0-1.19,2.13c0,.42-.43.72-.3,1.16a.39.39,0,0,0,.1.19l0,.12a.34.34,0,0,0-.2.08,1.36,1.36,0,0,0-.21,1,3.07,3.07,0,0,1,0,1.7,1.85,1.85,0,0,0,.36,1.38.17.17,0,0,0,.12,0v0c0,.14,0,.29,0,.43a.21.21,0,0,0,0,.3h0a.11.11,0,0,1,0,0,.94.94,0,0,0,.23.73.31.31,0,0,0,.21,0l0,0a1.37,1.37,0,0,0,.28.55s0,.07,0,.1a2.5,2.5,0,0,0,.05.29c0,.32.12.57.46.65a.24.24,0,0,0,.14-.05c.08.11.09.29.27.31,0,.19.33.21.3.45l.93.78c.2.44.67.42,1,.61l.66.33a.27.27,0,0,0,.31,0h0s0,.05,0,.08l.2,0a2,2,0,0,0,.25.14l.22.07h.3a9.22,9.22,0,0,0,1.49.21h1.37l1.37-.15h0a4.29,4.29,0,0,0,1.71-.54.6.6,0,0,1,.38-.24.23.23,0,0,0,.21-.17h0l.49-.42.45-.16c0-.13,0-.26.16-.33,1-.7,1-.91.2-1.55,0-.34-.3-.45-.53-.62a.26.26,0,0,1-.15,0l-.16-.24c-.15,0-.31-.14-.42,0h0a.37.37,0,0,0-.28.11l-.14.15c-.1.08-.24.08-.35.14a.81.81,0,0,0-.14.12.92.92,0,0,0-.26.38h0a5.47,5.47,0,0,1-2,.68,2.2,2.2,0,0,1-.67.08,2,2,0,0,1-1,0h-.61a1.46,1.46,0,0,1-.29,0l-.09,0-.8-.23,0,0a.47.47,0,0,0-.19-.12.61.61,0,0,1-.48-.25,2.05,2.05,0,0,0-.73-.51l-.17-.05-.22-.33h0s0,0,0,0a1.45,1.45,0,0,0-.18-.49c-.32-.25-.36-.76-.84-.87l0,0,0-.07a1.76,1.76,0,0,0,.07-.45c-.07-.44-.17-.88-.23-1.33,0-.25,0-.55-.39-.61v-.3a.13.13,0,0,0,0,0c.33-.12.25-.41.25-.64a4.53,4.53,0,0,1,.23-1.41.43.43,0,0,0-.08-.14h0c.12-.29.24-.58.35-.88h0c.26-.1.3-.35.41-.56a1,1,0,0,0,.08-.11.38.38,0,0,0,.24-.22.29.29,0,0,1,.16,0c.29-.16.63-.27.71-.64h.06l.24-.21a2.84,2.84,0,0,0,1.44-.63h0a9.89,9.89,0,0,1,2.82-.14h0c.49.1.87.51,1.4.45.15.22.43.19.61.33h0c.26.29.47.64.92.62.12.26.39.24.6.32l.63-.67,0,0c.22,0,.33-.13.4-.32l.15-.12c.22-.21.77-.27.33-.76ZM24.28,74.31s-.07,0-.09,0l.1-.11A.19.19,0,0,0,24.28,74.31ZM24.23,77c.07,0,0,0,0,0h0S24.21,77,24.23,77Z"/><path class="cls-1" d="M52.39,84.14c-.07,0-.09-.11-.16-.12l.05,0a.7.7,0,0,0-.23-.72h0c-.11-.25-.08-.56-.3-.77h0l-.16-.2c-.08-.1-.05-.22-.05-.33a1.35,1.35,0,0,0,0-.29c-.07-.15-.07-.35-.27-.41a.19.19,0,0,1-.1-.25c0-.08,0-.12-.12-.11h0s0,0,0,0a.41.41,0,0,0,.07-.11,2.24,2.24,0,0,0-.41-1c-.08-.09-.14-.19-.22-.29l-.36-.87a1.08,1.08,0,0,0-.29-.63c-.06-.2-.12-.39-.19-.58a.92.92,0,0,0-.28-.63c-.14-.33-.29-.65-.44-1s-.13-.38-.2-.57c-.24-.57-.49-1.13-.73-1.7l-.17-.45c-.06-.15-.11-.3-.16-.45a1.53,1.53,0,0,1-.33-.63l0-.16L47,71.42h0c-.16-.12-.09-.31-.15-.46a1,1,0,0,0-.3-.65,2.45,2.45,0,0,0,0-.27l-.18-.31c-.14-.32-.15-.72-.49-.93h0c.14-.23-.11-.39-.11-.6h-2c-.22,0-.49-.07-.49.29h0A25.59,25.59,0,0,0,42,71.58a2.33,2.33,0,0,0-.07.25l-.27.35-.31.94a1,1,0,0,0-.29.61l-.3.62a2.26,2.26,0,0,1-.45,1.1c-.26,1-.9,2-1.11,3,0,0,0,.05,0,.08a1.63,1.63,0,0,1-.11.23h0l-.13,0-1.73,4.38a1.36,1.36,0,0,0-.29.66l-.15.44H37c.87-.06,1.77.26,2.61-.18l.34-.55c.07-.27.18-.53.26-.79l.11-.17a5.51,5.51,0,0,0,.38-1.17l.28-.25s.09-.07.13-.07c2.22,0,4.45,0,6.67,0a.52.52,0,0,1,.51.35s0,.08,0,.12a.65.65,0,0,0,0,.2c.17.25.06.74.57.71,0,0,0,0,0,0a.51.51,0,0,0-.09.18,2.34,2.34,0,0,0,.21.63c.08.2.08.45.3.59l.09,0c.06.32.31.41.69.4a2.43,2.43,0,0,1,.27,0,2.34,2.34,0,0,0,1.26,0l.68,0a.1.1,0,0,0,.16,0C52.54,84.29,52.52,84.21,52.39,84.14Zm-9.55-7.57a1.16,1.16,0,0,1,0-.49l0,0A2.35,2.35,0,0,0,43.3,75a3.48,3.48,0,0,0,.44-1l.16-.13c.34-.21.34-.66.62-.92.25.23.32.52.52.71s.32.6.43.93a.86.86,0,0,0,.13.14h0c0,.13.08.27.11.41a1.21,1.21,0,0,0,0,.19c.1.41.23.8.36,1.2s.21.91.71,1.13l0,0,.21.6a.86.86,0,0,1,.08.59H46a12.08,12.08,0,0,0-2.62,0h-1l0-.07C42.18,77.91,42.78,77.32,42.84,76.57Z"/><path class="cls-1" d="M82.53,78.63l-1-1.21a1.15,1.15,0,0,1-.06-.17.38.38,0,0,0-.31-.36l-.08,0a4.82,4.82,0,0,0-1-1.21.11.11,0,0,0,0-.08,1.4,1.4,0,0,0-.74-1.13,1.11,1.11,0,0,1-.19-.09,3.56,3.56,0,0,0-.43-.59.83.83,0,0,1,0-.15.18.18,0,0,0-.1-.15c0-.14-.12-.25-.3-.22h0l-.11-.14a.69.69,0,0,0-.33-.45h0a.66.66,0,0,1,0-.14l-.13,0h0c-.06-.19-.14-.36-.37-.36-.25-.83-1-1.31-1.36-2.07-.1-.11-.19-.23-.28-.34l-.28-.2c0-.15-.13-.36-.26-.32s-.1.34-.07.52v3.4l.07-.14a.27.27,0,0,1-.07.14,2.7,2.7,0,0,0,0,.28l.26.2c.12.23.21.48.48.58h0a1.2,1.2,0,0,0,.44.64l.13.15L77.14,76c.42.21.47.77.91.95h0a1.13,1.13,0,0,0,.46.59.66.66,0,0,1,0,.14l.34.5a.43.43,0,0,0,0-.11l.38.43v.07a.76.76,0,0,0,0,.21c.18.33.34.68.76.8a.21.21,0,0,1,.08,0l.07.1s0,.1,0,.13a.26.26,0,0,0,.11.16h0c.07.11.13.22.27.24h0c0,.15.09.26.17.38l.37.45h0l.08.17a4.72,4.72,0,0,0,.5.59h0c.08.35.43.51.58.8l.06.12h0a1.18,1.18,0,0,1,.11.19c.33,0,.31-.26.31-.5,0-1.27,0-2.53,0-3.8A.17.17,0,0,0,82.53,78.63ZM75.8,70.5s0,0,0,0,0,0,0,0v-.09Z"/><path class="cls-1" d="M128.11,77v-.82c0-.15,0-.31,0-.46v-.35c0-.06-.05-.1-.09-.11s0-.29,0-.44l-.14,0-.15.06h-.18l-.06,0c-1.14,0-2.29,0-3.44,0-.74,0-1.5-.06-2.24,0h-.49l0,0-.15.07h0a5,5,0,0,0,0,2.42h0c0,.43.39.29.62.3,1,0,2,0,3,0,.31,0,.64,0,.62.45a18.45,18.45,0,0,1-.06,2.35l-.12.13a6.44,6.44,0,0,0-1.56.76,2.29,2.29,0,0,1-1.14.33.46.46,0,0,0-.12.12h-.68a5.74,5.74,0,0,1-.8-.12l-.21,0a1.1,1.1,0,0,1-.71-.18c-.67-.23-1.24-.67-1.9-.89l-.17-.14a3.93,3.93,0,0,0-.33-.6,5.28,5.28,0,0,1-1.45-4c0-.65.26-1.25.31-1.88a2.68,2.68,0,0,1,0-.41l.22-.33a1.63,1.63,0,0,1,.63-.91h0c.11-.13.32-.2.31-.41l0,0s.07,0,.09,0l0,0a.92.92,0,0,1,.43-.15,10.66,10.66,0,0,0,2.15-1,4.81,4.81,0,0,1,2.47-.06,5.25,5.25,0,0,0,1.86.81.39.39,0,0,1,.4.24.54.54,0,0,0,.83.27c.52-.37,1.17-.64,1.46-1.29a1.47,1.47,0,0,0,0-.21.19.19,0,0,0,0-.28.86.86,0,0,1,0-.16c-.26-.33-.5-.68-1-.74a.18.18,0,0,1-.1,0,1.34,1.34,0,0,0-.31-.22.55.55,0,0,0-.14-.22,2.48,2.48,0,0,0-1.78-.64l-.32-.11a.71.71,0,0,0-.66-.23c-1,0-2,0-3,0a.71.71,0,0,0-.66.22.15.15,0,0,1-.13,0A4.14,4.14,0,0,0,116.76,69a.75.75,0,0,0-.09.15h-.15l-.77.72h0c-.34,0-.39.38-.63.51s-.28.36-.4.56l0,.11a.52.52,0,0,0-.17.19.18.18,0,0,0-.16.08l-.15.29a.17.17,0,0,0,0,.26h-.07c-.25.13-.27.37-.3.61a.43.43,0,0,1,0,0h-.07v.29h0c0-.09-.09-.18-.09,0-.32.17-.25.49-.29.77a.67.67,0,0,1,.06.12s0,0,0,0v0a.12.12,0,0,0-.08,0,1,1,0,0,0-.27,1.08.56.56,0,0,1,.15.1v.08a.3.3,0,0,0-.2.1,5.77,5.77,0,0,0,.18,3.24c.15,0,.21,0,.24,0v.08s0,0,0,0a.77.77,0,0,1-.09.13.59.59,0,0,0-.06.32,8,8,0,0,0,2.09,3.25.44.44,0,0,0,.3,0,.27.27,0,0,1,.09,0c.22.22.39.51.74.57a4.78,4.78,0,0,0,1.92,1.06,8.38,8.38,0,0,0,6.78-.29,1.13,1.13,0,0,1,.32,0,.54.54,0,0,0,.39-.19.35.35,0,0,1,0-.16l.41-.15h.16l1.2-1.1a.58.58,0,0,0,.41-.63V80.06C128.14,79,128.12,78,128.11,77Zm-5.32,4.91Z"/><path class="cls-1" d="M112.49,83.46c-.13-.18-.12-.5-.43-.49v0h0c0-.1-.06-.2-.08-.3a1,1,0,0,0-.24-.45l-.3-.31-.45-.7h0c-.59-1-1.19-2-1.79-3-.16-.27-.32-.53.09-.72a2.31,2.31,0,0,0,1.1-.9.47.47,0,0,0,.3-.3h0c.46-.33.48-.91.78-1.33h0a.27.27,0,0,1,.12-.09,7.31,7.31,0,0,0,0-3.51.2.2,0,0,1-.11-.06,2.66,2.66,0,0,0-.38-.86l-.13-.28c-.15-.12-.29-.25-.43-.38a.48.48,0,0,0-.3-.29c-.27-.29-.48-.67-1-.65h0a0,0,0,0,0-.08,0l0,0c.14-.55-.43-.38-.68-.54a1.39,1.39,0,0,1-.72-.2c-.31-.13-.65,0-1-.12l-1.84.09h-.59l-.26-.07-.19.29c.17.74-.09,1.52.16,2.25h0c1.11.24,2.26-.08,3.37.23.12.15.29.13.45.14a.26.26,0,0,1,0,.15l.34.33.06-.05.08,0c.14.23.27.46.4.69s0,.21,0,.31a3.79,3.79,0,0,1-.12,1.83l-.1.18a2.28,2.28,0,0,0-.23.56.25.25,0,0,1-.16.17,1.43,1.43,0,0,0-.44.15c-.1.09-.23.16-.24.3a.74.74,0,0,0-.33,0,2.51,2.51,0,0,0-.46.16,2.44,2.44,0,0,1-.76.05,5.23,5.23,0,0,0-1.31.07h-.51q-.09-.12-.09,0V78.3h.7l.91,0c.3,0,.6,0,.78.32.35.67.73,1.32,1.1,2a1.66,1.66,0,0,1,.47.77.55.55,0,0,1,.27.47c.2.31.41.62.62.93a1.56,1.56,0,0,0,2,1.25,12.16,12.16,0,0,1,1.91,0l-.14-.47C112.49,83.54,112.47,83.51,112.49,83.46Z"/><path class="cls-1" d="M63.73,70.51h.07a1.82,1.82,0,0,0,.7,0c1.58,0,3.16.07,4.74-.08h.52s0,0,0,0,0,0-.07-.07a.2.2,0,0,0,.07-.06,12.29,12.29,0,0,0,0-2.27.54.54,0,0,1,0-.11.26.26,0,0,0-.12,0l-5.94,0a.8.8,0,0,0-.13.13h-.07a5.79,5.79,0,0,0-.13,2.23C63.32,70.53,63.54,70.51,63.73,70.51Z"/><path class="cls-1" d="M85.64,68.33a1.57,1.57,0,0,0,0-.3h0a.22.22,0,0,0,0-.14,10.73,10.73,0,0,1-2.12,0V68c0,.56-.06,1.12-.06,1.67l0,14h0c0,.13,0,.16.15.18h0s0,.1,0,.15h2a.08.08,0,0,1,.1,0s0-.09-.07-.14Q85.63,76.09,85.64,68.33Zm-1,14.31Z"/><path class="cls-1" d="M98.5,82.64h0c0-.41,0-.82,0-1.23-.18-.19-.42-.15-.65-.15-1.71,0-3.42,0-5.14,0a1.09,1.09,0,0,0-.66.12l-.29,0a7.77,7.77,0,0,0,0,2.59v0l.15,0a1.44,1.44,0,0,0,.22-.27.27.27,0,0,0,.25.13h5.79a.52.52,0,0,0,.19.14l.17,0c0-.26,0-.52,0-.77S98.5,82.84,98.5,82.64Z"/><path class="cls-1" d="M19.6,70.13v-.4a.11.11,0,0,0,0-.08v-.51a.24.24,0,0,0,0-.12v-.81a.13.13,0,0,0-.12,0l-2.47,0v.31c0,.1,0,.2,0,.3v.62h0V70c0,3.08,0,6.16,0,9.25,0,1.63,0,3.26,0,4.89a7.4,7.4,0,0,0,2.44,0,.59.59,0,0,1,0,.14h.15V84a1.4,1.4,0,0,0,.06-.5c0-4.37,0-8.75,0-13.13A1.13,1.13,0,0,0,19.6,70.13Z"/><path class="cls-1" d="M62.4,68a.21.21,0,0,0,0-.13H59.78a.22.22,0,0,0,0,.14c-.2.25-.1.54-.1.82,0,4.73,0,9.46,0,14.19,0,.29.14.62-.15.87V84c0,.1.05.12.13,0l.15,0h0l2.41,0c.39,0,.41-.2.31-.48a1.79,1.79,0,0,0,0-.89,2.22,2.22,0,0,0,0-1h0V75.28c0-2,0-3.91,0-5.86C62.52,69,62.7,68.46,62.4,68Zm-.18,9.7h0v0h0A0,0,0,0,0,62.22,77.72Zm0,2.93h0Z"/><path class="cls-1" d="M15.49,83.7h0L15,82.63A15.15,15.15,0,0,0,13.93,80a3.88,3.88,0,0,0-.6-1.42l-.16-.44h0L13,77.43A4.12,4.12,0,0,1,12.38,76a1.36,1.36,0,0,1-.3-.77c-.3,0-.2-.31-.29-.47l-.3-.65h0a20.62,20.62,0,0,0-1.68-3.82l-.34-1.06,0-.3-.27-.36a.3.3,0,0,0-.3-.3,6.93,6.93,0,0,1-2.18-.08,1.3,1.3,0,0,0-.33.82h0c-.39.41-.35,1-.74,1.45-.06.47-.38.88-.31,1.38-.37.12-.38.45-.46.75l-.59,1.11-.18.75c-.06.14-.12.29-.17.43h0a1.09,1.09,0,0,0-.3.65c-.06.14-.11.27-.16.41a5.15,5.15,0,0,0-.59,1.46H2.74c-.13.39-.25.79-.37,1.18h0l-.3.62a.79.79,0,0,0-.28.63.11.11,0,0,0,0,.11,3.25,3.25,0,0,0-.45,1.11c-.15.37-.3.73-.44,1.09.1.17,0,.31-.08.46-.4.25-.4.7-.55,1.08.06.15,0,.36.15.47l0,0a.09.09,0,0,0,0,.09c.7,0,1.4,0,2.09,0,.24,0,.39,0,.43-.3h0c.24-.06.22-.27.26-.45h0a.35.35,0,0,0,.14,0A13.8,13.8,0,0,1,4,81.7a.77.77,0,0,1,.89-.61c2.19,0,4.39,0,6.58,0,.11.3.21.6.32.91a4.72,4.72,0,0,1,.61,1.53c.28.23.17.86.78.75s1.31,0,2,0,.69-.16.35-.63Zm-5.22-5.55.09.08v.12a.78.78,0,0,1-.15.39h-1a8.14,8.14,0,0,0-.86,0c-.92,0-1.84.06-2.76,0-.23-.09-.2-.29-.22-.48a.35.35,0,0,1,.21-.4.54.54,0,0,0,.15-.15,15.06,15.06,0,0,0,1-2.71,3,3,0,0,1-.06-.32l.1-.26h0a.17.17,0,0,0,.14,0,1.49,1.49,0,0,0,.46-1.14,1.36,1.36,0,0,1,0-.17,1.74,1.74,0,0,0,.21-.55A6.75,6.75,0,0,1,8.7,74.81a5.14,5.14,0,0,0,.61,1.1.37.37,0,0,1,.22.49.63.63,0,0,0,.33.62l.09,0C10.06,77.42,10.16,77.79,10.27,78.15ZM6.86,69.9h0a0,0,0,0,1,0,0Z"/><path class="cls-1" d="M90.91,72.22A41.86,41.86,0,0,0,90.82,68h0a.23.23,0,0,0,0-.14l-2.56,0c-.31.24-.26.59-.26.91Q88,76,88,83.16a1,1,0,0,0,.22.86h.17l.14,0,.06,0h2.1l0,0c.41-.17.24-.53.25-.8C90.92,79.57,90.93,75.9,90.91,72.22Z"/><path class="cls-1" d="M91.76,70.33h0c.06.25.27.19.43.19l5.88,0,.07,0,.06,0a7.35,7.35,0,0,0,.12-2.56l-.12,0-6.41,0a.19.19,0,0,0,0,.13h0A9.31,9.31,0,0,0,91.76,70.33Z"/><path class="cls-1" d="M63.61,76.94h0L68,77c1.45,0,1.47,0,1.43-1.45,0-.35.3-.82-.24-1.07l-.06-.11h-.27a.36.36,0,0,0-.28-.1H64.15c-.2,0-.41,0-.55.19h0l-.1-.08a5.28,5.28,0,0,0-.09,2.53S63.54,76.93,63.61,76.94Z"/><path class="cls-1" d="M69.76,81.43H63.6v0l-.28,0a13.51,13.51,0,0,0,.08,2.62l.19,0,.16,0L69.61,84a.17.17,0,0,0,0-.12h0V84c.28.07.36-.08.35-.32,0-.75,0-1.51,0-2.26Z"/><path class="cls-1" d="M97.59,74.5l-.63,0h0l-5.2,0v.76h0v1.37c-.08.39.2.34.42.34l5.41,0h.17a5.4,5.4,0,0,0,0-.9C97.67,75.54,98,75,97.59,74.5Zm-4.1.67h0l-.14,0h0Z"/></g></g></svg>