<svg xmlns="http://www.w3.org/2000/svg" viewBox="0 0 466.42 92.81"><defs><style>.cls-1{fill:#fff;}</style></defs><title>Asset 74</title><g id="Layer_2" data-name="Layer 2"><g id="Layer_1-2" data-name="Layer 1"><path class="cls-1" d="M285,21.32c12-9.19,22.13-8.37,28,2,3.83-6.74,9.72-9,17.08-8.08,6.94.91,11.27,5.1,11.5,12.75.46,14.61.22,29.24.33,43.87,0,1.75-.72,2-2.28,2.16-12.53,1.06-12.53,1.1-12.53-11.23,0-9.33.06-18.65,0-28,0-5.84-1.56-8-5.38-8.2-4.56-.22-7.48,2.32-7.64,7.81-.33,11.75-.31,23.51-.22,35.26,0,3.12-.41,4.88-4.1,4.34-3.49-.51-8.19,1.52-10.25-.83-1.74-2-.63-6.53-.65-9.94,0-9.61,0-19.22,0-28.82,0-5.71-1.58-7.81-5.64-7.82-4.46,0-7.32,2.95-7.37,8.21-.12,11.32-.28,22.66.08,34,.14,4.39-1.05,5.44-5.34,5.28-9.86-.35-9.87-.11-9.87-10.16,0-14.63.05-29.26,0-43.89,0-2.66.52-4.06,3.54-3.66a25.39,25.39,0,0,0,5.58,0C283.19,16.13,286.23,16.1,285,21.32Z"/><path class="cls-1" d="M105,22.15A17.58,17.58,0,0,1,118.71,15c9.28-.52,15.27,4.56,15.44,13.86.26,14.19,0,28.39.13,42.59,0,2.15-.74,2.67-2.72,2.57-3.84-.19-8.82,1.25-11.25-.65s-.76-7.21-.81-11c-.14-9.31.06-18.64-.08-28-.1-6.42-3.49-9.21-8.85-7.51-3.95,1.25-4.89,4.47-4.89,8.17,0,11.61-.16,23.23.09,34.84.07,3.51-1,4.51-4.31,4.13-3.52-.42-8.13,1.5-10.33-.75s-.62-6.81-.64-10.35c-.08-14,.1-28.11-.12-42.15-.06-3.67,1.09-4.86,4.57-4.38a21.28,21.28,0,0,0,4.72,0C103.44,16.11,106.69,16.24,105,22.15Z"/><path class="cls-1" d="M148.89,55.06a20,20,0,0,0,2.57,0c2.86-.38,4.28.23,4.41,3.69.16,4.55,3.88,7.08,8.36,6.53,4.22-.53,6.49-3.25,6.18-7.27-.24-3-2.31-4.53-4.75-5.53-3.85-1.55-7.81-2.8-11.67-4.33-8.89-3.53-12.31-9.39-11.16-18.87.89-7.32,6.89-12.72,15.37-13.83a34.32,34.32,0,0,1,14.88.86A14.64,14.64,0,0,1,183.5,31.74c-.13,1.65-.63,2.31-2.28,2.25a46.27,46.27,0,0,0-6.45,0c-3.14.33-5.11-.2-5.24-4-.11-3.27-2.49-4.61-5.62-4.63-3.33,0-6,1.14-6.89,4.58a5.52,5.52,0,0,0,3.33,6.73c3.9,1.73,8,3,12.07,4.42,9.37,3.4,13.23,8.92,12.35,17.62-.94,9.26-6.1,14.6-15.47,16.28a36.39,36.39,0,0,1-15.75-.62C144.33,72,142.15,65,142.11,57c0-1.54.64-2,2-2C145.73,55.1,147.31,55.06,148.89,55.06Z"/><path class="cls-1" d="M191.21,32.53c0-9.62.09-19.23-.06-28.85,0-2.76.64-3.9,3.56-3.64a46.44,46.44,0,0,0,8.17,0c2.8-.26,3.45.94,3.32,3.46-.17,3.29.11,6.6-.09,9.89-.15,2.51.77,3.21,3.17,3.13,1.74-.05,4.52-1.06,5.08.78a16.76,16.76,0,0,1,.12,8.47c-.44,1.82-3.06.92-4.61.79-3.05-.26-3.85.8-3.79,3.81.21,8.89,0,17.79.1,26.69.06,5.66.65,6.28,6.38,6.6,1.72.1,2.1.62,2.25,2.22.7,7.71-.07,8.63-7.89,8.84-.72,0-1.43,0-2.15,0-10.22-.06-13.39-3.08-13.53-13.35C191.11,51.76,191.21,42.14,191.21,32.53Z"/><path class="cls-1" d="M415,49.78q0,14,0,27.94c0,9.89-3.43,13.77-13.2,15-.71.09-1.43.1-2.14.12-7.87.2-9.35-1.64-7.8-9.41.27-1.36.87-1.4,2-1.55,5.45-.73,6.32-1.7,6.37-7.45.07-9.74,0-19.49,0-29.23,0-8.46.09-16.91-.06-25.36,0-2.58.62-3.4,3.33-3.42,11.51-.13,11.51-.23,11.51,11Z"/><path class="cls-1" d="M57.2,44.34q-14.58,0-29.16,0a3.6,3.6,0,0,1-2.6-1.3C17.26,34.83,9.07,26.62,0,17.54c6.25,0,11.54.61,16.65-.13,11-1.57,19.13,2.06,26,10.72,4.39,5.56,10.13,10.05,15.27,15Z"/><path class="cls-1" d="M.64,74.68c8.46-8.47,16.76-16.76,25-25.07a4.06,4.06,0,0,1,3.14-1.08c9,0,18.07,0,27.11,0a11.25,11.25,0,0,1,2,.5C49.38,57.69,41.09,66,32.82,74.31a4,4,0,0,1-3.15,1c-9.18,0-18.36,0-27.54,0A5.82,5.82,0,0,1,.64,74.68Z"/><path class="cls-1" d="M81.85,45.15c0,8.47-.13,16.94.07,25.41.07,2.88-.84,3.77-3.6,3.47-3.65-.4-8.55,1.58-10.66-.83-1.8-2.06-.57-6.82-.58-10.38,0-14.21.08-28.42-.08-42.63,0-3,.71-4.14,3.78-3.78,3.52.42,8.12-1.49,10.36.74s.6,6.81.67,10.35C81.94,33.38,81.85,39.27,81.85,45.15Z"/><path class="cls-1" d="M.25,69.47V23.74C7.84,31.31,14.87,38.33,21.9,45.37c.59.59,1.25,1.22.33,2.14C15.11,54.61,8,61.73.25,69.47Z"/><path class="cls-1" d="M262.13,57c-.12-9.46.05-18.93-.42-28.38-.35-7-3.69-10.6-10.49-12.38a35.63,35.63,0,0,0-19.11.13c-5.94,1.72-9.4,5.87-10.71,11.76s-.86,6.31,5,6.31a35.51,35.51,0,0,1,4.73,0c2.41.33,3.07-.71,3.44-2.95.79-4.71,2.95-6.28,7.24-6.12,3.66.13,5.45,2.12,6,5.52.61,4-1.16,6.48-5.54,7.81-4.79,1.45-9.68,2.51-14.37,4.35-12.11,4.75-10.15,25.56-2.75,30.11a14.46,14.46,0,0,0,7.24,2.41c6.06.16,11.62-1,15.07-6.61,1.82,1.54.38,5,3.63,5,4.11.07,8.23,0,12.83,0C261.65,68.14,262.2,62.52,262.13,57Zm-14.26-.2a8.57,8.57,0,0,1-8.09,8.51c-3.07.29-4.83-1.19-5.73-4-1.6-5-.27-9.61,3.82-11.53,3.07-1.45,6.39-2.35,10-3.65C247.9,49.88,248,53.32,247.87,56.75Z"/><path class="cls-1" d="M466.33,42.83c-.21-2.7-.33-5.42-.64-8.12-1.63-14.21-9.64-20.78-23.86-19.65-.57,0-1.14.17-1.71.23-9.35,1-15,5.48-17.37,14.58a63.3,63.3,0,0,0-.34,30.19c2.22,10,7.39,14.3,17.45,15.42,14.57,1.62,23.47-5,25.71-19.39A61.8,61.8,0,0,0,466.33,42.83ZM450.25,58.69c-.88,3.56-2.46,6.58-6.74,6.57-4,0-5.93-2.81-6.57-6.24a73.49,73.49,0,0,1,0-27.34c.69-3.63,2.55-6.45,6.89-6.3s5.63,3.25,6.5,6.79c1.07,4.37.95,8.81,1,13.26S451.34,54.33,450.25,58.69Z"/><path class="cls-1" d="M392.9,35.74c-2.31-16.52-9.8-22.28-26.32-20.41-9.06,1-14.95,6.3-17,15.6a67.06,67.06,0,0,0-.14,28.52c2.18,10.45,7.68,15.23,18.24,16.1,14.71,1.21,23-5.47,25.1-20.12a93.12,93.12,0,0,0,.85-10.28C393.38,42,393.34,38.85,392.9,35.74ZM377.06,59.87c-.94,3.14-2.74,5.39-6.29,5.44A6.12,6.12,0,0,1,364.39,60a74.12,74.12,0,0,1-.05-29.34c.61-3.12,2.66-5.32,6.3-5.32s5.49,2.05,6.38,5.23c1.49,5.27,1.49,10.72,1.69,16.25C378.22,51.12,378.35,55.59,377.06,59.87Z"/></g></g></svg>