<svg xmlns="http://www.w3.org/2000/svg" viewBox="0 0 400 400"><defs><style>.cls-1{fill:#e5e6e5;}.cls-2{fill:none;}</style></defs><title>Asset 116</title><g id="Layer_2" data-name="Layer 2"><g id="Layer_1-2" data-name="Layer 1"><path class="cls-1" d="M341.47,179.29c3,0,6,.08,9,0,1.68-.06,2,.66,1.49,2-1.07,2.86-3,4.65-6.19,4.73s-6.18,0-9.27,0c-2.44,0-4.46.77-4.38,3.58.08,2.63,2,3.26,4.35,3.21,2.89-.06,5.78-.08,8.66,0,4.41.14,7,2.81,7.08,7.24.05,2.88.07,5.77,0,8.65-.11,3.47-2.15,6.22-5.48,6.4-6.68.35-13.38.22-20.07.3-1.52,0-1.3-.95-1.09-1.9a6.38,6.38,0,0,1,6.1-4.78c3.09-.13,6.18,0,9.27-.08,3.5-.08,4.59-1.25,4.54-4.71,0-3.21-1.17-4.31-4.56-4.36-2.79,0-5.57,0-8.35,0-4.5-.07-7.06-2.51-7.3-7-.1-2.06-.1-4.13,0-6.18.24-4.47,2.79-6.9,7.3-7.11h9Z"/><path class="cls-1" d="M108.88,199.89c0,4.43-.11,8.86.05,13.29.08,2.32-1,2.41-2.56,1.71a6.84,6.84,0,0,1-4.28-6.86c0-5.77,0-11.54,0-17.3,0-3.48-1.14-4.6-4.62-4.67-2.58,0-5.15-.05-7.73,0-3.32.07-4.46,1.17-4.48,4.46,0,7.42,0,14.83,0,22.25,0,2.77-.56,3.1-3,1.87A6.08,6.08,0,0,1,78.54,209c-.05-7.72-.1-15.45,0-23.17a6.24,6.24,0,0,1,6.22-6.43c5.86-.24,11.74-.24,17.6,0,4,.16,6.42,3,6.49,7.21C108.94,191,108.88,195.46,108.88,199.89Z"/><path class="cls-1" d="M71.72,199.81c0,4.53-.08,9.06,0,13.59,0,1.88-.72,2.06-2.21,1.63A6.69,6.69,0,0,1,65,208.42c-.06-5.66,0-11.33,0-17,0-4.4-1-5.36-5.49-5.37-2.27,0-4.53,0-6.8,0-3.47.07-4.56,1.15-4.58,4.68,0,7.31,0,14.62,0,21.94,0,2.87-.66,3.24-3.23,1.85a6,6,0,0,1-3.45-5.45c0-7.83-.11-15.66,0-23.48a6.25,6.25,0,0,1,6.42-6.22c5.76-.2,11.53-.22,17.29,0,4,.15,6.49,3,6.58,7.14C71.79,191,71.71,195.38,71.72,199.81Z"/><path class="cls-1" d="M288,194.85c0-4.43.1-8.86-.05-13.29-.08-2.3.93-2.43,2.57-1.71a6.6,6.6,0,0,1,4.22,6.55q0,8.5,0,17c0,4.26,1,5.26,5.31,5.29q3.09,0,6.18,0c4.5,0,5.49-1,5.5-5.41,0-7.2.11-14.42,0-21.62-.05-2.58,1.1-2.48,2.73-1.72a6.51,6.51,0,0,1,4,6.11c.07,7.52.15,15,0,22.55-.09,4.05-2.6,6.6-6.6,6.74q-8.49.32-17,0c-4.27-.14-6.68-2.8-6.8-7.23S288,199.27,288,194.85Z"/><path class="cls-1" d="M243.7,179.21c.2,3.93-2.16,6.62-6.14,6.79-3.18.14-6.38-.08-9.55.12-5.67.37-10,4.19-10.78,9.28a11.21,11.21,0,0,0,6.94,12.39,15.65,15.65,0,0,0,5.75.91c2.67,0,5.35-.1,8,.09a5.83,5.83,0,0,1,5.69,6.79c-5-.05-10.08,0-15.11-.17-8.24-.24-15-5.13-17.37-12.45a18,18,0,0,1,6-19.67,18.3,18.3,0,0,1,11.73-4C233.82,179.25,238.76,179.23,243.7,179.21Z"/><path class="cls-1" d="M152.83,206.45c0-2.16-.05-4.33,0-6.49.1-4.25,2.67-6.94,6.91-7.1,3.08-.12,6.17-.07,9.26,0,2.33,0,3.93-1,4-3.31s-1.63-3.42-3.88-3.46c-3.2,0-6.39,0-9.58,0a6.51,6.51,0,0,1-6.33-4.54c-.57-1.44-.52-2.26,1.44-2.23,6,.09,12,0,17.92.06,4.48.08,7.08,2.66,7.3,7.1a46.62,46.62,0,0,1-.06,6.79c-.37,4-3,6.28-7,6.38-3,.06-6,0-8.95,0s-4.19,1.2-4.26,4.34c-.05,1.85,0,3.71-.14,5.55a6.16,6.16,0,0,1-2.08,4c-1.17,1.06-2.65,2.17-4.1,1.55-1.12-.48-.38-2.22-.44-3.39C152.75,210,152.82,208.2,152.83,206.45Z"/><path class="cls-1" d="M186.62,194.71c0-4.43.09-8.86,0-13.29-.06-2.11.86-2.25,2.41-1.61,3,1.25,4.34,3.62,4.35,6.8,0,5.57,0,11.13,0,16.69,0,4.45,1,5.37,5.5,5.4,1.75,0,3.5,0,5.25.06a5.89,5.89,0,0,1,4.32,2.08c1.06,1.16,2.17,2.63,1.55,4.07-.49,1.16-2.24.48-3.42.5-3.81.07-7.62,0-11.43,0-6.11,0-8.45-2.34-8.49-8.36C186.6,203,186.62,198.83,186.62,194.71Z"/><path class="cls-1" d="M34.55,200c0,4.43-.1,8.87,0,13.3.06,2.15-1,2.24-2.43,1.65-2.6-1-4.29-3-4.32-5.84-.09-9.39,0-18.77-.09-28.16,0-1.55.57-1.65,1.85-1.3,2.93.81,4.87,3.4,4.93,7C34.6,191.13,34.54,195.57,34.55,200Z"/><path class="cls-1" d="M35.58,171.58a4.48,4.48,0,1,1-4.44-4.65A4.65,4.65,0,0,1,35.58,171.58Z"/><path class="cls-1" d="M359.76,175.06a16.85,16.85,0,0,1,2.76.17c.74.16,1,1.16.21,1.19-3,.13-1.73,2.3-2.07,3.74-.27,1.13,1,3.21-1,3.18-1.4,0-.43-2-.71-3.13-.36-1.38,1.14-3.75-2-3.69-.16,0-.44-.42-.46-.66,0-.48.35-.7.79-.71.82,0,1.64,0,2.46,0Z"/><path class="cls-1" d="M367.56,178.54c.29.52.5,1.37.9,1.47.65.17.7-.73,1-1.18.87-1.21.37-4,2.62-3.48s.78,2.92,1,4.44c.15,1.16.64,3.53-.51,3.44-1.73-.14-.44-2.34-.8-3.6a5.45,5.45,0,0,1,0-1.46c-1.7.44-1.42,2.08-2.09,3.1-.44.67-.08,2-1.26,2-1,0-.72-1.32-1.1-2a5.57,5.57,0,0,1-.35-1.46C366.64,179.17,366.41,178.53,367.56,178.54Z"/><path class="cls-1" d="M367.56,178.54l-.61,1.3a2.11,2.11,0,0,1-.67-1.72c-1-.54-.79.36-.85.82-.18,1.47.34,3-.32,4.45l-.59,0a20.42,20.42,0,0,1,0-7.79C367.08,175,366.83,177.26,367.56,178.54Z"/><path class="cls-1" d="M364.51,175.56c0,2.6,0,5.19,0,7.79A13.1,13.1,0,0,1,364.51,175.56Z"/><path class="cls-1" d="M365.11,183.39c0-1.8,0-3.6,0-5.4,0-.4.05-.89.56-.77.25.06.4.58.6.9C364.65,179.6,366.71,181.9,365.11,183.39Z"/><path class="cls-1" d="M228.35,192.86a4.52,4.52,0,1,1-4.47,4.55A4.54,4.54,0,0,1,228.35,192.86Z"/><path class="cls-1" d="M293.9,230.84c-7-8.68-14-17.32-20.9-26-5.35-6.74-6.15-5.74.28-12.79,3.64-4,7.19-8.05,10.89-12.2-5.32-1.12-9.3.18-12.27,4.4a32.66,32.66,0,0,1-4.1,4.62c-1.6,1.54-2.52,3.8-4.8,4.64-2.74-5.37-6.72-9.72-11.13-13.73a26.13,26.13,0,0,0-7.38.05c5,5.54,9.74,10.82,14.46,16.12.64.72,1.05.16,1.55-.07l.82.06h0c-5,5.65-10,11.29-14.94,17-.7.8-1.87,1.35-1.75,2.7,6.34,1.23,10.41-2.07,13.77-6.86a27,27,0,0,1,2.23-2.57c3-3.33,4.41-3.35,7.45,0,7.16,8,14.29,16,21.46,24,1.48,1.64,3,3.42,5.89,2.8C294.84,232.13,294.4,231.46,293.9,230.84Z"/><path class="cls-1" d="M146,186.55c0-4.28-2.59-7.07-6.83-7.2-5.56-.17-11.14-.17-16.7,0-4.28.13-6.74,2.87-6.82,7.18-.06,3.61,0,7.22,0,10.83s0,7.22,0,10.82c.08,4.34,2.48,7,6.8,7.18,5.56.19,11.14.19,16.7,0,4.31-.14,6.81-2.86,6.85-7.16Q146.13,197.37,146,186.55Zm-10.55,22.1c-3.08.12-6.17.11-9.25,0-2.59-.09-3.84-1.51-3.81-4.18.07-4.73.06-9.45,0-14.18,0-2.83,1.35-4.18,4.09-4.23s5.75,0,8.63,0c2.72,0,4.18,1.36,4.13,4.2-.05,2.36,0,4.73,0,7.09s0,4.73,0,7.09C139.35,207.11,138.05,208.55,135.47,208.65Z"/><rect class="cls-2" width="400" height="400"/></g></g></svg>