<svg xmlns="http://www.w3.org/2000/svg" viewBox="0 0 2652.08 858.18"><defs><style>.cls-1{fill:#fff;}.cls-2{fill:#cacbca;}.cls-3{fill:#b2b2b2;}.cls-4{fill:#87dec2;}.cls-5{fill:none;}</style></defs><title>Asset 127</title><g id="Layer_2" data-name="Layer 2"><g id="Layer_1-2" data-name="Layer 1"><path class="cls-1" d="M53,646.27l-2.11-.72c3.63-1.09,6.86-2.09,10.11-3l57.1-16.89c.43-.13.89-.18,1.34-.27a.67.67,0,0,1,.09.82,1.65,1.65,0,0,1-.48.35c-8,4.22-15.64,9-23.51,13.37-6.32,3.54-12.57,7.21-18.88,10.77a4.38,4.38,0,0,1-2.2.82c-6.65-1.34-13.3-2.71-19.8-4.71A6.35,6.35,0,0,1,53,646.27Z"/><path class="cls-2" d="M119.91,626.89c-2.39,7-4.76,13.94-7.17,20.9q-7.24,20.88-14.54,41.75c-.17.48-.36,1-.68,1.82l-3.77-19a4.43,4.43,0,0,1-.8-3c1.11-2.77,2.9-5.15,4.45-7.66,6.89-11.13,13.75-22.29,20.74-33.36C118.56,627.74,118.75,626.72,119.91,626.89Z"/><path class="cls-2" d="M74.78,651.05c4.87-2.73,9.75-5.43,14.61-8.18q9.6-5.45,19.15-11c3.2-1.84,6.36-3.76,9.55-5.61a2.85,2.85,0,0,1,.94-.17c.18,1.21-.85,1.69-1.5,2.35q-15.82,15.87-31.72,31.71c-1.4,1.4-2.53,3-4,4.38-.55.51-1,1.31-1.94,1.1L76,655.33C75.15,654,74.27,652.74,74.78,651.05Z"/><path class="cls-1" d="M79.9,665.68c1.94-1.32,3.14-3.34,4.76-5q16.41-16.4,32.81-32.82c.55-.56,1-1.18,1.57-1.76l.41,0a.54.54,0,0,1,.8,0,.82.82,0,0,1-.34.78c-2,2.23-3.36,5-5,7.49-7.25,11.61-14.43,23.27-21.64,34.91-.8.6-1.64.24-2.45.05a79.42,79.42,0,0,1-8.23-2.48C81.74,666.45,80.65,666.44,79.9,665.68Z"/><path class="cls-3" d="M53,646.27c4.51.69,8.9,2,13.35,2.93,2.8.6,5.6,1.23,8.4,1.85.41,1.42.83,2.85,1.24,4.28"/><path class="cls-3" d="M82.64,666.86c3.1.21,5.94,1.53,9,2.08l1.73.35c.14,1,.29,2.06.43,3.08A118.25,118.25,0,0,1,82.64,666.86Z"/><path class="cls-4" d="M120.25,626.11h-.8c0-.25,0-.51,0-.76.32-.14.65-.54,1-.21S120.4,625.8,120.25,626.11Z"/><path class="cls-1" d="M200,648.38c-1.73-2.54-5.32-3.8-7.87-2.9-1.34.47-1.06,1.49-1.06,2.39,0,6.85.07,13.69-.06,20.53,0,2.43,1.26,3.43,3.2,4.19H183.62c3.58-.48,3.16-3.18,3.16-5.63,0-5.87.06-11.74,0-17.6,0-1.3.9-3.39-1-3.75-2.29-.42-5-1-6.77,1.43a20.58,20.58,0,0,0-1.48,2.85c-1.34-2.1-2-4.86-5.29-4.52-2.54.26-5.15-.09-7.68.18-1.78.18-1.25,1.94-1.12,3,.33,2.65-1.48,6.05,1,7.81,3,2.09,8.66-.19,10.28-3.94v9.74c-1.92-5.41-6.26-3.28-9.81-3.59-1-.1-1.55.59-1.55,1.61,0,2.93-.05,5.86.06,8.79a2.09,2.09,0,0,0,2.19,2.07c4.8,0,10,1.18,12.95-4.35.07-.13.4-.13.61-.19-.61,5.93-.87,6.18-6.37,6.18s-11.23,0-17.09-.21c3.38-.59,3.83-2.84,3.78-5.59-.09-5.87,0-11.73,0-17.6,0-2.35.12-4.74-3-5.76h7.88c11,0,22,0,33,0,1.18,0,2.8-.77,3.42,1.14C200.83,646,201.86,647.49,200,648.38Z"/><path class="cls-1" d="M228,650.35c-2.76,4.13-5.59,8.21-8.24,12.41-1.22,1.93-1.87,1.66-3-.07a104.29,104.29,0,0,0-8.89-12.21c0,6.4,0,12.8,0,19.2,0,1.28.71,3.13-1.87,3-2.35-.12-1.51-1.84-1.52-3q-.09-11.55,0-23.09c0-1.07-.7-2.6,1.2-3,1.53-.28,2.48.4,3.3,1.69,2.56,4,5.3,7.9,7.83,11.93,1.19,1.9,1.88,1.69,3-.07,2.46-3.92,5.12-7.72,7.62-11.63.87-1.35,1.84-2.33,3.54-1.9,2,.51,1.11,2.22,1.12,3.37.08,7.33.11,14.66,0,22,0,1.25,1.24,3.53-1.57,3.57-3.1,0-1.71-2.43-1.74-3.76-.15-6.1-.07-12.21-.07-18.31Z"/><path class="cls-1" d="M291.27,665.66c0-6.31,0-12.61,0-18.92,0-1.32-.62-3.2,1.86-3.08s1.4,1.93,1.42,3q.12,11.35,0,22.71c0,1.06.85,2.59-.75,3.18s-2.38-.64-3.23-1.75c-5.45-7-10.93-14-17.15-22V661.9c0,2.93,0,5.86,0,8.79,0,1.3-.23,2.06-1.79,2s-1.41-1-1.41-2q0-12.45,0-24.91c0-.78-.32-1.81.91-2.08a2.88,2.88,0,0,1,3.13,1.32c4.3,5.62,8.67,11.19,13,16.78,1,1.33,2.1,2.65,3.15,4Z"/><path class="cls-1" d="M300.35,658c0-4,.07-8.07,0-12.1,0-1.75.56-2.36,2.32-2.33,5.37.08,10.75,0,16.13,0,1,0,2.35-.33,2.38,1.42,0,2-1.52,1.53-2.62,1.55-4,0-8.07.12-12.1,0-2.22-.08-2.93.61-2.94,2.88-.06,7.15-.16,7.15,7,7.15h7c1,0,2,.06,2,1.5s-1,1.44-2,1.44c-3.79,0-7.59.08-11.37,0-1.83,0-2.53.43-2.61,2.43-.3,7.75-.39,7.74,7.48,7.74h8.44c1,0,2-.11,2,1.4s-.77,1.56-1.87,1.55c-5.75,0-11.49-.06-17.24,0-1.71,0-2-.72-2-2.19C300.39,666.36,300.35,662.2,300.35,658Z"/><path class="cls-1" d="M335.76,657.85c4.72-4.6,6.2-11.62,12-14.77l1.32,1.06c-2.11,3.15-4,6.5-6.39,9.43-3.89,4.75-6.07,9.85-5.16,16.1.18,1.23.74,3.14-1.82,3-2.4-.12-1.54-2-1.4-3,.81-6.07-1.06-11.13-4.95-15.78-2.49-3-4.42-6.39-6.72-9.8,2.27-1,3.68-.51,4.93,1.45C330.18,649.7,333,653.7,335.76,657.85Z"/><path class="cls-1" d="M200,648.38c1.21-1,.37-2.49.77-3.69,1,1.27.49,2.79.63,4.19.06.49.2,1.4-.8,1.06C199.9,649.72,199.94,649,200,648.38Z"/><path class="cls-1" d="M251.38,643.3A14.5,14.5,0,0,0,236.49,658c-.08,8.6,6.08,15.14,14.37,15.25a14.89,14.89,0,0,0,15-14.79A14.64,14.64,0,0,0,251.38,643.3Zm-.26,27c-6.36,0-11.53-5.55-11.44-12.27s5-11.82,11.41-11.82,11.37,5.24,11.33,12.21C262.38,665.19,257.49,670.33,251.12,670.33Z"/><rect class="cls-5" y="458.18" width="400" height="400"/><rect class="cls-5" x="2252.08" width="400" height="400"/></g></g></svg>