<svg xmlns="http://www.w3.org/2000/svg" viewBox="0 0 187.71 47.16"><defs><style>.cls-1{fill:#fff;}</style></defs><title>Asset 58</title><g id="Layer_2" data-name="Layer 2"><g id="Layer_1-2" data-name="Layer 1"><path class="cls-1" d="M20.92,14.12a7.1,7.1,0,0,1,4.76,5.25c1.21,5.47-2.11,10-8,10.42-5.1.34-10.22.17-15.34.24-.88,0-.92-.53-.92-1.18,0-2.88,0-5.76,0-8.63V2.36C1.44.75,1.45.75,3,.75c4.12,0,8.23,0,12.35,0a20.28,20.28,0,0,1,4.25.55,5.94,5.94,0,0,1,4.82,5.18c.42,2.8-.2,5.25-2.66,7ZM8,17.16c0,2.41,0,4.68,0,7a1.11,1.11,0,0,0,.81.7c2.39,0,4.79.05,7.18-.08a3.28,3.28,0,0,0,3.34-3.48c.05-2.28-1.07-3.91-3.18-4C13.52,17,10.85,17.16,8,17.16Zm.08-11.1v6.39c2.53,0,5,.13,7.45,0,1.77-.12,2.67-1.45,2.65-3.26s-.84-2.91-2.7-3C13.06,5.93,10.63,6.06,8.07,6.06Z"/><path class="cls-1" d="M78.36,8.83c-.47,1.48-.87,2.76-1.27,4-1.68,5.33-3.38,10.65-5,16a1.38,1.38,0,0,1-1.6,1.18c-1.27-.07-2.56,0-3.84,0a1.06,1.06,0,0,1-1.24-1c-1-3.87-2-7.72-3.06-11.57-.09-.35-.2-.69-.41-1.39-.45,1.73-.82,3.12-1.17,4.52-.71,2.78-1.44,5.56-2.1,8.36-.18.77-.52,1.07-1.3,1-1.4,0-2.81,0-4.2-.05a1.36,1.36,0,0,1-1-.68C50,22.7,47.91,16.08,45.82,9.45a3,3,0,0,1,0-.61c1.86,0,3.69,0,5.51,0,.29,0,.68.59.79,1,1.13,4,2.22,8.08,3.32,12.12.05.18.12.36.29.84.88-3.6,1.7-6.91,2.51-10.21.22-.89.51-1.77.65-2.68s.49-1.16,1.34-1.11a35.51,35.51,0,0,0,3.72,0c.75,0,1,.23,1.21,1,1,4,2,8.06,3,12.08,0,.22.14.44.3.92,1-3.78,2-7.31,3-10.83.84-3.11.83-3.11,4-3.11Z"/><path class="cls-1" d="M111.38,16.65,120.23,30a34.17,34.17,0,0,0-4.33,0c-2.16.3-3.42-.53-4.4-2.46-1.21-2.36-2.75-4.56-4.15-6.84-1.53,1-2.46,2.11-2.24,4a45.77,45.77,0,0,1,0,5.12H99.34c0-.44-.08-.86-.08-1.28,0-8.84,0-17.67,0-26.5,0-1.08.28-1.51,1.4-1.41a21.9,21.9,0,0,0,3.24,0c1-.06,1.31.25,1.3,1.27,0,4.27,0,8.55,0,12.82V16c1.16-1.11,2.22-2.11,3.25-3.13,1.33-1.32,2.42-3.17,4-3.84s3.69-.18,5.57-.19c.31,0,.61.05.86.06Z"/><path class="cls-1" d="M97.37,30c-1.82,0-3.57.1-5.3-.07-.44,0-.79-1-1.22-1.54a10.66,10.66,0,0,1-8.79,2A5.81,5.81,0,0,1,77,24.73c-.16-3.46,1.2-5.56,4.47-6.43,1.88-.51,3.85-.67,5.77-1a21.18,21.18,0,0,0,2.1-.45,1.87,1.87,0,0,0,1.58-2c0-1.13-.45-2.14-1.66-2.33a11.68,11.68,0,0,0-3.54,0c-1.46.24-2,1.47-2.25,2.87H77.68a5,5,0,0,1,1.54-4.2A10.25,10.25,0,0,1,82.7,9a16.05,16.05,0,0,1,9.91-.05c2.88.87,4.14,2.66,4.17,5.67,0,4.35.1,8.71.19,13.06A16.88,16.88,0,0,0,97.37,30Zm-6.51-9.92c-1.69.31-3.33.57-5,.92a6.07,6.07,0,0,0-2,.78,2.56,2.56,0,0,0,.23,4.36,4.58,4.58,0,0,0,6.7-3.73C90.92,21.62,90.86,20.82,90.86,20.08Z"/><path class="cls-1" d="M32.23,20.91c.09,2.68,1.13,4.25,3.08,4.85A5.48,5.48,0,0,0,41.44,24c.19-.26.5-.6.77-.61,1.5-.06,3,0,4.68,0-.93,3.15-2.62,5.42-5.55,6.5-6.42,2.36-14.83-.52-15.08-9.94C26.11,14.46,29,10.15,33.7,8.69c7-2.14,13.35,2.57,13.59,10.07.08,2.46.2,2.13-2.07,2.14-3.83,0-7.67,0-11.51,0ZM41.11,17a3.87,3.87,0,0,0-3.81-4.2c-3-.11-4.95,1.49-5,4.2Z"/><path class="cls-1" d="M140.05,19.3c.09-4.07,1.38-7.59,5.13-9.63a11.6,11.6,0,0,1,11.89.18c3.34,1.93,4.64,5.15,4.83,8.85.28,5.33-2.25,10.1-7.72,11.46C147.24,31.89,140,28.21,140.05,19.3Zm16-.09a24.36,24.36,0,0,0-.68-3.38c-.71-2.12-2.27-3.07-4.61-3A4.29,4.29,0,0,0,146.49,16a10.77,10.77,0,0,0-.14,6.36c.74,2.59,2.29,3.74,4.88,3.66a4.47,4.47,0,0,0,4.44-3.92C155.86,21.22,155.92,20.34,156.07,19.21Z"/><path class="cls-1" d="M117.74,19.11c.14-4,1.49-7.68,5.54-9.64a11.47,11.47,0,0,1,12.26.89c3.18,2.25,4.18,5.66,4.09,9.37-.1,4.32-1.71,8-5.89,9.76-4.33,1.86-8.62,1.61-12.4-1.46C118.64,25.83,117.8,22.73,117.74,19.11Zm16.19.19a22.16,22.16,0,0,0-1.31-4.38,4.6,4.6,0,0,0-7.92.05,9.52,9.52,0,0,0-.11,8.65A4.15,4.15,0,0,0,128.91,26a4,4,0,0,0,4-2.66A35.51,35.51,0,0,0,133.93,19.3Z"/><path class="cls-1" d="M170.18,12.82v7.46c0,2.88,0,5.76,0,8.64,0,.84-.28,1.15-1.1,1.12-1.16,0-2.33-.06-3.48,0s-1.38-.29-1.37-1.36c.06-4.76,0-9.52,0-14.28V12.86h-3.49c0-1.24,0-2.35,0-3.45,0-.21.52-.5.84-.56.81-.13,1.88.13,2.39-.3s.2-1.49.26-2.28a5.73,5.73,0,0,1,4.36-5.13,12.5,12.5,0,0,1,5.74-.09V5.23c-1.29.47-2.93-.56-3.83.83A8.9,8.9,0,0,0,170,8.83c1.24,0,2.22,0,3.2,0,.73,0,1,.26,1,1,.16,3,.18,3-2.76,3Z"/><path class="cls-1" d="M26.13,36.08c1.12.56,2.49-.7,3,.86a10.5,10.5,0,0,1,3.14-.9,12.48,12.48,0,0,1,3.36,1.08A4.13,4.13,0,0,1,39.43,36a3,3,0,0,1,2.79,2.7c.12,2.66,0,5.33,0,8-.13.08-.19.16-.26.17-2.7.28-2.7.28-2.7-2.41,0-1.39,0-2.79,0-4.19,0-1-.29-1.75-1.45-1.82a1.6,1.6,0,0,0-2,1.61c-.13,1.75,0,3.51-.1,5.27,0,.51-.11,1.41-.34,1.46a6.68,6.68,0,0,1-2.36,0c-.14,0-.29-.59-.3-.91,0-1.76,0-3.52,0-5.28s-.46-2.17-1.59-2.19-1.87.74-1.91,2.24c0,1.72-.05,3.44,0,5.16,0,.82-.26,1.18-1.11,1.09a11.4,11.4,0,0,1-1.31,0c-.26-.07-.65-.4-.65-.62C26.12,43,26.13,39.71,26.13,36.08Z"/><path class="cls-1" d="M19.86,47.15a5.24,5.24,0,0,1-5.51-5.62A5.23,5.23,0,0,1,19.9,36a5.24,5.24,0,0,1,5.52,5.62A5.25,5.25,0,0,1,19.86,47.15Zm2.53-5.61A11.28,11.28,0,0,0,22,39.59a2.28,2.28,0,0,0-3.33-1c-1.59,1-1.64,4.9,0,5.82a3,3,0,0,0,1.92.25C21.8,44.43,22.3,43.42,22.39,41.54Z"/><path class="cls-1" d="M14.09,40.1a16,16,0,0,1-2.21,0c-.31,0-.55-.44-.85-.64-.6-.4-1.22-1.08-1.8-1.06a2.64,2.64,0,0,0-1.9,1.12,4.2,4.2,0,0,0,0,4.24c.72,1.41,3,1.6,3.53.19s1.45-1.19,2.46-1.19c.27,0,.54.05.81.08.05,2.42-1.95,4.28-4.62,4.35-3.31.1-5.61-2-5.71-5.12-.11-3.55,1.87-5.93,5-6.06S14,37.36,14.09,40.1Z"/><path class="cls-1" d="M183.14,9a4.45,4.45,0,0,1-4.65-4.44,4.61,4.61,0,0,1,9.22-.06A4.41,4.41,0,0,1,183.14,9Zm2.19-2a6.21,6.21,0,0,0,.52-.63,3.48,3.48,0,0,0-.85-4.6,3.21,3.21,0,0,0-4.4.55A3.68,3.68,0,0,0,180.86,7a3.14,3.14,0,0,0,4.5-.05Z"/><path class="cls-1" d="M3.11,46.83H0v-3.1H3.11Z"/><path class="cls-1" d="M185.36,6.93a1.28,1.28,0,0,1-1.81-.82,9.42,9.42,0,0,0-.78-1.23l-.3.08a7.59,7.59,0,0,1-.08,1.36c-.07.27-.36.48-.55.72-.19-.2-.53-.4-.53-.61-.05-1.47,0-2.93,0-4.51H183c.89,0,1.95,0,2.13,1.05.1.66-.38,1.41-.6,2.13l-.39,0L185.32,7Zm-2.17-2.78.81-.71a2.56,2.56,0,0,0-.89-.52c-.2,0-.45.35-.67.54Z"/></g></g></svg>