<svg xmlns="http://www.w3.org/2000/svg" viewBox="0 0 400 400"><defs><style>.cls-1{fill:#fff;}.cls-2{fill:none;}</style></defs><title>Asset 118</title><g id="Layer_2" data-name="Layer 2"><g id="Layer_1-2" data-name="Layer 1"><path class="cls-1" d="M236.42,182.91c8.42-6.47,15.57-5.9,19.74,1.41,2.69-4.74,6.84-6.36,12-5.68,4.88.64,7.93,3.59,8.1,9,.31,10.28.15,20.58.22,30.87,0,1.23-.5,1.43-1.6,1.52-8.82.75-8.81.77-8.81-7.9,0-6.56,0-13.12,0-19.68,0-4.11-1.1-5.64-3.78-5.77-3.22-.16-5.27,1.63-5.38,5.49-.24,8.27-.22,16.55-.16,24.82,0,2.19-.29,3.43-2.88,3s-5.76,1.07-7.22-.59c-1.22-1.39-.44-4.59-.45-7,0-6.76,0-13.52,0-20.28,0-4-1.11-5.49-4-5.5-3.13,0-5.14,2.07-5.18,5.77-.09,8-.2,16,.06,23.91.09,3.09-.75,3.83-3.76,3.72-6.94-.24-7-.07-7-7.15,0-10.29,0-20.59,0-30.88,0-1.87.37-2.86,2.49-2.58a17.8,17.8,0,0,0,3.93,0C235.17,179.25,237.31,179.23,236.42,182.91Z"/><path class="cls-1" d="M109.75,183.48a12.34,12.34,0,0,1,9.68-5c6.53-.37,10.74,3.2,10.86,9.75.19,10,0,20,.1,30,0,1.52-.52,1.89-1.92,1.82-2.7-.14-6.21.87-7.91-.46s-.54-5.08-.58-7.75c-.09-6.56,0-13.12,0-19.67-.07-4.52-2.46-6.49-6.23-5.29-2.78.88-3.44,3.15-3.44,5.75,0,8.17-.11,16.35.06,24.51.05,2.47-.72,3.18-3,2.91-2.47-.29-5.72,1.05-7.27-.52s-.43-4.8-.45-7.29c0-9.89.07-19.78-.08-29.66,0-2.59.76-3.42,3.21-3.08a15.44,15.44,0,0,0,3.33,0C108.68,179.24,111,179.33,109.75,183.48Z"/><path class="cls-1" d="M140.66,206.65a15.76,15.76,0,0,0,1.82,0c2-.27,3,.16,3.09,2.6.12,3.2,2.74,5,5.89,4.59,3-.37,4.57-2.29,4.35-5.11-.17-2.14-1.62-3.19-3.35-3.89-2.7-1.1-5.49-2-8.2-3-6.26-2.48-8.67-6.61-7.86-13.28.63-5.15,4.85-9,10.82-9.73a24.2,24.2,0,0,1,10.47.6A10.31,10.31,0,0,1,165,190.24c-.09,1.15-.44,1.62-1.6,1.58a31.26,31.26,0,0,0-4.54,0c-2.21.23-3.6-.14-3.69-2.83-.08-2.3-1.75-3.25-4-3.26s-4.23.81-4.84,3.23a3.87,3.87,0,0,0,2.34,4.73c2.75,1.22,5.66,2.08,8.49,3.11,6.6,2.39,9.32,6.28,8.69,12.4-.66,6.51-4.29,10.27-10.88,11.45a25.56,25.56,0,0,1-11.08-.43c-6.49-1.69-8-6.59-8.06-12.22,0-1.09.45-1.42,1.45-1.38S139.55,206.65,140.66,206.65Z"/><path class="cls-1" d="M170.45,190.79c0-6.77.06-13.53,0-20.3,0-1.94.45-2.75,2.51-2.56a32.48,32.48,0,0,0,5.75,0c2-.18,2.42.66,2.33,2.43-.12,2.32.08,4.65-.06,7-.11,1.76.55,2.25,2.23,2.2,1.23,0,3.18-.75,3.57.54a11.69,11.69,0,0,1,.09,6c-.31,1.29-2.15.65-3.25.56-2.14-.18-2.71.57-2.66,2.68.15,6.26,0,12.52.07,18.78,0,4,.46,4.42,4.49,4.65,1.21.07,1.48.43,1.58,1.56.49,5.43,0,6.07-5.55,6.22-.5,0-1,0-1.51,0-7.19,0-9.42-2.17-9.52-9.39C170.37,204.32,170.45,197.55,170.45,190.79Z"/><path class="cls-1" d="M327.89,202.93q0,9.82,0,19.66c0,7-2.42,9.69-9.29,10.53a15.11,15.11,0,0,1-1.51.08c-5.54.14-6.57-1.15-5.49-6.62.19-1,.61-1,1.39-1.09,3.84-.51,4.45-1.19,4.49-5.24,0-6.86,0-13.72,0-20.57,0-6,.07-11.9,0-17.85,0-1.81.44-2.39,2.34-2.41,8.1-.08,8.1-.15,8.1,7.78Z"/><path class="cls-1" d="M76.15,199.1H55.63a2.5,2.5,0,0,1-1.83-.91L35.9,180.24c4.39,0,8.12.43,11.71-.09,7.72-1.1,13.47,1.45,18.29,7.55,3.09,3.91,7.13,7.07,10.74,10.56Z"/><path class="cls-1" d="M36.35,220.45c5.95-6,11.79-11.79,17.61-17.64a2.83,2.83,0,0,1,2.21-.76c6.36,0,12.72,0,19.08,0a7.6,7.6,0,0,1,1.43.35L59,220.19a2.84,2.84,0,0,1-2.21.74q-9.7,0-19.39,0C37.13,220.9,36.87,220.69,36.35,220.45Z"/><path class="cls-1" d="M93.49,199.68c0,5.95-.09,11.91.05,17.87,0,2-.59,2.66-2.53,2.45-2.57-.29-6,1.11-7.5-.59-1.27-1.45-.41-4.8-.41-7.31,0-10,.05-20-.06-30,0-2.1.5-2.92,2.66-2.66,2.48.29,5.72-1,7.29.52s.42,4.79.48,7.28C93.55,191.39,93.49,195.53,93.49,199.68Z"/><path class="cls-1" d="M36.07,216.78V184.61c5.34,5.32,10.29,10.26,15.23,15.21.42.42.89.87.24,1.51Z"/><path class="cls-1" d="M220.35,208c-.08-6.66,0-13.33-.29-20-.25-4.94-2.6-7.46-7.39-8.71a24.94,24.94,0,0,0-13.44.09,10.32,10.32,0,0,0-7.54,8.27c-.92,4.12-.6,4.44,3.53,4.44a24.64,24.64,0,0,1,3.33,0c1.69.23,2.15-.5,2.42-2.08.55-3.31,2.07-4.41,5.09-4.31,2.57.09,3.84,1.5,4.21,3.89.43,2.8-.82,4.56-3.9,5.5-3.37,1-6.82,1.76-10.12,3.06-8.51,3.34-7.14,18-1.93,21.19a10.29,10.29,0,0,0,5.1,1.69c4.26.12,8.18-.69,10.6-4.65,1.29,1.09.27,3.5,2.56,3.54,2.89,0,5.79,0,9,0C220,215.85,220.4,211.9,220.35,208Zm-10-.14a6,6,0,0,1-5.7,6c-2.16.21-3.39-.84-4-2.84-1.12-3.52-.19-6.75,2.69-8.11,2.16-1,4.49-1.65,7.06-2.56C210.34,203,210.43,205.42,210.32,207.84Z"/><path class="cls-1" d="M364,198c-.15-1.9-.23-3.82-.45-5.71-1.14-10-6.78-14.63-16.79-13.83-.4,0-.8.12-1.2.16-6.58.68-10.54,3.86-12.23,10.26a44.62,44.62,0,0,0-.23,21.24c1.56,7,5.19,10.06,12.28,10.85,10.25,1.14,16.51-3.51,18.09-13.64A44.07,44.07,0,0,0,364,198ZM352.73,209.2c-.62,2.51-1.74,4.63-4.74,4.62s-4.18-2-4.63-4.39a51.81,51.81,0,0,1,0-19.23c.48-2.56,1.8-4.55,4.85-4.44s4,2.28,4.57,4.78a38.91,38.91,0,0,1,.68,9.33A37.45,37.45,0,0,1,352.73,209.2Z"/><path class="cls-1" d="M312.37,193.05c-1.62-11.62-6.89-15.68-18.52-14.36-6.38.73-10.52,4.43-12,11a47.11,47.11,0,0,0-.1,20.06c1.53,7.36,5.4,10.72,12.83,11.33,10.35.85,16.18-3.85,17.66-14.16a64.67,64.67,0,0,0,.61-7.23C312.71,197.46,312.68,195.24,312.37,193.05Zm-11.15,17c-.66,2.21-1.92,3.79-4.42,3.83a4.31,4.31,0,0,1-4.49-3.73,52,52,0,0,1,0-20.64,4.23,4.23,0,0,1,4.43-3.74c2.53,0,3.86,1.44,4.49,3.68,1,3.71,1.05,7.54,1.19,11.43C302,203.87,302.13,207,301.22,210Z"/><rect class="cls-2" width="400" height="400"/></g></g></svg>