<svg xmlns="http://www.w3.org/2000/svg" viewBox="0 0 400 400"><defs><style>.cls-1{fill:#fff;}.cls-2{fill:none;}</style></defs><title>Asset 130</title><g id="Layer_2" data-name="Layer 2"><g id="Layer_1-2" data-name="Layer 1"><path class="cls-1" d="M230.34,213.71l-.6,5.67c-3.16,0-6.17,0-9.18,0-2.74-.05-1.93-2.22-1.93-3.67q-.07-27.75,0-55.51c0-3-.15-6.09.1-9.11.07-.89,1.21-2.35,2-2.41,3.36-.26,6.75-.11,10.54-.11v22c8.35-6.12,16.8-7.83,25.93-4.43a25.86,25.86,0,0,1,13.48,11.75c6.9,11.88,4.27,28.29-5.91,37.22C255.28,223.39,242.41,223,230.34,213.71ZM262,192.62c-.07-9.68-6.84-16.72-16-16.6-8.85.11-15.63,7.38-15.55,16.67.08,9.63,7.27,17.09,16.29,16.9C255.58,209.41,262,202.2,262,192.62Z"/><path class="cls-1" d="M202.31,172.4l.48-5.87H213.7v52.59H202.84c-.15-1.65-.31-3.35-.49-5.38a14.61,14.61,0,0,0-2,1.11c-7.9,6.18-16.58,8.14-26,4.3s-14.44-11.66-15.9-21.59c-1.9-13,3.67-24.81,13.87-30.09,9.49-4.92,19.51-3.84,27.66,3ZM186.55,176c-9.05,0-16,7.57-15.92,17.24a16.17,16.17,0,0,0,16,16.35c8.78,0,15.49-7.22,15.56-16.72C202.3,183.14,195.65,176,186.55,176Z"/><path class="cls-1" d="M138.94,166.33c5.25-16.34,12.95-22,26.63-19.75v11.73c-1,.1-2,.25-3,.27-8.06.17-10.52,2.71-10.53,10.89v49.65a105.37,105.37,0,0,1-10.74-.16c-.71-.07-1.73-2.17-1.74-3.35-.13-11.28-.08-22.57-.07-33.85v-4.53h-14v-10.9Z"/><path class="cls-1" d="M193.48,240.56a13.22,13.22,0,0,1-13.64,13.28,13.41,13.41,0,0,1-13.54-13.46A13.59,13.59,0,0,1,180,226.65,13.38,13.38,0,0,1,193.48,240.56ZM192,240.2a12.12,12.12,0,1,0-11.92,12.23A12.31,12.31,0,0,0,192,240.2Z"/><path class="cls-1" d="M158.86,252.84V241c-1.62-.13-2.61-.27-3.61-.27-4.42,0-8.84,0-13.9,0v12.38l-1.1,0V227.57l.85-.07v11.67c5.68,0,10.72.1,15.74-.12.67,0,1.74-1.6,1.81-2.53.23-3,.09-6,.09-8.94h1.08v25.18Z"/><path class="cls-1" d="M230.21,240.51h-11.9c0,3.68-.16,6.81.13,9.89.06.68,1.66,1.69,2.6,1.74,3.7.2,7.41.08,11.12.08v1H216.77V237c0-9.94,0-9.94,9.8-9.95h5.63l.08,1.08c-1.46.12-2.92.31-4.38.35a61.62,61.62,0,0,0-7.2.16,3.54,3.54,0,0,0-2.31,2.4,67.65,67.65,0,0,0-.11,8.19h11.93Z"/><path class="cls-1" d="M269.8,229.59a30.54,30.54,0,0,0-5.35-1.45c-3.11-.28-6,.61-6.94,4s1.28,5.14,4,6.35c2.19,1,4.5,1.71,6.64,2.77,2.58,1.28,4.12,3.39,3.85,6.41s-2.27,4.67-4.93,5.67c-4,1.49-8.43.22-11.69-4a30.6,30.6,0,0,0,3.24,1.46c2,.6,4.31,1.91,6.06,1.42a9.23,9.23,0,0,0,5.43-4.33c1.15-2.48-1-4.47-3.34-5.58-1.93-.93-4-1.58-6-2.43-4.09-1.76-5.7-4.37-4.95-7.89.68-3.18,3.8-5.49,7.81-5.27,2.22.12,4.4,1,6.6,1.51Z"/><path class="cls-1" d="M196,227.36h15.94l.11.8-7.43.69v24.06l-1.26,0V228.75l-7.35-.42Z"/><path class="cls-1" d="M252.69,253.27H239.5v-25.7l.91-.08c.1,1.39.26,2.78.27,4.18,0,5.69.12,11.38,0,17.07-.07,2.58.72,3.7,3.44,3.53s5.76,0,8.64,0Z"/><rect class="cls-2" width="400" height="400"/></g></g></svg>