<svg xmlns="http://www.w3.org/2000/svg" viewBox="0 0 237.6 43.41"><defs><style>.cls-1{fill:#fff;}</style></defs><title>Asset 55</title><g id="Layer_2" data-name="Layer 2"><g id="Layer_1-2" data-name="Layer 1"><path class="cls-1" d="M.1,27.73c0-3.49,0-7,0-10.48,0-4.33,3.93-7,7.16-4.25,1.6,1.35,2,1.11,3.27.43,5.29-2.74,10.36-3.48,14.61,1.93,1.34,1.71,2.22.22,3.18-.56,3.84-3.1,7.78-4.53,12.81-2.39s5.72,6.19,6,10.49c.36,5.63.08,11.31.25,17,.11,3.73-2.51,2.63-4.46,2.78S39,43,39.12,39.79c.17-5.15.05-10.32-.26-15.46-.18-2.8-.64-6-4.66-5.73A6.54,6.54,0,0,0,27.8,25a100.9,100.9,0,0,0-.06,13.47c.14,3-.41,4.45-4,4.35-3.17-.1-4.42-.75-4.23-4.15.26-4.64,0-9.31-.05-14,0-3.14-1.19-5.74-4.59-6-3.76-.31-5.67,2.12-6.34,5.61-1,4.95-.69,10-.53,14.93.1,3-1,3.66-3.74,3.53-2.45-.12-4.58.19-4.27-3.5S.1,31.56.1,27.73Z"/><path class="cls-1" d="M94.71,14.37c11.37-5.82,16.49-2.15,20.59,3,4.45,5.57,4.31,14.39.08,19.86-4.93,6.36-10.43,7.88-18.31,4.3-2.89-1.31-3.89,2.26-6.74,1.38-2.36-.73-3.71-.75-3.67-3.71.17-11.82.21-23.65,0-35.46C86.57.24,88.13.09,90.8,0c3-.1,4.23.72,4,3.91S94.71,10.57,94.71,14.37Zm15.89,13.1c0-5.33-3.17-8.86-7.94-8.9s-8.22,3.6-8.31,8.58c-.1,5.4,3.45,9.45,8.23,9.38C107.09,36.47,110.61,32.5,110.6,27.47Z"/><path class="cls-1" d="M188.46,38.84c-9.84,6.43-17.48,6-23.66-1-5-5.66-4.87-15.07.19-21a15.19,15.19,0,0,1,20.54-2.65c1.56,1.06,3.1,3.51,3.66-.73.16-1.18,1.58-1,2.55-.91,1.4.09,1.37,1.19,1.37,2.18,0,8.48,0,17,0,25.44,0,1.57-.34,2.45-2.19,2.48C188.07,42.72,189.51,40.21,188.46,38.84ZM177.37,15.23c-6.93,0-12.07,5.16-12.09,12.21a11.88,11.88,0,0,0,12.07,12.22,12.36,12.36,0,0,0,12.06-11.9C189.57,21.25,183.83,15.27,177.37,15.23Z"/><path class="cls-1" d="M124,27.61c0-6.59,2.6-11.6,8.77-14.34,7-3.12,15.37-2,20,2.47,1.05,1,2.26,2.27.87,3.77-1.23,1.34-2.13.29-3.3-.57C144,14.3,138,14,132.94,17.74c-5.36,4-6.89,10.41-3.75,15.75s11.56,7.91,17,5.06a21.79,21.79,0,0,0,4.44-3.12c1.28-1.16,2.11-.35,3,.31,1.59,1.15.25,2.08-.39,2.86-3.72,4.46-13,6-20,3.41C127.37,39.79,124,34.51,124,27.61Z"/><path class="cls-1" d="M208.52,11.17a16,16,0,0,1,6.72,2.8c1,.67,1.63,1.59.61,2.89C215,18,214,18.4,213,17.21a5.54,5.54,0,0,0-3.45-1.79c-2.35-.48-4.34.07-5.3,2.51s-.1,4.22,1.95,5.49c2.52,1.57,5.32,2.64,7.54,4.73,3.94,3.71,4.21,9,.47,12.66-3.36,3.32-11.16,3.32-14,0-.82-1-1.3-2-.53-3.15.91-1.39,1.91-.86,2.89,0a7.61,7.61,0,0,0,5.5,1.94,4.79,4.79,0,0,0,4.82-3.6A4.28,4.28,0,0,0,211,30.88c-2.49-1.64-5.12-3.06-7.55-4.78a7.75,7.75,0,0,1-3.1-9.21C201.51,13.23,204.76,11.73,208.52,11.17Z"/><path class="cls-1" d="M227.63,28.62c0-2.66-.06-5.32,0-8s.46-5.56-3.82-4.91a1.4,1.4,0,0,1-1.69-1.39c-.09-.95.36-1.89,1.26-1.75,5.46.79,4.13-3.1,4.23-6,0-1.16,0-2.33,0-3.49s.14-2.34,1.83-2.27,1.8,1.15,1.8,2.4.11,2.67,0,4c-.3,3.29-.27,6.17,4.42,5.34,1-.19,2,.16,1.94,1.57a1.47,1.47,0,0,1-1.94,1.59c-4.82-.85-4.47,2.31-4.43,5.46.08,6.15,0,12.3,0,18.46,0,1.42.38,3.2-2.08,3-2.22-.19-1.43-1.9-1.46-3C227.57,35.94,227.63,32.28,227.63,28.62Z"/><path class="cls-1" d="M67.69,42.37l-.3.06a10.28,10.28,0,0,1-2,.22,14.21,14.21,0,0,1-2.95-.27c-3.58-.69-7-2.62-8.25-5.18-.81-1.73.46-2.75,1.21-4,1.33-2.17,3.33-2.44,5.61-2.09a4.06,4.06,0,0,1,3.66,4.07c.14,2.35.1,4.68,2,6.33l.58.54Z"/><path class="cls-1" d="M69.66,41.62c-3-2-4.25-4.83-1.84-8.27,2.1-3,4.87-2.77,8-1.78,1.83.58,3.79,0,5.76-.87-1.35,7.62-5.28,11.11-11.89,10.92Z"/><path class="cls-1" d="M51.64,34.72c-1.57-5.09-1.94-8.63-.83-12.26.92-3,2.82-4.29,5.92-4.08a4.68,4.68,0,0,1,4.68,4.29,4.77,4.77,0,0,1-3.53,5.72C55,29.18,53.14,31,51.64,34.72Z"/><path class="cls-1" d="M55.58,15.22c3.69-2.55,6.78-4.27,10.56-4.08,2.68.14,4.87,1.25,5.47,4.07.51,2.41,0,4.61-2.53,5.82a4.78,4.78,0,0,1-6.52-1.7A9.12,9.12,0,0,0,55.58,15.22Z"/><path class="cls-1" d="M75.88,29.21c-2.7-.1-4.3-2-4-5.68.24-2.87,3.52-4.38,3.32-7.46,0-.16.82-.49,1.28-.53,1.91-.18,5.61,5.45,5.35,8.68C81.6,27,80.33,29.32,75.88,29.21Z"/></g></g></svg>