<svg xmlns="http://www.w3.org/2000/svg" viewBox="0 0 400 400"><defs><style>.cls-1{fill:#fbfbfb;}.cls-2{fill:#f8fbf8;}.cls-3{fill:#fafbfa;}.cls-4{fill:#f9fbf9;}.cls-5{fill:#f8fef7;}.cls-6{fill:#f9faf9;}.cls-7{fill:#fefbfd;}.cls-8{fill:#f4f9f5;}.cls-9{fill:#f7fbf8;}.cls-10{fill:#f5f9f5;}.cls-11{fill:#eaf4ea;}.cls-12{fill:#f5f9f4;}.cls-13{fill:#20a72d;}.cls-14{fill:#f1f8f0;}.cls-15{fill:#1ea627;}.cls-16{fill:#f9fbfa;}.cls-17{fill:#f7fdf1;}.cls-18{fill:#f0fdf9;}.cls-19{fill:#fff;}.cls-20{fill:none;}</style></defs><title>Asset 103</title><g id="Layer_2" data-name="Layer 2"><g id="Layer_1-2" data-name="Layer 1"><path class="cls-1" d="M241.05,179.84c1.93-1.5,1.56-4-.81-5.35-1.27-.7-2.6-1.31-3.84-2.06-4.08-2.46-4.24-6.07-.43-8.9.2-.28.35-.64.8-.39a14.69,14.69,0,0,1,4.81-.36,10,10,0,0,1,1.7.34c1.19.33.93,1.35.75,2.08-.25,1-.92.16-1.35.06a9.57,9.57,0,0,0-3.44-.42c-1.52.18-3.07.46-3.5,2.21s.79,2.84,2.23,3.64c1.74,1,3.65,1.67,5.15,3.06a4.76,4.76,0,0,1-.05,7.45c-.86.78-2,.76-3,1.3-2.28.74-4.49.86-6.53-.68a3.86,3.86,0,0,1-.23-2.74c1.29.48,2.44,1.23,3.81,1.16S239.72,179.71,241.05,179.84Z"/><path class="cls-2" d="M202.57,182.22l-.09-.08-.12,0a22.36,22.36,0,0,1-.33-7.11c.19-3.72-.23-7.42,0-11.13,0-.24-.11-.5.2-.63,3-.64,6-.13,9-.27.8,0,.94.49.94,1.14s-.37.9-1,.9c-1.74,0-3.48.06-5.22,0-1.13,0-1.4.39-1.43,1.45-.18,4.92-.21,5,4.71,4.9,1.57,0,2.77.06,2.15,2.13-.49.81-1.3.66-2.05.7a16.23,16.23,0,0,0-3.62.19c-1.12.41-.89,1.39-.89,2.25a8.09,8.09,0,0,0,.21,2.81,1,1,0,0,0,.5.33c1.74.12,3.48,0,5.22.06.63,0,1.31-.14,1.81.43v0a1.72,1.72,0,0,1,0,1.93l0-.06a1.66,1.66,0,0,1-1.42.45C208.32,182.51,205.43,182.82,202.57,182.22Z"/><path class="cls-3" d="M281,227.69c-1.7-8.13,4-14.23,12-12.79a5.79,5.79,0,0,1,1.49.42c.95.46.66,1.41.47,2.05s-.87.1-1.28,0c-3.29-1.05-6.3-.75-8.72,1.92-2.06,2.29-2.4,6.84-.88,9.74s4.71,4.07,8.39,3.17c.8-.2,1.59-.49,2.43-.76.41,1.58,0,2.39-1.64,2.72a13.63,13.63,0,0,1-6,.11c-3-.71-4.85-2.73-6.07-5.44C280.68,228.52,280.87,228.1,281,227.69Z"/><path class="cls-4" d="M269.45,199.75c-.56,1.83-.11,3.69-.23,5.54-.06,1,.65.91,1.33.9,1.75,0,3.49,0,5.23,0,.63,0,1.32-.11,1.35.91s-.54,1.14-1.35,1.14c-2.45,0-4.91-.05-7.36,0-1.05,0-1.51-.28-1.5-1.41q.06-8.24,0-16.47c0-1,.37-1.36,1.37-1.34,2.26,0,4.52.07,6.78,0,1.74-.06,2.05.64,1.36,2.09a16.52,16.52,0,0,1-5.34.18c-1.61-.07-2,.51-1.87,2s-.23,2.69.22,4c1.64.05,3.29.11,4.94.13,2,0,2.17.36,1.29,2.24A20.92,20.92,0,0,1,269.45,199.75Z"/><path class="cls-5" d="M204.54,199.82a69.39,69.39,0,0,1,0,8,2.32,2.32,0,0,1-2,0h0a1,1,0,0,1-.22-.57c0-2.29.11-4.58-.05-6.86a2.39,2.39,0,0,1-.08-.59,5.75,5.75,0,0,0,0-2.61,2.47,2.47,0,0,1,.08-.6,29.63,29.63,0,0,0-.07-5.88,1.7,1.7,0,0,1,.36-1.5c1.61-.61,2.18,0,2.08,1.65-.13,2.09-.09,4.2-.12,6.3a39,39,0,0,0,6.11.14,27.55,27.55,0,0,0,4,0c0-2.17.07-4.35,0-6.52-.08-1.62.48-2.12,2-1.56a30.64,30.64,0,0,1,.18,6.13c.06,3.6,0,7.21,0,10.81,0,2,0,2-2.05,1.69l-.09-8.15C211.25,199.75,207.89,199.52,204.54,199.82Z"/><path class="cls-6" d="M264.36,215.24c3.44,4.92,6.61,10,9.73,15.14.6-.58.38-1.34.38-2,0-3.63,0-7.25,0-10.88a3.23,3.23,0,0,1,.48-2.4c1.42-.53,1.66.24,1.66,1.43,0,5.33,0,10.67,0,16,0,.6.25,1.37-.59,1.65a1.63,1.63,0,0,1-1.92-.51,1.5,1.5,0,0,0-.57-.49q-3.76-5.79-7.54-11.58c-.38-.58-.81-1.14-1.22-1.7-.37-.13-.59-.34-.43-.76,0-.36-.31-.49-.56-.65l-.2,1c-1.09.48-2.12.81-2.12-1,0-.45,0-.89,0-1.33C261.48,214.89,262.13,214.46,264.36,215.24Z"/><path class="cls-4" d="M255,175.11c-.46,1.69-.14,3.41-.19,5.12-.07,2.24-.27,2.39-2.47,1.57-.54-2.44.1-4.94-.38-7.39-1.3-3.31-3.21-6.32-4.66-9.56-.24-.52-1.31-1.19-.37-1.73a1.71,1.71,0,0,1,2.27.45,5.19,5.19,0,0,0,.37.45c.5.51,1.21.93.86,1.84l.67,1.29c.37.1.42.37.37.7l2,4.79c1.57-2.89,3.05-5.5,4.38-8.18.67-1.34,1.48-1.83,3-1.18l-5.82,11.53c.11.1.14.18.08.23A.26.26,0,0,1,255,175.11Z"/><path class="cls-4" d="M250.77,202.79l-.78.39c-.72.29-.45-.76-1-.72q-2.06-4.49-4.13-9l-.35.05v14.58a1.74,1.74,0,0,1-2.29-.13l.06-.08-.07-.07c-.45-1.84-.16-3.71-.18-5.57-.06-3.73,0-7.47,0-11.21,0-.63-.2-1.29.21-1.88,2.95-.4,3-.41,4.12,2.23a75.61,75.61,0,0,1,3.28,7.77c.21.57.1,1.29.75,1.65h0C250.52,201.49,251.17,202,250.77,202.79Z"/><path class="cls-7" d="M261.75,219.14c.2.11.47.55.56.31.54-1.42.88-.42,1.27.06V233.9a1.58,1.58,0,0,1-2,0l0,0A97.49,97.49,0,0,1,261.75,219.14Z"/><path class="cls-4" d="M238.65,217.12c0-.76.19-1.56-.33-2.25a1.67,1.67,0,0,0-1.92.09v15.12l-.55.09-10-15.32a3.06,3.06,0,0,0-2.34,0c-.6.58-.37,1.33-.37,2q0,8.7,0,17.38c.64.75,1.39.5,2.14.23,0-.09,0-.17.16-.25V218.47a14.12,14.12,0,0,1,2.49,3.71q4,6.06,8,12.12a3.65,3.65,0,0,0,2.7-.09Q238.69,225.68,238.65,217.12Z"/><path class="cls-8" d="M273.53,233.17c2.64,1.24,2.9,1.07,2.89-1.9,0-4.77,0-9.55,0-14.33,0-1-.14-1.83-1.44-1.7l-.28-.1L275,215l-.08-.09a1.82,1.82,0,0,1,1.93,0q.3,9.71,0,19.4a4.19,4.19,0,0,1-2.71,0Z"/><path class="cls-9" d="M210.2,223.68c-1.78-.13-3.58.34-5.33-.26-.55-1.75-.11-3.55-.24-5.32-.07-.93.55-1,1.26-1,1.6,0,3.21,0,4.82,0,.61,0,1.33.2,1.57-.69-.14-.52.43-1.22-.4-1.56a43.9,43.9,0,0,0-9.31,0l-.33.72a17.43,17.43,0,0,0,0,6.52c0,.83.13,1.67.16,2.5.1,3.23-.21,6.46.16,9.68a2.2,2.2,0,0,0,1.94,0c.42-2.72-.25-5.48.36-8.19,1.72-.77,3.52-.15,5.28-.33.71-.07,1.43.08,1.45-1S210.93,223.73,210.2,223.68Z"/><path class="cls-6" d="M261.75,219.14q-.08,7.4-.13,14.8c-.46-4.24-.15-8.49-.17-12.74,0-2.11-.38-4.24.23-6.33a3.55,3.55,0,0,1,2.68,0,2,2,0,0,1,0,.35C261.52,215.28,261.5,215.31,261.75,219.14Z"/><path class="cls-10" d="M214.7,207.85c1.42.19,1.89-.42,1.88-1.85-.07-5.6,0-11.19,0-16.78.5.29.34.79.34,1.21q0,8.1,0,16.2C216.88,208.41,216.57,208.56,214.7,207.85Z"/><path class="cls-11" d="M202.23,207.83l0-18.6.31,0c0,.52.05,1,.08,1.55a36.66,36.66,0,0,1,0,6.11v.49a5.24,5.24,0,0,1,0,2.23v.5a49.14,49.14,0,0,1,0,7.28l-.09.45A1.73,1.73,0,0,1,202.23,207.83Z"/><path class="cls-6" d="M258.83,194.52l.56-1.76.41,0v15.41h0c1.61.38,2.29-.31,2.22-1.9h0V190.74c-.24-.61.24-1.68-1-1.69-1,0-2-.27-2.51,1.08a33,33,0,0,1-1.45,3.07,1.76,1.76,0,0,0-.84,1.83c-1,2.92-2.69,5.53-3.53,8.5-.25.25-.06.82-.54.87s-.41-.39-.61-.61-.22-.7-.29-1.06h0a1.33,1.33,0,0,0-.58-.19,1,1,0,0,0-.91.71,2.06,2.06,0,0,0,.21,1.17c.27.71.51,1.45.84,2.14s.33,1.68,1.37,1.62c.89,0,.94-1,1.22-1.59,1.7-3.74,3.15-7.6,5.12-11.23"/><path class="cls-11" d="M204.54,199.82c.29-.55.82-.54,1.34-.55h7.51a1.41,1.41,0,0,1,1.22.43l-.39,0c-2.86.44-5.74.09-8.62.2a1.53,1.53,0,0,1-.7-.13A.63.63,0,0,0,204.54,199.82Z"/><path class="cls-10" d="M214.6,197.3c-2.41,1-4.92.25-7.38.41-.89.06-1.95.43-2.69-.51a.94.94,0,0,0,.37.07,1.71,1.71,0,0,1,.71-.11c2.87.08,5.74-.18,8.61.15A.46.46,0,0,0,214.6,197.3Z"/><path class="cls-12" d="M252.69,203.53c0,.53.07,1.46-.67,1.2a1.34,1.34,0,0,1-.77-2C251.91,202.68,251.28,204.94,252.69,203.53Z"/><path class="cls-12" d="M250.39,200.84c-1.57,0-.8-1-.75-1.65A3.2,3.2,0,0,1,250.39,200.84Z"/><path class="cls-13" d="M251.14,214.92h-2.3"/><path class="cls-12" d="M250.77,202.79c-.13-.65-.26-1.3-.38-2a3.94,3.94,0,0,1,.86,1.89Z"/><path class="cls-12" d="M249,202.46l1,.72,0,1.23Z"/><path class="cls-14" d="M263.59,234.28l-1.94,0c0-.13,0-.25,0-.38l2,0Z"/><path class="cls-15" d="M276.8,214.9l-1.93,0"/><path class="cls-11" d="M202.55,207.86h2A1.27,1.27,0,0,1,202.55,207.86Z"/><path class="cls-1" d="M238.45,196c-1.35-7.46-8.54-8.46-13-6.33-3.05,1.46-4.11,4.3-4.94,7.28a18.35,18.35,0,0,0,0,3.4c.14.5.27,1,.42,1.49,1,3.16,2.83,5.59,6.19,6.34s6.45.41,8.87-2.37a2.86,2.86,0,0,0,1.22-1.34A12.27,12.27,0,0,0,238.45,196Zm-2.4,4.46a6.32,6.32,0,0,1-9.56,5.11c-.24,0-.24,0-1.05-.75a8.92,8.92,0,0,1-.13-12.23l.89-.75c4-2.51,8.43-.74,9.72,3.93l0,.4A7.06,7.06,0,0,1,236.05,200.49Z"/><path class="cls-3" d="M257.9,232.57c-2.23-5.9-4.5-11.77-6.76-17.65a2.28,2.28,0,0,0-2.3,0l-7.39,19.3a2.15,2.15,0,0,0,2.69,0c1.48-5.32,1.48-5.32,6.9-5.34.64,0,1.29,0,1.93,0a1.16,1.16,0,0,1,1.33.84,27.86,27.86,0,0,1,1.53,4.54,2.71,2.71,0,0,0,2.31.1C258.74,233.64,258.1,233.1,257.9,232.57Zm-5.72-5.73c-1.33,0-2.66-.06-4,0s-1.58-.42-.9-1.5q1.17-3.48,2.35-7c.44-.28.53.13.7.37l2.37,7C253.28,226.46,253.23,226.86,252.18,226.84Z"/><path class="cls-16" d="M230.56,180.53c-2-5.38-4.12-10.74-6.16-16.12-.32-.84-.64-1.43-1.74-1.45s-1.44.65-1.75,1.45c-.8,2.11-1.51,4.27-2.4,6.35-1.18,2.77-1.83,5.77-3.53,8.32-.53.42-.17,1.06-.37,1.56.39.46-1,1.27.24,1.51.93.18,1.9.26,2.27-1.07s.89-2.38,1.35-3.57a.22.22,0,0,0,.16-.09c.06-.07,0-.17-.07-.28.78-.68,1.7-.19,2.55-.3,3.58-.46,6.71-.16,7.22,4.41,0,.06.07.11.09.17.4,1.15,1.41.92,2.11.69C231.57,181.77,230.74,181,230.56,180.53Zm-10.51-5.67c-.37,0-.55-.17-.4-.44h0a.55.55,0,0,1,0-.78c.24-.4.47-.8.71-1.19a16.44,16.44,0,0,1,1.67-4.66c.22-.35.38-.75.82-.91l3.09,8Z"/><path class="cls-17" d="M219.67,173.64l0,.78c0,.29.21.35.41.44-.1.5-.26,1.11-.89.92-.87-.26,0-.8,0-1.22S219.47,174,219.67,173.64Z"/><path class="cls-10" d="M202.64,207.41c0-2.43,0-4.85,0-7.28A17.85,17.85,0,0,1,202.64,207.41Z"/><path class="cls-10" d="M202.65,196.91c0-2,0-4.08,0-6.12A13.05,13.05,0,0,1,202.65,196.91Z"/><path class="cls-10" d="M202.65,199.63c0-.74,0-1.49,0-2.23A2.07,2.07,0,0,1,202.65,199.63Z"/><path class="cls-18" d="M275.89,230.91c-.2-.24-.35-.36-.4-.51a1.06,1.06,0,0,1,.07-.45c.13.11.3.21.36.35S275.91,230.62,275.89,230.91Z"/><path class="cls-10" d="M219.59,217.13l.44-.35c.32-.79.77-1.62-.42-2.11-1.92.15-3.87-.39-5.75.3.38.72-.74,2.23,1.14,2.17a1.28,1.28,0,0,1,.33.68c.12,4.32,0,8.64,0,13,0,.82-.5,1.12-1.16,1.33a1.83,1.83,0,0,0,0,2.21,34,34,0,0,0,5.34.15c1.09-.31.62-1.07.5-1.73a.43.43,0,0,1-.06-.35c-1.57,0-2.05-.72-2-2.35.15-3.72,0-7.44.07-11.16,0-.58-.37-1.3.39-1.73"/><polygon class="cls-4" points="307.91 217.2 307.91 217.2 307.91 217.2 307.91 217.2"/><path class="cls-4" d="M307,232.07c-1.41.13-2.84,0-4.25,0-1.12.06-1.56-.25-1.59-1.48-.13-5.1-.18-5.1,4.89-5.13h.19c1.7.2,2.3-.47,1.66-2.11-1.84,0-3.68,0-5.53,0-.86,0-1.37-.21-1.09-1.2.09-1.68-.65-3.43.41-5a39,39,0,0,1,6.21,0c1.12-.8,1.19-1.59,0-2.38l-8.86.08h0L299,234.28a49.31,49.31,0,0,0,10.09,0C309.39,232.58,308.75,231.91,307,232.07Z"/><path class="cls-19" d="M126,206.47S90.29,208.87,90.86,194s34.86-14.88,34.86-14.88Z"/><path class="cls-19" d="M94.51,214s9.11,8.18,32.09,6.81c.61.12,2.11-7.34.61-7.34s-14.1.61-22-1.93-13-8.8-13.43-6.42S91.63,213,94.51,214Z"/><path class="cls-19" d="M94.51,227.37s9.11,8.18,32.09,6.81c.61.12,2.11-7.34.61-7.34s-14.1.61-22-1.93-13-8.8-13.43-6.41S91.63,226.41,94.51,227.37Z"/><path class="cls-19" d="M157.79,191.05c-12.19,0-22.52-4.06-26.17-9.69a8.2,8.2,0,0,0-1.42,4.47c0,7.83,12.35,14.17,27.59,14.17s27.58-6.34,27.58-14.17a8.2,8.2,0,0,0-1.42-4.47C180.3,187,170,191.05,157.79,191.05Z"/><path class="cls-19" d="M157.79,205c-12.19,0-22.52-4.06-26.17-9.69a8.2,8.2,0,0,0-1.42,4.47c0,7.83,12.35,14.17,27.59,14.17s27.58-6.34,27.58-14.17a8.2,8.2,0,0,0-1.42-4.47C180.3,200.91,170,205,157.79,205Z"/><path class="cls-19" d="M157.79,218.89c-12.19,0-22.52-4.06-26.17-9.69a8.15,8.15,0,0,0-1.42,4.47c0,7.82,12.35,14.17,27.59,14.17s27.58-6.35,27.58-14.17A8.15,8.15,0,0,0,184,209.2C180.3,214.83,170,218.89,157.79,218.89Z"/><path class="cls-19" d="M157.79,232.81c-12.19,0-22.52-4.07-26.17-9.7a8.21,8.21,0,0,0-1.42,4.48c0,7.82,12.35,14.17,27.59,14.17s27.58-6.35,27.58-14.17a8.21,8.21,0,0,0-1.42-4.48C180.3,228.74,170,232.81,157.79,232.81Z"/><ellipse class="cls-19" cx="157.79" cy="172.41" rx="27.59" ry="14.17"/><rect class="cls-20" width="400" height="400"/></g></g></svg>