<svg xmlns="http://www.w3.org/2000/svg" viewBox="0 0 90.88 28.02"><defs><style>.cls-1{fill:#fff;}.cls-2{fill:#fdfdfd;}</style></defs><title>Asset 63</title><g id="Layer_2" data-name="Layer 2"><g id="Layer_1-2" data-name="Layer 1"><path class="cls-1" d="M5.13,17.6H0L2.6,14.22a.2.2,0,0,1,.13,0A7.81,7.81,0,0,1,4,15.64c.35.41.65.86,1,1.3s.29.37.52,0c.44-.72.86-1.45,1.3-2.16.1-.15.16-.33.35-.4a.32.32,0,0,1,.14,0,6.82,6.82,0,0,1,1,1.42c.24.46.53.88.78,1.34.09.15.27.32.06.51a3.29,3.29,0,0,1-1.17.07c-.83,0-1.66,0-2.5,0A.62.62,0,0,1,5.13,17.6Z"/><path class="cls-1" d="M16.34,3.94h6.14l-3,3.86a.19.19,0,0,1-.07.12.23.23,0,0,1-.14,0A.8.8,0,0,1,19,7.65c-.84-1.13-1.69-2.25-2.53-3.39A.46.46,0,0,1,16.32,4Z"/><path class="cls-1" d="M10.3,4,7.71,7.42,7.4,7.8c0,.07-.06.1-.13.11l0,0-3-3.95H9.81C10,3.93,10.17,3.83,10.3,4Z"/><path class="cls-1" d="M13.27,3.93H10.4c0-.14.07-.21.14-.3L13.11.22c.11-.15.19-.37.41-.07.93,1.27,1.88,2.52,2.82,3.79h0a.46.46,0,0,1-.35.14,18.21,18.21,0,0,1-2.56,0A.54.54,0,0,1,13.27,3.93Z"/><path class="cls-1" d="M7.71,20.76q1.5,2,3,4H5.18l2.34-4A.13.13,0,0,1,7.71,20.76Z"/><path class="cls-1" d="M19.2,20.85l2.22,3.76c-.16.16-.32.1-.45.1H16.42c-.15,0-.32-.06-.48,0l0-.06a.66.66,0,0,1,.19-.39C17,23.2,17.8,22.09,18.65,21A.65.65,0,0,1,19,20.7C19.09,20.69,19.15,20.76,19.2,20.85Z"/><path class="cls-1" d="M2.69,14.22H2.6c0-.2-.14-.32-.24-.46L0,10.66H5a.24.24,0,0,1,.24.12.28.28,0,0,1,0,.2C4.35,12.06,3.58,13.19,2.69,14.22Z"/><path class="cls-1" d="M24.07,14c-.05.22.13.33.23.46l2.34,3.11H21.49a.23.23,0,0,1-.06-.12,2,2,0,0,1,.52-.83c.67-.87,1.34-1.75,2-2.64A.15.15,0,0,1,24.07,14Z"/><path class="cls-1" d="M24.07,14H24c-.17,0-.23-.1-.31-.19C23,12.89,22.21,12,21.54,11a.38.38,0,0,1,0-.21.21.21,0,0,1,.16-.13h5Z"/><path class="cls-1" d="M16,24.77h0c-.75,1-1.52,2-2.26,3-.26.35-.38.42-.68,0-.7-1-1.45-1.9-2.18-2.84-.05-.32.19-.2.31-.2.71,0,1.43,0,2.14,0l.16-.1a15.46,15.46,0,0,1,2.15,0C15.73,24.58,15.88,24.6,16,24.77Z"/><path class="cls-1" d="M21.5,17.68l1.8,3H19.23c-.09,0-.13,0-.16-.08a.33.33,0,0,1,.08-.27c.68-.84,1.28-1.74,2-2.57a.76.76,0,0,1,.19-.12A.24.24,0,0,1,21.5,17.68Z"/><path class="cls-1" d="M5.13,17.6h.25a1,1,0,0,1,.16.12c.58.76,1.15,1.53,1.74,2.27a1.19,1.19,0,0,1,.31.56.34.34,0,0,1-.06.12H3.38c.55-.92,1.06-1.77,1.56-2.63C5,17.9,5.15,17.78,5.13,17.6Z"/><path class="cls-1" d="M21.5,17.68h-.19c-1.1.08-2.2,0-3.3,0a.49.49,0,0,1-.41-.15c-.09-.23.07-.39.17-.57.21-.38.43-.76.65-1.13s.48-.8.73-1.2c.1-.16.2-.34.45-.3a2.9,2.9,0,0,1,.63.92,19.87,19.87,0,0,1,1.26,2.2v.11A.08.08,0,0,1,21.5,17.68Z"/><path class="cls-1" d="M21.69,10.65l-.1.12a.21.21,0,0,1-.27,0c-.54-.75-1.13-1.47-1.68-2.22a1.2,1.2,0,0,1-.29-.5.21.21,0,0,1,0-.13l.08-.09c.14.17.34.08.5.09h3.34Z"/><path class="cls-1" d="M5.16,10.76a.19.19,0,0,1-.2-.1L3.36,7.87H7.22l0,0a.17.17,0,0,1,0,.12,1.39,1.39,0,0,1-.39.67l-1.49,2C5.34,10.75,5.26,10.81,5.16,10.76Z"/><path class="cls-1" d="M19.11,20.57l.12.1,0,.18-.22-.1a14,14,0,0,1-3.17,0,.22.22,0,0,1-.05-.31,19.11,19.11,0,0,1,1.64-2.65.23.23,0,0,1,.14,0A17.46,17.46,0,0,1,19.11,20.57Z"/><path class="cls-1" d="M7.53,20.67v-.11a16.84,16.84,0,0,1,1.67-2.8.23.23,0,0,1,.14,0c.57.82,1,1.71,1.54,2.56a.31.31,0,0,1,0,.23c-.1.2-.29.12-.44.12H8.18c-.16,0-.33-.06-.47.07H7.52A.08.08,0,0,1,7.53,20.67Z"/><path class="cls-2" d="M64.29,5.09h7.32c.37,0,.47.09.46.46,0,1.23,0,2.47,0,3.71,0,.17.17.5-.18.49s-.74.24-1-.32A7.45,7.45,0,0,0,69.5,7.24a2.61,2.61,0,0,0-2-.94c-1.25,0-2.5,0-3.75-.07-.32,0-.42.08-.42.41q0,3,0,5.94c0,.29.06.41.38.39.62,0,1.25,0,1.88,0a2.28,2.28,0,0,0,2.15-1.46,5.23,5.23,0,0,0,.41-1.21c0-.22.13-.29.36-.3.66,0,.66,0,.66.65,0,2.08,0,4.15,0,6.23,0,.16.14.47-.2.43s-.71.27-.82-.32a8.2,8.2,0,0,0-.33-1,2.44,2.44,0,0,0-2.55-1.77c-.53,0-1,0-1.58,0-.25,0-.35.06-.34.33,0,1.8,0,3.6,0,5.39a1.17,1.17,0,0,0,1,1.29,12.2,12.2,0,0,0,1.2.26c.51.11.19.5.26.76s-.15.26-.34.26H56.81c-.21,0-.43,0-.35-.3s-.25-.66.3-.72c.31,0,.62-.06.93-.12,1-.19,1.31-.52,1.31-1.56v-12a1.21,1.21,0,0,0-.93-1.3,5.22,5.22,0,0,0-1.24-.3c-.6-.07-.34-.53-.37-.83s.28-.25.46-.25Z"/><path class="cls-2" d="M82.55,22.44H75c-.19,0-.52.13-.46-.28s-.22-.73.39-.75a5,5,0,0,0,.93-.13c.93-.16,1.22-.51,1.22-1.47V7.88a1.26,1.26,0,0,0-1-1.46,9.28,9.28,0,0,0-.91-.22c-.58-.1-.75-.36-.6-.94.08-.28.29-.17.45-.17h8.7c.21,0,.49-.06.41.29s.26.7-.33.75a9.51,9.51,0,0,0-1.07.16c-1,.18-1.26.51-1.26,1.5,0,3.17,0,6.33,0,9.5a19.28,19.28,0,0,0,0,2.52c.13,1,.48,1.38,1.47,1.43a16.3,16.3,0,0,0,3.56-.09,2.08,2.08,0,0,0,1.38-.77,12.41,12.41,0,0,0,1.81-3.05c.21-.5.53-.48.93-.47.17,0,.22.06.21.24-.11,1.71-.21,3.42-.31,5.13,0,.34-.29.2-.45.2Z"/><path class="cls-2" d="M48.75,22.44H44.3c-.2,0-.48.07-.41-.29s-.25-.7.34-.73a7.61,7.61,0,0,0,1.18-.11,1.18,1.18,0,0,0,1.12-1.37c0-2.22,0-4.45,0-6.67V7.87a1.28,1.28,0,0,0-1.11-1.46,9.59,9.59,0,0,0-1-.21c-.57-.11-.75-.4-.59-1,.08-.27.3-.16.45-.16h8.86c.23,0,.43,0,.34.31s.28.67-.28.73-.85.11-1.27.2a1.12,1.12,0,0,0-1.06,1.3c0,1.07,0,2.15,0,3.22v8.85a1.32,1.32,0,0,0,1.24,1.55,7,7,0,0,0,1,.17c.28,0,.37.11.39.41,0,.47-.07.65-.6.63C51.56,22.41,50.16,22.44,48.75,22.44Z"/><path class="cls-2" d="M36.28,22.44H31.83c-.2,0-.48.07-.41-.29s-.25-.7.34-.73A7.23,7.23,0,0,0,33,21.29,1.14,1.14,0,0,0,34.06,20c0-1.68,0-3.36,0-5q0-3.5,0-7c0-1-.24-1.32-1.2-1.58a10,10,0,0,0-1.06-.22c-.31,0-.38-.18-.4-.48,0-.51.13-.62.62-.62,2.85,0,5.71,0,8.56,0,.19,0,.53-.15.48.27s.26.76-.39.79a5.26,5.26,0,0,0-1.46.25,1,1,0,0,0-.72.79,3.89,3.89,0,0,0-.08.83V19.45c0,1.27.25,1.58,1.51,1.83a7,7,0,0,0,.78.13c.28,0,.37.11.39.41,0,.47-.06.65-.6.63C39.09,22.41,37.68,22.44,36.28,22.44Z"/><path class="cls-1" d="M7.13,14.42c0-.1,0-.18-.06-.27C6.43,13.09,5.79,12,5.16,11v-.19l.19-.1a.69.69,0,0,1,.5-.15c1.07,0,2.13,0,3.19,0,.34.06.34.26.21.51a10.52,10.52,0,0,1-.62,1l-.15.25c-.41.71-.78,1.45-1.26,2.12Z"/><path class="cls-1" d="M13.27,3.93h.11a.7.7,0,0,1,.27.27c.63,1.07,1.3,2.12,1.9,3.21.09.16.25.33,0,.52a24.48,24.48,0,0,1-4.53,0L11,7.89l2-3.44A1.34,1.34,0,0,0,13.27,3.93Z"/><path class="cls-1" d="M7.24,8V7.9l.16-.1c.13.16.31.08.46.09H11A.13.13,0,0,1,11,8,17.93,17.93,0,0,1,9.43,10.6a.3.3,0,0,1-.21,0A27.7,27.7,0,0,1,7.24,8Z"/><path class="cls-1" d="M15.74,7.87H19.4V8a3.09,3.09,0,0,1-.66,1,13.15,13.15,0,0,1-1.33,1.65.26.26,0,0,1-.21,0A18.11,18.11,0,0,1,15.69,8,.21.21,0,0,1,15.74,7.87Z"/><path class="cls-1" d="M13.38,24.71h-.11a9.33,9.33,0,0,0-.87-1.58c-.43-.76-.87-1.51-1.31-2.27.05-.31.31-.23.5-.24.57,0,1.14,0,1.71,0a7.25,7.25,0,0,1,2.23,0,.24.24,0,0,1,.13.39A31.88,31.88,0,0,1,13.38,24.71Z"/><path class="cls-1" d="M11,20.66h2.34l-1.76-3a15.62,15.62,0,0,1,1.68-.11.42.42,0,0,1,.14-.09,6.64,6.64,0,0,1,1.26,0,.46.46,0,0,1,.43.18.42.42,0,0,1,0,.33,31.63,31.63,0,0,1-1.62,2.76c-.61.08-1.22,0-1.83,0-.17,0-.37-.07-.51.1A.2.2,0,0,1,11,20.66Z"/><path class="cls-1" d="M21.59,10.94a21.75,21.75,0,0,0-1.38,2.19c-.21.33-.4.67-.6,1s-.35,0-.43-.17c-.33-.54-.68-1.07-1-1.63,0-.07-.07-.13-.1-.19-.25-.38-.48-.77-.71-1.16-.14-.24-.08-.39.2-.45,1.1-.08,2.2,0,3.31,0a1.1,1.1,0,0,1,.47.13.23.23,0,0,0,.21.13Z"/><path class="cls-1" d="M9.32,13.8a12.24,12.24,0,0,0-.9-1.57l.07-.18a7.63,7.63,0,0,1,1.91,0c.26.14.14.33,0,.49-.23.39-.49.77-.75,1.14C9.58,13.77,9.52,14,9.32,13.8Z"/><path class="cls-1" d="M10.33,15.9A4,4,0,0,0,9,15.81c-.28,0-.55,0-.83,0l1.19-1.88c.26-.13.32.1.4.23.3.45.55.94.83,1.4a.26.26,0,0,1,0,.21A.18.18,0,0,1,10.33,15.9Z"/><path class="cls-1" d="M15.05,15.8l-1.66,1.78h-.13l-1.58-1.67c.05-.28.28-.23.46-.24.36,0,.72,0,1.07,0h.18a14.16,14.16,0,0,1,1.59.11Z"/><path class="cls-1" d="M10.33,15.9l.17-.09a.1.1,0,0,1,.07.09l.83,1.39c.11.19.16.34-.16.33l-1.91,0Z"/><path class="cls-1" d="M10.57,15.9l-.07-.09V15.6c.08-.24.29-.42.31-.69h.06c.16.35.54.54.72.89C11.25,15.86,10.89,15.7,10.57,15.9Z"/><path class="cls-1" d="M16.24,12.15a14.39,14.39,0,0,0,2,0l.1.12a5.83,5.83,0,0,0-1,1.67.11.11,0,0,1-.12,0c-.1-.11-.15-.26-.24-.37-.24-.45-.69-.78-.74-1.33Z"/><path class="cls-1" d="M17.26,13.93h0a13,13,0,0,1,1.22,1.89H16.36a.18.18,0,0,1-.24,0H15.06c0-.44.4-.61.69-.83.05,0,.11,0,.14,0,.33.46.48.18.68-.14S16.85,14.11,17.26,13.93Z"/><path class="cls-1" d="M16.12,15.81h.24a10.78,10.78,0,0,0,1,1.68c-.12.22-.33.12-.49.12-.54,0-1.08,0-1.7,0Z"/><path class="cls-1" d="M10.6,12.08h-.1a12.55,12.55,0,0,1-1.09-1.43H11.5a.27.27,0,0,1,0,.35C11.17,11.36,11.07,11.87,10.6,12.08Z"/><path class="cls-1" d="M9.6,13.63h2a8.16,8.16,0,0,1-.72,1.29h-.06Z"/><path class="cls-1" d="M13.28,15.71c-.55-.68-1.1-1.36-1.59-2.08l.07-.06a16.89,16.89,0,0,1,3.1-.06.47.47,0,0,1,.15.06.15.15,0,0,1,.08.12c-.44.67-1,1.27-1.45,1.91a.24.24,0,0,1-.25.11Z"/><path class="cls-1" d="M11.59,13.63a6.83,6.83,0,0,0-.77-1.08c-.09-.14-.22-.24-.22-.42a3.57,3.57,0,0,1,1.75-.08.3.3,0,0,1,.13.09,2.7,2.7,0,0,1-.8,1.49h-.09Z"/><path class="cls-1" d="M13.57,8.17l1.58,2.5a.18.18,0,0,0-.07.05,6.77,6.77,0,0,1-1.68.08h-.19a11.42,11.42,0,0,1-1.17,0c-.18,0-.41,0-.48-.23.54-.8,1.09-1.59,1.61-2.4C13.34,7.89,13.44,8,13.57,8.17Z"/><path class="cls-1" d="M17.23,10.65a6.44,6.44,0,0,1-.73,1.06c-.09.15-.28.24-.26.44h0a.13.13,0,0,1-.13,0,.4.4,0,0,1-.16-.13c-.25-.32-.46-.66-.69-1-.07-.12-.2-.23-.12-.39h0Z"/><path class="cls-1" d="M17,13.6a3.53,3.53,0,0,1-1.29,1.31,6.59,6.59,0,0,0-.7-1.2v-.06Z"/><path class="cls-1" d="M13.38,10.67l.79,1.48h-1.7a8.5,8.5,0,0,0,.79-1.49Z"/><path class="cls-1" d="M14.26,12.34c0-.29.27-.14.42-.17.47-.07,1,.14,1.41-.12h0a5.78,5.78,0,0,1-1.06,1.49C14.7,13.21,14.58,12.71,14.26,12.34Z"/></g></g></svg>