<svg xmlns="http://www.w3.org/2000/svg" viewBox="0 0 164 47.7"><defs><style>.cls-1{fill:#fff;}</style></defs><title>Asset 68</title><g id="Layer_2" data-name="Layer 2"><g id="Layer_1-2" data-name="Layer 1"><path class="cls-1" d="M108.31,14.37a5.28,5.28,0,0,1,4-2.08,4.09,4.09,0,0,1,3.89,2.11,8.24,8.24,0,0,1,1.32-1.26,4.77,4.77,0,0,1,6.36.76,4.41,4.41,0,0,1,.75,2.57c0,2.77,0,5.55,0,8.32a1.74,1.74,0,0,1-2.22,1.84,1.81,1.81,0,0,1-1.3-1.88c0-1.7,0-3.39,0-5.09,0-.94,0-1.88-.08-2.82a1.8,1.8,0,0,0-2.82-1.54,3.07,3.07,0,0,0-1.53,2.82c-.13,2.05,0,4.1-.07,6.14a4,4,0,0,1-.12,1.2,1.69,1.69,0,0,1-1.65,1.24,1.65,1.65,0,0,1-1.63-1.25,4.07,4.07,0,0,1-.14-1.15c0-2.22,0-4.43,0-6.65a4.69,4.69,0,0,0-.19-1.49A1.48,1.48,0,0,0,111.35,15a2.21,2.21,0,0,0-2.5,1.9,9.61,9.61,0,0,0-.29,2.45c0,1.69,0,3.39,0,5.08a3.17,3.17,0,0,1-.18,1.14,1.65,1.65,0,0,1-1.54,1.1,1.69,1.69,0,0,1-1.6-1,2.81,2.81,0,0,1-.21-1.08c0-3.47,0-6.95,0-10.43,0-1.32.79-2.06,1.92-1.87a1.55,1.55,0,0,1,1.31,1.34C108.28,13.84,108.29,14.06,108.31,14.37Z"/><path class="cls-1" d="M10.54,30.91l6.22,6.24A7.38,7.38,0,0,1,14,41.06a30.05,30.05,0,0,1-7.13,4.09c-1.73.77-3.48,1.49-5.23,2.22a3.77,3.77,0,0,1-1.1.32c-.41,0-.57-.16-.51-.54a2.44,2.44,0,0,1,.14-.53A83.69,83.69,0,0,1,4.86,36.23a14.51,14.51,0,0,1,3.28-4.11A5.42,5.42,0,0,1,10.54,30.91Z"/><path class="cls-1" d="M155.2,14.38a9.53,9.53,0,0,1,1.12-1.1c1.91-1.58,6.24-1.69,7.41,2a5.34,5.34,0,0,1,.25,1.48c0,2.69,0,5.37,0,8.06a1.7,1.7,0,0,1-2.14,1.81,1.46,1.46,0,0,1-1.16-1.19,4,4,0,0,1-.11-1v-6.1a7.45,7.45,0,0,0-.18-1.55c-.29-1.38-1.15-2-2.84-1.66a3,3,0,0,0-2.23,2.58,16.88,16.88,0,0,0-.11,2.46c0,1.41,0,2.83,0,4.24a5.47,5.47,0,0,1-.08.9,1.62,1.62,0,0,1-1.74,1.41,1.56,1.56,0,0,1-1.58-1.51,7.31,7.31,0,0,1,0-.81q0-7.53,0-15.06a3.75,3.75,0,0,1,.11-1.15A1.53,1.53,0,0,1,153.43,7a1.57,1.57,0,0,1,1.63,1.16,3.63,3.63,0,0,1,.15,1.09c0,1.51,0,3,0,4.53Z"/><path class="cls-1" d="M83.24,24.27a9.06,9.06,0,0,1-1.42,1.42,5.2,5.2,0,0,1-6,.06,3.89,3.89,0,0,1-1.53-3.2c-.07-2.86,0-5.71,0-8.57a1.61,1.61,0,0,1,1.64-1.74,1.65,1.65,0,0,1,1.7,1.58,5.46,5.46,0,0,1,.07.9c0,2,0,4.1,0,6.15a4.68,4.68,0,0,0,.19,1.29A2.16,2.16,0,0,0,81,23.7,3,3,0,0,0,83,21c.18-2.08.06-4.16.1-6.24,0-.25,0-.51,0-.76a1.71,1.71,0,1,1,3.41,0c0,.14,0,.27,0,.4V24.57a3.38,3.38,0,0,1-.11.95A1.51,1.51,0,0,1,85,26.69a1.54,1.54,0,0,1-1.5-.91A3.39,3.39,0,0,1,83.24,24.27Z"/><path class="cls-1" d="M65.29,26.65c-2.44,0-4.35-.68-5.7-2.57a6.81,6.81,0,0,1-1.19-3.33A8.59,8.59,0,0,1,59.58,15a6.06,6.06,0,0,1,4.51-2.7,7.34,7.34,0,0,1,4.67.83A4.5,4.5,0,0,1,71.11,16a1.52,1.52,0,0,1-1.63,1.93,1.17,1.17,0,0,1-.79-.38,15,15,0,0,1-1-1.28,3.08,3.08,0,0,0-5.32.53,6.12,6.12,0,0,0,0,5.41,3.19,3.19,0,0,0,5.56.46c.27-.37.48-.77.74-1.14a1.37,1.37,0,0,1,1.78-.62,1.65,1.65,0,0,1,.89,1.8A4.77,4.77,0,0,1,68.42,26,7,7,0,0,1,65.29,26.65Z"/><path class="cls-1" d="M143.26,19.7c0-1.48,0-2.7,0-3.93,0-.46-.05-.67-.61-.66a1.23,1.23,0,0,1-1.36-1.33,1.24,1.24,0,0,1,1.37-1.18c.48,0,.62-.14.6-.63,0-.94,0-1.88,0-2.82a1.63,1.63,0,0,1,1.62-1.7,1.67,1.67,0,0,1,1.72,1.66,27.67,27.67,0,0,1,.06,3c0,.35.09.48.45.46a6.86,6.86,0,0,1,1.11,0,1.21,1.21,0,0,1,1.19,1.14,1.15,1.15,0,0,1-1,1.28,4.07,4.07,0,0,1-1.3.11c-.31,0-.44.06-.43.41,0,2.26,0,4.53,0,6.8a4.12,4.12,0,0,0,0,.7.93.93,0,0,0,1.08.88,9.87,9.87,0,0,0,1.2-.16,1.16,1.16,0,0,1,1.39.62,1.33,1.33,0,0,1-.38,1.59,3,3,0,0,1-1.43.58,7.51,7.51,0,0,1-3,0,2.69,2.69,0,0,1-2.27-2.43A31,31,0,0,1,143.26,19.7Z"/><path class="cls-1" d="M60.36,35.88c1.15-.91,1.85-.86,2.53.24a1.67,1.67,0,0,1,1.63-.86,1.36,1.36,0,0,1,1.39,1.21A23,23,0,0,1,66,39.69c0,.37-.3.21-.48.24s-.38,0-.38-.32q0-1.34,0-2.67c0-.76-.35-1.09-1-1a1,1,0,0,0-.91,1c0,.87,0,1.75,0,2.62,0,.3-.07.42-.39.41s-.45-.06-.44-.41c0-.86,0-1.72,0-2.57,0-.4-.08-.83-.53-1a1.14,1.14,0,0,0-1.21.29.7.7,0,0,0-.23.58c0,.89,0,1.78,0,2.67,0,.3-.05.44-.4.44s-.45-.13-.44-.46c0-1.23,0-2.46,0-3.68,0-.2-.15-.49.27-.51s.47.17.47.48C60.29,35.79,60.32,35.82,60.36,35.88Z"/><path class="cls-1" d="M144,35.89c1.18-.92,1.87-.87,2.54.24a1.66,1.66,0,0,1,1.63-.87,1.38,1.38,0,0,1,1.4,1.2,24.73,24.73,0,0,1,.07,3.22c0,.38-.3.22-.48.25s-.39,0-.38-.31q0-1.34,0-2.67c0-.75-.33-1.07-1-1.05a.94.94,0,0,0-1,1c0,.87,0,1.74,0,2.62,0,.29-.06.42-.38.41s-.46,0-.45-.41c0-.85,0-1.71,0-2.57,0-.4-.08-.83-.53-1a1.16,1.16,0,0,0-1.21.28.7.7,0,0,0-.24.58c0,.91,0,1.81,0,2.72,0,.31-.08.41-.39.4s-.45,0-.45-.41c0-1.26,0-2.52,0-3.78,0-.18-.11-.45.27-.46s.48.1.47.42C143.94,35.76,144,35.8,144,35.89Z"/><path class="cls-1" d="M160.06,35.9a2.45,2.45,0,0,1,1.49-.64,1.45,1.45,0,0,1,1.61,1.43c.06,1,0,2,0,3,0,.39-.27.24-.46.27s-.37,0-.36-.32c0-.81,0-1.62,0-2.42,0-.5,0-1-.59-1.23a1.53,1.53,0,0,0-1.56.43.66.66,0,0,0-.15.51c0,.86,0,1.72,0,2.57,0,.33,0,.48-.43.47s-.41-.13-.41-.44q0-2.89,0-5.79c0-.34.07-.47.44-.47s.4.16.4.46C160.06,34.4,160.06,35.1,160.06,35.9Z"/><path class="cls-1" d="M95.17,35.47c-.55.51-1.1,1-1.67,1.51-.27.24-.31.41,0,.71.6.69,1.16,1.43,1.77,2.19A1.06,1.06,0,0,1,94,39.51c-.36-.52-.8-1-1.2-1.49-.15-.19-.32-.38-.58-.29s-.13.34-.14.52c0,.46,0,.91,0,1.36s-.2.32-.43.32-.42,0-.41-.32c0-2,0-4,0-6,0-.34.19-.32.42-.32s.42,0,.42.33c0,1,0,2.05,0,3.07,0,.15-.1.37.12.44s.35-.05.48-.19a12.23,12.23,0,0,0,1.12-1.16A1.18,1.18,0,0,1,95,35.32Z"/><path class="cls-1" d="M76.07,39.87a1.08,1.08,0,0,1-1.34-.47c-.36-.51-.78-1-1.17-1.45a.49.49,0,0,0-.52-.23c-.26.08-.14.31-.14.48,0,.47,0,.94,0,1.41s-.18.33-.41.32-.43,0-.43-.31c0-2,0-4,0-6,0-.33.19-.33.42-.32s.43,0,.42.33c0,1,0,2.08,0,3.12,0,.14-.07.32.12.39a.42.42,0,0,0,.45-.15,16.23,16.23,0,0,0,1.16-1.19,1.15,1.15,0,0,1,1.26-.43l.15.15c-.56.51-1.1,1-1.68,1.5-.33.27-.28.46,0,.75C74.92,38.41,75.47,39.13,76.07,39.87Z"/><path class="cls-1" d="M80.12,35.93a2.23,2.23,0,0,1,1.61-.67,1.46,1.46,0,0,1,1.5,1.5c0,1,0,1.92,0,2.87,0,.32-.17.31-.38.3s-.45.08-.45-.29c0-.82,0-1.65,0-2.47,0-.5-.05-1-.61-1.22a1.58,1.58,0,0,0-1.56.46.68.68,0,0,0-.13.51c0,.88,0,1.75,0,2.62,0,.32-.1.4-.4.4s-.45-.06-.45-.41c0-1.24,0-2.49,0-3.73,0-.19-.15-.49.27-.51s.47.16.47.48C80.05,35.8,80.07,35.83,80.12,35.93Z"/><path class="cls-1" d="M104.75,40a2.09,2.09,0,0,1-1.07-.33c-.15-.1-.45-.16-.26-.48s.35-.25.59-.1a1.59,1.59,0,0,0,1,.27c.43,0,.81-.19.87-.67s-.29-.59-.63-.72-.61-.18-.91-.3c-.63-.23-.92-.6-.92-1.11a1.26,1.26,0,0,1,1-1.22,2.24,2.24,0,0,1,1.84.17c.16.09.42.15.27.44s-.32.25-.54.12a1.54,1.54,0,0,0-1-.2.72.72,0,0,0-.7.56c-.08.38.21.53.5.65s.73.24,1.09.38a1.1,1.1,0,0,1,.84,1,1.34,1.34,0,0,1-.76,1.31A2.32,2.32,0,0,1,104.75,40Z"/><path class="cls-1" d="M129.48,40c-.88,0-1.29-.37-1.3-1.13s0-1.65,0-2.47c0-.3-.05-.49-.41-.43-.2,0-.36,0-.37-.29s.17-.28.32-.27c.39,0,.52-.19.52-.55a6,6,0,0,1,.1-.74c0-.26.14-.39.42-.37s.23.23.24.4c0,.37-.1.81.07,1.08s.65.08,1,.1.28.12.28.32,0,.34-.27.32h0c-.32,0-.76-.15-1,.09s-.05.67-.06,1c0,.54,0,1.08,0,1.61s.31.82.84.58c.26-.11.4-.08.52.16s-.14.34-.29.4A3.6,3.6,0,0,1,129.48,40Z"/><path class="cls-1" d="M138.26,37.65c0-.42,0-.84,0-1.25s-.08-.44-.39-.4-.37,0-.39-.27.15-.3.31-.29c.41,0,.53-.21.54-.58s.08-.53.11-.8.17-.28.39-.28.25.16.25.33v.2c0,1,0,1,1,1,.26,0,.34.1.34.36s-.15.27-.35.28c-1,0-1,0-1,1,0,.57,0,1.14,0,1.71s.32.78.82.55c.3-.14.45-.08.55.19s-.18.31-.33.38a1.66,1.66,0,0,1-1.22.06.9.9,0,0,1-.63-.88c0-.47,0-.94,0-1.41Z"/><path class="cls-1" d="M156,37.68v-1c0-.39.12-.86-.57-.74-.16,0-.2-.14-.21-.28s0-.25.18-.24c.81,0,.63-.62.73-1.08.06-.25,0-.62.41-.61.18,0,.29,0,.28.25a1.33,1.33,0,0,0,0,.2c0,.36-.1.78.07,1s.62.08,1,.1.32.09.32.33-.09.31-.32.32-.78-.17-1,.08-.07.68-.07,1c0,.54,0,1.07,0,1.61s.31.81.85.57c.27-.12.39-.07.51.17s-.15.33-.3.39A1.64,1.64,0,0,1,157,40a1,1,0,0,1-1-1V37.68Z"/><path class="cls-1" d="M115.25,36.1a1.55,1.55,0,0,1,1.52-.84c.28,0,.5.06.45.44s-.15.46-.53.37a1.22,1.22,0,0,0-1.48,1.22q0,1.08,0,2.16c0,.3,0,.5-.4.5s-.44-.14-.44-.48c0-1.24,0-2.48,0-3.72,0-.22-.07-.47.32-.47s.42.19.42.48C115.12,35.87,115.09,36,115.25,36.1Z"/><path class="cls-1" d="M97,37.66c0,.62,0,1.24,0,1.86,0,.34-.1.43-.42.42s-.42-.07-.41-.39q0-1.94,0-3.87c0-.33.11-.39.41-.4s.44.08.42.42C96.94,36.35,97,37,97,37.66Z"/><path class="cls-1" d="M77.8,37.66c0,.62,0,1.24,0,1.86,0,.34-.1.43-.43.42s-.41-.07-.4-.39c0-1.29,0-2.58,0-3.87,0-.38.17-.38.45-.39s.39.13.38.41C77.79,36.35,77.8,37,77.8,37.66Z"/><path class="cls-1" d="M96.54,34.42a.56.56,0,0,1-.58-.56.59.59,0,1,1,1.17,0A.56.56,0,0,1,96.54,34.42Z"/><path class="cls-1" d="M77.36,33.24c.42,0,.62.26.62.59a.59.59,0,0,1-1.17,0A.55.55,0,0,1,77.36,33.24Z"/><path class="cls-1" d="M44.17.07a7.55,7.55,0,0,0-2.55.1,31.1,31.1,0,0,0-6.7,2.26,26,26,0,0,0-11.49,9,55.33,55.33,0,0,1-4.19,5.79c-.2.21-.33.29-.62.15a16.93,16.93,0,0,0-5.84-1.6,7,7,0,0,0-6,2.21L2.68,22.5A19.59,19.59,0,0,0,.64,25a2,2,0,0,0,1.15,3.06,2.55,2.55,0,0,0,1.76-.18,37,37,0,0,0,3.73-2,3.85,3.85,0,0,1,3.48-.17c.43.18.47.34.26.75-.85,1.67-.78,2,.49,3.41l0,0c0,.19.17.29.28.4l5.58,5.58a.69.69,0,0,0,.36.26,1.87,1.87,0,0,0,2.32.22c.33-.17.65-.34,1-.53.16-.09.28-.14.4.08a5.09,5.09,0,0,1,.81,3,5.92,5.92,0,0,1-1,2.34,17.83,17.83,0,0,0-1.62,3.24A2.14,2.14,0,0,0,20.36,47a2,2,0,0,0,2.55-.12c.18-.13.37-.25.53-.39,1.95-1.75,3.87-3.54,5.86-5.23,2.31-2,2.88-4.46,2.48-7.31a18,18,0,0,0-1.85-5.56.48.48,0,0,1,.13-.7c1.49-1.3,3.17-2.32,4.77-3.46A26.33,26.33,0,0,0,41,18.52,37.88,37.88,0,0,0,46.35,7.67a12.46,12.46,0,0,0,.71-4.24A3.14,3.14,0,0,0,44.17.07ZM33.78,17.55A4.23,4.23,0,1,1,38,13.34,4.27,4.27,0,0,1,33.78,17.55Z"/><path class="cls-1" d="M140.36,24.56a10.92,10.92,0,0,1-.52-3.77,35.58,35.58,0,0,0,0-4.38c-.18-2.13-1.15-3.4-3.05-3.88a11.47,11.47,0,0,0-3.6-.28,6.9,6.9,0,0,0-3.7,1.15,3.22,3.22,0,0,0-1.54,2.73,1.33,1.33,0,0,0,1,1.27,1.2,1.2,0,0,0,1.47-.54l.5-.76A2.83,2.83,0,0,1,133,14.75a7.22,7.22,0,0,1,1.61,0,1.71,1.71,0,0,1,1.65,1.44c.06.26.1.52.16.78s0,.49-.37.57c-.54.12-1.06.29-1.6.42-1.45.34-2.93.6-4.36,1a3.75,3.75,0,0,0-2.84,4,3.89,3.89,0,0,0,3.13,3.6,6.36,6.36,0,0,0,4.48-.63,14.11,14.11,0,0,0,1.81-1.19c.19.28.34.53.52.77a6.28,6.28,0,0,0,.62.73,1.53,1.53,0,0,0,2.51-1.65Zm-4.06-2.62c-.39,1.9-2.73,2.76-4.26,2.27a1.89,1.89,0,0,1-1.31-1.79,1.79,1.79,0,0,1,1.37-1.72,13.87,13.87,0,0,1,1.41-.36c1-.24,2-.43,3-.77A9.65,9.65,0,0,1,136.3,21.94Z"/><path class="cls-1" d="M93.15,20.35c1.1,0,2.21,0,3.55,0,1.11-.05,2.46.08,3.8-.08,1.11-.14,1.72-.63,1.79-1.56a5.72,5.72,0,0,0-2.16-5.12A6.75,6.75,0,0,0,94,12.49,5.61,5.61,0,0,0,89.92,16a9.13,9.13,0,0,0-.09,6.74,5.81,5.81,0,0,0,2.33,2.89,8.06,8.06,0,0,0,8.19-.09A4,4,0,0,0,102,23.47a1.21,1.21,0,0,0-.4-1.49,1.32,1.32,0,0,0-1.61.22c-.41.38-.81.76-1.23,1.12a3.72,3.72,0,0,1-3.32.93,3.54,3.54,0,0,1-2.67-3.53C92.78,20.42,92.86,20.35,93.15,20.35Zm-.33-2.3A3.51,3.51,0,0,1,95,14.83a3,3,0,0,1,3.85,2.45c.24,1.06.24,1.06-.85,1.06H93.21C93,18.34,92.78,18.38,92.82,18.05Z"/><path class="cls-1" d="M112.75,39.22a4.1,4.1,0,0,0-1.35-.12,2.2,2.2,0,0,1-.84-.12c-.16-.07-.29-.18-.23-.38a.38.38,0,0,1,.34-.33c.09,0,.19,0,.29,0,1.32.1,2.31-.64,2-1.92-.06-.23,0-.27.21-.28s.46,0,.42-.36-.28-.16-.44-.18a2.29,2.29,0,0,1-.94-.1,2.22,2.22,0,0,0-1.13-.21,1.6,1.6,0,0,0-1.54,1,1.53,1.53,0,0,0,.58,1.8c-.64.65-.65.66-.26,1.36.13.23-.08.21-.16.27a.94.94,0,0,0,.11,1.72,3,3,0,0,0,1.91.29,2,2,0,0,0,1.66-1.05A1,1,0,0,0,112.75,39.22Zm-1.52-3.32c.66,0,1,.34,1,.94a.93.93,0,0,1-1,1,1,1,0,0,1-1-1A.92.92,0,0,1,111.23,35.9Zm1,5a1.89,1.89,0,0,1-1,.2,1.81,1.81,0,0,1-.92-.18.58.58,0,0,1-.37-.69.65.65,0,0,1,.59-.55,10.61,10.61,0,0,1,1.59.1c.26,0,.54.11.57.46A.66.66,0,0,1,112.26,40.91Z"/><path class="cls-1" d="M87.16,39.12c-.47,0-.94,0-1.41-.06-.24,0-.59-.08-.52-.46s.33-.32.63-.3c1.32.12,2.31-.64,2-1.91-.06-.23,0-.28.21-.28s.46,0,.42-.36-.28-.16-.44-.18a2.29,2.29,0,0,1-.94-.1A2.22,2.22,0,0,0,86,35.26a1.6,1.6,0,0,0-1.54,1,1.52,1.52,0,0,0,.59,1.8c-.65.65-.65.66-.27,1.36.13.23-.08.21-.16.27a.93.93,0,0,0,.07,1.69,3,3,0,0,0,3-.06,1.37,1.37,0,0,0,.68-1.41C88.26,39.46,87.84,39.17,87.16,39.12ZM86.07,35.9c.7,0,1.09.32,1.1.93a.93.93,0,0,1-1,1,1,1,0,0,1-1.06-1A.91.91,0,0,1,86.07,35.9Zm1.12,5a2,2,0,0,1-1,.21,1.94,1.94,0,0,1-1-.19.57.57,0,0,1-.34-.7.64.64,0,0,1,.59-.53,10.74,10.74,0,0,1,1.6.1c.24,0,.5.11.54.43A.62.62,0,0,1,87.19,40.9Z"/><path class="cls-1" d="M102.29,39.43c0-1.92,0-3.83,0-5.75,0-.31-.06-.45-.41-.44s-.44.12-.43.44c0,.66,0,1.32,0,2-1.29-.69-2.36-.54-3,.43a3,3,0,0,0,0,3.11,1.42,1.42,0,0,0,1.21.72,2.06,2.06,0,0,0,1.75-.71,1.39,1.39,0,0,1,.05.23c0,.3.14.48.51.46S102.29,39.62,102.29,39.43Zm-.82-1.29a1.15,1.15,0,0,1-1,1.18,1.08,1.08,0,0,1-1.36-.87,3,3,0,0,1,0-1.54,1.3,1.3,0,0,1,1.61-1,.9.9,0,0,1,.8,1v1.25Z"/><path class="cls-1" d="M119,37.61c.44,0,.87,0,1.31,0h1.36c.26,0,.35-.11.36-.36a1.87,1.87,0,0,0-1.73-2,2.14,2.14,0,0,0-2.44,2.47,2.07,2.07,0,0,0,1.19,2,2.64,2.64,0,0,0,2.63-.23c.13-.08.33-.17.17-.39a.35.35,0,0,0-.51-.14,3.32,3.32,0,0,1-.64.29,1.48,1.48,0,0,1-2-1.3C118.7,37.73,118.74,37.59,119,37.61Zm-.18-1a1.26,1.26,0,0,1,1.39-.75,1,1,0,0,1,1,.77c.1.29.09.48-.31.44s-.6,0-.9,0-.61,0-.91,0C118.67,37.16,118.72,36.94,118.85,36.65Z"/><path class="cls-1" d="M136.69,39.5c0-.92,0-1.85,0-2.77a1.42,1.42,0,0,0-1.09-1.41,2.57,2.57,0,0,0-2.11.42c-.12.09-.31.16-.18.39a.36.36,0,0,0,.52.15c.21-.1.41-.24.63-.32.85-.29,1.43.11,1.44,1,0,.27-.06.38-.36.39a5,5,0,0,0-1.58.29c-.79.31-1.12.86-.92,1.55a1.32,1.32,0,0,0,1.61.85,2.84,2.84,0,0,0,1.29-.66c0,.11.07.18.09.26,0,.28.22.35.48.32S136.69,39.66,136.69,39.5Zm-.85-1.24a.75.75,0,0,1-.48,1,1.27,1.27,0,0,1-1.25.1.65.65,0,0,1,0-1.15,2.68,2.68,0,0,1,1.54-.35C136.06,37.83,135.79,38.18,135.84,38.26Z"/><path class="cls-1" d="M126.61,39.48c0-.91,0-1.82,0-2.72a1.42,1.42,0,0,0-1.06-1.43,2.57,2.57,0,0,0-2.16.42c-.13.1-.29.19-.14.4a.33.33,0,0,0,.47.14,4.73,4.73,0,0,1,.68-.33c.83-.28,1.39.11,1.41.94,0,.29,0,.41-.38.42a4,4,0,0,0-1.93.48,1.12,1.12,0,0,0-.6,1.13,1.16,1.16,0,0,0,1,1,2.23,2.23,0,0,0,2-.64l.08.25a.37.37,0,0,0,.46.34C126.73,39.9,126.61,39.65,126.61,39.48Zm-.85-1.22a.75.75,0,0,1-.48,1,1.25,1.25,0,0,1-1.25.1.65.65,0,0,1,0-1.15,2.71,2.71,0,0,1,1.55-.35C126,37.84,125.71,38.18,125.76,38.26Z"/><path class="cls-1" d="M154.43,39.52c0-.93,0-1.85,0-2.77a1.42,1.42,0,0,0-1.07-1.42,2.51,2.51,0,0,0-2.15.43c-.12.08-.27.16-.16.36a.34.34,0,0,0,.46.18c.23-.1.44-.25.67-.33.87-.31,1.47.12,1.46,1,0,.26-.08.35-.34.36a4.83,4.83,0,0,0-1.72.34,1.2,1.2,0,0,0-.83,1.38,1.22,1.22,0,0,0,1.37,1,2.38,2.38,0,0,0,1.55-.69,1.9,1.9,0,0,1,.11.3c0,.26.22.3.45.29S154.43,39.68,154.43,39.52Zm-1.33-.3a1.25,1.25,0,0,1-1.24.1.66.66,0,0,1,0-1.18,3.23,3.23,0,0,1,1.15-.32c.41,0,.74,0,.57.51C153.74,38.81,153.44,39,153.1,39.22Z"/><path class="cls-1" d="M70.65,36.66a1.38,1.38,0,0,0-1.1-1.34,2.57,2.57,0,0,0-2.11.43c-.13.09-.29.18-.15.4a.33.33,0,0,0,.47.14c.23-.1.45-.25.68-.33a1,1,0,0,1,1.42,1c0,.29-.1.35-.37.37a4.13,4.13,0,0,0-1.94.48,1.1,1.1,0,0,0-.6,1.13,1.14,1.14,0,0,0,.94,1,2.2,2.2,0,0,0,2-.63c.06.17.1.3.15.42s.28.16.44.15.18-.16.18-.29C70.67,38.64,70.68,37.65,70.65,36.66Zm-1.33,2.57a1.23,1.23,0,0,1-1.24.08.66.66,0,0,1,0-1.18,2.94,2.94,0,0,1,1.46-.31c.27,0,.27,0,.27.6C70,38.84,69.65,39.05,69.32,39.23Z"/></g></g></svg>