<svg xmlns="http://www.w3.org/2000/svg" viewBox="0 0 387.6 98.19"><defs><style>.cls-1{fill:#fff;}</style></defs><title>Asset 67</title><g id="Layer_2" data-name="Layer 2"><g id="Layer_1-2" data-name="Layer 1"><path class="cls-1" d="M27.36,84l3.52,1.91a8.9,8.9,0,0,1,6.05,2.27l3.39,1.09c2.2-.11,4.52-1.17,6.47.8,1.27,1.55,2.47.37,3.69-.09,2.28-1.93,4.86-.86,7.35-.73l2.76-1c1.77-2,4.1-2.47,6.62-2.42a9.2,9.2,0,0,0,3.58-2.52,11.17,11.17,0,0,1,5.88-4.19l3.51-3.69c1.7-3.71,3.2-7.53,6.47-10.23a40.54,40.54,0,0,0,2-25.39c-1.17-4.69,2.75-3.74,4.7-4.68,3.1-1.5,2.65,1.55,3,3,6.17,25.83-10,51.64-35.68,58.61C37.69,103,8,88.69,1.33,60.51A49,49,0,0,1,38,1.51C44.19.06,50.29-.67,56.5.82c1.37.33,3.65.28,2.46,2.69-.92,1.88.66,5.7-3.81,5.1-8-1.08-15.84-.32-23.22,3.21-9.67,4.62-17,11.54-20.77,21.82-.4,1.2.13,2.43-.27,3.69-2.8,8.69-2.22,17.33.62,25.9a19.15,19.15,0,0,0,4.15,8.13A17.84,17.84,0,0,1,18,76.21l2.76,2.84C23.8,79.57,25.59,81.75,27.36,84Z"/><path class="cls-1" d="M371.74,51.49c0,3.58-.13,7.35,0,11.1.11,2.39-1,2.76-3,2.79s-2.55-.93-2.53-2.8c.07-7.78,0-15.55,0-23.33,0-.77-.4-1.85.67-2.2s1.48.61,2,1.22c4,4.65,8.06,9.31,12.81,14.8,0-4.81.05-8.56,0-12.31,0-2-.08-3.52,2.76-3.48,2.51,0,3.07.93,3,3.24-.12,7.49,0,15-.07,22.48,0,.91.57,2.21-.61,2.66-1.35.51-1.92-.9-2.62-1.68-3.63-4-7.18-8-10.77-12C373.1,51.59,372.81,51,371.74,51.49Z"/><path class="cls-1" d="M272.85,57.94c0,6.5-1.18,7.65-7.84,7.47-5.77-.15-10-2.81-12.36-8.08a14.62,14.62,0,0,1,2.55-15.81c4.15-4.27,9.31-4.92,14.89-4,2.23.39,1.91,1.92,1.78,3.53-.17,2.2-1.35,2.36-3.18,2-8.37-1.52-12.15,4.11-11.11,10.14a7.55,7.55,0,0,0,3,4.95c1.64,1.22,3.64,2.19,5.52,1.48s.94-3,.95-4.53c0-2.35.05-4.2,3.28-3.84,1.65.18,2.72.38,2.56,2.37C272.76,55.1,272.85,56.52,272.85,57.94Z"/><path class="cls-1" d="M64.32,2.81c.67.24,1.34.46,2,.72a48.57,48.57,0,0,1,26.3,24c.59,1.17,2.36,3.1-.34,3.61-2.12.41-4.56,4.14-6.71-.18a40.13,40.13,0,0,0-22-20.08c-1.61-.62-2.08-1.29-1.61-3.12C62.91,3.93,63.21,2.91,64.32,2.81Z"/><path class="cls-1" d="M150.44,37.35c1.13,0,2.27.06,3.39,0,2.07-.14,3.46.05,3.43,2.83s-1.23,2.88-3.38,3c-1.7.08-4.25-1.35-5,1.35-.54,2-.71,4.35,2.82,4,1.89-.16,4.3-.94,4.35,2.73s-2.15,2.95-4.18,2.9c-1.85-.05-3.18,0-3.2,2.56s1.1,3,3.3,3c2.41,0,6.19-1.59,5.57,3.54-.16,1.32-.41,2.18-1.93,2.06h-.42c-12.15,1.12-12.15,1.12-12.15-11,0-4.25.25-8.52-.08-12.74-.28-3.65,1.07-4.83,4.5-4.3A19.61,19.61,0,0,0,150.44,37.35Z"/><path class="cls-1" d="M348.49,50.88c0-3.25.17-6.51-.06-9.74-.19-2.84.52-4.2,3.65-3.84a59,59,0,0,0,6.78,0c1.82,0,3.62-.41,3.64,2.59,0,2.84-1.2,3.24-3.57,3.2-1.54,0-3.52-.91-4.61.88-1.37,2.22.22,4.44,3.14,4.45,2.19,0,4.1-.33,4,3.1s-2.2,2.62-4,2.59c-2,0-3.45,0-3.43,2.81s1.66,2.66,3.56,2.72c2.53.08,6.11-1.28,5.38,3.74-.21,1.47-.73,2-2.1,1.9a7.85,7.85,0,0,0-.84,0c-11.57.48-11.57.48-11.57-11Z"/><path class="cls-1" d="M67.21,85.83a22,22,0,0,1-6.62,2.42c0-14.14,0-28.28-.07-42.42,0-2.35.32-3.62,3.16-3.58s2.82,1.49,2.81,3.51q-.06,17.82,0,35.63C66.51,82.88,65.91,84.52,67.21,85.83Z"/><path class="cls-1" d="M238.11,53.88a53.11,53.11,0,0,1,0-5.92c.38-3.55-.41-5.69-4.61-4.92-2.32.42-2.33-1.22-2.37-2.9,0-1.84.31-2.87,2.51-2.81,4.94.13,9.88.1,14.82,0,2,0,2.33,1,2.26,2.64s.21,3.46-2.21,3c-4.49-.77-5,1.52-4.81,5.23.29,4.78,0,9.6.11,14.39.09,2.44-1.07,2.73-3.07,2.74s-2.82-.5-2.71-2.61C238.22,59.81,238.11,56.84,238.11,53.88Z"/><path class="cls-1" d="M27.36,84c-2.59-1.12-4.48-3.16-6.59-4.92,1.28-1.31.67-3,.68-4.44.06-9.9.05-19.81,0-29.72,0-2-.09-3.53,2.75-3.55s3.24,1.17,3.22,3.57C27.35,57.92,27.38,70.94,27.36,84Z"/><path class="cls-1" d="M57.83,89.21c-2.36,1.16-4.89.59-7.35.73q.06-18,.11-36c0-2-.19-3.9,2.9-4,2.94-.06,3.09,1.45,3.07,3.69q-.09,15.45,0,30.91C56.56,86.21,56,88.07,57.83,89.21Z"/><path class="cls-1" d="M76.67,79.12a13.35,13.35,0,0,1-5.88,4.19c-.09-13.42-.16-26.84-.3-40.25,0-2.13,1-2.55,2.88-2.61,2.44-.07,2.72,1.26,2.71,3.2q-.06,15.48,0,30.95C76.09,76.11,75.64,77.72,76.67,79.12Z"/><path class="cls-1" d="M36.93,88.14a12.46,12.46,0,0,1-6.05-2.27c1.15-2.72.49-5.57.52-8.35.1-9,.07-18.1,0-27.15,0-2,.46-3.12,2.81-3.12S37,48.39,37,50.4C36.94,63,36.94,75.56,36.93,88.14Z"/><path class="cls-1" d="M46.79,90c-2.15-.33-4.43.37-6.48-.8,1.17-1.35.67-3,.68-4.48q.07-12.7,0-25.42c0-2.09.16-3.47,2.88-3.44,2.45,0,3.14.87,3.1,3.22C46.83,69.41,46.84,79.72,46.79,90Z"/><path class="cls-1" d="M86.65,65.2c-1.8,3.63-3.59,7.28-6.47,10.23,0-8.07,0-16.13-.12-24.19,0-2.09.52-3.05,2.84-3.07s3.09.84,3.16,3.2C86.21,56,85.21,60.65,86.65,65.2Z"/><path class="cls-1" d="M11.47,41.79c0,6.23,0,12.46,0,18.68,0,1.34.55,2.87-.84,4h0A40.65,40.65,0,0,0,18,76.21l0-40.44C11.47,35.43,11.47,35.43,11.47,41.79Z"/><path class="cls-1" d="M54.2,91.1a2.94,2.94,0,0,1-3.07.19C51.93,90.48,52.78,90.8,54.2,91.1Z"/><path class="cls-1" d="M332.3,37.36c-1.83,0-3.68.1-5.51,0-2.15-.17-3.05.51-2.94,2.82.18,3.67,0,7.35,0,11V57.1c0,8.46,0,8.46,8.47,8.22,8.31-.24,13.76-5.79,13.75-14S340.62,37.6,332.3,37.36Zm7.77,16.16a7.8,7.8,0,0,1-8.36,6.16c-1.65-.1-2.18-.77-2.13-2.32.06-2.1,0-4.21,0-6.31,0-1.26,0-2.53,0-3.79,0-4.3,1.11-5.11,5.22-3.92S341.06,48.85,340.07,53.52Z"/><path class="cls-1" d="M225.09,57c-1.17-1.87-1.62-3,.73-4.63,3.25-2.25,3.68-5.89,2.47-9.53s-4-5.36-7.73-5.44c-2.68-.07-5.38.13-8-.06s-3.11.88-3.08,3.19c.12,7.2.22,14.4,0,21.59-.11,3.23,1.47,3.44,3.84,3.23,3.53-.32,1.37-3,1.9-4.58.67-1.94-1.5-5.18,1.32-5.82s2.92,2.91,3.9,4.74c1.93,3.57,3.43,7.41,9.13,5.15C228,62.09,226.65,59.46,225.09,57Zm-7-7.78c-2.5.58-3-.72-3.07-3.25s1.05-3,3.27-2.93,4.49.05,4.49,3.08S220.67,49.32,218.13,49.19Z"/><path class="cls-1" d="M135.84,57.28c-1.16-1.92-2.07-3.22.63-5.06,3-2.07,3.62-5.56,2.46-9.16a7.66,7.66,0,0,0-7.58-5.67c-3-.13-5.95,0-8.91-.07-1.92-.07-2.4.77-2.38,2.53q.09,11.46,0,22.91c0,1.69.31,2.56,2.3,2.62,2.4.07,3.57-.35,3.54-3.19,0-2.47-1.5-6.57,1.06-7.15,3.15-.7,3.69,3.74,4.69,6.08,1.67,3.93,4.17,4.88,8.46,3.85C138.58,62.18,137.29,59.68,135.84,57.28Zm-6.94-8.09c-2,.32-3.28-.06-3.19-2.76.07-2.33.32-3.69,3.16-3.44,2.23.19,4.5.16,4.55,3S131.4,49.38,128.9,49.19Z"/><path class="cls-1" d="M316.51,57.09c-1.13-1.84-1.72-3.06.67-4.74,3.19-2.26,3.75-5.83,2.49-9.51s-4-5.37-7.72-5.47c-2.68-.08-5.37.13-8-.07s-3.06.86-3,3.18c.13,7.05.05,14.11,0,21.16,0,2-.43,3.82,2.82,3.79s2.68-1.8,2.92-3.8c.27-2.31-1.54-6,1.26-6.64s3.19,3.39,4.22,5.5c1.76,3.63,3.72,6.21,8.69,4.25C319.39,62.16,318,59.57,316.51,57.09Zm-6.7-7.94c-2.62.59-3.29-.61-3.3-3.15s.92-3.08,3.2-3,4.49.22,4.53,3S312.25,49.44,309.81,49.15Z"/><path class="cls-1" d="M194.41,37c-7.82-.09-13.24,5.85-13.19,14.44.06,8.38,5.41,14.23,13,14.22s13-5.91,13-14.25S201.94,37.09,194.41,37Zm-.35,23c-4.26-.11-7.39-3.81-7.36-8.72s3.22-8.58,7.47-8.61c4.44,0,7.61,3.74,7.51,8.94C201.58,56.54,198.37,60.07,194.06,60Z"/><path class="cls-1" d="M171.75,37.4c-2.68-.12-5.37.08-8-.06-2.16-.12-3.05.53-2.94,2.83.17,3.66,0,7.34,0,11,0,4,.08,7.9,0,11.85-.06,2,.85,2.43,2.55,2.3,1.48-.11,3.32.42,3.18-2.12-.06-1,.1-2,0-3-.55-4,.39-6.09,5.24-5.79,5.16.32,8.34-3.52,8.23-8.63A8.13,8.13,0,0,0,171.75,37.4Zm-2.26,11.77c-2.74.63-3-1-3.07-3.29-.09-2.63,1.14-2.91,3.28-2.87,2.32,0,4.45.37,4.41,3.15S172,49.42,169.49,49.17Z"/><path class="cls-1" d="M298.13,63.16c-3.58-8.87-7.22-17.72-11.2-27.47L275,65.09a13.39,13.39,0,0,1,2.61.25c3.72,1.26,5.11-3.11,8.78-3.34,4.1-.26,5.72,3.78,9.25,3.31C296.91,65.14,299.31,66.08,298.13,63.16Zm-9.69-6.41c-.26.46-2.75.47-3,0-1.28-2.25.77-3.93,1.5-6.51C287.71,52.81,289.68,54.51,288.44,56.75Z"/></g></g></svg>