<svg xmlns="http://www.w3.org/2000/svg" viewBox="0 0 400 400"><defs><style>.cls-1{fill:#fff;}.cls-2{fill:none;}</style></defs><title>Asset 96</title><g id="Layer_2" data-name="Layer 2"><g id="Layer_1-2" data-name="Layer 1"><path class="cls-1" d="M61.26,229.06l2.93,1.59a7.4,7.4,0,0,1,5,1.9l2.83.91c1.83-.09,3.77-1,5.39.67,1.06,1.28,2.06.3,3.08-.08,1.9-1.61,4-.72,6.13-.61l2.3-.8c1.47-1.67,3.41-2.06,5.51-2a7.68,7.68,0,0,0,3-2.1,9.34,9.34,0,0,1,4.9-3.49l2.93-3.08c1.41-3.09,2.67-6.27,5.39-8.53a33.86,33.86,0,0,0,1.67-21.16c-1-3.91,2.29-3.12,3.92-3.9,2.58-1.25,2.2,1.29,2.49,2.5,5.15,21.53-8.38,43-29.75,48.86-19.14,5.2-43.91-6.72-49.45-30.2a40.81,40.81,0,0,1,30.6-49.19c5.13-1.21,10.21-1.82,15.39-.57,1.14.28,3,.23,2,2.24-.77,1.57.55,4.75-3.18,4.25a33.54,33.54,0,0,0-19.35,2.68c-8.07,3.85-14.18,9.62-17.31,18.19-.34,1,.1,2-.24,3.07-2.33,7.25-1.84,14.45.52,21.59a16,16,0,0,0,3.47,6.78,15,15,0,0,1,2,4.05l2.3,2.36C58.29,225.4,59.78,227.22,61.26,229.06Z"/><path class="cls-1" d="M348.33,202c0,3-.1,6.12,0,9.25.08,2-.81,2.3-2.53,2.33s-2.12-.78-2.11-2.34c.06-6.48,0-13,0-19.45,0-.64-.33-1.54.56-1.83s1.23.51,1.68,1c3.36,3.87,6.71,7.76,10.67,12.34,0-4,0-7.14,0-10.27,0-1.66-.06-2.93,2.31-2.89,2.09,0,2.56.77,2.53,2.69-.11,6.25,0,12.5-.06,18.74,0,.76.47,1.85-.51,2.22s-1.6-.75-2.19-1.4c-3-3.31-6-6.66-9-10C349.47,202.08,349.22,201.61,348.33,202Z"/><path class="cls-1" d="M265.9,207.37c0,5.42-1,6.38-6.54,6.23a10.82,10.82,0,0,1-10.3-6.73,12.19,12.19,0,0,1,2.12-13.18c3.46-3.56,7.76-4.11,12.41-3.3,1.86.33,1.6,1.6,1.49,3-.15,1.83-1.13,2-2.65,1.69-7-1.27-10.13,3.43-9.27,8.45a6.34,6.34,0,0,0,2.49,4.13c1.37,1,3,1.83,4.6,1.23s.78-2.49.8-3.77c0-2,0-3.5,2.73-3.21,1.37.15,2.27.32,2.13,2C265.82,205,265.89,206.19,265.9,207.37Z"/><path class="cls-1" d="M92.07,161.42c.55.2,1.11.38,1.66.6a40.49,40.49,0,0,1,21.93,20c.49,1,2,2.58-.29,3-1.77.34-3.8,3.45-5.59-.15a33.48,33.48,0,0,0-18.37-16.74c-1.34-.52-1.73-1.07-1.34-2.6C90.9,162.35,91.14,161.5,92.07,161.42Z"/><path class="cls-1" d="M163.85,190.21c1,0,1.9,0,2.83,0,1.73-.11,2.89,0,2.86,2.36s-1,2.4-2.81,2.49c-1.43.07-3.55-1.12-4.17,1.13-.45,1.64-.59,3.62,2.36,3.37,1.57-.14,3.58-.79,3.62,2.27s-1.8,2.46-3.48,2.42-2.66,0-2.67,2.14.92,2.45,2.75,2.48c2,0,5.16-1.32,4.64,3-.13,1.1-.34,1.82-1.61,1.71a2.08,2.08,0,0,0-.35,0c-10.13.93-10.13.93-10.13-9.14,0-3.54.21-7.1-.06-10.62-.24-3,.89-4,3.75-3.58A17,17,0,0,0,163.85,190.21Z"/><path class="cls-1" d="M329,201.49c0-2.71.14-5.43-.05-8.12-.16-2.37.44-3.5,3-3.2a50.68,50.68,0,0,0,5.65,0c1.52,0,3-.35,3,2.15s-1,2.7-3,2.67c-1.28,0-2.93-.76-3.85.73-1.13,1.86.19,3.7,2.63,3.71,1.82,0,3.42-.27,3.35,2.58s-1.83,2.19-3.33,2.17c-1.7,0-2.87,0-2.86,2.34s1.38,2.21,3,2.26c2.11.07,5.09-1.07,4.49,3.12-.18,1.23-.61,1.66-1.75,1.58-.24,0-.48,0-.71,0-9.64.4-9.64.4-9.64-9.21Z"/><path class="cls-1" d="M94.47,230.62a18.45,18.45,0,0,1-5.51,2c0-11.79,0-23.57-.06-35.36,0-2,.26-3,2.64-3s2.34,1.24,2.34,2.92q-.06,14.85,0,29.7C93.89,228.16,93.39,229.53,94.47,230.62Z"/><path class="cls-1" d="M236.93,204a45.19,45.19,0,0,1,0-4.94c.32-3-.34-4.74-3.84-4.1-1.94.35-1.94-1-2-2.41s.26-2.4,2.1-2.35c4.11.11,8.23.09,12.35,0,1.66,0,1.94.82,1.88,2.2s.18,2.89-1.84,2.54c-3.75-.65-4.2,1.26-4,4.36.24,4,0,8,.1,12,.06,2-.9,2.27-2.57,2.28s-2.35-.41-2.26-2.17C237,208.94,236.94,206.46,236.93,204Z"/><path class="cls-1" d="M61.26,229.06c-2.16-.93-3.74-2.63-5.5-4.09,1.07-1.1.56-2.47.57-3.71q.08-12.37,0-24.77c0-1.64-.07-2.94,2.3-3s2.7,1,2.69,3C61.25,207.35,61.27,218.21,61.26,229.06Z"/><path class="cls-1" d="M86.66,233.44c-2,1-4.08.49-6.13.61q0-15,.09-30c0-1.71-.15-3.25,2.42-3.3s2.57,1.22,2.56,3.08q-.07,12.88,0,25.77C85.6,230.94,85.11,232.49,86.66,233.44Z"/><path class="cls-1" d="M102.36,225a11.13,11.13,0,0,1-4.9,3.49c-.08-11.18-.14-22.37-.25-33.55,0-1.77.84-2.13,2.4-2.17,2-.07,2.26,1,2.26,2.66q-.06,12.9,0,25.8C101.87,222.52,101.5,223.86,102.36,225Z"/><path class="cls-1" d="M69.23,232.55a10.37,10.37,0,0,1-5-1.9c1-2.26.41-4.64.43-7,.09-7.54.06-15.08,0-22.62,0-1.7.37-2.6,2.34-2.61s2.32,1,2.31,2.63C69.24,211.57,69.24,222.06,69.23,232.55Z"/><path class="cls-1" d="M77.45,234.13c-1.79-.28-3.69.31-5.4-.67,1-1.13.56-2.48.57-3.74q.06-10.59,0-21.19c0-1.74.14-2.89,2.4-2.86,2,0,2.61.72,2.59,2.68C77.49,216.94,77.49,225.53,77.45,234.13Z"/><path class="cls-1" d="M110.68,213.42c-1.5,3-3,6.07-5.39,8.53,0-6.72,0-13.44-.1-20.16,0-1.75.43-2.54,2.36-2.56s2.58.7,2.64,2.66C110.32,205.74,109.48,209.63,110.68,213.42Z"/><path class="cls-1" d="M48,193.91c0,5.19,0,10.38,0,15.57,0,1.12.46,2.4-.7,3.29h0a34.24,34.24,0,0,0,6.17,9.83l0-33.72C48,188.61,48,188.61,48,193.91Z"/><path class="cls-1" d="M83.63,235a2.42,2.42,0,0,1-2.56.15C81.74,234.5,82.45,234.76,83.63,235Z"/><path class="cls-1" d="M315.45,190.22c-1.53-.05-3.07.08-4.59,0-1.8-.14-2.54.43-2.45,2.36.15,3.05,0,6.12,0,9.18v4.95c0,7.05,0,7.05,7.06,6.85S327,208.7,327,201.85,322.39,190.42,315.45,190.22Zm6.48,13.47a6.51,6.51,0,0,1-7,5.14c-1.38-.09-1.82-.65-1.78-1.94.06-1.75,0-3.51,0-5.26,0-1,0-2.11,0-3.16,0-3.58.92-4.26,4.35-3.26S322.75,199.8,321.93,203.69Z"/><path class="cls-1" d="M226.09,206.57c-1-1.57-1.36-2.51.6-3.86,2.71-1.88,3.07-4.92,2.06-8s-3.3-4.46-6.45-4.54c-2.23-.05-4.47.11-6.7-.05s-2.59.74-2.56,2.67c.09,6,.18,12,0,18-.1,2.7,1.22,2.87,3.2,2.69,2.94-.26,1.14-2.51,1.58-3.81.56-1.62-1.25-4.32,1.1-4.85s2.44,2.42,3.25,3.95c1.61,3,2.86,6.17,7.61,4.29C228.49,210.84,227.38,208.64,226.09,206.57Zm-5.81-6.49c-2.08.48-2.53-.6-2.55-2.71s.87-2.54,2.72-2.44,3.74,0,3.75,2.56S222.4,200.19,220.28,200.08Z"/><path class="cls-1" d="M151.69,206.83c-1-1.61-1.73-2.69.52-4.22,2.53-1.73,3-4.64,2-7.64a6.39,6.39,0,0,0-6.32-4.73c-2.47-.1-4.95,0-7.43-.05-1.59-.06-2,.64-2,2.1q.08,9.56,0,19.11c0,1.4.26,2.13,1.91,2.18,2,.06,3-.3,3-2.66,0-2.06-1.25-5.48.89-6,2.62-.59,3.07,3.12,3.9,5.07,1.39,3.27,3.48,4.06,7.06,3.2C154,210.91,152.9,208.82,151.69,206.83Zm-5.79-6.75c-1.66.26-2.73-.05-2.66-2.3.06-1.94.27-3.08,2.63-2.87,1.86.16,3.75.13,3.8,2.53S148,200.23,145.9,200.08Z"/><path class="cls-1" d="M302.29,206.67c-.94-1.54-1.43-2.55.55-4,2.67-1.88,3.13-4.85,2.08-7.93a6.42,6.42,0,0,0-6.43-4.56c-2.23-.06-4.48.12-6.7-.05s-2.56.72-2.52,2.65c.1,5.88,0,11.76,0,17.64,0,1.64-.35,3.19,2.35,3.16s2.24-1.51,2.44-3.17c.22-1.93-1.28-5,1.05-5.53s2.66,2.82,3.52,4.58c1.46,3,3.1,5.18,7.24,3.54C304.69,210.89,303.56,208.74,302.29,206.67Zm-5.58-6.62c-2.19.49-2.75-.51-2.75-2.63s.76-2.57,2.66-2.5,3.75.19,3.78,2.54S298.74,200.29,296.71,200.05Z"/><path class="cls-1" d="M200.51,189.92c-6.52-.07-11,4.88-11,12,0,7,4.5,11.86,10.84,11.86s10.81-4.93,10.86-11.88S206.78,190,200.51,189.92Zm-.29,19.14c-3.56-.09-6.16-3.18-6.14-7.27s2.68-7.15,6.23-7.18,6.34,3.12,6.26,7.45C206.48,206.2,203.81,209.15,200.22,209.06Z"/><path class="cls-1" d="M181.62,190.25c-2.23-.1-4.48.07-6.71-.05-1.79-.1-2.54.44-2.45,2.36.14,3.05,0,6.12,0,9.18,0,3.29.07,6.59,0,9.88,0,1.64.71,2,2.13,1.92,1.23-.1,2.76.35,2.65-1.77-.05-.82.09-1.66,0-2.47-.46-3.38.32-5.07,4.37-4.82,4.3.26,6.94-2.94,6.86-7.2A6.78,6.78,0,0,0,181.62,190.25Zm-1.88,9.81c-2.28.53-2.5-.79-2.56-2.74-.08-2.19.95-2.43,2.73-2.4,1.94,0,3.71.31,3.67,2.63S181.78,200.27,179.74,200.06Z"/><path class="cls-1" d="M287,211.72c-3-7.39-6-14.77-9.34-22.9-3.47,8.57-6.67,16.44-9.94,24.51a11.42,11.42,0,0,1,2.18.21c3.09,1.05,4.25-2.59,7.31-2.78,3.42-.22,4.77,3.15,7.71,2.76C286,213.38,288,214.16,287,211.72Zm-8.08-5.34a2.84,2.84,0,0,1-2.51,0c-1.06-1.87.65-3.27,1.25-5.42C278.29,203.1,279.93,204.52,278.89,206.38Z"/><rect class="cls-2" width="400" height="400"/></g></g></svg>