<svg xmlns="http://www.w3.org/2000/svg" viewBox="0 0 400 400"><defs><style>.cls-1{fill:#fdfdfd;}.cls-2{fill:none;}</style></defs><title>Asset 93</title><g id="Layer_2" data-name="Layer 2"><g id="Layer_1-2" data-name="Layer 1"><path class="cls-1" d="M84.76,245.2c.12-.73.76-1,1.2-1.49,7.44-7.42,15-14.75,22.33-22.27a28,28,0,0,0-.24-39.53,28.42,28.42,0,0,0-39.78-.27c-7.61,7.43-15.12,15-22.68,22.43-.37.36-.63.87-1.41,1a45.35,45.35,0,0,1,1.26-15.58A47,47,0,0,1,87.2,154.62c24.9-2.07,46.64,16.37,48.37,41A46.9,46.9,0,0,1,94.7,245.19a50.22,50.22,0,0,1-8.58.29C85.67,245.45,85.17,245.6,84.76,245.2Z"/><path class="cls-1" d="M87.71,229.75c-1.33-3.3-2.76-6.25-4.13-9.22a28.7,28.7,0,0,0-14.73-14.48c-2.5-1.13-4.93-2.43-7.53-3.32-1-.35-1.44-.64-.43-1.62,4.49-4.37,8.81-8.92,13.4-13.18,8.48-7.85,21.9-7,28.94,1.58,5.7,7,5.61,17.86-.48,25C98.17,219.86,92.83,224.49,87.71,229.75Z"/><path class="cls-1" d="M237.27,197.19q-2,6.09-4.07,12.17c-.16.46-.27.92-.45,1.37a3,3,0,0,1-2.83,2.11,2.92,2.92,0,0,1-3.08-2q-3.36-9.27-6.58-18.58c-.59-1.72.11-3.05,1.54-3.48a2.65,2.65,0,0,1,3.52,1.9c1.52,4.53,3,9.08,4.43,13.65.74-.29.67-1,.84-1.52,1.27-3.79,2.49-7.6,3.7-11.42.51-1.63,1.34-2.77,3.26-2.73s2.61,1.15,3.11,2.7c1.37,4.25,2.76,8.5,4.15,12.78.86-.18.78-.9.94-1.4,1.32-4,2.57-8,3.9-11.93.69-2.06,2.71-2.82,4.23-1.66a2.47,2.47,0,0,1,.83,3c-2.17,6.14-4.33,12.28-6.54,18.41a3.19,3.19,0,0,1-6.13-.11q-2.21-6.61-4.39-13.24Z"/><path class="cls-1" d="M148.41,200.77c.22-4.82,2.16-8.71,6.56-10.93a12.48,12.48,0,0,1,13.12.72c1.91,1.24,2.38,2.66,1.5,4s-2.54,1.43-4.41.16c-3-2.07-6.1-2.07-8.61,0a8.24,8.24,0,0,0-1.95,9.36,6.85,6.85,0,0,0,7.4,4.13,8,8,0,0,0,3.87-1.75c1.5-1.1,2.75-1.08,3.65,0s.68,2.6-.73,3.73a12.07,12.07,0,0,1-13.43,1.67C150.75,209.71,148.63,205.81,148.41,200.77Z"/><path class="cls-1" d="M180.93,193c.87-1.1,1.49-2,2.25-2.82a5,5,0,0,1,3.62-1.73,2.38,2.38,0,0,1,2.7,2.07,2.58,2.58,0,0,1-1.72,3.15c-5.44,2.06-6.69,3.8-6.84,9.64-.05,2.09,0,4.19,0,6.28,0,1.86-1.21,3.13-2.76,3.1s-2.71-1.29-2.71-3.17c0-5.79,0-11.59,0-17.39,0-2.26.95-3.43,2.72-3.45s2.68,1.09,2.77,3.4C180.94,192.27,180.93,192.49,180.93,193Z"/><path class="cls-1" d="M294.79,187.59c-.37,1.43.27,2.06,2,1.86,1.06-.13,2.15,0,3.23,0s2.2.11,2.22,1.46-1.16,1.58-2.31,1.56-2.39.06-3.58,0-1.54.3-1.53,1.5c.07,5.2,0,10.4,0,15.59,0,.42,0,.84,0,1.26-.11,1.08-.67,1.88-1.79,1.86a1.73,1.73,0,0,1-1.76-1.87c0-.6,0-1.2,0-1.8,0-5,0-9.91,0-14.87,0-1.16-.18-1.81-1.53-1.67-1,.1-1.79-.36-1.77-1.52s.83-1.55,1.84-1.45c1.24.13,1.54-.41,1.46-1.54a9.55,9.55,0,0,1,.48-3.89,7.32,7.32,0,0,1,9.5-4,1.46,1.46,0,0,1,1,1.69,1.53,1.53,0,0,1-1.56,1.23,4.27,4.27,0,0,1-.7-.12C296.38,182.4,294.88,183.72,294.79,187.59Z"/><path class="cls-1" d="M321.82,194.2a19.76,19.76,0,0,1,4.07-4,7.29,7.29,0,0,1,3.52-1.19c1-.06,1.81.21,2,1.31a1.59,1.59,0,0,1-1.4,2.1c-5.89.73-8.42,5.76-8.23,11.38.08,2.2,0,4.41,0,6.62,0,1.17-.42,2.09-1.64,2.14s-1.9-.83-1.9-2.09q0-9.58,0-19.16c0-1.24.58-2.17,1.89-2.11s1.67,1,1.65,2.15C321.81,192.32,321.82,193.26,321.82,194.2Z"/><path class="cls-1" d="M306.71,201c0-3.1,0-6.2,0-9.3,0-1.28.32-2.4,1.76-2.41s1.82,1.06,1.82,2.36q0,9.3,0,18.6c0,1.27-.33,2.39-1.77,2.4s-1.83-1.05-1.81-2.35C306.73,207.16,306.71,204.06,306.71,201Z"/><path class="cls-1" d="M310.66,182.5a1.91,1.91,0,0,1-2.18,2,1.88,1.88,0,0,1-2-2.05,2.09,2.09,0,1,1,4.17,0Z"/><path class="cls-1" d="M282.74,183c0-2.17-1.07-3.43-2.8-3.39s-2.66,1.3-2.67,3.35c0,2.92,0,5.84,0,9.11-.47-.35-.66-.47-.82-.62-4.62-4.33-11.11-4.14-15.21.62-3.15,3.65-3.57,8-2.39,12.49,2.26,8.57,12.87,11,17.79,4.74a1.55,1.55,0,0,1,.44-.26c.47,2.56,1.49,3.72,3.13,3.59s2.55-1.38,2.55-4Q282.75,195.84,282.74,183Zm-12.23,25.1c-3.87,0-6.62-3.21-6.61-7.6s2.78-7.47,6.73-7.42,6.72,3.29,6.71,7.56S274.3,208.18,270.51,208.14Z"/><path class="cls-1" d="M204.47,188.42a12.34,12.34,0,1,0,0,24.68,12.48,12.48,0,0,0,12.68-12.41C217.17,193.68,211.72,188.41,204.47,188.42Zm.05,19.83a7.25,7.25,0,0,1-7.23-7.53c0-4.36,3-7.6,7.15-7.58a7.36,7.36,0,0,1,7.23,7.58C211.7,205.08,208.7,208.24,204.52,208.25Z"/><path class="cls-1" d="M339.41,202.11c2.39.12,4.79,0,7.18,0s4.9,0,7.35,0c1.29,0,2-.52,2.05-1.9a10.72,10.72,0,0,0-13.24-10.95,10.5,10.5,0,0,0-8,7.87c-1.26,4.6-.6,8.94,2.84,12.51a12,12,0,0,0,16.68.08c.72-.73,1.13-1.47.35-2.33s-1.58-.6-2.37.06a15.37,15.37,0,0,1-1.73,1.27A8.28,8.28,0,0,1,338.06,204C337.67,202.72,337.73,202,339.41,202.11Zm-1.52-3.66a7.67,7.67,0,0,1,7.43-6.49c3.64,0,6.44,2.71,7.06,6.58.13.85-.06,1-.85,1-2.08,0-4.17,0-6.25,0s-4.3,0-6.44,0C337.94,199.6,337.74,199.33,337.89,198.45Z"/><rect class="cls-2" width="400" height="400"/></g></g></svg>