<svg xmlns="http://www.w3.org/2000/svg" viewBox="0 0 257.26 54"><defs><style>.cls-1{fill:#fff;}</style></defs><title>Asset 42</title><g id="Layer_2" data-name="Layer 2"><g id="Layer_1-2" data-name="Layer 1"><path class="cls-1" d="M97.68,44.25H78.75A17.41,17.41,0,0,1,72.08,43a15.83,15.83,0,0,1-5.3-3.53,16.08,16.08,0,0,1-3.51-5.38A17.93,17.93,0,0,1,62,27.28a17.93,17.93,0,0,1,1.26-6.8,16.18,16.18,0,0,1,3.51-5.38,15.83,15.83,0,0,1,5.3-3.53,17.41,17.41,0,0,1,6.67-1.26,17.18,17.18,0,0,1,6.61,1.26,16,16,0,0,1,5.31,3.52,16.29,16.29,0,0,1,3.51,5.37,17.93,17.93,0,0,1,1.26,6.8,16.69,16.69,0,0,1-1.94,8,14.89,14.89,0,0,1-5.82,5.86v.09h10Zm-32.12-17a15.63,15.63,0,0,0,.91,5.31A14,14,0,0,0,69.07,37a12.2,12.2,0,0,0,4.14,3.08,13.91,13.91,0,0,0,11,0A12.48,12.48,0,0,0,88.4,37,13.93,13.93,0,0,0,91,32.59,15.47,15.47,0,0,0,91,22a13.93,13.93,0,0,0-2.64-4.45,12.48,12.48,0,0,0-4.16-3.08,13.91,13.91,0,0,0-11,0,12.2,12.2,0,0,0-4.14,3.08A14,14,0,0,0,66.47,22,15.67,15.67,0,0,0,65.56,27.28Z"/><path class="cls-1" d="M118.91,44.25c-.06-.59-.11-1.24-.14-2s0-1.31,0-1.78h-.09a7.16,7.16,0,0,1-3,3.11,8.8,8.8,0,0,1-4.44,1.19q-4.17,0-6.24-2.47a9.86,9.86,0,0,1-2.08-6.55V22.37H106V34.48a15.76,15.76,0,0,0,.28,3.13,6.44,6.44,0,0,0,.95,2.41,4.67,4.67,0,0,0,1.83,1.57,6.55,6.55,0,0,0,2.87.56,6.13,6.13,0,0,0,4.59-2.08A7.78,7.78,0,0,0,118,37.4a11.42,11.42,0,0,0,.56-3.81V22.37h3.18V39.44c0,.59,0,1.35,0,2.29s.08,1.77.14,2.52Z"/><path class="cls-1" d="M134.06,14a2.1,2.1,0,0,1-.7,1.61,2.28,2.28,0,0,1-1.55.63,2.26,2.26,0,0,1-1.54-.63,2.21,2.21,0,0,1,0-3.23,2.26,2.26,0,0,1,1.54-.63,2.28,2.28,0,0,1,1.55.63A2.1,2.1,0,0,1,134.06,14Zm-.66,30.29h-3.18V22.37h3.18Z"/><path class="cls-1" d="M157.62,27.37a6.09,6.09,0,0,0-2.31-2.08,6.92,6.92,0,0,0-3.3-.81,8.54,8.54,0,0,0-3.46.67A8,8,0,0,0,145.91,27a8.28,8.28,0,0,0-1.68,2.81,10.13,10.13,0,0,0-.59,3.48,9.93,9.93,0,0,0,.59,3.46,8.36,8.36,0,0,0,1.66,2.78,7.48,7.48,0,0,0,2.61,1.87,8.41,8.41,0,0,0,3.46.68,6.93,6.93,0,0,0,5.94-2.85L160.29,41a10.39,10.39,0,0,1-3.44,2.75,10.67,10.67,0,0,1-4.89,1,12.72,12.72,0,0,1-4.81-.86,10.7,10.7,0,0,1-3.67-2.41,10.89,10.89,0,0,1-2.36-3.65,12.91,12.91,0,0,1,0-9.16,11,11,0,0,1,2.36-3.65,10.54,10.54,0,0,1,3.67-2.4,12.72,12.72,0,0,1,4.81-.87,11.39,11.39,0,0,1,4.47,1,8.71,8.71,0,0,1,3.67,2.83Z"/><path class="cls-1" d="M168.52,32.24h.14l10.1-9.87h4.58l-11,10,12.16,11.87h-4.68l-11.12-11.5h-.14v11.5h-3.18V8.91h3.18Z"/><path class="cls-1" d="M205.31,16.48a8,8,0,0,0-2.76-2.41,8.37,8.37,0,0,0-4.06-.91,9,9,0,0,0-2.48.37,7.25,7.25,0,0,0-2.29,1.15,5.62,5.62,0,0,0-2.29,4.7A5.16,5.16,0,0,0,192,22a5.83,5.83,0,0,0,1.61,1.75,9.35,9.35,0,0,0,2.29,1.19c.85.31,1.74.63,2.68.94,1.15.37,2.3.78,3.47,1.21a12.72,12.72,0,0,1,3.15,1.71,8.22,8.22,0,0,1,2.28,2.67,8.4,8.4,0,0,1,.89,4.09A8.82,8.82,0,0,1,205,42.8a10.18,10.18,0,0,1-3.45,1.73,13.84,13.84,0,0,1-3.91.56,15.24,15.24,0,0,1-3-.3,13.54,13.54,0,0,1-2.85-.91,11.82,11.82,0,0,1-2.52-1.54,11.11,11.11,0,0,1-2.06-2.16l2.9-2.15a8.74,8.74,0,0,0,3,3,8.52,8.52,0,0,0,4.56,1.2,9,9,0,0,0,2.57-.4,7.26,7.26,0,0,0,2.36-1.22,6.46,6.46,0,0,0,1.73-2,5.43,5.43,0,0,0,.68-2.78,5.53,5.53,0,0,0-.68-2.88,6,6,0,0,0-1.8-1.91A10.84,10.84,0,0,0,200,29.71c-1-.34-2-.68-3-1s-2.16-.73-3.22-1.17a10.93,10.93,0,0,1-2.86-1.7,8,8,0,0,1-2-2.6,8.46,8.46,0,0,1-.77-3.78,8.36,8.36,0,0,1,1-4.12,8.71,8.71,0,0,1,2.5-2.85,10.66,10.66,0,0,1,3.41-1.64,14,14,0,0,1,3.7-.51,12.82,12.82,0,0,1,5.75,1.19,9.93,9.93,0,0,1,3.6,2.83Z"/><path class="cls-1" d="M235.38,32.66v.7a7.45,7.45,0,0,1,0,.79H217.19a8.66,8.66,0,0,0,.65,3.09,7.7,7.7,0,0,0,1.69,2.52,7.91,7.91,0,0,0,2.52,1.71,8.38,8.38,0,0,0,7.41-.51,8.71,8.71,0,0,0,2.74-2.65l2.38,1.87a11.86,11.86,0,0,1-4.32,3.56,12.24,12.24,0,0,1-5.08,1.07,11.58,11.58,0,0,1-4.51-.86,10.61,10.61,0,0,1-3.58-2.41,11.54,11.54,0,0,1-2.36-3.65,12,12,0,0,1-.86-4.58,12.23,12.23,0,0,1,.84-4.58,11.1,11.1,0,0,1,2.34-3.65,10.51,10.51,0,0,1,3.5-2.4,10.83,10.83,0,0,1,4.35-.87,11.11,11.11,0,0,1,4.54.87A9.23,9.23,0,0,1,232.71,25a10.05,10.05,0,0,1,2,3.44A12.86,12.86,0,0,1,235.38,32.66Zm-3.23-1a7.86,7.86,0,0,0-2-5.12,6.72,6.72,0,0,0-5.26-2,7.31,7.31,0,0,0-2.94.58,7.82,7.82,0,0,0-4,3.88,7.45,7.45,0,0,0-.71,2.69Z"/><path class="cls-1" d="M245.47,44.25h-3.18V8.91h3.18Z"/><path class="cls-1" d="M257.26,44.25h-3.18V8.91h3.18Z"/><path id="d" class="cls-1" d="M18.57,25.54h5.88v6.37H18.57Z"/><path id="e" class="cls-1" d="M27.1,20.75H37.53V31.86H27.1Z"/><path class="cls-1" d="M27,0A27,27,0,1,0,54,27,27,27,0,0,0,27,0ZM7.36,19.22H11.8v1H7.36ZM12,23H4.6v-1H12ZM22.81,44.55a4.07,4.07,0,1,1,4.07-4.06A4.06,4.06,0,0,1,22.81,44.55Zm9.77,0a4.07,4.07,0,1,1,4.06-4.06A4.07,4.07,0,0,1,32.58,44.55Zm12.66-26.8L40,32.32a1.65,1.65,0,0,1-1.56,1.09H16.14A1.66,1.66,0,0,1,14.5,32L12.32,17.43a1.66,1.66,0,0,1,1.4-1.88,1,1,0,0,1,.24,0H43.68a1.66,1.66,0,0,1,1.66,1.66A1.54,1.54,0,0,1,45.24,17.75Z"/></g></g></svg>