<svg xmlns="http://www.w3.org/2000/svg" viewBox="0 0 199.8 42.94"><defs><style>.cls-1{fill:#fff;}</style></defs><title>Asset 66</title><g id="Layer_2" data-name="Layer 2"><g id="Layer_1-2" data-name="Layer 1"><path class="cls-1" d="M18.13,12.16a15.34,15.34,0,0,1,15.63,8A15.5,15.5,0,0,1,14,41.72c5.64-2.95,9.26-7.33,10.17-13.57S22.9,16.61,18.13,12.16Z"/><path class="cls-1" d="M17.43,30.78a15.35,15.35,0,0,1-15.63-8A15.5,15.5,0,0,1,21.56,1.22c-5.64,3-9.26,7.32-10.17,13.57S12.65,26.32,17.43,30.78Z"/><path class="cls-1" d="M53.91,10.15a12.67,12.67,0,0,1,3,.39c2.37.56,2.62,1.24,1.28,3.3-.36.55-.7.41-1.18.31A26.61,26.61,0,0,0,54,13.69c-1.28-.12-2.59,0-3.06,1.44s.6,2.3,1.66,3c1.49.94,3.07,1.73,4.55,2.68a6.61,6.61,0,0,1,3.26,4.4c.63,3.68-1.56,6.61-5.5,7.19a15.09,15.09,0,0,1-7.76-1c-1.25-.49-.83-1.2-.44-1.92s.24-2.07,1.8-1.32A9.46,9.46,0,0,0,53,29c1.4,0,2.61-.47,3.09-1.87s-.41-2.38-1.5-3.07c-1.63-1-3.38-1.89-5-2.94a5.9,5.9,0,0,1-3-4.54C46.26,12.56,48.93,10.1,53.91,10.15Z"/><path class="cls-1" d="M184,28.9c.45.71.13,1.49.21,2.23s-.27,1-1,1c-3.87,0-7.75,0-11.62,0-.75,0-1-.27-1-1,0-6.51,0-13,0-19.54,0-1.07.55-1.08,1.33-1.08,3.34,0,6.69.09,10,0,1.49-.05,2.05.4,1.8,1.85-.08.46-.09.93-.13,1.39a44.19,44.19,0,0,1-7,.15c-1.14,0-1.66.2-1.63,1.51q.14,6,0,11.95c0,1.22.42,1.43,1.52,1.44A51.15,51.15,0,0,1,184,28.9Z"/><path class="cls-1" d="M158.61,23c0-2.53,0-5.06,0-7.58,0-1-.22-1.55-1.36-1.42a16.65,16.65,0,0,1-2.12,0c-2.22,0-2.67-.62-2.22-2.83.14-.67.53-.67,1-.67,4.65,0,9.29,0,13.93,0,1.18,0,1,.82.91,1.44s.72,1.91-.83,2.06c-.23,0-.47,0-.7,0-4.1.06-4.1.06-4.1,4.11s-.05,8.23,0,12.34c0,1.25-.23,1.75-1.62,1.72-2.94-.09-2.95,0-2.95-3Z"/><path class="cls-1" d="M187.26,21.37c0-3.06.05-6.11,0-9.17,0-1.25.22-1.76,1.62-1.72,2.94.09,2.94,0,2.94,3,0,4.52,0,9,0,13.57,0,1.2.26,1.68,1.54,1.6,1.76-.11,3.53,0,5.29,0,1.49-.07,1.19,1,1.18,1.78s.37,1.82-1.15,1.79c-3.41-.07-6.82-.05-10.23,0-1,0-1.15-.44-1.14-1.29C187.28,27.71,187.26,24.54,187.26,21.37Z"/><path class="cls-1" d="M117.55,21.27c0-3.11,0-6.23,0-9.35,0-1,.2-1.43,1.34-1.43,3.25,0,3.25-.07,3.25,3.24,0,4.47,0,8.94,0,13.4,0,1.12.27,1.57,1.47,1.51,1.75-.09,3.52,0,5.29,0,1.55-.07,1.1,1,1.11,1.8s.39,1.81-1.15,1.77c-3.35-.08-6.7-.06-10,0-1.1,0-1.24-.46-1.23-1.37C117.57,27.62,117.55,24.45,117.55,21.27Z"/><path class="cls-1" d="M67.84,21.41c0,3.12,0,6.24,0,9.35,0,1-.24,1.45-1.36,1.41-3.83-.12-3.1.44-3.13-3,0-5.64,0-11.29,0-16.93,0-1.38.35-2,1.75-1.74a5.12,5.12,0,0,0,1.41,0c1.11-.16,1.4.31,1.37,1.38C67.8,15.06,67.84,18.24,67.84,21.41Z"/><path class="cls-1" d="M184,28.9c-2.59,0-5.18,0-7.77,0-1,0-1.46-.29-1.45-1.4,0-4.12.06-8.24,0-12.35,0-1.21.45-1.51,1.56-1.48,2.41.07,4.82,0,7.23,0-2.22.67-4.5.24-6.74.26-1.37,0-1.86.34-1.76,1.76.12,1.87,0,3.75.13,5.83,1.37-3.29,4.15-2.45,6.61-2.49,1.54,0,.89,1.21,1,2s.15,1.57-1.07,1.52c-1.77-.05-3.53,0-5.29,0-.95,0-1.32.21-1.36,1.26-.17,4.83-.21,4.8,4.63,4.85C181.15,28.65,182.62,28.29,184,28.9Z"/><path class="cls-1" d="M76.77,17.67l0-.14c0-.14.54.68.52,1.15,1.25,3.91,2.49,7.83,3.77,11.74.17.53.17,1.17.89,1.4a3.32,3.32,0,0,0,4.58-2.37q1.82-5.77,3.65-11.54c.65,3.78,1,7.52,1.26,11.26.28,3.48-.32,2.9,3.33,3,.92,0,1.16-.21,1.06-1.2-.61-5.61-1.08-11.23-1.68-16.84-.38-3.62-.44-3.56-4-3.63A1.84,1.84,0,0,0,88,12.08c-1.14,4.07-2.39,8.11-3.64,12.15-.15.49,0,1.21-.82,1.44L80,14.19c-1.14-3.74-1.14-3.7-5-3.7-1.11,0-1.5.29-1.6,1.44-.54,6-1.17,11.93-1.79,17.9-.25,2.33-.28,2.32,2.1,2.32a2,2,0,0,1,.35,0c1.21.21,1.61-.29,1.68-1.5.25-4.11.63-8.21,1-12.31l.08-.67"/><path class="cls-1" d="M142.14,10.1c-6.22-.06-10.67,4.52-10.72,11,0,6.84,4.11,11.37,10.45,11.4,6.15,0,10.61-4.63,10.66-11.12C152.59,14.71,148.4,10.16,142.14,10.1Zm4.15,16.53a5.08,5.08,0,0,1-8.77-.22,10.18,10.18,0,0,1-.73-8.82,5.45,5.45,0,0,1,5.05-4c2.42,0,4.3,1.35,5.3,3.88a9.79,9.79,0,0,1,.61,3.39A9.4,9.4,0,0,1,146.29,26.63Z"/><path class="cls-1" d="M109,10.44a22.29,22.29,0,0,0-8.06.08c-1.12.14-1.47.57-1.45,1.67.07,3.06,0,6.12,0,9.18s0,6.36,0,9.53c0,.9.24,1.21,1.19,1.24,3.4.12,3.39.16,3.39-3.24V27.67c0-3.64,0-3.64,3.51-4,.29,0,.59,0,.88-.09,3.57-.62,6.11-3.26,6.2-6.45S112.62,11.3,109,10.44Zm-3.3,9.9c-1.45.37-1.75-.49-1.63-1.86a14,14,0,0,0,0-2.82c-.15-1.45.22-2.15,1.86-2.06C108.4,13.73,110.1,15,110,17S108.43,20.33,105.71,20.34Z"/></g></g></svg>