<svg xmlns="http://www.w3.org/2000/svg" viewBox="0 0 400 400"><defs><style>.cls-1{fill:#fff;}.cls-2{fill:none;}</style></defs><title>Asset 94</title><g id="Layer_2" data-name="Layer 2"><g id="Layer_1-2" data-name="Layer 1"><path class="cls-1" d="M63.64,206.93c0-4,0-8,0-12.05,0-5,4.51-8,8.22-4.87,1.84,1.54,2.25,1.26,3.76.48,6.08-3.14,11.9-4,16.78,2.23,1.54,2,2.55.25,3.66-.65,4.4-3.57,8.93-5.21,14.71-2.75s6.57,7.12,6.88,12.05c.42,6.48.09,13,.29,19.49.12,4.28-2.89,3-5.12,3.19s-4.48.41-4.36-3.27c.19-5.92.06-11.86-.3-17.76-.2-3.22-.73-6.9-5.35-6.59-4.4.3-7,3.22-7.35,7.31a112.62,112.62,0,0,0-.07,15.48c.15,3.46-.47,5.11-4.56,5-3.63-.11-5.08-.86-4.86-4.76.31-5.33,0-10.7-.06-16.06,0-3.6-1.35-6.58-5.26-6.91-4.32-.36-6.51,2.43-7.28,6.45-1.1,5.68-.8,11.44-.61,17.15.11,3.42-1.19,4.2-4.3,4-2.82-.14-5.27.22-4.91-4S63.64,211.33,63.64,206.93Z"/><path class="cls-1" d="M172.32,191.58c13.06-6.69,19-2.48,23.66,3.41,5.11,6.4,5,16.53.08,22.81-5.66,7.31-12,9-21,4.95-3.32-1.51-4.47,2.59-7.75,1.58-2.71-.84-4.26-.86-4.21-4.27.18-13.57.24-27.16,0-40.73-.08-4,1.71-4.16,4.78-4.25,3.42-.12,4.86.83,4.56,4.49S172.32,187.21,172.32,191.58Zm18.26,15c0-6.11-3.64-10.17-9.12-10.21s-9.44,4.13-9.55,9.85c-.12,6.2,4,10.85,9.45,10.78C186.55,217,190.59,212.4,190.58,206.62Z"/><path class="cls-1" d="M280,219.69c-11.31,7.39-20.08,6.95-27.19-1.18-5.68-6.51-5.59-17.31.22-24.07a17.44,17.44,0,0,1,23.6-3.05c1.79,1.22,3.56,4,4.21-.84.18-1.35,1.81-1.11,2.92-1,1.61.1,1.58,1.37,1.58,2.5,0,9.75,0,19.49.05,29.23,0,1.8-.4,2.81-2.53,2.85C279.58,224.14,281.23,221.26,280,219.69Zm-12.75-27.12c-8,0-13.87,5.92-13.89,14a13.65,13.65,0,0,0,13.87,14A14.19,14.19,0,0,0,281.11,207C281.3,199.48,274.71,192.61,267.28,192.57Z"/><path class="cls-1" d="M206,206.79c0-7.57,3-13.33,10.07-16.48,8-3.58,17.65-2.35,22.93,2.84,1.21,1.19,2.6,2.6,1,4.33-1.42,1.54-2.45.33-3.8-.66-7.27-5.33-14.14-5.7-20-1.37-6.15,4.57-7.91,12-4.3,18.09s13.27,9.09,19.56,5.82a25.1,25.1,0,0,0,5.1-3.59c1.47-1.34,2.42-.4,3.47.36,1.82,1.32.29,2.39-.45,3.28-4.27,5.12-15,6.91-22.94,3.92C209.84,220.78,205.92,214.72,206,206.79Z"/><path class="cls-1" d="M303.07,187.9a18.46,18.46,0,0,1,7.72,3.22c1.2.77,1.88,1.83.71,3.32-1,1.31-2.11,1.77-3.25.4a6.37,6.37,0,0,0-4-2.06c-2.7-.55-5,.09-6.09,2.88s-.11,4.85,2.25,6.32c2.9,1.79,6.11,3,8.66,5.43,4.53,4.26,4.84,10.29.53,14.54-3.85,3.81-12.81,3.82-16.09,0-.94-1.1-1.48-2.29-.61-3.63,1.05-1.6,2.2-1,3.33,0a8.7,8.7,0,0,0,6.32,2.23c2.71-.13,4.74-1.37,5.53-4.14a4.92,4.92,0,0,0-2.21-5.88c-2.86-1.88-5.89-3.52-8.68-5.48a8.92,8.92,0,0,1-3.56-10.59C295,190.26,298.74,188.55,303.07,187.9Z"/><path class="cls-1" d="M325,208c0-3.06-.07-6.12,0-9.17s.53-6.39-4.39-5.64a1.62,1.62,0,0,1-2-1.6c-.09-1.09.42-2.17,1.46-2,6.27.91,4.74-3.56,4.85-6.88.05-1.34,0-2.68,0-4s.15-2.68,2.09-2.59,2.07,1.31,2.07,2.75.12,3.07,0,4.58c-.35,3.79-.31,7.09,5.08,6.13,1.19-.21,2.27.19,2.23,1.81a1.69,1.69,0,0,1-2.23,1.83c-5.54-1-5.13,2.65-5.09,6.27.09,7.06,0,14.14,0,21.21,0,1.63.43,3.67-2.4,3.42-2.54-.22-1.64-2.18-1.67-3.48C325,216.36,325,212.15,325,208Z"/><path class="cls-1" d="M141.28,223.74l-.34.07a11.92,11.92,0,0,1-2.35.25,16.45,16.45,0,0,1-3.39-.31c-4.1-.78-8.09-3-9.47-5.95-.94-2,.53-3.16,1.39-4.57,1.53-2.5,3.82-2.8,6.45-2.4a4.66,4.66,0,0,1,4.19,4.67c.16,2.71.12,5.38,2.31,7.28.21.18.43.4.67.62Z"/><path class="cls-1" d="M143.54,222.88c-3.44-2.3-4.88-5.54-2.11-9.5,2.41-3.45,5.6-3.18,9.16-2,2.1.67,4.35,0,6.62-1-1.56,8.75-6.07,12.76-13.67,12.54Z"/><path class="cls-1" d="M122.85,215c-1.81-5.84-2.24-9.91-1-14.08,1-3.41,3.24-4.93,6.8-4.69a5.37,5.37,0,0,1,5.37,4.93,5.47,5.47,0,0,1-4.05,6.57C126.64,208.59,124.57,210.63,122.85,215Z"/><path class="cls-1" d="M127.36,192.56c4.25-2.93,7.79-4.91,12.15-4.69,3.07.15,5.59,1.43,6.27,4.67.59,2.77,0,5.3-2.91,6.69a5.5,5.5,0,0,1-7.49-1.95A10.42,10.42,0,0,0,127.36,192.56Z"/><path class="cls-1" d="M150.69,208.62c-3.1-.11-4.94-2.33-4.59-6.53.27-3.29,4-5,3.81-8.57,0-.17.94-.55,1.46-.6,2.21-.21,6.46,6.26,6.16,10C157.27,206.12,155.81,208.75,150.69,208.62Z"/><rect class="cls-2" width="400" height="400"/></g></g></svg>