<svg xmlns="http://www.w3.org/2000/svg" viewBox="0 0 292.66 96.1"><defs><style>.cls-1{fill:#fdfdfd;}</style></defs><title>Asset 78</title><g id="Layer_2" data-name="Layer 2"><g id="Layer_1-2" data-name="Layer 1"><path class="cls-1" d="M71.48,6.52C69.86,10.91,68.38,15,66.87,19c-1.65,4.44-3.33,8.87-5,13.31a1.94,1.94,0,0,1-1.53,1.42,16.14,16.14,0,0,0-7.1,3.93c.18-.71.26-1.11.39-1.49q6.09-17.4,12.16-34.8A1.51,1.51,0,0,1,67.56.17c2.77.06,5.55.09,8.32,0a1.74,1.74,0,0,1,2,1.37c3.48,9.08,6.65,18.27,10,27.4q5.07,14,10.26,28c.49,1.31.23,1.63-1.13,1.55a44.07,44.07,0,0,0-5.14,0,1.51,1.51,0,0,1-1.73-1.22c-1.58-4.46-3.26-8.89-4.82-13.36a1.84,1.84,0,0,0-2.09-1.54c-5.39.1-10.79.09-16.19,0a10.53,10.53,0,0,0-9.75,5.5,32,32,0,0,0-3.49,9.3c-.22,1-.56,1.34-1.58,1.29-1.76-.09-3.53,0-5.3,0-.57,0-1,0-.78-.82,1.6-5,2.92-10.18,6-14.6a16.62,16.62,0,0,1,14-7.61q7.41-.09,14.82-.05c1,0,1.23-.14.84-1.16C78.35,25.07,75,16,71.48,6.52Z"/><path class="cls-1" d="M108.07,36.57v-2c0-10.94,0-21.89,0-32.83C108,.27,108.48,0,109.8,0c6.86.07,13.72,0,20.58,0C139,.05,145,4.84,146.88,13.3a30.86,30.86,0,0,1-.14,14,17.18,17.18,0,0,1-14.91,12.92c-3.15.33-6.31.68-9.47,1a12,12,0,0,0-3.1.64c-2.69,1-3.56,2.23-3.56,5.09,0,3.43,0,6.86,0,10.29,0,1-.27,1.3-1.26,1.25-1.81-.07-3.63,0-5.44,0-.71,0-1-.2-1-.94,0-4.79,0-9.58,0-14.37a7.47,7.47,0,0,1,3.43-5.94,15.64,15.64,0,0,1,7.77-2.67c2.85-.33,5.71-.66,8.56-1a16,16,0,0,0,2.68-.46c3.8-1.15,7.38-2.71,8.76-6.89,1.61-4.89,1.66-9.78-1.24-14.25a10,10,0,0,0-8.92-4.78c-4,0-8,0-11.95,0-1.16,0-1.53.26-1.52,1.48.06,7.31,0,14.63,0,21.94,0,1-.2,1.71-1.29,2C112,33.14,110.19,34.73,108.07,36.57Z"/><path class="cls-1" d="M30.93,7.12H29c-9,0-17.95,0-26.92,0C.89,7.15.37,6.9.47,5.59a24.9,24.9,0,0,0,0-4.23C.37.06,1,0,2,0Q19.5.07,37,.05c3.8,0,3.65,0,3.85,3.73a7.7,7.7,0,0,1-2.07,5.68C29.25,21,19.87,32.59,10.42,44.13a11.17,11.17,0,0,0-2.55,7.25c0,2,0,3.94,0,5.9,0,.82-.17,1.17-1.08,1.14-1.91-.06-3.83,0-5.74,0-.62,0-1.06,0-1-.86A57,57,0,0,1,.38,49.4,20.83,20.83,0,0,1,4.9,39.64Q17.55,23.9,30.16,8.13C30.35,7.9,30.52,7.66,30.93,7.12Z"/><path class="cls-1" d="M274.1,58.4c-5.65,0-11.3,0-17,0-1.15,0-1.41-.32-1.4-1.43.05-6.61.11-13.22,0-19.82-.14-8.43,5.3-12.53,12.74-12.88,7-.34,14.12-.06,21.18-.09.91,0,1.26.22,1.21,1.18a42.78,42.78,0,0,0,0,4.53c.07,1.07-.37,1.23-1.31,1.23-6.35,0-12.71,0-19.06,0a18.44,18.44,0,0,0-2,.06c-3.35.39-4.87,2-4.92,5.33-.05,4.59,0,9.18,0,13.77,0,1.22.61,1.11,1.4,1.11,8.57,0,17.15,0,25.72,0,1.47,0,2.12.24,1.92,1.86a21.49,21.49,0,0,0,0,3.93c.05,1-.24,1.29-1.26,1.28C285.6,58.38,279.85,58.4,274.1,58.4Z"/><path class="cls-1" d="M244.27,58.4h-7.06c-8.16,0-16.33,0-24.49,0-1.13,0-1.44-.26-1.44-1.41q.06-27.75,0-55.5c0-1.22.35-1.56,1.53-1.49a41,41,0,0,0,4.83,0c1.18-.07,1.54.27,1.53,1.49-.07,5.44,0,10.89,0,16.33,0,10.69,0,21.38,0,32.06,0,1.16.25,1.53,1.48,1.51,4.68-.08,9.38.14,14.06-.08,3.88-.19,6.41,1.58,8.31,4.68C243.38,56.7,243.73,57.42,244.27,58.4Z"/><path class="cls-1" d="M155.14.05h9.08c.62,0,.86.46,1.14.87,5.71,8.3,11.46,16.57,17.09,24.93a21.12,21.12,0,0,1,3.62,12.58c-.13,6.19-.07,12.4,0,18.6,0,1.17-.34,1.46-1.45,1.4a37.22,37.22,0,0,0-4.84,0c-1.23.08-1.61-.26-1.6-1.54.08-6.2,0-12.41.07-18.61a15.06,15.06,0,0,0-1.69-7.11c-2.56-5.07-6-9.53-9.39-14.06-4-5.37-7.92-10.81-11.87-16.23A.65.65,0,0,1,155.14.05Z"/><path class="cls-1" d="M255.77,27.67V10.92c0-3.18,0-6.36,0-9.53,0-.95.29-1.19,1.21-1.18q17.24,0,34.49,0c1,0,1.19.35,1.15,1.24-.05,1.46-.08,2.93,0,4.38.08,1.13-.39,1.32-1.39,1.32-8.68,0-17.35,0-26-.06-1.38,0-1.66.37-1.62,1.66.09,3.73-.08,7.47.08,11.2a2.69,2.69,0,0,1-1.86,3,11.86,11.86,0,0,0-4.15,2.7C257,26.27,256.42,26.92,255.77,27.67Z"/><path class="cls-1" d="M187.47,31a12.92,12.92,0,0,0-2.7-6.42,1.37,1.37,0,0,1-.07-1.86q7.4-10.6,14.68-21.28A2.92,2.92,0,0,1,202.25,0c2.11.11,4.23,0,6.35,0,.43,0,1-.24,1.26.22s-.32.78-.57,1.12l-19.2,26Z"/><path class="cls-1" d="M25,58.4c-4.54,0-9.08,0-13.62,0-1,0-1.44-.19-1.37-1.3.1-1.56.06-3.13,0-4.69,0-.78.22-1.06,1-1q14.15,0,28.29,0c.86,0,1,.38,1,1.1,0,1.56-.07,3.13,0,4.69,0,1-.24,1.28-1.25,1.27C34.34,58.37,29.65,58.4,25,58.4Z"/><path class="cls-1" d="M106.75,91.12a7.33,7.33,0,0,1-4.54-1.28,3.9,3.9,0,0,1-1.76-3c0-.38-.17-.85.49-.87a.73.73,0,0,1,.88.54,5.21,5.21,0,0,0,7.32,3,3,3,0,0,0,2-2.49,2.87,2.87,0,0,0-1.64-2.83,14.42,14.42,0,0,0-3.22-1.28,11.16,11.16,0,0,1-3.82-1.75,4,4,0,0,1-.68-5.65c2.18-2.75,7.51-2.73,9.67,0a3.28,3.28,0,0,1,.65,1.18c.14.64.87,1.53-.15,1.91s-.9-.75-1.13-1.31a4,4,0,0,0-3.32-2.52c-1.71-.21-3.36,0-4.52,1.46a2.73,2.73,0,0,0,.74,4.08A11.42,11.42,0,0,0,107,81.64a13.62,13.62,0,0,1,3.47,1.47,4,4,0,0,1,2.1,3.74,4,4,0,0,1-2.42,3.55A6.6,6.6,0,0,1,106.75,91.12Z"/><path class="cls-1" d="M251.54,80c1.5-1.69,3.06-2.4,5-2.08a3.43,3.43,0,0,1,3.06,2.75c.67,3.19.19,6.44.3,9.66,0,.59-.43.55-.85.57-.59,0-.61-.35-.61-.79,0-2.53,0-5,0-7.57-.05-2-.83-3-2.28-3.31a3.92,3.92,0,0,0-4.28,1.86,3.31,3.31,0,0,0-.34,1.75c0,2.32,0,4.64,0,7,0,.53.17,1.15-.75,1.11s-.7-.55-.7-1q0-8.18,0-16.34c0-.49-.14-1,.67-1.07s.78.54.78,1.09Z"/><path class="cls-1" d="M203.65,78.24c-1.93,5.14-3.8,10.24-5.78,15.29-.77,2-2.12,2.78-3.67,2.52-.38-.06-.84,0-.77-.66s.28-.61.77-.67a4,4,0,0,0,3-4.94c-1.3-3.38-2.64-6.75-3.95-10.12-.18-.46-.34-.93-.51-1.41,1.1-.43,1.6-.06,2,1,1.1,3.12,2.3,6.2,3.57,9.58.59-1.65,1.12-3.09,1.63-4.53.6-1.66,1.23-3.3,1.75-5C201.92,78.27,202.41,77.81,203.65,78.24Z"/><path class="cls-1" d="M212.18,82.29c0-2.47,0-4.94,0-7.4,0-.87.14-1.26,1.14-1.24,2.82.07,5.64,0,8.46,0,.4,0,1-.2,1,.55s-.52.7-1,.7c-2.37,0-4.74,0-7.1,0-.81,0-1,.24-1,1,.06,1.5.08,3,0,4.53,0,1,.35,1.16,1.23,1.14,1.91-.06,3.82,0,5.74,0,.42,0,.94-.13,1,.61s-.45.66-.92.66c-2,0-3.93,0-5.89,0-.85,0-1.13.21-1.1,1.09.06,2,0,3.92,0,5.89,0,.56.08,1.11-.8,1.07s-.67-.56-.68-1Z"/><path class="cls-1" d="M26.14,91.13c-2.76,0-4.51-.94-5.07-2.57-.14-.39-.49-.94.08-1.18a.8.8,0,0,1,1.24.63c.42,2.13,4.72,2.48,6.09,1a2,2,0,0,0-.65-3.28,13.42,13.42,0,0,0-3.17-1C22.1,84,21,82.82,21.22,81s2.09-3.19,4.51-3.19c2.19,0,4.08,1.1,4.49,2.67.1.37.46.94-.19,1.15-.49.17-.86,0-1.15-.58A3.52,3.52,0,0,0,24.3,79.3a2.11,2.11,0,0,0-1.61,2,1.94,1.94,0,0,0,1.43,1.92c1.53.63,3.25.71,4.71,1.57A3.17,3.17,0,0,1,29,90.34a5.57,5.57,0,0,1-1.53.64A7.61,7.61,0,0,1,26.14,91.13Z"/><path class="cls-1" d="M242.18,91.13c-2,0-3.72-.44-4.68-2.38-.22-.44-.61-1.08.11-1.39s.91.14,1.19.75c.91,2,4.65,2.47,6.11.79a2,2,0,0,0-.69-3.17,12.92,12.92,0,0,0-3.16-1c-2.66-.75-3.73-1.93-3.46-3.82s2.18-3.16,4.59-3.08c1.85.06,3.49.6,4.32,2.47.19.42.51,1-.08,1.33s-.94,0-1.25-.66a3.64,3.64,0,0,0-5-1.44A2,2,0,0,0,239,81.38a1.81,1.81,0,0,0,1.25,1.72c.7.29,1.44.45,2.16.68s1.64.5,2.42.84a3,3,0,0,1,2,3.07,3.37,3.37,0,0,1-2.33,3A5.68,5.68,0,0,1,242.18,91.13Z"/><path class="cls-1" d="M188.79,89.31a5,5,0,0,1-3.65,1.83c-2.39,0-4-1.12-4.38-3.48-.45-3-.12-5.94-.19-8.91,0-.53.25-.67.75-.68.69,0,.67.44.67.91,0,2,0,4,0,6a12.69,12.69,0,0,0,.13,2c.31,2.16,1.4,3,3.47,2.87a3.35,3.35,0,0,0,3.3-3.42c0-2.37,0-4.74,0-7.11,0-.54-.27-1.28.78-1.25s.66.72.67,1.19q0,5.14,0,10.29c0,.45.41,1.19-.51,1.31s-.7-.72-.86-1.22A2.74,2.74,0,0,0,188.79,89.31Z"/><path class="cls-1" d="M284,80a4.9,4.9,0,0,1,4.95-2.11,3.5,3.5,0,0,1,3.15,3c.57,3.1.15,6.23.27,9.35,0,.59-.37.6-.8.61-.67,0-.68-.42-.67-.91V84.38c0-.6,0-1.21,0-1.81-.13-2.4-1.17-3.5-3.27-3.44A3.51,3.51,0,0,0,284,82.91c0,2.32,0,4.63,0,7,0,.48.15,1-.68,1s-.73-.63-.73-1.14c0-3.48,0-7,0-10.43,0-.47-.33-1.2.62-1.24s.63.7.72,1.19C283.92,79.41,283.94,79.56,284,80Z"/><path class="cls-1" d="M34.49,84.53A7,7,0,0,0,35.22,88a3.34,3.34,0,0,0,3.51,1.84,3,3,0,0,0,3-2.27c.16-.67.5-.85,1.05-.7s.37.73.25,1.12a4.1,4.1,0,0,1-3.33,3,4.93,4.93,0,0,1-5.21-1.56c-2.05-2.45-2.06-7.47,0-9.89A4.94,4.94,0,0,1,39.76,78a4,4,0,0,1,3.3,3.15c.1.43.51,1-.25,1.26s-.92-.18-1.07-.85a3,3,0,0,0-2.9-2.44,3.35,3.35,0,0,0-3.56,1.75A6.92,6.92,0,0,0,34.49,84.53Z"/><path class="cls-1" d="M63.65,88.93c1.22-3.38,2.39-6.54,3.5-9.73.31-.91.72-1.4,1.87-1q-2.3,6-4.58,12.1a.79.79,0,0,1-.79.55c-.71,0-.8-.5-1-1Q61,85.49,59.3,81c-.24-.61-.5-1.22-.69-1.84-.1-.36-.66-.86.07-1.09A.93.93,0,0,1,60,78.8c.65,1.9,1.38,3.78,2.07,5.67C62.55,85.89,63.06,87.3,63.65,88.93Z"/><path class="cls-1" d="M133.72,81.59c0-2.67,0-5.34,0-8,0-.5-.25-1.16.71-1.16s.75.61.75,1.15V89.74c0,.53.17,1.15-.74,1.16s-.72-.65-.72-1.15C133.71,87,133.72,84.31,133.72,81.59Z"/><path class="cls-1" d="M128.22,81.69c0-2.71,0-5.43,0-8.14,0-.52-.19-1.14.74-1.12s.66.59.66,1.06q0,8.13,0,16.28c0,.52.18,1.15-.75,1.11s-.64-.73-.64-1.2C128.21,87,128.22,84.36,128.22,81.69Z"/><path class="cls-1" d="M85.24,80.05a4.17,4.17,0,0,1,3.38-2.21c.46,0,1.08-.18,1.06.66,0,.68-.33.77-1,.8-2.37.09-3.56,1.36-3.58,3.74,0,2.22,0,4.43,0,6.65,0,.48.29,1.17-.67,1.2s-.74-.62-.74-1.13c0-3.48,0-7,0-10.44,0-.46-.35-1.21.61-1.23s.62.71.73,1.18C85.11,79.41,85.13,79.55,85.24,80.05Z"/><path class="cls-1" d="M17.57,84.55V90c0,.45.06.9-.65.91s-.84-.3-.84-.91c0-3.67,0-7.35,0-11,0-.6.13-.92.84-.91s.65.46.65.91Z"/><path class="cls-1" d="M265.19,84.56V90c0,.46.06.91-.64.92s-.83-.34-.83-.93c0-3.67,0-7.33,0-11,0-.6.14-.93.84-.91s.62.49.63.93Z"/><path class="cls-1" d="M248.45,57.79c-1.79-2.1-2.77-4.69-5.49-6.4,1.79,0,3.22,0,4.64,0,.66,0,.87.26.86.89C248.43,54.11,248.45,56,248.45,57.79Z"/><path class="cls-1" d="M91.94,89.75c0,1.45-.74,2.57-1.14,3.8A.6.6,0,0,1,90,94c-.42-.15-.2-.49-.15-.76a13.92,13.92,0,0,0,.64-4c0-.61.4-.58.82-.57C92.23,88.63,91.79,89.39,91.94,89.75Z"/><path class="cls-1" d="M17.59,73.38c0,.57.12,1.08-.7,1.1s-.84-.47-.82-1.06-.05-1,.72-1S17.61,72.89,17.59,73.38Z"/><path class="cls-1" d="M265.19,73.37c0,.63.08,1.11-.72,1.1s-.75-.46-.76-1,0-1.1.84-1.06S265.14,73,265.19,73.37Z"/><path class="cls-1" d="M174.55,81.81c2.07-1.68,2.6-3.09,2-5.07s-2.31-2.84-4.28-3c-1.8-.13-3.62,0-5.44-.09-.7,0-.83.32-.83.92,0,5.14,0,10.28,0,15.42,0,.65.21.89.87.88,2,0,4,0,6,0,2.6-.1,4.37-1.51,4.75-3.64C178.11,84.69,177.17,83,174.55,81.81Zm-7.12-3.74c0-3.16,0-3.16,3.24-3.14a7.44,7.44,0,0,1,2.52.29,2.83,2.83,0,0,1,2.08,3,2.78,2.78,0,0,1-2.09,2.94c-1.72.52-3.49.2-5.24.26-.49,0-.51-.37-.51-.74C167.44,79.78,167.43,78.93,167.43,78.07Zm5.78,11.49c-1.66.15-3.33.08-5,.14-.72,0-.82-.35-.8-.94,0-.9,0-1.81,0-2.72,0-3.45,0-3.46,3.42-3.45a9.46,9.46,0,0,1,2.85.23,3.33,3.33,0,0,1,2.58,3.59A3.17,3.17,0,0,1,173.21,89.56Z"/><path class="cls-1" d="M156.24,89.46a1.54,1.54,0,0,1-.25-2.41,5.48,5.48,0,0,0,.86-3c0-.39.16-.83-.5-.86s-.8.17-.82.76a7.19,7.19,0,0,1-.66,2.47c-.3.72-.6.79-1.12.15-1.08-1.34-2.17-2.66-3.35-3.9-.71-.76-.78-1.23.15-1.85a11,11,0,0,0,2.15-1.87,3.33,3.33,0,0,0-2.23-5.45c-1.52-.17-3,0-3.94,1.36a3.74,3.74,0,0,0-.22,4.42c1.31,1.79.79,2.67-.65,4a4.38,4.38,0,0,0,2.05,7.64,6.38,6.38,0,0,0,5.12-.65c1-.68,1.79-1.14,2.61.23.36.6,1.07.37,1.93.23A12.86,12.86,0,0,0,156.24,89.46ZM149,74.77a2.22,2.22,0,0,1,2.77.94,2.49,2.49,0,0,1-.72,3.23,1.28,1.28,0,0,1-.23.19c-.77.39-1.37,1.66-2.18,1.2a3.54,3.54,0,0,1-1.37-3A2.39,2.39,0,0,1,149,74.77Zm3.87,14a5.41,5.41,0,0,1-3.37,1.08c-2,0-3.34-.9-3.77-2.57a4.68,4.68,0,0,1,2.3-4.56c.43-.23.63-.09.88.2,1.37,1.6,2.73,3.21,4.12,4.79C153.47,88.24,153.32,88.5,152.87,88.81Z"/><path class="cls-1" d="M12.49,79.84a6.89,6.89,0,0,0-7-6.16c-1.36,0-2.73.06-4.08,0C.33,73.59,0,73.89,0,75c.09,2.41,0,4.83,0,7.25s0,5,0,7.56c0,.88.26,1.14,1.11,1.11,1.56-.06,3.13,0,4.69,0A6.86,6.86,0,0,0,12.46,85,16.59,16.59,0,0,0,12.49,79.84ZM11,84.8a5.63,5.63,0,0,1-5.53,4.86c-4,.28-4,.28-4-3.6V82.28c0-2.12,0-4.24,0-6.35,0-.8.23-1.07,1-1s1.82,0,2.72,0a5.65,5.65,0,0,1,5.8,4.9A14.07,14.07,0,0,1,11,84.8Z"/><path class="cls-1" d="M234.23,90.26c-.44-2.86-.09-5.74-.23-8.6-.11-2.11-1.35-3.37-3.65-3.74s-4.75.61-5.41,2.34c-.16.4-.61,1,.1,1.29s.91-.1,1.2-.72c.9-1.93,4.08-2.37,5.58-.86a3.18,3.18,0,0,1,.69,3.12c-.25,1-1.29.41-1.95.43-1.72.06-3.44,0-4.94,1.07a3.4,3.4,0,0,0-1.43,4,3.27,3.27,0,0,0,3,2.54A5.78,5.78,0,0,0,232.56,89c.1.71.13,1,.19,1.39.11.67.64.5,1.07.51S234.28,90.59,234.23,90.26Zm-2.06-2.33a4.84,4.84,0,0,1-4.95,1.81A2.22,2.22,0,0,1,225.56,88a2.26,2.26,0,0,1,.86-2.28c.87-.76,1.82-1,4-1a.38.38,0,0,1,.15,0c.64.15,1.64-.43,1.89.32A3.26,3.26,0,0,1,232.17,87.93Z"/><path class="cls-1" d="M121.91,78.05a5.27,5.27,0,0,0-6.33,2.84,8.56,8.56,0,0,0-.63,5.18c.78,5.48,5.94,5.93,8.88,4.22.4-.24,1.17-.41.77-1.2-.49-.94-.92-.1-1.29.11-3.35,1.81-6.41.32-7-3.39-.14-.94,0-1.44,1.1-1.34s2.12,0,3.18,0h3.63c.54,0,.92,0,1-.77C125.46,81.13,124.06,78.66,121.91,78.05Zm.89,5.19c-.9-.06-1.81,0-2.71,0s-1.91,0-2.86,0c-.6,0-.78-.17-.7-.78a4.07,4.07,0,0,1,3.72-3.37,3.4,3.4,0,0,1,3.46,3.11C123.83,83,123.64,83.3,122.8,83.24Z"/><path class="cls-1" d="M73.17,84.47c1,.1,2.11,0,3.17,0s2.42,0,3.63,0c.59,0,.88-.08.92-.8.19-2.88-1.23-5.19-3.62-5.72A5.3,5.3,0,0,0,71,81.61a9.05,9.05,0,0,0-.25,4.92,5.71,5.71,0,0,0,8.82,3.75c.39-.24,1.17-.39.75-1.19S79.36,89,79,89.2c-3.3,1.79-6.54.21-6.95-3.4C71.93,84.89,72,84.36,73.17,84.47Zm-.56-3.09a3.62,3.62,0,0,1,4.16-2.2,3.35,3.35,0,0,1,2.61,3.09c.07.71-.09,1-.85,1-1,0-1.91,0-2.86,0h-2C72,83.22,71.83,83,72.61,81.38Z"/><path class="cls-1" d="M275.89,78.14a5.56,5.56,0,0,0-7.37,4.06c-1.08,4.29.86,8.29,4.29,8.86l.45,0c3.9.33,6.37-2.24,6.36-6.64C279.62,81.33,278.21,78.94,275.89,78.14ZM277.34,88a3.84,3.84,0,0,1-6.79-.07,6.77,6.77,0,0,1,0-6.81A3.84,3.84,0,0,1,277.3,81a6,6,0,0,1,.86,3.47A6.15,6.15,0,0,1,277.34,88Z"/><path class="cls-1" d="M52.62,78a5.49,5.49,0,0,0-7,4.29c-1,4.11.75,7.9,4,8.67a4.85,4.85,0,0,0,.75.11c3.9.36,6.38-2.2,6.38-6.59C56.74,81.12,55.19,78.68,52.62,78ZM50.94,89.89c-2.49-.06-4.07-2.15-4.07-5.38s1.68-5.44,4.21-5.43,4.25,2.2,4.25,5.42S53.6,90,50.94,89.89Z"/></g></g></svg>