<svg xmlns="http://www.w3.org/2000/svg" viewBox="0 0 400 400"><defs><style>.cls-1{fill:#fff;}.cls-2{fill:none;}</style></defs><title>Asset 105</title><g id="Layer_2" data-name="Layer 2"><g id="Layer_1-2" data-name="Layer 1"><path class="cls-1" d="M76.08,192.88c2.9-3.82,4.23-8.37,5.88-12.77.74-1.27,1.87-1.48,3.26-1.47,8.32.06,16.64,0,25,.05,4.15,0,6,1.95,6,6.12.13,6.69-8.19,18.28-17.18,17.67-3.18-.22-6.39.09-9.58.16l-.24.15.14.25c-3.82-1.15-7.71-.46-11.57-.42a6,6,0,0,0-3.32,0l-1.6-.67,0-.84a2.05,2.05,0,0,0,.93-1.87A5.47,5.47,0,0,0,75.16,196Zm12.55.54v0c-.54.75-1.77,1.53.09,2.18,3.24,0,6.55,1,9.67-.7,1,0,1.27-.78,1.6-1.49a1.94,1.94,0,0,0,1-1.52c.94-1.79,2.77-3.39,1.24-5.71a.35.35,0,0,0-.26-.41c-.46-1.11-1.38-1.13-2.36-1l-2,0c-5.68-.62-5.68-.62-7.71,4.6-.19.49-.32,1-.49,1.51l-.29,1A1.4,1.4,0,0,0,88.63,193.42Z"/><path class="cls-1" d="M147.16,178.48c2,.07,4,.12,6,.21,3.46.15,4.33,1.5,3.77,4.9-.36,2.18-1.64,3.88-2.31,5.87-1.6,1.37-3.07,3.13-5.23,3.39-3.43.41-2.74,1.86-1.53,4,1,1.71,2.35,3.29,2.42,5.42a35,35,0,0,1-3.83,0c-2.69-.28-5.56.93-8.05-1-.67-3.19-3.22-5.46-4.18-8.51-1.59-4.37-1.59-4.36,3.19-4.39a18.88,18.88,0,0,0,4.13-.25,2.55,2.55,0,0,0,2.15-2.79c-.19-1.49-1.61-1.12-2.6-1.15-2.34-.06-4.68,0-7,0-1.25,0-2.3.23-2.78,1.61-1,3-2.82,5.71-3.51,8.86l-.28.63a18.19,18.19,0,0,0-1.75,3.68c-.67,2.84-2.37,3.62-5.1,3.39a43.06,43.06,0,0,0-5.66.22l-1.28-.15-.56-.69,9.63-22.94,2.5-.35Z"/><path class="cls-1" d="M155,193.68c1.72-3.62,3-7.41,6-10.38,2.37-2.38,5-4.35,8.24-4.45,9.18-.3,18.37-.1,27.63-.1a8.21,8.21,0,0,1-7.39,5.46c-3.86,0-7.71,0-11.57,0a13,13,0,0,0-2.87.18c-1.92.46-4.4,1.43-4.31,3.21.07,1.56,2.7.66,4.17.72,3.64.13,7.28,0,10.92.07.5,0,1.14-.18,1.43.43s-.15,1-.53,1.37c-1.85,1.78-3.61,3.45-6.63,3.14a84.62,84.62,0,0,0-9.95-.09c-.86,0-2.13-.41-2.31,1a2.28,2.28,0,0,0,1.65,2.49,9,9,0,0,0,2.83.37c4.61,0,9.21,0,13.82,0,1,0,2.15-.39,3.16.71-2.27,2.58-4.44,4.81-8.46,4.62-7.59-.36-15.2-.26-22.8-.35l-1.33-1c-.23-.26-.46-.52-.68-.79a.35.35,0,0,0-.23-.42,2.17,2.17,0,0,0-.8-1.69Z"/><path class="cls-1" d="M295.05,202.6c-3.2-.06-6.4-.21-9.59-.15-2.32,0-3.17-.49-2-2.92,1.7-3.67,3.1-7.49,4.77-11.19.83-1.83.52-2.55-1.55-2.43-.69,0-1.69.33-2-.49-.4-1,.69-1.44,1.27-2,2.62-2.44,4.92-5.47,9.15-4.92l5.15,0,.3.11.3-.12,1.28.05c3.64.38,3.62.38,2.22,3.85-1,2.55-2,5.12-3,7.67l0,0a1.52,1.52,0,0,0-.73,1.47l-.37,1.26-.46.65-1.89,5a3.5,3.5,0,0,0-1.17,2.55Z"/><path class="cls-1" d="M316.91,202.66l-12.2-.25h0c.67-4.38,3.19-8.07,4.67-12.15s1.61-4.08-2.56-4.54c-.14,0-.26-.28-.41-.47.46-1.68,2.78-2,3-3.9l.56-.57c1.89-.74,3.37-2.47,5.63-2.3h5.16c1.06.06,2.12.17,3.18.18,3.84.05,3.74,0,2.36,3.65-2.23,5.87-5.25,11.43-7,17.48a.46.46,0,0,0-.24.52,3.11,3.11,0,0,0-1.1,2Z"/><path class="cls-1" d="M81.6,220.93c-.38-1.3.13-2.78-.78-4-1.84.73-.92,3.67-3.26,3.94-.54-.89-.41-2.11-1.37-2.79-.38-.45-.19-1.4-1-1.38s-.67.68-.71,1.19c-.07.94-.13,1.88-.2,2.81L74,221l.18.13h-.06c.52-.62-.1-.62-.42-.78a12.92,12.92,0,0,1,0-6.62c.16-.57.11-1.47,1-1.34.4.06.85.65,1,1.1.61,1.54,1,4.09,2.34,4.08,1.61,0,1.83-2.53,2.28-4.11.49-1.77,1.5-1,2.47-.72l.1,1.94L83,216C82,217.48,83.75,219.74,81.6,220.93Z"/><path class="cls-1" d="M166.07,215.21c-.94.84-.64,1.8-.42,2.85s.78,2.29-.8,2.87c-.15-.38-.29-.76-.44-1.15a.91.91,0,0,0-.24-1.13c-.17-1.6-1.39-1.36-2.41-1.3s-1.32.88-1.34,1.82c0,.77,0,1.62-1.19,1.34a1.21,1.21,0,0,1-.8-1.79,10.66,10.66,0,0,0,.66-3.06c.12-1.36-.94-3.47,1.84-3.51C163.29,212.11,165.85,211.67,166.07,215.21Z"/><path class="cls-1" d="M305.82,217.91c-.19,1-.37,2-.55,3-2.09-.05-2.12-2.12-3.15-3.2-.56-.58-.79-1.8-1.81-1.52s-.56,1.41-.68,2.19.16,1.45-1.14,2.35c0-2.74,0-5,0-7.29a1.41,1.41,0,0,1,.64-1c.59-.32.92.16,1.23.63,1,1.49,2,2.95,3.19,4.7,1.25-1.79.76-3.46.77-5l.23-.12,0-.26.72-.13a2.16,2.16,0,0,0,.56,1.78A7.49,7.49,0,0,0,305.82,217.91Z"/><path class="cls-1" d="M318.69,219.75c-2.24,1.65-4.75,2.05-7,.54-1.9-1.26-1.73-3.48-1.19-5.53.6-2.3,2.59-2.56,4.45-3l1.24.33a1.17,1.17,0,0,0,1.12.74c.22.57.43,1.15.65,1.72a3.86,3.86,0,0,1-1.18-.45c-1.37-1.22-2.82-1.67-4.27-.27s-1.22,3.08-.68,4.79c.36,1.13,1.23,1.33,2.27,1.37a2.61,2.61,0,0,0,2.39-1.31c1.05-1.51-1.35-1.12-1.27-2.15a5.44,5.44,0,0,1,2.95.07A4.23,4.23,0,0,1,318.69,219.75Z"/><path class="cls-1" d="M87,221c.31-3.27,1.81-5.41,2.59-7.78.4-1.18,1.57-1.48,2.24.1.93,2.14,1.8,4.31,2.76,6.44.21.46.33.73-.15,1s-.7.1-1-.24C90.21,217.53,90,217.54,87,221Z"/><path class="cls-1" d="M99.19,212.13c2,7,3.62-.81,5.52.58.25,1.52-2.86,1.75-1.89,3.67.71,1.38,1.68,2.63,2.74,4.26-1.77.08-2-1.15-2.64-1.82s-.91-1.93-2.14-1.51c-.93.32-1,1.32-1,2.19,0,.42,0,.86-.46,1.08C98.48,218.62,98.4,216.16,99.19,212.13Z"/><path class="cls-1" d="M199.44,220.69c.76-2,1.48-4,2.29-6,.38-.92.38-2.38,1.78-2.31,1.15.06,1.16,1.36,1.53,2.21.77,1.74,1.05,3.7,2.28,5.24-.24.69-.79.78-1.41.75a2.17,2.17,0,0,0-2.38-2.31c-1.49,0-2.46.39-2.63,2Z"/><path class="cls-1" d="M259.55,220.7a.28.28,0,0,0-.33.22l-.42.3h-.05l-1.28-1c-1.51-4.51-2.79-.49-4.54.24,2.16-2.8,2.28-5.41-.21-8.19,2.06,1.79,3.8,3.79,6.07,0-2.46,3.26-1.74,5.82.6,8.17Z"/><path class="cls-1" d="M138.34,217.2c.25-1.23-.53-2.19-.89-3.25-.28-.88-.16-1.42.83-1.57L139,214a1.26,1.26,0,0,0,.61,1.3c-.28,1,.28,1.84.55,2.81,2.31-1.25,1.67-4.13,3.54-5.54-.62,3.28-.88,6.7-3.86,9l0-.08A9.49,9.49,0,0,0,138.34,217.2Z"/><path class="cls-1" d="M115.11,216.43c-1.38,1-4-.56-3.83,2.11s2.92.66,4.68,2.24c-2.25.17-4.69.93-5.5-.48-1.08-1.87-.81-4.46.11-6.72,1-2.54,3-.9,4.92-1.49-1.2,1.86-4.34-.24-4.23,2.54C111.36,217.17,114,215.18,115.11,216.43Z"/><path class="cls-1" d="M224.87,212.53c1.22-1.09,2.09.36,3.15.44.61,0,1.35.08,1.56-.72a1,1,0,0,0-.33-.79,1.31,1.31,0,0,0-1.49,0c-1.13.62-.95,1.82-1.19,2.81a2.08,2.08,0,0,0,1.08,2.15c.37.26.81.38,1.12,0a.87.87,0,0,0,.07-.81c-.38-.62-1-.44-1.3,0-.68.89-1.49,1.84-.52,3,.9,1.84,3.06.85,4.29,1.92l-1.84.6c-1.42-.67-3.46.7-4.47-1.35a8.59,8.59,0,0,0,0-4.5c0-.43,0-.85,0-1.28l-.25-1.19.16-.11Z"/><path class="cls-1" d="M132.89,219.94c-2.6,2-5.1,1.41-5.9-1.44v-1.26c.93-1.66-1-4.17,1.58-5.35a3,3,0,0,0,2.53,0c0,.48,1.7.12.64,1.06-.79.69-2.81-.8-2.83,1.51,0,2.49,2.4.84,3.27,1.82-.88,1.49-4.18-.46-3.65,2.35C129,221,131.41,219.47,132.89,219.94Z"/><path class="cls-1" d="M216.65,220a2.29,2.29,0,0,1-2.3-2.3c.79-.15,2.16,1.4,2.44-.64.12-.82.64-1.58.77-2.39.18-1.14.6-2.26,1.75-2.28,1.3,0,.56,1.61,1.22,2.26a8.65,8.65,0,0,0,0,4.49v.63c-.37.45-.77,1.24-1.24.15-.39-.92.2-2.06-.66-3.16C217.33,217.54,217.2,218.93,216.65,220Z"/><path class="cls-1" d="M171.37,212.59c.52,1.14.46,3.13,2.38,2.53,1-.32,1.27-2.08,3-3-1.16,3.12-3.46,5.19-3.5,8.36.57-3.5-3.41-5.2-2.91-8.54Z"/><path class="cls-1" d="M150.33,214.11c-.09,2.49,2.3,1.18,3.34,2.1-.44,1.17-1.42.69-2.13.77-1.08.11-1.9.4-1.79,1.7s1,1.14,1.89,1.18,1.66-.23,2.4.51c-4.74,1.67-5.64,1.06-5.64-3.67v-4.16C150,211.87,149.7,213.58,150.33,214.11Z"/><path class="cls-1" d="M242.18,215.31c.73-3.54.82-3.58,6-2.43-3.66.32-5.45,1.87-4.66,5.56.61,2.83,3.21.59,4.54,2.21l-4.42.51C241.27,219.66,243,217.17,242.18,215.31Z"/><path class="cls-1" d="M292.66,212.71a9.94,9.94,0,0,1,0,7.7Z"/><path class="cls-1" d="M211.13,219.17c1-2.16-.45-4.79,1.26-6.86.31,2.34,2,4.4,1.13,6.86C212.72,219.84,211.92,221.87,211.13,219.17Z"/><path class="cls-1" d="M237.47,178.58a2.74,2.74,0,0,1-.31,2.14c-2.68,6.38-5.38,12.75-7.94,19.18-.75,1.89-1.8,2.8-3.81,2.53-.32,0-.64,0-1,0-2.33-.12-5.51,1.06-6.78-.47-1.46-1.76,1-4.23,1.76-6.36.65-1.83.11-2.32-1.62-2.26a20.62,20.62,0,0,1-3.85,0c-5.72-.86-10,.57-11.47,6.83-.43,1.79-1.81,2.45-3.68,2.34-2.13-.13-4.28-.05-6.41,0-1.75,0-2.42-.54-1.56-2.31,2.74-5.67,5.19-11.48,8.24-17a8.57,8.57,0,0,1,7.93-4.57c8.34.12,16.68.07,25,.07,1.05,0,2.11-.13,3.17-.19l.19-.08a2.21,2.21,0,0,0,1.81.15l.12.12Zm-21.81,9.8v-.07c1.91,0,3.83,0,5.74,0,1.59,0,1.66-1.42,2-2.46.25-.67.15-1.41-.68-1.45-3.82-.18-7.67-.49-11.45.15a2.81,2.81,0,0,0-2.23,3.11c.24,1.34,1.79.61,2.75.69C213.1,188.46,214.38,188.38,215.66,188.38Z"/><path class="cls-1" d="M262.37,189.72c-2.88,2.34-5.8,4.62-8.61,7-1.54,1.31-2.48,1.46-3.15-.75a39.84,39.84,0,0,0-1.78-4.46c-.32-.73-.27-1.95-1.36-1.89s-1.06,1.24-1.38,2c-1.25,2.82-2.47,5.67-3.57,8.56a3.09,3.09,0,0,1-3.36,2.26c-11.22-.11-9.27,1.17-5.66-8.19,1.73-4.49,3.92-8.79,5.68-13.27.72-1.83,1.74-2.3,3.59-2.33,8.86-.11,9.23.06,11.61,8.64.6,2.15,1.27,1.67,2.54.65,3.32-2.65,6.75-5.17,10.07-7.82s7.4-1.15,11.13-1.27c1.15,0,.73,1.3.4,2.07-2.8,6.59-5.65,13.17-8.43,19.77a2.47,2.47,0,0,1-2.67,1.75c-2.14-.08-4.29-.1-6.42,0s-2.59-.81-1.78-2.68c1.33-3.11,2.6-6.24,3.9-9.36Z"/><path class="cls-1" d="M263.1,218.08c.16-1,.25-2.1.5-3.11A3.63,3.63,0,0,1,267,212c1.66-.16,3.16.14,4,2.6-2.23-1.29-4.32-2.79-5.89-.13a3.64,3.64,0,0,0,.5,4.72c2.09,1.94,3.54.09,5.21-1.1a3.08,3.08,0,0,1-2.53,2.92c-2.61.63-3.87-1.1-5.07-2.92Z"/><path class="cls-1" d="M194.7,214.31c-1.88-1.26-3.74-2.28-5.3.07a3.63,3.63,0,0,0,.5,5,2.51,2.51,0,0,0,3.5,0c1.4-1.15.16-1.89-.84-2.78,1.65-.41,2.8-.59,2.93,1.38.1,1.45.16,2.5-1.93,2.79s-3.89.51-5.2-1.25a5,5,0,0,1-.28-5.45c.82-1.68,2.29-2.13,4-2A2.43,2.43,0,0,1,194.7,214.31Z"/><path class="cls-1" d="M287.77,213.18c-1.86-.31-2.44.63-2.5,2.35,0,1.56.36,3.16-.41,5.05-2-2.54,1.3-6.86-3.24-8.13,2.16.15,4.34-1.33,6.12.75Z"/><path class="cls-1" d="M276.36,212.8a13,13,0,0,1,.06,7.58A12.19,12.19,0,0,1,276.36,212.8Z"/><rect class="cls-2" width="400" height="400"/></g></g></svg>