<svg xmlns="http://www.w3.org/2000/svg" viewBox="0 0 400 400"><defs><style>.cls-1{fill:#fff;}.cls-2{fill:none;}</style></defs><title>Asset 109</title><g id="Layer_2" data-name="Layer 2"><g id="Layer_1-2" data-name="Layer 1"><path class="cls-1" d="M68.23,174.45a25.55,25.55,0,1,1-25.29,25.61A25.49,25.49,0,0,1,68.23,174.45Zm17.64,25.66A17.56,17.56,0,0,0,68,182.26c-9.39,0-17.38,8.21-17.35,17.78a17.86,17.86,0,0,0,17.79,17.73A17.67,17.67,0,0,0,85.87,200.11Z"/><path class="cls-1" d="M113.08,219.13c-3.34-8.84-6.4-16.93-9.45-25-1.24-3.28-2.35-6.6-3.69-9.84-.72-1.73-.25-2,1.47-2.21,3.44-.43,5.25.68,6.27,4.17,1.44,5,3.49,9.75,5.54,15.3l9.61-20.07,9.28,20.06c2.35-6,4.45-11.4,6.59-16.79.47-1.19.58-2.63,2.54-2.62,6.07,0,5.3-.3,3.45,4.57-4,10.54-7.85,21.16-12,32.43l-9.83-22.49Z"/><path class="cls-1" d="M200.37,201.57,210,181.46l9.3,20c2.2-5.6,4.38-10.52,6-15.6,1-3,2.36-4.07,5.55-3.87,2.58.16,2.4.9,1.68,2.8-3.44,9.08-6.77,18.21-10.14,27.32-.78,2.11-1.59,4.21-2.6,6.87-3.31-7.57-6.41-14.64-9.81-22.4-3.29,7.61-6.35,14.67-9.75,22.5-3.31-8.77-6.37-16.82-9.4-24.88-1.24-3.27-2.31-6.62-3.69-9.84-.86-2-.11-2.12,1.64-2.35,3.38-.45,5,.79,6,4.09C196.29,191.18,198.34,196.05,200.37,201.57Z"/><path class="cls-1" d="M329.79,199.64c-2.48,2.63-5.13,5.14-7.41,7.94-1.82,2.25-3,2.66-5,.12-2.28-2.9-5-5.43-8.23-8.81,0,5.86-.21,10.9.08,15.91.18,3-1.21,3.15-3.56,3.19s-3.34-.35-3.29-3.08c.18-10.32.07-20.65.07-31v-3.06c5.31,6,10.17,11.36,14.74,16.92,1.9,2.31,2.91,2.56,4.94.09,4.58-5.56,9.51-10.84,15-17V197c0,6.13-.14,12.26.07,18.39.09,2.72-1.36,2.54-3.16,2.53s-3.54.34-3.4-2.63c.24-5.15.07-10.33.07-15.5Z"/><path class="cls-1" d="M185.33,200.23c-.12,10.18-8.91,18.51-19.3,18.3a18.86,18.86,0,0,1-18.8-18.81c.07-10,8.63-18.23,19-18.23C177,181.49,185.45,189.75,185.33,200.23Zm-18.88-12.92a12.61,12.61,0,0,0-13,12.41,12.85,12.85,0,0,0,25.69.33A12.61,12.61,0,0,0,166.45,187.31Z"/><path class="cls-1" d="M299.34,199.79a19,19,0,1,1-19.19-18.31C290.81,181.45,299.3,189.54,299.34,199.79Zm-6.28,0a12.74,12.74,0,0,0-25.47.22,12.74,12.74,0,0,0,25.47-.22Z"/><path class="cls-1" d="M340,200.15c0-5.21.06-10.42,0-15.63,0-1.77.52-2.38,2.31-2.35,4.07.09,8.16.14,12.22-.08,3.17-.17,2.28,2,2.42,3.61s.26,3.27-2.28,3a30.94,30.94,0,0,0-3.73,0c-4.54,0-5.51,1.3-4.54,5.81a1.33,1.33,0,0,0,1.58,1.27c1.58,0,3.17.08,4.75,0,2.24-.15,3.75-.13,3.67,3.05-.06,2.82-1,3.29-3.48,3.25-6.84-.12-6.78,0-6.51,6.87.07,1.73.47,2.45,2.3,2.32,2-.14,4.09.12,6.11-.07,2.3-.22,2.45,1.12,2.1,2.67s1.34,3.95-2,3.9c-4.3-.07-8.61-.1-12.91,0-1.79.05-2-.78-2-2.25C340.08,210.34,340,205.25,340,200.15Z"/><path class="cls-1" d="M258.79,208.32c-.31,3.74-2.75,7.12-7,9-4.61,2.09-9,1.39-13.09-1.66-.63-.48-1.1-1.19-1.76-1.6-2.9-1.83-2.21-3.44,0-5.32,1.09-.91,1.65-1.11,2.7,0a12.51,12.51,0,0,0,5.77,3.39c3,.9,5.15-.08,6.48-2.76,1.41-2.83.35-5.11-2.18-6.64a64.83,64.83,0,0,0-6.09-3c-5.67-2.67-7.76-5.93-6.83-10.65.85-4.27,5-7.39,10.38-7.72a14.38,14.38,0,0,1,6.95,1.3c3.49,1.62,3.57,2.44,1.09,5.29-1,1.15-1.76,1.43-3.05.51a7.21,7.21,0,0,0-5.51-1.13c-1.78.29-3.29,1.08-3.62,3s.85,3.21,2.54,3.94c2.07.89,4.23,1.59,6.27,2.56C256.23,199,258.84,202.32,258.79,208.32Z"/><path class="cls-1" d="M68.21,199.35c-1-2.49-2-5-3.09-7.45-.74-1.66-.17-2.18,1.45-2.43A10.7,10.7,0,1,1,62,208.67c-3.56-2.48-5.24-8-3.8-12.17.72-2.12,1.68-2.49,3.51-1s4,2.9,6,4.33Z"/><rect class="cls-2" width="400" height="400"/></g></g></svg>