<svg xmlns="http://www.w3.org/2000/svg" viewBox="0 0 400 400"><defs><style>.cls-1{fill:#fff;}.cls-2{fill:none;}</style></defs><title>Asset 115</title><g id="Layer_2" data-name="Layer 2"><g id="Layer_1-2" data-name="Layer 1"><path class="cls-1" d="M220.14,204.34c0-6.64,0-13.27,0-19.9,0-.79.11-1.14,1-1.14,8,0,16,.07,23.93,0a4.11,4.11,0,0,1,3.82,6.17,3.89,3.89,0,0,1-3.83,2c-5.22,0-10.44,0-15.66,0-.91,0-1.18.23-1.13,1.14a40.64,40.64,0,0,1,0,4.13c0,.76.19,1,1,1,3-.05,6.09-.06,9.13,0,3.32.05,5.21,2.85,4,5.8a3.58,3.58,0,0,1-3.69,2.29c-3.09,0-6.17,0-9.25,0-.91,0-1.14.26-1.13,1.15.05,3.08.06,6.16,0,9.24,0,.95.27,1.11,1.14,1.1,5.3,0,10.59,0,15.88,0a4.07,4.07,0,0,1,3.69,6,3.49,3.49,0,0,1-3.28,2.1c-1.93,0-3.85,0-5.77,0-6.27,0-12.54,0-18.81,0-.83,0-1-.22-1-1C220.15,217.61,220.14,211,220.14,204.34Z"/><path class="cls-1" d="M160.87,183.33c5.92.06,11.14,1.38,15.36,5.47,1.85,1.8,2,4,.34,5.77a3.71,3.71,0,0,1-5.67.12c-3.92-4.41-14.1-4.23-18.06-1.31a9.85,9.85,0,0,0-3.7,5.08c-1.2,3.92-1.39,7.86.32,11.67a12.77,12.77,0,0,0,13.42,7.18,13.74,13.74,0,0,0,7.79-3.18c1.59-1.4,3.86-1,5.3.75a3.8,3.8,0,0,1-.36,5.37,16.86,16.86,0,0,1-6.82,3.89c-5.67,1.64-11.36,1.8-16.75-.79-7.33-3.53-11.25-9.56-11.73-17.69-.3-5,.54-9.91,3.48-14.18a18.28,18.28,0,0,1,13-7.82C158.23,183.45,159.67,183.39,160.87,183.33Z"/><path class="cls-1" d="M342.38,221.16a4,4,0,0,1-4.14,4.09,4.13,4.13,0,1,1,4.14-4.09Z"/><path class="cls-1" d="M61.19,209.12a3.78,3.78,0,1,1,0,7.56,3.78,3.78,0,1,1,0-7.56Z"/><path class="cls-1" d="M125.28,213a3.77,3.77,0,0,1-3.85,3.71,3.84,3.84,0,0,1-3.73-3.76,3.79,3.79,0,0,1,3.89-3.79A3.73,3.73,0,0,1,125.28,213Z"/><path class="cls-1" d="M61.26,226.3A3.79,3.79,0,1,1,57.39,230,3.84,3.84,0,0,1,61.26,226.3Z"/><path class="cls-1" d="M108.06,230.12a3.79,3.79,0,1,1-3.75-3.82A3.79,3.79,0,0,1,108.06,230.12Z"/><path class="cls-1" d="M61.16,173.68a3.79,3.79,0,0,1-3.77-3.8A3.81,3.81,0,0,1,65,170,3.75,3.75,0,0,1,61.16,173.68Z"/><path class="cls-1" d="M61.19,191.94a3.78,3.78,0,1,1,0,7.55,3.78,3.78,0,1,1,0-7.55Z"/><path class="cls-1" d="M61.19,190.87a3.79,3.79,0,0,1-3.8-3.77,3.81,3.81,0,0,1,7.61,0A3.76,3.76,0,0,1,61.19,190.87Z"/><path class="cls-1" d="M125.28,169.91a3.7,3.7,0,0,1-3.76,3.77,3.78,3.78,0,0,1-3.82-3.74,3.87,3.87,0,0,1,3.79-3.82A3.8,3.8,0,0,1,125.28,169.91Z"/><path class="cls-1" d="M61.19,182.29A3.77,3.77,0,1,1,65,178.53,3.81,3.81,0,0,1,61.19,182.29Z"/><path class="cls-1" d="M104.29,174.75a3.77,3.77,0,1,1-3.8,3.77A3.74,3.74,0,0,1,104.29,174.75Z"/><path class="cls-1" d="M125.28,195.71a3.76,3.76,0,0,1-3.78,3.78,3.78,3.78,0,1,1,0-7.55A3.71,3.71,0,0,1,125.28,195.71Z"/><path class="cls-1" d="M82.18,169.93a3.65,3.65,0,0,1-3.74,3.75,3.76,3.76,0,0,1-3.79-3.76,3.84,3.84,0,0,1,3.79-3.8A3.74,3.74,0,0,1,82.18,169.93Z"/><path class="cls-1" d="M66.06,212.85a3.72,3.72,0,0,1,3.8-3.73,3.78,3.78,0,1,1-3.8,3.73Z"/><path class="cls-1" d="M109.12,169.91a3.8,3.8,0,0,1,3.78-3.79,3.92,3.92,0,0,1,3.81,3.82,3.81,3.81,0,0,1-3.84,3.74A3.68,3.68,0,0,1,109.12,169.91Z"/><path class="cls-1" d="M125.28,230.08a3.79,3.79,0,0,1-3.77,3.8,3.79,3.79,0,1,1,0-7.58A3.76,3.76,0,0,1,125.28,230.08Z"/><path class="cls-1" d="M125.28,178.51a3.74,3.74,0,0,1-3.77,3.78,3.77,3.77,0,1,1,0-7.54A3.72,3.72,0,0,1,125.28,178.51Z"/><path class="cls-1" d="M69.85,190.87a3.68,3.68,0,0,1-3.79-3.73,3.74,3.74,0,0,1,3.74-3.81,3.8,3.8,0,0,1,3.81,3.76A3.74,3.74,0,0,1,69.85,190.87Z"/><path class="cls-1" d="M66.06,195.76a3.71,3.71,0,0,1,3.71-3.82,3.78,3.78,0,1,1-3.71,3.82Z"/><path class="cls-1" d="M112.88,190.87a3.69,3.69,0,0,1-3.76-3.76,3.76,3.76,0,0,1,3.77-3.78,3.88,3.88,0,0,1,3.82,3.79A3.81,3.81,0,0,1,112.88,190.87Z"/><path class="cls-1" d="M125.28,187.09a3.71,3.71,0,0,1-3.75,3.78,3.78,3.78,0,0,1-3.83-3.73,3.83,3.83,0,0,1,3.78-3.81A3.76,3.76,0,0,1,125.28,187.09Z"/><path class="cls-1" d="M104.28,173.68a3.76,3.76,0,0,1-3.79-3.76,3.79,3.79,0,1,1,7.57,0A3.71,3.71,0,0,1,104.28,173.68Z"/><path class="cls-1" d="M112.94,226.3a3.79,3.79,0,1,1-.1,7.57,3.79,3.79,0,0,1,.1-7.57Z"/><path class="cls-1" d="M104.23,190.87a3.76,3.76,0,0,1-3.74-3.81,3.81,3.81,0,0,1,3.85-3.73,3.76,3.76,0,0,1,3.72,3.83A3.72,3.72,0,0,1,104.23,190.87Z"/><path class="cls-1" d="M82.18,195.68a3.71,3.71,0,0,1-3.74,3.81,3.78,3.78,0,1,1,0-7.55A3.68,3.68,0,0,1,82.18,195.68Z"/><path class="cls-1" d="M82.18,212.9a3.71,3.71,0,0,1-3.74,3.78,3.78,3.78,0,1,1,0-7.56A3.68,3.68,0,0,1,82.18,212.9Z"/><path class="cls-1" d="M69.8,173.68a3.68,3.68,0,0,1-3.74-3.78,3.76,3.76,0,0,1,3.78-3.78A3.84,3.84,0,0,1,73.61,170,3.74,3.74,0,0,1,69.8,173.68Z"/><path class="cls-1" d="M109.12,212.9a3.71,3.71,0,0,1,3.75-3.78,3.83,3.83,0,0,1,3.84,3.76,3.88,3.88,0,0,1-3.81,3.8A3.78,3.78,0,0,1,109.12,212.9Z"/><path class="cls-1" d="M87.08,173.68a3.78,3.78,0,0,1-3.82-3.74,3.81,3.81,0,0,1,7.62,0A3.8,3.8,0,0,1,87.08,173.68Z"/><path class="cls-1" d="M109.12,178.46a3.72,3.72,0,0,1,3.82-3.71,3.77,3.77,0,1,1-.11,7.54A3.73,3.73,0,0,1,109.12,178.46Z"/><path class="cls-1" d="M109.12,195.64a3.72,3.72,0,0,1,3.83-3.7,3.82,3.82,0,0,1,3.76,3.83,3.87,3.87,0,0,1-3.88,3.72A3.76,3.76,0,0,1,109.12,195.64Z"/><path class="cls-1" d="M61.19,208.06A3.76,3.76,0,1,1,65,204.31,3.79,3.79,0,0,1,61.19,208.06Z"/><path class="cls-1" d="M66.06,204.33a3.7,3.7,0,0,1,3.65-3.79,3.76,3.76,0,1,1,.17,7.52A3.7,3.7,0,0,1,66.06,204.33Z"/><path class="cls-1" d="M87,208.06a3.76,3.76,0,1,1,3.88-3.7A3.82,3.82,0,0,1,87,208.06Z"/><path class="cls-1" d="M99.44,169.91a3.75,3.75,0,0,1-7.5.09,3.75,3.75,0,1,1,7.5-.09Z"/><path class="cls-1" d="M61.23,217.75A3.72,3.72,0,0,1,65,221.52a3.81,3.81,0,0,1-7.61-.06A3.74,3.74,0,0,1,61.23,217.75Z"/><path class="cls-1" d="M69.82,217.75a3.75,3.75,0,1,1-3.76,3.77A3.65,3.65,0,0,1,69.82,217.75Z"/><path class="cls-1" d="M125.28,221.52a3.72,3.72,0,0,1-3.83,3.73,3.8,3.8,0,0,1-3.75-3.74,3.74,3.74,0,0,1,3.82-3.76A3.67,3.67,0,0,1,125.28,221.52Z"/><path class="cls-1" d="M125.28,204.26a3.7,3.7,0,0,1-3.73,3.8,3.76,3.76,0,1,1-.08-7.52A3.71,3.71,0,0,1,125.28,204.26Z"/><path class="cls-1" d="M112.85,217.75a3.75,3.75,0,1,1,.07,7.5,3.7,3.7,0,0,1-3.8-3.73A3.67,3.67,0,0,1,112.85,217.75Z"/><path class="cls-1" d="M99.44,230.11a3.75,3.75,0,1,1-7.5-.11,3.75,3.75,0,1,1,7.5.11Z"/><path class="cls-1" d="M108.06,221.49a3.79,3.79,0,1,1-3.8-3.74A3.67,3.67,0,0,1,108.06,221.49Z"/><path class="cls-1" d="M82.18,204.32a3.65,3.65,0,0,1-3.79,3.74,3.76,3.76,0,0,1,0-7.52A3.65,3.65,0,0,1,82.18,204.32Z"/><path class="cls-1" d="M91.94,178.49a3.75,3.75,0,1,1,3.75,3.8A3.68,3.68,0,0,1,91.94,178.49Z"/><path class="cls-1" d="M335.26,194.47c-1.72-2.23-1.63-3.56.24-5.25a4.76,4.76,0,0,1-1.24-1.6,3,3,0,0,1,2.62-4.23c1.62-.13,3.26,0,4.89-.07.47,0,.62.18.62.64s-.14.63-.62.62q-2,0-4,0c-1.69,0-2.58.79-2.55,2.14s1,2.15,2.59,2.16c1.3,0,2.61,0,3.91,0,.51,0,.7.13.69.67s-.15.68-.68.67c-1.41,0-2.82,0-4.24,0s-2.18.67-2.27,1.82a2.14,2.14,0,0,0,1.92,2.35,31.5,31.5,0,0,0,4.45.1c.46,0,.83,0,.83.65s-.45.6-.87.6c-2.07,0-4.13,0-6.2,0-.41,0-1.06.35-1.12-.56S334.72,194.46,335.26,194.47Z"/><path class="cls-1" d="M334.06,210.75a3.8,3.8,0,0,1,1-2.57c.23-.27.43-.59.86-.18s.44.52.11.95c-1,1.38-1.08,2.7-.21,3.76a3.34,3.34,0,0,0,3.94.86,2.91,2.91,0,0,0,1.07-4.55c-.3-.4-.64-.72-.07-1.13s.75.19,1,.46a4.19,4.19,0,0,1,.21,5A4.37,4.37,0,0,1,337,215,4.2,4.2,0,0,1,334.06,210.75Z"/><path class="cls-1" d="M288.62,192.66c-4.33-5.95-10.49-8.71-17.69-9.19-5.57-.38-11.16-.07-16.73-.16-.87,0-1.08.23-1.07,1.08,0,6.63,0,13.26,0,19.9s0,13.33,0,20c0,.73.14,1,.93,1,4.75,0,9.5,0,14.24,0a26.79,26.79,0,0,0,13.16-3.1C293.07,215.72,294.86,201.22,288.62,192.66Zm-14.1,23.63a21.78,21.78,0,0,1-6.21.88c-1.95,0-3.91,0-5.87,0-.87,0-1.17-.16-1.15-1.1.06-3.91,0-7.83,0-11.74s0-8,0-12c0-.76.21-1,1-1,3.29.13,6.6-.26,9.87.31,4.67.82,8.71,2.78,10.74,7.31C285.6,205.08,283.4,213.64,274.52,216.29Z"/><path class="cls-1" d="M206.62,210.65c.81-.3,1.46-.51,2.07-.8,5.46-2.61,7.68-7.15,7.75-13a13.28,13.28,0,0,0-13.61-13.56c-6.77.08-13.55,0-20.33,0-.91,0-1.14.23-1.13,1.13q0,15.45,0,30.88c0,2.06,0,4.13,0,6.2a3.7,3.7,0,0,0,3.32,3.68,4,4,0,0,0,4.84-4.15c0-5,0-10.07,0-15.11,0-.37,0-.75.06-1.43.59.65,1,1.08,1.35,1.49q8.47,8.88,16.94,17.77a4.06,4.06,0,1,0,6.1-5.34C211.61,215.84,209.15,213.3,206.62,210.65Zm-4-7.26c-4.12.13-8.25.05-12.37.07-.56,0-.66-.24-.66-.71,0-3.55,0-7.1,0-10.64,0-.65.31-.69.8-.68H202a6.09,6.09,0,0,1,5.61,3.06c1.26,2.2.87,4.51-.22,6.65C206.39,203,204.42,203.33,202.59,203.39Z"/><path class="cls-1" d="M330.66,199.48c1.37-8.13-4.19-16.23-13.3-16.16-6.82.05-13.63,0-20.45,0-.91,0-1.14.23-1.13,1.14,0,7,0,14,0,21,0,5.33,0,10.66,0,16a3.6,3.6,0,0,0,2.89,3.7c2.49.61,5.33-.77,5.27-4.06-.09-5,0-10.08,0-15.12,0-.37-.15-.78.26-1.26.25.3.46.59.71.85l17.4,18.23a4.12,4.12,0,0,0,2.69,1.48,4.2,4.2,0,0,0,4.16-2.38,3.85,3.85,0,0,0-.81-4.5c-2.41-2.55-4.84-5.08-7.35-7.71C326.63,208.85,329.71,205.13,330.66,199.48Zm-9,1.8c-1,1.78-2.88,2.05-4.63,2.11-4.16.13-8.33.05-12.49.07-.49,0-.62-.21-.62-.65,0-3.58,0-7.17,0-10.75,0-.69.41-.63.86-.63H311c1.81,0,3.62,0,5.43,0a6,6,0,0,1,5.64,3.21A6.72,6.72,0,0,1,321.68,201.28Z"/><path class="cls-1" d="M338.3,197.86a4.27,4.27,0,0,0,0,8.53,4.15,4.15,0,0,0,4.29-4.19A4.24,4.24,0,0,0,338.3,197.86Zm0,7.25a3,3,0,0,1-3.15-2.88,3.16,3.16,0,1,1,3.15,2.88Z"/><rect class="cls-2" width="400" height="400"/></g></g></svg>