<svg xmlns="http://www.w3.org/2000/svg" viewBox="0 0 400 400"><defs><style>.cls-1{fill:#fff;}.cls-2{fill:none;}</style></defs><title>Asset 104</title><g id="Layer_2" data-name="Layer 2"><g id="Layer_1-2" data-name="Layer 1"><path class="cls-1" d="M248.07,206.32c-.53,1.1-.92,1.88-1.29,2.68-1.61,3.49-3.08,4.18-6.94,3.49a1.82,1.82,0,0,1-1.62-1.38c-.09-.32-.24-.62-.35-.93q-3.9-10.58-7.8-21.17c5.12-1,5.12-1,6.67,3.54L242,207.78c6.49-6.36,2.14-12.57,0-18.73,4.72-.94,4.72-.94,7,5,1.77-2.74,2-7.6,7.24-5-2.16,5.82-8,11.46-1.89,18.54,2.27-4.92,4.86-9.84,6.83-15,1.37-3.57,3.33-4.89,7.22-3.69-3.67,7.55-7.21,15.15-11.08,22.57-1.09,2.1-3.66.66-5.54.92-1.54.22-1.6-1.18-2-2.18C249.33,209,249.24,207.66,248.07,206.32Z"/><path class="cls-1" d="M183.87,197.66c-.19,2.54-.38,5.08-.55,7.62-.23,3.54-2.15,5.69-5.43,6.74a19.52,19.52,0,0,1-10.5.32c-4.48-1-6.27-3.5-6.11-8.14s.56-9.06.65-13.6c0-2.95,2.12-1.76,3.53-2,2-.33,2.09.74,2,2.34-.32,3.86-.51,7.73-.68,11.6-.17,4.22,1.34,6.1,5,6.37s5.91-1.63,6.22-5.65c.33-4.19.66-8.39.7-12.59,0-3.3,2.33-1.79,3.75-2,2-.37,2,.88,1.84,2.41-.27,2.2-.32,4.42-.46,6.63Z"/><path class="cls-1" d="M317.59,212.07c-4.34,1.41-6.5-.09-7.7-4-.89-2.89-2.55-5.55-3.92-8.42,1.8-.49,3.4-.07,4.82-.83a3.65,3.65,0,0,0,2.2-4.05c-.29-1.74-1.64-2.16-3.17-2.36-4.56-.59-4.85-.37-5,4.15s-.52,9.07-.41,13.59c.07,2.81-1.61,2.2-3.21,2.36-2.12.21-2.28-.85-2.19-2.57q.5-9.45.74-18.9c0-1.83.61-2.54,2.52-2.46,3.21.15,6.42,0,9.62.09s5.66,1.3,6.36,4.71a6.24,6.24,0,0,1-4.1,7.42c-2.32.83-1.88,1.84-1,3.34.81,1.32,1.53,2.69,2.29,4S316.8,210.65,317.59,212.07Z"/><path class="cls-1" d="M328.17,199a77.28,77.28,0,0,0,5.14-6.48c2.07-3.23,4.58-5,9-3.49-2.1,2.48-4,5.1-6.3,7.33s-2.72,4.25-.28,6.86,4.46,5.69,6.95,9c-3.81.49-6.75.92-8.71-3a32.6,32.6,0,0,0-6.63-8.37c-.15,3.16-.46,6.32-.4,9.47s-2.2,1.95-3.7,2.18c-2.14.32-1.88-1-1.81-2.47.33-6.3.76-12.61.75-18.91,0-3.32,2.06-2.3,3.73-2.49,2.42-.27,2,1.32,1.9,2.77-.16,2.5-.25,5-.37,7.49Z"/><path class="cls-1" d="M200,192.44c-3.76,0-6.82,0-9.87,0-1.17,0-2.22.18-2-1.65.18-1.3.13-2.29,2-2.24,4.42.12,8.85,0,13.28.07,1.12,0,2.87-.75,3.28.58a4.74,4.74,0,0,1-1,4.64c-3.48,4-6.8,8.15-10.18,12.24-.55.66-1.08,1.34-2,2.51,3.82,0,7.16,0,10.51,0,1.11,0,2-.08,1.82,1.47-.12,1.2.19,2.46-1.76,2.44-5.31-.08-10.62,0-15.93-.06-1.88,0-2.28-2.79-.61-4.87,2.91-3.63,5.94-7.15,8.91-10.72C197.45,195.58,198.47,194.29,200,192.44Z"/><path class="cls-1" d="M221.93,192.44c-3.79,0-6.87,0-10,0-1.13,0-2,0-1.8-1.51.13-1.17-.27-2.44,1.74-2.39,4.54.11,9.08,0,13.61.07,1.1,0,2.83-.76,3.18.73a4.7,4.7,0,0,1-.93,4.33c-3.42,3.92-6.66,8-10,12l-2.41,2.92c3.72,0,6.87,0,10,0,1.1,0,2.43-.57,2.41,1.58s-.82,2.35-2.57,2.31c-4.42-.1-8.85,0-13.28-.07-1.11,0-2.79.75-3.25-.61a4.63,4.63,0,0,1,1-4.63c3.54-4.1,7-8.32,10.42-12.49C220.61,194.13,221.06,193.55,221.93,192.44Z"/><path class="cls-1" d="M344.53,207.85c2.42.49,4.59,1.61,7,1.06,2.95-.67,3.58-2.58,1.46-4.72-1.87-1.87-4-3.46-5.85-5.38-3.79-4-2.18-9,3.2-10.32,2.31-.56,4.6-.22,6.92,0,2.5.22,2.08,2.23,1.94,3.45-.2,1.92-1.67.34-2.56.39-1.08.06-2.2-.27-3.27-.16a2.91,2.91,0,0,0-2.59,1.81c-.48,1.26.28,2.12,1.1,2.88,1.87,1.72,3.89,3.29,5.65,5.12,3.89,4,2.27,9.33-3.17,10.58a23.49,23.49,0,0,1-6.27.14C344.91,212.53,343.65,211.2,344.53,207.85Z"/><path class="cls-1" d="M64,215.86c1,3,.11,4.8-2.53,4.85-1.91,0-3.68-.64-3.91-2.71-.26-2.28,1.53-2.85,3.44-3,.6,0,1.33.35,1.74-.45l-.05,0c-.37.85.28.68.72.72l-.06-.07c0,.52.3.67.72.74Z"/><path class="cls-1" d="M117.28,171.88a3.47,3.47,0,0,1-3.57,3.16,2.54,2.54,0,0,1-2.83-2.9,3.29,3.29,0,0,1,3.51-3.23C116.13,168.85,117.2,170,117.28,171.88Z"/><path class="cls-1" d="M119.79,181.28c-1.83,0-2.67-.91-2.57-2.66a3,3,0,0,1,3.23-3c1.48,0,3,.6,2.83,2.48A3.32,3.32,0,0,1,119.79,181.28Z"/><path class="cls-1" d="M53.61,205.32c-1.84-.13-3.34-.83-3.36-2.89,0-1.74,1.21-2.54,2.88-2.49,1.85.05,3.37.88,3.42,2.87C56.6,204.53,55.25,205.22,53.61,205.32Z"/><path class="cls-1" d="M115.32,199.25a9.08,9.08,0,0,0,1.28.05c1.39-.12,2.78-.08,3.27,1.52a2.61,2.61,0,0,1-1.61,3.25,2.8,2.8,0,0,1-3.63-.53c-1.1-1.23-.67-2.42.39-3.5a2.73,2.73,0,0,0,.36-.85Z"/><path class="cls-1" d="M76.71,225.18c.05,2.48-.62,4.27-3.64,4-3.42-.29-2.23-2.79-2.32-4.69l0,0H75.4l0,0c.3.56.59,1.15,1.39.68Z"/><path class="cls-1" d="M55.29,220.35c1.56.08,3,.56,3.17,2.25s-1,2.38-2.49,2.45c-1.65.07-3.16-.56-3.32-2.43C52.51,220.91,53.94,220.56,55.29,220.35Z"/><path class="cls-1" d="M64.76,227.16A2.41,2.41,0,0,1,62,229.35c-1.56,0-2.93-.61-2.94-2.39,0-1.47,1.22-2,2.53-2C63.11,224.94,64.46,225.31,64.76,227.16Z"/><path class="cls-1" d="M51.61,218.06c-.14,1.73-1.3,2.14-2.57,2.15-1.48,0-2.69-.69-2.75-2.28s1.19-2,2.5-2A2.65,2.65,0,0,1,51.61,218.06Z"/><path class="cls-1" d="M87.9,226.57c-.2,1.62-1.38,2.18-2.75,2.27s-2.69-.57-2.7-2.18c0-1.45,1.2-2,2.48-2.1A2.58,2.58,0,0,1,87.9,226.57Z"/><path class="cls-1" d="M50.09,208.07a2,2,0,0,1-2.18,2c-1.5.06-2.65-.52-2.78-2.14-.12-1.38.82-2,2.08-2A2.63,2.63,0,0,1,50.09,208.07Z"/><path class="cls-1" d="M109.91,164.9c-.22,1.26-.79,2.27-2.22,2.39a1.89,1.89,0,0,1-2.23-1.87,2.19,2.19,0,0,1,2.17-2.41A2,2,0,0,1,109.91,164.9Z"/><path class="cls-1" d="M67.66,229.45c1.3.21,2.68.31,2.71,1.9,0,1.32-1,1.84-2.21,1.88s-2.49-.34-2.59-1.85S66.67,229.7,67.66,229.45Z"/><path class="cls-1" d="M47.89,227.18a1.87,1.87,0,0,1,2.19-1.6c1.14.07,2.33.52,2.35,1.86s-1.14,1.78-2.33,1.7A2.11,2.11,0,0,1,47.89,227.18Z"/><path class="cls-1" d="M81.5,231c-.11,1.44-1.11,1.72-2.11,1.79s-2-.32-2.06-1.6,1-1.65,2-1.68A1.91,1.91,0,0,1,81.5,231Z"/><path class="cls-1" d="M95.31,165.14c-.24,1.17-.85,2.05-2.17,2.06a1.72,1.72,0,0,1-1.85-1.9,1.78,1.78,0,0,1,2-2A1.86,1.86,0,0,1,95.31,165.14Z"/><path class="cls-1" d="M60.28,185.16a1.74,1.74,0,0,1-2.06,1.76,1.81,1.81,0,0,1-1.72-2,1.49,1.49,0,0,1,1.83-1.44C59.38,183.55,60.24,184,60.28,185.16Z"/><path class="cls-1" d="M56.4,230c1.16.07,2.24.44,2.25,1.83,0,1.08-.88,1.43-1.85,1.46-1.2,0-2.36-.27-2.47-1.62S55.28,230,56.4,230Z"/><path class="cls-1" d="M126.19,182.82c.94.19,1.74.55,1.66,1.67a1.88,1.88,0,0,1-1.94,1.83c-1,.08-1.83-.38-1.84-1.42C124.06,183.62,125,183,126.19,182.82Z"/><path class="cls-1" d="M66.7,179a1.71,1.71,0,0,1-1.86,1.49,1.68,1.68,0,0,1-1.8-1.89,1.55,1.55,0,0,1,1.81-1.49A1.82,1.82,0,0,1,66.7,179Z"/><path class="cls-1" d="M45.38,223.14a1.6,1.6,0,0,1-2,1.21c-.9-.16-1.79-.59-1.66-1.66a1.48,1.48,0,0,1,1.95-1.25C44.53,221.63,45.41,222,45.38,223.14Z"/><path class="cls-1" d="M52.29,192.76c-1.16-.16-1.9-.65-1.82-1.67s.89-1.43,1.87-1.27a1.54,1.54,0,0,1,1.44,1.79A1.33,1.33,0,0,1,52.29,192.76Z"/><path class="cls-1" d="M124.38,194.83c.8.19,1.57.52,1.33,1.49a1.68,1.68,0,0,1-1.95,1.37,1.18,1.18,0,0,1-1.19-1.29C122.66,195.35,123.45,195,124.38,194.83Z"/><path class="cls-1" d="M43.67,213.34c-.09,1-.78,1.29-1.63,1.25a1.55,1.55,0,0,1-1.68-1.65c0-.7.69-1.08,1.46-1.06C42.82,211.92,43.53,212.3,43.67,213.34Z"/><path class="cls-1" d="M64.24,235.63A1.42,1.42,0,0,1,62.6,237c-.8,0-1.62-.36-1.64-1.29s.76-1.24,1.6-1.24A1.53,1.53,0,0,1,64.24,235.63Z"/><path class="cls-1" d="M63.45,215.26s0,0,0-.06h0Z"/><path class="cls-1" d="M62.78,214.56v0h-.05Z"/><path class="cls-1" d="M51.34,212c-.71,1.2,0,2.15.81,2.89a3.64,3.64,0,0,0,4.29.56c2.09-1,1.41-2.7.87-4.59C54.88,210.41,52.71,209.62,51.34,212Z"/><path class="cls-1" d="M64.11,215.93v-.05l-.07,0Z"/><path class="cls-1" d="M115.38,199.19l0,0v0Z"/><path class="cls-1" d="M76.75,225.22v0h0Z"/><path class="cls-1" d="M57.31,210.82h0c0-.07,0-.14-.07-.22h0Z"/><path class="cls-1" d="M122.18,190.35c.21-3.8-3.14-2.8-5.32-3.23,1.26-5.17.38-6.19-5.82-6.89.88-5.13-1.18-6.93-6.69-5.85l-.81.19.33-.73c.53-3.75-.34-5.41-3-5.78q-4.53-.62-5.13,5.7a18.9,18.9,0,0,0-2.9-.31,28.68,28.68,0,0,0-3.28.46c-.31-1.56.42-3.41-1.3-4.53a3.8,3.8,0,0,0-4.62.05,3.09,3.09,0,0,0-1.13,3.81c.79,2.25,2.57,2.46,4.57,2.27.33-.18.72-.42,1,0,.08.15-.19.48-.29.73-.36,1.28-.64,2.51-2.47,2.46-1.08,0-1.76,0-2.19-1.26-1-2.83-3.29-3.44-5.84-2.72-2.73.78-3.13,3-2.74,5.54,0,.26,0,.53,0,.79l-.68-.24c-4.66-.4-5.85.48-6.33,5.1-.14,1.31-.7,1.23-1.65,1.34-4.66.52-5.68,2.4-3.64,6.5a7.94,7.94,0,0,0,3.39,1.2c1.67,0,1.11,1.35,1.13,2.21,0,1.8-1.46,1.2-2.41,1.39-1.27.24-1.31-.33-1.14-1.45s-.73-2-1.5-2.82a19.29,19.29,0,0,0-2.22-.52c-2-.22-3.58.46-3.88,2.59s1.06,3.26,2.93,3.74a10.57,10.57,0,0,0,2.58,0l.8,0-.27.67c-.5,1.39.4,2.71.42,4.25-1.85-.7-3.4-.65-4.79.49-1.83,1.5-.6,3.22,0,5.07,2.52.87,6.3-.86,5.53,3.94.51-.07.66.23.66.66.42,0,.71.19.67.68a13.94,13.94,0,0,0,2.21.29c1.42,0,2.74-.46,3,1.87.33,3-1.73,1.43-2.74,1.77-1.35.44-2.55,1-2.51,2.63s1.13,2.29,2.51,2.7,2.74-.52,4.14-.62a9.25,9.25,0,0,1,.07-1.38,3.21,3.21,0,0,0-.66-2.46c1.81-.21,3.4.68,4.94,0l.78-.08c-.09.24-.19.48-.29.73h0a2.45,2.45,0,0,0,.21,1.6,2.71,2.71,0,0,1,.11.61,1.44,1.44,0,0,1-.06.4,1.12,1.12,0,0,1-.21.36c.78-.53,1,.06,1.13.83,2.71-.17,6,.66,6.29-3.65,0-.26-.08-.53-.13-.79l.76.19,3.4-.18c.83-.26,1.23-.14.68.79,0,2.78,1.73,3.36,4,3,1.56-.25,2.89-1.2,2.46-2.91-.74-3-3.28-2.09-5.7-1.8,1.09-1.27.44-3.1,2.7-3.22,1.86-.11,2,.79,2.57,2,.81,1.71,2.53,1.94,4.3,1.51S101,218.74,101,217s-1.41-2.6-3.13-2.77c-.56-.06-1.48.36-1.34-.82.08-.61.51-.89,1.14-1a1.59,1.59,0,0,1,2.09,1c.94,2.29,2.84,2.61,4.92,2s3.4-2,2.85-4.49c-.2-.31-.55-.6-.17-1h0l1,.38c.33,0,.66.08,1,.07,1.95-.09,3.81-.47,4.49-2.59s-.55-3-2.39-3.92c-1.57-.75-.92-2.26.22-3a21.65,21.65,0,0,1,3.75-1.62c.63-1.62,1.44-3.22.71-5.15C119,194.06,122,194,122.18,190.35Zm-58.42,20.1c.13-1.87,1-3.08,0-4.41,1.19,1.14,4-1.26,4,1.92C67.75,211,65,208.8,63.76,210.45Zm8.87,4c-.86,0-1.81.38-1.68-1.17.08-1.07.33-1.52,1.48-1.54s1.76.4,1.91,1.61C74.54,215.12,73.16,214.11,72.63,214.49Zm27.54-38.57c.87.14,2-.53,1.79.92a1.83,1.83,0,0,1-2.21,1.81c-1.11-.07-1.57-.44-1.66-1.51C97.91,174.8,99.89,176.85,100.17,175.92Zm-24.55,6.69c1.91.17,3.11-.25,3.49,1a1.25,1.25,0,0,1-1.06,1.47C76.23,185.38,76.88,183.64,75.62,182.61Zm1.49,37.29c.57-1.18-1.73-3.41,1.2-3.24,1,.05,2.61-.77,2.68,1.27C81.09,221.29,77.82,217.69,77.11,219.9Zm25-25.85a1.32,1.32,0,0,0-.32,1.91c1.7,3.45.47,6.09-3.38,7.71-3.5,1.47-7.2.73-11.22,1-1.91,0-4.23,0-6.54,0-.72,0-1.71.29-2-.71s.56-1.15,1.29-1.51a3.57,3.57,0,0,0,.29-6.1c-1.16-.81-.74-1.88,0-2,3.29-.45,2.68-3.14,2.86-5,.2-2.21,1-2.75,3.09-2.69,4.08.12,8.17,0,12.26,0a5.2,5.2,0,0,1,5,2.71C104.51,191.31,103.43,192.76,102.13,194.05ZM104,208.4c-.24-.46.29-1,.87-1.12,1.75-.42,1.53,1,1.81,1.95C105.59,209.53,104.54,209.48,104,208.4Zm2.69.85.62.64C106.77,210,106.5,209.87,106.68,209.25Zm7-17.09c-.91.12-1.78-.33-1.66-1.75.19-2.39,2-1.26,3.14-1.72C114.28,189.8,115.77,191.89,113.65,192.16Z"/><path class="cls-1" d="M282.86,188.13c-8.43-.11-14.16,5-14.29,12.77-.13,7.22,4.8,11.78,12.93,12,8.56.19,14-4.53,14.16-12.31C295.83,193,290.88,188.23,282.86,188.13ZM282,209c-4.86,0-8-3.35-7.91-8.27.15-5.21,3.61-8.75,8.49-8.67s7.81,3.39,7.67,8.47S286.82,209,282,209Z"/><path class="cls-1" d="M153.47,200.08c3.52-1.94,4.48-4.64,3.53-7.84-1-3.46-4-3.7-7-3.7s-6.19.06-9.29,0c-1.15,0-1.83.21-1.88,1.61q-.33,10.26-.82,20.54c-.06,1.31.35,1.78,1.64,1.75,4-.12,8,0,11.93-.29,3.16-.23,5.37-1.94,5.9-5.29C158,203.78,156.78,201.55,153.47,200.08Zm-5.32-8c2,0,3.87.35,3.88,3s-2,3.44-6.05,3.5c-3,0-2-1.85-2.18-4.09C143,191,146,192.07,148.15,192ZM145.77,209c-2.46-.07-2.46-.07-2.33-3.89-1.17-3.93,2-3.08,4.5-3.1,2.34,0,4.31.56,4.46,3.3S150.34,209.08,145.77,209Z"/><path class="cls-1" d="M92,196.46c1.58.12,3.93-.34,4.24,2.5.23,2.12-2.34,3.49-6.23,3.36-1,0-2.56.73-2.39-1.56C87.91,196.84,88.17,196.44,92,196.46Z"/><path class="cls-1" d="M91.8,193.89c-.76-.62-2.8,1.2-2.77-1.32,0-2.24.77-3.81,3.53-3.29,1.62.31,4.15-.57,4.15,2C96.71,194.25,94,193.77,91.8,193.89Z"/><rect class="cls-2" width="400" height="400"/></g></g></svg>