<svg xmlns="http://www.w3.org/2000/svg" viewBox="0 0 400 400"><defs><style>.cls-1{fill:#fff;}.cls-2{fill:none;}</style></defs><title>Asset 119</title><g id="Layer_2" data-name="Layer 2"><g id="Layer_1-2" data-name="Layer 1"><path class="cls-1" d="M228.43,191.16c-6.35-3.44-12.81-3.38-18.91.94l-.56,0c0-3.69,0-7.37,0-11.06,0-1.4.49-3.29-.22-4.07s-2.75-.14-4.18-.3c-1.18-.14-1.52.21-1.51,1.46.07,12,.07,24.07.09,36.1,0,2.09-.08,4.17-.1,6.25,0,2.93,0,2.93,2.86,2.93s2.9,0,3.13-2.85c0,0,.06-.06.17-.16.66.41,1.15,1.06,1.87,1.45a17.4,17.4,0,0,0,14,1.3,15.79,15.79,0,0,0,11.21-11.53,18.32,18.32,0,0,0,.71-4.29C237.21,200.28,234.68,194.56,228.43,191.16Zm-3.55,25.68a12.49,12.49,0,0,1-14.22-1.93c-.41-.4-.8-.82-1.2-1.23a2.48,2.48,0,0,1-.59-1.73c0-3.74.07-7.48.08-11.22a2.46,2.46,0,0,1,.43-1.48c4-5.85,15.29-7.41,19.85.68a12.85,12.85,0,0,1,.65,11.69C228.49,213.62,227.09,215.61,224.88,216.84Z"/><path class="cls-1" d="M319.48,191.92c-8.94-6.38-22.74-2.84-26,9.22a18.37,18.37,0,0,0,2.75,15.91h0c0,.14,0,.32,0,.4,3.15,3.43,6.88,5.81,11.61,6.32a19.54,19.54,0,0,0,15.07-4.42c.86-.71,1-1.26.1-2a24.18,24.18,0,0,1-2.26-2.48c-.47-.56-.84-.64-1.4-.08a10.25,10.25,0,0,1-2.61,1.84,13,13,0,0,1-13.16-.24,11.32,11.32,0,0,1-4.52-6.91c-.28-1.13-.26-1.67,1.26-1.65,7.48.09,14.95,0,22.43,0,3.75,0,3.79,0,3.31-3.74C325.43,199.2,323.56,194.83,319.48,191.92Zm-.88,10.71c-6.06,0-12.13,0-18.19,0-1.1,0-1.35-.21-.92-1.29,1.62-4,4.46-6.54,8.83-7,4.09-.43,7.58.77,9.95,4.36a8.87,8.87,0,0,1,1.38,3.83C319.27,202.58,318.93,202.63,318.6,202.63Z"/><path class="cls-1" d="M267.9,191.84a16.47,16.47,0,0,0-10.4-3,15.84,15.84,0,0,0-10.25,3.67c0-3.94,0-7.66,0-11.39,0-1.44.49-3.39-.24-4.21s-2.83-.15-4.3-.32c-1.2-.14-1.42.35-1.41,1.45.06,10.67.06,21.34.08,32a16.56,16.56,0,0,0,2.9.19,16.56,16.56,0,0,1-2.9-.19c-.26,3.43-.06,6.87-.1,10.31,0,3,0,3,3,3s2.89,0,3.06-2.79c0-.07.11-.13.17-.2,6,4.43,12.46,4.74,19,1.41a14.81,14.81,0,0,0,8.1-10.4C276.65,203.66,274.24,196.35,267.9,191.84Zm-.8,21.23c-5.2,8.06-16,5.6-19.45.37a2.44,2.44,0,0,1-.44-2c.11-.43.26-.83,0-1.23,0-3.11.05-6.22.05-9.32a2.82,2.82,0,0,1,.53-1.77c4.32-6,14.22-6.32,18.78-.55a10.79,10.79,0,0,1,2.47,7.13c-.05,1.82.11,3.64-.61,5.37Z"/><path class="cls-1" d="M63.43,184c.47.49.72.51,1.27,0,9.06-7.84,20.61-7.85,29.55,0,.51.44.77.55,1.27,0,1.3-1.38,2.67-2.69,4-4,.18-.17.33-.36.53-.58-.19-.22-.36-.46-.56-.65a29.21,29.21,0,0,0-40,0c-.59.56-.51.86,0,1.36C60.85,181.32,62.16,182.62,63.43,184Z"/><path class="cls-1" d="M101.55,182.92c-1.15,1.31-2.44,2.5-3.69,3.72-.43.41-.65.7-.22,1.31a23.17,23.17,0,0,1,2.89,6.6,19.29,19.29,0,0,1-.34,12.11,22.69,22.69,0,0,1-10.61,12.77,3.1,3.1,0,0,0-1.35.46,21.84,21.84,0,0,1-11.65,1.66A34.43,34.43,0,0,1,69,219.2c-1-.64-2-1.21-2.87-1.91A21.32,21.32,0,0,1,58,203.79a20.87,20.87,0,0,1,3.37-15.86.77.77,0,0,0-.12-1.2c-1.3-1.24-2.61-2.48-3.8-3.82-.81-.94-1.16-.67-1.77.19-8,11.36-7,26.2,2.55,36.7.16.55.64.84,1,1.2a29.18,29.18,0,0,0,31.43,6,24.81,24.81,0,0,0,9.86-6.91c.26-.28.54-.56.79-.85a29,29,0,0,0,2-36.15C102.69,182.19,102.34,182,101.55,182.92Z"/><path class="cls-1" d="M349.18,189.16c-3-.14-5.92-.16-8.52,1.62-.87.6-1.72,1.21-2.66,1.88a16.44,16.44,0,0,1,0-1.87c.13-1-.15-1.52-1.31-1.4a18,18,0,0,1-3.2,0c-1.12-.1-1.48.24-1.46,1.41.09,7.91.09,15.83.13,23.74h0c-.45,2.67-.09,5.37-.18,8.06,0,.55.29.76.81.76,1.45,0,2.9,0,4.35,0,.58,0,.91-.19.9-.83-.07-2.69.16-5.4-.12-8.09,0-4.42.05-8.83.05-13.25a4.33,4.33,0,0,1,.51-1.92c1.58-3.29,6.32-4.91,9.44-4.15,1.67.41,1.78.33,1.78-1.36V190C349.71,189.6,349.8,189.19,349.18,189.16Z"/><path class="cls-1" d="M195.78,214.52l-5.36.06,5.36-.06c0-.34,0-.68,0-1,0-7.62,0-15.23.08-22.84,0-1-.27-1.36-1.28-1.27a16.46,16.46,0,0,1-3.06,0c-1.21-.12-1.63.18-1.61,1.53.1,6,0,12,.08,18a9.58,9.58,0,0,1-.94,4.67,16.14,16.14,0,0,1-2.57,2.87,9.37,9.37,0,0,1-12.58-1.39,8.05,8.05,0,0,1-1.49-4.13c-.23-5.68,0-11.35-.1-17,0-1.48.67-3.52-.3-4.3s-2.88-.15-4.37-.26c-1.06-.08-1.28.31-1.27,1.3q.06,9,0,17.91a23.68,23.68,0,0,0,.9,6.75,5.74,5.74,0,0,0,.19.82c2.29,5.66,8.12,8.66,14.64,7.61a13,13,0,0,0,7.8-4c0,1,0,1.66,0,2.32-.07.9.18,1.34,1.19,1.28,1.25-.07,2.51,0,3.77,0,.63,0,1-.14,1-.88C195.81,219.83,196,217.17,195.78,214.52Z"/><path class="cls-1" d="M87.72,191.81c1.34-1.34,2.65-2.7,4-4,.64-.59.56-.92-.06-1.46A18.35,18.35,0,0,0,79,181.75a18.07,18.07,0,0,0-11.72,4.64c-.54.47-.74.78-.11,1.35a27.3,27.3,0,0,1,3.43,3.7c.66.86,1.15.88,2,.13,4-3.4,10.61-3.3,14,.21C87.15,192.37,87.33,192.21,87.72,191.81Z"/><path class="cls-1" d="M286.93,210.07q0-10.63.05-21.26c0-3.65,0-7.29,0-10.93,0-1-.3-1.35-1.3-1.27a17.1,17.1,0,0,1-3.2,0c-1.25-.14-1.5.31-1.5,1.51.08,10.68.09,21.36.12,32-.41,4.16-.07,8.32-.15,12.48,0,.58.36.73.86.72,1.46,0,2.92,0,4.37,0,.54,0,.82-.21.81-.78C287,218.41,287.19,214.24,286.93,210.07Z"/><path class="cls-1" d="M159.1,212.34c0-2.13.07-4.27.08-6.41,0-9.37,0-18.75.06-28.12,0-1-.27-1.26-1.22-1.2a28.2,28.2,0,0,1-3.79,0c-1-.08-1.27.29-1.27,1.3.06,5.92,0,11.85.06,17.77,0,.95-.15,1.35-1.24,1.35q-12-.08-24,0c-1,0-1.32-.26-1.3-1.29,0-4.81,0-9.62,0-14.43,0-1.5.54-3.51-.21-4.36s-2.93-.13-4.45-.33-1.54.41-1.53,1.6c.06,10.73,0,21.47.07,32.2,0,2.7-.1,5.41-.06,8.11,0,1.58-.72,3.66.33,4.59s3,.18,4.64.26h.29c.65,0,1-.2,1-.9-.08-4,.13-8-.11-12,0-2.09.09-4.18,0-6.26,0-1,.35-1.2,1.25-1.2q12.09,0,24.17,0c1,0,1.18.39,1.17,1.27,0,2.72,0,5.44,0,8.16-.3,2.85-.07,5.72-.12,8.57,0,2.45,0,2.45,2.48,2.44,3.87,0,3.92,0,3.86-3.82C159.25,217.17,159.57,214.75,159.1,212.34Z"/><path class="cls-1" d="M79.46,192.67A7.87,7.87,0,0,0,75,194.15c-.82.52-.81.91-.16,1.53,1.36,1.32,2.69,2.66,4,4,.34.34.54.5,1,.05,1.4-1.47,2.84-2.92,4.32-4.32.57-.53.41-.85-.08-1.21A7.22,7.22,0,0,0,79.46,192.67Z"/><rect class="cls-2" width="400" height="400"/></g></g></svg>