<svg xmlns="http://www.w3.org/2000/svg" viewBox="0 0 400 400"><defs><style>.cls-1{fill:#fff;}.cls-2{fill:none;}</style></defs><title>Asset 99</title><g id="Layer_2" data-name="Layer 2"><g id="Layer_1-2" data-name="Layer 1"><path class="cls-1" d="M114.88,248c.3.23.2.41-.08.55l-.08-.35Z"/><path class="cls-1" d="M114.33,250.44a.38.38,0,0,0,0,.15h-.48l.29-.7C114.35,250,114.32,250.24,114.33,250.44Z"/><path class="cls-1" d="M232.54,219,229.18,217c-.06-.45-.37-.52-.74-.51h0l-1.15-.6a1.33,1.33,0,0,1-.23-.3,1.1,1.1,0,0,0-1-.52,1.17,1.17,0,0,1-.33,0c-.41-.25-.76-.58-1.18-.82a2.37,2.37,0,0,0-.28-.27.68.68,0,0,0-.46-.23h-.13l-2.26-1.38a2.64,2.64,0,0,1-.15-.29,13,13,0,0,0-1.75-1.16,15.67,15.67,0,0,0-3.39-2,4.05,4.05,0,0,1-.5-.12,7.16,7.16,0,0,0-.66-.39,1.32,1.32,0,0,1-.21-.25,1.4,1.4,0,0,0-.65-.62c-3.13-1.93-6.32-3.77-9.45-5.7a2,2,0,0,0-.85-.34.88.88,0,0,1-.28,0,9.54,9.54,0,0,0-2.5-1.38h0a4.37,4.37,0,0,0-1.5-.92h0c-.66-.44-1.35-.84-2-1.33-.3-.22-.43-.05-.62.07a12.62,12.62,0,0,0-2.24,1.26h0L190.09,202h0a23.41,23.41,0,0,0-2.22,1.3L185.26,205l-1.48.76-.35.21c-.27-.6-.57-.1-.75,0s0,.28.19.32l-4.27,2.67-.42.27a2,2,0,0,0-.91.57h-.15a.76.76,0,0,1,0,.15,8.43,8.43,0,0,0-2.28,1.29l-1.8,1.1h0a21.51,21.51,0,0,0-3.13,1.89,8.36,8.36,0,0,0-1.86,1.12,3.2,3.2,0,0,0-1.14.7h0a1.36,1.36,0,0,0-.72.42,2.56,2.56,0,0,0-1,.64h0a4.35,4.35,0,0,0-2.94,1.66s0,.06,0,.09a.52.52,0,0,0-.65.22,6.84,6.84,0,0,1-.72.47c-.28.14-.12.28,0,.42l.91-.35c.21-.18.63.05.73-.33a.23.23,0,0,0,.2,0,8.39,8.39,0,0,1,2-.77,19.8,19.8,0,0,1,2-.53c.14-.09.27-.19.23-.37h0a4.51,4.51,0,0,0,1.43-.41l.37-.11,6.73-1.7h0l.3,0c2-.28,3.92-.8,5.93-.92l.09-.15h0l1.37,0,.4-.17h1.08c.3-.18.64,0,.95-.12,2.22-.37,4.48-.32,6.72-.54a1.36,1.36,0,0,0,.6,0h0c4.18,0,8.35,0,12.52.28.61.19,1.27,0,1.87.24l.34,0a1.31,1.31,0,0,0,1.19,0l.17.11.31,0c.37.18.79,0,1.16.15l.07,0,.07.05a9.44,9.44,0,0,0,2.05.34c.25.24.61,0,.86.2s.81,0,1.16.2.54,0,.75.17l.19,0,0,.06c.43.34,1,.22,1.45.35.26.35.66,0,1,.19a.76.76,0,0,0,.55.08.69.69,0,0,0,.19.1l.18,0c.17.11.32.27.56.16l.19,0a3.23,3.23,0,0,0,1.3.32,1.2,1.2,0,0,0,.73.23,3.09,3.09,0,0,0,1.37.31,5.82,5.82,0,0,0,1.59.41,6.65,6.65,0,0,0,1.86.55c.12.21.39,0,.52.19l2.07.58c.12.11.29.07.42.13a2.67,2.67,0,0,0,1.43.43,1,1,0,0,0,.61.24h.1a3.91,3.91,0,0,0,1.33.47c.38.07.68.66,1.15.19A4.77,4.77,0,0,0,232.54,219Zm-42.43-16.83h0l0,0Z"/><path class="cls-1" d="M157.39,217.73a1.62,1.62,0,0,1,.73-.39l.22-.3c.19-.18.52-.24.54-.59.37.05.62-.2.92-.33,0,.26,0,.49.37.52,0-.25.16-.5,0-.75a.77.77,0,0,1,0-.15h0a19.17,19.17,0,0,0,3.15-1.86l.23,0a7.39,7.39,0,0,0,3.05-1.77,1.66,1.66,0,0,1,.22-.34,10.37,10.37,0,0,0,1.15-.7c.14,0,.27-.05.41-.06a2.54,2.54,0,0,0,1.5-1s0-.08,0-.13A20.5,20.5,0,0,0,173,208l.12.05c.89,0,1.41-.72,2.14-1,.32-.23.69-.38,1-.61.86-.6,1.93-.9,2.55-1.84a.66.66,0,0,0,.06-.2,2.68,2.68,0,0,0,.91-.49l1.83-1c.63-.59,1.53-.8,2.11-1.46a1.92,1.92,0,0,1,.25-.12l.13-.09a5,5,0,0,0,1.53-.84,2.07,2.07,0,0,1,.56-.12c.56-.29,1.34-.36,1.35-1.22l0,0h0c.21,0,.42,0,.52-.19l0,0,.19-.14,0,0a1.85,1.85,0,0,0,.67-.37,1,1,0,0,1,.35,0,23,23,0,0,0,3.41-1.94.53.53,0,0,0,.22-.39.14.14,0,0,1,0-.07l.58-.32.07,0a2,2,0,0,0,1.61-1v-.06l.22-.05c0-.27,0-.55,0-.83q0-17.29,0-34.61c0-3,0-6,0-9a.19.19,0,0,0-.15,0v0a.18.18,0,0,0-.15.1h0c0-.07,0-.13,0-.2-.1.54-.19,1.07-.29,1.6a12,12,0,0,0-.44,2.38,5.88,5.88,0,0,0-.39,1.84l-.16.2h0l-.18,0-.24,1.09c0,.19,0,.38,0,.57-.12.61-.24,1.22-.37,1.84l-.15.21a.93.93,0,0,1-.19.74,17.56,17.56,0,0,1-.77,3.12h-.18l-.21.74a.46.46,0,0,0,0,.56h0a.51.51,0,0,1,0,.17h0c-.17-.07-.26.07-.34.22l-.16.91c0,.19,0,.38,0,.57h0a1.11,1.11,0,0,0-.2.9,7.53,7.53,0,0,0-.56,1.86,1.07,1.07,0,0,0-.16.74h0a6.84,6.84,0,0,0-1,2.77l-.21.28-.33.83-.54,1.31c-.08.17-.16.35-.23.52h0a1.91,1.91,0,0,0-.39.94h0c-.14.24-.43.4-.38.74l-.3.4c0,.41-.44.67-.41,1.1h0c-.07.42-.55.64-.55,1.1a.4.4,0,0,1-.15,0l-.41,1.08-.18.36h0a2.69,2.69,0,0,0-.55,1.14c-.24.1-.29.33-.37.54l-.16.36s0,0,0,0c-.5.22-.43.81-.75,1.15,0,.11,0,.17-.11.2-.31.39-.77.69-.67,1.29l.07.08-.78,1.38-.33.57c-.08.27-.51.36-.37.74l-.38.37a1.34,1.34,0,0,1,0,.2c-.3.23-.37.61-.57.91V191c-.86.44-.95,1.41-1.47,2.08-.06.12-.13.23-.19.34a.25.25,0,0,0-.19,0l-.16.21q-.37.56-.72,1.14a.3.3,0,0,1-.22.32c-.34.81-1.2,1.28-1.39,2.19,0,0,0,.05,0,.08l-.07,0-.39.8a.89.89,0,0,0-.57.47h0a.29.29,0,0,0-.13.18.58.58,0,0,0,0,.19l-.08.14s0,0-.06,0c-.18,0-.24.13-.3.27a.74.74,0,0,0-.21.31.48.48,0,0,0,0,.17l-.28.27-.23.5,0,0c-.83.28-1.09,1-1.45,1.72-.14.18-.27.37-.41.56a3.65,3.65,0,0,0-.67.89,1,1,0,0,1-.07.24c-.6.73-1.21,1.46-1.82,2.18,0,0,0,0,0,0-.31,0-.47.22-.66.4-.86.8-1.38,1.87-2.22,2.69a2.36,2.36,0,0,1-.12.28l-.28.22h0a1.26,1.26,0,0,0-.57.55l-.33.38c-.19.26-.67.31-.64.74h0c-.1.05-.22.08-.27.19-.21.12-.3.38-.54.47a1.74,1.74,0,0,0-.92,1l0,.07-2,1.69-.36.44-.41.34h0l-.34,0c-.24.19-.55.34-.55.72l-.55.2-.18.19h0l-1.11.73C157,217.89,157.17,217.9,157.39,217.73ZM187.1,180Zm-2.69,4.1c-.06.07-.1.12-.13.12A.74.74,0,0,1,184.41,184.07ZM160,215.93h0Z"/><polygon class="cls-1" points="158.24 218.78 158.24 218.78 158.24 218.78 158.24 218.78"/><path class="cls-1" d="M159.39,219.18h0c-.5,0-.87.21-.93.81l1.08-.63.34,0c.09-.15.47-.2.19-.5C159.83,218.93,159.56,219,159.39,219.18Z"/><path class="cls-1" d="M235.92,216.51a.48.48,0,0,0-.18,0l-.92-.72h0c-.18-.2-.48-.28-.57-.57l-2.5-1.93s0,0-.06.06h0l.07-.05c-.25-.84-1.12-1.13-1.56-1.8-.51-.49-1-1-1.51-1.49l-.89-1.11c-.2-.3-.69-.3-.74-.74a4.75,4.75,0,0,1-1-1.07l0,0a.52.52,0,0,0-.39-.53.51.51,0,0,1-.3-.35,2.68,2.68,0,0,0-.82-.95c0-.05-.07-.1-.1-.16a3.19,3.19,0,0,0-.76-1,1.14,1.14,0,0,0-.43-.67,1.81,1.81,0,0,0-.32-.22l-.15-.24a.23.23,0,0,0-.18,0c-.4-.36-.54-1-1.07-1.2,0-.41-.27-.66-.47-.95l-1.63-2.28-.42-.42a.42.42,0,0,0,0-.12,5.35,5.35,0,0,0-1.32-1.87l-.13-.18-.51-.48a4.83,4.83,0,0,0-1.07-1.61l-.09-.35a2.33,2.33,0,0,0-.55-.92,2,2,0,0,0-.52-.83h0l-.43-.66c0-.11,0-.22,0-.33l-.51-.59-.13-.2-.26-.72a1.75,1.75,0,0,1-.55-.92l-.35-.42h0c-.25-.53-.51-1.06-.77-1.59l-.42-.54a1.81,1.81,0,0,1,0-.23,10.28,10.28,0,0,0-1.87-3.32.2.2,0,0,0-.15.06h0l-.18-.77a1.54,1.54,0,0,0-.44-.82l-.09-.09v-.26l-.37-.38c-.05-.11-.11-.22-.17-.33a.47.47,0,0,1,.06-.09c0-.12,0-.24-.15-.29a.26.26,0,0,1-.13-.33c-.22-.42-.13-1-.73-1.23v-.31a2.2,2.2,0,0,1-.41-.75c0-.11,0-.21-.06-.32a11.48,11.48,0,0,1-.49-1.27c-.07-.12-.2-.16-.3-.25l-.23-.37c0-.12,0-.24,0-.35-.23-.36-.08-.95-.62-1.11,0,0,0-.07.06-.11a2.17,2.17,0,0,0,0-.26c-.45-1.73-1.09-3.4-1.56-5.13a.19.19,0,0,0-.21-.12s0,0-.05,0h0l-.06-.27c0-.2.06-.41.08-.62-.14-.35,0-.86-.53-1a.42.42,0,0,1,.06-.08c.32-.76-.26-1.32-.46-2a.25.25,0,0,0-.17,0h0c-.35-1.35-.69-2.7-1-4.05h0c-.09-.39-.19-.78-.28-1.17h0c-.12-.49-.23-1-.34-1.46h0l-.21-.56c0-.11,0-.21,0-.32h0a5.64,5.64,0,0,0-.33-1.72h0c-.07-.25-.13-.5-.2-.75a2.91,2.91,0,0,1,0-.31,6,6,0,0,0-.35-1.68h0a1.23,1.23,0,0,0-.16-.77h0c0-.23,0-.46-.05-.68v-.38c-.17-.14.05-.52-.37-.56a2.14,2.14,0,0,0,0,1.15c0,.73,0,1.47,0,2.21v41.24c0,.3-.17.69.23.91l5.33,3.21h0q5.64,3.44,11.3,6.87l8,4.78a1.56,1.56,0,0,0,.68.42h0l2.42,1.46,3.05,2-.05.06c.09.44.44.34.73.36h0l.91.45h0l3.36,2c.17.28.47.35.73.5l.56.39.18-.2Zm-36.47-25.07h0s0,0,.07,0h-.07Zm3.3-25.27v0h0C202.89,166.11,202.79,166.22,202.75,166.17Zm-1.65-6.76h0Z"/><path class="cls-1" d="M196.72,149.86l-.29.41c0,.33,0,.67-.05,1a.16.16,0,0,0,.05.16.1.1,0,0,0,.14-.07h.15Z"/><path class="cls-1" d="M286,230.82a24.4,24.4,0,0,1-3.42,0c-.43.1-.46.49-.59.81a1.16,1.16,0,0,0-.05.28,3.85,3.85,0,0,0-.47.84.42.42,0,0,1-.13,0,.65.65,0,0,0-.47.38c-.1.45-.54.75-.56,1.24,0,.16.12.37-.16.42s-.27.35-.35.57c-.05,0,0,.12,0,.2l-.09.15h-.09c-.28.13-.32.42-.45.65a11.37,11.37,0,0,0-1,1.75.55.55,0,0,0,0,.18l-.09.08-.05.31h0c-.48.3-.81.19-1-.36a5.17,5.17,0,0,0-1-1.59h0c-.16-.33-.21-.71-.56-.93h0c-.08-.23-.08-.51-.39-.57h-.15c0-.11,0-.23,0-.34-.16-.34-.1-.84-.55-1,0,0,0,0,0-.08a1.21,1.21,0,0,0-.37-.66c-.34-.63-.65-1.28-1-1.93a6.44,6.44,0,0,1-.56-.48l-3.11.11h0l-.28-.1a.66.66,0,0,0,.18.72,1.43,1.43,0,0,1,0,.22,1.22,1.22,0,0,0,0,.38,2.07,2.07,0,0,0,.91,1.13c.18,0,.21.13.21.27a.62.62,0,0,0,.07.23.4.4,0,0,1,.24.39.89.89,0,0,1,.2.4,9.69,9.69,0,0,0,2.09,3.5.31.31,0,0,1,.13,0v.16l.52.68c.05.19.08.38.13.57.25.54.31,1.2.95,1.49l0,0c0,.07,0,.13,0,.19l.43.73c.28.05.32.38.51.53h0a1.59,1.59,0,0,0,.13.22c0,2.29,0,4.58,0,6.86,0,.52.09.8.71.76h.14a3.62,3.62,0,0,0,1.7,0H279l.09,0h.09v-7.38l.08-.07a4.68,4.68,0,0,1,.43-.46,1.26,1.26,0,0,0,.14-.6,0,0,0,0,0,0,0h0l.05-.28H280c.48-.11.48-.54.57-.91l0-.1h.05a1.54,1.54,0,0,1,.39-.72l1-1.89a.27.27,0,0,0,.07-.08.17.17,0,0,0,.18-.1h0c.35-.2.37-.61.58-.9,0-.14-.06-.32.14-.38a.26.26,0,0,0,.16-.18v0a.45.45,0,0,0,.22-.4l.23-.65.27-.22c.26-.11.32-.35.4-.58a.46.46,0,0,1,.26-.44,1.07,1.07,0,0,0,.54-.94,1.36,1.36,0,0,1,0-.29,5.22,5.22,0,0,0,.58-1l.15-.11a.37.37,0,0,0,.16-.17h0A.31.31,0,0,0,286,230.82Z"/><path class="cls-1" d="M238.16,248.77c0-5.87,0-11.75,0-17.62a.5.5,0,0,0-.12-.33,19.8,19.8,0,0,1-3.08,0,.15.15,0,0,0,0,.2,2,2,0,0,0-.08,1v16.82c0,.46-.05.92-.07,1.38l.31,0h.33a4.43,4.43,0,0,0,2.08,0h.38c.35-.14.3-.41.26-.66A7.27,7.27,0,0,0,238.16,248.77Z"/><path class="cls-1" d="M203.57,232c0-.32.11-.68-.2-.94l-.29-.15-.2,0h-.7a2.22,2.22,0,0,1-1.2,0l-.45,0a.85.85,0,0,0-.24.92,8.3,8.3,0,0,1,.08,1.65c0,5.59,0,11.19,0,16.78a.23.23,0,0,0,.29.05l.15.06,2.22-.07.19,0a.54.54,0,0,0,.12.09.56.56,0,0,0,.25-.23,6,6,0,0,0,0-1.84C203.63,242.81,203.59,237.39,203.57,232Z"/><path class="cls-1" d="M157.49,233.94l-.19-.17a15.76,15.76,0,0,0-1.77-1.37,2.53,2.53,0,0,1-.18-.27,1.47,1.47,0,0,0-1.15-.59,4.19,4.19,0,0,0-.51-.11,5.7,5.7,0,0,0-1.36-.37,1.27,1.27,0,0,1-.22-.13c-.25-.08-.53,0-.77-.11h-2.69a.34.34,0,0,0-.16.1l-.11,0a4.72,4.72,0,0,0-1.62.32,2.17,2.17,0,0,1-.41-.09.58.58,0,0,0-.45.22l-.5.41a8.78,8.78,0,0,0-2.29,1.52l-.42.21a3.16,3.16,0,0,0-.64.44.83.83,0,0,0-.16.21,6.43,6.43,0,0,0-1.43,2.56c0,.51-.52.87-.38,1.41a.68.68,0,0,0,.12.22l0,.15a.38.38,0,0,0-.24.09,1.65,1.65,0,0,0-.26,1.26,3.63,3.63,0,0,1,0,2,2.19,2.19,0,0,0,.45,1.67.28.28,0,0,0,.13,0v0c0,.18,0,.35,0,.53a.25.25,0,0,0,0,.36h0s0,0,0,.06a1.06,1.06,0,0,0,.28.87.3.3,0,0,0,.26,0l0,0a1.71,1.71,0,0,0,.33.66s0,.08,0,.12,0,.24.05.36a.74.74,0,0,0,.56.77.25.25,0,0,0,.17-.06c.1.13.1.35.32.38.05.23.4.25.37.54l1.12.94c.24.53.81.51,1.23.73l.8.4a.3.3,0,0,0,.37,0h0s0,.07,0,.1l.24,0,.3.17a1.11,1.11,0,0,0,.26.07l.36,0a10.69,10.69,0,0,0,1.8.25h1.65l1.65-.18h0a5,5,0,0,0,2.06-.64.67.67,0,0,1,.46-.29.3.3,0,0,0,.25-.21h0l.59-.5.55-.2c0-.15,0-.32.19-.4,1.21-.84,1.25-1.09.24-1.86,0-.41-.37-.54-.64-.75a.43.43,0,0,1-.19,0l-.18-.3c-.18,0-.37-.16-.51,0h-.05a.44.44,0,0,0-.34.13l-.17.18c-.12.1-.28.1-.41.17a.86.86,0,0,0-.18.14,1.29,1.29,0,0,0-.31.46h0a6.89,6.89,0,0,1-2.4.81,3.08,3.08,0,0,1-.8.1,2.36,2.36,0,0,1-1.21,0h-.74a1.32,1.32,0,0,1-.34,0l-.1,0-1-.27,0-.05a.61.61,0,0,0-.22-.13.72.72,0,0,1-.59-.31,2.36,2.36,0,0,0-.88-.61.6.6,0,0,1-.19-.06l-.28-.4h0s0,0,0-.05a1.78,1.78,0,0,0-.22-.58c-.39-.3-.43-.92-1-1,0,0,0,0-.05,0l0-.08a1.68,1.68,0,0,0,.08-.54c-.08-.54-.2-1.07-.28-1.6-.05-.3,0-.67-.46-.75h0v-.34s0,0,0,0c.4-.13.3-.48.3-.76a5.41,5.41,0,0,1,.28-1.7.65.65,0,0,0-.09-.17h0l.42-1.06h0c.31-.12.37-.42.49-.67l.11-.13a.53.53,0,0,0,.29-.28.38.38,0,0,1,.19,0c.35-.19.76-.32.86-.77H146l.3-.25a3.44,3.44,0,0,0,1.72-.76v0a11.61,11.61,0,0,1,3.38-.17h0c.58.12,1,.6,1.68.54.18.26.52.22.74.4h0c.31.35.57.78,1.11.75.15.31.47.28.72.38l.75-.8.05,0a.47.47,0,0,0,.48-.38l.19-.15c.26-.25.93-.33.39-.91Zm-14.4,4.62a.15.15,0,0,0-.11,0l.12-.14A.31.31,0,0,0,143.09,238.56ZM143,241.8c.09,0,0,0,0,0v0S143,241.81,143,241.8Z"/><path class="cls-1" d="M177,250.4c-.09,0-.1-.14-.2-.14l.07,0a.87.87,0,0,0-.28-.87h0c-.15-.3-.11-.68-.38-.93h0a2.2,2.2,0,0,0-.2-.23c-.09-.13,0-.27-.06-.41a1,1,0,0,0,0-.35c-.09-.17-.09-.41-.33-.48a.24.24,0,0,1-.12-.31.13.13,0,0,0-.14-.14h0a.14.14,0,0,0,0-.06.37.37,0,0,0,.07-.14,2.87,2.87,0,0,0-.48-1.14,2.33,2.33,0,0,1-.27-.35l-.43-1a1.48,1.48,0,0,0-.35-.76c-.08-.23-.15-.47-.23-.7a1.16,1.16,0,0,0-.34-.76c-.17-.39-.35-.77-.53-1.16l-.24-.69c-.3-.68-.59-1.36-.89-2l-.2-.54c-.07-.18-.13-.36-.19-.54a1.73,1.73,0,0,1-.39-.76l0-.2-.37-.54h0c-.19-.14-.12-.37-.19-.55a1.2,1.2,0,0,0-.35-.78l0-.32-.21-.38c-.17-.39-.18-.87-.6-1.12h0c.17-.28-.12-.47-.13-.72h-2.38c-.25,0-.58-.09-.59.35h0a33.88,33.88,0,0,0-1.6,3.72c0,.11,0,.21-.08.31L164,236l-.37,1.13a1.28,1.28,0,0,0-.35.74l-.35.74a2.93,2.93,0,0,1-.54,1.33c-.32,1.27-1.09,2.37-1.35,3.66a.1.1,0,0,0,0,.1c-.05.09-.09.19-.14.28h0l-.16,0-2.09,5.28a1.88,1.88,0,0,0-.35.79c-.05.18-.11.36-.17.53h.36c1.05-.07,2.13.31,3.15-.21.13-.22.26-.45.4-.67s.22-.63.32-1l.13-.21a6.13,6.13,0,0,0,.46-1.41l.34-.29s.1-.09.15-.09c2.68,0,5.36,0,8,0a.61.61,0,0,1,.61.41.8.8,0,0,1,0,.15,1,1,0,0,0,0,.24c.2.31.07.89.68.86,0,0,0,0,0,0a.41.41,0,0,0-.1.21,2.59,2.59,0,0,0,.24.76c.09.25.1.54.37.7l.1.06c.08.38.37.49.84.48h.32a2.8,2.8,0,0,0,1.52,0l.81,0a.12.12,0,0,0,.19,0C177.13,250.58,177.11,250.49,177,250.4Zm-11.5-9.12a1.31,1.31,0,0,1,0-.59v0a2.83,2.83,0,0,0,.54-1.32,4,4,0,0,0,.53-1.22l.19-.16c.41-.24.41-.79.75-1.1.3.27.38.62.62.86.4.26.4.72.53,1.11a.55.55,0,0,0,.16.18h0c.05.16.1.33.14.49a1.93,1.93,0,0,0,0,.24c.12.49.28,1,.43,1.44s.26,1.1.86,1.36l0,0,.25.72a1,1,0,0,1,.09.71h-1.39a13.91,13.91,0,0,0-3.16,0h-1.23l-.06-.09C164.65,242.9,165.38,242.18,165.45,241.28Z"/><path class="cls-1" d="M213.26,243.76l-1.15-1.46a1.59,1.59,0,0,1-.07-.2c0-.22-.13-.39-.37-.43l-.1-.06a5.61,5.61,0,0,0-1.19-1.46.16.16,0,0,0,0-.1,1.65,1.65,0,0,0-.89-1.36l-.23-.11a3.71,3.71,0,0,0-.52-.71,1.05,1.05,0,0,1-.05-.19.19.19,0,0,0-.12-.17c-.05-.17-.14-.3-.35-.26h0a1.83,1.83,0,0,0-.13-.16.87.87,0,0,0-.39-.55h0a.88.88,0,0,1,0-.16.4.4,0,0,1-.15,0h0c-.07-.23-.17-.43-.45-.44-.3-1-1.23-1.56-1.64-2.48l-.34-.42-.33-.23c0-.19-.16-.44-.31-.39s-.13.4-.1.63v4.09l.09-.16a.22.22,0,0,1-.09.16c0,.11,0,.23.05.34l.31.24c.15.27.26.58.58.7h0a1.42,1.42,0,0,0,.54.77l.15.19.78,1.3c.51.24.57.91,1.1,1.13h0a1.42,1.42,0,0,0,.56.72c0,.05,0,.11,0,.16.13.21.27.41.4.61a.51.51,0,0,0,0-.13l.46.51a.28.28,0,0,0,0,.09.69.69,0,0,0,0,.25c.22.4.41.82.92,1h.09l.08.13c0,.06,0,.12,0,.15a.3.3,0,0,0,.12.2h0c.07.13.15.26.32.28h0c0,.19.12.32.21.46l.45.54h0a2,2,0,0,0,.1.21,4.51,4.51,0,0,0,.6.71h0c.1.42.51.61.69,1,0,0,0,.09.08.14h0l.13.22c.4,0,.37-.31.37-.6,0-1.52,0-3.05,0-4.58A.22.22,0,0,0,213.26,243.76Zm-8.1-9.79h0l0,0v-.11Z"/><path class="cls-1" d="M268.17,241.78v-1a5.19,5.19,0,0,0,0-.56v-.42c0-.07-.05-.12-.1-.13v-.53l-.16,0-.18.07h-.22l-.07,0c-1.38,0-2.76,0-4.14,0-.9,0-1.8-.07-2.7,0H260l-.06-.06-.18.08h0a6,6,0,0,0,0,2.92h0c.05.52.48.35.75.36,1.2,0,2.4,0,3.59,0,.38,0,.77,0,.75.54a22.4,22.4,0,0,1-.07,2.84l-.15.16a7.74,7.74,0,0,0-1.88.9,2.77,2.77,0,0,1-1.37.41.38.38,0,0,0-.14.14h-.82a5.32,5.32,0,0,1-1-.15l-.26,0a1.44,1.44,0,0,1-.86-.22c-.8-.28-1.48-.81-2.29-1.08l-.19-.16a7.43,7.43,0,0,0-.4-.73,6.38,6.38,0,0,1-1.76-4.86c.06-.78.31-1.49.38-2.26a2.63,2.63,0,0,1,0-.49l.25-.4a2,2,0,0,1,.77-1.09h0c.14-.15.39-.24.38-.49l0,0s.09,0,.11-.06l0,0a1.14,1.14,0,0,1,.52-.17,12.41,12.41,0,0,0,2.59-1.26,5.75,5.75,0,0,1,3-.07,6.6,6.6,0,0,0,2.24,1c.21,0,.4,0,.48.28a.65.65,0,0,0,1,.33c.63-.45,1.41-.77,1.76-1.55a2.26,2.26,0,0,0,0-.26.22.22,0,0,0,0-.33v-.2c-.31-.39-.6-.82-1.17-.88,0,0-.08,0-.12,0a1.37,1.37,0,0,0-.37-.26.62.62,0,0,0-.17-.27,3,3,0,0,0-2.15-.77l-.38-.13a.84.84,0,0,0-.8-.28c-1.2,0-2.4,0-3.6,0a.87.87,0,0,0-.79.27.16.16,0,0,1-.16,0,5,5,0,0,0-3.06,1.28c0,.05-.07.12-.11.18l-.18,0-.93.86h0c-.41,0-.46.45-.75.61s-.34.44-.49.68l0,.13a.58.58,0,0,0-.21.23.23.23,0,0,0-.19.1l-.18.34a.2.2,0,0,0,0,.32h-.09c-.3.15-.33.44-.36.73v.06h-.08v.35h0c0-.11-.1-.22-.11,0-.38.21-.3.59-.34.93,0,0,0,.09.07.14s0,0,0,.05v.05l-.09-.06a1.21,1.21,0,0,0-.34,1.3.52.52,0,0,1,.19.12v.09a.38.38,0,0,0-.24.13,6.91,6.91,0,0,0,.23,3.9c.17,0,.25,0,.28,0v.09s0,0,0,0a.66.66,0,0,1-.11.16.72.72,0,0,0-.07.38,9.44,9.44,0,0,0,2.51,3.91.51.51,0,0,0,.36.05h.12c.26.27.47.62.89.69a5.75,5.75,0,0,0,2.3,1.28,10.13,10.13,0,0,0,8.18-.35,1.2,1.2,0,0,1,.38,0,.71.71,0,0,0,.47-.23.54.54,0,0,1,0-.2l.5-.18h.19l1.44-1.33a.71.71,0,0,0,.5-.75c0-.47,0-.94,0-1.4C268.2,244.25,268.18,243,268.17,241.78Zm-6.41,5.92Z"/><path class="cls-1" d="M249.35,249.58c-.15-.22-.14-.6-.52-.6h0v0a2.42,2.42,0,0,1-.1-.36,1.1,1.1,0,0,0-.29-.54l-.35-.37-.55-.85h0c-.72-1.22-1.43-2.44-2.16-3.66-.19-.33-.38-.64.11-.87a2.79,2.79,0,0,0,1.33-1.09.55.55,0,0,0,.36-.35h0c.55-.4.58-1.1.94-1.6h0a.36.36,0,0,1,.14-.11,8.77,8.77,0,0,0,0-4.23.46.46,0,0,1-.13-.08,2.81,2.81,0,0,0-.46-1l-.15-.33L247,233a.57.57,0,0,0-.35-.36c-.33-.35-.58-.8-1.16-.78h0s-.06,0-.09,0l-.06,0c.17-.67-.52-.46-.82-.66a1.77,1.77,0,0,1-.87-.23c-.37-.16-.78,0-1.15-.14l-2.21.1h-.72l-.31-.09c-.07.12-.15.24-.23.36.21.89-.11,1.82.19,2.71h0c1.34.28,2.73-.1,4.06.28.14.17.35.15.54.16a.28.28,0,0,1,0,.18c.14.13.28.26.41.4l.08-.07.09,0,.49.83-.06.36a4.6,4.6,0,0,1-.13,2.21,1.59,1.59,0,0,0-.13.22,2.64,2.64,0,0,0-.28.67.31.31,0,0,1-.19.21,1.45,1.45,0,0,0-.53.18c-.12.1-.27.19-.29.36a1,1,0,0,0-.39,0c-.19.06-.38.12-.57.2a2.52,2.52,0,0,1-.91.06,6.1,6.1,0,0,0-1.58.09h-.61c-.07-.09-.11-.08-.11,0,0,1,0,2.05,0,3.08h.84l1.09,0c.37,0,.72,0,.94.39.42.8.88,1.59,1.33,2.38a2.24,2.24,0,0,1,.57.93.64.64,0,0,1,.31.56l.76,1.12a1.87,1.87,0,0,0,2.36,1.51,15.9,15.9,0,0,1,2.29,0l-.16-.56A.08.08,0,0,1,249.35,249.58Z"/><path class="cls-1" d="M190.61,234h.09a2.32,2.32,0,0,0,.83.06c1.91,0,3.81.09,5.71-.1h.64s0,0,.05-.07,0-.06-.07-.09a.12.12,0,0,0,.08-.06,15.79,15.79,0,0,0-.05-2.75.47.47,0,0,1-.07-.12.25.25,0,0,0-.14.06l-7.16-.06a.77.77,0,0,0-.15.16h-.09a7.12,7.12,0,0,0-.15,2.68C190.11,234,190.39,234,190.61,234Z"/><path class="cls-1" d="M217,231.35a2.29,2.29,0,0,0-.07-.36h0a.2.2,0,0,0,0-.17,12.78,12.78,0,0,1-2.55,0V231c0,.67-.07,1.35-.07,2l0,16.86h0c0,.16.06.19.18.22h0l0,.18H217a.11.11,0,0,1,.13,0l-.09-.17Q217,240.7,217,231.35Zm-1.17,17.24Z"/><path class="cls-1" d="M232.5,248.59h0c0-.5,0-1,0-1.48-.22-.23-.5-.19-.78-.19h-6.19a1.34,1.34,0,0,0-.81.15l-.34.06a9,9,0,0,0,0,3.11v0l.18,0a1.4,1.4,0,0,0,.27-.33.33.33,0,0,0,.3.16h7a.94.94,0,0,0,.23.16l.2,0c0-.31,0-.62,0-.92Z"/><path class="cls-1" d="M137.45,233.52v-2.31a.19.19,0,0,0-.15,0l-3,0v.38c0,.12,0,.24,0,.36v.75h0v.73c0,3.71,0,7.43,0,11.14,0,2,0,3.93.05,5.89a8.79,8.79,0,0,0,2.94,0l0,.17.09,0,.09,0v-.37a1.71,1.71,0,0,0,.07-.6c0-5.27,0-10.54,0-15.82A.75.75,0,0,0,137.45,233.52Z"/><path class="cls-1" d="M189,231a.39.39,0,0,0-.06-.15h-3.09a.26.26,0,0,0,0,.17c-.24.3-.13.66-.13,1q0,8.57,0,17.11c0,.35.16.74-.19,1v.08c0,.13.07.15.16.06l.18-.06h0l2.91.07c.46,0,.48-.24.37-.59a2.28,2.28,0,0,0,0-1.07,2.63,2.63,0,0,0,0-1.15h0c0-2.58,0-5.16,0-7.74,0-2.35.06-4.7,0-7.06C189.16,232.11,189.37,231.51,189,231Zm-.22,11.69h0v0h0A.06.06,0,0,1,188.79,242.67Zm0,3.52h0Z"/><path class="cls-1" d="M132.5,249.87h0c-.18-.43-.37-.86-.56-1.29a16.79,16.79,0,0,0-1.32-3.12,4.53,4.53,0,0,0-.72-1.71l-.19-.53h0l-.23-.9a5.6,5.6,0,0,1-.73-1.68,1.68,1.68,0,0,1-.36-.93c-.37,0-.24-.37-.35-.57l-.36-.77h0a24.24,24.24,0,0,0-2-4.61c-.14-.42-.27-.85-.41-1.27l0-.36c-.1-.15-.21-.29-.32-.44a.37.37,0,0,0-.36-.36,8.92,8.92,0,0,1-2.63-.09,1.53,1.53,0,0,0-.39,1h0c-.47.49-.42,1.25-.89,1.74-.08.57-.46,1.06-.38,1.67-.44.14-.46.55-.56.9l-.71,1.34-.21.9-.21.53h0a1.32,1.32,0,0,0-.36.77c-.07.17-.13.34-.2.5a6.11,6.11,0,0,0-.7,1.76h-.17c-.14.48-.29,1-.44,1.43h0c-.12.25-.24.49-.35.74a1,1,0,0,0-.35.77.12.12,0,0,0,0,.13,3.66,3.66,0,0,0-.55,1.34l-.54,1.31c.13.21,0,.37-.08.55-.49.3-.49.85-.67,1.3.08.18,0,.43.18.56,0,0,0,0,0,0s0,.07,0,.11c.84,0,1.68,0,2.53,0,.27,0,.46,0,.5-.36h0c.3-.07.27-.33.32-.54h0l.17,0a15,15,0,0,1,.82-2.24.93.93,0,0,1,1.07-.74c2.64,0,5.28,0,7.93,0,.12.36.25.73.38,1.09a5.93,5.93,0,0,1,.74,1.85c.34.27.21,1,.93.9s1.58,0,2.37,0,.82-.2.42-.76Zm-6.28-6.68.1.09a.65.65,0,0,0,0,.14.88.88,0,0,1-.18.47H125c-.34,0-.69,0-1,0-1.11,0-2.21.07-3.32-.05-.28-.1-.25-.35-.27-.57a.42.42,0,0,1,.25-.49,1.54,1.54,0,0,0,.19-.17,18.51,18.51,0,0,0,1.25-3.27l-.06-.39.12-.32h0a.18.18,0,0,0,.16,0,1.76,1.76,0,0,0,.56-1.37,1.94,1.94,0,0,1,0-.2,2,2,0,0,0,.25-.67,8.45,8.45,0,0,1,1.29,2.79,6,6,0,0,0,.73,1.33.46.46,0,0,1,.27.59.73.73,0,0,0,.39.74l.1,0C126,242.3,126.08,242.75,126.22,243.19Zm-4.12-9.95h0a0,0,0,0,1,0,0Z"/><path class="cls-1" d="M223.35,236a50.07,50.07,0,0,0-.1-5h0a.22.22,0,0,0,0-.16l-3.08,0c-.38.29-.32.71-.32,1.1v17.26c0,.36-.05.75.27,1h.2l.18.07.07-.07h2.52l0,0c.49-.2.3-.64.3-1C223.36,244.9,223.37,240.47,223.35,236Z"/><path class="cls-1" d="M224.38,233.76h0c.07.31.32.23.52.23l7.07,0,.09,0,.08,0a8.92,8.92,0,0,0,.14-3.09.24.24,0,0,0-.14.05l-7.73-.06a.26.26,0,0,0,0,.15h0A11.17,11.17,0,0,0,224.38,233.76Z"/><path class="cls-1" d="M190.47,241.72h0l5.26.05c1.75,0,1.78,0,1.72-1.75,0-.42.37-1-.29-1.28a.54.54,0,0,0-.07-.13h-.32a.47.47,0,0,0-.33-.12h-5.32c-.25,0-.5,0-.66.22h0l-.12-.1a6.42,6.42,0,0,0-.12,3.05S190.38,241.71,190.47,241.72Z"/><path class="cls-1" d="M197.87,247.14h-7.42l0,0-.34,0a16.57,16.57,0,0,0,.09,3.15l.23-.05.19.06,7.05-.07a.25.25,0,0,0,0-.15h0c0,.05,0,.1,0,.15.34.08.44-.1.43-.39l-.06-2.72Z"/><path class="cls-1" d="M231.4,238.79l-.76,0h0l-6.26,0v.92h0v1.66c-.09.46.24.4.51.4l6.51,0h.2a7.79,7.79,0,0,0,0-1.08C231.5,240,231.88,239.37,231.4,238.79Zm-4.94.8h0l-.17,0h0Z"/><rect class="cls-2" width="400" height="400"/></g></g></svg>