<svg xmlns="http://www.w3.org/2000/svg" viewBox="0 0 400 400"><defs><style>.cls-1{fill:#fff;}.cls-2{fill:none;}</style></defs><title>Asset 128</title><g id="Layer_2" data-name="Layer 2"><g id="Layer_1-2" data-name="Layer 1"><path class="cls-1" d="M210.33,151.84l-1.21,3.46c3.59,2,4.71,4.72,3.06,7.26a4.82,4.82,0,0,1-6.77,1.19c-2.51-1.88-2.34-4.69.19-7.73a26,26,0,0,0,2.42-4.41c-21.57-4.67-50,9.23-56.37,38.49-5.53,25.4,11.56,52.37,37.15,58,27.23,6,53.8-10.86,59.51-37.69C254,183.83,236.89,157.37,210.33,151.84Zm7.14,29.82a12.15,12.15,0,0,1,5-.11c1.81.42,4.06,1,5.08,2.35a6.26,6.26,0,0,1-.21,8.27c-1.2,1.31-3.61,1.57-5.52,2.14-.49.15-1.16-.32-1.92-.55a10.43,10.43,0,0,1-.2,2.66,15.89,15.89,0,0,1-1.52,2.6,7.42,7.42,0,0,1-1.17-2.47c-.15-2.65.09-5.33-.11-8-.12-1.65-1-3.24-1.08-4.89A2.66,2.66,0,0,1,217.47,181.66Zm-43.4-1.6c.76-2.7,3.05-3.28,6.33-3.93,1,.9,2.54,2.05,3.84,3.39.23.24-.33,1.25-.52,1.9a13.13,13.13,0,0,1-1.86-.63c-.86-.45-1.67-1.43-2.49-1.42a3.29,3.29,0,0,0-2.34,1.56c-.22.4.61,1.71,1.27,2.18,1.3.9,2.86,1.42,4.21,2.26,2.06,1.29,3,3.46,2,5.49-.82,1.56-2.76,3.33-4.35,3.47-2,.19-4.07-1.18-6.08-2a2.16,2.16,0,0,1,.24-1.57,2,2,0,0,1,1.61-.26c1.1.29,2.17,1.14,3.22,1.08A3.6,3.6,0,0,0,181.7,190c.24-.47-.65-1.85-1.35-2.43a17.43,17.43,0,0,0-3.37-1.78C174.63,184.55,173.3,182.79,174.07,180.06Zm12,51.29c-4.46-.13-8.93,0-13.71,0q-.13-1.73-.24-3c.35-.3.5-.54.68-.56,5.29-.67,5.29-.67,5.29-6.11V209.08l-3.54,3.2-2.81-2.67c3.62-2.47,5-7.56,10.86-6.74v24.55l6,.31C189.44,230.25,188.91,231.43,186.1,231.35Zm3.77-39.25c-.12.72-.85,1.35-1.3,2a7.83,7.83,0,0,1-1.39-2.05,12.33,12.33,0,0,1-.09-2.86c-.15-3.9-.31-7.8-.47-11.9,2.57-.81,2.57-.81,3.7,5.44a17.75,17.75,0,0,1,1.93-1c3.57-1.31,6.07.37,6.48,4.15.25,2.19.87,4.35,1.15,6.54.07.51-.54,1.1-.84,1.66-1-.57-2.75-.93-3-1.76-.5-1.54,0-3.39-.25-5a12.81,12.81,0,0,0-1.64-3.29c-1.25.8-3.11,1.34-3.6,2.47C189.82,188.13,190.19,190.23,189.87,192.1Zm21,31.13c-1.06,5.45-4.34,8.47-9.15,8.58-5.34.12-8.4-2.35-9.84-8.06a27.07,27.07,0,0,1,.27-14.48c1.36-4.56,4.77-7,9.18-7s7.7,2.41,9,7.11a72,72,0,0,1,1.4,7.38C211.41,219.23,211.24,221.25,210.85,223.23Zm-3-28.65a6.82,6.82,0,0,1-6.78-6.68,6.75,6.75,0,0,1,13.49-.08A6.84,6.84,0,0,1,207.88,194.58Zm23.53,36.56H215.24c0-1-.09-2.07-.14-3,.43-.24.61-.41.8-.43,5-.37,5-.36,5-5.61V209.39l-3.61,2.78-2.65-2.43a78.24,78.24,0,0,1,6.33-6.1,5.67,5.67,0,0,1,3.81-.62c.39,0,.81,1.76.82,2.71.06,7.13,0,14.26,0,21.66l5.77.37Z"/><path class="cls-1" d="M207.12,217.38c-.43,2.32-.41,5-1.47,7a6.34,6.34,0,0,1-4.55,3c-1.42,0-3.61-1.55-4.21-3a19.65,19.65,0,0,1-.12-14.64,4.81,4.81,0,0,1,9.11.26A62.18,62.18,0,0,1,207.12,217.38Z"/><path class="cls-1" d="M219.16,188.73c.5-2.83,1.13-4.76,3.49-4.88s3.24,1.73,3.3,3.86-.67,4.38-3.28,4C221.39,191.54,220.32,189.77,219.16,188.73Z"/><path class="cls-1" d="M208,191.85c-2.66.06-3.83-1.53-4-3.9a4,4,0,0,1,3.92-4.16c2.36.14,3.61,1.69,3.92,3.88A3.86,3.86,0,0,1,208,191.85Z"/><rect class="cls-2" width="400" height="400"/></g></g></svg>