<svg xmlns="http://www.w3.org/2000/svg" viewBox="0 0 400 400"><defs><style>.cls-1{fill:#fff;}.cls-2{fill:none;}</style></defs><title>Asset 122</title><g id="Layer_2" data-name="Layer 2"><g id="Layer_1-2" data-name="Layer 1"><path class="cls-1" d="M219.5,163.22c2.52,1,5.28,1.62,7.53,3.06,2.9,1.87,4.3,4,4.31,8a32.63,32.63,0,0,1-5.42-.1c-.66-.11-1.17-1.34-1.67-2.11-2.24-3.47-9.15-4.43-12-1.45a5.62,5.62,0,0,0-1.59,3.85,3.91,3.91,0,0,0,3.77,3.59,95.22,95.22,0,0,1,10,1.47,9.91,9.91,0,0,1,7.79,11.64,10.23,10.23,0,0,1-7.26,8.23c-5.72,1.8-11.49,1.95-16.73-1.64a11.64,11.64,0,0,1-5.09-9.06c2.07,0,3.95,0,5.83,0a1.25,1.25,0,0,1,.85.73,9.27,9.27,0,0,0,14.44,3.64c1.63-1.35,1.74-3,1.42-4.79s-1.87-2.6-3.42-2.9c-2.88-.55-5.82-.79-8.72-1.22-6.53-.95-9.87-5.32-9-11.8.44-3.55,4.12-7.2,8.37-8.29l3.35-.85Z"/><path class="cls-1" d="M122.39,214.71c1.71,0,3.43.07,5.14.07H277l.15,3.24H122.39Z"/><path class="cls-1" d="M138.94,163.22c2.71.86,5.46,1.48,7.71,3.5a11.94,11.94,0,0,1,4.21,8.41c-1.93,0-3.75.07-5.56,0a1.73,1.73,0,0,1-1.12-1.12c-.78-3-2.9-4.47-5.79-4.79s-5.62.31-7.17,3a12.84,12.84,0,0,0-1.84,5.38,47,47,0,0,0,.34,11.13c1.19,6.31,8.52,7.95,12.87,4.17.8-.7,1-2.07,1.59-3a2.47,2.47,0,0,1,1.46-1.15c1.63-.15,3.29,0,5.11,0a10.26,10.26,0,0,1-3.66,8.1,14.92,14.92,0,0,1-18.76.95,10.4,10.4,0,0,1-4.05-5.23c-.69-2.37-1.27-4.77-1.89-7.15v-6.62c.66-2.5,1.23-5,2-7.48a8.5,8.5,0,0,1,4.25-5c2.24-1.15,4.64-2,7-3Z"/><path class="cls-1" d="M122.39,233.11c1-2.57,1.93-5.15,3-7.7.21-.53.75-1.33,1.1-1.31a2.48,2.48,0,0,1,1.54,1.05,8,8,0,0,1,1,2.09c.73,2,1.41,4.08,2.12,6.15-1.69,1-1.85-.47-2.31-1.59a25.81,25.81,0,0,0-2.92,0c-.44,0-1.13.39-1.22.72-.37,1.44-1.26,1.24-2.26.92Zm5.64-3-1.12-3.82-1.7,3.82Z"/><path class="cls-1" d="M271.36,236.78l-.49-1.12c2.5-.93,2.75-2.46,1.08-5.39-.59-1-1-2.14-1.53-3.23,1.8-.61,1.8-.61,2.36,1.2.3,1,.61,2,.91,3l.51.13a18.42,18.42,0,0,0,1-2.81c.26-1.42.94-2.16,2.42-2.05v.74c-.83,2-1.77,3.88-2.46,5.88-.5,1.44-.95,2.82-2.32,3.68Z"/><path class="cls-1" d="M163.19,199.89c-1.87,0-3.46.07-5,0-.39,0-.84-.62-1.06-1.06a3,3,0,0,1,0-1.27V164.38c.29-.17.39-.28.49-.28,5.87.06,11.78-.21,17.61.32a9.61,9.61,0,0,1,9.09,7.92c1.17,4.88-.43,9.57-4.81,12.08a1.51,1.51,0,0,0-.74,2.34c1.66,3.58,3.26,7.19,4.86,10.79.29.65.45,1.36.77,2.33-2.13,0-4,.09-5.87-.06-.5,0-1.13-.7-1.38-1.23-1.67-3.63-3.21-7.33-4.92-10.94a2.6,2.6,0,0,0-1.79-1.31c-1.82-.18-3.67,0-5.51-.07-1.25,0-1.71.5-1.69,1.77C163.23,191.9,163.19,195.75,163.19,199.89Zm5.42-19.21v-.15c1.47,0,2.95.08,4.41,0,3.48-.23,5.49-2.48,5.32-5.85a5.42,5.42,0,0,0-4.64-4.9,30.24,30.24,0,0,0-5-.22c-1.75,0-4.25-.53-5.08.39s-.47,3.44-.49,5.24-.53,4.1.36,4.91S166.87,180.54,168.61,180.68Z"/><path class="cls-1" d="M253.9,164c1.68,0,3.15.08,4.61,0s1.75.52,1.74,1.84c-.05,8.57,0,17.14-.07,25.71,0,1.88.51,2.4,2.36,2.33,4.16-.14,8.33,0,12.49-.07,1.38,0,2,.32,2,1.82,0,4.27.08,4.27-4.26,4.27-5.75,0-11.51,0-17.26,0-1.2,0-1.76-.21-1.76-1.58.05-11,0-21.92,0-32.88A14.26,14.26,0,0,1,253.9,164Z"/><path class="cls-1" d="M197.26,164v35.72h-6.35c0-.65-.13-1.3-.13-2,0-10.6,0-21.21,0-31.81,0-1.49.35-2.13,1.94-2C194.12,164.13,195.59,164,197.26,164Z"/><path class="cls-1" d="M244.69,199.8h-6.24V164.18h6.24Z"/><path class="cls-1" d="M160.11,233.3a31.32,31.32,0,0,1-5.06.43,3.38,3.38,0,0,1-2.43-1.42c-.39-.75,0-1.92.1-2.9.07-.65.48-1.33.35-1.91-.29-1.34-.51-2.61,1-3.27,1.27-.55,2.66-.48,3.37.82a2.29,2.29,0,0,1-1.06,3.4c-.14.07-.19.29-.33.52l1.78,1.51.43-2h2.22C159.54,230.13,158.32,231.61,160.11,233.3Zm-3.38-.86.14-.6a7.22,7.22,0,0,0-1.4-1.59,4.57,4.57,0,0,0-1.78-.26c.08.7-.07,1.84.27,2A9.18,9.18,0,0,0,156.73,232.44Zm-1.39-7.75c-.47.74-1,1.15-.93,1.55s.47.88.74,1.32c.38-.41.95-.76,1.06-1.23S155.79,225.48,155.34,224.69Z"/><path class="cls-1" d="M181.18,233.09a11.84,11.84,0,0,0-2.31.37,3.52,3.52,0,0,1-5-2.38,13.2,13.2,0,0,1,.08-4.69c.34-1.86,1.92-2.43,3.63-2.4a3.52,3.52,0,0,1,3.68,2.93,6.1,6.1,0,0,1-1.91-.61c-1.74-1.46-3.21-1.21-4.21.81-.61,1.26-.2,3.88,1,4.69a2.65,2.65,0,0,0,2.16.41c.65-.31,1-1.25,1.49-1.93-.48-.31-.58-.39-.69-.44l-1.75-.79a14.46,14.46,0,0,1,1.91-.58c1.44-.25,2.18.27,2,1.88A22.89,22.89,0,0,0,181.18,233.09Z"/><path class="cls-1" d="M239.36,233.54a35.53,35.53,0,0,0-.05-4c-.07-.57-.66-1.07-1-1.61-.5.5-1.34.94-1.44,1.51a24.22,24.22,0,0,0-.07,4l-.51.41c-.42-.4-1.19-.78-1.21-1.2-.14-1.94-.06-3.9-.06-5.64,1.26-.2,2.39-.68,3.34-.45a12.92,12.92,0,0,0,4.8,0c.51-.07,1.56.87,1.66,1.47a25.3,25.3,0,0,1,.14,4.77c0,.26-.35.53-.54.79-.24-.27-.66-.53-.69-.82a20.6,20.6,0,0,0-.1-2.74c-.21-.77-.77-1.94-1.3-2-1.07-.14-1.63.78-1.58,1.94a13,13,0,0,1,0,2.57c-.06.44-.48.83-.74,1.24Z"/><path class="cls-1" d="M143.12,230.63a9,9,0,0,1,1.27.61c.45.3.82.91,1.28,1a6.31,6.31,0,0,0,2.59-.28,1.61,1.61,0,0,0,.33-1.41,5.73,5.73,0,0,0-2-1c-.85-.31-1.89-.26-2.58-.75-1.57-1.1-1-3.69.91-4.43a3.74,3.74,0,0,1,5.32,2.51c-.66-.16-1.31-.12-1.66-.42-1.83-1.58-2.59-1.55-4.41.69a21.55,21.55,0,0,0,3.05.93c2,.31,3.09,1.15,3.13,2.69a3.11,3.11,0,0,1-3.16,3.08C144.73,234,143.49,233.13,143.12,230.63Z"/><path class="cls-1" d="M247.22,236.31v-9.54c1.62,0,3.27-.32,4.7.08,1.7.49,2.35,3,1.66,5-.55,1.57-2.18,2.21-4.49,1.7a27.35,27.35,0,0,1-.5,2.73C248.56,236.4,247.81,236.31,247.22,236.31Zm.94-6.18c1,1,1.5,2.05,2.22,2.2,1.45.31,1.59-1,1.59-2.06s0-2.51-1.54-2.3C249.72,228.06,249.15,229.14,248.16,230.13Z"/><path class="cls-1" d="M164.48,230.11c-.69,3.29-.69,3.29-1.84,3.33v-9.25a35.33,35.33,0,0,1,4,0c2.22.27,2.89,1.07,2.84,3s-1,2.71-3.08,2.85C165.78,230.14,165.17,230.11,164.48,230.11Zm-.54-1.78.6.67a12.86,12.86,0,0,0,3-1,2.13,2.13,0,0,0-.13-1.94c-.69-.44-2.09-.83-2.47-.46C164.31,226.17,164.25,227.38,163.94,228.33Z"/><path class="cls-1" d="M197.11,226.75c2.44-.37,3.95.22,4.54,1.65s.18,3.94-1.22,4.71c-.77.42-1.9.14-2.85.33-2.81.55-2.17-1.45-2.2-2.93,0-1.77-.06-3.54,0-5.3,0-.43.58-.82.88-1.23a5.69,5.69,0,0,1,.69,1.22A6.64,6.64,0,0,1,197.11,226.75Zm-.13,3.39c.07,1.13.07,2.32,1.67,2.29s1.57-1.21,1.57-2.22,0-2.34-1.59-2.37S197.09,229.05,197,230.14Z"/><path class="cls-1" d="M225.45,230.32c0,2.52-1.49,3.09-2.94,3.44-1.76.42-3.73-.5-4-2.06a16.7,16.7,0,0,1,0-5.73c.38-1.82,2.16-2.24,3.83-2a3.24,3.24,0,0,1,3.15,3.34,9.1,9.1,0,0,1-2-1.1c-1.18-1.16-2.4-1.1-3.31.31a3.89,3.89,0,0,0,0,4.71c1,1.49,2.19,1.51,3.4.16A7.67,7.67,0,0,1,225.45,230.32Z"/><path class="cls-1" d="M255.46,229.08c.33-2.4,1.57-2.68,3-2.59s2.49.59,2.57,2.25.22,3.28.31,4.65c-1.27.15-2.43.33-3.6.42a2.55,2.55,0,0,1-2.9-1.92c-.31-1,.93-2.24,2.38-2.43a5.85,5.85,0,0,0,.73,0,4.06,4.06,0,0,0,1.25-.51c.1-.08-.1-.88-.26-.92a3.46,3.46,0,0,0-1.69,0A8.52,8.52,0,0,0,255.46,229.08Zm3.68,1.06-2.55,1.36c.34.33.67.91,1,.94C258.71,232.53,259.36,232,259.14,230.14Z"/><path class="cls-1" d="M132.34,233.46v-6.59a17.27,17.27,0,0,1,4-.28,2.9,2.9,0,0,1,2,1.75,15.74,15.74,0,0,1,.11,4.55c0,.36-.81.66-1.25,1l-.45-.32a35,35,0,0,0,0-4c-.07-.57-.69-1.07-1.05-1.6-.5.5-1.28.93-1.45,1.53a9.34,9.34,0,0,0-.11,2.9C134.12,233.68,133.52,233.87,132.34,233.46Z"/><path class="cls-1" d="M203.36,228.08c.4-.37.77-1,1.22-1.05a8.5,8.5,0,0,1,3.48,0c.52.15.93,1.33,1.05,2.09.22,1.47.21,3,.28,4.22-1.1.14-2.1.21-3.09.41-1.37.27-3-.55-3.26-1.69s.66-2.22,2.31-2.52a4.14,4.14,0,0,0,.72-.05,5.49,5.49,0,0,0,1.35-.67c.08-.06-.17-.85-.34-.89a4.38,4.38,0,0,0-1.73,0,11.25,11.25,0,0,0-1.76.69Zm4,2.13-2.69,1.19c.29.37.53,1,.87,1.08C206.84,232.68,207.55,232.1,207.41,230.21Z"/><path class="cls-1" d="M233.15,230.23c0,2.43-1.17,3.64-3.4,3.59a3.5,3.5,0,0,1-3.25-3.67,3.44,3.44,0,0,1,3.43-3.67C232.12,226.51,233.18,227.75,233.15,230.23Zm-1.1-.15c-.92-1-1.46-2-2.12-2.08-1.52-.21-1.63,1.1-1.63,2.24s.26,2.34,1.63,2.06C230.63,232.16,231.15,231.07,232.05,230.08Z"/><path class="cls-1" d="M263.37,233.52v-6.61c1.07-.14,2-.23,3-.4a2.1,2.1,0,0,1,2.73,1.94,35.73,35.73,0,0,1,0,4.39c0,.28-.46.54-.7.8-.22-.28-.61-.56-.64-.86-.08-1.09.09-2.21-.09-3.28-.09-.55-.72-1-1.11-1.51-.47.46-1.22.85-1.36,1.4a9.74,9.74,0,0,0-.11,2.91C265.14,233.46,264.7,233.9,263.37,233.52Z"/><path class="cls-1" d="M193.37,230.13c0,2.39-1.07,3.65-3.14,3.63a3.62,3.62,0,0,1-.06-7.21C192.26,226.52,193.36,227.74,193.37,230.13Zm-4.81.07c-.09,1.27.43,2.42,1.75,2.1A3,3,0,0,0,192,230a2.74,2.74,0,0,0-1.78-2C188.86,227.75,188.48,228.94,188.56,230.2Z"/><path class="cls-1" d="M213.14,224.19c0,2,0,4.06,0,6.12a14.43,14.43,0,0,0,.29,1.94c.06.45.1.91.16,1.36-.52-.1-1.2,0-1.51-.35a2.51,2.51,0,0,1-.6-1.61c-.07-2.13,0-4.26,0-6.39C211.43,224.09,211.85,223.69,213.14,224.19Z"/><path class="cls-1" d="M183.44,228.59c0-1.16-.06-2.33,0-3.48,0-.39.52-.74.8-1.11.23.36.65.71.66,1.08.07,1.76,0,3.54.05,5.31a8.21,8.21,0,0,0,.3,1.76,12.38,12.38,0,0,0,.39,1.22c-.32.07-.74.3-1,.18-.46-.28-1.12-.69-1.18-1.12a32.72,32.72,0,0,1,0-3.84Z"/><rect class="cls-2" width="400" height="400"/></g></g></svg>