<svg xmlns="http://www.w3.org/2000/svg" viewBox="0 0 53 78.55"><defs><style>.cls-1{fill:#fff;}</style></defs><title>Asset 53</title><g id="Layer_2" data-name="Layer 2"><g id="Layer_1-2" data-name="Layer 1"><path class="cls-1" d="M0,25.58a.71.71,0,0,1,.25,0,8.19,8.19,0,0,1,0,5,1.14,1.14,0,0,1-.26,0Z"/><path class="cls-1" d="M.26,30.6a8.19,8.19,0,0,0,0-5A27.93,27.93,0,0,1,24.31.26c11-1.46,20.81,3.25,25.87,12.36,5.92,10.65,2.18,25-8.09,31.1-9.78,5.79-24.2,1.16-28.09-9C11,26.93,14,18,20.76,14.21,27.25,10.58,36,12.73,39.5,18.82,43.19,25.18,40,33,33.16,34.58a7.7,7.7,0,0,1-9-4.08,3.23,3.23,0,0,1,1.16-4.36,3,3,0,0,1,4.14,1.34,1.93,1.93,0,0,0,2.38.9c2.92-.74,4.1-4.09,2.4-6.87-2.42-4-8.68-4.48-12.23-1.05a11,11,0,0,0,.08,15.34c5.92,5.66,17.56,6.68,23.12-4.63C50.44,20.54,43.31,8,31.55,6.4a22.17,22.17,0,0,0-23.48,13c-4.25,10.14-.85,26,14.58,30.24,7.64,2.1,12,7.74,12,15.66,0,3.19,0,6.37,0,9.56,0,2.23-1.25,3.67-3.12,3.65s-3-1.38-3-3.61c0-3.28,0-6.56,0-9.85,0-4.48-1.82-7.23-6-9-1.94-.8-4-1.25-5.91-2.17C6.86,49.22,1.45,41.39.26,30.6Z"/></g></g></svg>