<svg xmlns="http://www.w3.org/2000/svg" viewBox="0 0 388.35 374.17"><defs><style>.cls-1{fill:#b1aeae;}.cls-2{fill:#9a9898;}.cls-3{fill:#747474;}.cls-4{fill:#09000c;}.cls-5{fill:#8c8e8f;}.cls-6{fill:#151e25;}.cls-7{fill:#000f19;}.cls-8{fill:#00000c;}.cls-9{fill:#120700;}.cls-10{fill:#888787;}.cls-11{fill:#12141a;}.cls-12{fill:#e8f6ff;}.cls-13{fill:#cce6f3;}.cls-14{fill:#240000;}.cls-15{fill:#fabaa9;}.cls-16{fill:#f8aa92;}.cls-17{fill:#fbccbd;}.cls-18{fill:#fabba6;}.cls-19{fill:#001823;}.cls-20{fill:#303a3a;}.cls-21{fill:#3f4747;}.cls-22{fill:#4d5857;}.cls-23{fill:#55605f;}.cls-24{fill:#f58a75;}.cls-25{fill:#6d7b79;}.cls-26{fill:#2f2f2f;}.cls-27{fill:#fff;}.cls-28{fill:#fbb686;}.cls-29{fill:#2c2c2c;}.cls-30{fill:#251e1d;}.cls-31{fill:#000004;}.cls-32{fill:#f9a873;}.cls-33{fill:#181514;}.cls-34{fill:#0e0301;}.cls-35{fill:#211d51;}.cls-36{fill:#0c0000;}.cls-37{fill:#f89c69;}.cls-38{fill:#070504;}.cls-39{fill:#1f1c1b;}.cls-40{fill:#6a6b6b;}.cls-41{fill:#f2f2f2;}.cls-42{fill:#ddd7d6;}.cls-43{fill:#221314;}.cls-44{fill:#3e191a;}.cls-45{fill:#672d31;}.cls-46{fill:#a65c6d;}.cls-47{fill:#8f3a42;}.cls-48{fill:#dedcee;}.cls-49{fill:#bcbcbc;}.cls-50{fill:#434343;}.cls-51{fill:#212121;}.cls-52{fill:#9ea2b8;}.cls-53{fill:#8690a7;}.cls-54{fill:#babac7;}.cls-55{fill:#d1d1d1;}.cls-56{fill:#d8d9d9;}.cls-57{fill:#c1cecf;}.cls-58{fill:#6e4d41;}.cls-59{fill:#a0887f;}.cls-60{fill:#fdcb80;}.cls-61{fill:#fdecb2;}</style></defs><title>hero_1st row</title><g id="Layer_2" data-name="Layer 2"><g id="Layer_1-2" data-name="Layer 1"><path class="cls-1" d="M386.19,108.22s0-.08-.06-.11a7.89,7.89,0,0,0-1.15-1.37s0,0,0,0a15,15,0,0,0-5.88-3.78q-2.46.69-5,1.67a.75.75,0,0,0-.16,0,21,21,0,0,0-4,1.69l-.49.28a.82.82,0,0,0-.24.1l-24.08,13.14v0l-3.59,1.94-.3.16-6.78,3.7-.17.08-5.06,2.76c-7.61,4.16-14.14,12.83-16.93,21.67a28.91,28.91,0,0,0-1.48,8.81v67.19c0,7,3.2,11.53,8.1,12.51,2.95.62,6.48,0,10.31-2.11l40.71-22.19c7.28-4,13.58-12.09,16.56-20.52a34.33,34.33,0,0,0,1.28-4.65,25.74,25.74,0,0,0,.58-5.3v-67.2A15.35,15.35,0,0,0,386.19,108.22Zm-40.83,22.16a7.35,7.35,0,0,0-.05-1,.3.3,0,0,1,.05.19.36.36,0,0,1,0,.16A1.47,1.47,0,0,1,345.36,130.38Z"/><path class="cls-2" d="M311.14,40.23a14.06,14.06,0,0,1-4.05.49,5.36,5.36,0,0,1-.69-.06c.06.8.11,1.57.22,2.34l.28.13c.63.33,1.5.82,2.54,1.45.19.14.38.25.55.39a105.46,105.46,0,0,1,9.79,6.94c.93,1.34,1.67,4.11,2.19,7.71l1,.58c5.31,3,10.12,9.11,13.55,16.45a57.72,57.72,0,0,1,4.1,12.17,49.73,49.73,0,0,1,1.17,10.56l-.11,7.74c6.9-3.3,13.66-6.21,18-7.3v-11a2.37,2.37,0,0,0,0-.47c-.1-13-5.93-27.11-13.81-34.88-.19-.17-.36-.36-.55-.52a20.5,20.5,0,0,0-2.13-1.78l-3.84-2a4.2,4.2,0,0,1-.6-.3c-1.5-.79-3.06-1.59-4.59-2.38-.49-.25-1-.49-1.46-.74-3.33-1.72-6.59-3.44-9.38-4.9C319.75,45.16,313.32,44.94,311.14,40.23Z"/><path class="cls-3" d="M340.66,88.82a57.72,57.72,0,0,0-4.1-12.17c-3.43-7.34-8.24-13.44-13.55-16.45l-1-.58a108.43,108.43,0,0,1,.22,24.44,81.29,81.29,0,0,1-2.9,15.21c-.36,1.07-.71,2.11-1.09,3.09a6.74,6.74,0,0,1-.69.74,49,49,0,0,0,5,9.3,8,8,0,0,0-2,.88,12.51,12.51,0,0,1,1.67,3.94c5-2.79,12.37-6.67,19.56-10.1l.11-7.74A49.73,49.73,0,0,0,340.66,88.82Z"/><path class="cls-4" d="M332.42,117.06v0s0,0,0,0Z"/><path class="cls-5" d="M328.24,25.37a7.06,7.06,0,0,1-1-.43c.36.19.71.41,1.1.59C328.29,25.45,328.26,25.45,328.24,25.37Z"/><path d="M319.65,23.68c0,.44,0,.82,0,1.21v.4c0,.41-.09.82-.14,1.23-.22,1.89-.63,3.84-.93,5.37a12,12,0,0,1-2.49,5.17,9.8,9.8,0,0,1-4.95,3.17c2.18,4.71,8.61,4.93,12.17.68a10.13,10.13,0,0,0,1.78-3.17c1.67-4.9-.41-14.17-5.47-15.27a7.4,7.4,0,0,0,0,.8Z"/><path class="cls-6" d="M313.41,54.73a10.43,10.43,0,0,0-1.67,2.69s0,0,0,0a24.89,24.89,0,0,0-1,4c-1.2,7-.9,16.52-1.06,23.56a36.28,36.28,0,0,1-.25,5.78c-.05.41-.16.84-.22,1.25l.11,0c-.16.85-.3,1.64-.51,2.46-2.91,1.23-5.48,3.53-8,6-1.2,1.21-2.35,2.49-3.5,3.7l-.93.93c-.74.73-1.45,1.42-2.19,2.07-.17.17-.38.36-.57.53-2.47,2-5.12,4.51-7.88,6.81a39.42,39.42,0,0,1-7.66,5.11v0c2,1.07,2.49,3.26,2.62,5.47l.06-.05c.79-.16,1.64-.39,2.54-.66a70.47,70.47,0,0,0,11.35-4.87c.66-.35,1.32-.68,1.95-1,2.6-1.42,5-2.9,7-4.18,1-.63,1.95-1.26,2.85-1.89a64.81,64.81,0,0,0,5.22-4.13c.82-.72,1.62-1.45,2.41-2.22l1.21-1,1-.86a8.41,8.41,0,0,0,1.23-1.23,6.74,6.74,0,0,0,.69-.74c.38-1,.73-2,1.09-3.09a81.29,81.29,0,0,0,2.9-15.21A108.43,108.43,0,0,0,322,59.62c-.52-3.6-1.26-6.37-2.19-7.71l-.27.3A6.42,6.42,0,0,0,313.41,54.73Z"/><path class="cls-7" d="M316.28,104.33l-1,.86-1.21,1c-.79.77-1.59,1.5-2.41,2.22a64.81,64.81,0,0,1-5.22,4.13c-.9.63-1.86,1.26-2.85,1.89-2,1.28-4.4,2.76-7,4.18-.63.36-1.29.69-1.95,1a15,15,0,0,0,2,.49c3.28.69,6.23.2,9.76-.38.85-.14,1.67-.3,2.49-.52a33.39,33.39,0,0,0,6.08-2.1c1.86-.93,3.63-2.69,5.52-3.81a8,8,0,0,1,2-.88,49,49,0,0,1-5-9.3A8.41,8.41,0,0,1,316.28,104.33Z"/><path class="cls-8" d="M315,117.09a33.39,33.39,0,0,1-6.08,2.1,16.66,16.66,0,0,1-.08,3.53v0a8.19,8.19,0,0,1-1.67,3.21c-.05.08-.14.13-.19.22a37,37,0,0,1,4.79-3.15l.55-.28,2.54-1.42,2.79-1.5,4.57-2.46c0-.06,0-.11,0-.17a12.51,12.51,0,0,0-1.67-3.94C318.6,114.4,316.83,116.16,315,117.09Z"/><path class="cls-9" d="M282.19,17.93a15,15,0,0,0,1.48.9,12.55,12.55,0,0,0,1.64.82s.05,0,.05,0a28.14,28.14,0,0,0,6.57,2.06,15,15,0,0,1-1.21-2.63c3.87,1.51,8,2.19,12,3v0a10.93,10.93,0,0,0-1.42,5.59,17.55,17.55,0,0,0,.9,6c.05.19.11.38.16.55a11.88,11.88,0,0,0,1.18,2.3,10,10,0,0,0,1.15,1.61c.58.68,1.26,1.09,1.83,1.78a3.34,3.34,0,0,1,.58.76,14.06,14.06,0,0,0,4.05-.49,9.8,9.8,0,0,0,4.95-3.17,12,12,0,0,0,2.49-5.17c.3-1.53.71-3.48.93-5.37.05-.41.11-.82.14-1.23v-.4c0-.39,0-.77,0-1.21v-.41a7.4,7.4,0,0,1,0-.8,2.46,2.46,0,0,1-.06-.66c-.35-4.67-1.75-10-4.59-13.73s-7.2-5.88-11.69-7a32.84,32.84,0,0,0-5.6-1A3.19,3.19,0,0,0,297,0a17.21,17.21,0,0,0-11,3.86,29.15,29.15,0,0,0-2.62,2.68,7.46,7.46,0,0,0-.91,1.4,10.21,10.21,0,0,0-1.75,3.22,14.36,14.36,0,0,0-.87,5c.43.36.87.72,1.31,1l.35.25A3.61,3.61,0,0,0,282.19,17.93ZM304.3,29.72a1.92,1.92,0,0,0,.22-.55,1.6,1.6,0,0,1-.06.55ZM303,22.14c.52,0,1,0,1.43.06a.76.76,0,0,0,0,.33l-1.61-.39Z"/><path class="cls-10" d="M310.81,226.08V208.16l-.19.09a2,2,0,0,0,.19-.39v-49a28.91,28.91,0,0,1,1.48-8.81c2.79-8.84,9.32-17.51,16.93-21.67l5.06-2.76.17-.08,6.78-3.7.3-.16,3.59-1.94v0L369.2,106.6a.82.82,0,0,1,.24-.1l.49-.28a21,21,0,0,1,4-1.69.75.75,0,0,1,.16,0q2.55-1,5-1.67c-5.83-2.41-13.68-3.72-16.47-3.58a13.44,13.44,0,0,0-2.9.49c-4.32,1.09-11.08,4-18,7.3-7.19,3.43-14.55,7.31-19.56,10.1,0,.06,0,.11,0,.17l-4.57,2.46-2.79,1.5-2.54,1.42-.55.28A37,37,0,0,0,307,126.2a37.74,37.74,0,0,0-5.91,5.74,33.34,33.34,0,0,0-4.59,7.5c-.25.52-.47,1-.66,1.55-.3.8-.57,1.59-.79,2.38a20.66,20.66,0,0,0-.69,3.13,18.48,18.48,0,0,0-.36,3.25l-.05,5.17-.11,6.51-.08,7-.11,7.69-.25,17.65-.05,4.32-.14,9c0,.93,0,1.83-.11,2.72,0,.38,0,.76-.05,1.16-.25,4.14-.77,8.43.05,12.38l.28-.12v.47a7.24,7.24,0,0,0,.08,1.13c1,8.83,14.63,12.09,25.47,13.81l0-.11C314,237.61,310.81,233.12,310.81,226.08Zm21.61-109h0s0,0,0,0Zm-23.55,14.17a3.43,3.43,0,0,1-.06.55,1.79,1.79,0,0,0-.05-.42C308.81,131.31,308.84,131.25,308.87,131.23Z"/><path class="cls-3" d="M310.72,61.43a24.89,24.89,0,0,1,1-4A11.59,11.59,0,0,0,310.72,61.43Z"/><path class="cls-7" d="M307.06,51.12c0,.11-.06.25-.08.35a11,11,0,0,1-1.48,3.59c-2.68,4-6.87,6.37-10.31,9.61a19.21,19.21,0,0,0-2.58,2.81,50.15,50.15,0,0,0-5.49,8.46A20.6,20.6,0,0,0,285,85.1v.16a37.22,37.22,0,0,0,1.42,7,.1.1,0,0,1,0,.06c.69,2.37,1.5,4.7,2.19,7.08a11,11,0,0,1,.44,3.29,11.62,11.62,0,0,1-.44,2.57,7.09,7.09,0,0,1-.69,1.56,16,16,0,0,1-5,5.57,9.05,9.05,0,0,0,2.82,2.17c2.76-2.3,5.41-4.79,7.88-6.81.19-.17.4-.36.57-.53.74-.65,1.45-1.34,2.19-2.07l.93-.93c1.15-1.21,2.3-2.49,3.5-3.7,2.49-2.49,5.06-4.79,8-6,.21-.82.35-1.61.51-2.46l-.11,0c.06-.41.17-.84.22-1.25a36.28,36.28,0,0,0,.25-5.78c.16-7-.14-16.58,1.06-23.56a11.59,11.59,0,0,1,1-4s0,0,0,0a10.43,10.43,0,0,1,1.67-2.69,6.42,6.42,0,0,1,6.1-2.52l.27-.3A105.46,105.46,0,0,0,310,45c-.17-.14-.36-.25-.55-.39-1-.63-1.91-1.12-2.54-1.45A20.28,20.28,0,0,1,307.06,51.12Z"/><path class="cls-11" d="M308.81,122.77v0a16.66,16.66,0,0,0,.08-3.53c-.82.22-1.64.38-2.49.52-3.53.58-6.48,1.07-9.76.38a15,15,0,0,1-2-.49,70.47,70.47,0,0,1-11.35,4.87c-.9.27-1.75.5-2.54.66l-.06.05c-.3.28-.57.55-.87.8,3.14,1.44,11.52,5.11,15.62,7h.05s.06,0,.06.06l-.06,0a4.73,4.73,0,0,1,.11,2v.44l.14-.08c.36-.22.74-.46,1.12-.74l.8-.57s0-.06-.06-.11c.58-.31,1.12-.61,1.67-.93a15.77,15.77,0,0,0,1.75-1.18A37.74,37.74,0,0,1,307,126.2c.05-.09.14-.14.19-.22A8.19,8.19,0,0,0,308.81,122.77Z"/><path class="cls-8" d="M308.87,131.23s-.06.08-.11.13a1.79,1.79,0,0,1,.05.42A3.43,3.43,0,0,0,308.87,131.23Z"/><path class="cls-12" d="M301.89,48.16a15.48,15.48,0,0,1-3.69.33,8.64,8.64,0,0,1-1.67-.19,10,10,0,0,1-2.82-1.12s-.08,0-.14-.06c-1.37-.79-2.65-1.91-2.85-3.28h.12c0-.66,0-1.34,0-2a5.7,5.7,0,0,0,0-.71c0-.35-.06-.71-.06-1.06a4.3,4.3,0,0,1-1.55-.66.34.34,0,0,1-.14,0s-.08.1-.13.16l-.69.84c-3,3.86-4,6.63-1.89,11.94a14.7,14.7,0,0,1,2.46-2c.63-.41,1.26-.79,1.89-1.17a31.13,31.13,0,0,0,2.79-1.79,27,27,0,0,0,1.2,4.11.91.91,0,0,0,.12.35,58.32,58.32,0,0,0,3.31,7.12c2.05-1.94,6.21-4.41,8.89-7.45,0-.1,0-.24.08-.35a20.28,20.28,0,0,0-.16-8l-.28-.13c.08.79.19,1.55.3,2.35C306.05,46.82,304,47.73,301.89,48.16Z"/><path class="cls-13" d="M289.3,56.07l.06,0c-.14.45-.28.89-.38,1.33a51.16,51.16,0,0,0-2.36,14,21.71,21.71,0,0,0,.5,4.47,50.15,50.15,0,0,1,5.49-8.46,19.21,19.21,0,0,1,2.58-2.81c3.44-3.24,7.63-5.57,10.31-9.61A11,11,0,0,0,307,51.47c-2.68,3-6.84,5.51-8.89,7.45a58.32,58.32,0,0,1-3.31-7.12c-1.65,1.51-4.22,2.36-5.59,4.19C289.25,56,289.25,56,289.3,56.07Z"/><path class="cls-14" d="M304.52,29.17a1.92,1.92,0,0,1-.22.55h.16A1.6,1.6,0,0,0,304.52,29.17Z"/><path class="cls-14" d="M304.41,22.2c-.41,0-.91,0-1.43-.06h-.13l1.61.39A.76.76,0,0,1,304.41,22.2Z"/><path class="cls-15" d="M299.78,22.28c0,.88-.11,2-.11,3a7.52,7.52,0,0,1,.3,1.56,2.32,2.32,0,0,1,0,.44,5.91,5.91,0,0,1-.27,2.27c-.69,2.08-1.64,2.73-1.78,5.14a22.18,22.18,0,0,1-.44,4v.1a5.58,5.58,0,0,0-.13.69v0a.07.07,0,0,1,.05,0,.12.12,0,0,0,.08,0s.06,0,.08,0a13.61,13.61,0,0,0,1.86-1s.06,0,.06,0l1.17-.69.14.14c.85-.5,1.84-.84,2.71-1.39a11.88,11.88,0,0,1-1.18-2.3c-.05-.17-.11-.36-.16-.55a17.55,17.55,0,0,1-.9-6,10.93,10.93,0,0,1,1.42-5.59v0c-4-.84-8.12-1.52-12-3a15,15,0,0,0,1.21,2.63,31.14,31.14,0,0,0,6.84.57C299.13,22.31,299.45,22.31,299.78,22.28Z"/><path class="cls-16" d="M300.68,37.82l-1.17.69s-.06,0-.06,0a.26.26,0,0,0,.06.2,14.9,14.9,0,0,1-.44,7.82,7.7,7.7,0,0,1-.87,1.94,15.48,15.48,0,0,0,3.69-.33c2.14-.43,4.16-1.34,5-2.81-.11-.8-.22-1.56-.3-2.35s-.16-1.54-.22-2.34a5.36,5.36,0,0,0,.69.06,3.34,3.34,0,0,0-.58-.76c-.57-.69-1.25-1.1-1.83-1.78a10,10,0,0,1-1.15-1.61c-.87.55-1.86.89-2.71,1.39Z"/><path class="cls-8" d="M297.68,134.16l-.8.57c-.38.28-.76.52-1.12.74l-.14.08-.43.22-22.05,12,2-.32c1.78-.25,3.58-.55,5.3-.83a119.38,119.38,0,0,0,12-2.54c.83-.22,1.67-.47,2.5-.72.22-.79.49-1.58.79-2.38.19-.51.41-1,.66-1.55a33.34,33.34,0,0,1,4.59-7.5,15.77,15.77,0,0,1-1.75,1.18C298.77,133.42,298.25,133.77,297.68,134.16Z"/><path class="cls-17" d="M289,39.36a.34.34,0,0,0,.14,0,4.3,4.3,0,0,0,1.55.66.89.89,0,0,0,.23,0A9.2,9.2,0,0,0,296.2,40a7.17,7.17,0,0,0,1.18-.41v0a5.58,5.58,0,0,1,.13-.69v-.1a22.18,22.18,0,0,0,.44-4c.14-2.41,1.09-3.06,1.78-5.14a5.91,5.91,0,0,0,.27-2.27,2.32,2.32,0,0,0,0-.44,7.52,7.52,0,0,0-.3-1.56c0-1,.11-2.13.11-3-.33,0-.65,0-1,0a31.14,31.14,0,0,1-6.84-.57,28.14,28.14,0,0,1-6.57-2.06s-.05,0-.05,0a12.55,12.55,0,0,1-1.64-.82,26,26,0,0,1-.52,2.77c-.06.17-.06.29-.11.46a13.49,13.49,0,0,0,0,4.66,6.91,6.91,0,0,0,.17.76,33.29,33.29,0,0,0,1.37,4.73c.46,1.21.84,2.38,1.36,3.45.11.27.28.55.41.82a8,8,0,0,0,1.12,1.62A5.32,5.32,0,0,0,289,39.36Z"/><path class="cls-18" d="M290.81,41.84c0,.66,0,1.34,0,2h-.12c.2,1.37,1.48,2.49,2.85,3.28.06,0,.11,0,.14.06a10,10,0,0,0,2.82,1.12,8.64,8.64,0,0,0,1.67.19,7.7,7.7,0,0,0,.87-1.94,14.9,14.9,0,0,0,.44-7.82.26.26,0,0,1-.06-.2,13.61,13.61,0,0,1-1.86,1s0,0-.08,0a.12.12,0,0,1-.08,0,.07.07,0,0,0-.05,0,7.17,7.17,0,0,1-1.18.41,9.2,9.2,0,0,1-5.25.14.89.89,0,0,1-.23,0c0,.35.06.71.06,1.06A5.7,5.7,0,0,1,290.81,41.84Z"/><path class="cls-19" d="M297.62,134.05c.06,0,.06.08.06.11.57-.39,1.09-.74,1.61-1C298.74,133.44,298.2,133.74,297.62,134.05Z"/><path class="cls-20" d="M295.57,133.09s-.06,0-.06-.06v.09Z"/><path class="cls-21" d="M280.46,146.63c-1.72.28-3.52.58-5.3.83l-2,.32-6.52,3.54-3.42-2.09-.65.08-3.29.52-1,.2a26.26,26.26,0,0,1,3.83,8.75l2,1.12,11.33,6.22,18.22,10,.11-7.69.08-7,.11-6.51.05-5.17a18.48,18.48,0,0,1,.36-3.25,20.66,20.66,0,0,1,.69-3.13c-.83.25-1.67.5-2.5.72A119.38,119.38,0,0,1,280.46,146.63Z"/><path class="cls-8" d="M288.51,55.28a2.87,2.87,0,0,1,.68.71c1.37-1.83,3.94-2.68,5.59-4.19a.91.91,0,0,1-.12-.35,27,27,0,0,1-1.2-4.11,31.13,31.13,0,0,1-2.79,1.79c-.63.38-1.26.76-1.89,1.17a16.38,16.38,0,0,0-1.18,4.6A2.16,2.16,0,0,1,288.51,55.28Z"/><path class="cls-3" d="M293.6,176.15l-18.22-10-11.33-6.22-2-1.12a46.82,46.82,0,0,1,1.51,12.89c0,.27,0,.52,0,.79-.11,2.49-.16,5.12-.19,7.83l30,17.83.05-4.32Z"/><path class="cls-20" d="M273.38,129.86c2.71,1.43,5.33,2.52,7.83,3.58-2.63,1.32-11.06,6.13-13.47,7.78h0c-.18.08-.35.13-.49.21l.72,2,1.2,3.48,11-6h0l8.82-4.79c.38-.16.84-.33,1.31-.49,0,0,0,0,.08,0a.1.1,0,0,1,.08,0c2.44-1.26,4.6-2.35,5-2.6-4.1-1.94-12.48-5.61-15.62-7a14,14,0,0,1-5,3.06A8.78,8.78,0,0,1,273.38,129.86Z"/><path class="cls-8" d="M276.36,76.45c1.48,2.72,3.09,5.39,4.35,7.77.33.69.71,1.37,1,2,0,0,0,0,.06-.06a1.67,1.67,0,0,0,.3.63v0c.22.69.44,1.45.66,2.25v0c1.67,6.46,2.4,15.3-5.39,16.91a4.52,4.52,0,0,0,.38,1.45,8.06,8.06,0,0,0,1.67,2.41c1.23,1,1.59.57,3-.22,1.76-1,3.64-1.94,5.58-2.84a7.09,7.09,0,0,0,.69-1.56,11.62,11.62,0,0,0,.44-2.57,11,11,0,0,0-.44-3.29c-.69-2.38-1.5-4.71-2.19-7.08a.1.1,0,0,0,0-.06,37.22,37.22,0,0,1-1.42-7V85.1c-.71-1.89-1.94-4.18-2.52-5.41-.16-.39-.35-.77-.52-1.16a23.36,23.36,0,0,1-1.86-6.37,42.47,42.47,0,0,1,.63-14.61.88.88,0,0,1,.06-.27,30.36,30.36,0,0,1,.9-3.34c1.1-3.42,2.52-11.14,6.13-13.79a4.3,4.3,0,0,1,1.1-.63c.05-.06.08-.11.13-.16a5.32,5.32,0,0,1-1.51-1.26c-.95-.22-2-.47-3-.66-.19.16-.39.3-.58.49a20.61,20.61,0,0,0-3.58,4s0,.06-.06.08a15,15,0,0,0-2.05,6.63l.16.11a19.11,19.11,0,0,0-1.61,4.4c-.05.14-.11.22-.14.33-.19.3-.3.6-.46.9-.47.94-1,1.81-1.45,2.65a32.84,32.84,0,0,0-1.51,3.1c-.16.41-.3.79-.43,1.23a12.09,12.09,0,0,0-.55,2.8,13.77,13.77,0,0,0,.52,4,28,28,0,0,0,1,3A46.31,46.31,0,0,0,276,75.8C276.12,76,276.25,76.21,276.36,76.45Z"/><path class="cls-19" d="M286.62,71.47a51.16,51.16,0,0,1,2.36-14c.1-.44.24-.88.38-1.33l-.06,0c-.05,0-.05,0-.11-.08a2.87,2.87,0,0,0-.68-.71,2.16,2.16,0,0,0-.91-.38h-.24v.21c-.38.55-.77,1.12-1.15,1.7-2.51,3.86-4.71,8-5,12.48a41.23,41.23,0,0,0,.73,9.24c.17.39.36.77.52,1.16.58,1.23,1.81,3.52,2.52,5.41a20.6,20.6,0,0,1,2.14-9.16A21.71,21.71,0,0,1,286.62,71.47Z"/><path class="cls-2" d="M281.34,36.45l1.62.93h0a4.06,4.06,0,0,1,1.26,0h0c.08,0,.14,0,.25.06,1,.19,2.05.44,3,.66a8,8,0,0,1-1.12-1.62c-.13-.27-.3-.55-.41-.82a14.16,14.16,0,0,1-4.84-6.26c-.11-.31-.22-.61-.3-.91-7.61,3.45-14.69,8.87-16.14,13.54h0C267.88,34.9,274.14,32.35,281.34,36.45Z"/><path class="cls-13" d="M281.21,69.29c.29-4.52,2.49-8.62,5-12.48.38-.58.77-1.15,1.15-1.7V54.9h.24a16.38,16.38,0,0,1,1.18-4.6,14.7,14.7,0,0,0-2.46,2c-2.16-5.31-1.12-8.08,1.89-11.94l.69-.84a4.3,4.3,0,0,0-1.1.63c-3.61,2.65-5,10.37-6.13,13.79a30.36,30.36,0,0,0-.9,3.34.88.88,0,0,0-.06.27,42.47,42.47,0,0,0-.63,14.61,23.36,23.36,0,0,0,1.86,6.37A41.23,41.23,0,0,1,281.21,69.29Z"/><path d="M286,35.66c-.52-1.07-.9-2.24-1.36-3.45a33.29,33.29,0,0,1-1.37-4.73,6.91,6.91,0,0,1-.17-.76,13.49,13.49,0,0,1,0-4.66c0-.17,0-.29.11-.46a26,26,0,0,0,.52-2.77,15,15,0,0,1-1.48-.9,3.61,3.61,0,0,1-.69-.49l-.35-.25a21.07,21.07,0,0,0-.63,10.21c.11.38.19.74.33,1.09s.19.6.3.91A14.16,14.16,0,0,0,286,35.66Z"/><path class="cls-11" d="M265.23,116.62a11.48,11.48,0,0,1-2.71,2.24l-.14.09a.34.34,0,0,1,.14,0c3,.28,6.05,2.33,8.94,3.15a48.72,48.72,0,0,1,6.57-2.41h.06v0a39.42,39.42,0,0,0,7.66-5.11,9.05,9.05,0,0,1-2.82-2.17,16,16,0,0,0,5-5.57c-1.94.9-3.82,1.85-5.58,2.84-1.36.79-1.72,1.26-3,.22a8.06,8.06,0,0,1-1.67-2.41c-2.52.93-5.22,2.08-8,3.39-.61.74-1.21,1.48-1.78,2.2l0,0a7.09,7.09,0,0,0-1.26,1.42v0s0,0,0,0c-.5.68-.9,1.39-1.4,2Z"/><path d="M276.2,54.4c.16-.3.27-.6.46-.9,0-.11.09-.19.14-.33a19.11,19.11,0,0,1,1.61-4.4l-.16-.11A15,15,0,0,1,280.3,42c.06,0,.06-.05.06-.08a20.61,20.61,0,0,1,3.58-4c.19-.19.39-.33.58-.49-.11,0-.17,0-.25-.06h0a4.06,4.06,0,0,0-1.26,0h0a4.13,4.13,0,0,1-1.75,0c-6.95.36-7.61,10.16-7.88,19.76,0,1-.06,2-.09,3a32.84,32.84,0,0,1,1.51-3.1C275.24,56.21,275.73,55.34,276.2,54.4Z"/><path class="cls-3" d="M277.35,106c7.79-1.61,7.06-10.45,5.39-16.91-1.24,4.84-7.31,14.47-13.05,21.75,2.82-1.31,5.52-2.46,8-3.39A4.52,4.52,0,0,1,277.35,106Z"/><path class="cls-3" d="M262.52,62.23v46.92c2.21-3.09,3.64-7.33,5.47-10.92,1.78-3.22,2.46-9.66,5.23-11.9,1.67-5.85.82-9.25.57-15.15a28,28,0,0,1-1-3,13.77,13.77,0,0,1-.52-4,12.09,12.09,0,0,1,.55-2.8c.13-.44.27-.82.43-1.23,0-1,.06-2,.09-3,.27-9.6.93-19.4,7.88-19.76a4.13,4.13,0,0,0,1.75,0l-1.62-.93c-7.2-4.1-13.46-1.55-16.61,5.58a30,30,0,0,0-2.21,12.15v8Z"/><path class="cls-17" d="M278.09,119.71H278a48.72,48.72,0,0,0-6.57,2.41,63.66,63.66,0,0,0-6.29,3.17,12.43,12.43,0,0,0-1.36.77,9.79,9.79,0,0,0-1.29.9c-.08.05-.16.13-.25.19l.25.74,1.42,4.19H264c1.94-1.62,4.1-2.41,6.1-3.75l0,0c-2.11,1.65-3.66,4-5.31,6.3l.74,2.13c1.26-.9,1.89-2.79,3.09-4.24a7.09,7.09,0,0,1,2.9-1.92c.58-.25,1.21-.49,1.78-.79h0a8.78,8.78,0,0,0,1.45-.82,14,14,0,0,0,5-3.06c.3-.25.57-.52.87-.8C280.58,123,280.11,120.78,278.09,119.71Z"/><path class="cls-22" d="M267.74,141.22c2.41-1.65,10.84-6.46,13.47-7.78-2.5-1.06-5.12-2.15-7.83-3.58h0c-.57.3-1.2.54-1.78.79a7.09,7.09,0,0,0-2.9,1.92c-1.2,1.45-1.83,3.34-3.09,4.24l1.64,4.62c.14-.08.31-.13.49-.21Z"/><path class="cls-22" d="M270.15,128.38l0,0c-2,1.34-4.16,2.13-6.1,3.75l.05.19.3.87.49,1.54C266.49,132.41,268,130,270.15,128.38Z"/><path class="cls-20" d="M265.17,125.29a63.66,63.66,0,0,1,6.29-3.17c-2.89-.82-6-2.87-8.94-3.15a.34.34,0,0,0-.14,0c-.71.43-1.48.87-2.27,1.34l-.16.11.16.52.93,2.68a12.47,12.47,0,0,0,1.48.65C263.39,124.6,264.32,124.91,265.17,125.29Z"/><path class="cls-8" d="M258.25,217.58c-.19.49-.41,1-.57,1.5-.77,2-1.59,4.33-2.63,6.41a13.31,13.31,0,0,1-3.8,5.17,11.63,11.63,0,0,0-5.28-1.51c-.2.36-.39.68-.6,1-1,2.56-5.2,4.42-7.47,5.71,0,1.81,1.36,3.26,4.21,3.69a5.7,5.7,0,0,0,.68.06l.41.05h.09c.35,0,.76,0,1.17,0h.33a21.45,21.45,0,0,0,11.11-4.51c.68-.55,4.9-16.06,5.58-16.06h.33c.3,3.89,1.28,7.74,1,11.63a3.45,3.45,0,0,0,3.83-.82c-.33-6.79,1.32-13.38-1.25-19.18a26.32,26.32,0,0,1-2.25-10.18c-.05,2.65-.14,5.25-.27,7.77C261.72,211.58,259.62,214.52,258.25,217.58Z"/><path class="cls-22" d="M263.81,126.06a12.43,12.43,0,0,1,1.36-.77c-.85-.38-1.78-.69-2.65-1a12.47,12.47,0,0,1-1.48-.65l1.23,3.55c.09-.06.17-.14.25-.19A9.79,9.79,0,0,1,263.81,126.06Z"/><path class="cls-17" d="M263.56,171.67a46.82,46.82,0,0,0-1.51-12.89,26.26,26.26,0,0,0-3.83-8.75l1-.2a23.61,23.61,0,0,0-4.89-4.89c-.52-.42-1.1-.85-1.67-1.23a1.13,1.13,0,0,0-.22-.14,13.05,13.05,0,0,0-5.69-2c-1.32,0-4.11.44-5.09,1.56,0-.11-.11-.22-.11-.3a1.58,1.58,0,0,0-.17.76v0c-.32,4.49,3.29,20.47,7.23,36.77,0,.28.13.58.19.85.46,1.83.9,3.67,1.34,5.5s.82,3.42,1.23,5.09v0a39.94,39.94,0,0,1,1.07,4.41,46.66,46.66,0,0,1-.63,17.51,48.65,48.65,0,0,1-2.17,7.56,44.51,44.51,0,0,1-3.71,7.79,11.63,11.63,0,0,1,5.28,1.51,13.31,13.31,0,0,0,3.8-5.17c1-2.08,1.86-4.41,2.63-6.41.16-.52.38-1,.57-1.5,1.37-3.06,3.47-6,4.6-9.25.13-2.52.22-5.12.27-7.77-.08-1.83,0-3.72.06-5.61.05-4.95.08-9.94.16-14.66,0-2.71.08-5.34.19-7.83C263.53,172.19,263.56,171.94,263.56,171.67Z"/><path class="cls-8" d="M263.2,149.23l-.65-.41-6-3.64-21.83-13.34a83.46,83.46,0,0,0-7.69,6.39,5.83,5.83,0,0,1,2.79-1.34v0l.79-.17a.86.86,0,0,1,.22,0,11.07,11.07,0,0,1,10.73,6.13c0,.08.08.19.11.3,1-1.12,3.77-1.56,5.09-1.56a13.05,13.05,0,0,1,5.69,2,1.13,1.13,0,0,1,.22.14c.57.38,1.15.81,1.67,1.23a23.61,23.61,0,0,1,4.89,4.89l3.29-.52Z"/><path class="cls-22" d="M262.55,148.82l.65.41,3.42,2.09,6.52-3.54,22.05-12,.43-.22v-.44a4.73,4.73,0,0,0-.11-2V133h-.05c-.41.25-2.57,1.34-5,2.6a.1.1,0,0,0-.08,0s-.05,0-.08,0c-.47.16-.93.33-1.31.49L280.16,141h0l-11,6-2.52,1.37-4.1-2.52-1.89-1.18-23.7-14.44-11.24-6.87a4.06,4.06,0,0,0-.35,2.77l9.41,5.75,21.83,13.34Z"/><polygon class="cls-23" points="260.63 144.63 262.52 145.81 266.62 148.33 265.12 143.92 262.52 136.48 261.72 134.22 261.2 132.76 260.93 131.86 260 129.31 257.43 121.79 256.53 119.22 256.09 117.96 255.84 117.25 255.1 115.2 254.06 114.57 222.52 96.16 213.66 90.95 213.22 90.68 219.24 106.41 225.69 123.32 236.93 130.19 260.63 144.63"/><path class="cls-17" d="M262.38,119l.14-.09a11.48,11.48,0,0,0,2.71-2.24l0,0c.5-.63.9-1.34,1.4-2a6.2,6.2,0,0,0-1.13-1.67,12.11,12.11,0,0,0-3-2.19c-.25-.14-.52-.3-.77-.47,0,0-.05,0-.11,0a47,47,0,0,0-5.39,2.93l-.3.16,1.89,1.13.17.43.51,1.51a2.17,2.17,0,0,1,.44-.11,3.7,3.7,0,0,1,2.14,0c-.52.3-1.32.74-2.17,1.26l.28.77.74,2.08.16-.11C260.9,119.82,261.67,119.38,262.38,119Z"/><path d="M261.75,110.24c.25.17.52.33.77.47a12.11,12.11,0,0,1,3,2.19,6.2,6.2,0,0,1,1.13,1.67s0,0,0,0v0a7.09,7.09,0,0,1,1.26-1.42l0,0c.57-.72,1.17-1.46,1.78-2.2,5.74-7.28,11.81-16.91,13.05-21.75v0c-.22-.8-.44-1.56-.66-2.25v0a1.67,1.67,0,0,1-.3-.63c-.06,0-.06,0-.06.06-.3-.66-.68-1.34-1-2-1.26-2.38-2.87-5-4.35-7.77-.11-.24-.24-.43-.33-.65a46.31,46.31,0,0,1-2.24-4.62c.25,5.9,1.1,9.3-.57,15.15-2.77,2.24-3.45,8.68-5.23,11.9-1.83,3.59-3.26,7.83-5.47,10.92-.25.36-.52.71-.8,1C261.72,110.21,261.75,110.24,261.75,110.24Z"/><path class="cls-1" d="M252,111.09l3.91,2.27.3-.16a47,47,0,0,1,5.39-2.93c.06,0,.08,0,.11,0s0,0,0,0c.28-.33.55-.68.8-1V66.91l-13.76,7.36-6.71,3.61-.16.07-5,2.69a35.47,35.47,0,0,0-13.38,13.74L250.18,110Zm1-29.33a.75.75,0,0,1,0,.2,1.36,1.36,0,0,1,0,.57,5.33,5.33,0,0,0-.06-.94A.25.25,0,0,1,253,81.76Z"/><path class="cls-10" d="M220,175.66l-.31-17.43-.18.11a3.17,3.17,0,0,0,.18-.38l-.79-47.66a23.7,23.7,0,0,1,.31-3.89l-6-15.73.44.27C213,89.37,216,90,216,90l7.53,4.39a35.47,35.47,0,0,1,13.38-13.74l5-2.69.16-.07,6.71-3.61,13.76-7.36v-11c-8.43.1-14.5,3.68-21.89,7.48-3.64,2.05-7.31,4.11-10.94,6.38-2.44,1.31-5.72,2.22-7.55,4.13l-2.3,1.26-.55.27A34.07,34.07,0,0,0,203.64,92.9a24.62,24.62,0,0,0-1.7,8.51l0,5v6.35l0,6.84.05,37.62V158h.09c-.17,6.34-.2,12.81,1.09,18.77,3.12,6.87,15.24,9.63,25.06,11.17l0-.11C223.39,186.88,220.14,182.53,220,175.66ZM239.89,69.59h0s0,0,0,0ZM216.55,83.38a3.15,3.15,0,0,1-.05.52,2.06,2.06,0,0,0-.05-.38A1.37,1.37,0,0,0,216.55,83.38Z"/><path class="cls-19" d="M259,116.32a4.27,4.27,0,0,0-.38.22l.35,1c.85-.52,1.65-1,2.17-1.26A3.7,3.7,0,0,0,259,116.32Z"/><path class="cls-24" d="M258.52,116.43l.06.11a4.27,4.27,0,0,1,.38-.22A2.17,2.17,0,0,0,258.52,116.43Z"/><path class="cls-25" d="M254.06,114.57l1,.63.74,2,.25.71.44,1.26.9,2.57,2.57,7.52.93,2.55.27.9.52,1.46.8,2.26,2.6,7.44,1.5,4.41,2.52-1.37-1.2-3.48-.72-2-1.64-4.62-.74-2.13-.49-1.54-.3-.87-.05-.19h-.06l-1.42-4.19-.25-.74L261,123.6l-.93-2.68-.16-.52-.74-2.08-.28-.77-.35-1-.06-.11-.51-1.51-.17-.43L256,113.36,252,111.09,250.18,110l-26.7-15.62L216,90s-2.92-.62-2.29,1l8.86,5.2Z"/><path class="cls-8" d="M250.94,202.64a27.66,27.66,0,0,1-2.21-10.21c0,2.68-.11,5.31-.22,7.85-1.17,3.26-3.28,6.16-4.62,9.23-.2.49-.41,1-.6,1.5-1.51,4-3.23,9.19-6.43,11.58a11.3,11.3,0,0,0-5.26-1.51c-.22.33-.43.66-.63,1-1,2.57-5.17,4.44-7.44,5.72,0,1.78,1.34,3.25,4.21,3.67.12,0,.3,0,.44.05a14.45,14.45,0,0,0,2.57,0c.14,0,.3,0,.47,0a21.64,21.64,0,0,0,10.31-4.43c.69-.57,4.9-16.07,5.59-16.07h.3c.32,3.87,1.31,7.75,1,11.64l1.31-1.31a48.65,48.65,0,0,0,2.17-7.56C252.26,209.94,252.72,206.58,250.94,202.64Z"/><path class="cls-16" d="M243.29,211c.19-.52.4-1,.6-1.5,1.34-3.07,3.45-6,4.62-9.23.11-2.54.17-5.17.22-7.85a54.21,54.21,0,0,1,.08-5.55c0-1.89,0-3.75,0-5.61-.06-.27-.14-.57-.19-.85-3.94-16.3-7.55-32.28-7.23-36.77v0a1.58,1.58,0,0,1,.17-.76,11.07,11.07,0,0,0-10.73-6.13.86.86,0,0,0-.22,0l-.79.17v0a5.83,5.83,0,0,0-2.79,1.34c-2,1.87,4.95,27.34,10.29,48.18.35,1.43.71,2.85,1.06,4.22a52.31,52.31,0,0,1-6.81,30.45,11.3,11.3,0,0,1,5.26,1.51C240.06,220.2,241.78,215,243.29,211Z"/><path class="cls-4" d="M239.89,69.59v0s0,0,0,0Z"/><path class="cls-1" d="M227.06,138.23a83.46,83.46,0,0,1,7.69-6.39l-9.41-5.75a4.06,4.06,0,0,1,.35-2.77l-6.45-16.91a23.7,23.7,0,0,0-.31,3.89l.79,47.66v.27l.31,17.43c.11,6.87,3.36,11.22,8.29,12.21a14.77,14.77,0,0,0,9-1.46C232,165.57,225.09,140.1,227.06,138.23Z"/><path class="cls-26" d="M232.36,313.83a5.64,5.64,0,0,0,5.41,5.84h0a5.63,5.63,0,0,0,5.41-5.84V262.91a5.64,5.64,0,0,0-5.41-5.84h0a5.65,5.65,0,0,0-5.41,5.84Z"/><path class="cls-26" d="M84.34,227.28a5.63,5.63,0,0,0,5.41,5.83h0a5.63,5.63,0,0,0,5.41-5.83V176.36a5.63,5.63,0,0,0-5.41-5.84h0a5.63,5.63,0,0,0-5.41,5.84Z"/><path class="cls-26" d="M298.26,274.14a5.63,5.63,0,0,0,5.41,5.84h0a5.63,5.63,0,0,0,5.41-5.84V223.22a5.63,5.63,0,0,0-5.41-5.83h0a5.63,5.63,0,0,0-5.41,5.83Z"/><g id="_Group_" data-name="&lt;Group&gt;"><path class="cls-3" d="M180.75,228.3l0,0-95.9-55.38s-14-9.18-14.11-22.12c-4.05,18.3,14.11,31.1,14.11,31.1l95.9,55.38,0,0C201.39,249.22,216,257.65,216,257.65a101.8,101.8,0,0,0,28.25,10.53q3.57.78,7.44,1.32a90.36,90.36,0,0,0,15,.89,79.17,79.17,0,0,0,38.08-10.6c17-9.83,19.1-19.49,18.36-31.79h0c-.12,7.15-4.86,15-18.35,22.8-43.48,25.11-88.73-2.13-88.73-2.13Z"/><path class="cls-27" d="M180.77,228.26l0,0L216,248.67s45.25,27.24,88.73,2.13C318.24,243,323,235.15,323.1,228c.29-15.92-22.25-28.3-22.25-28.3l-55.7-32.11,0,0-75.34-43.46S130.38,102.6,92.6,124c-16.78,9.5-21.92,18.86-21.84,26.79.13,12.94,14.11,22.12,14.11,22.12Z"/></g><path class="cls-12" d="M160,213.75a19.44,19.44,0,0,1,.19,6.16c.88-.24,1.95-.3,2.89-.49a2.9,2.9,0,0,0,.24-.8,5.55,5.55,0,0,0,.15-1.57c0-.3,0-.57,0-.89a18.07,18.07,0,0,0-.39-2.44,18.67,18.67,0,0,0-1.16-3.45A13.46,13.46,0,0,0,160.7,208a7.2,7.2,0,0,0-1-1.23,3.89,3.89,0,0,0-1-.8c-.16-.11-.36-.19-.52-.28A18.2,18.2,0,0,1,156,207a6.73,6.73,0,0,1,1.24,1.06A11.67,11.67,0,0,1,160,213.75Z"/><path class="cls-28" d="M163.07,213.72a18.07,18.07,0,0,1,.39,2.44c0,.32,0,.59,0,.89a5.55,5.55,0,0,1-.15,1.57,26.06,26.06,0,0,0,9-.33,24.3,24.3,0,0,1,3,.83,5.94,5.94,0,0,0,3.8.2l-.22-.48-.31-.36c-2-2.08-5-2.06-7.53-2.77a20.57,20.57,0,0,1,6,.57c.09,0,.14,0,.2,0s.19.06.3.11a.37.37,0,0,0,.22.08c1.21.41,3,1.13,3.46-.34l-.25-.21c-3-2.25-6.1-2.34-9.54-2.91l.06-.23a18.39,18.39,0,0,1,5.38.85c1.41.48,2.9,1.17,4-.32l-.08-.06a14.34,14.34,0,0,0-2.26-1.32v0c-2.11-3.22-6.57-3.63-10.31-3.91-.71-.05-1.37-.11-2-.17V208c-1.2.14-2.47,0-3.71.08-.33,0-1.35-.05-1.9,0a13.46,13.46,0,0,1,1.21,2.27A18.67,18.67,0,0,1,163.07,213.72Z"/><path d="M189.36,307.54c5.56-2.06,9.93-4.13,9.93-4.13,3.22-1.59,6.52-4,5.28-7.48l.14-.19c-3.93-3-9.1-.47-13-2.05,0,0,0,0-.06,0,0,.54-.06,1-.08,1.45v.19c0,.22-.06.42-.08.63a8.37,8.37,0,0,1-1.6,3.45V302A27.48,27.48,0,0,1,189.36,307.54Z"/><path class="cls-29" d="M66.69,151.21a2.38,2.38,0,0,0-.3.36c-1.54,2,.75,4.56,3.79,6.74.28.19.53.39.81.58,1,.65,2,1.26,3.05,1.81a31.32,31.32,0,0,0,5.14,2.3c1.41.37,2.75.73,4.13,1l1.57.33a33.78,33.78,0,0,0,9.51.67,6.35,6.35,0,0,0,1.07-.09.91.91,0,0,1-.16-.13l-.52-.39c-.55-.43-1.1-.85-1.68-1.27v0H93a21.77,21.77,0,0,1-3.71-1.36,8.86,8.86,0,0,1-1.11-.48c-.6-.28-1.26-.58-1.89-.89-1.21-.6-2.48-1.23-3.74-1.89l-.58-.28c-.38-.19-.74-.38-1.1-.58s-.63-.32-.93-.49c-1.71-.86-3.39-1.68-4.93-2.39A29.08,29.08,0,0,0,70.41,153a1.09,1.09,0,0,0-.17-.05v-.66c.72,0,1.46-1.12,2.12-1.24a21.69,21.69,0,0,1-2.75-.58,3.78,3.78,0,0,0-.74-.05.27.27,0,0,1,0-.14,7.41,7.41,0,0,0-1.9.69c-.08,0-.13.11-.22.16S66.69,151.19,66.69,151.21Z"/><path class="cls-30" d="M111.39,179a3.1,3.1,0,0,0-.91.06l-.08,0h0a9.83,9.83,0,0,0-1.2.44c-.06,0-.08,0-.14,0a13.21,13.21,0,0,0-1.56.77,37.9,37.9,0,0,0-4.76,3.18v0a5.27,5.27,0,0,0-.47.41c-.66.58-1.35,1.19-2,1.81-.23.2-.45.42-.66.64,7.91,7.78,13.77,22,13.88,35a133.25,133.25,0,0,0,11.66,10.17c1.79,1.29,3.19,2.1,4,2.12a1.77,1.77,0,0,1,.52.14,13.65,13.65,0,0,0,1.29.53v0a.58.58,0,0,0,.31,0,2.91,2.91,0,0,0,.88-.55,2.49,2.49,0,0,0,1-1.6c0-.26.44-.38.63-.6a21.07,21.07,0,0,0,1.54-5.86A20.66,20.66,0,0,0,132.71,214c-.47-.91-1-1.76-1.52-2.59-.28-.44-.58-.88-.85-1.26,0,0-8.06-12.29-10.2-17-1.38-3.39-2.56-7.43-4.27-10.92a17.7,17.7,0,0,0-.91-1.79h0a4.72,4.72,0,0,0-2.39-1.4c-.06,0-.12,0-.47-.08a.3.3,0,0,0,.08.08A4.2,4.2,0,0,0,111.39,179Z"/><path class="cls-2" d="M34.71,169.2,76.6,193.07c5.33,3.05,10.17,9.16,13.61,16.53a58,58,0,0,1,4.13,12.24,50.23,50.23,0,0,1,1.18,10.62L95.27,250l-.08,7.78-.14,8.6a29.12,29.12,0,0,1,1.85-9.16,36.66,36.66,0,0,1,16-18.76l.55-.29V221.86a2.42,2.42,0,0,0,0-.46c-.11-13-6-27.26-13.88-35a5.39,5.39,0,0,0-.56-.53A19,19,0,0,0,96.87,184c-1.24-.63-2.53-1.29-3.85-2a4.19,4.19,0,0,0-.5.28,2.83,2.83,0,0,0-.11-.58c-1.51-.77-3.08-1.6-4.62-2.39-.49-.25-1-.5-1.45-.75C79.4,175,72.78,171.5,69.91,170c-3.52-1.88-12.35-7.48-18.76-12a15.07,15.07,0,0,0-6.57-.09C34.33,159.54,20.1,168,18,174.83h0C21.18,167.63,27.48,165.07,34.71,169.2Z"/><path class="cls-31" d="M204.71,295.74l-.14.19c1.24,3.53-2.06,5.89-5.28,7.48,0,0-4.37,2.07-9.93,4.13a36.33,36.33,0,0,1-1.29,4.85c5.58-2.27,12.18-5.38,15.35-7.51C206.58,300.11,204.93,295.93,204.71,295.74Z"/><path class="cls-1" d="M189.94,302V231.78a16.64,16.64,0,0,0-2.17-8.82c0-.05,0-.08-.06-.11a9.42,9.42,0,0,0-9-4.37l.31.36.22.48a5.94,5.94,0,0,1-3.8-.2,21.29,21.29,0,0,0-4,1.75l-28.85,16.37-6.82,3.88-.17.08-5.08,2.89c-7.66,4.34-14.23,13.4-17,22.63a31.56,31.56,0,0,0-1.48,9.22v70.22c0,7.36,3.21,12,8.14,13.09,3,.63,6.52-.06,10.37-2.24l40.92-23.17c7.32-4.15,13.64-12.63,16.64-21.45a36.33,36.33,0,0,0,1.29-4.85A27.48,27.48,0,0,0,189.94,302Zm-43.18-56.5a1.47,1.47,0,0,1,0,.63,8.47,8.47,0,0,0,0-1,.36.36,0,0,1,0,.2A.49.49,0,0,1,146.76,245.49Z"/><path class="cls-32" d="M166.31,207.86c.64.06,1.3.12,2,.17a1.3,1.3,0,0,0-.3-1.54c-1-1-1.32,0-2.12.33-1.07.45-2.14.85-3.3,1.21,1.24-.05,2.51.06,3.71-.08Z"/><path class="cls-33" d="M135.29,225.8a21.07,21.07,0,0,1-1.54,5.86c-.19.22-.58.34-.63.6a2.49,2.49,0,0,1-1,1.6,2.91,2.91,0,0,1-.88.55.58.58,0,0,1-.31,0s0,.06,0,.08a6.64,6.64,0,0,1,1-.1h.06a8.05,8.05,0,0,1,1.21-.36,1.15,1.15,0,0,1,.36-.11c9.1-2.54,17.41-7,26.09-11a14.06,14.06,0,0,0,.64-3,19.44,19.44,0,0,0-.19-6.16,11.67,11.67,0,0,0-2.75-5.7A6.73,6.73,0,0,0,156,207a4.11,4.11,0,0,0-1-.61,3.39,3.39,0,0,0-.88.2c-3.52.84-16.59,5.8-21.45,7.45A20.66,20.66,0,0,1,135.29,225.8Zm-1.57,6.44v0s0,0,0,0S133.75,232.24,133.72,232.24Z"/><path class="cls-4" d="M133.72,232.24s0,0,0,0,0,0,0,0Z"/><path class="cls-34" d="M113.48,226.73v11.45l2.56-1.47,7.64-4.31C122.28,229.4,119.36,225.47,113.48,226.73Z"/><path class="cls-10" d="M112,346.16V327.43l-.2.1a2.49,2.49,0,0,0,.2-.4V275.94a31.56,31.56,0,0,1,1.48-9.22c2.8-9.23,9.37-18.29,17-22.63l5.08-2.89.17-.08,6.82-3.88,28.85-16.37a21.29,21.29,0,0,1,4-1.75,24.3,24.3,0,0,0-3-.83,26.06,26.06,0,0,1-9,.33,2.9,2.9,0,0,1-.24.8c-.94.19-2,.25-2.89.49a14.06,14.06,0,0,1-.64,3c-8.68,4-17,8.47-26.09,11a1.15,1.15,0,0,0-.36.11,8.05,8.05,0,0,0-1.21.36h-.06a6.64,6.64,0,0,0-1,.1s0-.05,0-.08v0a13.65,13.65,0,0,1-1.29-.53,1.77,1.77,0,0,0-.52-.14c-.8,0-2.2-.83-4-2.12l-1.43.83L116,236.71l-2.56,1.47-.55.29a36.66,36.66,0,0,0-16,18.76,29.12,29.12,0,0,0-1.85,9.16l0,5.4-.11,6.81L94.81,286l-.55,40.43c0,11.36-3.75,18.78-9.74,19.8a34.85,34.85,0,0,0,9.9-2.94v.49c0,10.13,14.35,13.73,25.69,15.63l0-.11C115.21,358.2,112,353.52,112,346.16ZM110,247a3.19,3.19,0,0,1-.05.54,1.53,1.53,0,0,0-.06-.4Z"/><path class="cls-35" d="M110,247l-.11.14a1.53,1.53,0,0,1,.06.4A3.19,3.19,0,0,0,110,247Z"/><path class="cls-4" d="M108,179.92a.16.16,0,0,1-.12.06,2.89,2.89,0,0,0-.46.36,13.21,13.21,0,0,1,1.56-.77A4.76,4.76,0,0,0,108,179.92Z"/><path class="cls-1" d="M96,165.35c.77.6,1.51,1.21,2.31,1.8l1.13.89c.69.55,1.34,1.09,2.06,1.65s1.65,1.38,2.45,2.06,1.79,1.49,2.64,2.23c.52.44,1,.9,1.53,1.38-.68-7-4.78-11-10.47-10.82,0,0,0,0,0,0C97,164.83,96.51,165.07,96,165.35Z"/><path class="cls-36" d="M74.37,148.89a18.91,18.91,0,0,0,5.94,3.59c.72.15,1.46.38,2.17.6a8.5,8.5,0,0,0,5.75-.74,4.65,4.65,0,0,0,.36-.61c1.15-1.84,2.39-4.12,3.41-5.63l.22-.06c-.44-1.73-.27-4.41-.52-5.81-.5-2.71,2.66-2.8,3.52-1.7a51.33,51.33,0,0,1-.22,6.08c.11,0,.16-.09.25-.11l1.62-.86c.16-4.66,2.67-7.58,3.44-9.7a37.94,37.94,0,0,0,1.76-5l.13,0c.22-.19.44-.36.63-.51a9.82,9.82,0,0,0,1.88-2,13.43,13.43,0,0,0-.11-2.55c-.06-.33-.14-.64-.22-.93-2.5-10.82-19.06-16.46-29.29-11l0,0A22.36,22.36,0,0,0,70.69,115c-3.61,3.25-6,7.51-5,11.62,1,4.28,2.48,8.93,4,13.11a4.71,4.71,0,0,1,.22.59c.49,1.33,1,2.6,1.48,3.81.72,1.1,1.66,2.23,1.71,3.22,0,.19.44.8,1.26,1.54v0h.06Z"/><path class="cls-32" d="M102.07,129a37.94,37.94,0,0,1-1.76,5c-.77,2.12-3.28,5-3.44,9.7l-1.62.86c-.09,0-.14.08-.25.11a51.33,51.33,0,0,0,.22-6.08c-.86-1.1-4-1-3.52,1.7.25,1.4.08,4.08.52,5.81.28,1.19.88,2,2,1.73a1.7,1.7,0,0,0,0,.52v.06a.86.86,0,0,1,0,.27,8.62,8.62,0,0,0,.25,1.36v.08a.49.49,0,0,1,0,.16,4.08,4.08,0,0,0,1,1.27c.82.68,1.92,1.14,2.39.93a9.84,9.84,0,0,0,1.18-2.89c.72-2.47,1.44-5.89,2.07-7.92s1.21-3.27,1.13-5.07c-.17-2.93-.66-3.07.58-5.24a26.45,26.45,0,0,0-.15-2.83c-.19.15-.41.32-.63.51Z"/><path class="cls-33" d="M99.57,185.4c-.86-.44-1.77-.89-2.7-1.38A19,19,0,0,1,99,185.83a5.39,5.39,0,0,1,.56.53c.21-.22.43-.44.66-.64C100,185.62,99.78,185.51,99.57,185.4Z"/><path class="cls-37" d="M95.63,151.49a4.08,4.08,0,0,1-1-1.27.49.49,0,0,0,0-.16V150a8.62,8.62,0,0,1-.25-1.36c-.25,1.11-.55,2.29-.82,3.44v.05c-.06.2-.11.39-.17.62-.11.49-.22,1-.33,1.45v0h0c2.44-.14,4.26-.67,5-1.79C97.55,152.63,96.45,152.17,95.63,151.49Z"/><path class="cls-38" d="M95,271.79l0-5.4c0,.33,0,.69,0,1Z"/><path class="cls-3" d="M94.26,326.38,94.81,286l.08-7.35.11-6.81,0-4.38c0-.33,0-.69,0-1l.14-8.6.08-7.78.25-17.55a50.23,50.23,0,0,0-1.18-10.62,58,58,0,0,0-4.13-12.24c-3.44-7.37-8.28-13.48-13.61-16.53L34.71,169.2c-7.23-4.13-13.53-1.57-16.7,5.63A30.06,30.06,0,0,0,15.79,187v94.07a55.78,55.78,0,0,0,8.69,29,31.69,31.69,0,0,0,10.23,10.37L76.6,344.36a13.07,13.07,0,0,0,6.44,2,8.56,8.56,0,0,0,1.12-.08c.11,0,.25,0,.36-.07C90.51,345.16,94.26,337.74,94.26,326.38Z"/><path class="cls-28" d="M86.91,156.19c1.43,1,2.73,2,3.6,2.78.5.36.83.63,1,.77s.08,0,.08,0a12.5,12.5,0,0,1,.44,1.43,5.87,5.87,0,0,0,.86,1.76c.06,0,.08.06.16.14h.06v0c.58.42,1.13.84,1.68,1.27l.52.39a.91.91,0,0,0,.16.13,4.84,4.84,0,0,1,.5.42h0c.52-.28,1-.52,1.6-.81,0,0,0,0,0,0s.16-.07.24-.13l0,.06c.47-.06,1.29-.17,2.23-.34,2.06-.33,4.57-1,4.07-2.61a27.78,27.78,0,0,1-3.13.34c1.42-.67,3.74-1.82,2.69-2.26l-3.25.28v-.06a7.64,7.64,0,0,0-5.08-.91,7.09,7.09,0,0,0-3.69-.3c.11-.58.2-1.18.3-1.76a0,0,0,0,1,0,0c.19-.83.66-1.65.91-2.61v0c.11-.47.22-1,.33-1.45.06-.23.11-.42.17-.62v-.05c.27-1.15.57-2.33.82-3.44a.86.86,0,0,0,0-.27v-.06a1.7,1.7,0,0,1,0-.52c-1.13.22-1.73-.54-2-1.73l-.22.06c-1,1.51-2.26,3.79-3.41,5.63a4.65,4.65,0,0,1-.36.61,8.5,8.5,0,0,1-5.75.74c-.71-.22-1.45-.45-2.17-.6a18.91,18.91,0,0,1-5.94-3.59h-.11a11.88,11.88,0,0,1-.58,2.07c.22.06.45.09.66.14.91.2,1.9.39,2.89.63v0a31.61,31.61,0,0,1,4.48,1.38A26.87,26.87,0,0,1,86.91,156.19Z"/><path class="cls-33" d="M92.52,182.32A4.19,4.19,0,0,1,93,182a5.73,5.73,0,0,1-.61-.3A2.83,2.83,0,0,1,92.52,182.32Z"/><path class="cls-12" d="M70.24,153a1.09,1.09,0,0,1,.17.05A29.08,29.08,0,0,1,75,154.76c1.54.71,3.22,1.53,4.93,2.39.3.17.6.34.93.49s.66.31,1,.44a.49.49,0,0,0,.11.14l.58.28c1.26.66,2.53,1.29,3.74,1.89.63.31,1.29.61,1.89.89a8.86,8.86,0,0,0,1.11.48A21.77,21.77,0,0,0,93,163.12H93c-.08-.08-.1-.12-.16-.14a5.87,5.87,0,0,1-.86-1.76,12.5,12.5,0,0,0-.44-1.43s0,0-.08,0-.49-.41-1-.77c-.87-.75-2.17-1.77-3.6-2.78a26.87,26.87,0,0,0-5.2-3.05,31.61,31.61,0,0,0-4.48-1.38c-1-.21-2-.4-2.86-.57-.66-.12-1.24-.23-1.79-.31l0,.19s-.06,0-.11,0h-.06c-.66.12-1.4,1.27-2.12,1.24Z"/><path class="cls-39" d="M69.91,170c2.87,1.53,9.49,5,16.43,8.63.46.25,1,.5,1.45.75,1.54.79,3.11,1.62,4.62,2.39a5.73,5.73,0,0,0,.61.3c1.32.69,2.61,1.35,3.85,2,.93.49,1.84.94,2.7,1.38.21.11.43.22.66.32.65-.62,1.34-1.23,2-1.81a5.27,5.27,0,0,1,.47-.41v0a37.9,37.9,0,0,1,4.76-3.18,2.89,2.89,0,0,1,.46-.36.16.16,0,0,0,.12-.06,4.76,4.76,0,0,1,1-.35c.06,0,.08,0,.14,0a9.83,9.83,0,0,1,1.2-.44h0l.08,0a3.1,3.1,0,0,1,.91-.06,4.2,4.2,0,0,1,.77.08.3.3,0,0,1-.08-.08c-.25-.26-.47-.47-.72-.69-.77-.78-1.59-1.52-2.42-2.25-.27-.25-.55-.5-.83-.72-.49-.48-1-.94-1.53-1.38-.85-.74-1.74-1.51-2.64-2.23s-1.63-1.4-2.45-2.06-1.37-1.1-2.06-1.65l-1.13-.89c-.8-.59-1.54-1.2-2.31-1.8h0a4.84,4.84,0,0,0-.5-.42,6.35,6.35,0,0,1-1.07.09,33.78,33.78,0,0,1-9.51-.67L83.31,164c-1.38-.29-2.72-.65-4.13-1A31.32,31.32,0,0,1,74,160.7c-1-.55-2.06-1.16-3.05-1.81-.28-.19-.53-.39-.81-.58-3-2.18-5.33-4.7-3.79-6.74a2.38,2.38,0,0,1,.3-.36s0,0,0-.06.14-.13.22-.16a11.37,11.37,0,0,0-1.13-.22c-2.93-.57-7-1.35-7.31-1.38-4.65-.35-10.18,2.1-12.54,4.74,1.32,1,3.14,2.38,5.19,3.85C57.56,162.49,66.39,168.09,69.91,170Z"/><path class="cls-5" d="M80.86,157.64c.36.2.72.39,1.1.58a.49.49,0,0,1-.11-.14C81.52,158,81.19,157.78,80.86,157.64Z"/><path class="cls-33" d="M51.15,158c-2-1.47-3.87-2.81-5.19-3.85a3.11,3.11,0,0,0-.39.49c-.35,1-.68,2.14-1,3.27A15.07,15.07,0,0,1,51.15,158Z"/><path class="cls-40" d="M15.79,191.77C7,197.5,0,209.82,0,220.1v67.14C0,296.1,13.92,307,24.48,310.12a55.78,55.78,0,0,1-8.69-29Z"/><g id="_Group_2" data-name="&lt;Group&gt;"><polygon class="cls-41" points="161 339.25 161 342.55 165.28 339.76 165.28 336.98 161 339.25"/><path class="cls-42" d="M167.86,340.07l-9.44,5.84v-7.26l9.44-5v6.46ZM165.28,337,161,339.25v3.3l4.28-2.79Z"/><path class="cls-43" d="M162.43,307.34l.14-.08v-5.93l-1.48.85v4.4Z"/><path class="cls-44" d="M145,312.37v2.43l2.13,1.1V308l17.13-9.89c-.07-.29-2.11-.43-2.11-.43L145,307.56Z"/><path class="cls-45" d="M164.25,301.46v-3.38L147.12,308v7.93h0c.65-.37,1.3-.75,2-1.13l-.07-.14v-5.49l12-7,1.48-.85v5.93l1.68-.93Z"/><polygon class="cls-43" points="128.26 329.33 128.26 329.37 133.48 332.32 133.55 329.47 128.26 326.73 128.26 329.33"/><polygon class="cls-44" points="126.81 325.98 126.81 330.03 128.26 329.33 128.26 326.73 126.81 325.98"/><polygon class="cls-44" points="126.81 330.03 126.81 330.23 133.44 334.05 133.48 332.32 128.26 329.37 128.26 329.33 126.81 330.03"/><path class="cls-44" d="M154,345.91,136.37,329.1l-1.41-.74-.16.09v1.68l1.14.6L150.48,345Z"/><path class="cls-46" d="M164.25,306.33l-1.68.93v.16l-.14-.08-1.34-.76v-3.33c-3.8,2.17-8,4.5-12,6.82v4.56l.07.14c-.7.38-1.35.76-2,1.13h0L145,314.8v-2.43L125.5,323.42l9.46,4.94c2.95-1.67,46.92-26.58,50.87-28.83l.2.07.1-.23c0-.26-9.3-5-9.3-5l-12.58,7.12Z"/><path class="cls-47" d="M185.44,301l.59-1.43-.2-.07c-4,2.25-47.92,27.16-50.87,28.83l1.41.74L154,345.91l4.41-2.67v-4.59l9.44-5v3.91l2.87-1.76Z"/><path class="cls-47" d="M128.26,326.73l-1.45-.75v4.25l6.63,3.82,0-1.73.07-2.85Zm6.85,47.44-9.29-5-.32-45.71,9.46,4.94-.16.09v1.68Z"/><path class="cls-45" d="M134.81,330.13l.3,44,50.26-28.92.07-44.22-14.71,34.73-2.87,1.76v2.55l-9.44,5.84v-2.67L154,345.91l-3.53-1L136,330.73Z"/></g><polygon class="cls-48" points="205.79 181.59 170.65 160.34 123.76 185.93 161.82 206.41 205.79 181.59"/><g id="_Group_3" data-name="&lt;Group&gt;"><path class="cls-3" d="M212.57,232.85c-.79,0-1.42-.41-1.42-.92s.63-.91,1.42-.91,1.42.41,1.42.91S213.35,232.85,212.57,232.85Z"/><path class="cls-49" d="M222,232l-1.5.86a3.7,3.7,0,0,1-3.35,0l-5.18-3c-.94-.53-.95-1.4,0-1.94l1.63-.93v0l10.39-6a3.67,3.67,0,0,1,3.35,0l5.19,3c.94.54,1,1.4,0,1.93L222,232Z"/><path class="cls-50" d="M208.47,232.73a2.22,2.22,0,0,1-.81-2.46,1.32,1.32,0,0,0,.81,1.26l5.94,3.42a4.3,4.3,0,0,0,3.83,0l15.34-8.91c.63-.36.88-.86.74-1.33a1.89,1.89,0,0,1-.74,2.53l-15.34,8.9a4.21,4.21,0,0,1-3.83,0Z"/><path class="cls-51" d="M211.91,227.88c-.91.54-.9,1.41,0,1.94l5.18,3a3.7,3.7,0,0,0,3.35,0L222,232v0l10.53-6.11c.92-.53.91-1.39,0-1.93l-5.19-3a3.67,3.67,0,0,0-3.35,0l-10.39,6v0Zm-.76,4.05c0,.51.63.92,1.42.92s1.42-.41,1.42-.92-.64-.91-1.42-.91S211.15,231.43,211.15,231.93Zm23.17-7.2c.14.47-.11,1-.74,1.33L218.24,235a4.3,4.3,0,0,1-3.83,0l-5.94-3.42a1.32,1.32,0,0,1-.81-1.26v0a1.43,1.43,0,0,1,.77-.93l15.34-8.91a4.24,4.24,0,0,1,3.83,0l5.94,3.43a1.73,1.73,0,0,1,.69.64Z"/></g><g id="_Group_4" data-name="&lt;Group&gt;"><path class="cls-52" d="M269.5,158l0-.25a1.23,1.23,0,0,0-.16-.74c.58.48.21,2.71.17,3.28l0,.25a.74.74,0,0,1,0,.14,1.64,1.64,0,0,1-.26.46c-.82,1.13-3.09,1.84-5.43,1.65a6,6,0,0,1-3.35-1.21,1.88,1.88,0,0,1-.59-1,20.31,20.31,0,0,1,0-2.55c.19,1.1,1.75,2,3.94,2.21,2.65.23,5.19-.71,5.69-2.09A1.13,1.13,0,0,0,269.5,158Z"/><path class="cls-53" d="M260.06,157c.74-1.2,3.09-2,5.52-1.77,1.88.16,3.29.87,3.78,1.75v0a1.23,1.23,0,0,1,.16.74l0,.25a1.13,1.13,0,0,1,0,.15c-.5,1.38-3,2.32-5.69,2.09-2.19-.17-3.75-1.11-3.94-2.21v0a3.72,3.72,0,0,1,.14-.84A.35.35,0,0,1,260.06,157Z"/><path class="cls-54" d="M266.35,165.16a15.13,15.13,0,0,0-6.09.7c0-1.2,0-3.18.16-4.25a6,6,0,0,0,3.35,1.21c2.34.19,4.61-.52,5.43-1.65.19,1.11.39,3.27.5,4.69A13.84,13.84,0,0,0,266.35,165.16Z"/><path class="cls-54" d="M266.35,165.16a13.84,13.84,0,0,1,3.35.7c.05.73.09,1.25.08,1.38l0,.25a.83.83,0,0,1,0,.15c-.5,1.37-3,2.3-5.64,2.08-2.18-.18-3.75-1.11-3.94-2.19a1.38,1.38,0,0,1,.08-.69,5.46,5.46,0,0,0,.06-1A15.13,15.13,0,0,1,266.35,165.16Z"/><path class="cls-52" d="M273.13,168.67a2.45,2.45,0,0,1,.1.85l-.05.45c0,.08-.05.16-.08.25-.88,2.39-5.29,4-9.88,3.65-3.8-.33-6.54-1.94-6.85-3.84a2.3,2.3,0,0,1,.11-1.21,2.26,2.26,0,0,1,.22-.47,6.46,6.46,0,0,1,3.56-2.49,5.46,5.46,0,0,1-.06,1,1.38,1.38,0,0,0-.08.69c.19,1.08,1.76,2,3.94,2.19,2.63.22,5.14-.71,5.64-2.08a.83.83,0,0,0,0-.15l0-.25c0-.13,0-.65-.08-1.38C271.51,166.5,272.77,167.54,273.13,168.67Z"/><path class="cls-54" d="M274.55,203.39c-1,2.83-6.25,4.76-11.68,4.3-4.49-.39-7.71-2.28-8.09-4.53a2.86,2.86,0,0,1,0-.83,4,4,0,0,1,.15-.6c1-2.83,6.24-4.76,11.67-4.31,4.79.4,8.13,2.54,8.13,5v.16l-.08.52C274.61,203.18,274.58,203.28,274.55,203.39Z"/><path class="cls-54" d="M254.68,174.33a10,10,0,0,1,2-6h0a2.26,2.26,0,0,0-.22.47,2.3,2.3,0,0,0-.11,1.21c.31,1.9,3.05,3.51,6.85,3.84,4.59.38,9-1.26,9.88-3.65,0-.09,0-.17.08-.25l.05-.45a2.45,2.45,0,0,0-.1-.85,10,10,0,0,1,1.75,5.66v26.85a8.52,8.52,0,0,1-.08,1.24h-.09c0-2.45-3.34-4.59-8.13-5-5.43-.45-10.65,1.48-11.67,4.31a4,4,0,0,0-.15.6,8.42,8.42,0,0,1-.08-1.15Z"/></g><g id="_Group_5" data-name="&lt;Group&gt;"><path class="cls-55" d="M279.79,212.09l-.07.53,0,.1c-.65,1.8-4,3-7.4,2.73-2.6-.22-4.53-1.25-5-2.51l-.14-.68a1.77,1.77,0,0,1,.12-.59c.65-1.8,3.95-3,7.39-2.74C277.68,209.19,279.78,210.54,279.79,212.09Z"/><path class="cls-56" d="M282.14,196.58l-2.35,15.51c0-1.55-2.11-2.9-5.15-3.16-3.44-.28-6.74.94-7.39,2.74a1.77,1.77,0,0,0-.12.59l-2.91-15.6h.06c.34,2,3.25,3.74,7.29,4.08,4.87.41,9.58-1.33,10.49-3.88A2.76,2.76,0,0,0,282.14,196.58Z"/><path class="cls-57" d="M274.9,191.49c4.41.37,7.45,2.37,7.31,4.63l-.07.46a2.76,2.76,0,0,1-.08.27c-.91,2.55-5.62,4.29-10.49,3.88-4-.34-6.95-2-7.29-4.08a2.32,2.32,0,0,1,.12-1.29C265.32,192.81,270,191.08,274.9,191.49Z"/></g><g id="_Group_6" data-name="&lt;Group&gt;"><path class="cls-55" d="M258.67,208.24l-.08.54,0,.1c-.65,1.79-3.95,3-7.4,2.72-2.6-.21-4.53-1.24-5-2.5l-.13-.69a1.59,1.59,0,0,1,.12-.59c.64-1.78,3.94-3,7.38-2.73C256.55,205.36,258.66,206.7,258.67,208.24Z"/><path class="cls-56" d="M261,192.74l-2.34,15.5c0-1.54-2.12-2.88-5.16-3.15-3.44-.28-6.74.95-7.38,2.73a1.59,1.59,0,0,0-.12.59l-2.91-15.59.05,0c.35,2,3.25,3.74,7.29,4.08,4.88.42,9.57-1.33,10.5-3.87A2.13,2.13,0,0,0,261,192.74Z"/><path class="cls-57" d="M253.77,187.65c4.41.37,7.46,2.37,7.32,4.62l-.08.47a2.13,2.13,0,0,1-.07.27c-.93,2.54-5.62,4.29-10.5,3.87-4-.34-6.94-2-7.29-4.08a2.49,2.49,0,0,1,.12-1.28C244.19,189,248.88,187.24,253.77,187.65Z"/></g><g id="_Group_7" data-name="&lt;Group&gt;"><path class="cls-49" d="M129.24,145.45v.69l-.61-.34s0,0,.07-.06l0,0Z"/><path class="cls-49" d="M156.45,127.75a1.73,1.73,0,0,1,.16.3.63.63,0,0,1-.54.36c0-.08-.08-.16-.13-.24a2.43,2.43,0,0,0-1.51-1.14,1.61,1.61,0,0,0-1.31.23,2,2,0,0,0-.67.87l-.81.47v0a2.73,2.73,0,0,1,1.09-2,2.31,2.31,0,0,1,2.58,0A3.61,3.61,0,0,1,156.45,127.75Z"/><path class="cls-49" d="M152.4,129.94a2.38,2.38,0,0,1,.23.41c0,.25-.32.34-.55.34a1.45,1.45,0,0,0-.18-.32,2.48,2.48,0,0,0-1.39-1.12,1.59,1.59,0,0,0-1.42.21,1.72,1.72,0,0,0-.67,1c-.27.15-.54.31-.83.46a2.83,2.83,0,0,1,1.1-2.15,2.29,2.29,0,0,1,2.6.06A3.67,3.67,0,0,1,152.4,129.94Z"/><path class="cls-58" d="M131.92,142.27a.54.54,0,0,0,.54-.37,3,3,0,0,0-.24-.47,3.46,3.46,0,0,0-1.14-1.17l.36-.21.84-.48c.61-.33,1.25-.7,1.95-1.11A2.63,2.63,0,0,1,136,140h0a.57.57,0,0,0,.58-.31c-.08-.15-.16-.3-.25-.44a3.47,3.47,0,0,0-1.22-1.22,3.35,3.35,0,0,0,.36-.21c.25-.14.51-.28.77-.44l2.22-1.25a2.47,2.47,0,0,1,1.34,1.1,3.81,3.81,0,0,1,.23.45v0a.67.67,0,0,0,.58-.32h0a3.86,3.86,0,0,0-.3-.57,3.46,3.46,0,0,0-1.07-1.11l.29-.18c.28-.14.54-.29.8-.45l2.1-1.18a2.46,2.46,0,0,1,1.42,1.12,1.85,1.85,0,0,1,.19.37h0a.46.46,0,0,0,.54-.34h0a4.16,4.16,0,0,0-.23-.42,3.46,3.46,0,0,0-1.14-1.17c.13-.06.24-.13.37-.2l.76-.43,2.25-1.28a2.54,2.54,0,0,1,1.32,1.09,3.75,3.75,0,0,1,.21.4c.21.05.54-.13.55-.34s-.17-.33-.26-.48a3.58,3.58,0,0,0-1.05-1.1l.28-.17c.29-.15.56-.31.83-.46.73-.42,1.43-.82,2.09-1.18a2.48,2.48,0,0,1,1.39,1.12,1.45,1.45,0,0,1,.18.32c.23,0,.52-.09.55-.34a2.38,2.38,0,0,0-.23-.41,3.67,3.67,0,0,0-1.11-1.14l.35-.2.81-.47c.83-.46,1.48-.84,2-1.1a2.43,2.43,0,0,1,1.51,1.14c.05.08.09.16.13.24a.63.63,0,0,0,.54-.36,1.73,1.73,0,0,0-.16-.3,3.61,3.61,0,0,0-1.14-1.16h0l19.06,10,.13.1L147.45,152.3l-18.71-10.68a.46.46,0,0,1,.07-.07l.07-.05,1.39-.79a2.54,2.54,0,0,1,1.44,1.15,3,3,0,0,1,.21.4Z"/><path class="cls-49" d="M142.37,133.86a1.59,1.59,0,0,0-1.39.21,2,2,0,0,0-.71,1c-.26.16-.52.31-.8.45a2.87,2.87,0,0,1,1.11-2.13,2.29,2.29,0,0,1,2.58,0,3.46,3.46,0,0,1,1.14,1.17,4.16,4.16,0,0,1,.23.42h0a.46.46,0,0,1-.54.34h0a1.85,1.85,0,0,0-.19-.37A2.46,2.46,0,0,0,142.37,133.86Z"/><path class="cls-59" d="M174.06,138.69,147.62,154l-.68-.39-17.7-10.11-.36-.2s-.62-1.16-.14-1.65l18.71,10.68,27.06-15.62c.66.5.18,1.65.18,1.65Z"/><path class="cls-59" d="M129.24,146.14l18,10.28.1.06,27-15.59.09,0c.67.51.19,1.66.19,1.66l-27.08,15.63-18.75-10.7s-.6-1.14-.14-1.64Z"/><path class="cls-60" d="M174.23,140.73c0,.06.06.12.09.16l-27,15.59-.1-.06.06-.11a2.91,2.91,0,0,1-.37-2.73l.68.39,26.44-15.28A3.6,3.6,0,0,0,174.23,140.73Z"/><path class="cls-49" d="M146.54,131.49a1.63,1.63,0,0,0-1.5.18,2,2,0,0,0-.75,1.1l-.76.43a2.93,2.93,0,0,1,1.11-2.25,2.32,2.32,0,0,1,2.67.11,3.58,3.58,0,0,1,1.05,1.1c.09.15.18.32.26.48s-.34.39-.55.34a3.75,3.75,0,0,0-.21-.4A2.54,2.54,0,0,0,146.54,131.49Z"/><path class="cls-61" d="M147.31,156.31l-.06.11-18-10.28v-2.67l17.7,10.11A2.91,2.91,0,0,0,147.31,156.31Z"/><path class="cls-49" d="M139.18,135.67a3.46,3.46,0,0,1,1.07,1.11,3.86,3.86,0,0,1,.3.57h0a.67.67,0,0,1-.58.32v0a3.81,3.81,0,0,0-.23-.45,2.47,2.47,0,0,0-1.34-1.1,1.62,1.62,0,0,0-1.48.19,1.82,1.82,0,0,0-.74,1.06c-.26.16-.52.3-.77.44a2.93,2.93,0,0,1,1.11-2.22A2.31,2.31,0,0,1,139.18,135.67Z"/><path class="cls-49" d="M135.06,138a3.47,3.47,0,0,1,1.22,1.22c.09.14.17.29.25.44a.57.57,0,0,1-.58.31h0a2.63,2.63,0,0,0-1.72-1.5,1.69,1.69,0,0,0-1.29.26,1.93,1.93,0,0,0-.66.85l-.84.48h0a2.83,2.83,0,0,1,1.11-2A2.25,2.25,0,0,1,135.06,138Z"/><path class="cls-49" d="M131.08,140.26a3.46,3.46,0,0,1,1.14,1.17,3,3,0,0,1,.24.47.54.54,0,0,1-.54.37h0a3,3,0,0,0-.21-.4,2.54,2.54,0,0,0-1.44-1.15,1.62,1.62,0,0,0-1.39.22,2.65,2.65,0,0,0-.44,3.4,2.69,2.69,0,0,0,.8.95v.17l-.52.27,0,0v0a3.53,3.53,0,0,1-.81-1c-.9-1.65-.6-3.63.6-4.47A2.31,2.31,0,0,1,131.08,140.26Z"/></g></g></g></svg>