<svg xmlns="http://www.w3.org/2000/svg" viewBox="0 0 989.32 471.94"><defs><style>.cls-1,.cls-47{fill:#07004f;opacity:0.18;}.cls-1{fill-rule:evenodd;}.cls-2{fill:#c91a20;}.cls-3{fill:#a9a19b;}.cls-4{fill:#716c64;}.cls-5{fill:#8d857e;}.cls-6{fill:#8e1618;}.cls-7{fill:#fbb686;}.cls-8{fill:#ffebcb;}.cls-9{fill:#cce6f3;}.cls-10{fill:#ed1c24;}.cls-11{fill:#feda9c;}.cls-12{fill:#261721;}.cls-13{fill:#fff2df;}.cls-14{fill:#191316;}.cls-15{fill:#140f12;}.cls-16{fill:#fee4b8;}.cls-17{fill:#14160e;}.cls-18{fill:#120e10;}.cls-19{fill:#020500;}.cls-20{fill:#080507;}.cls-21{fill:#231116;}.cls-22{fill:#1f0000;}.cls-23{fill:#282125;}.cls-24{fill:#180000;}.cls-25{fill:#010300;}.cls-26{fill:#e8f6ff;}.cls-27{fill:#251f23;}.cls-28{fill:#f9a36d;}.cls-29{fill:#100c0f;}.cls-30{fill:#463540;}.cls-31{fill:#f89c69;}.cls-32{fill:#f9a873;}.cls-33{fill:#1c151a;}.cls-34{fill:#f79557;}.cls-35{fill:#ccddf2;}.cls-36{fill:#888a8b;}.cls-37{fill:#f47d3d;}.cls-38{fill:#262225;}.cls-39{fill:#1c191b;}.cls-40{fill:#2d2b2c;}.cls-41{fill:#221f21;}.cls-42{fill:#171416;}.cls-43{fill:#0d0a0c;}.cls-44{fill:#030203;}.cls-45{fill:#323031;}.cls-46{fill:#191718;}.cls-48{fill:#60565f;}.cls-49{fill:#3d363d;}.cls-50{fill:#140f2c;}.cls-51{fill:#57707a;}.cls-52{fill:#171043;}.cls-53{fill:#b5bfc5;}.cls-54{fill:#36464f;}.cls-55{fill:#1b181a;}.cls-56{fill:#f1cb63;}.cls-57{fill:#606161;}.cls-58{fill:#9d9d9d;}.cls-59{fill:#e1e1e1;}.cls-60{fill:#bdbcbc;}.cls-61{fill:#ffe4bf;}.cls-62{fill:#ead3b3;}.cls-63{fill:#c9b58a;}.cls-64{fill:#dcc7a1;}.cls-65{fill:#97866d;}.cls-66{fill:#21231f;}.cls-67{fill:#9a9590;}.cls-68{fill:#645e5a;}.cls-69{fill:#363833;}.cls-70{fill:#9c6f80;}.cls-71{fill:#78465f;}.cls-72{fill:#59243f;}.cls-73{fill:#88819c;}.cls-74{fill:#5e5779;}.cls-75{fill:#352e58;}.cls-76{fill:#8e97aa;}.cls-77{fill:#76829b;}.cls-78{fill:#687589;}.cls-79{fill:#5e6a7e;}.cls-80{fill:#838e93;}.cls-81{fill:#a8aebe;}.cls-82{fill:#818da2;}.cls-83{fill:#8b96a9;}.cls-84{fill:#150e39;}.cls-85{fill:#fab685;}.cls-86{fill:#211c51;}.cls-87{fill:#cbe6f3;}.cls-88{fill:#29275f;}.cls-89{fill:#252256;}.cls-90{fill:#4a4573;}.cls-91{fill:#801833;}.cls-92{fill:#9f2542;}.cls-93{fill:#1c1749;}.cls-94{fill:#30120b;}.cls-95{fill:#e8f6fd;}.cls-96{fill:#6b0f26;}.cls-97{fill:#891b38;}.cls-98{fill:#f79b6a;}.cls-99{fill:#f8a773;}</style></defs><title>hero_2nd row</title><g id="Layer_2" data-name="Layer 2"><g id="Layer_1-2" data-name="Layer 1"><path class="cls-1" d="M285.12,361,223.58,325.9c-6.71-3.07-16.31-5.51-23.15-1.95-6.23,3.24-24.24,14.81-28.78,17.4-3.44,2-15.4,9.13-8,13.18,21.91,11.92,43.6,25.32,65.86,37.43,4.2,2.29,10.36,3.12,16.82,2.58a44.62,44.62,0,0,0,18.23-5.43c3.7-2.15,15.09-9.2,18.67-11.29,4.83-2.81,7.39-6.13,7.64-9.21S289.24,362.83,285.12,361Z"/><g id="_Group_" data-name="&lt;Group&gt;"><path class="cls-2" d="M98.09,64.51a12,12,0,0,1-1.2,1.58c1.79,2.79,3.59,5.51,5.34,8.15A8,8,0,0,1,103.81,72c-1.76-2.63-3.55-5.32-5.36-8.1Z"/><path class="cls-3" d="M111.67,83.74c-2.51-3.82-5.15-7.71-7.86-11.76a8,8,0,0,0-1.58,2.26c2.86,4.26,5.63,8.36,8.27,12.33C110.37,85.54,111.62,84.74,111.67,83.74Z"/><path class="cls-4" d="M111.67,83.74c0,1-1.3,1.8-1.17,2.83.39.6.81,1.22,1.19,1.81.34-.78.89-1.6,1.22-2.37l.48.34C112.82,85.48,112.25,84.61,111.67,83.74Z"/><path class="cls-2" d="M112.91,86c-.33.77-.88,1.59-1.22,2.37,1.64,2.49,3.23,5,4.72,7.39.51-.73,1-1.5,1.57-2.21h0c-1.31-2.15-2.69-4.31-4.13-6.51-.16-.22-.3-.46-.46-.69Z"/><path class="cls-4" d="M115.16,86.77c.65-.24,1.18-.65,1.09-1.16l.06-.13a19.19,19.19,0,0,0-4.65-2,1.55,1.55,0,0,1,0,.22c.58.87,1.15,1.74,1.72,2.61.16.23.3.47.46.69A4.31,4.31,0,0,0,115.16,86.77Z"/><path class="cls-5" d="M116.55,85.61c-2.22-4.18-5.46-8.09-8.11-11.86-.55-.27-1.94-1.16-3.07-1.66a2.37,2.37,0,0,0-1.38-.28,1.64,1.64,0,0,1-.18.17c2.71,4,5.35,7.94,7.86,11.76a1.55,1.55,0,0,0,0-.22,19.19,19.19,0,0,1,4.65,2Z"/><path class="cls-6" d="M113.85,87c1.44,2.2,2.82,4.36,4.13,6.51h0c.23-.3.45-.59.7-.89-1.29-1.92-2.44-3.93-3.53-5.89A4.31,4.31,0,0,1,113.85,87Z"/><path class="cls-6" d="M118,93.55c.66.35,1.36.72,2.1,1.09-.49-.63-1-1.3-1.4-2C118.44,93,118.22,93.25,118,93.55Z"/><path class="cls-6" d="M135.3,83.62c-3.51.36-8.62-1.73-8.72-4.63-10.67-5.63-22.31-11.83-28-15.24a.66.66,0,0,0-.08.13c1.81,2.78,3.6,5.47,5.36,8.1a1.64,1.64,0,0,0,.18-.17,2.37,2.37,0,0,1,1.38.28c-.74-.82-1.32-1.65-2-2.48l.11-.09c12,5.42,25.06,17.42,38.85,17.84C140.3,86.27,137.92,85,135.3,83.62Z"/><path class="cls-7" d="M126.58,79c.1,2.9,5.21,5,8.72,4.63,2.62,1.38,5,2.65,7,3.74l.55,0a5.48,5.48,0,0,0,.56-1.85c0-.4,0-.74,0-1,0-.1,0-.18,0-.27h0c0-1.59-.1-2.5-1.81-4.21-5.69.61-9.37-.27-13.83-3.6A3.52,3.52,0,0,0,126.58,79Z"/><path class="cls-8" d="M146,87.18a19.92,19.92,0,0,1-3.08.2,1.06,1.06,0,0,1-.11.21l-.44-.23c-13.79-.42-26.82-12.42-38.85-17.84l-.11.09c.68.83,1.26,1.66,2,2.48,1.13.5,2.52,1.39,3.07,1.66,2.65,3.77,5.89,7.68,8.11,11.86l-.24-.13-.06.13c.09.51-.44.92-1.09,1.16,1.09,2,2.24,4,3.53,5.89.45.68.91,1.35,1.4,2,6.06,3.1,14.4,7.16,22.78,11.31a.08.08,0,0,1,.08,0c1.71.7,3.35,1.48,5,2.28,7-5.26,7.38-18.62-1.85-21.1Z"/><path class="cls-9" d="M146,85.53a9.06,9.06,0,0,0-2.52-1.31c0,.08,0,.16,0,.26a3.36,3.36,0,0,1,0,1,5.48,5.48,0,0,1-.56,1.85,19.92,19.92,0,0,0,3.08-.2v-.05A4.5,4.5,0,0,0,146,85.53Z"/><path class="cls-10" d="M147.79,108.4c-1.61-.82-3.22-1.6-4.84-2.41a.08.08,0,0,0-.08,0c-8.38-4.15-16.72-8.21-22.78-11.31-.74-.37-1.44-.74-2.1-1.09h0c-.54.71-1.06,1.48-1.57,2.21l.16.26c6.66,3.52,17.39,8.73,27.86,14A10.47,10.47,0,0,0,147.79,108.4Z"/><path class="cls-11" d="M147.94,108.27c-1.64-.8-3.28-1.58-5-2.28,1.62.81,3.23,1.59,4.84,2.41Z"/><path class="cls-12" d="M146,87.13v.05h.13A.28.28,0,0,0,146,87.13Z"/><path class="cls-12" d="M145.48,83.84a5.1,5.1,0,0,1,.51,1.69,4.5,4.5,0,0,1,0,1.6.28.28,0,0,1,.13,0,20.41,20.41,0,0,0,4-.91h0C148.82,85.13,147,84.57,145.48,83.84Z"/><path class="cls-13" d="M150.13,86.26A39,39,0,0,1,154,87.8c-.67-.8-1.28-1.58-1.87-2.28C151.48,85.81,150.82,86,150.13,86.26Z"/><path class="cls-14" d="M170.52,97.94C165.32,94.27,160,90.49,154,87.8c3,3.74,6.73,8.3,10.7,12.48,4.33,1.38,9,3.27,13.27,4.29,3.91-9.74,7.79-19.17,7.26-30.29-3,6-5.74,12.15-8.77,16.42a1.13,1.13,0,0,0-.1.13,74.43,74.43,0,0,1-5.63,6.77Z"/><path class="cls-6" d="M171.58,120a20.14,20.14,0,0,1-3.85-1.16,66.84,66.84,0,0,1,5.88,3.69C172.93,121.74,172.27,120.9,171.58,120Z"/><path class="cls-15" d="M178.14,120.32a20.39,20.39,0,0,1-6.56-.29c.69.87,1.35,1.71,2,2.53l.09,0c-.5.86-1,1.72-1.61,2.56-5-3.51-15.07-8.8-25.71-14.17,7.12,6.51,22.77,21,27.51,17.44v0c6.22-3,16.42-16.41,19.14-23.7.52-12.32,1.42-24.9,2.7-35.26h0A47.46,47.46,0,0,1,197.28,57c-4.95,4.07-8.68,10.66-12,17.29.53,11.12-3.35,20.55-7.26,30.29-4.25-1-8.94-2.91-13.27-4.29,4.84,5.15,10.09,9.74,15,11.62l.36.38c-1,.12-2,.29-3,.45l0,.2c.7,1.12,2.37,2.08,3.22,3.34a17.24,17.24,0,0,1-4.78,1.07l0,.19C176.48,118.36,177.31,119.47,178.14,120.32Z"/><path class="cls-10" d="M173.61,122.56a66.84,66.84,0,0,0-5.88-3.69l-.07-.06a13.54,13.54,0,0,1-2.7-1.51s-.05,0-.05,0c-4.9-2.7-10.9-5.78-17.12-8.87a10.47,10.47,0,0,1-3.36,1.62c.65.33,1.29.67,1.94,1h0c10.64,5.37,20.74,10.66,25.71,14.17.56-.84,1.11-1.7,1.61-2.56Z"/><path class="cls-11" d="M167.41,117a51.17,51.17,0,0,1-12.24-5.31l0,0c-2.43-1-4.81-2.21-7.2-3.37l-.15.13c6.22,3.09,12.22,6.17,17.12,8.87,0,0,0,0,.05,0l2.7,1.51.07.06a20.14,20.14,0,0,0,3.85,1.16,20.39,20.39,0,0,0,6.56.29c-.83-.85-1.66-2-2.64-2.79l0-.19A26.78,26.78,0,0,1,167.41,117Z"/><path class="cls-13" d="M164.73,100.28c-4-4.18-7.66-8.74-10.7-12.48a39,39,0,0,0-3.9-1.54h0a20.41,20.41,0,0,1-4,.91c9.23,2.48,8.86,15.84,1.85,21.1,2.39,1.16,4.77,2.35,7.2,3.37l0,0a35,35,0,0,0,6.68,2.1c5.22.93,10.22-.2,15.14-1,1-.16,2-.33,3-.45l-.36-.38C174.82,110,169.57,105.43,164.73,100.28Z"/><path class="cls-16" d="M155.17,111.66A51.17,51.17,0,0,0,167.41,117a26.78,26.78,0,0,0,8.06.37,17.24,17.24,0,0,0,4.78-1.07c-.85-1.26-2.52-2.22-3.22-3.34l0-.2c-4.92.83-9.92,2-15.14,1A35,35,0,0,1,155.17,111.66Z"/><path class="cls-17" d="M192.76,348.82c3.61,1.43,23.42-7.59,29.8-12.88a2.51,2.51,0,0,0,.1-.44,7.72,7.72,0,0,0-.13-2.22l-1.88-.44c-4.87,6.53-18.54,9.22-25.08,12.88a36.23,36.23,0,0,0-7.23-4.09,15.14,15.14,0,0,1-2.42,1.15,34.11,34.11,0,0,0-.63,3.55A32.72,32.72,0,0,1,192.76,348.82Z"/><path class="cls-18" d="M221.76,55.45a7.44,7.44,0,0,1-.74-.28c-3.46-1.37-13.15-5.29-17-5.64-3.57.52-5.61,3.62-6.76,7.46a47.46,47.46,0,0,0-1.54,12.47h0c-1.28,10.36-2.18,22.94-2.7,35.26-.44,9.73-.65,19.3-.65,27.51h0c.39,3.62,1.41,7.3,1.41,10.89,0,6.69-.44,12.74-.44,19.15l-.11.16.36.26c-.13,9.5.32,20.15.32,25.3q1.17,1.38,2.34,2.61a45.51,45.51,0,0,0,6.11,5.28,40.33,40.33,0,0,0,4.49,2.81,174,174,0,0,1,3.35-20.57,378.41,378.41,0,0,1,.34-47.52c-.08-.4-.19-.81-.28-1.24-1.82-7.9-5.65-20-6.17-27.8-.2-3.9-.38-8-.38-11.9,0-1.29-.73-4.46-.36-5.39.74-1.66,4.08-2.6,5.21-3.71-.95-.94-2.43-1.3-3.55-2,3.36-3.9,6-8,9.12-12.27,2.13-3,5.28-7.64,7.8-10.71Z"/><path class="cls-19" d="M199.92,326.27c-.7,5.77-6.21,12.28-11.58,15.36a36.23,36.23,0,0,1,7.23,4.09c6.54-3.66,20.21-6.35,25.08-12.88-5.54-1.21-11.28-2.31-16.56-4.5A35.15,35.15,0,0,1,199.92,326.27Z"/><path class="cls-20" d="M196.26,190.6c-.91,7.41.86,91.43.86,98.67,0,12.1,2.31,24.28,2,36.53.26.17.51.32.79.47a35.15,35.15,0,0,0,4.17,2.07c-.53-20.57-1.18-39.62-1.74-61.17-.53-22.41.92-46,0-71.29A45.51,45.51,0,0,1,196.26,190.6Z"/><path d="M212.51,201.21a206.73,206.73,0,0,1-2.3-23.09,174,174,0,0,0-3.35,20.57A44.94,44.94,0,0,0,212.51,201.21Z"/><path class="cls-14" d="M242.75,93.39a17,17,0,0,0-4.27-1.87c-.19,3.35.37,4.28-1.68,6.7a48,48,0,0,1-4.45,4.09c-5,4.46-17,21.49-21.64,26.51-.05.57-.11,1.17-.16,1.78a378.41,378.41,0,0,0-.34,47.52,206.73,206.73,0,0,0,2.3,23.09c1.63.6,3.27,1.13,5,1.61,3.79,1.06,7.82,1.86,12.11,2.71,2.25.45,4.61.91,7,1.41a32.8,32.8,0,0,0,5.72.89c4.07-8.61,5.17-18.67,5.18-28.81-1.37-.26-5.18-1.32-9-2.36-3.23-.9-6.49-1.8-8.24-2.2-.8-3.44-1.19-7-2-9.94,6.05,2.42,13.44,4.24,19.13,7.53-.26-6.67-.79-13.22-1.07-19.26a5.47,5.47,0,0,0-3.64,2.52A30.75,30.75,0,0,1,246,144.15a46,46,0,0,0-7.25,5.86c-2.22-11.72,0-25.93,1.39-37.65.83-6.69,1.67-13.37,3.9-20.06a11.75,11.75,0,0,1,.39-1.27A20.06,20.06,0,0,1,242.75,93.39Z"/><path class="cls-20" d="M217.47,202.82c1,5.11,2.3,13.55,2.93,16.34,1.23,6.35,1.62,12.74,2.85,19.09,1.29,6.8,2.52,13.7,3.68,20.65.75,4.38,1.46,8.8,2.18,13.22,1,6.06,1.73,16.24,2.69,22.29,3.13,19.36,6.27,31.22,7.45,50.71a18.94,18.94,0,0,0,3.24,1.75,26.15,26.15,0,0,0,3.29,1.16c-.89-23.43-5.4-45.76-7.45-70.21,0,0,.17-4.19.17-4.22-1.35-12.49-8.38-61.91-8.92-68.07C225.29,204.68,221.26,203.88,217.47,202.82Z"/><path class="cls-9" d="M219.35,74.05c-.34-.43-.67-.93-1-1.45-1.32,4.34-2.32,8.85-3.26,12.8-.45,2.21-.89,4.44-1.3,6.69,1.69-3.79,4.61-10,7.25-13V79a41.12,41.12,0,0,1,.65-7.26Z"/><path class="cls-21" d="M221,79.1c-2.64,3-5.56,9.2-7.25,13h0A161.88,161.88,0,0,0,211,115.69v7.06l.23,0c.14-1,.26-1.75.31-1.9,1.69-6,5-12.14,8.6-18,.54-3.47.89-7.42,1.43-11,.38-3.89,1.29-8,1.87-11.86a.43.43,0,0,1-.16-.07,11.43,11.43,0,0,1-2.19-.95Z"/><path class="cls-22" d="M218.81,18.29A96.26,96.26,0,0,1,217,29.58c.29-.52.61-1,.92-1.54h0a5.84,5.84,0,0,0,1.48-3.56,2.28,2.28,0,0,0-.54-1.54c1.46-3.29,2.24-7.41,3.28-11a9.62,9.62,0,0,1-.84-1.17A21.53,21.53,0,0,0,218.81,18.29Z"/><path class="cls-23" d="M221.94,55.53c-2.52,3.07-5.67,7.7-7.8,10.71-3.15,4.29-5.76,8.37-9.12,12.27,1.12.75,2.6,1.11,3.55,2-1.13,1.11-4.47,2-5.21,3.71-.37.93.36,4.1.36,5.39,0,3.9.18,8,.38,11.9.52,7.76,4.35,19.9,6.17,27.8.19-1.05.63-4.42.95-6.57l-.23,0v-7.06a161.88,161.88,0,0,1,2.76-23.59h0c.41-2.25.85-4.48,1.3-6.69.94-4,1.94-8.46,3.26-12.8A44.06,44.06,0,0,1,223,61.68s0,0,0-.06h0a27,27,0,0,0,.12-5.66C222.77,55.82,222.36,55.69,221.94,55.53Z"/><path class="cls-9" d="M229.3,78.14c-.25-.85-.47-1.67-.64-2.48a54.5,54.5,0,0,0-5.39,4.3.43.43,0,0,0,.16.07c-.58,3.9-1.49,8-1.87,11.86-.54,3.63-.89,7.58-1.43,11,2.72-4.39,5.68-8.61,8.31-12.53,3.06-4.64,7-8.62,10.83-12.6l0,0C237.56,79.26,231.72,78.33,229.3,78.14Z"/><path class="cls-24" d="M222.13,11.8c-.3-.34-.57-.68-.88-1a9.62,9.62,0,0,0,.84,1.17C222.1,11.9,222.12,11.85,222.13,11.8Z"/><path class="cls-7" d="M245.11,22.31c-6-.55-10.6,1.12-16-3a31.61,31.61,0,0,1-5.89-6.21h0A11,11,0,0,1,222.09,12c-1,3.57-1.82,7.69-3.28,11a2.28,2.28,0,0,1,.54,1.54A5.84,5.84,0,0,1,217.87,28h0c-.31.51-.63,1-.92,1.54a8.47,8.47,0,0,0-.79,2c-.52,2.28-.07,4.92,0,7.2a114.36,114.36,0,0,0,1,13.38c.59,1.4,2.16,2.36,3.83,3.05a7.44,7.44,0,0,0,.74.28l.18.08c.42.16.83.29,1.22.42l2,.6c1.59.53,3.26,1.41,4.83.79l1.24-.55.78-.2c2.33-3.32,3-7.52,3.63-11.41s2.17-7.14,6.43-8c.49-2.08,1.55-4,1.91-6a56.54,56.54,0,0,0,.84-5.67,13.68,13.68,0,0,1-3.76-1C242.13,23.8,244,23.43,245.11,22.31Z"/><path class="cls-7" d="M222.13,11.8s0,.1,0,.16a11,11,0,0,0,1.13,1.17Z"/><path d="M224.36,333.71c-.28-6.13,3.42-65.34,2.57-74.81-1.16-6.95-2.39-13.85-3.68-20.65-1.23-6.35-1.62-12.74-2.85-19.09-.63-2.79-2-11.23-2.93-16.34-1.69-.48-3.33-1-5-1.61a44.94,44.94,0,0,1-5.65-2.52,40.33,40.33,0,0,1-4.49-2.81c.9,25.27-.55,48.88,0,71.29.56,21.55,1.21,40.6,1.74,61.17,5.28,2.19,11,3.29,16.56,4.5l1.88.44C223.14,333.41,223.76,333.56,224.36,333.71Z"/><path class="cls-25" d="M222.56,335.94c-6.38,5.29-26.19,14.31-29.8,12.88a32.72,32.72,0,0,0-7.47-2.49,24.31,24.31,0,0,0-.2,3c3.09,1.12,6.52,2.74,9.62,2.82v-.06c4-.24,16.61-4.16,17.76-5.85s3.24-6.61,4.92-3.54c1.37-.62,5.16-2.66,5.16-2.66a16.7,16.7,0,0,0,.13-4.22A.38.38,0,0,1,222.56,335.94Z"/><path class="cls-26" d="M221.66,71.71a37.45,37.45,0,0,1,5.33-4.6c0-.1-.07-.21-.11-.31a9.81,9.81,0,0,1-3.83-5.15s0,0,0,0a44.06,44.06,0,0,0-4.71,10.92c.36.52.69,1,1,1.45Z"/><path class="cls-21" d="M227,67.11a37.45,37.45,0,0,0-5.33,4.6A41.12,41.12,0,0,0,221,79l.07,0a11.43,11.43,0,0,0,2.19.95,54.5,54.5,0,0,1,5.39-4.3C228,72.78,227.84,70.08,227,67.11Z"/><path class="cls-27" d="M228.26,164.52c.85,2.9,1.24,6.5,2,9.94,1.75.4,5,1.3,8.24,2.2,3.81,1,7.62,2.1,9,2.36,0-2.32-.05-4.65-.14-7C241.7,168.76,234.31,166.94,228.26,164.52Z"/><path class="cls-28" d="M229.94,57.34c-1.57.62-3.24-.26-4.83-.79l-2-.6a27,27,0,0,1-.12,5.66h0v0a9.81,9.81,0,0,0,3.83,5.15,16.27,16.27,0,0,0,4.72,1.93c3.16-4.24,7.44-8.9,7.84-14.18-1.68.62-3.32.93-5,1.39-.78.24-1.62.44-2.45.65l-.78.2Z"/><path class="cls-29" d="M252.73,349.29a27.85,27.85,0,0,0,7.52-.63c.48-.1,1-.23,1.46-.36l.38-.12a12.09,12.09,0,0,0,2.56-1.09l-.12-.2c-.51-12,1.48-22.72.86-32.73-.69-11.41-3.07-24.12-5.63-37.66.76-14.16,1.8-61.45-.77-73.06a28.05,28.05,0,0,1-16.64,4.39,32.8,32.8,0,0,1-5.72-.89c-2.44-.5-4.8-1-7-1.41.54,6.16,7.57,55.58,8.92,68.07,0,0-.17,4.18-.17,4.22,2,24.45,6.56,46.78,7.45,70.21A37.68,37.68,0,0,0,252.73,349.29Z"/><path class="cls-15" d="M252.22,66.38c-.17,5-2,9.44-3.34,14.18A40.59,40.59,0,0,1,244.47,91a11.75,11.75,0,0,0-.39,1.27c-2.23,6.69-3.07,13.37-3.9,20.06-1.39,11.72-3.61,25.93-1.39,37.65a46,46,0,0,1,7.25-5.86,30.75,30.75,0,0,0-3.36,11.16,5.47,5.47,0,0,1,3.64-2.52c.28,6,.81,12.59,1.07,19.26l1.12.69a17.2,17.2,0,0,1-.75,6.32l-.23,0c0,10.14-1.11,20.2-5.18,28.81A28.05,28.05,0,0,0,259,203.44a51.58,51.58,0,0,0,4.78-3.19c-2-16-4.74-36.15-4.48-55.39l-.07,0c1.87-7.33,4.28-16.93,5.4-21-3.37-9.23-7.26-19.45-10.71-27.67a.38.38,0,0,1,0-.1c-4-10.58,8.7-19.17,11.92-19.09v-.12C261.63,73.75,256.6,69.17,252.22,66.38Z"/><path class="cls-26" d="M247.42,68.2c-2.4,3.72-9.57,1.92-13,1.21-1-.22-1.91-.44-2.79-.68a16.27,16.27,0,0,1-4.72-1.93c0,.1.07.21.11.31.85,3,1,5.67,1.67,8.55.17.81.39,1.63.64,2.48,2.42.19,8.26,1.12,9.93-.36l0,0a104.38,104.38,0,0,0,8.1-9C247.39,68.57,247.41,68.38,247.42,68.2Z"/><path class="cls-30" d="M248.51,172.74l-1.12-.69c.09,2.32.14,4.65.14,7l.23,0A17.2,17.2,0,0,0,248.51,172.74Z"/><path class="cls-31" d="M246.18,50.84c-1.85,1.84-3.52,2.37-5.8,3.34l-.94.37c-.4,5.28-4.68,9.94-7.84,14.18.88.24,1.82.46,2.79.68,3.46.71,10.63,2.51,13-1.21.31-3.13.21-6.26.34-9.38,0-.17,0-.32.05-.48.06-1.27.21-2.56.35-3.84a62.35,62.35,0,0,0,.55-6.78c-.12-.18-.28-.39-.45-.65A8,8,0,0,1,246.18,50.84Z"/><path class="cls-23" d="M248.88,80.56c1.37-4.74,3.17-9.22,3.34-14.18,0-.36,0-.7,0-1.06a17.18,17.18,0,0,0-2.43-2.8,23.53,23.53,0,0,0-2-4.18c0,.16,0,.31-.05.48-.13,3.12,0,6.25-.34,9.38,0,.18,0,.37,0,.56a104.38,104.38,0,0,1-8.1,9c-3.86,4-7.77,8-10.83,12.6-2.63,3.92-5.59,8.14-8.31,12.53-3.64,5.81-6.91,11.91-8.6,18-.05.15-.17.9-.31,1.9-.32,2.15-.76,5.52-.95,6.57.09.43.2.84.28,1.24,0-.61.11-1.21.16-1.78,4.65-5,16.63-22,21.64-26.51a48,48,0,0,0,4.45-4.09c2-2.42,1.49-3.35,1.68-6.7a17,17,0,0,1,4.27,1.87A20.06,20.06,0,0,0,244.47,91,40.59,40.59,0,0,0,248.88,80.56Z"/><path class="cls-32" d="M255.22,40.24c.51-2.13.17-4.83-2.45-3.35-1.11.67-1.88,1.83-3,2.55-.49.83-1,1.68-1.37,2.55a17.77,17.77,0,0,1-1.5,2.56,7.89,7.89,0,0,0-1.4-.85c1-2.29,1.24-5.75,2.29-8.38a3,3,0,0,0,.23-.74c.69-3-1.68-6-.14-8.76a23.09,23.09,0,0,1-3.15-.25,56.54,56.54,0,0,1-.84,5.67c-.36,2-1.42,3.9-1.91,6-4.26.82-5.79,4-6.43,8s-1.3,8.09-3.63,11.41c.83-.21,1.67-.41,2.45-.65,1.71-.46,3.35-.77,5-1.39l.94-.37c2.28-1,4-1.5,5.8-3.34a8,8,0,0,0,2.08-3.77c.17.26.33.47.45.65,1.11,1.37,1.72.26,2.9-1.44C252.94,44.26,254.6,42.6,255.22,40.24Z"/><path class="cls-19" d="M260.25,348.66a27.85,27.85,0,0,1-7.52.63,37.68,37.68,0,0,1-6.95-1.26,26.15,26.15,0,0,1-3.29-1.16,65.16,65.16,0,0,1-.92,13.85c-.51,2.66-1.11,5.25-1.67,7.76,5.65-.92,11,4.67,14.5-.46,2.78-4.46,5.86-14.21,5.86-19.24Z"/><path class="cls-22" d="M261.22,29.14c-.55,2.38-6,6.28-8.36,5.44.28-.42.28-1,.7-1.53a10.31,10.31,0,0,1-5.5,1.53,3,3,0,0,1-.23.74c-1.05,2.63-1.32,6.09-2.29,8.38a7.89,7.89,0,0,1,1.4.85,17.77,17.77,0,0,0,1.5-2.56c.41-.87.88-1.72,1.37-2.55,1.08-.72,1.85-1.88,3-2.55,2.62-1.48,3,1.22,2.45,3.35-.62,2.36-2.28,4-3.61,6-1.18,1.7-1.79,2.81-2.9,1.44a62.35,62.35,0,0,1-.55,6.78c1.48.58,4.71.13,5.27-1.6.22-.68-.13-1.18-.26-1.76-.22-1.28-.47-3.36.09-4.6s2.11-2.41,3-3.36a66.82,66.82,0,0,0,7-8l0,0a34.12,34.12,0,0,0,1.6-5.9,3.78,3.78,0,0,0,.13-.67C263.11,31.16,260.78,33.28,261.22,29.14Z"/><path class="cls-25" d="M258.12,366.85c-1.59,3.35-4.12,7.19-6.42,8.37a36.23,36.23,0,0,1-12.76-2.17c-.25,1.31-.44,2.59-.58,3.83l.26,0c3.76,2,10.52,2.73,14.33,1.09,3.29-3.4,5.59-9.19,7-15.21l-.85,1.74a.29.29,0,0,0,0,.1,22,22,0,0,1-.94,2.14A.14.14,0,0,1,258.12,366.85Z"/><path class="cls-17" d="M260,362.8a64.35,64.35,0,0,0,1.75-14.5c-.47.13-1,.26-1.46.36v.12c0,5-3.08,14.78-5.86,19.24-3.51,5.13-8.85-.46-14.5.46-.35,1.54-.69,3.08-1,4.57a36.23,36.23,0,0,0,12.76,2.17c2.3-1.18,4.83-5,6.42-8.37a.14.14,0,0,0,0-.07c.25-.67.57-1.39.94-2.14a.29.29,0,0,1,0-.1Z"/><path class="cls-25" d="M261.71,348.3A64.35,64.35,0,0,1,260,362.8a32.94,32.94,0,0,0,2.38-5.63,18.88,18.88,0,0,0,.09-4.58c0-1.07-.25-2.52-.34-4.41Z"/><path class="cls-22" d="M266,18.33a27.85,27.85,0,0,0-2.62-5.21c-1.25-2.37-3.88-4.3-5.81-6a26.67,26.67,0,0,0-9-5A34.34,34.34,0,0,0,239.76.39a40.53,40.53,0,0,0-8.11.88,15.19,15.19,0,0,1-2.71-.14l-.28-.08a17.84,17.84,0,0,0-2.89-1c-2-.19-3.53,1.67-4.28,3.91-.82,2.52-1.52,4.56-.25,6.85v0c.31.33.58.67.88,1l1.09,1.33h0a31.61,31.61,0,0,0,5.89,6.21c5.39,4.08,10,2.41,16,3-1.11,1.12-3,1.49-4.1,2.24a13.68,13.68,0,0,0,3.76,1,23.09,23.09,0,0,0,3.15.25c-1.54,2.76.83,5.77.14,8.76a10.31,10.31,0,0,0,5.5-1.53c-.42.55-.42,1.11-.7,1.53,2.38.84,7.81-3.06,8.36-5.44-.44,4.14,1.89,2,3.85-.46A50.08,50.08,0,0,0,266,18.47h0A.65.65,0,0,0,266,18.33Z"/><path class="cls-27" d="M272,81c-7.21,5.39-5.82,15.43-3.64,23.6,2.23,8.92,4.18,18.11,6.41,27.31a11.71,11.71,0,0,1,7.52,0c-1.11,1.12-3.06,2-3.89,3.63,1.11,0,2.51.83,3.61,1.11-3.33,3.07,10.88,23.7,14.23,27.6,4.17,5.29,4.45,2.51,9.47-.27a19.07,19.07,0,0,1,9.08-2.23C306.49,152,295.6,140.35,290.84,133,288,119.37,282.46,91.89,272,81Z"/><path class="cls-12" d="M302.27,176.53a11.69,11.69,0,0,0-1.2,2.59,4.07,4.07,0,0,0,3.3.47A36.71,36.71,0,0,1,302.27,176.53Z"/><path class="cls-9" d="M302.27,176.52h0a36.71,36.71,0,0,0,2.1,3.06c.29.36.5.56.55.45a5.62,5.62,0,0,1,.88-1.38c2.78-3.49,9.5-6.29,13.81-7.2l.21-.08a15.82,15.82,0,0,0-1.9-3C312.51,168.07,305.43,171.39,302.27,176.52Z"/><path class="cls-28" d="M321.62,187a18.39,18.39,0,0,0-4.45.77c.18.35.36.69.55,1a38.44,38.44,0,0,0,5.56,7.87c1.54,1.81,3.15,6.13,5.47,6.93l.11-.5c1.67-3.29-2.06-8.09-4.51-10h0C323.76,191.24,322.84,188.44,321.62,187Z"/><path class="cls-33" d="M265.8,77c-3.22-.08-15.9,8.51-11.92,19.09a.38.38,0,0,0,0,.1c3.45,8.22,7.34,18.44,10.71,27.67,2.25,6.14,4.26,11.83,5.75,16.18l.18-.07c8.81,12,21,29.63,30.48,39.37a1,1,0,0,1,0-.18,11.69,11.69,0,0,1,1.2-2.59h0a.25.25,0,0,1-.08-.12.81.81,0,0,1,.08.12c3.16-5.13,10.24-8.45,15.65-8.11a9.66,9.66,0,0,1,2.62.5,1,1,0,0,0-.06-.18c-1.63-2.14-3.59-4.52-5.71-7a19.07,19.07,0,0,0-9.08,2.23c-5,2.78-5.3,5.56-9.47.27-3.35-3.9-17.56-24.53-14.23-27.6-1.1-.28-2.5-1.11-3.61-1.11.83-1.67,2.78-2.51,3.89-3.63a11.71,11.71,0,0,0-7.52,0c-2.23-9.2-4.18-18.39-6.41-27.31C266.16,96.4,264.77,86.36,272,81a15.93,15.93,0,0,0-4.93-3.65l-.87-.29A.92.92,0,0,0,265.8,77Z"/><path class="cls-7" d="M314.71,192c-.43-.87-1-1.75-1.45-2.52l-.14-.36c1.31-.48,2.68-1,4.05-1.35a18.39,18.39,0,0,1,4.45-.77,1,1,0,0,1,.3,0c2.94,4.84,6.87,8.1,10.62,12.09a2.47,2.47,0,0,0,.61-2.61l-.31-.33c-.07-2-2-3.76-3.45-5-1.78-1.86-3.24-4.05-5-6.15l-.05-.41c0-1.95.43-4.94-.16-6.86v-1.07c1.69,0,4,.13,5.46-.82a4.26,4.26,0,0,0,2.12-3.43c0-.53,0-1.59-.37-1.8-1-.88-.53,0-1.43.47-1.53.43-2,1.11-3.74.83-1.13-.14-2.11-1-3.23-1.28a5.69,5.69,0,0,0-3.15.76.13.13,0,0,0,0,.06l-.22,0c-4.31.91-11,3.71-13.81,7.2,1,3,1.9,6.06,2.72,9.18l.3.34c.84,1.51,1.34,3.31,2.44,4.76a57.22,57.22,0,0,0,5,5.14l.13-.14c1,.63,2.91,3.29,3.67,1.77a1.23,1.23,0,0,0,.07-.39A8.26,8.26,0,0,0,318.7,196,17,17,0,0,0,314.71,192Z"/><path class="cls-34" d="M317.17,187.76c-1.37.38-2.74.87-4.05,1.35l.14.36c.48.77,1,1.65,1.45,2.52a17,17,0,0,1,4,4,8.26,8.26,0,0,1,1.43,3.33,16.1,16.1,0,0,0,4.06,3.41l.05-.09c1.23-1.94-1-5.09-2.32-6.43-2.13-2.19-3.95-4.29-4.2-7.44C317.53,188.45,317.35,188.11,317.17,187.76Z"/><path class="cls-12" d="M317.92,168.41a15.82,15.82,0,0,1,1.9,3l.05,0a4.77,4.77,0,0,0,.67-2.45A9.66,9.66,0,0,0,317.92,168.41Z"/></g><path class="cls-7" d="M221.93,34.75l-3.26,4.76s1.45,2.29,2.34,2.71,2.33-1,2.33-1a6.24,6.24,0,0,1-2.48-.62,3.64,3.64,0,0,1-1.59-1.3Z"/><path class="cls-1" d="M123.83,438.19,62.28,403.14c-6.71-3.07-16.31-5.51-23.14-1.95-6.23,3.24-24.25,14.81-28.78,17.4-3.45,2-15.41,9.13-8,13.18C24.32,443.69,46,457.09,68.26,469.2c4.21,2.29,10.37,3.12,16.83,2.58a44.66,44.66,0,0,0,18.23-5.43c3.7-2.15,15.09-9.2,18.67-11.29,4.82-2.81,7.38-6.13,7.64-9.2S128,440.07,123.83,438.19Z"/><g id="_Group_2" data-name="&lt;Group&gt;"><path class="cls-35" d="M192.74,130.49,170.44,153a6.53,6.53,0,0,0,1.2-3.44c.07-2-1.24-3.52-4.61-4,.21,1.53.39,3.84-.36,5.41-1,1.73-2.7,1.9-3.69,3.08a3.93,3.93,0,0,0-.75,1.64l-25.6-7.21L165.92,124Z"/><path class="cls-36" d="M170.44,153l22.3-22.55L165.92,124,136.63,148.5l25.6,7.21a4,4,0,0,0,0,1.24c0,.14.07.31.11.46a19.41,19.41,0,0,0-2.35,2.1l-.57.56L127,150.91l38-31.46,37.28,9.12s-6.43,6.07-13.1,12.26c0-.29,0-.61,0-.88-1.31,1.26-2.66,2.58-4,3.82-4.27,4.12-8.28,8-11.19,10.65l0,.11c-.78-.13-1.53-.46-2.34-.68a6.1,6.1,0,0,0-1.57-.17,2.39,2.39,0,0,0,.36-.6Z"/><path class="cls-7" d="M189.15,140c0,.27,0,.59,0,.88-1.46,1.34-2.92,2.69-4.34,4a4.49,4.49,0,0,1,.4-1C186.49,142.53,187.84,141.21,189.15,140Z"/><path class="cls-37" d="M174,154.42c2.91-2.69,6.92-6.53,11.19-10.65a4.49,4.49,0,0,0-.4,1C179.1,150.09,174.24,154.5,174,154.42Z"/><path class="cls-37" d="M184.39,146.72c-3.55,2.2-6.5,5.19-9.8,7.88a3.48,3.48,0,0,1-.64-.07l0-.11c.25.08,5.11-4.33,10.79-9.61C184.61,145.47,184.5,146.12,184.39,146.72Z"/><path class="cls-7" d="M189.12,140.83c-.08,2.38-.29,4.68-.25,7a8.81,8.81,0,0,1-1.39,1.84,17.28,17.28,0,0,1-2.3,6.33v0c-1.28,4.54-8.21,10.51-12.36,12.42l-.07.08a26,26,0,0,0-9.41-7.74,22,22,0,0,0-1-3.34c0-.15-.07-.32-.11-.46a4,4,0,0,1,0-1.24,3.93,3.93,0,0,1,.75-1.64c1-1.18,2.7-1.35,3.69-3.08.75-1.57.57-3.88.36-5.41,3.37.5,4.68,2.06,4.61,4a6.53,6.53,0,0,1-1.2,3.44l0,0a2.39,2.39,0,0,1-.36.6,6.1,6.1,0,0,1,1.57.17c.81.22,1.56.55,2.34.68a3.48,3.48,0,0,0,.64.07c3.3-2.69,6.25-5.68,9.8-7.88.11-.6.22-1.25.39-1.91C186.2,143.52,187.66,142.17,189.12,140.83Z"/><path class="cls-11" d="M162.38,157.41a22,22,0,0,1,1,3.34,16.74,16.74,0,0,0-3.31-1.24A19.41,19.41,0,0,1,162.38,157.41Z"/><path class="cls-9" d="M172.75,168.49a18.12,18.12,0,0,1,2.3,4.08,11.71,11.71,0,0,0-2.23,2.81l-.29.14c-2.7-5.58-8.95-10.19-13.95-12.18l-1.61-.57c-.07,0-.13,0-.21,0a28.34,28.34,0,0,0,2.7-2.67l.57-.56a16.74,16.74,0,0,1,3.31,1.24A26,26,0,0,1,172.75,168.49Z"/><path class="cls-38" d="M90.61,174.34c-14.06-9.66-1.24-36.57,12.86-28.55a15.66,15.66,0,0,1,2.06,1.43l.07-.07a22.66,22.66,0,0,1,2.91,2.84l-1.71.46c-2.91-.89-4.65,4.9-4.93,7.52-.57,5.79,2.59,11.86,5.5,16.76,5.79,9.57,16.19,17.66,20.53,27.81,1.45-2,2.63-4.65,4.08-6.67.28,1.45.85,3.19,1.14,4.93,2.91-.6,4.61-3.2,7-4.65,3.48-2.31,6.63-3.15,9.55-5.79a92.31,92.31,0,0,0,11.25-12.72,35.76,35.76,0,0,0-13.06-7.38,2.46,2.46,0,0,0,.28-.28c.75-.71,1.53-1.43,2.31-2.1s1.38-1.2,2.1-1.77a44.27,44.27,0,0,1,4.46-3.34l1.61.57c5,2,11.25,6.6,13.95,12.18.22.49.43,1,.6,1.46-13.14,14.59-23.75,28.41-40.51,40.36-3.62.26-6.5,0-8.7-1.56v0a146.31,146.31,0,0,0-9.81-13.44C106.42,192.88,98.53,185,90.61,174.34Z"/><path class="cls-39" d="M112.83,244.69c-.52,14.45-1,25.54-1,27.84a20.58,20.58,0,0,1-1.88,1.38,45,45,0,0,1-22.55,8.28c1.6-8.48,2-17.65,3.8-26.13.21-1.07.43-2.14.64-3.21,5.5-.41,12.32-1.23,16.79-3.54a16.07,16.07,0,0,0,.72-4.73Z"/><path class="cls-40" d="M92.77,247c4.8-2.51,10.8-3.76,15.24-6.28l.92-.22a22,22,0,0,1,.4,4.12,16.07,16.07,0,0,1-.72,4.73c-4.47,2.31-11.29,3.13-16.79,3.54Q92.35,249.94,92.77,247Z"/><path class="cls-40" d="M133.12,200.8c-.29-1.74-.86-3.48-1.14-4.93-1.45,2-2.63,4.64-4.08,6.67-4.34-10.15-14.74-18.24-20.53-27.81-2.91-4.9-6.07-11-5.5-16.76.28-2.62,2-8.41,4.93-7.52l1.71-.46a15.06,15.06,0,0,1,3,5.36v0c1.88,2.1,3.73,4.23,5.47,6.43.6.75,1.17,1.46,1.74,2.2a237.64,237.64,0,0,1,14.45,20.88c5-4.54,9.58-9.84,14.6-14.63a35.76,35.76,0,0,1,13.06,7.38,92.31,92.31,0,0,1-11.25,12.72c-2.92,2.64-6.07,3.48-9.55,5.79C137.73,197.6,136,200.2,133.12,200.8Z"/><path class="cls-19" d="M76.87,445.61A33.25,33.25,0,0,0,96,435.33c3.8,1.18,9.45,5.06,13.89,5.49v.07a2.49,2.49,0,0,1,2,1.13c1.14,2.3-1.35,2.3-2.91,2.7a69.58,69.58,0,0,1-12.71,2.13C90,447.69,82.87,448,76.87,445.61Z"/><path class="cls-40" d="M92.77,247q-.42,3-1,5.89c-.78.08-1.49.11-2.2.15.13-1.45.35-2.92.56-4.44A23.14,23.14,0,0,1,92.77,247Z"/><path class="cls-41" d="M51.23,145.51c8.38,2.63,17.94,5.79,22.3,13.92,4,7.82,5.75,17,8.38,25.15,2.88,8.69,5.79,18.81,6.35,27.79.29,5.51-1.13,11-2.59,16.2,2.59-2.59,6.64-3.48,8.67-6.35A146.69,146.69,0,0,1,92.77,247a23.14,23.14,0,0,0-2.59,1.6c-.21,1.52-.43,3-.56,4.44.71,0,1.42-.07,2.2-.15-.21,1.07-.43,2.14-.64,3.21-1.78,8.48-2.2,17.65-3.8,26.13A58.65,58.65,0,0,1,69.84,281c-2.38-.54-4.66-1.14-6.82-1.85-.64-.22-1.31-.42-1.92-.64l.18-.53c-2.59-9.23-1.74-21.55-3.73-31.64.21-6.78.61-13.7.32-20.67-.39-16.58-6.57-32.38-7.74-49.4-.22-5.64-1.24-19.48.43-30.92A5.86,5.86,0,0,1,51.23,145.51Z"/><path class="cls-7" d="M82.76,105.6c-.28-2.6-.85-6.07-.28-8.71a9.64,9.64,0,0,1,1.38-2.41c.68,2.14,2.53,4.31,2.88,6.5.5,3.84-.25,8-.81,11.47a17.78,17.78,0,0,0-.15,2.8C83.61,112.91,83.33,109,82.76,105.6Z"/><path class="cls-31" d="M76.09,115.54c2.87,1.2,7.35,3.27,8.87,5.47a4.31,4.31,0,0,1-1.59,1.35,62.84,62.84,0,0,1-7.25,1C76.09,120.61,76.05,117.78,76.09,115.54Z"/><path class="cls-32" d="M77.89,105.89a14.63,14.63,0,0,1,.58,3.37c.88-.54,2.31-1.56,3-1.61a69.32,69.32,0,0,1-1-12.38c.07-2.85,2.56-4.51,1-9.84a4.25,4.25,0,0,1,.39-.25c.7,2.1,1.66,4.09,2.13,6.08a3.69,3.69,0,0,0-.22,3.22,9.64,9.64,0,0,0-1.38,2.41c-.57,2.64,0,6.11.28,8.71.57,3.37.85,7.31,3,9.65.1,2.17.32,4.24-.82,5.76-1.52-2.2-6-4.27-8.87-5.47,0-.74,0-1.41,0-2-.64.17-1.24-.61-1.81-1.74a25.37,25.37,0,0,1-1.84-6,9.8,9.8,0,0,1-.14-1.84c.38-6.5,4.72-1.67,5.54,2Z"/><path class="cls-42" d="M96,435.33a33.25,33.25,0,0,1-19.1,10.28,15.27,15.27,0,0,1-7-.29C65.08,424,71.76,399.16,72.5,378c1.18-32.38-2.66-64.34-2.66-97.08a58.65,58.65,0,0,0,17.54,1.24,45,45,0,0,0,22.55-8.28C103.64,328.07,101.3,385,96,435.33Z"/><path class="cls-39" d="M81.91,184.58c-2.63-8.1-4.33-17.33-8.38-25.15-4.36-8.13-13.92-11.29-22.3-13.92a5.86,5.86,0,0,0-.67-.21c1.17-7.88,3.62-14.63,8.49-16.73a111.47,111.47,0,0,1,12.67,3.13c5.71,1.67,10.93,4.37,16.19,6.75,1.17.57,2.35,1.06,3.52,1.56,3.48,1.42,8.7,3.42,12,5.78-14.1-8-26.92,18.89-12.86,28.55,7.92,10.7,15.81,18.54,23.5,28-.24,14.29-.77,29.66-1.28,42.37l-3.5-.11a22,22,0,0,0-.4-4.12l-.92.22c-4.44,2.52-10.44,3.77-15.24,6.28a146.69,146.69,0,0,0,1.57-24.74c-2,2.87-6.08,3.76-8.67,6.35,1.46-5.22,2.88-10.69,2.59-16.2C87.7,203.39,84.79,193.27,81.91,184.58Z"/><path class="cls-17" d="M97.39,451.25c-2.52.25-23.29-.46-29.9-2.77h-.06c.28-1.53.6-3.06.81-4.26a3.7,3.7,0,0,0,1.63,1.1,15.27,15.27,0,0,0,7,.29c6,2.34,13.17,2.08,19.32,1.24a69.58,69.58,0,0,0,12.71-2.13c1.56-.4,4-.4,2.91-2.7a2.49,2.49,0,0,0-2-1.13v-.07l.64,0c1.63.05,5-.24,5-.24.53.24,4.4,3.59,4.65,4.68v.26C116.29,450.19,101.12,450.82,97.39,451.25Z"/><path class="cls-25" d="M67.49,448.48c6.61,2.31,27.38,3,29.9,2.77,3.73-.43,18.9-1.06,22.73-5.71,0,1.34-.21,2.62-.39,5.11A42.71,42.71,0,0,1,107,454.76c-3,.54-6.29.83-9.23,1.15-1.25,0-2.92.14-4,.1a19.16,19.16,0,0,1-3-.82c-1.81-.63-4.26-1.85-6.4-.92-.85.36-.7,1.71-1.8,2.28,0,0-3.52,0-4.55-.11-5.61-.53-6.39-.85-11.12-2.95a31.88,31.88,0,0,1,.51-5Z"/><path class="cls-22" d="M79.92,85.07c-3.8,3.31-10.4,4-15.09,3.17v0c.78,0,1.57,0,2.31,0-.57-.57-.86-1.18-1.42-1.46C70.05,85.71,78,77.12,74.81,72c4.4.36,9.41-2.38,12.36,2.48,2.06,3.52-1.29,8-5.22,10.66Z"/><path class="cls-32" d="M76.12,123.35c0,2.42.07,4.79,0,6.54a33.17,33.17,0,0,0-9.2-3.44c-1.52-.36-3.12-.75-4.72-1.07a15.36,15.36,0,0,0,2.81-4,12.74,12.74,0,0,0,4-.72c.86-2.12,3.81-6.44,5.33-8.86.57,1.13,1.17,1.91,1.81,1.74,0,.57,0,1.24,0,2C76.05,117.78,76.09,120.61,76.12,123.35Z"/><path class="cls-43" d="M65.22,336.87c-.67-20.13-2.2-47.65-2.2-57.77,2.16.71,4.44,1.31,6.82,1.85,0,32.74,3.84,64.7,2.66,97.08-.74,21.13-7.42,46-2.63,67.29a3.7,3.7,0,0,1-1.63-1.1,2.32,2.32,0,0,1-.35-2.09c-.33-1.64-1.35-11-2-24.33-.28-5.08-.46-10.8-.6-16.86-.18-9.81,3-32.54,3-32.54-.21-10.11-2.31-19.34-3-28.68C65.29,338.79,65.26,337.84,65.22,336.87Z"/><path class="cls-44" d="M61.28,277.93l-.18.53c-1.74-.6-3.41-1.24-5-1.92.5-8.6,1.17-17.4,1.35-26.24,0-.49,0-1,0-1.45,0-.85,0-1.71,0-2.56C59.54,256.38,58.69,268.7,61.28,277.93Z"/><path class="cls-22" d="M64.83,88.2a29.19,29.19,0,0,1-5.78-.53c-.29,2.88-2,6.07-4.94,6.92a16.59,16.59,0,0,0-1.43-4C47,92.25,41.89,93.38,36,91.26a42.73,42.73,0,0,1-.15-4.79h-.06c.46-1.75,2-3.91,2.69-5.23,1.21-2.3,3.84-4.18,5.76-5.83,4.93-4.19,11.25-6.1,17.53-6.49a33.08,33.08,0,0,1,5.9.53A22.42,22.42,0,0,1,74.56,72h.25c3.23,5.08-4.76,13.67-9.09,14.74.56.28.85.89,1.42,1.46C66.4,88.24,65.61,88.24,64.83,88.2Z"/><path class="cls-7" d="M65,121.4a15.36,15.36,0,0,1-2.81,4,33.21,33.21,0,0,0-9.05-.86,16.18,16.18,0,0,0,.57-4,19.31,19.31,0,0,0,6,.78c1.39,0,2.77.11,4.19.11A10.76,10.76,0,0,0,65,121.4Z"/><path class="cls-22" d="M78.47,109.26a14.63,14.63,0,0,0-.58-3.37h0c-.82-3.63-5.16-8.46-5.54-2a9.8,9.8,0,0,0,.14,1.84,11.33,11.33,0,0,1-6.47,5.9c0-.57-.6-1.74-.28-2.59-3.66,3.63-12.29,6-18.32,4.22-2.95-3.41-6.47-6.6-9-10.32l0,0a35.71,35.71,0,0,1-1.57-5.81A47.55,47.55,0,0,1,36,91.26c5.89,2.12,11,1,16.68-.71a16.59,16.59,0,0,1,1.43,4c2.91-.85,4.65-4,4.94-6.92a29.19,29.19,0,0,0,5.78.53v0c4.69.78,11.29.14,15.09-3.17l2,.11a4.25,4.25,0,0,0-.39.25c1.56,5.33-.93,7-1,9.84a69.32,69.32,0,0,0,1,12.38C80.78,107.7,79.35,108.72,78.47,109.26Z"/><path class="cls-22" d="M47.4,113.3c6,1.78,14.66-.59,18.32-4.22-.32.85.28,2,.28,2.59a11.33,11.33,0,0,0,6.47-5.9,25.37,25.37,0,0,0,1.84,6c-1.52,2.42-4.47,6.74-5.33,8.86a12.74,12.74,0,0,1-4,.72,10.76,10.76,0,0,1-1.14,0c-1.42,0-2.8-.07-4.19-.11a19.31,19.31,0,0,1-6-.78c-.54-.14-1.17-.33-1.89-.53,0-1.07-2-3.94-3.8-6Q47.72,113.63,47.4,113.3Z"/><path class="cls-45" d="M62.2,125.38c1.6.32,3.2.71,4.72,1.07a33.17,33.17,0,0,1,9.2,3.44,68.33,68.33,0,0,1,11.79,8.56c-5.26-2.38-10.48-5.08-16.19-6.75a111.47,111.47,0,0,0-12.67-3.13A113.58,113.58,0,0,0,47.43,127l.11-.93a1.45,1.45,0,0,0,.42-.32,17.55,17.55,0,0,1,5.19-1.18A33.21,33.21,0,0,1,62.2,125.38Z"/><path class="cls-46" d="M31.39,137c6,4.14,12,5.81,19.17,8.3-1.67,11.44-.65,25.28-.43,30.92,1.17,17,7.35,32.82,7.74,49.4.29,7-.11,13.89-.32,20.67a.56.56,0,0,0,0-.22v2.78c0,.49,0,1,0,1.45-.18,8.84-.85,17.64-1.35,26.24-1.92-.77-3.66-1.63-5.29-2.41-2-1-3.83-2.06-5.36-3a30.64,30.64,0,0,1-5-3.56c2.84-26,1.84-59.4.32-67.08l.18,0c-.93-4.64-1.95-8.94-3-13-.13-.49-.24-1-.38-1.48.07-.11.1-.22.17-.33-2-10.62-4.08-19.82-5.22-30.32A75.92,75.92,0,0,1,31.39,137Z"/><path class="cls-19" d="M41.61,419.05a68.16,68.16,0,0,1-10.9.7c6.32-1,13.67-4.43,17.32-9.9l.29-1.17c2.77,1,3.37,2.91,6.29,3.08C56.7,415.88,44.84,418.55,41.61,419.05Z"/><path class="cls-12" d="M29.71,135.75a60.39,60.39,0,0,1,2.88-5.86,32.76,32.76,0,0,0-1.2,7.11C30.85,136.6,30.28,136.2,29.71,135.75Z"/><path class="cls-12" d="M31.31,158.94c-1.53-6-3-15.51-1.81-22.7,0-.13.14-.31.21-.49.57.45,1.14.85,1.68,1.25a75.92,75.92,0,0,0,1.23,18.35c1.14,10.5,3.23,19.7,5.22,30.32-.07.11-.1.22-.17.33C35.33,176.62,32.94,168.38,31.31,158.94Z"/><path class="cls-44" d="M30.6,419.75a63.71,63.71,0,0,1-7.5-.56c-.31-19.25,4.94-38.82,11.23-56.61,2.7-6.91,5.79-15.84,6.92-23.54,1.18-7.32.39-15,1.56-22.37,1.18-8.09,3.48-15.81,4.23-23.9.75-5.51.78-14.16,3.8-18.64,1.63.78,3.37,1.64,5.29,2.41,1.56.68,3.23,1.32,5,1.92.61.22,1.28.42,1.92.64,0,10.12,1.53,37.64,2.2,57.77,0,1,.07,1.92.14,2.85l-17,69L48,409.85c-3.65,5.47-11,8.88-17.32,9.9Z"/><path class="cls-46" d="M32.59,129.89a60.39,60.39,0,0,0-2.88,5.86s-.07-.05-.1-.08a8.26,8.26,0,0,1,.17-.95v0c1.14-4.87,3.73-8.35,8.74-8.29,3,.08,6,.26,8.91.55a113.58,113.58,0,0,1,11.62,1.62c-4.87,2.1-7.32,8.85-8.49,16.73-7.21-2.49-13.14-4.16-19.17-8.3A32.76,32.76,0,0,1,32.59,129.89Z"/><path class="cls-46" d="M29.61,135.67s.07.08.1.08c-.07.18-.17.36-.21.49A3.38,3.38,0,0,1,29.61,135.67Z"/><path class="cls-44" d="M30.6,419.75a17,17,0,0,1-7.5-.13v-.43A63.71,63.71,0,0,0,30.6,419.75Z"/><path class="cls-43" d="M34.33,362.58C28,380.37,22.79,399.94,23.1,419.19L21.55,419a3.85,3.85,0,0,1-1.71-1.89,3.23,3.23,0,0,1-.18-1.06c.71-3.84,1.1-8.21,1.46-12.61,2.24-24.75,14.7-63.56,14.7-63.56,1-19.78,5.58-48.45,9.66-68.71,1.53.92,3.34,2,5.36,3-3,4.48-3.05,13.13-3.8,18.64-.75,8.09-3,15.81-4.23,23.9-1.17,7.35-.38,15.05-1.56,22.37C40.12,346.74,37,355.67,34.33,362.58Z"/><path class="cls-43" d="M23.1,419.19v.43a5.83,5.83,0,0,1-1.55-.64Z"/><path class="cls-25" d="M18.56,421.67c3,4.93,23.65,2.27,25.82,1.91,3.16-.64,15.48-2.72,19-7.55a14.86,14.86,0,0,1,.29,1.88c.07,1.28,0,2.73-.58,3.41a41.2,41.2,0,0,1-11.21,4.57c-2.52.68-5.4,1.14-7.92,1.64-1,0-2.49.28-3.38.28a11.67,11.67,0,0,1-2.56-.67c-1.52-.49-3.51-1.6-5.35-.57C32,427,32,428.31,31,428.91c0,0-3,.18-3.88.15-3.3-.15-4.61-.36-6.45-1.07-1.08-.67-2-1-2.24-2.24a9.59,9.59,0,0,1,0-3.66v0c0-.13,0-.24.06-.39Z"/><path class="cls-17" d="M23.1,419.62a17,17,0,0,0,7.5.13h.11a68.16,68.16,0,0,0,10.9-.7c3.23-.5,15.09-3.17,13-7.29a6.05,6.05,0,0,0,.88,0c1.39,0,4.23-.5,4.23-.5.49.25,4.22,4,3.76,4.66,0,0,0,.07-.07.07-3.55,4.83-15.87,6.91-19,7.55-2.17.36-22.87,3-25.82-1.91h0c0,.15,0,.26-.06.39a10.07,10.07,0,0,1,1.38-5A3.85,3.85,0,0,0,21.55,419,5.83,5.83,0,0,0,23.1,419.62Z"/></g><path class="cls-47" d="M722.32,449.05s-82-43-92-49,37.7-23,41.35-33a6.23,6.23,0,0,0,.39-3c-1.51-12.09-18.1-14.82-23.64-26.74-6.44-13.85,11.76-24,6.9-39.27-5.05-15.81-26.73-11.4-39-31-7.77-12.4-22-22-15-36,9.71-19.5,44.24-32,49-33,13.24-2.77,19.81,1,38,3,15.62,1.76,27.77.53,52-1.93,61.92-6.27,89-31.79,111-18.07,16,10,135,124,135,135-24,13-184,106-202,116S748.32,463.05,722.32,449.05Z"/><path class="cls-48" d="M689.06,236.1c-5.24,1.58-9.17-2.47-9.13-10l.06-8.9,20.5,12.87L691,235.26A11.39,11.39,0,0,1,689.06,236.1Z"/><path class="cls-48" d="M679.93,226.14c0,7.49,3.89,11.54,9.13,10a7.12,7.12,0,0,1-4.52.49l-13.83-8.68c-1.91-2.36-3.14-4.91-3.13-7.3l-.91-10.72,13.26,6.29.22,1.16Z"/><path class="cls-48" d="M727,107.83a7.22,7.22,0,0,0-9.91-2.11L679.05,126.9c-5.74,3.19-9.53,12.23-8.46,20.18l9.35,69.41-.56.36-12.71-7-9.17-68c-1.06-8,2.72-17,8.46-20.17L704,100.49C708.44,98,723.86,101.78,727,107.83Z"/><path class="cls-49" d="M680,216.47l63.54-40.73-.11,15.81c0,8.4-5.11,17.95-11.31,21.32l-31.63,17.24L680,217.24Z"/><path class="cls-49" d="M727,107.84a14,14,0,0,1,2.42,6.5l10,66.15-59.48,36-9.35-69.41c-1.07-8,2.72-17,8.46-20.18l38.07-21.18a7.22,7.22,0,0,1,9.91,2.11S727,107.83,727,107.84Z"/><g id="_Group_3" data-name="&lt;Group&gt;"><path class="cls-50" d="M845,326.47c-.21.16-.46.29-.67.45-1.77,1.1-3.53,2.27-5.34,3.24l5.34-3.28Z"/><polygon class="cls-51" points="812.86 306.41 810.67 307.67 796.5 315.78 788.47 320.45 788.47 308.8 989.32 193.26 989.02 205.03 986.75 206.38 914.02 248.22 842.16 289.59 837.58 292.2 819.33 302.71 815.72 304.77 815.72 304.81 812.86 306.41"/><path class="cls-52" d="M810.67,307.67l2.19-1.26c.59,3.61,1.3,7.28,1.89,10.93l-1.94,1.21c-.25-1-.5-2-.75-2.89C811.3,313.05,811.18,310.32,810.67,307.67Z"/><path class="cls-52" d="M814.79,317.34c.08.38.12.8.17,1.18-.09-.38-.13-.76-.21-1.18Z"/><path class="cls-52" d="M817.86,343.87l-5.22-25.23.17-.09,1.94-1.21c.08.42.12.8.21,1.18,1.81,11,3.07,19.84,3.62,24.93Z"/><path class="cls-50" d="M820,321.92a23.76,23.76,0,0,1-1.14-4C819.25,319.4,819.63,320.74,820,321.92Z"/><path class="cls-50" d="M818.78,317.8c-.2-.88-.37-1.72-.54-2.57l11.14-6.76L842,315.7l2.36,11.18L839,330.16c-5,2.65-10.34,3.7-16.57-2.1a5.3,5.3,0,0,1-.67-.67c-.55-1.56-1.09-3.32-1.76-5.47-.34-1.18-.72-2.52-1.14-4A.15.15,0,0,0,818.78,317.8Z"/><path class="cls-50" d="M819.33,302.71l10,5.76-11.14,6.76c-.17-.58-.29-1.13-.42-1.67-.51-1.85-.64-4-1.18-5.81-.29-1-.67-2-.92-2.94v0Z"/><path class="cls-50" d="M818.78,317.8c-.2-.8-.41-1.6-.66-2.48l.12-.09C818.41,316.08,818.58,316.92,818.78,317.8Z"/><path class="cls-50" d="M796.5,315.78l14.17-8.11c.51,2.65.63,5.38,1.39,8,.25.92.5,1.93.75,2.89l-.17.09-16.22,9.88Z"/><path d="M801.17,354.21l-2.78,1.64c-.71-.5-1.47-1-2.14-1.51v-3.62C797.13,351.47,798.94,352.74,801.17,354.21Z"/><polygon class="cls-53" points="989.32 193.26 788.47 308.8 788.43 308.8 669.19 239.85 869.03 124.43 989.32 193.26"/><polygon class="cls-53" points="986.75 275.76 986.75 315.78 914.02 356.99 914.02 319.19 986.75 275.76"/><polygon class="cls-53" points="986.75 233.71 986.75 275.76 914.02 319.19 914.02 277.15 986.75 233.71"/><polygon class="cls-53" points="986.75 206.38 986.75 233.71 914.02 277.15 914.02 248.22 986.75 206.38"/><path class="cls-54" d="M914,319.19V357L843.8,316.75c-.29-3.7-.33-7.44-.59-11.1-.46-5.34-.71-10.8-1.05-16.06L914,248.22v71Z"/><path class="cls-52" d="M844.06,319.15c.12.88.25,1.72.33,2.52C844.27,320.83,844.14,320,844.06,319.15Z"/><path class="cls-52" d="M844.31,326.88,842,315.7l.21.08,1.56.89c.12.71.21,1.38.29,2.05a.72.72,0,0,0,0,.43c.08.84.21,1.68.33,2.52.26,1.85.46,3.45.59,4.8Z"/><path class="cls-52" d="M841.36,301.23c.93,5.81,1.73,11.07,2.36,15.44l-1.56-.89c-.63-3.32-1.09-6.76-2-10-.3-1.13-.55-2.27-.8-3.4Z"/><polygon class="cls-50" points="841.95 315.7 829.38 308.47 839.22 302.5 841.95 315.7"/><path class="cls-52" d="M843.72,316.67c-.63-4.37-1.43-9.63-2.36-15.44l-2,1.14c-.67-3.45-1.13-6.81-1.81-10.17l4.58-2.61c.34,5.26.59,10.72,1.05,16.06.26,3.66.3,7.4.59,11.1Z"/><path class="cls-52" d="M840.19,305.77c.88,3.25,1.34,6.69,2,10l-.21-.08-2.73-13.2.17-.13C839.64,303.5,839.89,304.64,840.19,305.77Z"/><path class="cls-50" d="M819.33,302.71l18.25-10.51c.68,3.36,1.14,6.72,1.81,10.17l-.17.13-9.84,6Z"/><path class="cls-55" d="M822.4,328.06c6.23,5.8,11.56,4.75,16.57,2.1,1.81-1,3.57-2.14,5.34-3.24.21-.16.46-.29.67-.45.5,1.8,3.4,5,5,7h0a5.79,5.79,0,0,0,.42.59l0,.05c3.25,3.87,8.08,3.57,8.46,7.73a1.61,1.61,0,0,1,.12,1.27c-.63,2.35-5.42,5.63-9.62,6v.05c-4.25-1-15.14-7.49-21.86-11.94-2.41-1.56-4.25-2.91-5.14-3.62C822.53,332.22,822.44,330.16,822.4,328.06Z"/><path d="M827.58,337.19c6.72,4.45,17.61,10.93,21.86,11.94v-.05c4.2-.33,9-3.61,9.62-6a20.21,20.21,0,0,1,.09,3.23,5.21,5.21,0,0,1-2,3l-3.78,2.31a12.18,12.18,0,0,1-3.91,1.05v.05c-3.37-.81-10.81-5-17.12-8.88a5,5,0,0,0-2-3.15c-.85-.46-2.19-.68-2.65.17-1.09-.76-2.1-1.43-2.95-2-1-.76-1.81-1.34-2.31-1.76a36.32,36.32,0,0,1,0-3.66s0,0,.08,0C823.33,334.28,825.17,335.63,827.58,337.19Z"/><path class="cls-50" d="M812.56,347.19c-4.92,2.56-10.17,3.61-16.27-1.89l.13-16.78,16.22-9.88,5.22,25.23Z"/><path class="cls-55" d="M832.53,358.83a1.68,1.68,0,0,1,.13,1.27c-.63,2.35-5.42,5.63-9.67,6v0c-4.21-1-15.09-7.48-21.82-11.9-2.23-1.47-4-2.74-4.92-3.49l0-5.42c6.1,5.5,11.35,4.45,16.27,1.89,1.81-1,3.58-2.14,5.34-3.28.22-.12.47-.3.68-.42.5,1.81,3.4,5,5,7,.17.21.29.42.46.59,0,0,0,0,0,.08C827.32,355,832.12,354.67,832.53,358.83Z"/><path d="M826.9,368.72a13.13,13.13,0,0,1-3.91,1c-3.32-.75-10.77-5-17.07-8.87a5,5,0,0,0-2.06-3.15c-.8-.42-2.15-.68-2.61.16-1.13-.71-2.1-1.38-2.94-2l.08-.09,2.78-1.64c6.73,4.42,17.61,10.89,21.82,11.9v0c4.25-.35,9-3.63,9.67-6a20.48,20.48,0,0,1,.08,3.24,5,5,0,0,1-2,3Z"/><path class="cls-51" d="M795.28,344.42c-1-3-2.1-6.78-3.66-12.54v-.45l4.8-2.91-.13,16.78c-.08-.08-.21-.17-.29-.25C795.75,344.84,795.53,344.62,795.28,344.42Z"/><path class="cls-51" d="M796.29,345.3l0,5.42a1,1,0,0,1-.21-.16c0-1.36,0-3.41,0-5.51C796.08,345.13,796.21,345.22,796.29,345.3Z"/><path class="cls-51" d="M791.62,331.88c1.56,5.76,2.65,9.55,3.66,12.54.25.2.47.42.72.63,0,2.1.08,4.15,0,5.51a1,1,0,0,0,.21.16v3.62l-.5,70.84L784,431.91l.8-113.19,3.32,1.9.34-.17,8-4.67-.08,12.74-4.8,2.91Z"/><polygon class="cls-53" points="784.81 318.72 784.01 431.91 671.67 367.03 671.67 253.26 784.81 318.72"/><polygon class="cls-54" points="784.81 318.72 671.67 253.26 668.94 251.67 668.94 251.62 669.19 239.85 788.43 308.8 788.47 308.8 788.47 320.45 788.13 320.62 784.81 318.72"/></g><g id="_Group_4" data-name="&lt;Group&gt;"><path class="cls-56" d="M744.39,417.44c.48,3-.53,6.47-2.25,7.84s-3.49.07-4-2.89.52-6.49,2.25-7.85S743.91,414.48,744.39,417.44Z"/><path class="cls-57" d="M742.14,425.28c1.72-1.37,2.73-4.88,2.25-7.84s-2.25-4.27-4-2.9-2.73,4.89-2.25,7.85S740.43,426.65,742.14,425.28Zm9.18.66L729,438.57V397l22.28-12.18Z"/><polygon class="cls-56" points="751.32 365.91 751.32 371.41 727.11 384.79 727.11 378.99 751.32 365.91"/><path class="cls-58" d="M674.34,365.23c3.68,2.32,6.21,12,5.66,21.53s-4,15.44-7.63,13.12-6.19-12-5.65-21.53S670.67,362.9,674.34,365.23Z"/><path class="cls-58" d="M699.83,383.06c3.65,2.34,6.18,12,5.65,21.54s-4,15.44-7.64,13.12-6.2-12-5.65-21.54S696.15,380.74,699.83,383.06Z"/><path class="cls-58" d="M751.32,371.41v-5.5L727.11,379v5.79Zm0,54.53V384.78L729,397v41.61Zm2.7-70.86s.59,59.67.71,74.82L722,449.27l-.61-75-.27-.16Z"/><path class="cls-59" d="M721.15,374.06l.27.16.61,75-65.3-37.33-.41-75.62ZM705.48,404.6c.53-9.58-2-19.2-5.65-21.54s-7.1,3.55-7.64,13.12,2,19.2,5.65,21.54S704.93,414.17,705.48,404.6ZM680,386.76c.55-9.57-2-19.21-5.66-21.53s-7.07,3.54-7.62,13.12,2,19.2,5.65,21.53S679.45,396.34,680,386.76Z"/><polygon class="cls-60" points="688.96 317.58 754.02 355.08 721.15 374.06 656.32 336.32 688.96 317.58"/></g><polygon class="cls-61" points="960.48 146.19 961.94 145.35 934.45 130.04 932.48 131.09 932.49 131.1 960.48 146.19"/><polygon class="cls-62" points="963.47 144.47 936.38 129.01 934.45 130.04 961.94 145.35 963.47 144.47"/><polygon class="cls-63" points="965.09 143.52 938.18 128.05 936.38 129.01 963.47 144.47 965.09 143.52"/><polygon class="cls-64" points="966.99 142.43 966.98 142.41 940.07 127.04 938.18 128.05 965.09 143.52 966.99 142.43"/><polygon class="cls-62" points="966.99 142.43 968.63 141.49 941.76 126.14 940.07 127.04 966.98 142.41 966.99 142.43"/><polygon class="cls-61" points="970.55 140.38 944.18 124.85 941.76 126.14 968.63 141.49 970.55 140.38"/><path class="cls-65" d="M965.44,159.61a1.29,1.29,0,0,0,.5-.11c1.68-.65,3-3.76,3-6.92a6.6,6.6,0,0,0-1-3.83,1.54,1.54,0,0,0-.51.1c-1.68.67-3,3.77-3,6.94A6.62,6.62,0,0,0,965.44,159.61Z"/><path class="cls-66" d="M965.94,159.5a1.29,1.29,0,0,1-.5.11,1.68,1.68,0,0,0,2.06.72c1.69-.65,3-3.76,3-6.93,0-2.84-1.1-4.76-2.54-4.65a6.6,6.6,0,0,1,1,3.83C969,155.74,967.62,158.85,965.94,159.5Z"/><path class="cls-67" d="M967.5,162c2.21-.86,4-5,4-9.12s-1.79-6.84-4-6-4,4.95-4,9.12S965.29,162.82,967.5,162Zm0-13.11a1.54,1.54,0,0,1,.51-.1c1.44-.11,2.54,1.81,2.54,4.65,0,3.17-1.36,6.28-3,6.93a1.68,1.68,0,0,1-2.06-.72,6.62,6.62,0,0,1-1-3.82C964.47,152.62,965.82,149.52,967.5,148.85Z"/><polygon class="cls-68" points="966.2 144.84 974.2 140.22 974.2 140.03 945.68 124.04 944.18 124.85 970.55 140.38 968.63 141.49 966.99 142.43 965.09 143.52 963.47 144.47 961.94 145.35 960.48 146.19 932.49 131.1 932.48 131.09 930.67 132.06 960.14 148.34 966.2 144.84"/><path class="cls-69" d="M960.14,148.34h0l.06,25,13.93-7.79.06,0V140.22l-8,4.62Zm7.36-1.47c2.21-.87,4,1.8,4,6s-1.79,8.26-4,9.12-4-1.81-4-6S965.29,147.75,967.5,146.87Z"/><path class="cls-66" d="M929.65,136.23c2.45,1.41,7.73,4.66,9.85,7.83,3.93,5.85,2.72,11.08,7.3,18.25,3.63,5.71,10.22,9.44,13.41,11l-.06-25h0l-29.47-16.28.12,2.12.08,1.39Z"/><path class="cls-70" d="M938.24,145.09c3.92,5.86,2.72,11.09,7.29,18.26,4.93,7.73,15.24,11.84,15.24,11.84l16.41-9.84.11-.1-3.09-1.76v2l-.06,0,.06,0-14,7.74c-3.19-1.56-9.78-5.29-13.41-11-4.58-7.17-3.37-12.4-7.3-18.25-2.12-3.17-7.4-6.42-9.85-7.83l1.22-.66-.08-1.39-2.94,1.44h0l-.35.17h0a.87.87,0,0,0-.4.76S935.42,140.9,938.24,145.09Z"/><polygon class="cls-71" points="977.18 165.35 960.77 175.19 960.48 204.19 977.4 194.49 977.18 165.35"/><path class="cls-72" d="M945.53,163.35c-4.57-7.17-3.37-12.4-7.29-18.26-2.82-4.19-11.15-8.53-11.15-8.53l.45,46.73,32.94,20.9.29-29S950.46,171.08,945.53,163.35Z"/><polygon class="cls-61" points="937.56 158.27 939.03 157.42 911.53 142.12 909.57 143.17 909.57 143.17 937.56 158.27"/><polygon class="cls-62" points="940.55 156.54 913.47 141.09 911.53 142.12 939.03 157.42 940.55 156.54"/><polygon class="cls-63" points="942.18 155.6 915.26 140.13 913.47 141.09 940.55 156.54 942.18 155.6"/><polygon class="cls-64" points="944.08 154.51 944.06 154.5 917.16 139.12 915.26 140.13 942.18 155.6 944.08 154.51"/><polygon class="cls-62" points="944.08 154.51 945.72 153.56 918.83 138.22 917.16 139.12 944.06 154.5 944.08 154.51"/><polygon class="cls-61" points="947.63 152.45 921.27 136.92 918.83 138.22 945.72 153.56 947.63 152.45"/><path class="cls-65" d="M942.53,171.7a1.91,1.91,0,0,0,.5-.12c1.68-.65,3-3.76,3-6.93a6.62,6.62,0,0,0-1-3.83,1.91,1.91,0,0,0-.5.12c-1.68.66-3,3.76-3,6.92A6.66,6.66,0,0,0,942.53,171.7Z"/><path class="cls-66" d="M943,171.58a1.91,1.91,0,0,1-.5.12,1.67,1.67,0,0,0,2.06.71c1.68-.66,3-3.76,3-6.93,0-2.84-1.09-4.77-2.54-4.66a6.62,6.62,0,0,1,1,3.83C946.07,167.82,944.71,170.93,943,171.58Z"/><path class="cls-67" d="M944.59,174c2.21-.87,4-5,4-9.12s-1.79-6.83-4-6-4,5-4,9.11S942.38,174.9,944.59,174Zm0-13.1a1.91,1.91,0,0,1,.5-.12c1.45-.11,2.54,1.82,2.54,4.66,0,3.17-1.36,6.27-3,6.93a1.67,1.67,0,0,1-2.06-.71,6.66,6.66,0,0,1-1-3.84C941.55,164.7,942.91,161.6,944.59,160.94Z"/><polygon class="cls-68" points="943.28 156.93 951.28 152.3 951.28 152.11 922.76 136.12 921.27 136.92 947.63 152.45 945.72 153.56 944.08 154.51 942.18 155.6 940.55 156.54 939.03 157.42 937.56 158.27 909.57 143.17 909.57 143.17 907.75 144.14 937.23 160.42 943.28 156.93"/><path class="cls-69" d="M937.23,160.42h0l.06,25,13.94-7.79,0,0V152.3l-8,4.62Zm7.36-1.47c2.21-.86,4,1.81,4,6s-1.79,8.25-4,9.12-4-1.81-4-6S942.38,159.82,944.59,159Z"/><path class="cls-66" d="M906.74,148.31c2.45,1.41,7.72,4.66,9.84,7.82,3.93,5.85,2.72,11.09,7.31,18.26,3.64,5.71,10.21,9.43,13.4,11l-.06-25h0l-29.48-16.28.12,2.12.08,1.38Z"/><path class="cls-73" d="M915.32,157.17c3.93,5.85,2.72,11.09,7.29,18.26,4.93,7.73,15.25,11.83,15.25,11.83l16.4-9.84.13-.1c-.35-.18-1.6-.89-3.11-1.75v2l0,0,0,.05-14,7.74c-3.19-1.57-9.76-5.29-13.4-11-4.59-7.17-3.38-12.41-7.31-18.26-2.12-3.16-7.39-6.41-9.84-7.82l1.21-.67-.08-1.38-2.94,1.44h0l-.34.17h0a.85.85,0,0,0-.39.76S912.5,153,915.32,157.17Z"/><polygon class="cls-74" points="954.26 177.42 937.86 187.26 937.56 216.28 954.48 206.57 954.26 177.42"/><path class="cls-75" d="M922.61,175.43c-4.57-7.17-3.36-12.41-7.29-18.26-2.82-4.18-11.14-8.53-11.14-8.53l.44,46.73,32.94,20.91.3-29S927.54,183.16,922.61,175.43Z"/><path class="cls-76" d="M895,217.94l-49.9,28.78-14.39-6.29c-.46-2.61-.92-5.22-1.38-7.81l16,6.7L890,214.67l-.17-.08A14,14,0,0,1,895,217.94Z"/><path class="cls-77" d="M890,214.67l-44.59,24.65-16-6.7c-.52-3-1.05-6-1.56-8.94,3.7-2.09,8.23-4.68,12.85-7.31-.45,3.88-.71,6.42-.64,6.63,0,0,2.35,4.85,5.92,3.22v0l.48-.28,20.12-12.19.44-10.27,22.84,11.08Z"/><path class="cls-78" d="M889.36,98.93l-1.24,70.75L868.83,160l.15-3.69a15,15,0,0,0-6.63-.31l26.8-56.65Z"/><path class="cls-77" d="M889.15,99.39,862.35,156c-.36.07-.72.13-1.08.22L836.52,143.9l-13.71,7.88-18.25-7.15h-.1a.36.36,0,0,0,0-.09c0-.53,0-.82,0-.82L889,99.11A1.69,1.69,0,0,1,889.15,99.39Z"/><path class="cls-76" d="M889,99.11l-84.59,44.61s0,.29,0,.82q-.95-2.19-2-4.46L884.1,96.26S887.94,96.72,889,99.11Z"/><polygon class="cls-78" points="888.12 169.68 888 176.81 868.47 168.18 868.83 160.04 888.12 169.68"/><path class="cls-79" d="M872.39,185.15l-4.72,2.52,0,0,.85-19.47L888,176.81Z"/><path class="cls-80" d="M877.81,192.37v.26l-.23-.13A1,1,0,0,0,877.81,192.37Z"/><path class="cls-77" d="M877.81,186.17v6.2a1,1,0,0,1-.23.13c-1.59-.76-3.82-1.86-6.23-3l6.26-3.35Z"/><path class="cls-80" d="M877.81,186v.16l-.2,0Z"/><path class="cls-81" d="M872.39,185.15l5.22,1-6.26,3.35-3.68-1.8Z"/><path class="cls-77" d="M877.58,192.5l-10.41,5.81.29-6.77,3.89-2.07C873.76,190.64,876,191.74,877.58,192.5Z"/><path class="cls-81" d="M869,156.35l-.15,3.69-7.56-3.78c.36-.09.72-.15,1.08-.22A15,15,0,0,1,869,156.35Z"/><path class="cls-81" d="M867.62,187.65v0l-21.51,11.49c.22-14.93.48-30.47.48-30.47a47.06,47.06,0,0,1,4.62-5.81,27,27,0,0,1,6.3-5.18,15.39,15.39,0,0,1,3.76-1.46l7.56,3.78-.36,8.14Z"/><path class="cls-81" d="M867.67,187.67l3.68,1.8-3.89,2.07.16-3.85Z"/><path class="cls-79" d="M867.67,187.67l0,0v0Z"/><path class="cls-81" d="M867.46,191.54l-.29,6.77-.23,5.2-2.09-1s-8.94,5.14-18.93,10.84c.05-4.24.11-9.16.19-14.15l21.51-11.49Z"/><path class="cls-81" d="M866.94,203.51l-.44,10.27L846.38,226l-.48.25c-.09-.55-.06-5.77,0-12.89,10-5.7,18.93-10.84,18.93-10.84Z"/><path class="cls-77" d="M836.52,143.9l24.75,12.36a15.39,15.39,0,0,0-3.76,1.46,27,27,0,0,0-6.3,5.18l-28.4-11.12Z"/><path class="cls-82" d="M810.65,158.77l12.16-7,28.4,11.12a47.06,47.06,0,0,0-4.62,5.81s-.51,3.88-1.23,9.59l-21.63,22.5c-.44-2.46-.86-4.86-1.27-7.16-1.66,1.36-3.35,2.77-5.07,4.2-3.09,2.57-6.26,5.2-9.52,7.69-1.5,1.17-3,2.3-4.55,3.38.16-9,.38-21.27.57-32.76.08-4.78.16-9.43.24-13.63Z"/><path class="cls-83" d="M846.59,168.71s-.26,15.54-.48,30.47l-3.65,1.94c1-7.94,2.08-16.49,2.9-22.82C846.08,172.59,846.59,168.71,846.59,168.71Z"/><path class="cls-80" d="M846.38,226l-.48.28v0Z"/><path class="cls-83" d="M842,205.14c.16-1.31.32-2.65.49-4l3.65-1.94c-.08,5-.14,9.91-.19,14.15l-5.3,3c.12-1.07.26-2.23.41-3.48C841.3,210.55,841.62,207.92,842,205.14Z"/><path class="cls-83" d="M845.92,213.33c-.08,7.12-.11,12.34,0,12.89C842.33,227.85,840,223,840,223c-.07-.21.19-2.75.64-6.63Z"/><path class="cls-79" d="M823.73,200.8l21.63-22.5c-.82,6.33-1.9,14.88-2.9,22.82l-17.07,9.12C824.83,207,824.27,203.85,823.73,200.8Z"/><path class="cls-81" d="M825.39,210.24l17.07-9.12c-.17,1.37-.33,2.71-.49,4l-16,8.53C825.79,212.51,825.6,211.37,825.39,210.24Z"/><path class="cls-77" d="M842,205.14c-.35,2.78-.67,5.41-.94,7.75l-13.81,7.69c-.41-2.32-.83-4.64-1.23-6.91Z"/><path class="cls-76" d="M830.71,240.43l-4.89-2.14-1.63-7.83,5.14,2.16C829.79,235.21,830.25,237.82,830.71,240.43Z"/><path class="cls-77" d="M829.33,232.62l-5.14-2.16-.89-4.25,4.47-2.53C828.28,226.64,828.81,229.62,829.33,232.62Z"/><path class="cls-77" d="M826,213.67c.4,2.27.82,4.59,1.23,6.91-1.53.87-3.05,1.71-4.56,2.56l-1.44-6.93Z"/><path class="cls-76" d="M824.19,230.46l1.63,7.83-10-4.37c.35-.14.47-3.17,3.62-5.44Z"/><path class="cls-81" d="M825.39,210.24c.21,1.13.4,2.27.6,3.43l-4.77,2.54-.7-3.37Z"/><path class="cls-79" d="M825.39,210.24l-4.87,2.6L819,205.69l4.7-4.89C824.27,203.85,824.83,207,825.39,210.24Z"/><path class="cls-77" d="M823.3,226.21l.89,4.25-4.74-2-.17-.07C819.53,228.32,821,227.5,823.3,226.21Z"/><path class="cls-82" d="M823.73,200.8l-4.7,4.89-1.64-7.85c1.72-1.43,3.41-2.84,5.07-4.2C822.87,195.94,823.29,198.34,823.73,200.8Z"/><path class="cls-82" d="M822.81,151.78l-12.16,7c-2.09-4.5-4-9.18-6.19-14.14h.1Z"/><path class="cls-77" d="M821.22,216.21l1.44,6.93c-9,5-17.23,9.6-23.22,12.94-.45-2.54-.9-5.06-1.33-7.53C804,225.4,812.25,221,821.22,216.21Z"/><path class="cls-81" d="M820.52,212.84l.7,3.37c-9,4.8-17.2,9.19-23.11,12.34-.06-.32-.11-.64-.17-1,.44-2.46.84-4.73,1.2-6.78a5.62,5.62,0,0,0,3.94,1c0,.21,0,.34,0,.39l.29-.15Z"/><polygon class="cls-79" points="819.03 205.69 820.52 212.84 803.35 222.01 819.03 205.69"/><path class="cls-82" d="M803.48,210.65l-.18-.17c0-.51,0-1,0-1.57,1.54-1.08,3-2.21,4.55-3.38,3.26-2.49,6.43-5.12,9.52-7.69l1.64,7.85L803.35,222l-.29.15s0-.18,0-.39c0-1.28.11-5.46.21-11.26Z"/><path class="cls-82" d="M810.65,158.77l-6.52,3.75c.14-8.68.25-15.5.29-17.89h0C806.63,149.59,808.56,154.27,810.65,158.77Z"/><path class="cls-77" d="M804.42,144.54a.36.36,0,0,1,0,.09h0Z"/><path class="cls-76" d="M804.42,144.54v.09c0,2.39-.15,9.21-.29,17.89l-5.54,3.17c.17-13.24.3-23.71.3-23.71l3.54-1.9Q803.48,142.35,804.42,144.54Z"/><path class="cls-76" d="M798.59,165.69l5.54-3.17c-.08,4.2-.16,8.85-.24,13.63-1.1-.56-2.2-1.13-3.32-1.68-.69-.34-1.39-.66-2.09-1C798.52,170.84,798.55,168.21,798.59,165.69Z"/><path class="cls-76" d="M803.89,176.15c-.19,11.49-.41,23.77-.57,32.76-.31.23-.64.46-1,.68-1.5-1.48-2.89-3.05-4.3-4.62.12-8.86.28-20.55.42-31.46.7.3,1.4.62,2.09,1C801.69,175,802.79,175.59,803.89,176.15Z"/><path class="cls-82" d="M803.3,210.48l.18.17-.19-.14A0,0,0,0,0,803.3,210.48Z"/><path class="cls-76" d="M803.32,208.91c0,.53,0,1.06,0,1.57-.32-.28-.63-.58-.94-.89C802.68,209.37,803,209.14,803.32,208.91Z"/><path class="cls-76" d="M803.3,210.48a0,0,0,0,1,0,0l-1.13-.78.2-.14C802.67,209.9,803,210.2,803.3,210.48Z"/><path class="cls-76" d="M800.45,213c.15-.92.27-1.71.37-2.36l1.34-.92,1.13.78c-.1,5.8-.18,10-.21,11.26a5.62,5.62,0,0,1-3.94-1C799.69,217.67,800.14,215,800.45,213Z"/><path class="cls-84" d="M802.43,140.08l-3.54,1.9s-.13,10.47-.3,23.71l-6.42,3.68c-5.29-8.08-9-18.05-13.75-27,0-.18.05-.36.07-.54,4.67-12.53,3.79-28.74-.37-41.33,3.87,4.13,15.73,22.82,18.67,28.21C798.94,132.7,800.78,136.47,802.43,140.08Z"/><path class="cls-76" d="M802.36,209.59l-.2.14c-1.2-.83-2.67-1.83-4.13-2.7,0-.67,0-1.36,0-2.06C799.47,206.54,800.86,208.11,802.36,209.59Z"/><path class="cls-76" d="M802.16,209.73l-1.34.92c-.1.65-.22,1.44-.37,2.36a19.27,19.27,0,0,1-2.48-1.75c0-1.29,0-2.71.06-4.23C799.49,207.9,801,208.9,802.16,209.73Z"/><path class="cls-76" d="M797.84,219c0-.57,0-1.71.07-3.28,0-1.22,0-2.71.06-4.41a19.27,19.27,0,0,0,2.48,1.75c-.31,2-.76,4.66-1.31,7.8a5.66,5.66,0,0,1-.89-.83,3.35,3.35,0,0,1-.41-.62Z"/><path class="cls-80" d="M792.17,169.37l6.42-3.68c0,2.52-.07,5.15-.11,7.82a22.78,22.78,0,0,0-4.4-1.41C793.42,171.22,792.78,170.31,792.17,169.37Z"/><path class="cls-81" d="M798.25,220a5.66,5.66,0,0,0,.89.83c-.36,2.05-.76,4.32-1.2,6.78l-1.23-6.94A9,9,0,0,0,798.25,220Z"/><path class="cls-77" d="M798.11,228.55c.43,2.47.88,5,1.33,7.53l-2.33,1.3-.62-1.75c.44-2.42.86-4.71,1.24-6.88Z"/><path class="cls-81" d="M797.94,227.59c.06.32.11.64.17,1l-.38.2c.06-.36.13-.71.19-1.06C797.93,227.66,797.93,227.62,797.94,227.59Z"/><path class="cls-85" d="M792.66,204.91c-1.54-.67-2.86-1.47-4.68-1.45v0a9.79,9.79,0,0,1-1.13,2.7l.06.2C788.67,205.86,790.77,204.91,792.66,204.91Zm-13.61-2.68c4.14-1.5,7.78-3.3,12.55-3.49a49.57,49.57,0,0,1,6.46,6.23c0,.7,0,1.39,0,2.06,0,1.52,0,2.94-.06,4.23,0,1.7,0,3.19-.06,4.41-.67-.29-1.44-.57-2.23-.83-.2-1.21-.41-2.39-.62-3.56-1,.81-2,1.62-3,2.45L790,215.48l-1.72,1.44c-.83-.42-1.66-.8-2.44-1.19-2.94.27-5.88,1.33-8.82,1.86a12.77,12.77,0,0,1-6.29-.17,12.52,12.52,0,0,1,.27-5.11q2-1.65,3.9-3.23,1.7-1.41,3.36-2.73c-.4-1-.85-2.18-1.31-3.4C777.67,202.73,778.37,202.49,779.05,202.23Z"/><path class="cls-81" d="M793.28,220.24a4.46,4.46,0,0,0,3.43.41l1.23,6.94s0,.07,0,.1c-.06.35-.13.7-.19,1.06l-4.48,2.39-2.71-13A12.86,12.86,0,0,1,793.28,220.24Z"/><path class="cls-81" d="M797.91,215.67c0,1.57,0,2.71-.07,3.28-.57-.45-1.13-1-1.7-1.49-.15-.88-.3-1.77-.46-2.62C796.47,215.1,797.24,215.38,797.91,215.67Z"/><path class="cls-85" d="M797.84,219v.41a3.35,3.35,0,0,0,.41.62,9,9,0,0,1-1.54.67c-.19-1.07-.37-2.14-.57-3.19C796.71,218,797.27,218.5,797.84,219Z"/><path class="cls-77" d="M796.49,235.63l.62,1.75-2.3,1.28-1.56-7.52,4.48-2.39C797.35,230.92,796.93,233.21,796.49,235.63Z"/><path class="cls-85" d="M792.41,214c1.31,1.06,2.52,2.32,3.73,3.48.2,1,.38,2.12.57,3.19a4.46,4.46,0,0,1-3.43-.41,12.86,12.86,0,0,0-2.74-2.1l-.55-2.66,2.11-1.75Z"/><path class="cls-81" d="M795.68,214.84c.16.85.31,1.74.46,2.62-1.21-1.16-2.42-2.42-3.73-3.48A18.62,18.62,0,0,1,795.68,214.84Z"/><path class="cls-85" d="M795.68,214.84a18.62,18.62,0,0,0-3.27-.86l-.31-.25c1-.83,2-1.64,3-2.45C795.27,212.45,795.48,213.63,795.68,214.84Z"/><path class="cls-77" d="M793.25,231.14l1.56,7.52c-1,.59-1.95,1.09-2.69,1.5l-.2-.09-.34-7.53-.61-.18Z"/><path class="cls-81" d="M790.54,218.14l2.71,13L791,232.36l-16.35-4.89c2-1.37,3.92-2.81,5.85-4.29,2.65-2.05,5.26-4.16,7.8-6.26C789,217.29,789.8,217.69,790.54,218.14Z"/><path class="cls-80" d="M791.92,240.07l.2.09-.19.11Z"/><path class="cls-78" d="M791,232.36l.61.18.34,7.53L772.84,232c.24-1.5.44-2.73.57-3.69l1.21-.82Z"/><path class="cls-85" d="M790.54,218.14c-.74-.45-1.51-.85-2.27-1.22l1.72-1.44Z"/><path class="cls-80" d="M788,203.46c1.82,0,3.14.78,4.68,1.45-1.89,0-4,1-5.75,1.48l-.06-.2a9.79,9.79,0,0,0,1.13-2.7Z"/><path class="cls-81" d="M770.91,221.25c2.66.05,4.48-1.17,6.1-3.66,2.94-.53,5.88-1.59,8.82-1.86.78.39,1.61.77,2.44,1.19-2.54,2.1-5.15,4.21-7.8,6.26-1.93,1.48-3.88,2.92-5.85,4.29l-16.4-4.91L760.3,221c1-.74,1.92-1.49,2.87-2.25l.1,0c1.91.69,3.64,1.3,5.12,1.79,1,.31,1.8.58,2.51.78Z"/><path class="cls-84" d="M779,202.05s0,.12,0,.18c-.68.26-1.38.5-2.11.72-.07-.21-.15-.41-.23-.63a2.93,2.93,0,0,1,1.92-.43h0Z"/><path class="cls-86" d="M778.12,100.54c4.16,12.59,5,28.8.37,41.33l-.15.39a37.4,37.4,0,0,1-3,6.06c-3.14,2.34-6.63,4.76-10.3,7.19a102.1,102.1,0,0,0,3.66-13.33c1.24-6.65,1.71-10.72,2.84-19.18.43-3.25-.44-8-.83-8-.66,0-5.8-1.92-6-2.6-.34-.9.22-1.69.45-2.37.34-1.13.91-.65,0-1.78a15.06,15.06,0,0,0-1.88-1.33c1.05-.78,2.11-1.55,3.22-2.33,3-2.17,7.91-5.06,10.07-8.14C777.15,97.75,777.65,99.12,778.12,100.54Z"/><path class="cls-84" d="M778.64,201.89h0a19,19,0,0,0-2.33-.7c-.23-.63-.45-1.26-.66-1.9l1.05.44h0a3.51,3.51,0,0,1,2.3,2.32Z"/><path class="cls-87" d="M778.63,201.89a2.93,2.93,0,0,0-1.92.43c-.14-.37-.27-.76-.41-1.13A19,19,0,0,1,778.63,201.89Z"/><path class="cls-52" d="M778.49,141.87c0,.18,0,.36-.07.54a1.09,1.09,0,0,0-.08-.15Z"/><path class="cls-52" d="M778.34,142.26a1.09,1.09,0,0,1,.08.15c-1.53,12.22-2.77,25.7-3.8,38.08l-16,8.87a205.3,205.3,0,0,1,1.19-21.17.06.06,0,0,0,0,0c.09-.74.16-1.47.25-2.2a1.13,1.13,0,0,1,0-.18l.18-.52a36.51,36.51,0,0,0,4.8-9.74c3.67-2.43,7.16-4.85,10.3-7.19A37.4,37.4,0,0,0,778.34,142.26Z"/><path class="cls-85" d="M776.94,203c.46,1.22.91,2.37,1.31,3.4q-1.66,1.32-3.36,2.73-1.92,1.57-3.9,3.23c.93-4.07,3.23-8.55,5.72-10C776.79,202.54,776.87,202.74,776.94,203Z"/><path class="cls-88" d="M776.37,95.88c.07.18.15.36.23.55-2.16,3.08-7.12,6-10.07,8.14-1.11.78-2.17,1.55-3.22,2.33a26.86,26.86,0,0,0-6.2-3c1.54-1,2.72-2.07,2.65-3.14.39-2.8-.07-4.92-.16-7.92C765.36,91,774.24,93.76,776.37,95.88Z"/><path class="cls-87" d="M776.3,201.19c.14.37.27.76.41,1.13-2.49,1.44-4.79,5.92-5.72,10-.38.32-.78.64-1.17,1-1,.86-2.06,1.71-3.12,2.57-.57-5.4,1.93-12.63,6.31-15.59C774,200.62,775.16,200.89,776.3,201.19Z"/><path class="cls-84" d="M776.3,201.19c-1.14-.3-2.33-.57-3.29-.92a8.18,8.18,0,0,1,2.36-1.1l.27.12C775.85,199.93,776.07,200.56,776.3,201.19Z"/><path class="cls-80" d="M775.59,199.12a1.54,1.54,0,0,0,0,.17l-.27-.12Z"/><path class="cls-78" d="M758.22,222.56l16.4,4.91-1.21.82c-.13,1-.33,2.19-.57,3.69l-16.24-6.89.13-1.44Z"/><path class="cls-84" d="M771.39,218.93a3.62,3.62,0,0,1-.67-1.51,12.77,12.77,0,0,0,6.29.17c-1.62,2.49-3.44,3.71-6.1,3.66h0c-.71-.2-1.56-.47-2.51-.78a7.46,7.46,0,0,1-1.4-3A21.22,21.22,0,0,0,771.39,218.93Z"/><path class="cls-89" d="M773,200.27c-4.38,3-6.88,10.19-6.31,15.59-1.14.94-2.3,1.88-3.45,2.8l-3.17-1.16c-.3-6.31-1-15.28-1.14-25.19,6.36,2.68,12.53,5.22,16.43,6.86A8.18,8.18,0,0,0,773,200.27Z"/><path class="cls-90" d="M770.75,115c.39,0,1.26,4.77.83,8-1.13,8.46-1.6,12.53-2.84,19.18a102.1,102.1,0,0,1-3.66,13.33l-1.58,1a25,25,0,0,0,1-4.77,87.9,87.9,0,0,0,.55-15.72c0-.48-.06-1-.1-1.44a79.59,79.59,0,0,0-3.16-17.84,22,22,0,0,0-2.39-5.34.7.7,0,0,0-.31-.49l-.39-.57.6-.46,1.38-1c.31-.23.62-.45.92-.69.56-.42,1.13-.86,1.71-1.28a15.06,15.06,0,0,1,1.88,1.33c.9,1.13.33.65,0,1.78-.23.68-.79,1.47-.45,2.37C765,113.06,770.09,115,770.75,115Z"/><path class="cls-87" d="M770.72,217.42a3.62,3.62,0,0,0,.67,1.51,21.22,21.22,0,0,1-4.4-1.45,10.54,10.54,0,0,1-.29-1.62c1.06-.86,2.09-1.71,3.12-2.57.39-.34.79-.66,1.17-1A12.52,12.52,0,0,0,770.72,217.42Z"/><path class="cls-89" d="M763.27,218.68s0,0,0,0c1.15-.92,2.31-1.86,3.45-2.8a10.54,10.54,0,0,0,.29,1.62,7.46,7.46,0,0,0,1.4,3C766.91,220,765.18,219.37,763.27,218.68Z"/><path class="cls-91" d="M765.05,136.06a87.9,87.9,0,0,1-.55,15.72,25,25,0,0,1-1,4.77l-1.28.83c2.62-11.68.47-26.1-4.86-37.45a4.11,4.11,0,0,1,1.37-.46,3.57,3.57,0,0,1,.25.47C761.75,125.09,764.09,130.15,765.05,136.06Z"/><path class="cls-90" d="M763.5,156.55l1.58-1a36.51,36.51,0,0,1-4.8,9.74C761.26,162.6,762.58,159.59,763.5,156.55Z"/><path class="cls-87" d="M765,134.62c0,.48.07,1,.1,1.44-1-5.91-3.3-11-6.07-16.12l-.09-.48c-.31-1.61-.49-3.69-.89-5.39.28.2.57.4.86.57a5.76,5.76,0,0,0,.54-3.2,22,22,0,0,1,2.39,5.34A79.59,79.59,0,0,1,765,134.62Z"/><path class="cls-91" d="M762.22,157.38l1.28-.83c-.92,3-2.24,6-3.22,8.7l-.14.19c.09-.77.19-1.54.31-2.3A34.43,34.43,0,0,0,762.22,157.38Z"/><path class="cls-90" d="M763.31,106.9c-.58.42-1.15.86-1.71,1.28l-.92.69-1.38,1-.6.46c-1.57-2.26-3.56-4.15-5.7-4.6a19.83,19.83,0,0,0,4.11-1.87A26.86,26.86,0,0,1,763.31,106.9Z"/><path class="cls-80" d="M763.27,218.68l-.1,0,.08-.07S763.26,218.68,763.27,218.68Z"/><path class="cls-80" d="M763.25,218.66l-.08.07-3,1.62q0-1.32-.12-2.85Z"/><path class="cls-92" d="M757.36,119.93c5.33,11.35,7.48,25.77,4.86,37.45l-.9.59-1.18.75a31.24,31.24,0,0,0-.91-8.62h0c0-4.51.23-9.61-.07-14-.29-5.1-2-10.31-3.33-15,0,0,0,0,0,0A6.25,6.25,0,0,1,757.36,119.93Z"/><path class="cls-92" d="M761.32,158l.9-.59a34.43,34.43,0,0,1-1.77,5.76Q760.83,160.51,761.32,158Z"/><path class="cls-81" d="M763.17,218.73c-.95.76-1.91,1.51-2.87,2.25l-.09-.11c0-.17,0-.34,0-.52Z"/><path class="cls-92" d="M760.14,158.72l1.18-.75q-.5,2.55-.87,5.17c-.12.76-.22,1.53-.31,2.3l-.08.09C760,163.35,760.13,161.05,760.14,158.72Z"/><path class="cls-81" d="M760.21,220.87l.09.11-2.08,1.58-1.35-.4,3.33-1.81C760.2,220.53,760.21,220.7,760.21,220.87Z"/><path class="cls-91" d="M760.28,165.25l-.18.52a1.66,1.66,0,0,1,0-.33Z"/><path class="cls-90" d="M759.23,150.1a31.24,31.24,0,0,1,.91,8.62l-1,.6c-2.18-7.27-4.47-12.79-10.71-16.43-3.76-2.24-9-3.91-12.73-6,0,0,2-6.66.09-7.53-1.21,0-4.06,2.26-5.42.6a9.71,9.71,0,0,1-.59-1.08c3.08-2,6.3-3.94,9.56-5.93,3.71,2.85,7.11,5.36,10.22,9.2A55.83,55.83,0,0,1,759,149.37C759.09,149.61,759.16,149.85,759.23,150.1Z"/><path class="cls-90" d="M760.14,158.72c0,2.33-.12,4.63-.08,6.81l-.17.21a26,26,0,0,0-.46-5.61c-.08-.26-.16-.54-.25-.81Z"/><path class="cls-92" d="M760.14,165.44a1.66,1.66,0,0,0,0,.33,1.13,1.13,0,0,0,0,.18c0-.14,0-.28,0-.42Z"/><path class="cls-92" d="M760.06,165.53c0,.14,0,.28,0,.42-.09.73-.16,1.46-.25,2.2,0-.59.07-1.46.07-2.41Z"/><path class="cls-93" d="M759.89,165.74c0,.95,0,1.82-.07,2.41a.06.06,0,0,1,0,0,205.3,205.3,0,0,0-1.19,21.17L755.73,191c-7.75-3.29-15.82-6.85-19.1-8.69-1-2.34-2-5-3-7.78,8-4.5,17.07-9.78,25.55-15.16.09.27.17.55.25.81A26,26,0,0,1,759.89,165.74Z"/><path class="cls-85" d="M759.6,92.85c.09,3,.55,5.12.16,7.92.07,1.07-1.11,2.19-2.65,3.14a19.83,19.83,0,0,1-4.11,1.87,8.61,8.61,0,0,1-.92.25,5.09,5.09,0,0,1-.74.12c-1.25.1-6.06-.76-10.67-2.2.39-2.69-.35-4.68,0-8.22.13-2.24.6-3.9.08-5.84-.87-3.2-1.44-3.24-.58-5.94a34.18,34.18,0,0,0-1.62-5.43c6.88-.67,15.06-4.74,18.4-10.24a49.68,49.68,0,0,1,2,7.61c-.82,3.26-.25,3.31.68,7.22,0,.12,0,.25.08.37.43,2.22,0,4.15-.06,6.72C759.58,91.17,759.58,92.05,759.6,92.85Z"/><path class="cls-94" d="M759.24,69s1.52,8.15.46,14.45c0-.12-.05-.25-.08-.37-.93-3.91-1.5-4-.68-7.22a49.68,49.68,0,0,0-2-7.61c-3.34,5.5-11.52,9.57-18.4,10.24a16.17,16.17,0,0,1-2.39.09,31.61,31.61,0,0,1-.76,6.29c-.37,2.63-1.8,4.64-.57,10.17h0c-1.22-.72-2.42-1.48-3.54-2.28-.47-2.16-.9-4.4-1.26-5.64-1.19-1-4.67-.17-3.51,2.7.92,2.23,1.84,7.32,4.17,7.67l.21,2.72h-.19c-.8-.54-1.38-.35-2.34-1a15.51,15.51,0,0,0-1.57-3.53l-.2.12a179.09,179.09,0,0,1-10.54-19c-2.85-5.81,1.35-13.4,7-18.12l.07.08C734.41,49.16,758.06,53.5,759.24,69Z"/><path class="cls-95" d="M759.4,111.44a5.76,5.76,0,0,1-.54,3.2c-.29-.17-.58-.37-.86-.57-.71-.52-1.41-1.1-2.15-1.58,1-.69,1.91-1.41,2.85-2.11,0,.28.21.41.39.57S759.3,111.27,759.4,111.44Z"/><path class="cls-87" d="M759.16,136.13c.3,4.36.07,9.46.07,14h0c-.07-.25-.14-.49-.22-.73a55.83,55.83,0,0,0-9.41-17.23c-3.11-3.84-6.51-6.35-10.22-9.2l4-2.45c2.34.49,4.83.72,6.09-.09h0a24.39,24.39,0,0,1,.83-3.74,19.64,19.64,0,0,0,5.47,4.39,0,0,0,0,0,0,0C757.13,125.82,758.87,131,759.16,136.13Z"/><path class="cls-95" d="M759.09,111c-.18-.16-.38-.29-.39-.57Z"/><path class="cls-89" d="M758.94,192.31c.17,9.91.84,18.88,1.14,25.19-9.31-3.48-21.52-8.44-30.12-12.4l25.12-14.43Z"/><path class="cls-96" d="M758.89,119.46h-.16a4.11,4.11,0,0,0-1.37.46,51.1,51.1,0,0,0-3.38-6.11c.63-.43,1.25-.88,1.87-1.33.74.48,1.44,1.06,2.15,1.58C758.4,115.77,758.58,117.85,758.89,119.46Z"/><path class="cls-78" d="M756.87,222.16l1.35.4-1.49,1.09Z"/><path class="cls-95" d="M758.7,110.38c-.94.7-1.89,1.42-2.85,2.11a4.68,4.68,0,0,0-3.2-.9h-.11c0-.43-.06-.87-.1-1.3a1.58,1.58,0,0,0-.06-.83c-.09-1.07-.17-2.16-.25-3.26l0-.18a8.61,8.61,0,0,0,.92-.25C755.14,106.23,757.13,108.12,758.7,110.38Z"/><path class="cls-97" d="M757.36,119.93a6.25,6.25,0,0,0-1.51,1.14h0a19.64,19.64,0,0,1-5.47-4.39l.15-.54q1.8-1.11,3.48-2.31A51.1,51.1,0,0,1,757.36,119.93Z"/><path class="cls-86" d="M748.47,142.89c6.24,3.64,8.53,9.16,10.71,16.43-8.48,5.38-17.53,10.66-25.55,15.16-4-10.94-8.37-24.55-12.85-34a22.8,22.8,0,0,0-2.73-4.19c4.17-2.33,7.72-4.93,11.76-7.43h0a9.71,9.71,0,0,0,.59,1.08c1.36,1.66,4.21-.6,5.42-.6,2,.87-.09,7.53-.09,7.53C739.51,139,744.71,140.65,748.47,142.89Z"/><path class="cls-89" d="M736.63,182.26c3.28,1.84,10.69,5.12,18.45,8.41L730,205.1l-1.51-.7c-.05-2.64-.12-5.16-.3-7.47-.41-4.92-.63-10.13-1-15.37h0c.05-1.21.09-2.4.11-3.56,2-1.1,4.14-2.29,6.34-3.52C734.65,177.29,735.65,179.92,736.63,182.26Z"/><path class="cls-96" d="M755.85,112.49c-.62.45-1.24.9-1.87,1.33-.46-.7-.93-1.39-1.43-2a1,1,0,0,0,0-.17h.11A4.68,4.68,0,0,1,755.85,112.49Z"/><path class="cls-97" d="M752.55,111.77c.5.66,1,1.35,1.43,2q-1.68,1.2-3.48,2.31a47.81,47.81,0,0,1,1.7-4.54l.14-.11C752.42,111.58,752.48,111.67,752.55,111.77Z"/><path class="cls-95" d="M752.54,111.6a1,1,0,0,1,0,.17c-.07-.1-.13-.19-.21-.29l-.14.11a47.81,47.81,0,0,0-1.7,4.54,3.89,3.89,0,0,1-.4.25c-2.2,1.37-4.45,2.74-6.7,4.11-1.87-.38-3.64-.92-4.63-1.22a20,20,0,0,1-6.26-3c-1.71-2.45-2.72-5.27-1.43-7.87l.07,0a5.57,5.57,0,0,0,.37.68c4.29,6.92,20.18,5.11,20.92,1.22C752.48,110.73,752.51,111.17,752.54,111.6Z"/><path class="cls-98" d="M752.38,109.47l.06.83c-.74,3.89-16.63,5.7-20.92-1.22l-.42-5.5-.21-2.84c0-.17,0-.34,0-.5l-.21-2.72a2.35,2.35,0,0,0,1.6-.44,11.25,11.25,0,0,0,3.47,5,41,41,0,0,0,5,1.9c4.61,1.44,9.42,2.3,10.67,2.2a5.09,5.09,0,0,0,.74-.12l0,.18C752.21,107.31,752.29,108.4,752.38,109.47Z"/><path class="cls-95" d="M750.1,116.38l.25.29a24.39,24.39,0,0,0-.83,3.74h0c-1.26.81-3.75.58-6.09.09C745.65,119.12,747.9,117.75,750.1,116.38Z"/><path class="cls-87" d="M743.4,120.49l-4,2.45c-.87-.67-1.75-1.36-2.65-2.09a25.3,25.3,0,0,1-4.22-4.55,20,20,0,0,0,6.26,3C739.76,119.57,741.53,120.11,743.4,120.49Z"/><path class="cls-99" d="M740.7,89.89c.52,1.94,0,3.6-.08,5.84-.3,3.54.44,5.53,0,8.22a41,41,0,0,1-5-1.9,11.25,11.25,0,0,1-3.47-5l.13-.09a35.53,35.53,0,0,1-1.13-4.2c1.12.8,2.32,1.56,3.54,2.28h0c-1.23-5.53.2-7.54.57-10.17a31.61,31.61,0,0,0,.76-6.29,16.17,16.17,0,0,0,2.39-.09A34.18,34.18,0,0,1,740.12,84C739.26,86.65,739.83,86.69,740.7,89.89Z"/><path class="cls-90" d="M736.73,120.85c.9.73,1.78,1.42,2.65,2.09-3.26,2-6.48,4-9.56,5.93-.8-1.69-1.51-4-2.12-5.54-1.26-3.08-4.22-10.48-3-14.27l.76-.66c1.94-1.66,3.84-3.27,5.68-4.82l.42,5.5a5.57,5.57,0,0,1-.37-.68l-.07,0c-1.29,2.6-.28,5.42,1.43,7.87A25.3,25.3,0,0,0,736.73,120.85Z"/><path class="cls-99" d="M732.37,97l-.13.09a2.35,2.35,0,0,1-1.6.44c-2.33-.35-3.25-5.44-4.17-7.67-1.16-2.87,2.32-3.71,3.51-2.7.36,1.24.79,3.48,1.26,5.64A35.53,35.53,0,0,0,732.37,97Z"/><path class="cls-90" d="M730.89,100.74l.21,2.84c-1.84,1.55-3.74,3.16-5.68,4.82A38.55,38.55,0,0,1,730.89,100.74Z"/><path class="cls-93" d="M730,205.1l-1.47.84c0-.51,0-1,0-1.54Z"/><path class="cls-88" d="M729.82,128.87h0c-4,2.5-7.59,5.1-11.76,7.43-2.86-3.51-7-6.51-12-6.08l-.33,0a4.13,4.13,0,0,0-4.64,3l-.1,0a9.18,9.18,0,0,1,1.71-3l-.2-.18a256.59,256.59,0,0,1,22.19-21c-1.18,3.79,1.78,11.19,3,14.27C728.31,124.91,729,127.18,729.82,128.87Z"/><path class="cls-89" d="M720.78,140.49c4.48,9.44,8.84,23,12.85,34-2.2,1.23-4.33,2.42-6.34,3.52.3-17.53-3.63-29.12-11.32-40.59l.32-.17c.6-.31,1.19-.62,1.76-.94A22.8,22.8,0,0,1,720.78,140.49Z"/><path class="cls-84" d="M728.49,205.94,709,217.16a78.11,78.11,0,0,0,1.59-15.71c0-7.23-5.63-25.11-6.68-33.26h0a160.27,160.27,0,0,1-3.41-16.94c3.75,12.69,15.38,42.25,19.34,47.68l-.42.26c.51.93,4,2.86,9,5.22C728.46,204.91,728.47,205.43,728.49,205.94Z"/><path class="cls-89" d="M719.84,198.92c-4-5.43-15.59-35-19.34-47.68-.06-.38-.1-.76-.15-1.14-.74-5.91-.89-11.54.23-15.65,1.35-2.45,3.29-3.92,5.12-4.19,3.65.37,8.24,4,10.59,7l-.32.17c7.69,11.47,11.62,23.06,11.32,40.59l-.35.2c.09,1.11.17,2.24.24,3.36.34,5.24.56,10.45,1,15.37.18,2.31.25,4.83.3,7.47-5-2.36-8.52-4.29-9-5.22Z"/><path class="cls-84" d="M726.94,178.2l.35-.2c0,1.16-.06,2.35-.11,3.56h0C727.11,180.44,727,179.31,726.94,178.2Z"/><path class="cls-89" d="M718.05,136.3c-.57.32-1.16.63-1.76.94-2.35-3-6.94-6.61-10.59-7l.33,0C711,129.79,715.19,132.79,718.05,136.3Z"/><path class="cls-84" d="M701.06,133.27a4.13,4.13,0,0,1,4.64-3c-1.83.27-3.77,1.74-5.12,4.19.11-.43.24-.83.38-1.22Z"/><path class="cls-89" d="M700.58,134.45c-1.12,4.11-1,9.74-.23,15.65C697.89,143.39,698.64,137.94,700.58,134.45Z"/></g></g></svg>