<svg xmlns="http://www.w3.org/2000/svg" xmlns:xlink="http://www.w3.org/1999/xlink" viewBox="0 0 102.27 119.31"><defs><style>.cls-1{fill:none;}.cls-2{clip-path:url(#clip-path);}.cls-3{fill:#fff;}.cls-4{stroke:#fff;stroke-miterlimit:10;fill:url(#linear-gradient);}</style><clipPath id="clip-path"><rect class="cls-1" x="27.98" width="44.59" height="65"/></clipPath><linearGradient id="linear-gradient" x1="56.25" y1="69.58" x2="73.22" y2="52.61" gradientUnits="userSpaceOnUse"><stop offset="0" stop-color="#041a82"/><stop offset="1" stop-color="#478cff"/></linearGradient></defs><title>Asset 11</title><g id="Layer_2" data-name="Layer 2"><g id="Layer_2-2" data-name="Layer 2"><g class="cls-2"><path class="cls-3" d="M44.16,47.73h-4a.95.95,0,0,0,0,1.9h4a.95.95,0,0,0,0-1.9Z"/><path class="cls-3" d="M68,36.11l-5.93-2.28-3-3a.94.94,0,0,0-.74-.27V27.93a11,11,0,0,0,2.85-5.61.17.17,0,0,1,.06-.06,3.11,3.11,0,0,0,.8-.05,3.07,3.07,0,0,0,2.38-3.05v-.79a3.12,3.12,0,0,0-1-2.27c1-5.2.2-9.44-2.24-12.27S55-.18,50.2.08a14.37,14.37,0,0,0-8.29,3.08c-1.21.15-4.78,1-4.78,6a26.69,26.69,0,0,0,.78,6.4,3.06,3.06,0,0,0-1.8,2.83v.78a3.08,3.08,0,0,0,2.39,3.05,3,3,0,0,0,.79.05s.06,0,.06.06a11,11,0,0,0,2.85,5.61v2.59a1,1,0,0,0-.74.27l-3,3L32.5,36.11A7,7,0,0,0,28,43l.84,21a1,1,0,0,0,.95.91h0a1,1,0,0,0,.91-1l-.84-21a5.23,5.23,0,0,1,.24-1.77l3.46,3.45a5.1,5.1,0,0,1,1.5,3.63V63.9a1,1,0,0,0,1.9,0V48.19a7,7,0,0,0-2.06-5L31.1,39.38a5.15,5.15,0,0,1,2.09-1.5l5.58-2.15L43,42.11a3,3,0,0,0,2.18,1.31h.3a3,3,0,0,0,1.67-.51l-.91,20.94a1,1,0,0,0,.91,1h0a1,1,0,0,0,.95-.91L49,44.59h2.51l.84,19.35a1,1,0,0,0,.94.91h.05a1,1,0,0,0,.9-1l-.91-20.94a3,3,0,0,0,1.68.51h.29a3,3,0,0,0,2.19-1.31l4.25-6.38,5.58,2.16a5.17,5.17,0,0,1,2.09,1.49l-3.84,3.84a7,7,0,0,0-2.06,5V63.9a.95.95,0,1,0,1.89,0V48.19a5.11,5.11,0,0,1,1.51-3.63l3.45-3.45a5,5,0,0,1,.24,1.77l-.84,21a1,1,0,0,0,.91,1h0a1,1,0,0,0,1-.91l.84-21A7,7,0,0,0,68,36.11ZM41.22,22a2,2,0,0,0-2-1.61.93.93,0,0,1-.29,0A1.18,1.18,0,0,1,38,19.16v-.78a1.14,1.14,0,0,1,.88-1.16,1.05,1.05,0,0,1,1.06.4,1.33,1.33,0,0,0,.7.49,1.39,1.39,0,0,0,1.19-.19,7.87,7.87,0,0,0,2.09-2.21.95.95,0,0,0-1.6-1,5.88,5.88,0,0,1-1.22,1.4,2.86,2.86,0,0,0-1.28-.69A25.3,25.3,0,0,1,39,9.15C39,5.19,42,5,42.3,5A.93.93,0,0,0,43,4.76,12.16,12.16,0,0,1,50.3,2c4.22-.23,7.49.84,9.44,3.1s2.64,5.82,1.89,10.23a4.28,4.28,0,0,0-1.11.08l-1.07-2.55a.93.93,0,0,0-1.11-.55c-.1,0-10.2,2.58-14.45-2.71a.95.95,0,1,0-1.48,1.19c4.29,5.35,12.91,4.09,15.6,3.54l.83,2a1.65,1.65,0,0,0,1.9,1,2.57,2.57,0,0,1,.87-.06,1.16,1.16,0,0,1,.88,1.15v.79a1.18,1.18,0,0,1-.86,1.19,1,1,0,0,1-.29,0A2,2,0,0,0,59.28,22a9.18,9.18,0,0,1-18.06,0Zm5,19.24a1.09,1.09,0,0,1-.87.31,1.06,1.06,0,0,1-.79-.48l-4.29-6.42,1.87-1.86,6.68,5.84Zm2.82,1.47L49.15,41l1.1-1.1,1.1,1.1.07,1.68Zm1.17-5.38L44.1,31.92V29.53a11,11,0,0,0,12.3,0v2.39Zm5.66,3.74a1.08,1.08,0,0,1-1.66.17l-2.61-2.61,6.68-5.84,1.87,1.86Z"/></g><rect class="cls-1" x="17.77" width="65" height="65"/><circle class="cls-4" cx="64.74" cy="61.09" r="12"/><path class="cls-3" d="M71.35,60.35v2.4H65.9v5.46H63.52V62.75H58.07v-2.4h5.45V54.9H65.9v5.45Z"/><path class="cls-3" d="M2.47,99.41a4.69,4.69,0,0,1-1.83-2A7,7,0,0,1,0,94.27a6.9,6.9,0,0,1,.64-3.09,4.7,4.7,0,0,1,1.83-2,5.43,5.43,0,0,1,2.81-.71,6.29,6.29,0,0,1,2.17.36,4.66,4.66,0,0,1,1.7,1.08l-.49,1a5.76,5.76,0,0,0-1.61-1,4.91,4.91,0,0,0-1.75-.3,3.62,3.62,0,0,0-2.91,1.22,5.17,5.17,0,0,0-1,3.45,5.27,5.27,0,0,0,1,3.48A3.6,3.6,0,0,0,5.3,99a4.7,4.7,0,0,0,1.75-.31,5.54,5.54,0,0,0,1.61-1l.49,1a4.66,4.66,0,0,1-1.7,1.08,6.29,6.29,0,0,1-2.17.36A5.43,5.43,0,0,1,2.47,99.41Z"/><path class="cls-3" d="M13.2,99.41a4.63,4.63,0,0,1-1.8-2,7.1,7.1,0,0,1-.63-3.09,7.28,7.28,0,0,1,.62-3.11,4.68,4.68,0,0,1,1.79-2A5.28,5.28,0,0,1,16,88.46a5.26,5.26,0,0,1,2.77.71,4.55,4.55,0,0,1,1.79,2,7.1,7.1,0,0,1,.63,3.09,7,7,0,0,1-.64,3.11,4.66,4.66,0,0,1-1.8,2,5.1,5.1,0,0,1-2.75.71A5.23,5.23,0,0,1,13.2,99.41Zm5.57-1.65a6.53,6.53,0,0,0,0-7A3.47,3.47,0,0,0,16,89.58a3.46,3.46,0,0,0-2.83,1.23,5.3,5.3,0,0,0-1,3.46,5.38,5.38,0,0,0,1,3.49A3.46,3.46,0,0,0,16,99,3.44,3.44,0,0,0,18.77,97.76Z"/><path class="cls-3" d="M31.42,88.59h1.25V100h-1l-6.88-9.16V100H23.54V88.59h1l6.88,9.17Z"/><path class="cls-3" d="M38.22,100V89.71h-4V88.59h9.26v1.12h-4V100Z"/><path class="cls-3" d="M45.12,100V88.59h1.31V100Z"/><path class="cls-3" d="M57.14,88.59h1.24V100h-1l-6.88-9.16V100H49.25V88.59h1l6.88,9.17Z"/><path class="cls-3" d="M70.19,94.05v5.28a7,7,0,0,1-1.76.57,11.58,11.58,0,0,1-2.21.21,5.93,5.93,0,0,1-2.93-.69,4.61,4.61,0,0,1-1.87-2,6.93,6.93,0,0,1-.65-3.14,6.83,6.83,0,0,1,.65-3.11,4.6,4.6,0,0,1,1.85-2,5.69,5.69,0,0,1,2.86-.7,6.47,6.47,0,0,1,2.2.36,4.65,4.65,0,0,1,1.72,1.08l-.51,1a5.75,5.75,0,0,0-1.63-1,4.78,4.78,0,0,0-1.78-.32,3.71,3.71,0,0,0-3,1.21,6.43,6.43,0,0,0,0,7A3.86,3.86,0,0,0,66.26,99,8.32,8.32,0,0,0,69,98.56V95.09H66.16v-1Z"/><path class="cls-3" d="M72.88,100V88.59h7.2v1.09h-5.9v4h5.58v1.1H74.18V98.9h5.9V100Z"/><path class="cls-3" d="M90.18,88.59h1.24V100h-1l-6.88-9.16V100H82.29V88.59h1l6.88,9.17Z"/><path class="cls-3" d="M97,100V89.71H93V88.59h9.26v1.12h-4V100Z"/><path class="cls-3" d="M13.72,117.87l.5-1a5.35,5.35,0,0,0,1.72,1,6.37,6.37,0,0,0,2,.3,3.63,3.63,0,0,0,2.12-.53,1.76,1.76,0,0,0,.75-1.52,1.26,1.26,0,0,0-.36-.93,2.54,2.54,0,0,0-.95-.57,14.49,14.49,0,0,0-1.56-.43,13.69,13.69,0,0,1-2.16-.63,3.33,3.33,0,0,1-1.37-1,2.47,2.47,0,0,1-.53-1.66,3,3,0,0,1,.51-1.72,3.39,3.39,0,0,1,1.45-1.16,5.27,5.27,0,0,1,2.18-.42,6.61,6.61,0,0,1,2.21.37A4.82,4.82,0,0,1,22,109.1l-.51,1a5.88,5.88,0,0,0-1.63-1,5,5,0,0,0-1.8-.31,3.38,3.38,0,0,0-2.08.56,1.85,1.85,0,0,0-.75,1.56,1.45,1.45,0,0,0,.66,1.3,6.33,6.33,0,0,0,2,.75c1,.24,1.75.45,2.31.65a3.44,3.44,0,0,1,1.4.89,2.25,2.25,0,0,1,.56,1.6,2.88,2.88,0,0,1-.51,1.69,3.28,3.28,0,0,1-1.46,1.12,5.69,5.69,0,0,1-2.23.4A6.09,6.09,0,0,1,13.72,117.87Z"/><path class="cls-3" d="M26.84,119.18V108.91h-4v-1.12h9.27v1.12h-4v10.27Z"/><path class="cls-3" d="M41.11,119.18l-1.25-2.92h-6l-1.26,2.92H31.29l5-11.39h1.16l5,11.39Zm-6.73-4h5l-2.51-5.86Z"/><path class="cls-3" d="M44.15,119.18V107.79h7v1.11H45.45v3.95h5.42V114H45.45v5.23Z"/><path class="cls-3" d="M53.16,119.18V107.79h7v1.11H54.46v3.95h5.42V114H54.46v5.23Z"/><path class="cls-3" d="M62.17,119.18V107.79h1.31v11.39Z"/><path class="cls-3" d="M74.18,107.79h1.25v11.39h-1L67.53,110v9.16H66.3V107.79h1L74.18,117Z"/><path class="cls-3" d="M87.24,113.25v5.28a7.13,7.13,0,0,1-1.76.57,11.66,11.66,0,0,1-2.21.21,5.91,5.91,0,0,1-2.93-.69,4.69,4.69,0,0,1-1.88-2,7.07,7.07,0,0,1-.64-3.14,7,7,0,0,1,.64-3.11,4.68,4.68,0,0,1,1.86-2,5.65,5.65,0,0,1,2.85-.7,6.74,6.74,0,0,1,2.21.36,4.79,4.79,0,0,1,1.72,1.08l-.52,1a5.8,5.8,0,0,0-1.62-1,4.8,4.8,0,0,0-1.79-.31,3.69,3.69,0,0,0-3,1.2,6.38,6.38,0,0,0,0,7,3.86,3.86,0,0,0,3.07,1.21,8.42,8.42,0,0,0,2.74-.45v-3.47H83.21v-1Z"/></g></g></svg>