<svg xmlns="http://www.w3.org/2000/svg" viewBox="0 0 112.7 116.17"><defs><style>.cls-1{fill:#fff;}.cls-2{fill:none;}</style></defs><title>Asset 10</title><g id="Layer_2" data-name="Layer 2"><g id="Layer_2-2" data-name="Layer 2"><path class="cls-1" d="M74.1,38.1A13.45,13.45,0,1,0,87.54,51.56,13.48,13.48,0,0,0,74.1,38.1Zm0,24.66a11.21,11.21,0,1,1,11.2-11.2,11.22,11.22,0,0,1-11.2,11.2Z"/><path class="cls-1" d="M80.82,50.43h-5.6v-5.6a1.13,1.13,0,0,0-2.25,0v6.73a1.13,1.13,0,0,0,1.13,1.12h6.72a1.13,1.13,0,0,0,0-2.25Z"/><path class="cls-1" d="M52.8,23.54H30.39V56H52.8V35.87H73V23.54Zm10.09,2.23h7.84v7.85H62.89Zm-20.18,0h7.85v7.85H42.71Zm-10.08,0h7.84v7.85H32.63Zm0,10.1h7.84v7.84H32.63Zm7.84,17.92H32.63V46h7.84Zm10.09,0H42.71V46h7.85Zm0-10.08H42.71V35.87h7.85ZM60.64,33.62H52.8V25.77h7.84Z"/><path class="cls-1" d="M59.52,61.64H24.79V17.93H78.58V32.5a1.12,1.12,0,1,0,2.24,0V5.6A1.12,1.12,0,0,0,79.7,4.48H74.1V1.12A1.13,1.13,0,0,0,73,0H65.13A1.12,1.12,0,0,0,64,1.12V4.48H39.35V1.12A1.12,1.12,0,0,0,38.23,0H30.39a1.11,1.11,0,0,0-1.12,1.12V4.48H23.66A1.12,1.12,0,0,0,22.54,5.6V62.76a1.12,1.12,0,0,0,1.12,1.12H59.52a1.12,1.12,0,0,0,0-2.24Zm6.73-59.4h5.6V9h-5.6Zm-34.75,0h5.61V9H31.5ZM24.79,6.73h4.48v3.36a1.12,1.12,0,0,0,1.12,1.12h7.84a1.12,1.12,0,0,0,1.12-1.12V6.73H64v3.36a1.12,1.12,0,0,0,1.12,1.12H73a1.13,1.13,0,0,0,1.13-1.12V6.73h4.48v9H24.79Z"/><rect class="cls-2" x="22.54" width="65" height="65"/><path class="cls-1" d="M16.26,85.45H20.8a4,4,0,0,1,2.74.85,2.9,2.9,0,0,1,1,2.33,2.94,2.94,0,0,1-1,2.35,4.08,4.08,0,0,1-2.74.85H17.57v5H16.26Zm4.43,5.3a2.87,2.87,0,0,0,1.9-.55,2.23,2.23,0,0,0,0-3.13,2.93,2.93,0,0,0-1.9-.53H17.57v4.21Z"/><path class="cls-1" d="M35.62,96.84h-1.4l-1.4-3.79a1.64,1.64,0,0,0-.72-.94,2.78,2.78,0,0,0-1.28-.24H28v5h-1.3V85.45H31.2a4.25,4.25,0,0,1,2.82.82,2.86,2.86,0,0,1,1,2.35,3,3,0,0,1-.59,1.88,3.18,3.18,0,0,1-1.68,1.08,1.47,1.47,0,0,1,.84.42,2.61,2.61,0,0,1,.6,1Zm-4.53-6.06c1.75,0,2.62-.72,2.62-2.15a1.9,1.9,0,0,0-.64-1.57,3.1,3.1,0,0,0-2-.52H28v4.24Z"/><path class="cls-1" d="M39.7,96.27a4.63,4.63,0,0,1-1.8-2,7,7,0,0,1-.64-3.09A7.13,7.13,0,0,1,37.89,88a4.55,4.55,0,0,1,1.79-2,5.76,5.76,0,0,1,5.54,0A4.68,4.68,0,0,1,47,88a7.25,7.25,0,0,1,.62,3.09,7.06,7.06,0,0,1-.63,3.1,4.69,4.69,0,0,1-1.8,2,5.24,5.24,0,0,1-2.75.71A5.18,5.18,0,0,1,39.7,96.27Zm5.56-1.65a6.53,6.53,0,0,0,0-7,3.87,3.87,0,0,0-5.65,0,5.25,5.25,0,0,0-1,3.46,5.34,5.34,0,0,0,1,3.49,3.85,3.85,0,0,0,5.64,0Z"/><path class="cls-1" d="M59,90.91v5.28a6.76,6.76,0,0,1-1.76.56,10.9,10.9,0,0,1-2.21.22,5.8,5.8,0,0,1-2.93-.7,4.61,4.61,0,0,1-1.88-2,7.07,7.07,0,0,1-.64-3.14A6.93,6.93,0,0,1,50.26,88a4.62,4.62,0,0,1,1.86-2,5.55,5.55,0,0,1,2.85-.7,6.39,6.39,0,0,1,2.2.36,4.61,4.61,0,0,1,1.73,1.08l-.52,1a5.85,5.85,0,0,0-1.62-1A5,5,0,0,0,55,86.44a3.69,3.69,0,0,0-3,1.21,6.38,6.38,0,0,0,0,7,3.89,3.89,0,0,0,3.07,1.21,8.42,8.42,0,0,0,2.74-.45V92H55v-1Z"/><path class="cls-1" d="M70.67,96.84H69.28l-1.41-3.79a1.63,1.63,0,0,0-.71-.94,2.79,2.79,0,0,0-1.29-.24H63v5H61.73V85.45h4.52a4.3,4.3,0,0,1,2.83.82,2.85,2.85,0,0,1,1,2.35,3,3,0,0,1-.58,1.88,3.17,3.17,0,0,1-1.69,1.08,1.53,1.53,0,0,1,.85.42,2.73,2.73,0,0,1,.59,1Zm-4.53-6.06c1.75,0,2.63-.72,2.63-2.15a1.93,1.93,0,0,0-.64-1.57,3.12,3.12,0,0,0-2-.52H63v4.24Z"/><path class="cls-1" d="M81.42,96.84l-1.24-2.93h-6L73,96.84H71.6l5-11.39h1.15l5,11.39Zm-6.73-4h5L77.2,87Z"/><path class="cls-1" d="M94.14,85.45h1.09V96.84H94V88.38l-3.7,8.46h-.93l-3.73-8.4,0,8.4H84.46V85.45h1.09l4.32,9.82Z"/><path class="cls-1" d="M9.68,104.65h1.09V116H9.55v-8.46L5.86,116H4.93l-3.73-8.4,0,8.4H0V104.65H1.09l4.32,9.82Z"/><path class="cls-1" d="M22.29,116,21,113.11H15.09L13.82,116H12.46l5-11.39h1.15l5,11.39Zm-6.74-4h5l-2.52-5.86Z"/><path class="cls-1" d="M33.22,104.65h1.24V116h-1l-6.88-9.17V116H25.33V104.65h1l6.88,9.17Z"/><path class="cls-1" d="M46,116l-1.25-2.93H38.77L37.5,116H36.14l5-11.39H42.3l5,11.39Zm-6.74-4h5l-2.52-5.86Z"/><path class="cls-1" d="M57.63,110.11v5.28a6.63,6.63,0,0,1-1.76.56,10.83,10.83,0,0,1-2.21.22,5.76,5.76,0,0,1-2.92-.7,4.5,4.5,0,0,1-1.88-2,6.93,6.93,0,0,1-.65-3.14,6.8,6.8,0,0,1,.65-3.11,4.6,4.6,0,0,1,1.85-2,5.59,5.59,0,0,1,2.86-.7,6.47,6.47,0,0,1,2.2.36A4.65,4.65,0,0,1,57.49,106L57,107a6,6,0,0,0-1.63-1,5,5,0,0,0-1.78-.31,3.71,3.71,0,0,0-3,1.21,6.43,6.43,0,0,0,0,7,3.9,3.9,0,0,0,3.08,1.21,8.32,8.32,0,0,0,2.73-.45v-3.47H53.6v-1Z"/><path class="cls-1" d="M60.32,116V104.65h7.2v1.09h-5.9v4H67.2v1.1H61.62V115h5.9V116Z"/><path class="cls-1" d="M79.41,104.65H80.5V116H79.28v-8.46L75.58,116h-.92l-3.73-8.4V116H69.73V104.65h1.09l4.32,9.82Z"/><path class="cls-1" d="M83.31,116V104.65h7.2v1.09h-5.9v4h5.58v1.1H84.61V115h5.9V116Z"/><path class="cls-1" d="M100.61,104.65h1.25V116h-1L94,106.87V116H92.72V104.65h1l6.88,9.17Z"/><path class="cls-1" d="M107.41,116V105.77h-4v-1.12h9.26v1.12h-4V116Z"/></g></g></svg>