<svg xmlns="http://www.w3.org/2000/svg" viewBox="0 0 111.01 116.17"><defs><style>.cls-1{fill:#fff;}.cls-2{fill:none;}</style></defs><title>Asset 9</title><g id="Layer_2" data-name="Layer 2"><g id="Layer_2-2" data-name="Layer 2"><path class="cls-1" d="M70.85,4.49h-8.1a3.31,3.31,0,0,0-3.13-2.24H56.19a5.49,5.49,0,0,0-8.86,0H43.9a3.31,3.31,0,0,0-3.13,2.24h-8.1a4.44,4.44,0,0,0-4.43,4.42V60.58A4.43,4.43,0,0,0,32.67,65H70.85a4.43,4.43,0,0,0,4.43-4.42V8.91a4.44,4.44,0,0,0-4.43-4.42Zm-30.08,6.6a3.31,3.31,0,0,0,3.13,2.25H59.62a3.31,3.31,0,0,0,3.13-2.25h5.93V58.4H34.84V11.09ZM43.9,4.35h4a1.05,1.05,0,0,0,.91-.52,3.41,3.41,0,0,1,5.92,0,1.05,1.05,0,0,0,.91.52h4a1.2,1.2,0,0,1,1.2,1.2V10h0a1.2,1.2,0,0,1-1.2,1.19H43.9A1.19,1.19,0,0,1,42.71,10h0V5.55a1.21,1.21,0,0,1,1.2-1.2ZM73.17,60.58a2.31,2.31,0,0,1-2.32,2.31H32.67a2.31,2.31,0,0,1-2.32-2.31V8.91A2.32,2.32,0,0,1,32.67,6.6H40.6V9H33.79a1.06,1.06,0,0,0-1,1.06V59.46a1,1,0,0,0,1,1H69.73a1,1,0,0,0,1-1V10a1.06,1.06,0,0,0-1-1.06H62.92V6.6h7.93a2.32,2.32,0,0,1,2.32,2.31Z"/><path class="cls-1" d="M51.76,8.84a1,1,0,0,0,1.05-1V5.55a1.05,1.05,0,1,0-2.1,0V7.79a1,1,0,0,0,1,1Z"/><path class="cls-1" d="M52.88,23.45h6.74a1.06,1.06,0,1,0,0-2.11H52.88a1.06,1.06,0,0,0,0,2.11Z"/><path class="cls-1" d="M52.88,27.94H64.11a1.06,1.06,0,1,0,0-2.11H52.88a1.06,1.06,0,0,0,0,2.11Z"/><path class="cls-1" d="M42,27.63a1.05,1.05,0,0,0,1.49,0L49.14,22a1.05,1.05,0,0,0-1.49-1.49L42.78,25.4l-2.63-2.63a1.05,1.05,0,0,0-1.49,1.49Z"/><path class="cls-1" d="M52.88,34.68h6.74a1.06,1.06,0,1,0,0-2.11H52.88a1.06,1.06,0,0,0,0,2.11Z"/><path class="cls-1" d="M52.88,39.17H64.11a1.06,1.06,0,1,0,0-2.11H52.88a1.06,1.06,0,0,0,0,2.11Z"/><path class="cls-1" d="M42,38.86a1.05,1.05,0,0,0,1.49,0l5.62-5.62a1.05,1.05,0,0,0-1.49-1.48l-4.87,4.87L40.15,34a1.05,1.05,0,0,0-1.49,1.49Z"/><path class="cls-1" d="M52.88,45.91h6.74a1.06,1.06,0,1,0,0-2.11H52.88a1.06,1.06,0,0,0,0,2.11Z"/><path class="cls-1" d="M52.88,50.4H64.11a1.06,1.06,0,1,0,0-2.11H52.88a1.06,1.06,0,0,0,0,2.11Z"/><path class="cls-1" d="M42,50.09a1.05,1.05,0,0,0,1.49,0l5.62-5.61A1.05,1.05,0,0,0,47.65,43l-4.87,4.87-2.63-2.63a1.05,1.05,0,0,0-1.49,1.49Z"/><rect class="cls-2" x="19.26" width="65" height="65"/><path class="cls-1" d="M8,92A3.13,3.13,0,0,1,7.54,96a4.34,4.34,0,0,1-2.8.81H0V85.45H4.58a4.22,4.22,0,0,1,2.71.78,2.66,2.66,0,0,1,1,2.2A2.61,2.61,0,0,1,7.78,90a2.79,2.79,0,0,1-1.32,1A2.79,2.79,0,0,1,8,92ZM1.3,90.51H4.37A3,3,0,0,0,6.3,90,1.78,1.78,0,0,0,7,88.49c0-1.3-.86-1.95-2.59-1.95H1.3Zm5.3,4.74a1.86,1.86,0,0,0,.63-1.54q0-2.1-2.61-2.1H1.3v4.14H4.62A3.13,3.13,0,0,0,6.6,95.25Z"/><path class="cls-1" d="M19.49,96.84l-1.25-2.93H12.29L11,96.84H9.66l5-11.39h1.15l5,11.39Zm-6.74-4h5L15.26,87Z"/><path class="cls-1" d="M24.2,96.27a4.63,4.63,0,0,1-1.83-2,7.85,7.85,0,0,1,0-6.21,4.67,4.67,0,0,1,1.83-2A5.43,5.43,0,0,1,27,85.32a6.29,6.29,0,0,1,2.17.36,4.66,4.66,0,0,1,1.7,1.08l-.5,1a5.5,5.5,0,0,0-1.6-1,5,5,0,0,0-1.76-.3,3.6,3.6,0,0,0-2.9,1.21,5.2,5.2,0,0,0-1,3.46,5.31,5.31,0,0,0,1,3.48A3.57,3.57,0,0,0,27,95.83a5,5,0,0,0,1.76-.3,5.5,5.5,0,0,0,1.6-1l.5,1a4.66,4.66,0,0,1-1.7,1.08A6.29,6.29,0,0,1,27,97,5.43,5.43,0,0,1,24.2,96.27Z"/><path class="cls-1" d="M42,96.84H40.27L34.4,91.42v5.42H33.09V85.45H34.4v5.23L40,85.45h1.68l-6,5.55Z"/><path class="cls-1" d="M51.78,90.91v5.28a6.76,6.76,0,0,1-1.76.56,11,11,0,0,1-2.21.22,5.8,5.8,0,0,1-2.93-.7,4.55,4.55,0,0,1-1.88-2,7.06,7.06,0,0,1-.65-3.14A6.93,6.93,0,0,1,43,88a4.56,4.56,0,0,1,1.86-2,5.53,5.53,0,0,1,2.85-.7,6.47,6.47,0,0,1,2.2.36,4.57,4.57,0,0,1,1.72,1.08l-.51,1a6.16,6.16,0,0,0-1.62-1,5.05,5.05,0,0,0-1.79-.31,3.71,3.71,0,0,0-3,1.21,5.27,5.27,0,0,0-1,3.48,5.19,5.19,0,0,0,1.06,3.53,3.88,3.88,0,0,0,3.07,1.21,8.42,8.42,0,0,0,2.74-.45V92H47.74v-1Z"/><path class="cls-1" d="M63.41,96.84H62l-1.41-3.79a1.63,1.63,0,0,0-.71-.94,2.85,2.85,0,0,0-1.29-.24H55.76v5h-1.3V85.45H59a4.3,4.3,0,0,1,2.83.82,2.88,2.88,0,0,1,1,2.35,3,3,0,0,1-.58,1.88,3.21,3.21,0,0,1-1.69,1.08,1.53,1.53,0,0,1,.85.42A2.73,2.73,0,0,1,62,93Zm-4.53-6.06c1.75,0,2.62-.72,2.62-2.15a1.9,1.9,0,0,0-.64-1.57,3.07,3.07,0,0,0-2-.52H55.76v4.24Z"/><path class="cls-1" d="M67.49,96.27a4.63,4.63,0,0,1-1.8-2,8,8,0,0,1,0-6.2,4.61,4.61,0,0,1,1.79-2A5.76,5.76,0,0,1,73,86a4.61,4.61,0,0,1,1.79,2,8,8,0,0,1,0,6.19,4.69,4.69,0,0,1-1.8,2,5.72,5.72,0,0,1-5.5,0Zm5.57-1.65a5.39,5.39,0,0,0,1-3.49,5.32,5.32,0,0,0-1-3.47,3.87,3.87,0,0,0-5.65,0,5.3,5.3,0,0,0-1,3.46,5.39,5.39,0,0,0,1,3.49,3.86,3.86,0,0,0,5.65,0Z"/><path class="cls-1" d="M78.89,95.81a4.71,4.71,0,0,1-1.15-3.43V85.45H79v7A3.45,3.45,0,0,0,79.86,95a3.18,3.18,0,0,0,2.41.85A3.11,3.11,0,0,0,84.66,95a3.49,3.49,0,0,0,.81-2.51v-7h1.31v6.93a4.67,4.67,0,0,1-1.15,3.42,5.46,5.46,0,0,1-6.74,0Z"/><path class="cls-1" d="M97.41,85.45h1.25V96.84h-1l-6.88-9.17v9.17H89.52V85.45h1l6.88,9.17Z"/><path class="cls-1" d="M101.46,85.45h3.82a5.75,5.75,0,0,1,4.23,1.48,6.66,6.66,0,0,1,0,8.42,5.72,5.72,0,0,1-4.23,1.49h-3.82Zm3.74,10.27a4.4,4.4,0,0,0,3.32-1.15,4.78,4.78,0,0,0,1.11-3.44q0-4.56-4.43-4.56h-2.43v9.15Z"/><path class="cls-1" d="M11,104.65H12.4L7.42,116H6.27l-5-11.39H2.69l4.17,9.73Z"/><path class="cls-1" d="M13.82,116V104.65H21v1.09h-5.9v4H20.7v1.1H15.12V115H21V116Z"/><path class="cls-1" d="M32.17,116H30.78l-1.4-3.79a1.64,1.64,0,0,0-.72-.94,2.78,2.78,0,0,0-1.28-.24H24.53v5h-1.3V104.65h4.53a4.25,4.25,0,0,1,2.82.82,2.86,2.86,0,0,1,1,2.35A3,3,0,0,1,31,109.7a3.11,3.11,0,0,1-1.69,1.08,1.47,1.47,0,0,1,.85.42,2.61,2.61,0,0,1,.6,1ZM27.65,110c1.75,0,2.62-.72,2.62-2.15a1.9,1.9,0,0,0-.64-1.57,3.1,3.1,0,0,0-2-.52H24.53V110Z"/><path class="cls-1" d="M34.32,116V104.65h1.31V116Z"/><path class="cls-1" d="M38.45,116V104.65h7v1.1H39.74v4h5.43v1.1H39.74V116Z"/><path class="cls-1" d="M47.46,116V104.65h1.31V116Z"/><path class="cls-1" d="M53.64,115.47a4.58,4.58,0,0,1-1.83-2,7.85,7.85,0,0,1,0-6.21,4.61,4.61,0,0,1,1.83-2,5.41,5.41,0,0,1,2.81-.71,6.29,6.29,0,0,1,2.17.36,4.66,4.66,0,0,1,1.7,1.08l-.5,1a5.62,5.62,0,0,0-1.61-1,4.87,4.87,0,0,0-1.75-.3,3.59,3.59,0,0,0-2.9,1.21,5.21,5.21,0,0,0-1,3.46,5.31,5.31,0,0,0,1,3.48A3.56,3.56,0,0,0,56.46,115a4.87,4.87,0,0,0,1.75-.3,5.41,5.41,0,0,0,1.61-1l.5,1a4.66,4.66,0,0,1-1.7,1.08,6.29,6.29,0,0,1-2.17.36A5.4,5.4,0,0,1,53.64,115.47Z"/><path class="cls-1" d="M70.94,116l-1.24-2.93h-6L62.48,116H61.12l5-11.39h1.15l5,11.39Zm-6.73-4h5l-2.51-5.86Z"/><path class="cls-1" d="M75.41,116V105.77h-4v-1.12H80.7v1.12h-4V116Z"/><path class="cls-1" d="M82.3,116V104.65h1.31V116Z"/><path class="cls-1" d="M88.45,115.47a4.63,4.63,0,0,1-1.8-2,8,8,0,0,1,0-6.2,4.61,4.61,0,0,1,1.79-2,5.76,5.76,0,0,1,5.54,0,4.61,4.61,0,0,1,1.79,2,8,8,0,0,1,0,6.19,4.69,4.69,0,0,1-1.8,2,5.72,5.72,0,0,1-5.5,0ZM94,113.82a5.39,5.39,0,0,0,1-3.49,5.32,5.32,0,0,0-1-3.47,3.87,3.87,0,0,0-5.65,0,5.3,5.3,0,0,0-1,3.46,5.39,5.39,0,0,0,1,3.49,3.86,3.86,0,0,0,5.65,0Z"/><path class="cls-1" d="M106.67,104.65h1.25V116h-1L100,106.87V116H98.78V104.65h1l6.88,9.17Z"/></g></g></svg>