<svg xmlns="http://www.w3.org/2000/svg" xmlns:xlink="http://www.w3.org/1999/xlink" viewBox="0 0 75.39 116.73"><defs><style>.cls-1,.cls-3{fill:none;}.cls-2{clip-path:url(#clip-path);}.cls-3{stroke:#fff;stroke-miterlimit:10;stroke-width:2px;}.cls-4{fill:#fff;}</style><clipPath id="clip-path"><rect class="cls-1" x="10.58" y="0.56" width="53.45" height="65"/></clipPath></defs><title>Asset 7</title><g id="Layer_2" data-name="Layer 2"><g id="Layer_2-2" data-name="Layer 2"><g class="cls-2"><path class="cls-3" d="M26.5,20.35a4.13,4.13,0,0,0,.92,2c.92,6.35,6.62,11.75,11.2,11.53,5.81-.29,9.94-6.56,10.87-11.53a5.18,5.18,0,0,0,1-2.23c.25-1.14.52-2.87-.17-3.77L49.94,16c.65-2.36,2.09-6.57-1.49-10.36-1.94-2.06-4.64-3.08-7.06-3.89-7.2-2.41-12.27,1-14.62,6.57-.16.39-1.25,2.9.06,7.68a1.37,1.37,0,0,0-.34.34c-.68.9-.24,2.83,0,4Z"/></g><path class="cls-3" d="M63.68,55.27c-.2-4.37-.44-11.3-4.25-17a8.55,8.55,0,0,0-3.68-2.46s-5.6-1.71-8.18-3.56l-1.18.81.13,7.67L39.44,59.65a1,1,0,0,1-2,0L30.39,40.76s.14-7.64.12-7.67-1.17-.81-1.17-.81c-2.58,1.85-8.18,3.56-8.18,3.56a8.64,8.64,0,0,0-3.68,2.46c-3.81,5.67-4.06,12.6-4.26,17-.14,3,.5,4.13,1.28,4.46,9.88,4,38,4,47.89,0,.81-.31,1.43-1.45,1.29-4.46Z"/><path class="cls-4" d="M38.71,36.35h-.32a9.74,9.74,0,0,1-3.08-.54l2.8,4.28-2.52,2.43,2.58,15.73a.29.29,0,0,0,.28.24.28.28,0,0,0,.28-.24l2.6-15.73L38.8,40.09l2.77-4.23a12.14,12.14,0,0,1-2.86.49Z"/><rect class="cls-1" x="4.8" y="0.56" width="65" height="65"/><path class="cls-4" d="M8.94,97.4H7.55L6.14,93.61a1.56,1.56,0,0,0-.71-.94,2.78,2.78,0,0,0-1.29-.25H1.3v5H0V86H4.53a4.33,4.33,0,0,1,2.82.81,2.89,2.89,0,0,1,1,2.36,3,3,0,0,1-.59,1.88,3.23,3.23,0,0,1-1.69,1.08,1.5,1.5,0,0,1,.85.42,2.6,2.6,0,0,1,.59,1ZM4.42,91.34c1.75,0,2.62-.72,2.62-2.15a1.89,1.89,0,0,0-.64-1.57,3.1,3.1,0,0,0-2-.52H1.3v4.24Z"/><path class="cls-4" d="M11.09,97.4V86h7.2V87.1H12.38v4H18v1.1H12.38v4.14h5.91V97.4Z"/><path class="cls-4" d="M23.06,97.4V87.13h-4V86h9.26v1.12h-4V97.4Z"/><path class="cls-4" d="M37.33,97.4l-1.25-2.93H30.13L28.86,97.4H27.5l5-11.39h1.15l5,11.39Zm-6.74-4h5L33.1,87.53Z"/><path class="cls-4" d="M40.37,97.4V86h1.31V97.4Z"/><path class="cls-4" d="M52.38,86h1.25V97.4h-1l-6.88-9.17V97.4H44.5V86h1l6.88,9.17Z"/><path class="cls-4" d="M56.43,97.4V86h7.2V87.1h-5.9v4h5.58v1.1H57.73v4.14h5.9V97.4Z"/><path class="cls-4" d="M65.84,86h3.82a5.76,5.76,0,0,1,4.24,1.48,6.69,6.69,0,0,1,0,8.42,5.77,5.77,0,0,1-4.24,1.49H65.84Zm3.74,10.27a4.39,4.39,0,0,0,3.32-1.15A4.79,4.79,0,0,0,74,91.69q0-4.56-4.44-4.56H67.15v9.15Z"/><path class="cls-4" d="M5.7,115.29l.49-1a5.61,5.61,0,0,0,1.73,1,6.37,6.37,0,0,0,2.05.3,3.59,3.59,0,0,0,2.12-.54,1.75,1.75,0,0,0,.74-1.51,1.26,1.26,0,0,0-.36-.93,2.49,2.49,0,0,0-.94-.57,12.48,12.48,0,0,0-1.56-.43A14.13,14.13,0,0,1,7.81,111a3.32,3.32,0,0,1-1.38-1,2.49,2.49,0,0,1-.53-1.65,2.89,2.89,0,0,1,.52-1.72,3.28,3.28,0,0,1,1.44-1.16,5.35,5.35,0,0,1,2.19-.42,6.41,6.41,0,0,1,2.21.37A4.52,4.52,0,0,1,14,106.52l-.51,1a5.49,5.49,0,0,0-1.62-1,5,5,0,0,0-1.8-.32,3.36,3.36,0,0,0-2.08.57,1.85,1.85,0,0,0-.75,1.56,1.44,1.44,0,0,0,.65,1.3,6.93,6.93,0,0,0,2,.75,22.25,22.25,0,0,1,2.31.65,3.34,3.34,0,0,1,1.4.89,2.25,2.25,0,0,1,.56,1.59,2.86,2.86,0,0,1-.51,1.69,3.27,3.27,0,0,1-1.47,1.13,5.66,5.66,0,0,1-2.23.4A6.06,6.06,0,0,1,5.7,115.29Z"/><path class="cls-4" d="M16.3,116.6V105.21h7.2v1.09H17.6v4h5.58v1.1H17.6v4.14h5.9v1.09Z"/><path class="cls-4" d="M34.19,116.6l-1.25-2.93H27l-1.26,2.93H24.37l5-11.39h1.15l5,11.39Zm-6.73-4h5L30,106.73Z"/><path class="cls-4" d="M46.18,116.6h-1.4l-1.4-3.79a1.6,1.6,0,0,0-.72-.94,2.78,2.78,0,0,0-1.28-.24H38.53v5h-1.3V105.21h4.53a4.25,4.25,0,0,1,2.82.82,2.86,2.86,0,0,1,1,2.35,3,3,0,0,1-.59,1.88,3.24,3.24,0,0,1-1.68,1.08,1.47,1.47,0,0,1,.84.42,2.61,2.61,0,0,1,.6,1Zm-4.53-6.06c1.75,0,2.62-.72,2.62-2.15a1.89,1.89,0,0,0-.64-1.57,3.08,3.08,0,0,0-2-.52H38.53v4.24Z"/><path class="cls-4" d="M50.3,116a4.66,4.66,0,0,1-1.84-2,7.16,7.16,0,0,1-.64-3.11,7.05,7.05,0,0,1,.64-3.1,4.58,4.58,0,0,1,1.84-2,5.39,5.39,0,0,1,2.8-.71,6.25,6.25,0,0,1,2.17.36A4.62,4.62,0,0,1,57,106.52l-.5,1a5.41,5.41,0,0,0-1.61-1,4.91,4.91,0,0,0-1.75-.3,3.58,3.58,0,0,0-2.9,1.21,5.2,5.2,0,0,0-1,3.46,5.31,5.31,0,0,0,1,3.48,3.56,3.56,0,0,0,2.91,1.22,4.91,4.91,0,0,0,1.75-.3,5.41,5.41,0,0,0,1.61-1l.5,1a4.62,4.62,0,0,1-1.71,1.08,6.25,6.25,0,0,1-2.17.36A5.49,5.49,0,0,1,50.3,116Z"/><path class="cls-4" d="M67.31,105.21h1.31V116.6H67.31v-5.23H60.48v5.23h-1.3V105.21h1.3v5.06h6.83Z"/></g></g></svg>