<svg xmlns="http://www.w3.org/2000/svg" viewBox="0 0 68.51 94.26"><defs><style>.cls-1{fill:#fff;}.cls-2{fill:none;}</style></defs><title>Asset 12</title><g id="Layer_2" data-name="Layer 2"><g id="Layer_2-2" data-name="Layer 2"><path class="cls-1" d="M56.68,0H16.84A6.85,6.85,0,0,0,10,6.84V35c-1.37-1.33-1.33-1.31-1.46-1.4a2.44,2.44,0,0,0-3.78,2V48.77a1,1,0,0,0,1.91,0V35.65a.53.53,0,0,1,.53-.53.46.46,0,0,1,.23.05l0,0c.12.1.63.6,2.64,2.57a2.42,2.42,0,0,0,2.82.11l4.23-2.77a.53.53,0,0,1,.57,0c4,2.47,4.34,3.17,5.57,3.17a2.45,2.45,0,0,0,1.34-.4l4.23-2.77a.55.55,0,0,1,.58,0c4,2.48,4.34,3.17,5.56,3.17a2.34,2.34,0,0,0,1.49-.51l2.66-2.6a.52.52,0,0,1,.75.48V58.83a6.16,6.16,0,0,0,1.71,4.25H10.93a4.26,4.26,0,0,1-4.26-4.25V52.6a1,1,0,1,0-1.91,0v6.23A6.17,6.17,0,0,0,11,65H46a6.38,6.38,0,0,0,6.38-6.38v-7h5.5a5,5,0,0,0,5-5V6.17A6.18,6.18,0,0,0,56.68,0ZM50.86,3.92c-.64,1.63-.36,2.77-.43,4.21,0,.42,0,41.72,0,50.49A4.46,4.46,0,0,1,46,63.08a4.27,4.27,0,0,1-4.17-4.25V35.65a2.45,2.45,0,0,0-2.45-2.45,2.35,2.35,0,0,0-1.48.52l-2.66,2.59a.52.52,0,0,1-.51,0c-4-2.48-4.35-3.17-5.57-3.17s-1.59.69-5.57,3.17a.55.55,0,0,1-.58,0c-4-2.47-4.34-3.17-5.56-3.17s-1.6.69-5.51,3.13V6.84a4.93,4.93,0,0,1,4.92-4.92h35.3a6.18,6.18,0,0,0-1.28,2Zm10.07,42.7a3.08,3.08,0,0,1-3.07,3.07h-5.5s0-43.66,0-43.95A4.15,4.15,0,0,1,53,4a4.31,4.31,0,0,1,8,2.21Z"/><path class="cls-1" d="M21.17,25.09H16.54a1,1,0,0,0,0,1.91h4.63a1,1,0,1,0,0-1.91Z"/><path class="cls-1" d="M46,25.09H25A1,1,0,1,0,25,27H46a1,1,0,1,0,0-1.91Z"/><path class="cls-1" d="M46,29.43H25a1,1,0,0,0,0,1.92H46a1,1,0,0,0,0-1.92Z"/><path class="cls-1" d="M21.17,29.43H16.54a1,1,0,0,0,0,1.92h4.63a1,1,0,1,0,0-1.92Z"/><path class="cls-1" d="M31.65,12h0c-1.32-.51-2.43-.76-2.43-2s.91-1.58,2.08-1.58c1.51,0,1.87.66,2.43.66A1.05,1.05,0,0,0,34.66,8c0-1.08-1.93-1.38-2.69-1.46V5.8a1,1,0,1,0-2.07,0v.87a3.29,3.29,0,0,0-2.7,3.43c0,4.55,5.76,2.82,5.76,6.21,0,1.62-1.17,2-2.15,2-2.11,0-2.12-1.44-3-1.44a1.1,1.1,0,0,0-1,1.08c0,.86,1.2,1.93,3,2.23v.72a1,1,0,0,0,2.07,0v-.75a3.62,3.62,0,0,0,3-3.9c0-2.79-1.78-3.59-3.33-4.17Z"/><rect class="cls-2" x="1.3" width="65" height="65"/><path class="cls-1" d="M0,82.74H4.54a4.11,4.11,0,0,1,2.75.84,3.27,3.27,0,0,1,0,4.68,4.05,4.05,0,0,1-2.74.86H1.31v5H0ZM4.43,88a2.92,2.92,0,0,0,1.91-.54A2,2,0,0,0,7,85.92a2,2,0,0,0-.64-1.56,2.92,2.92,0,0,0-1.91-.54H1.31V88Z"/><path class="cls-1" d="M17.9,94.13,16.66,91.2h-6L9.44,94.13H8.08l5-11.39h1.15l5,11.39Zm-6.73-4h5l-2.51-5.85Z"/><path class="cls-1" d="M28.27,82.74l-4.48,6.78v4.61H22.48V89.5L18,82.74h1.54l3.61,5.6,3.62-5.6Z"/><path class="cls-1" d="M38.35,94.13H37l-1.41-3.79a1.66,1.66,0,0,0-.71-1,2.79,2.79,0,0,0-1.29-.24H30.7v5H29.41V82.74h4.53a4.35,4.35,0,0,1,2.82.81,2.88,2.88,0,0,1,1,2.35,3,3,0,0,1-.58,1.88,3.11,3.11,0,0,1-1.69,1.08,1.61,1.61,0,0,1,.85.43,2.77,2.77,0,0,1,.59,1Zm-4.53-6.07c1.75,0,2.63-.71,2.63-2.14a2,2,0,0,0-.64-1.58,3.18,3.18,0,0,0-2-.52H30.7v4.24Z"/><path class="cls-1" d="M42.43,93.55a4.61,4.61,0,0,1-1.8-2,7.12,7.12,0,0,1-.63-3.1,7.23,7.23,0,0,1,.62-3.1,4.61,4.61,0,0,1,1.8-2,5.81,5.81,0,0,1,5.53,0,4.53,4.53,0,0,1,1.79,2,7.92,7.92,0,0,1,0,6.19,4.79,4.79,0,0,1-1.8,2,5.16,5.16,0,0,1-2.76.72A5.24,5.24,0,0,1,42.43,93.55ZM48,91.9a6.53,6.53,0,0,0,0-7,3.9,3.9,0,0,0-5.66,0,6.48,6.48,0,0,0,0,7,3.84,3.84,0,0,0,5.65,0Z"/><path class="cls-1" d="M52.77,94.13V82.74h1.31V93h5.71v1.12Z"/><path class="cls-1" d="M61.49,94.13V82.74H62.8V93h5.71v1.12Z"/></g></g></svg>