<svg xmlns="http://www.w3.org/2000/svg" viewBox="0 0 65 116.17"><defs><style>.cls-1{fill:#fff;}.cls-2{fill:none;}</style></defs><title>Asset 8</title><g id="Layer_2" data-name="Layer 2"><g id="Layer_2-2" data-name="Layer 2"><path class="cls-1" d="M51.41,26.64H46.73V14.23a14.23,14.23,0,1,0-28.46,0V26.64H13.59A4.7,4.7,0,0,0,8.9,31.33v29A4.69,4.69,0,0,0,13.59,65H51.41a4.69,4.69,0,0,0,4.69-4.69v-29a4.7,4.7,0,0,0-4.69-4.69Zm-30-12.41a11.1,11.1,0,1,1,22.2,0V26.64H21.4ZM53,60.31a1.57,1.57,0,0,1-1.57,1.57H13.59A1.57,1.57,0,0,1,12,60.31v-29a1.57,1.57,0,0,1,1.57-1.56H51.41A1.57,1.57,0,0,1,53,31.33Z"/><path class="cls-1" d="M30.88,50.73A5,5,0,0,1,28.06,52v2.06H26.17v-2a8.46,8.46,0,0,1-2.31-.48A6.11,6.11,0,0,1,22,50.51l.82-1.74a6.33,6.33,0,0,0,3.49,1.39V46.3a12.55,12.55,0,0,1-2.1-.7,3.66,3.66,0,0,1-1.43-1.13,3.15,3.15,0,0,1-.57-2,3.4,3.4,0,0,1,.5-1.83,4,4,0,0,1,1.4-1.37,5.13,5.13,0,0,1,2.07-.7V36.55h1.89v2a7.86,7.86,0,0,1,2,.52,5.24,5.24,0,0,1,1.59,1l-.81,1.74a5.81,5.81,0,0,0-2.94-1.33v4a13.14,13.14,0,0,1,2.06.67,3.49,3.49,0,0,1,1.38,1.09,3,3,0,0,1,.56,1.89A3.42,3.42,0,0,1,30.88,50.73ZM25,43.43a3.53,3.53,0,0,0,1.26.68V40.52a2.38,2.38,0,0,0-1.25.65,1.69,1.69,0,0,0-.46,1.21A1.35,1.35,0,0,0,25,43.43Zm4.08,6a1.73,1.73,0,0,0,.41-1.18,1.16,1.16,0,0,0-.41-.93,3.38,3.38,0,0,0-1.19-.6v3.33A2.16,2.16,0,0,0,29.12,49.45Z"/><path class="cls-1" d="M42,50.73A5,5,0,0,1,39.2,52v2.06H37.31v-2A8.46,8.46,0,0,1,35,51.57a6.11,6.11,0,0,1-1.87-1.06L34,48.77a6.33,6.33,0,0,0,3.49,1.39V46.3a12.55,12.55,0,0,1-2.1-.7,3.66,3.66,0,0,1-1.43-1.13,3.15,3.15,0,0,1-.57-2,3.4,3.4,0,0,1,.5-1.83,4,4,0,0,1,1.4-1.37,5.13,5.13,0,0,1,2.07-.7V36.55H39.2v2a7.86,7.86,0,0,1,2,.52,5.24,5.24,0,0,1,1.59,1L42,41.84a5.81,5.81,0,0,0-2.94-1.33v4a13.14,13.14,0,0,1,2.06.67,3.49,3.49,0,0,1,1.38,1.09,3,3,0,0,1,.55,1.89A3.41,3.41,0,0,1,42,50.73Zm-5.84-7.3a3.53,3.53,0,0,0,1.26.68V40.52a2.38,2.38,0,0,0-1.25.65,1.69,1.69,0,0,0-.46,1.21A1.35,1.35,0,0,0,36.18,43.43Zm4.08,6a1.73,1.73,0,0,0,.41-1.18,1.16,1.16,0,0,0-.41-.93,3.38,3.38,0,0,0-1.19-.6v3.33A2.16,2.16,0,0,0,40.26,49.45Z"/><rect class="cls-2" width="65" height="65"/><path class="cls-1" d="M12.8,96.84V85.45h7v1.1H14.1v4h5.42v1.1H14.1v5.23Z"/><path class="cls-1" d="M21.81,96.84V85.45h1.31V96.84Z"/><path class="cls-1" d="M30.5,91l4.34,5.82H33.28L29.75,92l-3.52,4.83H24.66L29,91l-4.13-5.55h1.57L29.76,90l3.33-4.58h1.55Z"/><path class="cls-1" d="M36.37,96.84V85.45h7.2v1.09h-5.9v4h5.58v1.1H37.67v4.14h5.9v1.09Z"/><path class="cls-1" d="M45.78,85.45H49.6a5.76,5.76,0,0,1,4.24,1.48,5.71,5.71,0,0,1-4.24,9.91H45.78Zm3.74,10.27a4.39,4.39,0,0,0,3.32-1.15A4.78,4.78,0,0,0,54,91.13q0-4.56-4.44-4.56H47.09v9.15Z"/><path class="cls-1" d="M16.07,115.47a4.58,4.58,0,0,1-1.83-2,7.85,7.85,0,0,1,0-6.21,4.61,4.61,0,0,1,1.83-2,5.41,5.41,0,0,1,2.81-.71,6.2,6.2,0,0,1,2.16.36A4.62,4.62,0,0,1,22.75,106l-.5,1a5.62,5.62,0,0,0-1.61-1,4.87,4.87,0,0,0-1.75-.3,3.59,3.59,0,0,0-2.9,1.21,5.21,5.21,0,0,0-1,3.46,5.31,5.31,0,0,0,1,3.48A3.56,3.56,0,0,0,18.89,115a4.87,4.87,0,0,0,1.75-.3,5.41,5.41,0,0,0,1.61-1l.5,1A4.62,4.62,0,0,1,21,115.81a6.2,6.2,0,0,1-2.16.36A5.4,5.4,0,0,1,16.07,115.47Z"/><path class="cls-1" d="M26.8,115.47a4.63,4.63,0,0,1-1.8-2,7,7,0,0,1-.64-3.09,7.13,7.13,0,0,1,.63-3.11,4.55,4.55,0,0,1,1.79-2,5.76,5.76,0,0,1,5.54,0,4.68,4.68,0,0,1,1.79,2,7.25,7.25,0,0,1,.62,3.09,7.06,7.06,0,0,1-.63,3.1,4.69,4.69,0,0,1-1.8,2,5.24,5.24,0,0,1-2.75.71A5.18,5.18,0,0,1,26.8,115.47Zm5.56-1.65a6.53,6.53,0,0,0,0-7,3.46,3.46,0,0,0-2.82-1.22,3.44,3.44,0,0,0-2.83,1.23,5.25,5.25,0,0,0-1,3.46,5.34,5.34,0,0,0,1,3.49,3.44,3.44,0,0,0,2.83,1.23A3.43,3.43,0,0,0,32.36,113.82Z"/><path class="cls-1" d="M36.49,114.73l.5-1a5.5,5.5,0,0,0,1.73,1,6.26,6.26,0,0,0,2,.3,3.55,3.55,0,0,0,2.12-.54,1.74,1.74,0,0,0,.75-1.51,1.26,1.26,0,0,0-.36-.93,2.54,2.54,0,0,0-1-.57,14.49,14.49,0,0,0-1.56-.43,14.85,14.85,0,0,1-2.16-.63,3.26,3.26,0,0,1-1.37-1,2.49,2.49,0,0,1-.53-1.65,3,3,0,0,1,.51-1.72,3.32,3.32,0,0,1,1.45-1.16,5.27,5.27,0,0,1,2.18-.42,6.37,6.37,0,0,1,2.21.37A4.69,4.69,0,0,1,44.78,106l-.51,1a5.88,5.88,0,0,0-1.63-1,5,5,0,0,0-1.8-.32,3.38,3.38,0,0,0-2.08.57,1.85,1.85,0,0,0-.75,1.56,1.45,1.45,0,0,0,.66,1.3,6.58,6.58,0,0,0,2,.75,23.32,23.32,0,0,1,2.32.65,3.3,3.3,0,0,1,1.39.89A2.21,2.21,0,0,1,45,113a2.87,2.87,0,0,1-.52,1.69A3.29,3.29,0,0,1,43,115.77a5.69,5.69,0,0,1-2.23.4A6.1,6.1,0,0,1,36.49,114.73Z"/><path class="cls-1" d="M49.61,116V105.77h-4v-1.12h9.27v1.12h-4V116Z"/></g></g></svg>