<svg xmlns="http://www.w3.org/2000/svg" xmlns:xlink="http://www.w3.org/1999/xlink" viewBox="0 0 86.3 113.46"><defs><style>.cls-1{fill:none;}.cls-2{fill:#fff;}.cls-3{clip-path:url(#clip-path);}</style><clipPath id="clip-path"><rect class="cls-1" x="17.21" width="59.58" height="65"/></clipPath></defs><title>Asset 14</title><g id="Layer_2" data-name="Layer 2"><g id="Layer_2-2" data-name="Layer 2"><path class="cls-2" d="M65,62.83H19.54V2.17H54.21V13H65v3.25h2.17V11.47L55.74,0H17.38V65H67.21V46.58H65ZM56.38,3.7l7.13,7.13H56.38Z"/><rect class="cls-2" x="23.88" y="6.5" width="2.17" height="2.17"/><rect class="cls-2" x="28.21" y="6.5" width="21.67" height="2.17"/><rect class="cls-2" x="23.88" y="10.83" width="26" height="2.17"/><rect class="cls-2" x="23.88" y="15.17" width="36.83" height="2.17"/><rect class="cls-2" x="23.88" y="19.5" width="36.83" height="2.17"/><rect class="cls-2" x="23.88" y="23.83" width="36.83" height="2.17"/><rect class="cls-2" x="23.88" y="28.17" width="36.83" height="2.17"/><rect class="cls-2" x="23.88" y="32.5" width="32.5" height="2.17"/><rect class="cls-2" x="23.88" y="36.83" width="32.5" height="2.17"/><rect class="cls-2" x="23.88" y="41.17" width="30.33" height="2.17"/><rect class="cls-2" x="23.88" y="45.5" width="28.17" height="2.17"/><g class="cls-3"><path class="cls-2" d="M43.81,55.77a2.86,2.86,0,0,0,2-.76c.28-.22.36-.28.63-.28s.35.06.62.28A3,3,0,0,0,51,55c.27-.22.36-.28.63-.28s.35.06.62.28a3,3,0,0,0,2,.76V53.6c-.27,0-.35-.06-.62-.28a3,3,0,0,0-4,0c-.27.22-.35.28-.62.28s-.36-.06-.63-.28a3,3,0,0,0-4,0c-.27.22-.35.28-.62.28s-.35-.06-.62-.28a3,3,0,0,0-2-.76v2.17c.27,0,.35.06.62.28a2.9,2.9,0,0,0,2,.76Z"/><path class="cls-2" d="M74.71,15l-2-.89a3.25,3.25,0,0,0-4.29,1.63h0L54.06,47.68l1.57,7L62,51.24,76.34,19.3A3.26,3.26,0,0,0,74.71,15ZM57.12,51.43l-.39-1.76,2,.89ZM60.58,49l-4-1.78L68.18,21.57l4,1.78ZM74.36,18.42l-1.33,3-4-1.78,1.34-3a1.07,1.07,0,0,1,1.43-.54l2,.88a1.1,1.1,0,0,1,.54,1.44Z"/></g><rect class="cls-1" x="14.5" width="65" height="65"/><path class="cls-2" d="M2.47,93.55a4.67,4.67,0,0,1-1.83-2A7,7,0,0,1,0,88.42a6.92,6.92,0,0,1,.64-3.1,4.7,4.7,0,0,1,1.83-2,5.43,5.43,0,0,1,2.81-.7A6.29,6.29,0,0,1,7.45,83a4.66,4.66,0,0,1,1.7,1.08l-.49,1a5.54,5.54,0,0,0-1.61-1,4.91,4.91,0,0,0-1.75-.31A3.62,3.62,0,0,0,2.39,85a5.18,5.18,0,0,0-1,3.46,5.31,5.31,0,0,0,1,3.48A3.63,3.63,0,0,0,5.3,93.12a4.91,4.91,0,0,0,1.75-.3,5.76,5.76,0,0,0,1.61-1l.49,1a4.66,4.66,0,0,1-1.7,1.08,6.29,6.29,0,0,1-2.17.36A5.43,5.43,0,0,1,2.47,93.55Z"/><path class="cls-2" d="M13.2,93.55a4.61,4.61,0,0,1-1.8-2,7.12,7.12,0,0,1-.63-3.1,7.23,7.23,0,0,1,.62-3.1,4.59,4.59,0,0,1,1.79-2,5.26,5.26,0,0,1,2.77-.7,5.26,5.26,0,0,1,2.77.7,4.53,4.53,0,0,1,1.79,2,7.86,7.86,0,0,1,0,6.19,4.66,4.66,0,0,1-1.8,2,5.13,5.13,0,0,1-2.75.72A5.24,5.24,0,0,1,13.2,93.55Zm5.57-1.65a6.53,6.53,0,0,0,0-7A3.46,3.46,0,0,0,16,83.73,3.48,3.48,0,0,0,13.12,85a6.48,6.48,0,0,0,0,7A3.44,3.44,0,0,0,16,93.14,3.42,3.42,0,0,0,18.77,91.9Z"/><path class="cls-2" d="M31.42,82.74h1.25V94.13h-1L24.77,85v9.17H23.54V82.74h1l6.88,9.16Z"/><path class="cls-2" d="M38.22,94.13V83.86h-4V82.74h9.27v1.12h-4V94.13Z"/><path class="cls-2" d="M54.06,94.13H52.67l-1.41-3.79a1.66,1.66,0,0,0-.71-1,2.79,2.79,0,0,0-1.29-.24H46.42v5h-1.3V82.74h4.53a4.35,4.35,0,0,1,2.82.81,2.88,2.88,0,0,1,1,2.35,3,3,0,0,1-.59,1.88,3.11,3.11,0,0,1-1.69,1.08,1.57,1.57,0,0,1,.85.43,2.63,2.63,0,0,1,.59,1Zm-4.52-6.07c1.74,0,2.62-.71,2.62-2.14a1.92,1.92,0,0,0-.64-1.58,3.17,3.17,0,0,0-2-.52H46.42v4.24Z"/><path class="cls-2" d="M64.82,94.13,63.57,91.2h-6l-1.27,2.93H55l5-11.39h1.15l5,11.39Zm-6.74-4h5l-2.51-5.85Z"/><path class="cls-2" d="M69.53,93.55a4.55,4.55,0,0,1-1.83-2,7,7,0,0,1-.64-3.11,6.92,6.92,0,0,1,.64-3.1,4.58,4.58,0,0,1,1.83-2,5.4,5.4,0,0,1,2.81-.7A6.2,6.2,0,0,1,74.5,83a4.62,4.62,0,0,1,1.71,1.08l-.5,1a5.41,5.41,0,0,0-1.61-1,4.87,4.87,0,0,0-1.75-.31A3.6,3.6,0,0,0,69.45,85a5.18,5.18,0,0,0-1,3.46,5.31,5.31,0,0,0,1,3.48,3.59,3.59,0,0,0,2.91,1.22,4.87,4.87,0,0,0,1.75-.3,5.62,5.62,0,0,0,1.61-1l.5,1A4.62,4.62,0,0,1,74.5,93.9a6.2,6.2,0,0,1-2.16.36A5.41,5.41,0,0,1,69.53,93.55Z"/><path class="cls-2" d="M81,94.13V83.86H77V82.74H86.3v1.12h-4V94.13Z"/><path class="cls-2" d="M5.74,112l.49-1A5.38,5.38,0,0,0,8,112a6.1,6.1,0,0,0,2.05.31,3.57,3.57,0,0,0,2.12-.54,1.74,1.74,0,0,0,.74-1.51,1.27,1.27,0,0,0-.36-.94,2.49,2.49,0,0,0-.94-.57c-.39-.13-.91-.28-1.56-.43a14.25,14.25,0,0,1-2.16-.62,3.48,3.48,0,0,1-1.38-1,2.5,2.5,0,0,1-.53-1.66,3,3,0,0,1,.52-1.72,3.42,3.42,0,0,1,1.44-1.16,5.52,5.52,0,0,1,2.19-.41,6.41,6.41,0,0,1,2.21.37A4.45,4.45,0,0,1,14,103.25l-.51,1a5.49,5.49,0,0,0-1.62-1,4.8,4.8,0,0,0-1.8-.32A3.36,3.36,0,0,0,8,103.5a1.85,1.85,0,0,0-.75,1.56,1.46,1.46,0,0,0,.65,1.29,6.4,6.4,0,0,0,2,.75c1,.24,1.75.45,2.31.65a3.46,3.46,0,0,1,1.4.9,2.25,2.25,0,0,1,.56,1.59,2.88,2.88,0,0,1-.51,1.69,3.34,3.34,0,0,1-1.47,1.13,5.81,5.81,0,0,1-2.23.4A6.06,6.06,0,0,1,5.74,112Z"/><path class="cls-2" d="M18.86,113.33V103.06h-4v-1.12h9.26v1.12h-4v10.27Z"/><path class="cls-2" d="M33.13,113.33l-1.25-2.93H25.93l-1.27,2.93H23.3l5-11.39h1.15l5,11.39Zm-6.74-4h5l-2.52-5.85Z"/><path class="cls-2" d="M36.17,113.33V101.94h7V103H37.46V107h5.43v1.11H37.46v5.23Z"/><path class="cls-2" d="M45.18,113.33V101.94h7V103H46.47V107H51.9v1.11H46.47v5.23Z"/><path class="cls-2" d="M54.18,113.33V101.94H55.5v11.39Z"/><path class="cls-2" d="M66.2,101.94h1.25v11.39h-1l-6.88-9.17v9.17H58.31V101.94h1l6.88,9.16Z"/><path class="cls-2" d="M79.26,107.39v5.28a6.38,6.38,0,0,1-1.76.57,11.75,11.75,0,0,1-2.21.22,5.91,5.91,0,0,1-2.93-.7,4.52,4.52,0,0,1-1.88-2,7.84,7.84,0,0,1,0-6.25,4.62,4.62,0,0,1,1.86-2,5.62,5.62,0,0,1,2.85-.69,6.47,6.47,0,0,1,2.2.36,4.57,4.57,0,0,1,1.72,1.08l-.51,1a6.16,6.16,0,0,0-1.62-1,4.84,4.84,0,0,0-1.79-.31,3.68,3.68,0,0,0-3,1.21,5.24,5.24,0,0,0-1,3.48,5.16,5.16,0,0,0,1.06,3.52,3.84,3.84,0,0,0,3.07,1.21,8.42,8.42,0,0,0,2.74-.45v-3.47H75.22v-1Z"/></g></g></svg>