<svg xmlns="http://www.w3.org/2000/svg" xmlns:xlink="http://www.w3.org/1999/xlink" viewBox="0 0 125.66 94.26"><defs><style>.cls-1{fill:none;}.cls-2{clip-path:url(#clip-path);}.cls-3{fill:#fff;}</style><clipPath id="clip-path"><rect class="cls-1" x="30.02" width="64.85" height="65"/></clipPath></defs><title>Asset 13</title><g id="Layer_2" data-name="Layer 2"><g id="Layer_2-2" data-name="Layer 2"><g class="cls-2"><path class="cls-3" d="M86.79,33.17A8.43,8.43,0,0,0,75.3,28.79V25.91a12,12,0,0,0-5.45-10l-1.3-2,.46-.44a10.39,10.39,0,0,0,2.6-5.78,5.89,5.89,0,0,0,0-1.92,3.86,3.86,0,0,0-.34-1,3,3,0,0,0-1.47-1.39A7.7,7.7,0,0,0,66.43.75,7.65,7.65,0,0,0,57.28,3.1a11,11,0,0,1-3.65,2.81l-2,.88,2,.83c.64.27,1.26.5,1.87.7a7.86,7.86,0,0,0,2.72,5.62l-1.3,2a11.94,11.94,0,0,0-5.45,10v4.2a8.43,8.43,0,0,0-13.44,3.06c-4.87,1.58-8,3.75-8,6.46V44.4c0,1.91,1.59,3.64,4.65,5.12a12.72,12.72,0,0,0-1.61,6.2v9.07H91.77V55.72a12.61,12.61,0,0,0-1.61-6.2c3.07-1.48,4.66-3.21,4.66-5.12V39.63c0-2.71-3.17-4.88-8-6.46Zm.57,2.18c4.06,1.5,5.59,3.13,5.59,4.28,0,1.32-2,3.29-7.66,5a12.39,12.39,0,0,0-2.06-.94,8.43,8.43,0,0,0,4.2-7.29,8.59,8.59,0,0,0-.07-1ZM79,29.81a6.57,6.57,0,1,1-6.56,6.56A6.57,6.57,0,0,1,79,29.81ZM69.59,18a10.1,10.1,0,0,1,3.84,7.89V30a6,6,0,0,0-.51.5c-.82-.08-1.65-.15-2.48-.21V26.26H68.57v3.95c-1.14-.07-2.28-.11-3.43-.14l.9-.87V22Zm-6.2-.77L62.1,15.77a7.84,7.84,0,0,0,1.29.1,8,8,0,0,0,1.3-.1Zm.78,5.36v5.8l-.78.75-.78-.75V22.62h1.56Zm-1.92-3.82-.74,1.29L58.6,16.79l.82-1.25Zm5.11-3.25.83,1.24-2.92,3.3-.73-1.29ZM58.75,4.25a5.85,5.85,0,0,1,7-1.78,6.11,6.11,0,0,1,2.69,2.31l.21.29.34.07a1.1,1.1,0,0,1,.62.6,3.37,3.37,0,0,1,.15,1.93,5.88,5.88,0,0,0-1-1.85l-.53-.56-.65.42A11.49,11.49,0,0,1,63.83,7a15.29,15.29,0,0,1-7.62-.46,11,11,0,0,0,2.54-2.32ZM57.44,8.82A16,16,0,0,0,67.71,7.7a16,16,0,0,1,1,3.11,6,6,0,0,1-11.26-2ZM53.36,25.91A10,10,0,0,1,57.2,18l3.54,4V29.2l.87.84c-1.13,0-2.26,0-3.39.08V26.26H56.35V30.2c-1,.06-2,.12-3,.21Zm9.06,6c3.17,0,6.26.12,9.2.37a8.43,8.43,0,0,0,3.13,11.38,13,13,0,0,0-5.22,3.47c-2.3.15-4.68.22-7.11.22s-4.81-.07-7.12-.22a12.82,12.82,0,0,0-5.22-3.47,8.42,8.42,0,0,0,3.14-11.38c2.94-.25,6-.37,9.2-.37Zm-16.58-2.1a6.57,6.57,0,1,1-6.56,6.56,6.57,6.57,0,0,1,6.56-6.56Zm-8.36,5.54a8.59,8.59,0,0,0-.07,1,8.43,8.43,0,0,0,4.2,7.29,12.39,12.39,0,0,0-2.06.94c-5.63-1.68-7.66-3.65-7.66-5,0-1.15,1.53-2.78,5.59-4.28Zm-5.59,9V43A18,18,0,0,0,37.61,46a12.79,12.79,0,0,0-1.9,2c-2.75-1.29-3.82-2.59-3.82-3.54ZM56.76,62.92H53.37V56.1H51.51v6.82H40.18V56.1H38.31v6.82H34.93v-7.2a10.92,10.92,0,0,1,21.83,0Zm9.45-7.2v7.2H58.63v-7.2a13.38,13.38,0,0,0-.13-1.8c1.29,0,2.6.07,3.92.07s2.63,0,3.92-.07a11.92,11.92,0,0,0-.13,1.8ZM66.75,52c-1.42.05-2.87.08-4.33.08s-2.91,0-4.34-.08a12.5,12.5,0,0,0-1.32-3c1.88.1,3.78.14,5.66.14s3.78,0,5.66-.14a13,13,0,0,0-1.33,3ZM86.52,62.92V56.1H84.65v6.82H73.33V56.1H71.46v6.82H68.08v-7.2a10.91,10.91,0,0,1,21.82,0v7.2ZM93,44.4c0,1-1.08,2.25-3.83,3.54a12.34,12.34,0,0,0-1.9-2A18,18,0,0,0,93,43Z"/></g><rect class="cls-3" x="85.64" y="20.8" width="1.87" height="2.07"/><rect class="cls-3" x="82.92" y="10.47" width="1.87" height="2.07"/><rect class="cls-3" x="89.1" y="4.04" width="1.87" height="2.07"/><rect class="cls-3" x="74.9" y="14.34" width="1.87" height="2.07"/><rect class="cls-3" x="76.24" y="1.09" width="1.87" height="2.07"/><rect class="cls-3" x="37.29" y="20.8" width="1.87" height="2.07"/><rect class="cls-3" x="40.02" y="10.47" width="1.87" height="2.07"/><rect class="cls-3" x="33.84" y="4.04" width="1.87" height="2.07"/><rect class="cls-3" x="48.04" y="14.34" width="1.87" height="2.07"/><rect class="cls-3" x="46.7" y="1.09" width="1.87" height="2.07"/><rect class="cls-1" x="29.94" width="65" height="65"/><path class="cls-3" d="M8.13,82.74H9.44V94.13H8.13V88.9H1.3v5.23H0V82.74H1.3v5.05H8.13Z"/><path class="cls-3" d="M21.2,94.13H19.81L18.4,90.34a1.66,1.66,0,0,0-.71-1,2.85,2.85,0,0,0-1.29-.24H13.55v5H12.26V82.74h4.52a4.36,4.36,0,0,1,2.83.81,2.91,2.91,0,0,1,1,2.35A3,3,0,0,1,20,87.78a3.11,3.11,0,0,1-1.69,1.08,1.61,1.61,0,0,1,.85.43,2.77,2.77,0,0,1,.59,1Zm-4.53-6.07c1.75,0,2.63-.71,2.63-2.14a2,2,0,0,0-.64-1.58,3.18,3.18,0,0,0-2-.52H13.55v4.24Z"/><path class="cls-3" d="M29.58,93.55a4.63,4.63,0,0,1-1.84-2,7.16,7.16,0,0,1-.64-3.11,7.05,7.05,0,0,1,.64-3.1,4.66,4.66,0,0,1,1.84-2,5.39,5.39,0,0,1,2.8-.7,6.25,6.25,0,0,1,2.17.36,4.5,4.5,0,0,1,1.7,1.08l-.49,1a5.54,5.54,0,0,0-1.61-1,4.91,4.91,0,0,0-1.75-.31A3.58,3.58,0,0,0,29.5,85a5.18,5.18,0,0,0-1,3.46,5.25,5.25,0,0,0,1,3.48,3.59,3.59,0,0,0,2.91,1.22,4.91,4.91,0,0,0,1.75-.3,5.76,5.76,0,0,0,1.61-1l.49,1a4.5,4.5,0,0,1-1.7,1.08,6.25,6.25,0,0,1-2.17.36A5.39,5.39,0,0,1,29.58,93.55Z"/><path class="cls-3" d="M40.3,93.55a4.67,4.67,0,0,1-1.8-2,7.94,7.94,0,0,1,0-6.2,4.53,4.53,0,0,1,1.79-2,5.81,5.81,0,0,1,5.53,0,4.61,4.61,0,0,1,1.8,2,7.19,7.19,0,0,1,.62,3.09,7.09,7.09,0,0,1-.63,3.1,4.66,4.66,0,0,1-1.8,2,5.15,5.15,0,0,1-2.75.72A5.25,5.25,0,0,1,40.3,93.55Zm5.57-1.65a6.53,6.53,0,0,0,0-7,3.45,3.45,0,0,0-2.82-1.21A3.5,3.5,0,0,0,40.22,85a6.54,6.54,0,0,0,0,7,3.46,3.46,0,0,0,2.84,1.24A3.41,3.41,0,0,0,45.87,91.9Z"/><path class="cls-3" d="M58.53,82.74h1.25V94.13h-1L51.87,85v9.17H50.64V82.74h1l6.88,9.16Z"/><path class="cls-3" d="M61.93,92.82l.5-1a5.38,5.38,0,0,0,1.73,1,6.36,6.36,0,0,0,2,.31,3.59,3.59,0,0,0,2.12-.54,1.77,1.77,0,0,0,.74-1.51,1.27,1.27,0,0,0-.36-.94,2.49,2.49,0,0,0-.94-.57c-.39-.13-.91-.28-1.56-.43a14.25,14.25,0,0,1-2.16-.62,3.41,3.41,0,0,1-1.38-1,2.5,2.5,0,0,1-.53-1.66,2.91,2.91,0,0,1,.52-1.72A3.42,3.42,0,0,1,64.1,83a5.52,5.52,0,0,1,2.19-.41A6.41,6.41,0,0,1,68.5,83a4.52,4.52,0,0,1,1.72,1.07l-.51,1a5.49,5.49,0,0,0-1.62-1,4.8,4.8,0,0,0-1.8-.32,3.36,3.36,0,0,0-2.08.57,1.85,1.85,0,0,0-.75,1.56,1.44,1.44,0,0,0,.65,1.29,6.4,6.4,0,0,0,2,.75c1,.24,1.75.45,2.31.65a3.46,3.46,0,0,1,1.4.9A2.25,2.25,0,0,1,70.4,91a2.88,2.88,0,0,1-.51,1.69,3.34,3.34,0,0,1-1.47,1.13,5.84,5.84,0,0,1-2.23.4A6.1,6.1,0,0,1,61.93,92.82Z"/><path class="cls-3" d="M73.61,93.1a4.69,4.69,0,0,1-1.15-3.44V82.74h1.3v7a3.47,3.47,0,0,0,.82,2.51,3.2,3.2,0,0,0,2.41.85,3.17,3.17,0,0,0,2.39-.85,3.51,3.51,0,0,0,.81-2.51v-7H81.5v6.92a4.68,4.68,0,0,1-1.15,3.43,5.46,5.46,0,0,1-6.74,0Z"/><path class="cls-3" d="M84.24,94.13V82.74h1.31V93h5.71v1.12Z"/><path class="cls-3" d="M93.7,94.13V83.86h-4V82.74H99v1.12H95V94.13Z"/><path class="cls-3" d="M100.59,94.13V82.74h1.31V94.13Z"/><path class="cls-3" d="M112.61,82.74h1.24V94.13h-1L106,85v9.17h-1.23V82.74h1l6.88,9.16Z"/><path class="cls-3" d="M125.66,88.19v5.28a6.27,6.27,0,0,1-1.76.57,11.58,11.58,0,0,1-2.21.22,5.87,5.87,0,0,1-2.92-.7,4.47,4.47,0,0,1-1.88-2,7.84,7.84,0,0,1,0-6.25,4.66,4.66,0,0,1,1.85-2,5.69,5.69,0,0,1,2.86-.69,6.47,6.47,0,0,1,2.2.36,4.65,4.65,0,0,1,1.72,1.08l-.51,1a6,6,0,0,0-1.63-1,4.78,4.78,0,0,0-1.78-.31,3.68,3.68,0,0,0-3,1.21,6.41,6.41,0,0,0,0,7,3.86,3.86,0,0,0,3.08,1.21,8.32,8.32,0,0,0,2.73-.45V89.23h-2.83v-1Z"/></g></g></svg>